<svg width="294" height="220" viewBox="0 0 294 220" fill="none" xmlns="http://www.w3.org/2000/svg">
<path d="M206.755 25.4467H86.584V194.553H206.755V25.4467Z" fill="white"/>
<path d="M206.749 25.4467V194.553H86.5849V25.4467H206.749ZM206.749 24.7133H86.5849C86.3904 24.7133 86.2039 24.7906 86.0664 24.9281C85.9288 25.0656 85.8516 25.2522 85.8516 25.4467V194.553C85.8516 194.748 85.9288 194.934 86.0664 195.072C86.2039 195.209 86.3904 195.287 86.5849 195.287H206.749C206.943 195.287 207.13 195.209 207.267 195.072C207.405 194.934 207.482 194.748 207.482 194.553V25.4467C207.482 25.2522 207.405 25.0656 207.267 24.9281C207.13 24.7906 206.943 24.7133 206.749 24.7133Z" fill="#231F20"/>
<path d="M101.412 152.959C101.478 152.863 101.53 152.775 101.596 152.695C101.985 152.12 102.529 151.667 103.165 151.389C103.779 151.127 104.457 151.057 105.112 151.188C105.766 151.319 106.366 151.645 106.832 152.123C107.302 152.606 107.603 153.229 107.69 153.897C107.745 154.331 107.745 154.769 107.69 155.203C107.657 155.623 107.568 156.038 107.426 156.435C107.197 157.063 106.846 157.639 106.392 158.129C105.93 158.63 105.44 159.105 104.925 159.551L102.248 161.898C101.992 162.125 101.735 162.375 101.515 162.631L101.464 162.675L101.28 162.499C100.415 161.685 99.5203 160.901 98.6256 160.123C98.0389 159.617 97.4523 159.111 96.9023 158.561C96.4974 158.171 96.1449 157.73 95.8536 157.249C95.543 156.738 95.3408 156.169 95.2596 155.577C95.1886 155.14 95.1616 154.698 95.1789 154.257C95.1948 153.613 95.408 152.99 95.7897 152.472C96.1714 151.954 96.7032 151.566 97.3129 151.36C97.9189 151.14 98.5761 151.102 99.2032 151.252C99.8302 151.402 100.399 151.733 100.84 152.203C101.067 152.423 101.266 152.669 101.434 152.937L101.412 152.959Z" fill="#FF6C22"/>
<path d="M123.581 162.954C123.513 162.952 123.447 162.932 123.39 162.895L121.249 161.605C120.466 161.888 119.639 162.027 118.807 162.015C115.228 162.015 112.317 159.5 112.324 156.413C112.333 155.649 112.509 154.896 112.841 154.208C113.173 153.519 113.653 152.913 114.246 152.431C115.526 151.368 117.143 150.793 118.807 150.81C120.475 150.791 122.095 151.368 123.376 152.438C123.968 152.92 124.448 153.527 124.78 154.215C125.112 154.903 125.288 155.656 125.297 156.42C125.287 157.699 124.801 158.928 123.933 159.867V162.617C123.933 162.682 123.915 162.745 123.881 162.801C123.848 162.856 123.8 162.902 123.742 162.932C123.691 162.951 123.636 162.959 123.581 162.954ZM121.286 160.835C121.353 160.833 121.419 160.851 121.476 160.886L123.214 161.935V159.735C123.215 159.639 123.252 159.548 123.317 159.478C124.108 158.669 124.557 157.588 124.571 156.457C124.56 155.799 124.406 155.151 124.118 154.56C123.831 153.968 123.417 153.447 122.906 153.032C121.761 152.07 120.31 151.549 118.814 151.565C117.322 151.554 115.874 152.074 114.73 153.032C114.219 153.447 113.805 153.968 113.517 154.56C113.23 155.151 113.075 155.799 113.065 156.457C113.065 159.141 115.639 161.326 118.814 161.326C119.614 161.33 120.407 161.185 121.154 160.901L121.286 160.835Z" fill="#D1D3D4"/>
<path d="M135.719 162.367H135.668C135.593 162.356 135.524 162.322 135.47 162.269C135.416 162.217 135.38 162.148 135.367 162.074L134.531 157.476L129.398 154.829C129.331 154.795 129.277 154.742 129.243 154.676C129.209 154.61 129.196 154.535 129.207 154.462C129.215 154.387 129.247 154.317 129.297 154.26C129.346 154.204 129.412 154.164 129.486 154.147L141.124 151.433C141.193 151.419 141.265 151.424 141.331 151.449C141.397 151.474 141.455 151.517 141.498 151.573C141.537 151.631 141.559 151.7 141.559 151.771C141.559 151.841 141.537 151.91 141.498 151.969L135.99 162.177C135.963 162.228 135.925 162.271 135.877 162.304C135.83 162.338 135.776 162.359 135.719 162.367ZM130.644 154.631L135.044 156.897C135.094 156.924 135.136 156.962 135.169 157.007C135.202 157.053 135.225 157.105 135.235 157.161L135.917 160.908L140.544 152.328L130.644 154.631Z" fill="#D1D3D4"/>
<path d="M134.853 157.586C134.778 157.587 134.704 157.564 134.642 157.522C134.58 157.479 134.532 157.419 134.506 157.348C134.479 157.278 134.475 157.201 134.494 157.128C134.513 157.055 134.554 156.99 134.611 156.941L140.991 151.507C141.027 151.475 141.07 151.452 141.116 151.437C141.161 151.422 141.21 151.416 141.258 151.42C141.306 151.424 141.352 151.437 141.395 151.459C141.438 151.48 141.477 151.51 141.508 151.547C141.539 151.584 141.563 151.626 141.578 151.672C141.593 151.718 141.598 151.766 141.595 151.814C141.591 151.862 141.578 151.909 141.556 151.952C141.534 151.995 141.504 152.033 141.467 152.064L135.087 157.505C135.022 157.56 134.938 157.588 134.853 157.586Z" fill="#D1D3D4"/>
<path d="M199.599 162.287C199.507 162.287 199.418 162.253 199.349 162.191L195.514 158.693L191.033 162.213C190.978 162.255 190.913 162.28 190.844 162.286C190.776 162.293 190.707 162.28 190.645 162.25C190.583 162.22 190.531 162.173 190.495 162.114C190.458 162.056 190.439 161.989 190.439 161.92V151.8C190.439 151.703 190.478 151.609 190.547 151.541C190.616 151.472 190.709 151.433 190.806 151.433H199.606C199.703 151.433 199.797 151.472 199.865 151.541C199.934 151.609 199.973 151.703 199.973 151.8V161.92C199.972 161.991 199.951 162.061 199.912 162.121C199.873 162.181 199.818 162.228 199.753 162.257C199.705 162.279 199.652 162.289 199.599 162.287ZM191.173 152.181V161.172L195.309 157.923C195.374 157.867 195.457 157.836 195.543 157.836C195.63 157.836 195.713 157.867 195.778 157.923L199.232 161.069V152.181H191.173Z" fill="#D1D3D4"/>
<path d="M98.7951 168.395C99.1531 168.398 99.511 168.466 99.869 168.6C100.227 168.733 100.554 168.955 100.849 169.265C101.145 169.572 101.382 169.991 101.561 170.522C101.74 171.053 101.829 171.719 101.829 172.52C101.829 173.296 101.755 173.985 101.608 174.587C101.463 175.187 101.252 175.692 100.977 176.104C100.704 176.516 100.372 176.829 99.9798 177.042C99.5906 177.255 99.1502 177.361 98.6587 177.361C98.1701 177.361 97.734 177.265 97.3505 177.072C96.9698 176.876 96.6573 176.604 96.413 176.258C96.1715 175.908 96.0167 175.503 95.9485 175.043H96.9883C97.082 175.444 97.2681 175.775 97.5465 176.036C97.8278 176.295 98.1985 176.424 98.6587 176.424C99.332 176.424 99.8633 176.13 100.252 175.542C100.645 174.954 100.841 174.123 100.841 173.049H100.772C100.613 173.287 100.424 173.493 100.206 173.667C99.9869 173.84 99.744 173.974 99.4769 174.067C99.2099 174.161 98.9258 174.208 98.6246 174.208C98.1246 174.208 97.6658 174.084 97.2482 173.837C96.8335 173.587 96.5011 173.245 96.2511 172.81C96.0039 172.373 95.8803 171.873 95.8803 171.31C95.8803 170.776 95.9996 170.287 96.2383 169.844C96.4798 169.398 96.8178 169.043 97.2525 168.779C97.69 168.515 98.2042 168.387 98.7951 168.395ZM98.7951 169.333C98.4371 169.333 98.1147 169.422 97.8278 169.601C97.5437 169.778 97.3178 170.016 97.1502 170.317C96.9854 170.616 96.9031 170.947 96.9031 171.31C96.9031 171.674 96.9826 172.005 97.1417 172.303C97.3036 172.599 97.5238 172.834 97.8022 173.01C98.0835 173.184 98.4031 173.27 98.761 173.27C99.0309 173.27 99.2823 173.218 99.5153 173.113C99.7482 173.005 99.9513 172.858 100.125 172.674C100.301 172.486 100.439 172.275 100.538 172.039C100.637 171.8 100.687 171.552 100.687 171.293C100.687 170.952 100.605 170.633 100.44 170.334C100.278 170.036 100.054 169.795 99.7667 169.61C99.4826 169.425 99.1587 169.333 98.7951 169.333ZM106.283 168.395C106.641 168.398 106.999 168.466 107.357 168.6C107.715 168.733 108.042 168.955 108.337 169.265C108.633 169.572 108.87 169.991 109.049 170.522C109.228 171.053 109.317 171.719 109.317 172.52C109.317 173.296 109.244 173.985 109.096 174.587C108.951 175.187 108.741 175.692 108.465 176.104C108.192 176.516 107.86 176.829 107.468 177.042C107.079 177.255 106.638 177.361 106.147 177.361C105.658 177.361 105.222 177.265 104.839 177.072C104.458 176.876 104.146 176.604 103.901 176.258C103.66 175.908 103.505 175.503 103.437 175.043H104.477C104.57 175.444 104.756 175.775 105.035 176.036C105.316 176.295 105.687 176.424 106.147 176.424C106.82 176.424 107.352 176.13 107.741 175.542C108.133 174.954 108.329 174.123 108.329 173.049H108.261C108.102 173.287 107.913 173.493 107.694 173.667C107.475 173.84 107.232 173.974 106.965 174.067C106.698 174.161 106.414 174.208 106.113 174.208C105.613 174.208 105.154 174.084 104.737 173.837C104.322 173.587 103.989 173.245 103.739 172.81C103.492 172.373 103.369 171.873 103.369 171.31C103.369 170.776 103.488 170.287 103.727 169.844C103.968 169.398 104.306 169.043 104.741 168.779C105.178 168.515 105.692 168.387 106.283 168.395ZM106.283 169.333C105.925 169.333 105.603 169.422 105.316 169.601C105.032 169.778 104.806 170.016 104.638 170.317C104.474 170.616 104.391 170.947 104.391 171.31C104.391 171.674 104.471 172.005 104.63 172.303C104.792 172.599 105.012 172.834 105.29 173.01C105.572 173.184 105.891 173.27 106.249 173.27C106.519 173.27 106.771 173.218 107.004 173.113C107.237 173.005 107.44 172.858 107.613 172.674C107.789 172.486 107.927 172.275 108.026 172.039C108.126 171.8 108.175 171.552 108.175 171.293C108.175 170.952 108.093 170.633 107.928 170.334C107.766 170.036 107.542 169.795 107.255 169.61C106.971 169.425 106.647 169.333 106.283 169.333ZM113.772 168.395C114.13 168.398 114.488 168.466 114.846 168.6C115.203 168.733 115.53 168.955 115.826 169.265C116.121 169.572 116.358 169.991 116.537 170.522C116.716 171.053 116.806 171.719 116.806 172.52C116.806 173.296 116.732 173.985 116.584 174.587C116.439 175.187 116.229 175.692 115.953 176.104C115.681 176.516 115.348 176.829 114.956 177.042C114.567 177.255 114.127 177.361 113.635 177.361C113.147 177.361 112.711 177.265 112.327 177.072C111.946 176.876 111.634 176.604 111.39 176.258C111.148 175.908 110.993 175.503 110.925 175.043H111.965C112.059 175.444 112.245 175.775 112.523 176.036C112.804 176.295 113.175 176.424 113.635 176.424C114.309 176.424 114.84 176.13 115.229 175.542C115.621 174.954 115.817 174.123 115.817 173.049H115.749C115.59 173.287 115.401 173.493 115.182 173.667C114.963 173.84 114.721 173.974 114.453 174.067C114.186 174.161 113.902 174.208 113.601 174.208C113.101 174.208 112.642 174.084 112.225 173.837C111.81 173.587 111.478 173.245 111.228 172.81C110.98 172.373 110.857 171.873 110.857 171.31C110.857 170.776 110.976 170.287 111.215 169.844C111.456 169.398 111.794 169.043 112.229 168.779C112.667 168.515 113.181 168.387 113.772 168.395ZM113.772 169.333C113.414 169.333 113.091 169.422 112.804 169.601C112.52 169.778 112.294 170.016 112.127 170.317C111.962 170.616 111.88 170.947 111.88 171.31C111.88 171.674 111.959 172.005 112.118 172.303C112.28 172.599 112.5 172.834 112.779 173.01C113.06 173.184 113.38 173.27 113.738 173.27C114.007 173.27 114.259 173.218 114.492 173.113C114.725 173.005 114.928 172.858 115.101 172.674C115.277 172.486 115.415 172.275 115.515 172.039C115.614 171.8 115.664 171.552 115.664 171.293C115.664 170.952 115.581 170.633 115.417 170.334C115.255 170.036 115.03 169.795 114.743 169.61C114.459 169.425 114.135 169.333 113.772 169.333ZM122.01 177.242V168.515H123.067V176.305H127.124V177.242H122.01ZM128.624 177.242V170.697H129.629V177.242H128.624ZM129.135 169.606C128.939 169.606 128.77 169.539 128.628 169.405C128.489 169.272 128.419 169.111 128.419 168.924C128.419 168.736 128.489 168.576 128.628 168.442C128.77 168.309 128.939 168.242 129.135 168.242C129.331 168.242 129.499 168.309 129.638 168.442C129.78 168.576 129.851 168.736 129.851 168.924C129.851 169.111 129.78 169.272 129.638 169.405C129.499 169.539 129.331 169.606 129.135 169.606ZM132.409 174.856L132.392 173.611H132.596L135.46 170.697H136.704L133.653 173.782H133.568L132.409 174.856ZM131.471 177.242V168.515H132.477V177.242H131.471ZM135.63 177.242L133.074 174.003L133.789 173.305L136.909 177.242H135.63ZM140.473 177.378C139.843 177.378 139.299 177.239 138.841 176.961C138.387 176.68 138.036 176.287 137.789 175.785C137.544 175.279 137.422 174.691 137.422 174.02C137.422 173.35 137.544 172.759 137.789 172.248C138.036 171.733 138.38 171.333 138.82 171.046C139.263 170.756 139.78 170.611 140.371 170.611C140.712 170.611 141.049 170.668 141.381 170.782C141.713 170.895 142.016 171.08 142.289 171.336C142.561 171.589 142.779 171.924 142.941 172.341C143.103 172.759 143.184 173.273 143.184 173.884V174.31H138.138V173.441H142.161C142.161 173.072 142.087 172.742 141.939 172.452C141.794 172.162 141.587 171.934 141.317 171.766C141.05 171.599 140.735 171.515 140.371 171.515C139.971 171.515 139.624 171.614 139.331 171.813C139.042 172.009 138.819 172.265 138.662 172.58C138.506 172.895 138.428 173.233 138.428 173.594V174.174C138.428 174.668 138.513 175.087 138.684 175.431C138.857 175.772 139.097 176.032 139.404 176.211C139.711 176.387 140.067 176.475 140.473 176.475C140.738 176.475 140.976 176.438 141.189 176.364C141.405 176.287 141.591 176.174 141.748 176.023C141.904 175.87 142.025 175.68 142.11 175.452L143.081 175.725C142.979 176.055 142.807 176.344 142.566 176.594C142.324 176.841 142.026 177.035 141.671 177.174C141.316 177.31 140.917 177.378 140.473 177.378ZM149.35 172.162L148.446 172.418C148.39 172.268 148.306 172.121 148.195 171.979C148.087 171.834 147.939 171.715 147.752 171.621C147.564 171.528 147.324 171.481 147.032 171.481C146.631 171.481 146.297 171.573 146.03 171.758C145.766 171.939 145.634 172.171 145.634 172.452C145.634 172.702 145.725 172.9 145.907 173.045C146.088 173.189 146.373 173.31 146.759 173.407L147.73 173.645C148.316 173.787 148.752 174.005 149.039 174.297C149.326 174.587 149.469 174.961 149.469 175.418C149.469 175.793 149.361 176.128 149.145 176.424C148.932 176.719 148.634 176.952 148.25 177.123C147.867 177.293 147.421 177.378 146.912 177.378C146.245 177.378 145.692 177.233 145.255 176.944C144.817 176.654 144.54 176.231 144.424 175.674L145.378 175.435C145.469 175.787 145.641 176.052 145.894 176.228C146.15 176.404 146.483 176.492 146.895 176.492C147.364 176.492 147.736 176.393 148.012 176.194C148.29 175.992 148.429 175.751 148.429 175.469C148.429 175.242 148.35 175.052 148.191 174.898C148.032 174.742 147.787 174.626 147.458 174.549L146.367 174.293C145.767 174.151 145.327 173.931 145.046 173.633C144.767 173.331 144.628 172.955 144.628 172.503C144.628 172.134 144.732 171.807 144.939 171.523C145.15 171.239 145.435 171.016 145.796 170.854C146.159 170.692 146.571 170.611 147.032 170.611C147.679 170.611 148.188 170.753 148.557 171.037C148.929 171.322 149.194 171.697 149.35 172.162Z" fill="#D1D3D4"/>
<path d="M190.805 181.911H95.4721C95.3749 181.911 95.2816 181.872 95.2129 181.803C95.1441 181.735 95.1055 181.641 95.1055 181.544C95.1055 181.447 95.1441 181.354 95.2129 181.285C95.2816 181.216 95.3749 181.177 95.4721 181.177H190.805C190.903 181.177 190.996 181.216 191.065 181.285C191.134 181.354 191.172 181.447 191.172 181.544C191.172 181.641 191.134 181.735 191.065 181.803C190.996 181.872 190.903 181.911 190.805 181.911Z" fill="#D1D3D4"/>
<path d="M175.326 186.318H95.4585C95.3612 186.318 95.268 186.279 95.1992 186.211C95.1304 186.142 95.0918 186.049 95.0918 185.951C95.0918 185.854 95.1304 185.761 95.1992 185.692C95.268 185.623 95.3612 185.585 95.4585 185.585H175.326C175.423 185.585 175.516 185.623 175.585 185.692C175.654 185.761 175.692 185.854 175.692 185.951C175.691 186.048 175.651 186.14 175.583 186.209C175.515 186.277 175.422 186.316 175.326 186.318Z" fill="#D1D3D4"/>
<path d="M206.755 42.174H86.584V146.894H206.755V42.174Z" fill="white"/>
<path d="M206.749 42.174V146.894H86.5849V42.174H206.749ZM206.749 41.4407H86.5849C86.3904 41.4407 86.2039 41.5179 86.0664 41.6555C85.9288 41.793 85.8516 41.9795 85.8516 42.174V146.894C85.8516 147.089 85.9288 147.275 86.0664 147.413C86.2039 147.55 86.3904 147.627 86.5849 147.627H206.749C206.943 147.627 207.13 147.55 207.267 147.413C207.405 147.275 207.482 147.089 207.482 146.894V42.174C207.482 41.9795 207.405 41.793 207.267 41.6555C207.13 41.5179 206.943 41.4407 206.749 41.4407Z" fill="#231F20"/>
<path d="M98.7662 125.4C98.6689 125.4 98.5757 125.361 98.5069 125.293C98.4381 125.224 98.3995 125.131 98.3995 125.033L98.3262 64.9C98.3262 64.8027 98.3648 64.7095 98.4336 64.6407C98.5023 64.572 98.5956 64.5333 98.6928 64.5333C98.7901 64.5333 98.8833 64.572 98.9521 64.6407C99.0209 64.7095 99.0595 64.8027 99.0595 64.9L99.1328 125.033C99.1328 125.131 99.0942 125.224 99.0254 125.293C98.9567 125.361 98.8634 125.4 98.7662 125.4Z" fill="#D1D3D4"/>
<path d="M187.961 135.733H187.844C187.755 135.704 187.682 135.642 187.638 135.56C187.594 135.478 187.584 135.382 187.609 135.293C187.785 134.303 189.01 108.695 189.641 94.9227H185.006C184.929 94.9225 184.853 94.8985 184.79 94.8539C184.727 94.8092 184.68 94.7462 184.654 94.6733C184.629 94.6016 184.628 94.5239 184.651 94.4514C184.673 94.379 184.718 94.3155 184.779 94.27L202.943 79.9113C203.021 79.8527 203.118 79.8262 203.215 79.8371C203.312 79.848 203.401 79.8956 203.464 79.97C203.524 80.0481 203.55 80.1464 203.538 80.2439C203.525 80.3413 203.475 80.4299 203.398 80.4907L186.062 94.1893H190.029C190.078 94.1886 190.127 94.198 190.173 94.2169C190.218 94.2359 190.259 94.2639 190.293 94.2993C190.359 94.3746 190.395 94.4709 190.396 94.5707C190.081 101.295 188.526 134.867 188.313 135.505C188.285 135.575 188.236 135.634 188.173 135.674C188.11 135.715 188.036 135.735 187.961 135.733Z" fill="#D1D3D4"/>
<path d="M110.258 126.61C110.162 126.608 110.071 126.57 110.003 126.503C109.935 126.436 109.895 126.346 109.891 126.251L108.828 65.9487L98.671 65.2667C98.5763 65.261 98.4876 65.2189 98.4233 65.1491C98.359 65.0794 98.3243 64.9875 98.3263 64.8927L98.5977 49.9473L87.2677 49.1333C87.2195 49.13 87.1725 49.1171 87.1293 49.0956C87.0861 49.0741 87.0476 49.0442 87.0159 49.0078C86.952 48.9342 86.9199 48.8382 86.9267 48.741C86.9335 48.6437 86.9786 48.5532 87.0522 48.4892C87.1258 48.4253 87.2218 48.3932 87.319 48.4L99.001 49.2433C99.0944 49.2489 99.1821 49.29 99.2462 49.3582C99.3103 49.4264 99.3458 49.5164 99.3457 49.61L99.067 64.5333L109.216 65.2227C109.308 65.2283 109.394 65.2686 109.456 65.3354C109.519 65.4022 109.554 65.4904 109.554 65.582L110.624 126.214C110.626 126.262 110.618 126.311 110.601 126.356C110.584 126.401 110.558 126.443 110.524 126.478C110.491 126.513 110.451 126.54 110.406 126.559C110.361 126.578 110.313 126.588 110.265 126.588L110.258 126.61Z" fill="#D1D3D4"/>
<path d="M203.17 142.604H203.082C202.737 142.516 168.879 133.606 151.646 128.671C134.412 123.735 93.0156 131.017 92.5976 131.091C92.5508 131.1 92.5025 131.1 92.4558 131.09C92.409 131.08 92.3647 131.061 92.3256 131.034C92.2865 131.006 92.2534 130.971 92.2283 130.931C92.2032 130.89 92.1866 130.845 92.1796 130.797C92.1625 130.702 92.1837 130.604 92.2387 130.524C92.2936 130.445 92.3778 130.39 92.473 130.372C92.891 130.299 134.537 123.039 151.873 127.967C169.209 132.895 202.957 141.775 203.294 141.863C203.392 141.876 203.48 141.927 203.54 142.004C203.599 142.082 203.626 142.18 203.613 142.278C203.601 142.375 203.55 142.463 203.472 142.523C203.394 142.583 203.296 142.609 203.199 142.597L203.17 142.604Z" fill="#D1D3D4"/>
<path d="M97.7969 38.324C100.421 38.324 102.549 36.1965 102.549 33.572C102.549 30.9475 100.421 28.82 97.7969 28.82C95.1725 28.82 93.0449 30.9475 93.0449 33.572C93.0449 36.1965 95.1725 38.324 97.7969 38.324Z" fill="#D1D3D4"/>
<path d="M139.561 31.5333H106.253C106.156 31.5333 106.063 31.4947 105.994 31.4259C105.925 31.3572 105.887 31.2639 105.887 31.1667C105.887 31.0694 105.925 30.9762 105.994 30.9074C106.063 30.8386 106.156 30.8 106.253 30.8H139.561C139.659 30.8 139.752 30.8386 139.821 30.9074C139.889 30.9762 139.928 31.0694 139.928 31.1667C139.928 31.2639 139.889 31.3572 139.821 31.4259C139.752 31.4947 139.659 31.5333 139.561 31.5333Z" fill="#D1D3D4"/>
<path d="M124.791 36.3073H105.79C105.693 36.3073 105.6 36.2687 105.531 36.1999C105.462 36.1312 105.424 36.0379 105.424 35.9407C105.426 35.844 105.465 35.7518 105.533 35.6835C105.602 35.6151 105.694 35.5759 105.79 35.574H124.791C124.888 35.5759 124.98 35.6151 125.048 35.6835C125.117 35.7518 125.156 35.844 125.158 35.9407C125.158 36.0379 125.119 36.1312 125.05 36.1999C124.982 36.2687 124.888 36.3073 124.791 36.3073Z" fill="#D1D3D4"/>
<path d="M192.076 34.21C192.542 34.21 192.919 33.8324 192.919 33.3667C192.919 32.9009 192.542 32.5233 192.076 32.5233C191.61 32.5233 191.232 32.9009 191.232 33.3667C191.232 33.8324 191.61 34.21 192.076 34.21Z" fill="#D1D3D4"/>
<path d="M195.638 34.21C196.104 34.21 196.482 33.8324 196.482 33.3667C196.482 32.9009 196.104 32.5233 195.638 32.5233C195.172 32.5233 194.795 32.9009 194.795 33.3667C194.795 33.8324 195.172 34.21 195.638 34.21Z" fill="#D1D3D4"/>
<path d="M199.195 34.21C199.661 34.21 200.038 33.8324 200.038 33.3667C200.038 32.9009 199.661 32.5233 199.195 32.5233C198.729 32.5233 198.352 32.9009 198.352 33.3667C198.352 33.8324 198.729 34.21 199.195 34.21Z" fill="#D1D3D4"/>
<path d="M133.994 91.2707L100.606 95.106L92.5391 116.431L135.696 117.883L133.994 91.2707Z" fill="#FF6C22"/>
<path d="M168.265 90.8013L206.75 105.358V132.609L163.256 119.262L168.265 90.8013Z" fill="#FF6C22"/>
<path d="M179.975 146.894C179.037 129.008 181.178 114.363 170.625 93.1627C167.252 86.3867 151.559 91.19 144.137 91.9307C141.204 92.224 130.417 93.2067 127.667 94.4387C120.971 97.4453 122.841 129.03 124 146.894H179.975Z" fill="#FF6C22"/>
<path d="M142.436 95.524C142.436 95.524 144.203 110.271 152.145 108.372C160.087 106.473 156.31 93.2287 156.31 93.2287L142.436 95.524Z" fill="#231F20"/>
<path d="M150.774 108.907C149.64 108.909 148.534 108.552 147.614 107.888C143.214 104.837 142.114 95.942 142.07 95.568C142.057 95.4737 142.082 95.3783 142.14 95.3027C142.198 95.2271 142.283 95.1774 142.378 95.1647L156.252 92.862C156.341 92.8479 156.432 92.867 156.508 92.9157C156.584 92.9644 156.639 93.0393 156.663 93.126C156.758 93.456 158.929 101.193 156.26 105.769C155.83 106.511 155.25 107.156 154.557 107.661C153.863 108.166 153.072 108.521 152.234 108.702C151.757 108.827 151.267 108.896 150.774 108.907ZM142.847 95.8247C143.104 97.4967 144.387 104.749 148.032 107.294C148.609 107.705 149.269 107.984 149.966 108.11C150.664 108.237 151.38 108.209 152.065 108.027C152.809 107.868 153.512 107.553 154.126 107.103C154.74 106.653 155.252 106.078 155.629 105.417C157.829 101.625 156.414 95.15 156.04 93.6833L142.847 95.8247Z" fill="#231F20"/>
<path d="M171.365 86.372C171.821 85.6595 172.181 84.8903 172.436 84.084C172.882 82.6409 172.977 81.112 172.713 79.6247C172.449 78.1373 171.834 76.7346 170.918 75.5333C168.967 73.04 165.982 71.7567 163.54 69.8427C160.695 67.6427 158.972 64.1667 156.742 61.3653C155.518 59.8253 153.934 57.7793 151.99 57.1413C149.61 56.3332 147.153 55.7753 144.657 55.4767C140.646 55.0733 137.324 56.4373 134.097 58.6887C133.381 59.135 132.738 59.6891 132.19 60.3313C131.921 60.6566 131.731 61.0396 131.635 61.4505C131.538 61.8613 131.537 62.2889 131.633 62.7C130.24 62.5167 129.176 63.9173 128.663 65.2227C126.778 70.0773 127.746 74.4113 128.575 79.3247C129.186 83.2972 130.091 87.2191 131.281 91.058C132.102 93.544 133.085 96.8807 135.916 97.7827C136.722 98.0393 135.593 97.2107 136.407 96.976C139.186 96.1987 142.171 95.5093 144.767 94.204C147.202 93.016 149.064 91.0507 151.404 89.804C154.557 88.1173 158.004 89.804 161.194 90.332C165.264 90.9333 169.224 89.6647 171.365 86.372Z" fill="white"/>
<path d="M136.166 98.1787C136.051 98.1724 135.938 98.1501 135.829 98.1127C132.932 97.1887 131.891 94.006 131.055 91.454L130.959 91.1533C129.758 87.291 128.846 83.3445 128.231 79.3467L128.048 78.2393C127.315 73.8393 126.581 69.63 128.349 65.0393C128.862 63.7267 129.859 62.3847 131.209 62.2747C131.18 61.4769 131.44 60.6955 131.942 60.0747C132.511 59.4007 133.182 58.8193 133.929 58.3513C137.706 55.7113 141.043 54.6847 144.739 55.0807C147.252 55.3772 149.727 55.9376 152.123 56.7527C154.118 57.4053 155.687 59.3853 156.949 60.9693L157.051 61.1013C157.785 62.0253 158.474 63.03 159.134 64.0347C160.498 66.022 161.913 68.0827 163.791 69.5567C164.612 70.202 165.521 70.7887 166.401 71.3533C168.221 72.3897 169.852 73.7261 171.227 75.306C172.19 76.5563 172.836 78.0206 173.112 79.5743C173.388 81.1281 173.284 82.7254 172.811 84.2307C172.543 85.0687 172.166 85.8677 171.689 86.6067C169.577 89.8627 165.653 91.3953 161.187 90.706C160.337 90.574 159.464 90.354 158.613 90.1413C156.267 89.5547 153.832 88.9533 151.625 90.1413C150.557 90.7531 149.535 91.4418 148.567 92.202C147.448 93.1012 146.245 93.8896 144.973 94.556C142.692 95.5883 140.318 96.4011 137.882 96.9833L136.555 97.3573H136.489C136.489 97.3573 136.547 97.4233 136.562 97.4673C136.616 97.5589 136.64 97.6642 136.634 97.7699C136.627 97.8756 136.59 97.9771 136.525 98.0613C136.478 98.1059 136.421 98.1396 136.359 98.1598C136.297 98.1801 136.231 98.1865 136.166 98.1787ZM131.407 63.0153C130.321 63.0153 129.456 64.2327 129.031 65.3253C127.322 69.7253 127.989 73.6047 128.767 78.1147L128.957 79.222C129.562 83.1951 130.464 87.1173 131.656 90.9553L131.751 91.256C132.485 93.5513 133.431 96.3893 135.755 97.3353C135.746 97.226 135.769 97.1162 135.821 97.02C135.874 96.9223 135.947 96.8371 136.036 96.77C136.125 96.703 136.226 96.6557 136.335 96.6313L137.662 96.2647C140.053 95.6883 142.386 94.8904 144.629 93.8813C145.856 93.2316 147.02 92.468 148.105 91.6007C149.102 90.8167 150.156 90.1082 151.258 89.4813C153.715 88.1613 156.289 88.8067 158.775 89.4227C159.64 89.6427 160.454 89.8407 161.275 89.9727C165.441 90.618 169.1 89.2393 171.058 86.196C171.496 85.5104 171.844 84.7709 172.092 83.996C172.528 82.6042 172.623 81.1277 172.368 79.6917C172.112 78.2556 171.515 76.9022 170.625 75.746C169.295 74.2347 167.724 72.9537 165.976 71.9547C165.081 71.3827 164.157 70.7813 163.307 70.114C161.341 68.574 159.897 66.4473 158.503 64.4307C157.843 63.4773 157.169 62.48 156.45 61.578L156.347 61.446C155.145 59.9353 153.649 58.058 151.867 57.4713C149.519 56.6767 147.096 56.1262 144.636 55.8287C141.123 55.4767 137.941 56.4447 134.318 58.9747C133.635 59.401 133.021 59.9303 132.499 60.544C132.264 60.8217 132.095 61.1503 132.007 61.504C131.92 61.8577 131.915 62.2268 131.993 62.5827C132.011 62.6411 132.014 62.7029 132.001 62.7626C131.989 62.8223 131.962 62.8779 131.923 62.9245C131.883 62.9711 131.833 63.0072 131.776 63.0294C131.719 63.0517 131.658 63.0595 131.597 63.052L131.407 63.0153Z" fill="#231F20"/>
<path d="M152.783 64.9C152.783 64.9 157.249 70.9573 157.615 76.4647C157.757 77.9922 157.45 79.5278 156.732 80.8836C156.015 82.2395 154.917 83.3567 153.575 84.0987L156.31 93.2287C156.31 93.2287 157.777 97.878 151.815 98.8753C150.095 99.1586 148.332 98.9995 146.691 98.4132C145.05 97.8269 143.586 96.8326 142.435 95.524L136.752 78.9287C136.752 78.9287 142.12 73.26 139.751 67.4007C139.751 67.4007 148.573 68.816 152.783 64.9Z" fill="white"/>
<path d="M150.091 99.3887C148.585 99.3633 147.101 99.0241 145.733 98.3928C144.366 97.7614 143.145 96.8518 142.149 95.722C142.121 95.6904 142.101 95.6527 142.09 95.612L136.399 79.0533C136.377 78.9896 136.373 78.921 136.387 78.855C136.401 78.789 136.434 78.7282 136.48 78.6793C136.531 78.628 141.613 73.106 139.413 67.54C139.389 67.4798 139.38 67.4142 139.389 67.3497C139.398 67.2853 139.424 67.2244 139.465 67.1733C139.507 67.1228 139.562 67.0841 139.623 67.061C139.685 67.0378 139.752 67.0311 139.817 67.0413C139.897 67.0413 148.514 68.3833 152.54 64.6287C152.622 64.5648 152.723 64.5311 152.826 64.5333C152.929 64.5476 153.023 64.5999 153.09 64.68C153.273 64.9367 157.622 70.8913 157.989 76.4133C158.127 77.9658 157.826 79.5257 157.12 80.9155C156.415 82.3054 155.334 83.4692 153.999 84.2747L156.661 93.1333C156.996 94.3695 156.828 95.688 156.192 96.8C155.407 98.076 153.955 98.8973 151.88 99.242C151.289 99.3393 150.69 99.3883 150.091 99.3887ZM142.757 95.3407C143.874 96.5781 145.282 97.5168 146.853 98.0714C148.425 98.6259 150.11 98.7788 151.755 98.516C153.611 98.2007 154.894 97.4967 155.561 96.4113C156.092 95.4761 156.234 94.3703 155.957 93.3313L153.222 84.2013C153.198 84.1183 153.204 84.0294 153.238 83.9502C153.273 83.871 153.335 83.8067 153.413 83.7687C154.696 83.0651 155.744 81.9995 156.426 80.7046C157.108 79.4098 157.394 77.9429 157.248 76.4867C156.947 71.8667 153.633 66.77 152.716 65.4427C148.961 68.574 142.347 68.09 140.301 67.848C142.024 73.1427 138.027 78.0487 137.169 79.0167L142.757 95.3407Z" fill="#231F20"/>
<path d="M136.753 75.9C136.753 75.9 134.502 70.246 136.02 65.6333C137.824 60.1553 143.72 55.5207 152.666 57.3833C152.666 57.3833 149.205 54.9413 145.876 55.374C142.546 55.8067 137.692 55.11 133.666 62.612C129.64 70.114 136.753 75.9 136.753 75.9Z" fill="#231F20"/>
<path d="M136.753 76.2667C136.67 76.2656 136.59 76.2373 136.525 76.186C136.452 76.12 129.192 70.1287 133.335 62.4433C136.929 55.748 141.277 55.396 144.453 55.11C144.929 55.11 145.391 55.0367 145.824 54.978C149.249 54.538 152.725 56.9507 152.871 57.0533C152.941 57.1016 152.992 57.1725 153.015 57.2541C153.039 57.3357 153.033 57.4229 152.999 57.5007C152.966 57.5786 152.906 57.6423 152.83 57.6811C152.755 57.7199 152.668 57.7313 152.585 57.7133C143.785 55.8873 138.102 60.4193 136.364 65.7213C134.897 70.1213 137.097 75.68 137.097 75.7313C137.125 75.8073 137.128 75.8902 137.106 75.968C137.083 76.0458 137.037 76.1144 136.973 76.164C136.912 76.2204 136.835 76.2563 136.753 76.2667ZM146.667 55.6893C146.422 55.6902 146.178 55.7049 145.934 55.7333C145.487 55.792 145.017 55.8287 144.526 55.8727C141.351 56.1293 137.398 56.4447 133.995 62.788C133.204 64.1714 132.788 65.7374 132.788 67.331C132.788 68.9246 133.204 70.4906 133.995 71.874C134.521 72.8521 135.167 73.761 135.917 74.58C135.337 72.5707 134.567 68.816 135.653 65.5233C137.354 60.3313 142.605 55.8433 150.671 56.7233C149.426 56.0977 148.06 55.7452 146.667 55.6893Z" fill="#231F20"/>
<path d="M139.56 76.802C139.56 76.802 134.837 71.3093 132.865 76.2593C130.892 81.2093 136.832 84.2013 139.531 82.9767" fill="white"/>
<path d="M138.117 83.6C136.473 83.5522 134.905 82.8963 133.717 81.7593C132.945 81.0645 132.414 80.1424 132.2 79.1261C131.987 78.1098 132.102 77.052 132.529 76.1053C133.064 74.7707 133.841 74.008 134.853 73.8393C137.163 73.458 139.737 76.4133 139.847 76.538C139.911 76.6119 139.944 76.7083 139.937 76.8059C139.93 76.9036 139.885 76.9945 139.811 77.0587C139.737 77.1228 139.64 77.155 139.543 77.1482C139.445 77.1413 139.354 77.0959 139.29 77.022C139.29 77.022 136.877 74.25 134.978 74.5653C134.245 74.69 133.643 75.2987 133.211 76.3767C132.836 77.1892 132.73 78.1 132.908 78.9769C133.086 79.8539 133.539 80.6512 134.201 81.2533C135.667 82.6467 137.977 83.27 139.334 82.6467C139.378 82.626 139.425 82.6144 139.473 82.6124C139.522 82.6105 139.57 82.6183 139.615 82.6354C139.66 82.6526 139.701 82.6786 139.736 82.712C139.771 82.7455 139.799 82.7856 139.818 82.83C139.856 82.9187 139.858 83.0186 139.824 83.1088C139.789 83.199 139.722 83.2725 139.635 83.314C139.153 83.5097 138.637 83.607 138.117 83.6Z" fill="#231F20"/>
<path d="M149.086 77.5133C148.989 77.5133 148.896 77.4747 148.827 77.4059C148.758 77.3372 148.72 77.2439 148.72 77.1467C148.72 77.0494 148.758 76.9562 148.827 76.8874C148.896 76.8186 148.989 76.78 149.086 76.78C149.614 76.78 151.14 76.582 151.748 75.988C151.822 75.5627 149.952 73.744 147.744 72.1233C147.667 72.0649 147.615 71.9787 147.6 71.883C147.585 71.7872 147.608 71.6893 147.664 71.61C147.722 71.5322 147.809 71.4808 147.905 71.467C148.001 71.4533 148.099 71.4783 148.177 71.5367C148.91 72.05 152.386 74.6827 152.474 75.9367C152.482 76.0417 152.467 76.1471 152.43 76.2458C152.394 76.3445 152.336 76.4342 152.262 76.5087C151.316 77.4253 149.196 77.4987 149.108 77.506L149.086 77.5133Z" fill="#231F20"/>
<path d="M153.575 84.0987C153.575 84.0987 148.881 86.174 145.867 86.2987C145.867 86.2987 151.081 92.5687 155.709 91.146L153.575 84.0987Z" fill="#231F20"/>
<path d="M154.264 91.7253C149.952 91.7253 145.78 86.768 145.589 86.5333C145.544 86.4819 145.515 86.4188 145.504 86.3512C145.494 86.2837 145.503 86.2146 145.53 86.152C145.558 86.0887 145.603 86.0344 145.66 85.9955C145.717 85.9565 145.784 85.9345 145.853 85.932C148.786 85.8147 153.377 83.7833 153.428 83.732C153.476 83.712 153.527 83.7018 153.579 83.7018C153.63 83.7018 153.681 83.712 153.729 83.732C153.777 83.7533 153.819 83.7846 153.853 83.8239C153.887 83.8632 153.912 83.9094 153.927 83.9593L156.054 90.9993C156.068 91.0451 156.074 91.0933 156.069 91.1411C156.065 91.1889 156.051 91.2354 156.029 91.2778C156.006 91.3201 155.975 91.3576 155.938 91.3878C155.901 91.4181 155.858 91.4406 155.812 91.454C155.313 91.6233 154.791 91.7148 154.264 91.7253ZM146.638 86.592C147.965 88 151.771 91.63 155.247 90.8747L153.34 84.59C151.203 85.5219 148.963 86.1964 146.667 86.5993L146.638 86.592Z" fill="#231F20"/>
<path d="M144.805 74.3607C145.193 74.2207 145.309 73.5542 145.063 72.8722C144.818 72.1902 144.303 71.7509 143.915 71.8909C143.526 72.031 143.41 72.6974 143.656 73.3795C143.902 74.0615 144.416 74.5008 144.805 74.3607Z" fill="#231F20"/>
<path d="M130.314 87.736C131.73 93.1627 134.524 103.085 142.158 97.878C143.756 96.7773 144.865 95.1004 145.252 93.1993C145.942 89.76 140.17 87.0247 137.486 85.822" fill="white"/>
<path d="M138.176 99.7333C137.613 99.7361 137.054 99.6368 136.526 99.44C132.588 97.9733 130.879 91.3733 129.962 87.8607C129.938 87.7634 129.953 87.6605 130.005 87.5745C130.057 87.4886 130.14 87.4266 130.237 87.4023C130.335 87.378 130.438 87.3933 130.524 87.4449C130.61 87.4965 130.671 87.5801 130.696 87.6773C131.517 90.838 133.226 97.4087 136.804 98.7507C138.271 99.3153 140.031 98.9267 141.938 97.5993C143.456 96.5553 144.508 94.9615 144.871 93.1553C145.531 89.87 139.342 87.098 137.31 86.1887C137.222 86.1472 137.153 86.0724 137.118 85.9805C137.084 85.8886 137.087 85.7869 137.127 85.6973C137.167 85.609 137.241 85.5401 137.331 85.5057C137.422 85.4713 137.523 85.4743 137.611 85.514C141.366 87.2007 146.279 89.8407 145.59 93.302C145.186 95.2974 144.021 97.0571 142.341 98.208C141.137 99.1231 139.686 99.6546 138.176 99.7333Z" fill="#231F20"/>
<path d="M149.381 82.8667C148.975 82.8649 148.57 82.8256 148.171 82.7493C144.189 82.016 144.453 78.8553 144.453 78.8187C144.462 78.7279 144.505 78.6438 144.572 78.5828C144.64 78.5218 144.728 78.4882 144.82 78.4887H153.304C153.402 78.487 153.497 78.5238 153.568 78.5913C153.634 78.6637 153.67 78.7577 153.671 78.8553C153.659 79.4381 153.521 80.0113 153.268 80.5364C153.015 81.0614 152.652 81.526 152.204 81.8987C151.407 82.5443 150.407 82.8872 149.381 82.8667ZM145.201 79.2C145.267 79.9333 145.707 81.532 148.318 82.0087C148.903 82.1594 149.515 82.1777 150.109 82.0623C150.702 81.9469 151.263 81.7006 151.749 81.3413C152.388 80.8036 152.806 80.0489 152.923 79.222L145.201 79.2Z" fill="#231F20"/>
<path d="M150.201 71.94C150.163 71.9477 150.123 71.9477 150.084 71.94C150.038 71.9251 149.996 71.9013 149.96 71.8698C149.924 71.8384 149.894 71.8 149.873 71.757C149.852 71.7139 149.839 71.667 149.837 71.6191C149.834 71.5712 149.841 71.5232 149.857 71.478C150.127 70.6968 150.686 70.0486 151.419 69.6667C151.741 69.5351 152.088 69.4743 152.436 69.4882C152.784 69.5021 153.125 69.5905 153.435 69.7473C153.525 69.7862 153.595 69.8591 153.631 69.9498C153.667 70.0406 153.665 70.1419 153.626 70.2313C153.587 70.3208 153.514 70.3911 153.423 70.4269C153.333 70.4627 153.231 70.4609 153.142 70.422C152.918 70.3018 152.671 70.2323 152.418 70.2183C152.164 70.2044 151.911 70.2464 151.675 70.3413C151.139 70.6459 150.727 71.1285 150.509 71.7053C150.486 71.7698 150.444 71.8261 150.39 71.8677C150.335 71.9093 150.27 71.9344 150.201 71.94Z" fill="#231F20"/>
<path d="M98.4642 116.175C92.3848 120.047 84.7875 112.625 88.0655 102.975C91.3435 93.324 114.312 70.18 114.312 70.18C114.312 70.18 112.39 64.724 114.121 62.6707C115.851 60.6173 119.188 61.754 119.188 61.754C119.188 61.754 121.175 52.954 122.935 53.5847C124.695 54.2153 121.77 62.6927 121.77 62.6927C121.77 62.6927 126.478 53.372 127.636 55.1613C128.795 56.9507 124.145 63.8807 124.145 63.8807C124.145 63.8807 126.969 63.514 125.238 67.5473C124.122 69.9936 122.285 72.0404 119.973 73.414C119.973 73.414 104.543 112.295 98.4642 116.175Z" fill="white"/>
<path d="M94.9971 117.59C93.4161 117.568 91.8889 117.012 90.6631 116.013C87.7298 113.725 85.7131 108.775 87.7298 102.857C90.8905 93.5513 111.695 72.3213 113.902 70.0847C113.55 69.0067 112.186 64.4013 113.851 62.4287C115.376 60.6247 117.95 61.05 118.933 61.292C119.314 59.6713 120.722 54.164 122.262 53.3207C122.383 53.2488 122.517 53.2043 122.657 53.1903C122.796 53.1764 122.937 53.1933 123.069 53.24C124.33 53.702 123.861 56.7233 123.179 59.356C124.477 57.156 126.164 54.626 127.227 54.5673C127.373 54.5596 127.518 54.5917 127.648 54.6601C127.777 54.7286 127.885 54.8308 127.96 54.956C129.075 56.6573 126.039 61.6587 124.814 63.5507C125.215 63.6275 125.574 63.8462 125.826 64.1667C126.362 64.9 126.281 66.0587 125.584 67.672C124.474 70.1799 122.617 72.2847 120.268 73.7C119.534 75.9 114.841 86.944 111.871 93.5C105.711 107.096 101.274 114.825 98.6711 116.475C97.5795 117.193 96.3036 117.58 94.9971 117.59ZM117.151 61.8053C116.64 61.7753 116.129 61.8584 115.653 62.0485C115.178 62.2386 114.751 62.5312 114.401 62.9053C113.096 64.46 114.144 68.596 114.658 70.0553C114.682 70.12 114.687 70.1901 114.672 70.2576C114.658 70.325 114.625 70.3871 114.577 70.4367C114.35 70.6713 91.6238 93.632 88.4191 103.092C86.5198 108.665 88.4191 113.307 91.1178 115.434C92.1034 116.268 93.3323 116.76 94.6209 116.838C95.9095 116.916 97.1888 116.575 98.2678 115.867C104.134 112.112 119.498 73.678 119.644 73.3333C119.657 73.2904 119.679 73.2507 119.708 73.2166C119.737 73.1825 119.773 73.1548 119.813 73.1353C122.067 71.7933 123.858 69.7952 124.946 67.408C125.511 66.0953 125.628 65.1127 125.276 64.6433C125.142 64.5064 124.979 64.4016 124.799 64.3368C124.618 64.272 124.426 64.249 124.235 64.2693C124.165 64.2796 124.094 64.2691 124.03 64.2391C123.966 64.2091 123.913 64.161 123.876 64.1007C123.838 64.0416 123.818 63.9729 123.818 63.9027C123.818 63.8325 123.838 63.7637 123.876 63.7047C125.628 61.1013 128.129 56.5473 127.366 55.3887C127.322 55.3227 127.308 55.33 127.286 55.33C126.413 55.3813 123.978 59.2093 122.152 62.8833C122.111 62.9668 122.04 63.0314 121.953 63.064C121.865 63.0967 121.769 63.095 121.683 63.0593C121.599 63.0221 121.531 62.9551 121.494 62.8712C121.456 62.7873 121.45 62.6924 121.478 62.6047C122.834 58.6813 123.678 54.274 122.856 53.9587C122.826 53.9432 122.792 53.9351 122.757 53.9351C122.723 53.9351 122.689 53.9432 122.658 53.9587C121.595 54.538 120.216 59.092 119.6 61.8273C119.588 61.8763 119.567 61.9223 119.536 61.9626C119.506 62.003 119.468 62.0368 119.424 62.062C119.377 62.082 119.326 62.0922 119.274 62.0922C119.223 62.0922 119.171 62.082 119.124 62.062C118.483 61.8773 117.818 61.7907 117.151 61.8053Z" fill="#231F20"/>
<path d="M117.569 69.498H117.51C117.415 69.4818 117.33 69.4291 117.272 69.3512C117.215 69.2732 117.19 69.176 117.202 69.08C117.25 68.6539 117.39 68.2433 117.613 67.8771C117.836 67.511 118.136 67.1981 118.493 66.9607C118.906 66.7017 119.368 66.5295 119.85 66.4547C119.256 66.1196 118.7 65.7213 118.192 65.2667C117.782 64.9 117.65 64.5333 117.796 64.2033C118.251 63.1547 121.998 63.3233 124.191 63.5213C124.288 63.5301 124.378 63.5771 124.441 63.6521C124.503 63.727 124.534 63.8238 124.525 63.921C124.516 64.0183 124.469 64.108 124.394 64.1706C124.319 64.2332 124.222 64.2634 124.125 64.2547C121.39 64.0053 118.764 64.1227 118.471 64.4893C118.537 64.57 118.608 64.646 118.684 64.7167C119.56 65.5333 120.618 66.1291 121.771 66.4547C121.966 66.4833 122.16 66.5225 122.35 66.572C122.448 66.5876 122.535 66.6411 122.593 66.7209C122.65 66.8006 122.674 66.9001 122.658 66.9973C122.643 67.0946 122.589 67.1817 122.51 67.2394C122.43 67.2972 122.33 67.3209 122.233 67.3053C122.027 67.2847 121.823 67.2455 121.624 67.188C120.693 67.0095 119.729 67.1516 118.889 67.5913C118.619 67.7735 118.393 68.0134 118.227 68.2936C118.06 68.5739 117.959 68.8876 117.928 69.212C117.91 69.2935 117.864 69.3662 117.799 69.4182C117.734 69.4702 117.653 69.4984 117.569 69.498Z" fill="#231F20"/>
<path d="M123.707 142.604C123.613 142.606 123.522 142.571 123.453 142.507C123.385 142.442 123.344 142.353 123.34 142.259L121.456 104.595C121.453 104.548 121.459 104.5 121.475 104.454C121.491 104.409 121.516 104.368 121.548 104.332C121.58 104.297 121.619 104.268 121.662 104.248C121.706 104.227 121.753 104.216 121.8 104.214C121.849 104.21 121.898 104.216 121.944 104.231C121.99 104.247 122.032 104.271 122.068 104.303C122.105 104.335 122.134 104.375 122.155 104.419C122.176 104.463 122.187 104.51 122.189 104.559L124.074 142.223C124.076 142.271 124.068 142.319 124.052 142.364C124.035 142.409 124.01 142.451 123.977 142.486C123.944 142.522 123.905 142.55 123.861 142.571C123.817 142.591 123.77 142.602 123.722 142.604H123.707Z" fill="#231F20"/>
<path d="M200.706 131.12H200.596L171.13 122.1C171.038 122.071 170.961 122.007 170.916 121.922C170.871 121.837 170.861 121.738 170.888 121.645C170.902 121.599 170.924 121.556 170.954 121.519C170.985 121.482 171.022 121.451 171.065 121.428C171.107 121.406 171.153 121.392 171.201 121.388C171.249 121.383 171.297 121.389 171.343 121.403L200.808 130.416C200.855 130.429 200.899 130.452 200.937 130.483C200.975 130.513 201.007 130.551 201.03 130.594C201.054 130.637 201.068 130.685 201.073 130.733C201.077 130.782 201.072 130.831 201.058 130.878C201.031 130.949 200.983 131.011 200.92 131.054C200.857 131.097 200.782 131.12 200.706 131.12Z" fill="#231F20"/>
<path d="M179.932 57.3027C178.65 57.3076 177.389 56.9872 176.265 56.3713C173.192 54.626 171.689 51.3333 170.963 48.7447C169.108 49.2287 167.047 49.72 165.016 49.3387C162.984 48.9573 160.711 47.3073 160.616 44.9387C160.611 44.8419 160.645 44.7472 160.709 44.6747C160.774 44.6022 160.864 44.5575 160.96 44.55C161.009 44.5437 161.059 44.548 161.106 44.5624C161.153 44.5769 161.196 44.6013 161.233 44.634C161.27 44.6666 161.299 44.7068 161.319 44.7518C161.339 44.7967 161.349 44.8455 161.349 44.8947C161.452 46.8527 163.402 48.268 165.177 48.598C167.179 48.9793 169.291 48.422 171.161 47.9307C171.206 47.9183 171.254 47.9152 171.3 47.9215C171.347 47.9278 171.392 47.9434 171.432 47.9673C171.518 48.0178 171.581 48.0992 171.608 48.1947C172.261 50.688 173.662 54.0173 176.654 55.7187C179.147 57.134 183.063 56.87 184.72 54.252C184.75 54.2056 184.79 54.1664 184.837 54.1372C184.884 54.1081 184.937 54.0897 184.992 54.0833C185.046 54.0763 185.102 54.0818 185.154 54.0996C185.206 54.1174 185.253 54.147 185.292 54.186C186.231 55.11 187.888 54.8313 188.893 54.0393C189.938 53.0568 190.734 51.8404 191.218 50.49C191.592 49.6613 191.951 48.796 191.643 48.07C191.617 48.005 191.61 47.9338 191.623 47.8649C191.636 47.796 191.668 47.7323 191.716 47.6813C191.763 47.6307 191.823 47.5948 191.889 47.5778C191.955 47.5609 192.025 47.5637 192.09 47.586C193.924 48.2677 195.85 48.6682 197.803 48.774C198.75 48.8134 199.694 48.6356 200.562 48.2543C201.43 47.873 202.2 47.2983 202.812 46.574C202.837 46.5294 202.872 46.4908 202.914 46.4607C202.956 46.4306 203.004 46.4096 203.054 46.3991C203.105 46.3887 203.157 46.3889 203.207 46.4C203.257 46.411 203.305 46.4325 203.346 46.4631C203.388 46.4936 203.422 46.5326 203.448 46.5774C203.473 46.6223 203.489 46.672 203.494 46.7233C203.499 46.7745 203.493 46.8263 203.476 46.8751C203.46 46.924 203.433 46.9688 203.398 47.0067C202.718 47.8201 201.861 48.467 200.893 48.8979C199.924 49.3289 198.87 49.5323 197.81 49.4927H197.774C195.957 49.4203 194.161 49.0716 192.45 48.4587C192.443 49.2679 192.239 50.0634 191.856 50.776C191.33 52.2375 190.46 53.5506 189.318 54.604C188.152 55.5207 186.334 55.858 185.08 54.9707C184.469 55.7406 183.683 56.3538 182.788 56.7594C181.892 57.165 180.913 57.3512 179.932 57.3027Z" fill="#D1D3D4"/>
<path d="M92.5394 60.0673H89.8848V65.6113H92.5394V60.0673Z" fill="#D1D3D4"/>
<path d="M95.7074 71.7127H93.0527V77.2567H95.7074V71.7127Z" fill="#D1D3D4"/>
<path d="M201.945 55.7333C192.412 55.7333 184.705 62.8173 184.705 71.5587C184.705 73.7279 185.188 75.8698 186.12 77.8287C184.037 79.1413 180.679 80.6447 177.525 79.3613C177.525 79.3613 180.422 83.116 188.247 81.158C189.935 83.1352 192.037 84.7175 194.404 85.7933C196.771 86.8691 199.346 87.4121 201.945 87.384C211.479 87.384 219.179 80.3 219.179 71.5587C219.179 62.8173 211.464 55.7333 201.945 55.7333Z" fill="white"/>
<path d="M201.946 87.7653C199.331 87.7978 196.74 87.2618 194.352 86.1944C191.964 85.1271 189.836 83.5538 188.116 81.5833C180.313 83.4533 177.365 79.7573 177.24 79.596C177.195 79.5322 177.171 79.4554 177.172 79.377C177.173 79.2985 177.199 79.2225 177.247 79.1601C177.295 79.0977 177.361 79.0523 177.436 79.0304C177.512 79.0086 177.592 79.0114 177.666 79.0387C180.496 80.19 183.532 78.9873 185.652 77.704C184.787 75.7761 184.342 73.6863 184.346 71.5733C184.346 62.6413 192.237 55.3813 201.946 55.3813C211.656 55.3813 219.546 62.6413 219.546 71.5733C219.546 80.5053 211.648 87.7653 201.946 87.7653ZM188.248 80.806C188.301 80.8059 188.354 80.8178 188.402 80.8406C188.45 80.8634 188.493 80.8967 188.526 80.938C190.178 82.8774 192.237 84.4289 194.557 85.4822C196.876 86.5355 199.399 87.0646 201.946 87.032C211.245 87.032 218.813 80.0947 218.813 71.5733C218.813 63.052 211.245 56.1147 201.946 56.1147C192.648 56.1147 185.08 63.0447 185.08 71.5733C185.076 73.6886 185.544 75.7781 186.451 77.6893C186.488 77.7702 186.494 77.8615 186.468 77.9465C186.442 78.0314 186.387 78.1042 186.312 78.1513C184.434 79.3393 181.794 80.5273 179.103 80.168C180.57 81.0407 183.459 81.994 188.16 80.8207L188.248 80.806Z" fill="#231F20"/>
<path d="M202.606 67.0193C202.716 66.902 202.818 66.7847 202.928 66.6747C203.628 65.944 204.516 65.4212 205.495 65.164C206.256 64.9734 207.052 64.9734 207.812 65.164C208.852 65.4065 209.776 65.9998 210.429 66.844C211.082 67.6881 211.424 68.7316 211.398 69.7987C211.365 70.4315 211.262 71.0587 211.09 71.6687C210.938 72.2691 210.712 72.8481 210.416 73.392C209.938 74.244 209.294 74.992 208.524 75.592C207.74 76.2064 206.92 76.7721 206.067 77.286L201.667 80.0433C201.234 80.3147 200.816 80.6007 200.398 80.8867L200.318 80.938L200.09 80.6373C199.042 79.2587 197.942 77.924 196.834 76.5967C196.101 75.724 195.368 74.866 194.722 73.942C194.234 73.2819 193.828 72.5654 193.512 71.808C193.198 70.9971 193.043 70.133 193.058 69.2633C193.057 68.6154 193.124 67.9691 193.256 67.3347C193.429 66.4132 193.882 65.5673 194.552 64.9115C195.222 64.2557 196.078 63.8216 197.003 63.668C197.927 63.4934 198.882 63.5943 199.749 63.9581C200.616 64.3219 201.357 64.9325 201.88 65.714C202.161 66.0932 202.393 66.5073 202.569 66.946C202.578 66.9718 202.59 66.9964 202.606 67.0193Z" fill="#D1D3D4"/>
</svg>
