<svg width="294" height="220" viewBox="0 0 294 220" fill="none" xmlns="http://www.w3.org/2000/svg">
<path d="M166.165 155.731L167.118 138.021L141.965 136.789L126.213 137.705C126.213 137.705 129.146 155.151 130.804 156.486C132.461 157.821 166.165 155.731 166.165 155.731Z" fill="#231F20"/>
<path d="M137.132 157.293C133.575 157.293 131.03 157.153 130.532 156.772C128.83 155.386 126.132 139.561 125.809 137.764C125.799 137.713 125.801 137.66 125.813 137.609C125.826 137.559 125.85 137.511 125.882 137.471C125.914 137.431 125.954 137.398 126 137.375C126.045 137.352 126.095 137.34 126.146 137.339L141.942 136.4L167.14 137.632C167.187 137.633 167.234 137.644 167.277 137.664C167.32 137.684 167.358 137.713 167.389 137.749C167.423 137.786 167.448 137.829 167.465 137.875C167.481 137.922 167.488 137.971 167.484 138.021L166.531 155.731C166.524 155.82 166.486 155.904 166.423 155.967C166.359 156.03 166.276 156.069 166.186 156.075C162.116 156.354 146.298 157.293 137.132 157.293ZM126.623 138.043C127.774 144.767 129.923 155.313 131.023 156.2C132.284 157.095 152.876 156.2 165.798 155.386L166.722 138.365L141.942 137.133L126.623 138.043Z" fill="#231F20"/>
<path d="M110 174.335C109.683 174.336 109.374 174.234 109.12 174.045C108.866 173.856 108.68 173.589 108.59 173.285C108.5 172.981 108.511 172.656 108.621 172.359C108.731 172.062 108.934 171.809 109.2 171.637C112.478 169.495 116.248 166.628 116.937 165.557C116.526 163.922 112.486 157.747 108.819 152.739C108.705 152.583 108.622 152.407 108.576 152.219C108.531 152.032 108.522 151.837 108.551 151.647C108.581 151.456 108.647 151.273 108.747 151.108C108.847 150.943 108.979 150.799 109.134 150.685C109.29 150.571 109.466 150.489 109.654 150.443C109.841 150.397 110.035 150.388 110.226 150.418C110.417 150.447 110.6 150.514 110.765 150.614C110.93 150.714 111.073 150.845 111.188 151.001C120.464 163.68 119.988 165.572 119.834 166.195C119.313 168.285 113.967 172.062 110.799 174.093C110.561 174.25 110.284 174.334 110 174.335Z" fill="#231F20"/>
<path d="M104.85 171.417C104.85 173.519 106.553 175.223 108.653 175.223C110.753 175.223 112.455 173.519 112.455 171.417V149.879C112.455 147.777 110.753 146.073 108.653 146.073C106.553 146.073 104.85 147.777 104.85 149.879V171.417Z" fill="#231F20"/>
<path d="M108.649 175.589C107.544 175.587 106.485 175.147 105.704 174.365C104.923 173.582 104.484 172.522 104.484 171.417V149.879C104.461 149.316 104.551 148.755 104.75 148.229C104.949 147.703 105.252 147.222 105.641 146.816C106.031 146.41 106.498 146.086 107.016 145.866C107.534 145.645 108.09 145.531 108.653 145.531C109.216 145.531 109.773 145.645 110.29 145.866C110.808 146.086 111.275 146.41 111.665 146.816C112.054 147.222 112.358 147.703 112.556 148.229C112.755 148.755 112.846 149.316 112.822 149.879V171.417C112.822 172.523 112.383 173.585 111.6 174.367C110.817 175.15 109.756 175.589 108.649 175.589ZM108.649 146.439C107.739 146.441 106.866 146.805 106.222 147.449C105.579 148.094 105.217 148.968 105.217 149.879V171.417C105.196 171.881 105.269 172.345 105.432 172.781C105.595 173.216 105.845 173.614 106.166 173.951C106.487 174.287 106.873 174.555 107.3 174.738C107.728 174.92 108.188 175.015 108.653 175.015C109.118 175.015 109.578 174.92 110.006 174.738C110.433 174.555 110.819 174.287 111.141 173.951C111.462 173.614 111.711 173.216 111.874 172.781C112.037 172.345 112.11 171.881 112.089 171.417V149.879C112.089 148.967 111.726 148.092 111.081 147.447C110.436 146.802 109.562 146.439 108.649 146.439Z" fill="#231F20"/>
<path d="M183.333 174.335C183.049 174.334 182.771 174.25 182.534 174.093C179.381 172.04 174.02 168.285 173.499 166.195C173.338 165.572 172.869 163.68 182.145 151.001C182.376 150.687 182.722 150.477 183.107 150.418C183.492 150.359 183.885 150.455 184.199 150.685C184.513 150.916 184.722 151.262 184.782 151.647C184.841 152.032 184.745 152.425 184.514 152.739C180.847 157.769 176.777 163.973 176.389 165.572C177.005 166.562 180.789 169.473 184.133 171.637C184.399 171.809 184.602 172.062 184.712 172.359C184.822 172.657 184.833 172.981 184.743 173.285C184.653 173.589 184.467 173.856 184.213 174.045C183.959 174.234 183.65 174.336 183.333 174.335Z" fill="#231F20"/>
<path d="M188.48 149.879C188.48 147.777 186.777 146.073 184.677 146.073C182.577 146.073 180.875 147.777 180.875 149.879V171.417C180.875 173.519 182.577 175.223 184.677 175.223C186.777 175.223 188.48 173.519 188.48 171.417V149.879Z" fill="#231F20"/>
<path d="M184.682 175.589C183.576 175.589 182.514 175.15 181.732 174.367C180.949 173.585 180.51 172.523 180.51 171.417V149.879C180.486 149.316 180.576 148.755 180.775 148.229C180.974 147.703 181.277 147.222 181.667 146.816C182.056 146.41 182.524 146.086 183.041 145.866C183.559 145.645 184.116 145.531 184.679 145.531C185.241 145.531 185.798 145.645 186.316 145.866C186.833 146.086 187.301 146.41 187.69 146.816C188.08 147.222 188.383 147.703 188.582 148.229C188.781 148.755 188.871 149.316 188.848 149.879V171.417C188.848 172.522 188.409 173.582 187.628 174.365C186.847 175.147 185.788 175.587 184.682 175.589ZM184.682 146.439C183.77 146.439 182.895 146.802 182.25 147.447C181.605 148.092 181.243 148.967 181.243 149.879V171.417C181.221 171.881 181.294 172.345 181.457 172.781C181.62 173.216 181.87 173.614 182.191 173.951C182.512 174.287 182.898 174.555 183.326 174.738C183.753 174.92 184.214 175.015 184.679 175.015C185.144 175.015 185.604 174.92 186.031 174.738C186.459 174.555 186.845 174.287 187.166 173.951C187.487 173.614 187.737 173.216 187.9 172.781C188.063 172.345 188.136 171.881 188.114 171.417V149.879C188.114 148.968 187.753 148.094 187.109 147.449C186.466 146.805 185.593 146.441 184.682 146.439Z" fill="#231F20"/>
<path d="M176.116 177.665L174.584 162.103H118.748L117.215 177.665C117.003 179.824 117.246 182.004 117.927 184.064C118.608 186.124 119.713 188.018 121.17 189.626C122.628 191.233 124.405 192.517 126.389 193.396C128.373 194.275 130.519 194.729 132.688 194.729H160.643C162.813 194.729 164.958 194.275 166.942 193.396C168.926 192.517 170.703 191.233 172.161 189.626C173.618 188.018 174.723 186.124 175.404 184.064C176.086 182.004 176.328 179.824 176.116 177.665Z" fill="#231F20"/>
<path d="M160.644 195.067H132.689C130.468 195.067 128.272 194.603 126.241 193.703C124.211 192.803 122.391 191.488 120.9 189.843C119.408 188.197 118.278 186.258 117.582 184.149C116.885 182.04 116.638 179.809 116.856 177.599L118.382 162.067C118.392 161.977 118.435 161.893 118.503 161.833C118.57 161.772 118.657 161.738 118.748 161.737H174.584C174.675 161.738 174.762 161.772 174.83 161.833C174.897 161.893 174.94 161.977 174.951 162.067L176.476 177.628C176.69 179.836 176.44 182.064 175.741 184.169C175.043 186.274 173.912 188.21 172.421 189.853C170.93 191.495 169.112 192.807 167.083 193.705C165.055 194.603 162.862 195.067 160.644 195.067ZM119.078 162.441L117.612 177.672C117.405 179.778 117.641 181.903 118.304 183.913C118.968 185.922 120.044 187.77 121.463 189.339C122.883 190.908 124.615 192.162 126.548 193.023C128.481 193.883 130.573 194.329 132.689 194.333H160.644C162.762 194.333 164.857 193.89 166.793 193.031C168.73 192.173 170.465 190.919 171.888 189.35C173.311 187.78 174.39 185.931 175.055 183.92C175.72 181.908 175.957 179.78 175.75 177.672L174.284 162.441H119.078Z" fill="#231F20"/>
<path d="M228.565 89.6793H64.7676V144.203H228.565V89.6793Z" fill="white"/>
<path d="M228.564 144.577H64.7671C64.6698 144.577 64.5765 144.538 64.5078 144.469C64.439 144.401 64.4004 144.307 64.4004 144.21V89.6793C64.4004 89.5821 64.439 89.4888 64.5078 89.4201C64.5765 89.3513 64.6698 89.3127 64.7671 89.3127H228.564C228.662 89.3127 228.755 89.3513 228.824 89.4201C228.892 89.4888 228.931 89.5821 228.931 89.6793V144.21C228.931 144.307 228.892 144.401 228.824 144.469C228.755 144.538 228.662 144.577 228.564 144.577ZM65.1337 143.843H228.198V90.046H65.1337V143.843Z" fill="#231F20"/>
<path d="M183.64 104.581H109.69C108.062 104.581 106.742 105.9 106.742 107.529V127.307C106.742 128.935 108.062 130.255 109.69 130.255H183.64C185.268 130.255 186.588 128.935 186.588 127.307V107.529C186.588 105.9 185.268 104.581 183.64 104.581Z" fill="white"/>
<path d="M183.641 130.614H109.692C108.813 130.612 107.971 130.262 107.35 129.641C106.729 129.02 106.379 128.178 106.377 127.299V107.499C106.377 107.064 106.463 106.633 106.629 106.231C106.796 105.829 107.04 105.463 107.348 105.156C107.656 104.848 108.021 104.604 108.423 104.437C108.825 104.27 109.256 104.185 109.692 104.185H183.641C184.076 104.185 184.507 104.27 184.909 104.437C185.312 104.604 185.677 104.848 185.985 105.156C186.293 105.463 186.537 105.829 186.703 106.231C186.87 106.633 186.956 107.064 186.956 107.499V127.299C186.954 128.178 186.604 129.02 185.983 129.641C185.361 130.262 184.519 130.612 183.641 130.614ZM109.692 104.947C109.008 104.949 108.352 105.222 107.868 105.706C107.385 106.189 107.112 106.845 107.11 107.529V127.329C107.112 128.013 107.385 128.668 107.868 129.152C108.352 129.636 109.008 129.908 109.692 129.91H183.641C184.325 129.908 184.98 129.636 185.464 129.152C185.948 128.668 186.22 128.013 186.222 127.329V107.529C186.22 106.845 185.948 106.189 185.464 105.706C184.98 105.222 184.325 104.949 183.641 104.947H109.692Z" fill="#E6E7E8"/>
<path d="M117.531 107.844H111.818V110.719H117.531V107.844Z" fill="#E6E7E8"/>
<path d="M117.531 111.085H111.818C111.721 111.083 111.629 111.044 111.561 110.976C111.492 110.908 111.453 110.815 111.451 110.719V107.844C111.451 107.747 111.49 107.654 111.559 107.585C111.627 107.516 111.721 107.477 111.818 107.477H117.531C117.628 107.477 117.721 107.516 117.79 107.585C117.859 107.654 117.897 107.747 117.897 107.844V110.733C117.893 110.828 117.853 110.918 117.785 110.983C117.716 111.049 117.625 111.085 117.531 111.085ZM112.185 110.352H117.164V108.211H112.199L112.185 110.352Z" fill="#E6E7E8"/>
<path d="M117.531 113.263H111.818V116.138H117.531V113.263Z" fill="white"/>
<path d="M117.531 116.505H111.818C111.721 116.505 111.627 116.466 111.559 116.397C111.49 116.329 111.451 116.235 111.451 116.138V113.263C111.453 113.167 111.492 113.074 111.561 113.006C111.629 112.938 111.721 112.899 111.818 112.897H117.531C117.628 112.897 117.721 112.935 117.79 113.004C117.859 113.073 117.897 113.166 117.897 113.263V116.138C117.897 116.235 117.859 116.329 117.79 116.397C117.721 116.466 117.628 116.505 117.531 116.505ZM112.185 115.771H117.164V113.667H112.199L112.185 115.771Z" fill="#E6E7E8"/>
<path d="M117.531 118.69H111.818V121.565H117.531V118.69Z" fill="white"/>
<path d="M117.531 121.924H111.818C111.721 121.924 111.627 121.885 111.559 121.817C111.49 121.748 111.451 121.655 111.451 121.557V118.69C111.451 118.593 111.49 118.5 111.559 118.431C111.627 118.362 111.721 118.323 111.818 118.323H117.531C117.628 118.323 117.721 118.362 117.79 118.431C117.859 118.5 117.897 118.593 117.897 118.69V121.557C117.897 121.655 117.859 121.748 117.79 121.817C117.721 121.885 117.628 121.924 117.531 121.924ZM112.185 121.191H117.164V119.057H112.199L112.185 121.191Z" fill="#E6E7E8"/>
<path d="M117.531 124.109H111.818V126.984H117.531V124.109Z" fill="white"/>
<path d="M117.531 127.351H111.818C111.721 127.351 111.627 127.312 111.559 127.243C111.49 127.175 111.451 127.081 111.451 126.984V124.109C111.451 124.012 111.49 123.919 111.559 123.85C111.627 123.781 111.721 123.743 111.818 123.743H117.531C117.628 123.743 117.721 123.781 117.79 123.85C117.859 123.919 117.897 124.012 117.897 124.109V126.984C117.897 127.081 117.859 127.175 117.79 127.243C117.721 127.312 117.628 127.351 117.531 127.351ZM112.185 126.617H117.164V124.476H112.199L112.185 126.617Z" fill="#E6E7E8"/>
<path d="M126.676 107.844H120.963V110.719H126.676V107.844Z" fill="white"/>
<path d="M126.675 111.085H120.999C120.902 111.085 120.809 111.047 120.74 110.978C120.671 110.909 120.633 110.816 120.633 110.719V107.844C120.633 107.747 120.671 107.654 120.74 107.585C120.809 107.516 120.902 107.477 120.999 107.477H126.712C126.809 107.477 126.903 107.516 126.971 107.585C127.04 107.654 127.079 107.747 127.079 107.844V110.733C127.076 110.783 127.063 110.832 127.041 110.877C127.02 110.922 126.989 110.962 126.951 110.994C126.914 111.027 126.87 111.052 126.823 111.068C126.775 111.083 126.725 111.089 126.675 111.085ZM121.329 110.352H126.309V108.211H121.329V110.352Z" fill="#E6E7E8"/>
<path d="M126.676 113.263H120.963V116.138H126.676V113.263Z" fill="white"/>
<path d="M126.675 116.505H120.999C120.902 116.505 120.809 116.466 120.74 116.397C120.671 116.329 120.633 116.235 120.633 116.138V113.263C120.633 113.166 120.671 113.073 120.74 113.004C120.809 112.935 120.902 112.897 120.999 112.897H126.712C126.809 112.899 126.901 112.938 126.969 113.006C127.038 113.074 127.077 113.167 127.079 113.263V116.138C127.079 116.189 127.069 116.24 127.048 116.287C127.027 116.334 126.997 116.377 126.959 116.411C126.921 116.446 126.876 116.472 126.827 116.488C126.778 116.504 126.727 116.51 126.675 116.505ZM121.329 115.771H126.309V113.667H121.329V115.771Z" fill="#E6E7E8"/>
<path d="M126.676 118.69H120.963V121.565H126.676V118.69Z" fill="white"/>
<path d="M126.675 121.924H120.999C120.902 121.924 120.809 121.885 120.74 121.817C120.671 121.748 120.633 121.655 120.633 121.557V118.69C120.633 118.593 120.671 118.5 120.74 118.431C120.809 118.362 120.902 118.323 120.999 118.323H126.712C126.809 118.323 126.903 118.362 126.971 118.431C127.04 118.5 127.079 118.593 127.079 118.69V121.557C127.079 121.609 127.069 121.66 127.048 121.707C127.027 121.754 126.997 121.796 126.959 121.831C126.921 121.865 126.876 121.891 126.827 121.907C126.778 121.923 126.727 121.929 126.675 121.924ZM121.329 121.191H126.309V119.057H121.329V121.191Z" fill="#E6E7E8"/>
<path d="M126.676 124.109H120.963V126.984H126.676V124.109Z" fill="white"/>
<path d="M126.675 127.351H120.999C120.902 127.351 120.809 127.312 120.74 127.243C120.671 127.175 120.633 127.081 120.633 126.984V124.109C120.633 124.012 120.671 123.919 120.74 123.85C120.809 123.781 120.902 123.743 120.999 123.743H126.712C126.809 123.743 126.903 123.781 126.971 123.85C127.04 123.919 127.079 124.012 127.079 124.109V126.984C127.079 127.035 127.069 127.086 127.048 127.133C127.027 127.18 126.997 127.223 126.959 127.257C126.921 127.292 126.876 127.318 126.827 127.334C126.778 127.35 126.727 127.356 126.675 127.351ZM121.329 126.617H126.309V124.476H121.329V126.617Z" fill="#E6E7E8"/>
<path d="M135.812 107.844H130.1V110.719H135.812V107.844Z" fill="white"/>
<path d="M135.812 111.085H130.099C130.002 111.085 129.909 111.047 129.84 110.978C129.771 110.909 129.732 110.816 129.732 110.719V107.844C129.732 107.747 129.771 107.654 129.84 107.585C129.909 107.516 130.002 107.477 130.099 107.477H135.812C135.909 107.477 136.002 107.516 136.071 107.585C136.14 107.654 136.178 107.747 136.178 107.844V110.733C136.175 110.828 136.134 110.918 136.066 110.983C135.998 111.049 135.907 111.085 135.812 111.085ZM130.466 110.352H135.445V108.211H130.466V110.352Z" fill="#E6E7E8"/>
<path d="M135.812 113.263H130.1V116.138H135.812V113.263Z" fill="white"/>
<path d="M135.812 116.505H130.099C130.002 116.505 129.909 116.466 129.84 116.397C129.771 116.329 129.732 116.235 129.732 116.138V113.263C129.732 113.166 129.771 113.073 129.84 113.004C129.909 112.935 130.002 112.897 130.099 112.897H135.812C135.909 112.897 136.002 112.935 136.071 113.004C136.14 113.073 136.178 113.166 136.178 113.263V116.138C136.178 116.235 136.14 116.329 136.071 116.397C136.002 116.466 135.909 116.505 135.812 116.505ZM130.466 115.771H135.445V113.667H130.466V115.771Z" fill="#E6E7E8"/>
<path d="M135.812 118.69H130.1V121.565H135.812V118.69Z" fill="white"/>
<path d="M135.812 121.924H130.099C130.002 121.924 129.909 121.885 129.84 121.817C129.771 121.748 129.732 121.655 129.732 121.557V118.69C129.732 118.593 129.771 118.5 129.84 118.431C129.909 118.362 130.002 118.323 130.099 118.323H135.812C135.909 118.323 136.002 118.362 136.071 118.431C136.14 118.5 136.178 118.593 136.178 118.69V121.557C136.178 121.655 136.14 121.748 136.071 121.817C136.002 121.885 135.909 121.924 135.812 121.924ZM130.466 121.191H135.445V119.057H130.466V121.191Z" fill="#E6E7E8"/>
<path d="M163.232 124.109H130.1V126.984H163.232V124.109Z" fill="#E6E7E8"/>
<path d="M163.231 127.351H130.099C130.002 127.351 129.909 127.312 129.84 127.243C129.771 127.175 129.732 127.081 129.732 126.984V124.109C129.732 124.012 129.771 123.919 129.84 123.85C129.909 123.781 130.002 123.743 130.099 123.743H163.231C163.328 123.743 163.422 123.781 163.49 123.85C163.559 123.919 163.598 124.012 163.598 124.109V126.984C163.598 127.081 163.559 127.175 163.49 127.243C163.422 127.312 163.328 127.351 163.231 127.351ZM130.466 126.617H162.864V124.476H130.466V126.617Z" fill="#E6E7E8"/>
<path d="M144.949 107.844H139.236V110.719H144.949V107.844Z" fill="white"/>
<path d="M144.95 111.085H139.238C139.141 111.083 139.049 111.044 138.981 110.976C138.912 110.908 138.873 110.815 138.871 110.719V107.844C138.871 107.747 138.91 107.654 138.978 107.585C139.047 107.516 139.141 107.477 139.238 107.477H144.95C145.048 107.477 145.141 107.516 145.21 107.585C145.278 107.654 145.317 107.747 145.317 107.844V110.733C145.313 110.828 145.273 110.918 145.205 110.983C145.136 111.049 145.045 111.085 144.95 111.085ZM139.604 110.352H144.584V108.211H139.604V110.352Z" fill="#E6E7E8"/>
<path d="M144.949 113.263H139.236V116.138H144.949V113.263Z" fill="white"/>
<path d="M144.95 116.505H139.238C139.141 116.505 139.047 116.466 138.978 116.397C138.91 116.329 138.871 116.235 138.871 116.138V113.263C138.873 113.167 138.912 113.074 138.981 113.006C139.049 112.938 139.141 112.899 139.238 112.897H144.95C145.048 112.897 145.141 112.935 145.21 113.004C145.278 113.073 145.317 113.166 145.317 113.263V116.138C145.317 116.235 145.278 116.329 145.21 116.397C145.141 116.466 145.048 116.505 144.95 116.505ZM139.604 115.771H144.584V113.667H139.604V115.771Z" fill="#E6E7E8"/>
<path d="M144.949 118.69H139.236V121.565H144.949V118.69Z" fill="white"/>
<path d="M144.95 121.924H139.238C139.141 121.924 139.047 121.885 138.978 121.817C138.91 121.748 138.871 121.655 138.871 121.557V118.69C138.871 118.593 138.91 118.5 138.978 118.431C139.047 118.362 139.141 118.323 139.238 118.323H144.95C145.048 118.323 145.141 118.362 145.21 118.431C145.278 118.5 145.317 118.593 145.317 118.69V121.557C145.317 121.655 145.278 121.748 145.21 121.817C145.141 121.885 145.048 121.924 144.95 121.924ZM139.604 121.191H144.584V119.057H139.604V121.191Z" fill="#E6E7E8"/>
<path d="M154.094 107.844H148.381V110.719H154.094V107.844Z" fill="white"/>
<path d="M154.095 111.085H148.382C148.285 111.085 148.192 111.047 148.123 110.978C148.054 110.909 148.016 110.816 148.016 110.719V107.844C148.016 107.747 148.054 107.654 148.123 107.585C148.192 107.516 148.285 107.477 148.382 107.477H154.095C154.192 107.477 154.285 107.516 154.354 107.585C154.423 107.654 154.462 107.747 154.462 107.844V110.733C154.456 110.827 154.415 110.916 154.347 110.981C154.279 111.046 154.189 111.084 154.095 111.085ZM148.749 110.352H153.728V108.211H148.749V110.352Z" fill="#E6E7E8"/>
<path d="M154.094 113.263H148.381V116.138H154.094V113.263Z" fill="white"/>
<path d="M154.095 116.505H148.382C148.285 116.505 148.192 116.466 148.123 116.397C148.054 116.329 148.016 116.235 148.016 116.138V113.263C148.016 113.166 148.054 113.073 148.123 113.004C148.192 112.935 148.285 112.897 148.382 112.897H154.095C154.192 112.899 154.284 112.938 154.352 113.006C154.421 113.074 154.46 113.167 154.462 113.263V116.138C154.462 116.235 154.423 116.329 154.354 116.397C154.285 116.466 154.192 116.505 154.095 116.505ZM148.749 115.771H153.728V113.667H148.749V115.771Z" fill="#E6E7E8"/>
<path d="M154.094 118.69H148.381V121.565H154.094V118.69Z" fill="white"/>
<path d="M154.095 121.924H148.382C148.285 121.924 148.192 121.885 148.123 121.817C148.054 121.748 148.016 121.655 148.016 121.557V118.69C148.016 118.593 148.054 118.5 148.123 118.431C148.192 118.362 148.285 118.323 148.382 118.323H154.095C154.192 118.323 154.285 118.362 154.354 118.431C154.423 118.5 154.462 118.593 154.462 118.69V121.557C154.462 121.655 154.423 121.748 154.354 121.817C154.285 121.885 154.192 121.924 154.095 121.924ZM148.749 121.191H153.728V119.057H148.749V121.191Z" fill="#E6E7E8"/>
<path d="M163.232 107.844H157.52V110.719H163.232V107.844Z" fill="white"/>
<path d="M163.232 111.085H157.519C157.422 111.085 157.328 111.047 157.26 110.978C157.191 110.909 157.152 110.816 157.152 110.719V107.844C157.152 107.747 157.191 107.654 157.26 107.585C157.328 107.516 157.422 107.477 157.519 107.477H163.232C163.329 107.477 163.422 107.516 163.491 107.585C163.56 107.654 163.598 107.747 163.598 107.844V110.733C163.595 110.828 163.554 110.918 163.486 110.983C163.418 111.049 163.326 111.085 163.232 111.085ZM157.886 110.352H162.865V108.211H157.886V110.352Z" fill="#E6E7E8"/>
<path d="M163.232 113.263H157.52V116.138H163.232V113.263Z" fill="white"/>
<path d="M163.232 116.505H157.519C157.422 116.505 157.328 116.466 157.26 116.397C157.191 116.329 157.152 116.235 157.152 116.138V113.263C157.152 113.166 157.191 113.073 157.26 113.004C157.328 112.935 157.422 112.897 157.519 112.897H163.232C163.329 112.897 163.422 112.935 163.491 113.004C163.56 113.073 163.598 113.166 163.598 113.263V116.138C163.598 116.235 163.56 116.329 163.491 116.397C163.422 116.466 163.329 116.505 163.232 116.505ZM157.886 115.771H162.865V113.667H157.886V115.771Z" fill="#E6E7E8"/>
<path d="M163.232 118.69H157.52V121.565H163.232V118.69Z" fill="white"/>
<path d="M163.232 121.924H157.519C157.422 121.924 157.328 121.885 157.26 121.817C157.191 121.748 157.152 121.655 157.152 121.557V118.69C157.152 118.593 157.191 118.5 157.26 118.431C157.328 118.362 157.422 118.323 157.519 118.323H163.232C163.329 118.323 163.422 118.362 163.491 118.431C163.56 118.5 163.598 118.593 163.598 118.69V121.557C163.598 121.655 163.56 121.748 163.491 121.817C163.422 121.885 163.329 121.924 163.232 121.924ZM157.886 121.191H162.865V119.057H157.886V121.191Z" fill="#E6E7E8"/>
<path d="M172.369 107.844H166.656V110.719H172.369V107.844Z" fill="white"/>
<path d="M172.368 111.085H166.656C166.559 111.083 166.467 111.044 166.399 110.976C166.33 110.908 166.291 110.815 166.289 110.719V107.844C166.289 107.747 166.328 107.654 166.396 107.585C166.465 107.516 166.558 107.477 166.656 107.477H172.368C172.466 107.477 172.559 107.516 172.628 107.585C172.696 107.654 172.735 107.747 172.735 107.844V110.733C172.731 110.828 172.691 110.918 172.623 110.983C172.554 111.049 172.463 111.085 172.368 111.085ZM167.022 110.352H172.002V108.211H167.022V110.352Z" fill="#E6E7E8"/>
<path d="M172.369 113.263H166.656V116.138H172.369V113.263Z" fill="white"/>
<path d="M172.368 116.505H166.656C166.558 116.505 166.465 116.466 166.396 116.397C166.328 116.329 166.289 116.235 166.289 116.138V113.263C166.291 113.167 166.33 113.074 166.399 113.006C166.467 112.938 166.559 112.899 166.656 112.897H172.368C172.466 112.897 172.559 112.935 172.628 113.004C172.696 113.073 172.735 113.166 172.735 113.263V116.138C172.735 116.235 172.696 116.329 172.628 116.397C172.559 116.466 172.466 116.505 172.368 116.505ZM167.022 115.771H172.002V113.667H167.022V115.771Z" fill="#E6E7E8"/>
<path d="M172.369 118.69H166.656V121.565H172.369V118.69Z" fill="white"/>
<path d="M172.368 121.924H166.656C166.558 121.924 166.465 121.885 166.396 121.817C166.328 121.748 166.289 121.655 166.289 121.557V118.69C166.289 118.593 166.328 118.5 166.396 118.431C166.465 118.362 166.558 118.323 166.656 118.323H172.368C172.466 118.323 172.559 118.362 172.628 118.431C172.696 118.5 172.735 118.593 172.735 118.69V121.557C172.735 121.655 172.696 121.748 172.628 121.817C172.559 121.885 172.466 121.924 172.368 121.924ZM167.022 121.191H172.002V119.057H167.022V121.191Z" fill="#E6E7E8"/>
<path d="M172.369 124.109H166.656V126.984H172.369V124.109Z" fill="white"/>
<path d="M172.368 127.351H166.656C166.558 127.351 166.465 127.312 166.396 127.243C166.328 127.175 166.289 127.081 166.289 126.984V124.109C166.289 124.012 166.328 123.919 166.396 123.85C166.465 123.781 166.558 123.743 166.656 123.743H172.368C172.466 123.743 172.559 123.781 172.628 123.85C172.696 123.919 172.735 124.012 172.735 124.109V126.984C172.735 127.081 172.696 127.175 172.628 127.243C172.559 127.312 172.466 127.351 172.368 127.351ZM167.022 126.617H172.002V124.476H167.022V126.617Z" fill="#E6E7E8"/>
<path d="M181.513 107.844H175.801V110.719H181.513V107.844Z" fill="white"/>
<path d="M181.513 111.085H175.8C175.703 111.085 175.61 111.047 175.541 110.978C175.472 110.909 175.434 110.816 175.434 110.719V107.844C175.434 107.747 175.472 107.654 175.541 107.585C175.61 107.516 175.703 107.477 175.8 107.477H181.513C181.61 107.477 181.703 107.516 181.772 107.585C181.841 107.654 181.88 107.747 181.88 107.844V110.733C181.874 110.827 181.833 110.916 181.765 110.981C181.697 111.046 181.607 111.084 181.513 111.085ZM176.167 110.352H181.132V108.211H176.152L176.167 110.352Z" fill="#E6E7E8"/>
<path d="M181.513 113.263H175.801V116.138H181.513V113.263Z" fill="white"/>
<path d="M181.513 116.505H175.8C175.703 116.505 175.61 116.466 175.541 116.397C175.472 116.329 175.434 116.235 175.434 116.138V113.263C175.434 113.166 175.472 113.073 175.541 113.004C175.61 112.935 175.703 112.897 175.8 112.897H181.513C181.61 112.899 181.702 112.938 181.77 113.006C181.838 113.074 181.878 113.167 181.88 113.263V116.138C181.88 116.235 181.841 116.329 181.772 116.397C181.703 116.466 181.61 116.505 181.513 116.505ZM176.167 115.771H181.132V113.667H176.152L176.167 115.771Z" fill="#E6E7E8"/>
<path d="M181.513 118.69H175.801V121.565H181.513V118.69Z" fill="white"/>
<path d="M181.513 121.924H175.8C175.703 121.924 175.61 121.885 175.541 121.817C175.472 121.748 175.434 121.655 175.434 121.557V118.69C175.434 118.593 175.472 118.5 175.541 118.431C175.61 118.362 175.703 118.323 175.8 118.323H181.513C181.61 118.323 181.703 118.362 181.772 118.431C181.841 118.5 181.88 118.593 181.88 118.69V121.557C181.88 121.655 181.841 121.748 181.772 121.817C181.703 121.885 181.61 121.924 181.513 121.924ZM176.167 121.191H181.132V119.057H176.152L176.167 121.191Z" fill="#E6E7E8"/>
<path d="M181.513 124.109H175.801V126.984H181.513V124.109Z" fill="white"/>
<path d="M181.513 127.351H175.8C175.703 127.351 175.61 127.312 175.541 127.243C175.472 127.175 175.434 127.081 175.434 126.984V124.109C175.434 124.012 175.472 123.919 175.541 123.85C175.61 123.781 175.703 123.743 175.8 123.743H181.513C181.61 123.743 181.703 123.781 181.772 123.85C181.841 123.919 181.88 124.012 181.88 124.109V126.984C181.88 127.081 181.841 127.175 181.772 127.243C181.703 127.312 181.61 127.351 181.513 127.351ZM176.167 126.617H181.132V124.476H176.152L176.167 126.617Z" fill="#E6E7E8"/>
<path d="M163.334 124.769C163.334 124.769 156.734 120.274 157.291 119.313C157.849 118.353 162.366 120.443 162.366 120.443C162.366 120.443 161.332 116.094 160.738 115.236C160.144 114.378 158.787 112.992 158.787 112.508C158.787 112.024 159.242 111.335 159.675 111.555C160.107 111.775 162.417 113.674 162.557 114.129C162.696 114.583 163.033 115.507 163.033 115.507C163.033 115.507 163.261 112.867 162.505 112.171C161.75 111.474 160.731 110.557 160.745 110.198C160.76 109.839 161.479 108.929 161.904 109.142C162.861 109.79 163.704 110.593 164.397 111.518C164.762 112.723 165.06 113.947 165.292 115.185C165.292 115.185 165.725 112.391 165.395 111.716C165.065 111.041 163.811 109.89 164.742 109.025C165.673 108.159 167.243 112.889 167.411 114.085C167.411 113.095 167.448 112.097 167.499 111.1C167.551 110.22 167.829 109.707 168.592 110.55C168.966 111.053 169.169 111.662 169.171 112.288C169.347 114.605 168.841 116.901 168.658 119.196C168.423 122.071 169.435 124.696 170.169 127.453C171.019 130.665 171.85 133.885 172.662 137.111C173.395 140.162 174.173 143.22 174.818 146.3C175.141 147.833 175.823 149.835 175.551 151.433C175.089 154.235 164.793 160.967 164.793 160.967L163.334 124.769Z" fill="white"/>
<path d="M164.808 161.333C164.75 161.333 164.693 161.32 164.64 161.297C164.583 161.265 164.534 161.22 164.5 161.165C164.465 161.11 164.445 161.046 164.442 160.981L162.975 124.975C159.858 122.848 156.375 120.149 156.969 119.108C157.563 118.067 160.188 119.108 161.824 119.783C161.503 118.291 161.036 116.834 160.43 115.434C160.232 115.148 159.932 114.789 159.646 114.437C158.912 113.513 158.414 112.919 158.414 112.493C158.418 112.251 158.479 112.013 158.593 111.799C158.706 111.585 158.868 111.401 159.066 111.261C159.179 111.187 159.31 111.143 159.445 111.134C159.58 111.125 159.715 111.151 159.836 111.21C160.853 111.904 161.792 112.706 162.638 113.601C162.627 113.18 162.492 112.772 162.249 112.427L162.051 112.237C160.892 111.166 160.35 110.616 160.372 110.161C160.429 109.895 160.54 109.644 160.698 109.422C160.855 109.2 161.056 109.012 161.288 108.871C161.401 108.793 161.532 108.747 161.668 108.735C161.805 108.724 161.941 108.748 162.066 108.805C163.096 109.487 163.995 110.349 164.72 111.349C164.898 111.827 165.04 112.317 165.146 112.816C165.173 112.495 165.143 112.173 165.058 111.863C164.967 111.694 164.864 111.532 164.75 111.379C164.295 110.719 163.532 109.626 164.486 108.746C164.579 108.65 164.698 108.584 164.828 108.555C164.959 108.527 165.094 108.537 165.219 108.585C165.952 108.834 166.62 110.301 167.104 111.672C167.104 111.467 167.104 111.269 167.104 111.071C167.104 110.594 167.214 109.949 167.698 109.773C168.182 109.597 168.673 110.117 168.827 110.286C169.258 110.848 169.493 111.536 169.494 112.244C169.567 113.85 169.476 115.46 169.223 117.047C169.135 117.781 169.047 118.514 168.988 119.247C168.805 121.499 169.406 123.589 170.037 125.796C170.191 126.324 170.345 126.852 170.484 127.38C171.423 130.893 172.237 134.053 172.985 137.045C173.836 140.455 174.525 143.323 175.141 146.241C175.214 146.586 175.302 146.975 175.398 147.341C175.826 148.686 175.992 150.1 175.889 151.507C175.42 154.381 166.04 160.615 164.97 161.319C164.918 161.335 164.863 161.341 164.808 161.333ZM157.922 119.416C157.746 119.416 157.636 119.416 157.6 119.504C157.636 120.061 160.694 122.54 163.547 124.469C163.594 124.5 163.632 124.543 163.659 124.593C163.686 124.643 163.7 124.698 163.701 124.755L165.168 160.299C168.299 158.195 174.892 153.384 175.222 151.345C175.307 150.036 175.145 148.723 174.745 147.473C174.65 147.085 174.554 146.74 174.481 146.351C173.872 143.418 173.183 140.58 172.332 137.177C171.599 134.193 170.77 131.039 169.839 127.527C169.692 126.999 169.546 126.478 169.392 125.95C168.768 123.75 168.123 121.55 168.314 119.145C168.372 118.411 168.468 117.678 168.556 116.945C168.8 115.405 168.891 113.845 168.827 112.288C168.83 111.741 168.661 111.208 168.343 110.763C168.245 110.639 168.122 110.537 167.984 110.462C167.938 110.67 167.906 110.88 167.888 111.093C167.888 111.753 167.837 112.42 167.822 113.08V114.07C167.821 114.162 167.784 114.249 167.72 114.314C167.656 114.38 167.569 114.418 167.478 114.422C167.387 114.428 167.297 114.4 167.226 114.343C167.156 114.286 167.109 114.204 167.096 114.114C166.898 112.735 165.63 109.355 165.021 109.259C164.618 109.648 164.816 110.095 165.402 110.946C165.538 111.13 165.66 111.324 165.769 111.525C166.136 112.259 165.769 114.723 165.696 115.192C165.682 115.276 165.639 115.353 165.575 115.409C165.511 115.466 165.429 115.498 165.344 115.5C165.257 115.505 165.172 115.478 165.104 115.423C165.037 115.369 164.991 115.292 164.977 115.207C164.756 114.006 164.468 112.818 164.112 111.65C163.455 110.801 162.671 110.059 161.787 109.45C161.626 109.45 161.178 110 161.156 110.183C161.592 110.722 162.084 111.214 162.623 111.65L162.821 111.833C163.664 112.618 163.51 115.001 163.466 115.5C163.459 115.583 163.424 115.662 163.367 115.723C163.31 115.784 163.234 115.824 163.151 115.837C163.068 115.846 162.984 115.827 162.912 115.783C162.84 115.74 162.785 115.674 162.755 115.595C162.755 115.595 162.41 114.664 162.271 114.202C161.47 113.314 160.567 112.524 159.58 111.848C159.58 111.848 159.528 111.848 159.47 111.914C159.322 112.063 159.233 112.261 159.22 112.471C159.516 113 159.873 113.493 160.284 113.938C160.599 114.312 160.892 114.671 161.105 114.979C161.721 115.867 162.682 119.856 162.784 120.303C162.801 120.371 162.799 120.442 162.777 120.508C162.755 120.575 162.714 120.633 162.66 120.677C162.607 120.72 162.543 120.747 162.475 120.754C162.408 120.762 162.34 120.751 162.278 120.721C160.91 120.046 159.437 119.605 157.922 119.416Z" fill="#231F20"/>
<path d="M128.465 147.356L134.713 122.467C134.713 122.467 138.769 120.934 139.208 119.071C139.649 117.209 136.033 119.071 136.033 119.071L137.346 114.671C137.346 114.671 138.512 116.967 139.245 115.764C139.979 114.561 137.779 110.066 136.906 110.176C136.033 110.286 130.995 112.039 130.665 112.919C130.335 113.799 129.455 120.149 129.455 120.149C129.455 120.149 116.424 143.616 116.424 145.229C116.424 146.843 128.465 147.356 128.465 147.356Z" fill="white"/>
<path d="M128.464 147.723C123.836 147.547 116.07 146.989 116.07 145.251C116.07 143.513 127.598 122.731 129.102 120.047C129.226 119.137 129.996 113.674 130.319 112.809C130.752 111.665 136.076 109.934 136.86 109.839C137.271 109.78 137.74 110.161 138.276 110.983C139.053 112.178 140.226 114.877 139.559 115.977C139.479 116.133 139.359 116.264 139.21 116.357C139.062 116.45 138.891 116.501 138.716 116.505C138.454 116.447 138.206 116.335 137.99 116.176C137.774 116.017 137.594 115.814 137.462 115.581L136.618 118.397C137.476 118.03 138.716 117.663 139.295 118.089C139.444 118.218 139.549 118.391 139.596 118.582C139.643 118.774 139.63 118.975 139.559 119.159C139.134 120.978 135.892 122.386 135.027 122.738L128.816 147.444C128.795 147.522 128.75 147.592 128.686 147.642C128.623 147.692 128.545 147.721 128.464 147.723ZM136.926 110.565C135.995 110.682 131.294 112.427 131.008 113.073C130.722 113.718 130.062 118.463 129.82 120.215C129.813 120.262 129.799 120.306 129.776 120.347C124.775 129.338 116.826 144.056 116.789 145.281C117.002 145.97 122.186 146.747 128.178 147.004L134.36 122.408C134.374 122.35 134.402 122.296 134.441 122.251C134.481 122.207 134.531 122.172 134.587 122.151C135.665 121.748 138.525 120.384 138.848 119.02C138.848 118.851 138.848 118.727 138.848 118.697C138.562 118.47 137.227 118.903 136.208 119.431C136.144 119.464 136.071 119.477 135.999 119.47C135.928 119.462 135.86 119.433 135.804 119.387C135.748 119.341 135.706 119.28 135.685 119.21C135.665 119.141 135.665 119.067 135.687 118.998L137 114.598C137.022 114.529 137.063 114.468 137.12 114.423C137.177 114.377 137.245 114.35 137.317 114.343C137.39 114.337 137.462 114.352 137.526 114.387C137.589 114.422 137.641 114.475 137.674 114.539C137.975 115.119 138.488 115.771 138.752 115.786C138.811 115.786 138.899 115.676 138.936 115.61C139.126 115.295 139.046 114.283 138.415 112.816C137.784 111.349 137.132 110.609 136.926 110.565Z" fill="#231F20"/>
<path d="M163.29 145.589L161.28 150.333C161.28 150.333 141.862 147.657 130.803 151.881L130.312 144.885L116.012 142.267C115.432 143.858 115.586 165.469 118.872 173.8C122.157 182.131 133.047 189.2 155.348 185.035C155.348 185.035 171.943 178.435 175.573 169.818C177.898 164.296 177.773 150.751 177.304 143.323L163.29 145.589Z" fill="#FF6C22"/>
<path d="M129.725 166.423C129.751 167.179 129.915 167.925 130.209 168.623C130.296 168.866 130.445 169.083 130.642 169.25C130.839 169.418 131.077 169.53 131.331 169.576C132.064 169.627 132.534 168.843 132.798 168.175C133.531 166.129 134.682 161.935 132.101 160.666C129.109 159.221 129.608 164.795 129.725 166.423Z" fill="white"/>
<path d="M131.39 169.972H131.302C130.983 169.924 130.683 169.791 130.433 169.587C130.183 169.383 129.992 169.116 129.88 168.813C129.563 168.067 129.387 167.269 129.359 166.459V166.305C129.168 163.819 129.154 161.172 130.386 160.329C130.667 160.155 130.991 160.064 131.321 160.064C131.651 160.064 131.975 160.155 132.256 160.329C135.189 161.795 133.84 166.379 133.136 168.293C132.732 169.4 132.109 169.972 131.39 169.972ZM130.092 166.401C130.115 167.119 130.269 167.828 130.547 168.491C130.62 168.659 130.914 169.224 131.354 169.224C131.94 169.261 132.336 168.337 132.439 168.058C133.077 166.327 134.302 162.191 131.926 161.003C131.192 160.644 130.892 160.849 130.789 160.915C129.74 161.649 129.997 165.088 130.056 166.232L130.092 166.401Z" fill="#231F20"/>
<path d="M157.249 165.161C157.277 165.918 157.441 166.663 157.733 167.361C157.819 167.605 157.968 167.822 158.165 167.989C158.362 168.156 158.6 168.269 158.855 168.315C159.588 168.366 160.057 167.581 160.321 166.914C161.055 164.861 162.206 160.673 159.625 159.405C156.633 157.96 157.131 163.533 157.249 165.161Z" fill="white"/>
<path d="M158.912 168.711H158.831C158.503 168.67 158.193 168.54 157.934 168.334C157.675 168.128 157.478 167.855 157.365 167.545C157.047 166.802 156.87 166.006 156.844 165.198V165.044C156.661 162.558 156.639 159.911 157.871 159.067C158.152 158.894 158.476 158.802 158.806 158.802C159.136 158.802 159.46 158.894 159.741 159.067C162.674 160.534 161.325 165.117 160.621 167.031C160.261 168.117 159.631 168.711 158.912 168.711ZM158.714 159.544C158.569 159.537 158.427 159.581 158.311 159.669C157.262 160.402 157.519 163.841 157.577 164.985V165.132C157.599 165.853 157.753 166.564 158.032 167.229C158.105 167.391 158.399 167.963 158.839 167.963C159.433 167.963 159.821 167.083 159.924 166.797C160.562 165.066 161.787 160.93 159.411 159.742C159.195 159.628 158.958 159.561 158.714 159.544Z" fill="#231F20"/>
<path d="M159.557 163.995C159.557 163.995 157.709 156.618 152.957 152.929C148.205 149.241 141.664 149.703 138.899 151.661C136.135 153.619 131.06 159.5 132.094 168.945C133.128 178.391 159.557 163.995 159.557 163.995Z" fill="white"/>
<path d="M136.751 172.524C135.69 172.565 134.634 172.354 133.671 171.908C133.124 171.629 132.66 171.211 132.325 170.696C131.99 170.181 131.797 169.588 131.764 168.975C130.745 159.669 135.651 153.516 138.716 151.375C141.473 149.424 148.249 148.757 153.214 152.658C157.981 156.376 159.814 163.614 159.909 163.922C159.931 164 159.925 164.083 159.893 164.158C159.861 164.233 159.805 164.294 159.733 164.333C159.029 164.699 144.59 172.524 136.751 172.524ZM144.693 150.524C142.738 150.459 140.808 150.969 139.141 151.991C136.208 154.066 131.507 159.969 132.49 168.938C132.513 169.428 132.666 169.904 132.932 170.316C133.199 170.728 133.57 171.062 134.008 171.285C139.442 174.123 156.807 165.073 159.125 163.841C158.736 162.477 156.822 156.42 152.759 153.245C150.448 151.464 147.61 150.504 144.693 150.517V150.524Z" fill="#231F20"/>
<path d="M151.8 161.671C150.01 162.221 148.324 162.998 146.578 163.643C146.945 162.081 148.969 160.263 150.054 159.133C145.904 158.129 140.954 159.632 137.588 162.125L139.054 159.067C136.934 159.85 135.008 161.083 133.41 162.682C131.812 164.281 130.581 166.208 129.8 168.329C126.925 175.985 130.467 185.313 138.013 188.54C144.327 191.231 152.518 190.337 157.725 185.805C160.488 183.264 162.254 179.821 162.704 176.095C163.24 172.326 162.961 167.691 161.113 164.362C160.182 162.661 158.752 161.091 156.713 160.879C155.471 160.811 154.228 160.975 153.046 161.363L151.8 161.671Z" fill="white"/>
<path d="M145.602 190.432C142.945 190.438 140.314 189.909 137.865 188.877C130.304 185.643 126.454 176.183 129.446 168.205C130.254 166.02 131.529 164.038 133.184 162.399C134.838 160.759 136.832 159.502 139.024 158.715C139.093 158.691 139.168 158.688 139.239 158.707C139.309 158.726 139.373 158.765 139.421 158.821C139.469 158.876 139.5 158.944 139.509 159.017C139.518 159.09 139.505 159.163 139.471 159.229L138.584 161.04C142.192 158.796 146.614 157.916 150.185 158.781C150.248 158.796 150.306 158.828 150.352 158.873C150.399 158.918 150.432 158.975 150.449 159.038C150.466 159.099 150.467 159.164 150.452 159.226C150.436 159.287 150.405 159.344 150.361 159.39L149.789 159.969C148.811 160.861 147.96 161.883 147.259 163.005L148.41 162.551C149.488 162.118 150.61 161.671 151.732 161.319L152.92 160.974C154.153 160.567 155.452 160.398 156.748 160.475C158.596 160.666 160.217 161.942 161.427 164.142C163.084 167.171 163.7 171.659 163.062 176.139C162.595 179.959 160.773 183.484 157.929 186.076C154.47 188.95 150.099 190.495 145.602 190.432ZM138.378 159.735C136.481 160.555 134.77 161.751 133.349 163.251C131.927 164.751 130.824 166.523 130.106 168.461C127.246 176.081 130.913 185.123 138.122 188.203C144.546 190.945 152.488 189.845 157.445 185.533C160.151 183.053 161.877 179.683 162.307 176.037C162.923 171.71 162.307 167.398 160.752 164.501C160.019 163.115 158.662 161.414 156.638 161.209C155.436 161.14 154.232 161.299 153.089 161.678L151.923 162.023C150.808 162.367 149.723 162.8 148.66 163.225C148.014 163.489 147.369 163.746 146.716 163.959C146.654 163.98 146.588 163.984 146.523 163.971C146.459 163.958 146.399 163.929 146.35 163.885C146.299 163.842 146.262 163.785 146.241 163.722C146.221 163.659 146.218 163.591 146.232 163.526C146.562 162.111 148.11 160.556 149.239 159.419L149.334 159.331C145.22 158.598 140.652 160.292 137.836 162.389C137.771 162.439 137.691 162.466 137.608 162.466C137.526 162.466 137.446 162.439 137.381 162.389C137.319 162.337 137.275 162.265 137.258 162.186C137.241 162.106 137.25 162.023 137.286 161.949L138.378 159.735Z" fill="#231F20"/>
<path d="M142.816 154.975C142.816 154.975 143.652 149.739 144.598 149.109C145.544 148.478 146.446 151.536 146.446 151.536" fill="white"/>
<path d="M142.816 155.342H142.757C142.71 155.335 142.664 155.318 142.623 155.293C142.582 155.268 142.547 155.235 142.519 155.196C142.491 155.158 142.471 155.113 142.46 155.067C142.449 155.02 142.448 154.971 142.457 154.924C142.655 153.655 143.388 149.475 144.4 148.83C144.508 148.761 144.63 148.718 144.757 148.704C144.884 148.69 145.013 148.706 145.133 148.749C146.035 149.087 146.659 151.074 146.776 151.463C146.791 151.509 146.796 151.558 146.791 151.606C146.786 151.654 146.772 151.701 146.748 151.743C146.725 151.786 146.693 151.823 146.655 151.853C146.617 151.883 146.573 151.905 146.527 151.917C146.434 151.945 146.335 151.935 146.25 151.89C146.165 151.844 146.101 151.767 146.072 151.675C145.786 150.707 145.243 149.578 144.877 149.475C144.862 149.465 144.844 149.459 144.825 149.459C144.807 149.459 144.789 149.465 144.774 149.475C144.275 149.791 143.542 152.621 143.153 155.063C143.135 155.14 143.092 155.208 143.031 155.259C142.97 155.309 142.895 155.338 142.816 155.342Z" fill="#231F20"/>
<path d="M149.929 154.301C150.346 154.301 150.684 153.962 150.684 153.545C150.684 153.128 150.346 152.79 149.929 152.79C149.512 152.79 149.174 153.128 149.174 153.545C149.174 153.962 149.512 154.301 149.929 154.301Z" fill="#231F20"/>
<path d="M138.951 155.254C139.368 155.254 139.706 154.916 139.706 154.499C139.706 154.082 139.368 153.743 138.951 153.743C138.533 153.743 138.195 154.082 138.195 154.499C138.195 154.916 138.533 155.254 138.951 155.254Z" fill="#231F20"/>
<path d="M166.692 154.264C166.63 154.264 166.568 154.249 166.513 154.22C166.458 154.19 166.411 154.148 166.377 154.095C165.094 152.013 161.016 151.162 160.972 151.162C160.875 151.143 160.79 151.085 160.735 151.003C160.68 150.92 160.66 150.819 160.679 150.722C160.699 150.625 160.756 150.539 160.838 150.484C160.921 150.429 161.022 150.409 161.119 150.429C161.295 150.465 165.519 151.353 166.986 153.699C167.012 153.74 167.031 153.785 167.039 153.833C167.048 153.881 167.046 153.93 167.035 153.977C167.024 154.025 167.004 154.069 166.975 154.108C166.947 154.148 166.91 154.181 166.868 154.205C166.816 154.24 166.755 154.261 166.692 154.264Z" fill="#231F20"/>
<path d="M125.011 153.355C124.935 153.352 124.863 153.326 124.802 153.281C124.741 153.236 124.695 153.174 124.671 153.103C124.646 153.031 124.644 152.954 124.664 152.881C124.684 152.808 124.726 152.743 124.784 152.695C127.314 150.715 130.738 151.477 130.885 151.514C130.932 151.524 130.977 151.544 131.016 151.572C131.055 151.6 131.089 151.635 131.114 151.676C131.139 151.717 131.156 151.763 131.163 151.811C131.171 151.859 131.168 151.907 131.156 151.954C131.134 152.048 131.075 152.13 130.992 152.18C130.91 152.231 130.811 152.247 130.716 152.225C130.716 152.225 127.49 151.492 125.238 153.274C125.174 153.325 125.094 153.354 125.011 153.355Z" fill="#231F20"/>
<path d="M130.282 151.279C130.23 151.279 130.178 151.268 130.13 151.246C130.082 151.225 130.039 151.194 130.003 151.155C130.003 151.118 126.791 147.488 123.132 147.737C123.084 147.74 123.036 147.734 122.99 147.718C122.944 147.702 122.902 147.678 122.866 147.646C122.83 147.614 122.801 147.575 122.78 147.531C122.759 147.488 122.746 147.441 122.743 147.393C122.739 147.345 122.745 147.297 122.76 147.251C122.775 147.206 122.799 147.163 122.83 147.127C122.862 147.091 122.9 147.061 122.943 147.04C122.986 147.019 123.033 147.007 123.081 147.004C127.107 146.733 130.414 150.509 130.561 150.671C130.628 150.74 130.666 150.834 130.666 150.931C130.666 151.028 130.628 151.122 130.561 151.191C130.522 151.224 130.478 151.248 130.43 151.263C130.382 151.278 130.332 151.284 130.282 151.279Z" fill="#231F20"/>
<path d="M172.751 151.8H172.677C172.597 151.8 164.164 150.106 161.78 150.722C161.732 150.734 161.682 150.736 161.633 150.729C161.584 150.722 161.537 150.705 161.494 150.679C161.451 150.654 161.414 150.62 161.385 150.58C161.355 150.54 161.334 150.495 161.322 150.447C161.31 150.399 161.307 150.349 161.315 150.3C161.322 150.251 161.339 150.203 161.364 150.161C161.39 150.118 161.424 150.081 161.463 150.052C161.503 150.022 161.549 150.001 161.597 149.989C164.142 149.336 172.472 150.986 172.824 151.059C172.921 151.069 173.011 151.117 173.073 151.193C173.135 151.268 173.164 151.365 173.154 151.463C173.144 151.56 173.096 151.649 173.021 151.711C172.945 151.773 172.848 151.802 172.751 151.793V151.8Z" fill="#231F20"/>
<path d="M87.0016 127.365C92.2708 127.365 96.5423 123.094 96.5423 117.825C96.5423 112.555 92.2708 108.284 87.0016 108.284C81.7324 108.284 77.4609 112.555 77.4609 117.825C77.4609 123.094 81.7324 127.365 87.0016 127.365Z" fill="white"/>
<path d="M87.0011 127.732C85.0416 127.732 83.1261 127.151 81.4969 126.062C79.8676 124.974 78.5978 123.426 77.8479 121.616C77.098 119.806 76.9018 117.814 77.2841 115.892C77.6664 113.97 78.61 112.205 79.9955 110.819C81.3811 109.434 83.1464 108.49 85.0683 108.108C86.9901 107.725 88.9821 107.922 90.7925 108.671C92.6028 109.421 94.1501 110.691 95.2387 112.32C96.3274 113.95 96.9084 115.865 96.9084 117.825C96.9065 120.452 95.8621 122.97 94.0045 124.828C92.1469 126.686 89.6281 127.73 87.0011 127.732ZM87.0011 108.665C85.1866 108.665 83.4129 109.203 81.9043 110.211C80.3956 111.219 79.2198 112.652 78.5254 114.329C77.8311 116.005 77.6494 117.849 78.0034 119.629C78.3573 121.409 79.2311 123.043 80.5141 124.326C81.7971 125.609 83.4317 126.483 85.2113 126.837C86.9909 127.191 88.8355 127.009 90.5118 126.315C92.1882 125.621 93.6209 124.445 94.629 122.936C95.637 121.427 96.1751 119.654 96.1751 117.839C96.176 116.634 95.9395 115.44 95.479 114.325C95.0185 113.211 94.343 112.198 93.4911 111.345C92.6392 110.492 91.6276 109.815 90.5141 109.352C89.4005 108.89 88.2068 108.652 87.0011 108.651V108.665Z" fill="#E6E7E8"/>
<path d="M89.9149 124.446C90.175 124.895 90.7494 125.047 91.1978 124.787C91.6463 124.527 91.7989 123.953 91.5387 123.504L90.3906 121.525C90.1304 121.077 89.556 120.924 89.1076 121.184C88.6592 121.444 88.5066 122.019 88.7667 122.467L89.9149 124.446Z" fill="white"/>
<path d="M90.7206 125.283C90.6067 125.282 90.4933 125.268 90.3832 125.239C90.2179 125.196 90.0626 125.121 89.9266 125.018C89.7906 124.915 89.6766 124.785 89.5912 124.637L88.4399 122.65C88.2824 122.352 88.2467 122.004 88.3401 121.679C88.4336 121.355 88.649 121.08 88.9412 120.911C89.2335 120.742 89.5797 120.693 89.9074 120.774C90.235 120.855 90.5186 121.059 90.6986 121.345L91.8499 123.325C91.9365 123.473 91.9928 123.637 92.0157 123.807C92.0386 123.977 92.0275 124.149 91.9832 124.315C91.9389 124.481 91.8622 124.636 91.7575 124.772C91.6528 124.908 91.5222 125.022 91.3732 125.107C91.1753 125.223 90.9499 125.283 90.7206 125.283ZM89.5692 121.425C89.4429 121.423 89.3197 121.464 89.2198 121.542C89.1199 121.619 89.0491 121.728 89.0192 121.851C88.9976 121.923 88.9916 121.999 89.0018 122.073C89.0119 122.148 89.0378 122.22 89.0779 122.283L90.2219 124.263C90.3014 124.394 90.4269 124.491 90.5739 124.535C90.7204 124.571 90.875 124.55 91.0066 124.476C91.1374 124.398 91.2323 124.271 91.2706 124.124C91.2922 124.052 91.2982 123.976 91.2881 123.901C91.2779 123.827 91.252 123.755 91.2119 123.691L90.0679 121.711C90.0169 121.624 89.944 121.552 89.8566 121.502C89.7691 121.452 89.6701 121.426 89.5692 121.425Z" fill="#E6E7E8"/>
<path d="M87.0011 123.559C90.31 123.559 92.9924 120.877 92.9924 117.568C92.9924 114.259 90.31 111.577 87.0011 111.577C83.6922 111.577 81.0098 114.259 81.0098 117.568C81.0098 120.877 83.6922 123.559 87.0011 123.559Z" fill="white"/>
<path d="M87.0098 123.933C85.8957 123.934 84.8008 123.642 83.8345 123.088C82.8681 122.533 82.0641 121.735 81.5025 120.773C80.869 119.686 80.5719 118.437 80.6486 117.182C80.7253 115.927 81.1724 114.723 81.9334 113.722C82.6943 112.721 83.735 111.968 84.9239 111.558C86.1127 111.149 87.3963 111.101 88.6123 111.421C89.8283 111.741 90.9222 112.414 91.7556 113.356C92.589 114.297 93.1245 115.465 93.2944 116.71C93.4643 117.956 93.261 119.225 92.7102 120.355C92.1594 121.485 91.2858 122.427 90.1998 123.061C89.2336 123.631 88.132 123.933 87.0098 123.933ZM82.1332 120.384C82.6899 121.348 83.5201 122.125 84.5186 122.616C85.517 123.108 86.6389 123.292 87.7423 123.146C88.8456 123 89.8807 122.53 90.7167 121.795C91.5527 121.06 92.1518 120.094 92.4384 119.018C92.725 117.943 92.6861 116.807 92.3266 115.753C91.9671 114.7 91.3032 113.777 90.419 113.101C89.5347 112.425 88.4698 112.027 87.359 111.957C86.2483 111.886 85.1416 112.147 84.1792 112.706C83.5384 113.074 82.9767 113.564 82.5266 114.15C82.0765 114.736 81.7468 115.405 81.5566 116.119C81.3664 116.833 81.3194 117.577 81.4184 118.309C81.5173 119.041 81.7603 119.746 82.1332 120.384Z" fill="#E6E7E8"/>
<path d="M87.2649 122.936C89.9785 122.936 92.1782 120.736 92.1782 118.023C92.1782 115.309 89.9785 113.109 87.2649 113.109C84.5513 113.109 82.3516 115.309 82.3516 118.023C82.3516 120.736 84.5513 122.936 87.2649 122.936Z" fill="#E6E7E8"/>
<path d="M209.724 120.179C209.724 117.19 207.301 114.767 204.312 114.767C201.323 114.767 198.9 117.19 198.9 120.179V124.601C198.9 127.59 201.323 130.013 204.312 130.013C207.301 130.013 209.724 127.59 209.724 124.601V120.179Z" fill="white"/>
<path d="M204.314 130.379C202.782 130.375 201.315 129.765 200.232 128.683C199.149 127.6 198.539 126.132 198.535 124.601V120.201C198.535 118.668 199.144 117.198 200.228 116.115C201.311 115.031 202.781 114.422 204.314 114.422C205.846 114.422 207.316 115.031 208.4 116.115C209.484 117.198 210.092 118.668 210.092 120.201V124.601C210.091 126.133 209.481 127.601 208.398 128.685C207.315 129.768 205.846 130.377 204.314 130.379ZM204.314 115.133C202.976 115.135 201.694 115.667 200.748 116.613C199.803 117.559 199.27 118.841 199.268 120.179V124.579C199.268 125.917 199.8 127.2 200.746 128.146C201.692 129.092 202.976 129.624 204.314 129.624C205.652 129.624 206.935 129.092 207.881 128.146C208.828 127.2 209.359 125.917 209.359 124.579V120.179C209.357 118.841 208.825 117.559 207.879 116.613C206.934 115.667 205.651 115.135 204.314 115.133Z" fill="#E6E7E8"/>
<path d="M209.733 120.545H198.902C198.805 120.545 198.711 120.507 198.643 120.438C198.574 120.369 198.535 120.276 198.535 120.179C198.535 120.081 198.574 119.988 198.643 119.919C198.711 119.851 198.805 119.812 198.902 119.812H209.733C209.83 119.812 209.924 119.851 209.992 119.919C210.061 119.988 210.1 120.081 210.1 120.179C210.1 120.276 210.061 120.369 209.992 120.438C209.924 120.507 209.83 120.545 209.733 120.545Z" fill="#E6E7E8"/>
<path d="M204.314 118.976C204.217 118.976 204.123 118.937 204.055 118.869C203.986 118.8 203.947 118.707 203.947 118.609V114.767C203.947 114.669 203.986 114.576 204.055 114.507C204.123 114.439 204.217 114.4 204.314 114.4C204.411 114.4 204.504 114.439 204.573 114.507C204.642 114.576 204.681 114.669 204.681 114.767V118.609C204.681 118.707 204.642 118.8 204.573 118.869C204.504 118.937 204.411 118.976 204.314 118.976Z" fill="#E6E7E8"/>
<path d="M146.666 185.181C146.617 185.179 146.57 185.166 146.527 185.145C146.484 185.124 146.445 185.095 146.413 185.059C146.381 185.022 146.356 184.98 146.34 184.935C146.325 184.889 146.318 184.841 146.321 184.793C146.321 184.646 146.607 181.126 151.051 178.112C151.133 178.06 151.231 178.04 151.327 178.058C151.422 178.076 151.507 178.129 151.564 178.207C151.618 178.289 151.637 178.389 151.618 178.485C151.599 178.581 151.543 178.666 151.462 178.721C147.333 181.529 147.062 184.807 147.062 184.844C147.058 184.892 147.045 184.939 147.023 184.982C147.001 185.025 146.971 185.064 146.934 185.095C146.897 185.126 146.854 185.15 146.808 185.165C146.762 185.18 146.714 185.185 146.666 185.181Z" fill="#E6E7E8"/>
<path d="M144.635 185.189H144.562C144.51 185.189 139.179 184.118 138.585 179.505C138.573 179.409 138.599 179.312 138.658 179.235C138.717 179.158 138.804 179.107 138.9 179.095C138.997 179.082 139.094 179.108 139.171 179.167C139.248 179.227 139.298 179.314 139.311 179.41C139.839 183.495 144.65 184.455 144.701 184.463C144.798 184.471 144.888 184.518 144.951 184.593C145.013 184.668 145.044 184.765 145.035 184.862C145.026 184.96 144.979 185.049 144.904 185.112C144.829 185.174 144.732 185.205 144.635 185.196V185.189Z" fill="#E6E7E8"/>
<path d="M213.92 25.2706H79.4121V100.247H213.92V25.2706Z" fill="white"/>
<path d="M213.92 100.613H79.4116C79.3143 100.613 79.2211 100.575 79.1523 100.506C79.0836 100.437 79.0449 100.344 79.0449 100.247V25.2707C79.0449 25.1734 79.0836 25.0801 79.1523 25.0114C79.2211 24.9426 79.3143 24.904 79.4116 24.904H213.92C214.017 24.904 214.11 24.9426 214.179 25.0114C214.248 25.0801 214.286 25.1734 214.286 25.2707V100.247C214.286 100.344 214.248 100.437 214.179 100.506C214.11 100.575 214.017 100.613 213.92 100.613ZM79.7783 99.88H213.553V25.6667H79.7783V99.88Z" fill="#231F20"/>
<path d="M212.9 33.1686H80.4311C80.3339 33.1686 80.2406 33.13 80.1718 33.0612C80.1031 32.9925 80.0645 32.8992 80.0645 32.802C80.0645 32.7047 80.1031 32.6115 80.1718 32.5427C80.2406 32.4739 80.3339 32.4353 80.4311 32.4353H212.9C212.998 32.4353 213.091 32.4739 213.16 32.5427C213.229 32.6115 213.267 32.7047 213.267 32.802C213.267 32.8992 213.229 32.9925 213.16 33.0612C213.091 33.13 212.998 33.1686 212.9 33.1686Z" fill="#E6E7E8"/>
<path d="M83.937 29.9787C84.585 29.9787 85.1103 29.4534 85.1103 28.8054C85.1103 28.1573 84.585 27.632 83.937 27.632C83.289 27.632 82.7637 28.1573 82.7637 28.8054C82.7637 29.4534 83.289 29.9787 83.937 29.9787Z" fill="#E6E7E8"/>
<path d="M88.7554 29.9787C89.4034 29.9787 89.9287 29.4534 89.9287 28.8054C89.9287 28.1573 89.4034 27.632 88.7554 27.632C88.1073 27.632 87.582 28.1573 87.582 28.8054C87.582 29.4534 88.1073 29.9787 88.7554 29.9787Z" fill="#E6E7E8"/>
<path d="M93.5718 29.9787C94.2198 29.9787 94.7451 29.4534 94.7451 28.8054C94.7451 28.1573 94.2198 27.632 93.5718 27.632C92.9238 27.632 92.3984 28.1573 92.3984 28.8054C92.3984 29.4534 92.9238 29.9787 93.5718 29.9787Z" fill="#E6E7E8"/>
<path d="M104.727 39.82H96.521C96.4237 39.82 96.3305 39.7814 96.2617 39.7126C96.1929 39.6438 96.1543 39.5506 96.1543 39.4533C96.1543 39.3561 96.1929 39.2628 96.2617 39.1941C96.3305 39.1253 96.4237 39.0867 96.521 39.0867H104.727C104.824 39.0867 104.917 39.1253 104.986 39.1941C105.055 39.2628 105.094 39.3561 105.094 39.4533C105.094 39.5506 105.055 39.6438 104.986 39.7126C104.917 39.7814 104.824 39.82 104.727 39.82Z" fill="#231F20"/>
<path d="M125.399 39.82H109.039C108.941 39.82 108.848 39.7814 108.779 39.7126C108.71 39.6438 108.672 39.5506 108.672 39.4533C108.672 39.3561 108.71 39.2628 108.779 39.1941C108.848 39.1253 108.941 39.0867 109.039 39.0867H125.399C125.496 39.0867 125.59 39.1253 125.658 39.1941C125.727 39.2628 125.766 39.3561 125.766 39.4533C125.766 39.5506 125.727 39.6438 125.658 39.7126C125.59 39.7814 125.496 39.82 125.399 39.82Z" fill="#FF6C22"/>
<path d="M130.327 45.2687H113.966C113.869 45.2687 113.776 45.23 113.707 45.1613C113.638 45.0925 113.6 44.9993 113.6 44.902C113.6 44.8048 113.638 44.7115 113.707 44.6427C113.776 44.574 113.869 44.5353 113.966 44.5353H130.327C130.424 44.5353 130.517 44.574 130.586 44.6427C130.655 44.7115 130.694 44.8048 130.694 44.902C130.694 44.9993 130.655 45.0925 130.586 45.1613C130.517 45.23 130.424 45.2687 130.327 45.2687Z" fill="#FF6C22"/>
<path d="M106.647 45.2687H98.4487C98.3515 45.2687 98.2582 45.23 98.1894 45.1613C98.1207 45.0925 98.082 44.9993 98.082 44.902C98.082 44.8048 98.1207 44.7115 98.1894 44.6427C98.2582 44.574 98.3515 44.5353 98.4487 44.5353H106.647C106.745 44.5353 106.838 44.574 106.907 44.6427C106.975 44.7115 107.014 44.8048 107.014 44.902C107.014 44.9993 106.975 45.0925 106.907 45.1613C106.838 45.23 106.745 45.2687 106.647 45.2687Z" fill="#231F20"/>
<path d="M106.963 50.7173H100.363C100.266 50.7173 100.172 50.6787 100.103 50.6099C100.035 50.5412 99.9961 50.4479 99.9961 50.3507C99.9961 50.2534 100.035 50.1602 100.103 50.0914C100.172 50.0226 100.266 49.984 100.363 49.984H106.963C107.06 49.984 107.153 50.0226 107.222 50.0914C107.291 50.1602 107.329 50.2534 107.329 50.3507C107.329 50.4479 107.291 50.5412 107.222 50.6099C107.153 50.6787 107.06 50.7173 106.963 50.7173Z" fill="#231F20"/>
<path d="M133.253 50.7173H112.771C112.674 50.7173 112.58 50.6787 112.512 50.6099C112.443 50.5412 112.404 50.4479 112.404 50.3507C112.404 50.2534 112.443 50.1602 112.512 50.0914C112.58 50.0226 112.674 49.984 112.771 49.984H133.253C133.35 49.984 133.443 50.0226 133.512 50.0914C133.581 50.1602 133.62 50.2534 133.62 50.3507C133.62 50.4479 133.581 50.5412 133.512 50.6099C133.443 50.6787 133.35 50.7173 133.253 50.7173Z" fill="#FF6C22"/>
<path d="M110.497 56.166H102.298C102.201 56.166 102.108 56.1274 102.039 56.0586C101.97 55.9899 101.932 55.8966 101.932 55.7993C101.932 55.7021 101.97 55.6088 102.039 55.5401C102.108 55.4713 102.201 55.4327 102.298 55.4327H110.497C110.594 55.4327 110.687 55.4713 110.756 55.5401C110.825 55.6088 110.864 55.7021 110.864 55.7993C110.864 55.8966 110.825 55.9899 110.756 56.0586C110.687 56.1274 110.594 56.166 110.497 56.166Z" fill="#231F20"/>
<path d="M137.485 56.166H113.138C113.041 56.166 112.948 56.1274 112.879 56.0586C112.81 55.9899 112.771 55.8966 112.771 55.7993C112.771 55.7021 112.81 55.6088 112.879 55.5401C112.948 55.4713 113.041 55.4327 113.138 55.4327H137.485C137.582 55.4327 137.675 55.4713 137.744 55.5401C137.813 55.6088 137.851 55.7021 137.851 55.7993C137.851 55.8966 137.813 55.9899 137.744 56.0586C137.675 56.1274 137.582 56.166 137.485 56.166Z" fill="#FF6C22"/>
<path d="M108.319 61.6H100.121C100.023 61.6 99.9301 61.5613 99.8613 61.4926C99.7925 61.4238 99.7539 61.3306 99.7539 61.2333C99.7539 61.1361 99.7925 61.0428 99.8613 60.974C99.9301 60.9053 100.023 60.8666 100.121 60.8666H108.319C108.416 60.8666 108.51 60.9053 108.579 60.974C108.647 61.0428 108.686 61.1361 108.686 61.2333C108.686 61.3306 108.647 61.4238 108.579 61.4926C108.51 61.5613 108.416 61.6 108.319 61.6Z" fill="#231F20"/>
<path d="M124.666 61.6H111.466C111.369 61.6 111.276 61.5613 111.207 61.4926C111.138 61.4238 111.1 61.3306 111.1 61.2333C111.1 61.1361 111.138 61.0428 111.207 60.974C111.276 60.9053 111.369 60.8666 111.466 60.8666H124.666C124.764 60.8666 124.857 60.9053 124.926 60.974C124.994 61.0428 125.033 61.1361 125.033 61.2333C125.033 61.3306 124.994 61.4238 124.926 61.4926C124.857 61.5613 124.764 61.6 124.666 61.6Z" fill="#FF6C22"/>
<path d="M142.918 61.6H129.718C129.621 61.6 129.528 61.5613 129.459 61.4926C129.39 61.4238 129.352 61.3306 129.352 61.2333C129.352 61.1361 129.39 61.0428 129.459 60.974C129.528 60.9053 129.621 60.8666 129.718 60.8666H142.918C143.015 60.8666 143.109 60.9053 143.178 60.974C143.246 61.0428 143.285 61.1361 143.285 61.2333C143.285 61.3306 143.246 61.4238 143.178 61.4926C143.109 61.5613 143.015 61.6 142.918 61.6Z" fill="#FF6C22"/>
<path d="M102.944 67.0633H100.121C100.023 67.0633 99.9301 67.0247 99.8613 66.9559C99.7925 66.8871 99.7539 66.7939 99.7539 66.6966C99.7539 66.5994 99.7925 66.5061 99.8613 66.4374C99.9301 66.3686 100.023 66.33 100.121 66.33H102.944C103.041 66.33 103.134 66.3686 103.203 66.4374C103.272 66.5061 103.311 66.5994 103.311 66.6966C103.311 66.7939 103.272 66.8871 103.203 66.9559C103.134 67.0247 103.041 67.0633 102.944 67.0633Z" fill="#231F20"/>
<path d="M124.665 67.0633H107.798C107.701 67.0633 107.608 67.0247 107.539 66.9559C107.47 66.8871 107.432 66.7939 107.432 66.6966C107.432 66.5994 107.47 66.5061 107.539 66.4374C107.608 66.3686 107.701 66.33 107.798 66.33H124.665C124.762 66.33 124.855 66.3686 124.924 66.4374C124.993 66.5061 125.032 66.5994 125.032 66.6966C125.032 66.7939 124.993 66.8871 124.924 66.9559C124.855 67.0247 124.762 67.0633 124.665 67.0633Z" fill="#FF6C22"/>
<path d="M131.324 67.0633H126.609C126.512 67.0633 126.418 67.0247 126.35 66.9559C126.281 66.8871 126.242 66.7939 126.242 66.6966C126.242 66.5994 126.281 66.5061 126.35 66.4374C126.418 66.3686 126.512 66.33 126.609 66.33H131.324C131.421 66.33 131.515 66.3686 131.583 66.4374C131.652 66.5061 131.691 66.5994 131.691 66.6966C131.691 66.7939 131.652 66.8871 131.583 66.9559C131.515 67.0247 131.421 67.0633 131.324 67.0633Z" fill="#FF6C22"/>
<path d="M104.557 72.512H100.121C100.023 72.512 99.9301 72.4734 99.8613 72.4046C99.7925 72.3359 99.7539 72.2426 99.7539 72.1454C99.7539 72.0481 99.7925 71.9548 99.8613 71.8861C99.9301 71.8173 100.023 71.7787 100.121 71.7787H104.557C104.654 71.7787 104.748 71.8173 104.817 71.8861C104.885 71.9548 104.924 72.0481 104.924 72.1454C104.924 72.2426 104.885 72.3359 104.817 72.4046C104.748 72.4734 104.654 72.512 104.557 72.512Z" fill="#231F20"/>
<path d="M128.809 72.512H108.738C108.641 72.512 108.547 72.4734 108.478 72.4046C108.41 72.3359 108.371 72.2426 108.371 72.1454C108.371 72.0481 108.41 71.9548 108.478 71.8861C108.547 71.8173 108.641 71.7787 108.738 71.7787H128.809C128.906 71.7787 129 71.8173 129.068 71.8861C129.137 71.9548 129.176 72.0481 129.176 72.1454C129.176 72.2426 129.137 72.3359 129.068 72.4046C129 72.4734 128.906 72.512 128.809 72.512Z" fill="#FF6C22"/>
<path d="M138.987 72.512H130.789C130.691 72.512 130.598 72.4734 130.529 72.4046C130.461 72.3359 130.422 72.2426 130.422 72.1454C130.422 72.0481 130.461 71.9548 130.529 71.8861C130.598 71.8173 130.691 71.7787 130.789 71.7787H138.987C139.084 71.7787 139.178 71.8173 139.246 71.8861C139.315 71.9548 139.354 72.0481 139.354 72.1454C139.354 72.2426 139.315 72.3359 139.246 72.4046C139.178 72.4734 139.084 72.512 138.987 72.512Z" fill="#FF6C22"/>
<path d="M102.549 77.9606H98.2007C98.1034 77.9606 98.0101 77.922 97.9414 77.8532C97.8726 77.7845 97.834 77.6912 97.834 77.594C97.834 77.4967 97.8726 77.4035 97.9414 77.3347C98.0101 77.2659 98.1034 77.2273 98.2007 77.2273H102.549C102.647 77.2273 102.74 77.2659 102.809 77.3347C102.877 77.4035 102.916 77.4967 102.916 77.594C102.916 77.6912 102.877 77.7845 102.809 77.8532C102.74 77.922 102.647 77.9606 102.549 77.9606Z" fill="#231F20"/>
<path d="M126.61 77.9606H107.617C107.519 77.9606 107.426 77.922 107.357 77.8532C107.289 77.7845 107.25 77.6912 107.25 77.594C107.25 77.4967 107.289 77.4035 107.357 77.3347C107.426 77.2659 107.519 77.2273 107.617 77.2273H126.61C126.707 77.2273 126.801 77.2659 126.869 77.3347C126.938 77.4035 126.977 77.4967 126.977 77.594C126.977 77.6912 126.938 77.7845 126.869 77.8532C126.801 77.922 126.707 77.9606 126.61 77.9606Z" fill="#FF6C22"/>
<path d="M106.399 83.4093H98.2007C98.1034 83.4093 98.0101 83.3707 97.9414 83.3019C97.8726 83.2331 97.834 83.1399 97.834 83.0426C97.834 82.9454 97.8726 82.8521 97.9414 82.7834C98.0101 82.7146 98.1034 82.676 98.2007 82.676H106.399C106.497 82.676 106.59 82.7146 106.659 82.7834C106.727 82.8521 106.766 82.9454 106.766 83.0426C106.766 83.1399 106.727 83.2331 106.659 83.3019C106.59 83.3707 106.497 83.4093 106.399 83.4093Z" fill="#231F20"/>
<path d="M115.77 88.858H99.4096C99.3124 88.858 99.2191 88.8193 99.1504 88.7506C99.0816 88.6818 99.043 88.5885 99.043 88.4913C99.043 88.3941 99.0816 88.3008 99.1504 88.232C99.2191 88.1633 99.3124 88.1246 99.4096 88.1246H115.77C115.868 88.1246 115.961 88.1633 116.03 88.232C116.098 88.3008 116.137 88.3941 116.137 88.4913C116.137 88.5885 116.098 88.6818 116.03 88.7506C115.961 88.8193 115.868 88.858 115.77 88.858Z" fill="#231F20"/>
<path d="M131.325 88.858H119.951C119.853 88.858 119.76 88.8193 119.691 88.7506C119.623 88.6818 119.584 88.5885 119.584 88.4913C119.584 88.3941 119.623 88.3008 119.691 88.232C119.76 88.1633 119.853 88.1246 119.951 88.1246H131.325C131.422 88.1246 131.515 88.1633 131.584 88.232C131.653 88.3008 131.691 88.3941 131.691 88.4913C131.691 88.5885 131.653 88.6818 131.584 88.7506C131.515 88.8193 131.422 88.858 131.325 88.858Z" fill="#FF6C22"/>
<path d="M147.033 88.858H132.953C132.855 88.858 132.762 88.8193 132.693 88.7506C132.625 88.6818 132.586 88.5885 132.586 88.4913C132.586 88.3941 132.625 88.3008 132.693 88.232C132.762 88.1633 132.855 88.1246 132.953 88.1246H147.033C147.13 88.1246 147.223 88.1633 147.292 88.232C147.361 88.3008 147.399 88.3941 147.399 88.4913C147.399 88.5885 147.361 88.6818 147.292 88.7506C147.223 88.8193 147.13 88.858 147.033 88.858Z" fill="#FF6C22"/>
<path d="M123.969 94.3067H100.121C100.023 94.3067 99.9301 94.2681 99.8613 94.1993C99.7925 94.1305 99.7539 94.0373 99.7539 93.94C99.7539 93.8428 99.7925 93.7495 99.8613 93.6808C99.9301 93.612 100.023 93.5734 100.121 93.5734H123.969C124.066 93.5734 124.159 93.612 124.228 93.6808C124.297 93.7495 124.335 93.8428 124.335 93.94C124.335 94.0373 124.297 94.1305 124.228 94.1993C124.159 94.2681 124.066 94.3067 123.969 94.3067Z" fill="#231F20"/>
<path d="M137.793 94.3067H127.064C126.967 94.3067 126.873 94.2681 126.805 94.1993C126.736 94.1305 126.697 94.0373 126.697 93.94C126.697 93.8428 126.736 93.7495 126.805 93.6808C126.873 93.612 126.967 93.5734 127.064 93.5734H137.793C137.89 93.5734 137.983 93.612 138.052 93.6808C138.121 93.7495 138.159 93.8428 138.159 93.94C138.159 94.0373 138.121 94.1305 138.052 94.1993C137.983 94.2681 137.89 94.3067 137.793 94.3067Z" fill="#FF6C22"/>
<path d="M171.519 94.3067H146.343C146.246 94.3067 146.153 94.2681 146.084 94.1993C146.015 94.1305 145.977 94.0373 145.977 93.94C145.977 93.8428 146.015 93.7495 146.084 93.6808C146.153 93.612 146.246 93.5734 146.343 93.5734H171.519C171.616 93.5734 171.709 93.612 171.778 93.6808C171.847 93.7495 171.885 93.8428 171.885 93.94C171.885 94.0373 171.847 94.1305 171.778 94.1993C171.709 94.2681 171.616 94.3067 171.519 94.3067Z" fill="#FF6C22"/>
<path d="M151.886 56.166H140.798C140.701 56.166 140.608 56.1274 140.539 56.0586C140.47 55.9899 140.432 55.8966 140.432 55.7993C140.432 55.7021 140.47 55.6088 140.539 55.5401C140.608 55.4713 140.701 55.4327 140.798 55.4327H151.886C151.984 55.4327 152.077 55.4713 152.146 55.5401C152.214 55.6088 152.253 55.7021 152.253 55.7993C152.253 55.8966 152.214 55.9899 152.146 56.0586C152.077 56.1274 151.984 56.166 151.886 56.166Z" fill="#FF6C22"/>
<path d="M160.122 56.2247C156.287 56.2247 156.17 56.1587 156.104 56.122C156.061 56.0996 156.023 56.0689 155.991 56.0316C155.96 55.9943 155.937 55.9512 155.923 55.9048C155.908 55.8585 155.903 55.8097 155.908 55.7613C155.913 55.713 155.927 55.6661 155.95 55.6233C155.989 55.5488 156.053 55.4904 156.131 55.4583C156.208 55.4261 156.295 55.4222 156.375 55.4473C156.954 55.5207 164.163 55.4473 168.893 55.4473C168.99 55.4473 169.084 55.4859 169.152 55.5547C169.221 55.6235 169.26 55.7167 169.26 55.814C169.26 55.9112 169.221 56.0045 169.152 56.0733C169.084 56.142 168.99 56.1807 168.893 56.1807C164.786 56.2027 162.007 56.2247 160.122 56.2247Z" fill="#FF6C22"/>
<path d="M150.112 45.2687H134.023C133.926 45.2687 133.832 45.23 133.764 45.1613C133.695 45.0925 133.656 44.9993 133.656 44.902C133.656 44.8048 133.695 44.7115 133.764 44.6427C133.832 44.574 133.926 44.5353 134.023 44.5353H150.112C150.21 44.5353 150.303 44.574 150.372 44.6427C150.44 44.7115 150.479 44.8048 150.479 44.902C150.479 44.9993 150.44 45.0925 150.372 45.1613C150.303 45.23 150.21 45.2687 150.112 45.2687Z" fill="#FF6C22"/>
<path d="M169.4 45.2687H153.347C153.25 45.2687 153.157 45.23 153.088 45.1613C153.019 45.0925 152.98 44.9993 152.98 44.902C152.98 44.8048 153.019 44.7115 153.088 44.6427C153.157 44.574 153.25 44.5353 153.347 44.5353H169.4C169.497 44.5353 169.59 44.574 169.659 44.6427C169.728 44.7115 169.766 44.8048 169.766 44.902C169.766 44.9993 169.728 45.0925 169.659 45.1613C169.59 45.23 169.497 45.2687 169.4 45.2687Z" fill="#FF6C22"/>
<path d="M135.336 39.8493C131.633 39.8493 129.719 39.8493 129.616 39.8053C129.57 39.7935 129.526 39.7724 129.488 39.7433C129.449 39.7142 129.417 39.6777 129.393 39.636C129.369 39.5943 129.354 39.5482 129.348 39.5004C129.343 39.4527 129.346 39.4042 129.36 39.358C129.384 39.2708 129.439 39.1952 129.514 39.1453C129.59 39.0954 129.681 39.0746 129.77 39.0867C130.372 39.138 143.308 39.0867 148.265 39.0867C148.362 39.0867 148.456 39.1253 148.524 39.1941C148.593 39.2628 148.632 39.3561 148.632 39.4533C148.632 39.5506 148.593 39.6439 148.524 39.7126C148.456 39.7814 148.362 39.82 148.265 39.82L135.336 39.8493Z" fill="#FF6C22"/>
<path d="M152.657 39.82C152.602 39.8203 152.547 39.8079 152.498 39.7837C152.448 39.7596 152.405 39.7243 152.371 39.6807C152.34 39.6435 152.317 39.6005 152.304 39.5542C152.29 39.508 152.286 39.4595 152.291 39.4116C152.297 39.3637 152.312 39.3174 152.336 39.2754C152.359 39.2335 152.391 39.1967 152.43 39.1674C152.554 39.0647 152.76 38.9034 163.672 39.0867C163.72 39.0866 163.768 39.0964 163.813 39.1154C163.857 39.1343 163.897 39.1621 163.931 39.1971C163.965 39.232 163.991 39.2734 164.008 39.3187C164.025 39.364 164.033 39.4123 164.031 39.4607C164.032 39.5094 164.023 39.5579 164.004 39.603C163.986 39.648 163.958 39.6888 163.923 39.7225C163.888 39.7563 163.846 39.7824 163.8 39.7992C163.754 39.816 163.706 39.8231 163.657 39.82C159.756 39.754 153.39 39.688 152.789 39.82C152.746 39.8303 152.7 39.8303 152.657 39.82Z" fill="#231F20"/>
<path d="M137.133 77.9606H128.81C128.713 77.9606 128.62 77.922 128.551 77.8532C128.482 77.7845 128.443 77.6912 128.443 77.594C128.443 77.4967 128.482 77.4035 128.551 77.3347C128.62 77.2659 128.713 77.2273 128.81 77.2273H137.133C137.231 77.2273 137.324 77.2659 137.393 77.3347C137.461 77.4035 137.5 77.4967 137.5 77.594C137.5 77.6912 137.461 77.7845 137.393 77.8532C137.324 77.922 137.231 77.9606 137.133 77.9606Z" fill="#FF6C22"/>
<path d="M118.066 83.4093H111.964C111.867 83.4093 111.774 83.3707 111.705 83.3019C111.636 83.2331 111.598 83.1399 111.598 83.0426C111.598 82.9454 111.636 82.8521 111.705 82.7834C111.774 82.7146 111.867 82.676 111.964 82.676H118.066C118.163 82.676 118.256 82.7146 118.325 82.7834C118.394 82.8521 118.432 82.9454 118.432 83.0426C118.432 83.1399 118.394 83.2331 118.325 83.3019C118.256 83.3707 118.163 83.4093 118.066 83.4093Z" fill="#FF6C22"/>
<path d="M134.888 83.4093H120.382C120.285 83.4093 120.192 83.3707 120.123 83.3019C120.054 83.2331 120.016 83.1399 120.016 83.0426C120.016 82.9454 120.054 82.8521 120.123 82.7834C120.192 82.7146 120.285 82.676 120.382 82.676H134.888C134.985 82.676 135.078 82.7146 135.147 82.7834C135.216 82.8521 135.254 82.9454 135.254 83.0426C135.254 83.1399 135.216 83.2331 135.147 83.3019C135.078 83.3707 134.985 83.4093 134.888 83.4093Z" fill="#231F20"/>
<path d="M165.901 83.4093H137.792C137.695 83.4093 137.602 83.3707 137.533 83.3019C137.464 83.2331 137.426 83.1399 137.426 83.0426C137.426 82.9454 137.464 82.8521 137.533 82.7834C137.602 82.7146 137.695 82.676 137.792 82.676H165.901C165.998 82.676 166.092 82.7146 166.16 82.7834C166.229 82.8521 166.268 82.9454 166.268 83.0426C166.268 83.1399 166.229 83.2331 166.16 83.3019C166.092 83.3707 165.998 83.4093 165.901 83.4093Z" fill="#FF6C22"/>
<path d="M184.681 97.2986C184.584 97.2986 184.491 97.26 184.422 97.1912C184.353 97.1225 184.314 97.0292 184.314 96.932V32.802C184.314 32.7047 184.353 32.6115 184.422 32.5427C184.491 32.4739 184.584 32.4353 184.681 32.4353C184.778 32.4353 184.872 32.4739 184.94 32.5427C185.009 32.6115 185.048 32.7047 185.048 32.802V96.932C185.046 97.0286 185.007 97.1208 184.938 97.1892C184.87 97.2575 184.778 97.2968 184.681 97.2986Z" fill="#E6E7E8"/>
<path d="M207.407 38.8666H190.064C189.967 38.8648 189.875 38.8255 189.807 38.7572C189.738 38.6888 189.699 38.5966 189.697 38.5C189.697 38.4027 189.736 38.3095 189.805 38.2407C189.873 38.1719 189.967 38.1333 190.064 38.1333H207.407C207.505 38.1333 207.598 38.1719 207.667 38.2407C207.735 38.3095 207.774 38.4027 207.774 38.5C207.774 38.5972 207.735 38.6905 207.667 38.7592C207.598 38.828 207.505 38.8666 207.407 38.8666Z" fill="#FF6C22"/>
<path d="M207.407 45.0267H190.064C189.967 45.0248 189.875 44.9856 189.807 44.9172C189.738 44.8488 189.699 44.7567 189.697 44.66C189.697 44.5628 189.736 44.4695 189.805 44.4007C189.873 44.332 189.967 44.2933 190.064 44.2933H207.407C207.505 44.2933 207.598 44.332 207.667 44.4007C207.735 44.4695 207.774 44.5628 207.774 44.66C207.774 44.7572 207.735 44.8505 207.667 44.9193C207.598 44.988 207.505 45.0267 207.407 45.0267Z" fill="#FF6C22"/>
<path d="M201.563 51.1866H190.064C189.967 51.1848 189.875 51.1455 189.807 51.0772C189.738 51.0088 189.699 50.9166 189.697 50.82C189.697 50.7227 189.736 50.6295 189.805 50.5607C189.873 50.4919 189.967 50.4533 190.064 50.4533H201.563C201.66 50.4533 201.753 50.4919 201.822 50.5607C201.891 50.6295 201.929 50.7227 201.929 50.82C201.927 50.9166 201.888 51.0088 201.82 51.0772C201.751 51.1455 201.659 51.1848 201.563 51.1866Z" fill="#231F20"/>
<path d="M207.408 57.3467H195.367C195.269 57.3467 195.176 57.308 195.107 57.2393C195.039 57.1705 195 57.0773 195 56.98C195 56.8828 195.039 56.7895 195.107 56.7207C195.176 56.652 195.269 56.6133 195.367 56.6133H207.408C207.505 56.6133 207.599 56.652 207.667 56.7207C207.736 56.7895 207.775 56.8828 207.775 56.98C207.775 57.0282 207.765 57.0758 207.747 57.1203C207.728 57.1648 207.701 57.2052 207.667 57.2393C207.633 57.2733 207.593 57.3003 207.548 57.3188C207.504 57.3372 207.456 57.3467 207.408 57.3467Z" fill="#FF6C22"/>
<path d="M202.802 63.5066H190.064C189.967 63.5048 189.875 63.4655 189.807 63.3972C189.738 63.3288 189.699 63.2366 189.697 63.14C189.697 63.0427 189.736 62.9495 189.805 62.8807C189.873 62.8119 189.967 62.7733 190.064 62.7733H202.802C202.899 62.7733 202.992 62.8119 203.061 62.8807C203.13 62.9495 203.169 63.0427 203.169 63.14C203.167 63.2366 203.127 63.3288 203.059 63.3972C202.991 63.4655 202.899 63.5048 202.802 63.5066Z" fill="#231F20"/>
<path d="M196.437 69.6667H190.064C189.967 69.6648 189.875 69.6256 189.807 69.5572C189.738 69.4889 189.699 69.3967 189.697 69.3C189.697 69.2028 189.736 69.1095 189.805 69.0407C189.873 68.972 189.967 68.9333 190.064 68.9333H196.437C196.534 68.9333 196.627 68.972 196.696 69.0407C196.765 69.1095 196.803 69.2028 196.803 69.3C196.801 69.3967 196.762 69.4889 196.694 69.5572C196.625 69.6256 196.533 69.6648 196.437 69.6667Z" fill="#FF6C22"/>
<path d="M204.21 75.8267H190.064C189.967 75.8248 189.875 75.7855 189.807 75.7172C189.738 75.6488 189.699 75.5566 189.697 75.46C189.697 75.3627 189.736 75.2695 189.805 75.2007C189.873 75.132 189.967 75.0933 190.064 75.0933H204.21C204.307 75.0933 204.4 75.132 204.469 75.2007C204.538 75.2695 204.577 75.3627 204.577 75.46C204.577 75.5572 204.538 75.6505 204.469 75.7193C204.4 75.788 204.307 75.8267 204.21 75.8267Z" fill="#FF6C22"/>
<path d="M207.408 81.9866H195.367C195.269 81.9866 195.176 81.948 195.107 81.8792C195.039 81.8105 195 81.7172 195 81.62C195 81.5227 195.039 81.4295 195.107 81.3607C195.176 81.2919 195.269 81.2533 195.367 81.2533H207.408C207.505 81.2533 207.599 81.2919 207.667 81.3607C207.736 81.4295 207.775 81.5227 207.775 81.62C207.775 81.6681 207.765 81.7158 207.747 81.7603C207.728 81.8048 207.701 81.8452 207.667 81.8792C207.633 81.9133 207.593 81.9403 207.548 81.9587C207.504 81.9771 207.456 81.9866 207.408 81.9866Z" fill="#231F20"/>
<path d="M204.21 88.1467H190.064C189.967 88.1448 189.875 88.1056 189.807 88.0372C189.738 87.9688 189.699 87.8767 189.697 87.78C189.697 87.6827 189.736 87.5895 189.805 87.5207C189.873 87.452 189.967 87.4133 190.064 87.4133H204.21C204.307 87.4133 204.4 87.452 204.469 87.5207C204.538 87.5895 204.577 87.6827 204.577 87.78C204.577 87.8772 204.538 87.9705 204.469 88.0393C204.4 88.108 204.307 88.1467 204.21 88.1467Z" fill="#FF6C22"/>
<path d="M195.8 94.3067H190.05C189.953 94.3067 189.86 94.2681 189.791 94.1993C189.722 94.1305 189.684 94.0373 189.684 93.94C189.684 93.8428 189.722 93.7495 189.791 93.6808C189.86 93.612 189.953 93.5734 190.05 93.5734H195.8C195.897 93.5734 195.99 93.612 196.059 93.6808C196.128 93.7495 196.166 93.8428 196.166 93.94C196.166 94.0373 196.128 94.1305 196.059 94.1993C195.99 94.2681 195.897 94.3067 195.8 94.3067Z" fill="#231F20"/>
</svg>
