<svg width="294" height="220" viewBox="0 0 294 220" fill="none" xmlns="http://www.w3.org/2000/svg">
<path d="M260.077 156.413H33.2573C33.16 156.413 33.0668 156.374 32.998 156.305C32.9293 156.237 32.8906 156.143 32.8906 156.046C32.8925 155.949 32.9317 155.857 33.0001 155.789C33.0685 155.72 33.1606 155.681 33.2573 155.679H260.077C260.174 155.681 260.266 155.72 260.335 155.789C260.403 155.857 260.442 155.949 260.444 156.046C260.444 156.143 260.405 156.237 260.337 156.305C260.268 156.374 260.175 156.413 260.077 156.413Z" fill="#D1D3D4"/>
<path d="M51.2828 77.4253C40.3342 85.3967 38.8675 102.014 38.5888 114.495C38.3102 126.229 40.9282 137.434 43.3775 148.881C45.7682 160.079 54.8542 166.188 65.7002 168.681C81.8335 172.414 99.4335 172.847 115.809 171.043C132.184 169.239 132.61 153.105 130.967 139.898C130.512 136.231 127.938 133.965 125.159 131.985C121.72 129.689 118.72 126.795 116.3 123.442C108.534 112.2 108.087 98.8387 102.91 86.6067C98.8175 76.9193 89.7095 70.1727 79.1422 70.51C68.5748 70.8473 58.5648 72.1307 51.2828 77.4253Z" fill="white"/>
<path d="M97.212 172.465C86.5868 172.524 75.989 171.383 65.62 169.063C49.6994 165.396 44.544 156.09 43.0187 148.955L42.5054 146.549C40.166 135.696 37.9587 125.451 38.2227 114.488C38.8314 89.21 45.4094 81.246 51.0707 77.1247C58.778 71.522 69.58 70.4513 79.1354 70.1433C89.446 69.828 98.9354 76.2153 103.247 86.46C105.143 91.2312 106.691 96.1328 107.882 101.127C109.862 108.643 111.915 116.409 116.609 123.244C118.684 126.265 121.302 128.795 125.409 131.699C128.225 133.701 130.894 136.099 131.363 139.861C132.874 151.954 131.635 160.329 127.572 165.469C124.903 168.85 120.972 170.852 115.883 171.417C109.683 172.106 103.45 172.456 97.212 172.465ZM51.5034 77.7333C40.9874 85.382 39.2714 101.413 38.956 114.517C38.6994 125.393 40.892 135.601 43.2167 146.41L43.7374 148.815C45.204 155.745 50.242 164.751 65.7887 168.359C80.8367 171.849 98.1214 172.663 115.765 170.713C120.649 170.177 124.419 168.263 126.963 165.044C130.894 160.065 132.097 151.844 130.63 139.979C130.19 136.481 127.653 134.229 124.976 132.323C120.833 129.389 118.156 126.786 116.029 123.691C111.263 116.754 109.202 108.915 107.229 101.339C106.042 96.3766 104.503 91.5047 102.624 86.7607C98.4147 76.7947 89.2187 70.5467 79.2087 70.8913C69.7707 71.1993 59.1007 72.248 51.5547 77.7333H51.5034Z" fill="#231F20"/>
<path d="M80.0286 139.392C78.0684 139.391 76.1098 139.281 74.1619 139.062C70.4246 138.638 66.7394 137.84 63.1619 136.679C58.2926 135.102 55.0219 133.298 52.5652 130.849C48.8326 127.116 47.4319 122.049 46.8672 118.507C45.6206 110.264 46.8672 101.156 47.7692 96.4627C48.3581 93.245 49.6439 90.1951 51.5366 87.5271C53.4293 84.8592 55.8829 82.6377 58.7252 81.0187C62.6706 78.7233 67.3786 77.242 73.1059 76.494C79.1192 75.7093 83.4459 76.3547 86.7239 78.518C92.0773 82.0527 93.6026 88.8507 94.7026 95.5093L96.5726 106.81C97.0272 109.619 97.6579 113.461 99.8652 115.273C100.644 115.862 101.482 116.368 102.366 116.783C103.913 117.561 105.505 118.375 106.407 120.142C107.514 122.342 107.983 126.009 106.847 128.421C105.585 131.076 103.011 132.821 101.193 133.899C94.76 137.6 87.4488 139.497 80.0286 139.392ZM77.7332 76.9047C76.2419 76.9159 74.7527 77.0212 73.2746 77.22C67.6426 77.9533 63.0079 79.42 59.1726 81.62C56.42 83.1845 54.0439 85.3335 52.2118 87.9157C50.3797 90.4979 49.1361 93.4505 48.5686 96.5653C47.6666 101.244 46.4199 110.257 47.6666 118.397C48.1872 121.858 49.5659 126.735 53.1592 130.328C55.5279 132.697 58.7032 134.442 63.4259 135.982C66.9425 137.129 70.5667 137.916 74.2426 138.329C84.1792 139.451 93.3826 137.698 100.855 133.269C102.593 132.235 105.043 130.577 106.216 128.135C107.257 125.935 106.817 122.533 105.791 120.501C104.999 118.947 103.591 118.228 102.073 117.465C101.141 117.029 100.259 116.496 99.4399 115.874C97.0126 113.887 96.3599 109.875 95.8832 106.957L94.0132 95.656C92.9426 89.1587 91.4613 82.5293 86.3572 79.1633C84.1206 77.638 81.3046 76.9047 77.7332 76.9047Z" fill="#D1D3D4"/>
<path d="M53.027 127.93C52.9536 127.93 52.8818 127.909 52.8205 127.868C52.7592 127.828 52.7111 127.77 52.6823 127.703C52.6645 127.658 52.6556 127.61 52.6563 127.562C52.6569 127.514 52.6671 127.466 52.6862 127.422C52.7052 127.377 52.7329 127.337 52.7674 127.304C52.802 127.27 52.8429 127.244 52.8877 127.226C57.5957 125.275 60.7343 125.759 60.8663 125.759C60.9145 125.767 60.9608 125.783 61.0025 125.808C61.0442 125.833 61.0806 125.866 61.1095 125.906C61.1385 125.945 61.1594 125.989 61.1712 126.036C61.1829 126.084 61.1852 126.133 61.178 126.181C61.1708 126.229 61.1542 126.275 61.1291 126.317C61.104 126.359 61.0709 126.395 61.0317 126.424C60.9926 126.453 60.9481 126.474 60.9009 126.486C60.8536 126.498 60.8045 126.5 60.7563 126.493C60.7563 126.493 57.669 126.053 53.1663 127.915C53.1216 127.931 53.074 127.936 53.027 127.93Z" fill="#D1D3D4"/>
<path d="M242.051 77.4253C253.014 85.3967 254.444 102.014 254.745 114.495C255.024 126.229 252.406 137.434 249.956 148.881C247.566 160.079 238.48 166.188 227.634 168.681C211.5 172.414 193.9 172.847 177.525 171.043C161.15 169.239 160.724 153.105 162.367 139.898C162.822 136.231 165.396 133.965 168.175 131.985C171.614 129.689 174.614 126.795 177.034 123.442C184.8 112.2 185.247 98.8387 190.424 86.6067C194.516 76.9193 203.624 70.1727 214.192 70.51C224.759 70.8473 234.769 72.1307 242.051 77.4253Z" fill="white"/>
<path d="M196.123 172.465C189.89 172.46 183.662 172.115 177.467 171.431C172.377 170.867 168.447 168.865 165.777 165.484C161.715 160.351 160.475 151.969 161.986 139.876C162.455 136.092 165.125 133.716 167.941 131.714C172.011 128.781 174.629 126.28 176.741 123.259C181.434 116.424 183.487 108.658 185.467 101.141C186.658 96.1475 188.207 91.2459 190.102 86.4747C194.436 76.208 203.925 69.85 214.214 70.158C223.747 70.466 234.571 71.5367 242.279 77.1393C253.059 84.9787 254.804 101.222 255.127 114.539C255.391 125.503 253.183 135.747 250.844 146.601L250.331 149.006C248.805 156.141 243.65 165.418 227.729 169.114C217.354 171.418 206.751 172.542 196.123 172.465ZM213.4 70.862C203.683 70.862 194.839 77.0293 190.733 86.746C188.854 91.4901 187.315 96.362 186.127 101.325C184.133 108.9 182.072 116.725 177.327 123.677C175.201 126.771 172.524 129.353 168.381 132.308C165.704 134.215 163.167 136.466 162.727 139.964C161.26 151.851 162.433 160.05 166.393 165.029C168.938 168.249 172.707 170.163 177.591 170.698C195.235 172.649 212.52 171.835 227.568 168.344C243.115 164.736 248.101 155.731 249.619 148.801L250.14 146.395C252.465 135.586 254.657 125.378 254.401 114.503C253.799 89.5693 247.383 81.7373 241.853 77.7187C234.307 72.2333 223.637 71.1847 214.199 70.8767L213.4 70.862Z" fill="#231F20"/>
<path d="M213.305 139.392C205.865 139.508 198.532 137.61 192.083 133.899C190.264 132.821 187.683 131.076 186.429 128.421C185.292 126.016 185.761 122.327 186.869 120.142C187.771 118.375 189.362 117.561 190.909 116.783C191.793 116.368 192.631 115.862 193.41 115.273C195.61 113.461 196.248 109.619 196.703 106.81L198.573 95.5093C199.673 88.8507 201.198 82.0527 206.551 78.518C209.829 76.3547 214.156 75.7093 220.169 76.494C225.897 77.2273 230.605 78.694 234.55 81.0187C237.392 82.6377 239.846 84.8592 241.739 87.5271C243.631 90.1951 244.917 93.245 245.506 96.4627C246.379 101.156 247.655 110.264 246.408 118.507C245.873 122.078 244.443 127.116 240.71 130.849C238.253 133.298 234.983 135.102 230.113 136.679C226.536 137.84 222.85 138.638 219.113 139.062C217.185 139.278 215.246 139.389 213.305 139.392ZM215.601 76.9047C212.015 76.9047 209.199 77.638 206.94 79.1047C201.807 82.4707 200.34 89.1 199.284 95.5973L197.414 106.898C196.937 109.831 196.285 113.828 193.857 115.815C193.038 116.437 192.156 116.971 191.225 117.407C189.758 118.14 188.291 118.873 187.507 120.443C186.48 122.474 186.04 125.877 187.081 128.077C188.255 130.548 190.704 132.205 192.442 133.21C199.915 137.61 209.111 139.392 219.055 138.27C222.73 137.857 226.355 137.071 229.871 135.923C234.631 134.383 237.806 132.638 240.138 130.269C243.731 126.676 245.11 121.799 245.631 118.338C246.863 110.198 245.631 101.185 244.729 96.5433C244.161 93.4285 242.917 90.4759 241.085 87.8937C239.253 85.3115 236.877 83.1625 234.125 81.598C230.267 79.354 225.655 77.9313 220.023 77.198C218.556 77.0078 217.079 76.9098 215.601 76.9047Z" fill="#D1D3D4"/>
<path d="M240.307 127.93C240.262 127.94 240.214 127.94 240.168 127.93C235.665 126.067 232.615 126.507 232.578 126.507C232.53 126.515 232.481 126.512 232.434 126.5C232.386 126.489 232.342 126.468 232.303 126.439C232.264 126.41 232.23 126.374 232.205 126.332C232.18 126.29 232.164 126.244 232.156 126.196C232.149 126.148 232.152 126.098 232.163 126.051C232.175 126.004 232.196 125.959 232.225 125.92C232.254 125.881 232.29 125.848 232.332 125.823C232.374 125.798 232.42 125.781 232.468 125.774C232.6 125.774 235.739 125.297 240.447 127.241C240.492 127.258 240.532 127.285 240.567 127.318C240.602 127.352 240.629 127.392 240.648 127.436C240.667 127.481 240.678 127.528 240.678 127.577C240.679 127.625 240.67 127.673 240.652 127.717C240.621 127.782 240.572 127.837 240.511 127.874C240.45 127.912 240.379 127.931 240.307 127.93Z" fill="#D1D3D4"/>
<path d="M186.846 85.1547L164.113 72.688C164.113 72.688 162.8 68.9333 161.392 67.782C159.984 66.6307 160.857 70.7153 160.857 70.7153C160.857 70.7153 153.083 65.7507 152.284 67.0927C151.485 68.4347 150.157 73.9053 152.812 76.0247C155.151 77.88 159.507 78.3493 159.507 78.3493C171.651 88.1393 188.789 98.956 188.789 98.956" fill="white"/>
<path d="M188.79 99.308C188.723 99.3064 188.657 99.2861 188.6 99.2493C188.424 99.1393 171.374 88.3593 159.354 78.716C158.621 78.628 154.8 78.0853 152.586 76.3253C149.806 74.1253 151.038 68.464 151.97 66.9167C152.028 66.8204 152.106 66.7375 152.198 66.6731C152.29 66.6087 152.395 66.5642 152.505 66.5427C153.972 66.1907 158.511 68.8527 160.344 69.9747C160.176 68.9113 160.102 67.6647 160.638 67.3347C160.836 67.2173 161.158 67.1513 161.62 67.5253C162.962 68.6033 164.136 71.7347 164.392 72.4313L187.023 84.898C187.109 84.9447 187.172 85.0234 187.2 85.1169C187.227 85.2105 187.216 85.3111 187.17 85.3967C187.123 85.4822 187.044 85.5458 186.951 85.5733C186.857 85.6008 186.757 85.59 186.671 85.5433L163.938 73.0767C163.897 73.0572 163.862 73.0295 163.833 72.9954C163.804 72.9613 163.782 72.9216 163.769 72.8787C163.769 72.8787 162.5 69.212 161.18 68.1707L161.034 68.068C160.934 68.9579 161.004 69.8586 161.239 70.7227C161.256 70.7936 161.251 70.8681 161.225 70.9362C161.199 71.0043 161.153 71.0628 161.092 71.104C161.031 71.1432 160.96 71.164 160.887 71.164C160.814 71.164 160.743 71.1432 160.682 71.104C158.181 69.5053 153.788 67.0633 152.696 67.3273C152.652 67.3273 152.622 67.3273 152.622 67.3273C151.801 68.6913 150.657 73.8687 153.062 75.7827C155.262 77.5573 159.523 78.034 159.567 78.034C159.637 78.0435 159.702 78.0713 159.758 78.1147C171.748 87.78 188.842 98.5893 189.01 98.692C189.092 98.7447 189.149 98.8269 189.171 98.9213C189.193 99.0157 189.178 99.1149 189.128 99.198C189.085 99.2423 189.031 99.2755 188.973 99.2946C188.914 99.3138 188.851 99.3184 188.79 99.308Z" fill="#231F20"/>
<path d="M181.214 155.767C181.214 155.767 182.864 174.599 182.19 175.817C181.515 177.034 165.36 179.483 165.066 177.76C164.773 176.037 172.972 172.627 172.972 172.627L171.168 157.227" fill="white"/>
<path d="M167.502 178.706C166.972 178.718 166.442 178.683 165.918 178.603C165.441 178.523 164.796 178.354 164.7 177.826C164.4 176.029 170.347 173.36 172.576 172.429L170.802 157.307C170.796 157.259 170.8 157.21 170.813 157.164C170.826 157.117 170.848 157.073 170.878 157.035C170.908 156.997 170.945 156.965 170.987 156.941C171.03 156.918 171.076 156.902 171.124 156.897C171.173 156.891 171.221 156.895 171.268 156.908C171.315 156.921 171.358 156.943 171.397 156.973C171.435 157.003 171.467 157.04 171.49 157.082C171.514 157.125 171.529 157.171 171.535 157.219L173.339 172.619C173.348 172.699 173.331 172.779 173.29 172.848C173.249 172.917 173.186 172.971 173.112 173.001C169.298 174.57 165.272 176.814 165.426 177.701C165.426 177.701 165.639 177.936 167.208 177.98C171.916 178.134 181.266 176.352 181.875 175.626C182.315 174.702 181.479 162.976 180.848 155.826C180.844 155.778 180.849 155.729 180.864 155.683C180.878 155.637 180.902 155.594 180.933 155.557C180.963 155.52 181.001 155.489 181.044 155.467C181.087 155.444 181.134 155.431 181.182 155.426C181.23 155.422 181.279 155.427 181.325 155.442C181.371 155.456 181.414 155.479 181.451 155.51C181.488 155.541 181.519 155.579 181.541 155.622C181.564 155.665 181.577 155.712 181.582 155.76C181.86 158.921 183.21 174.768 182.513 176.015C181.816 177.261 172.026 178.706 167.502 178.706Z" fill="#231F20"/>
<path d="M205.107 160.71C205.107 160.71 207.373 177.349 206.2 177.826C205.026 178.303 189.076 179.058 189.333 177.657C189.59 176.257 197.458 173.587 197.458 173.587L194.613 157.366" fill="white"/>
<path d="M195.64 178.845C192.538 178.845 189.824 178.662 189.194 178.156C189.108 178.093 189.042 178.007 189.002 177.909C188.962 177.811 188.949 177.703 188.966 177.599C189.216 176.132 194.833 174.093 197.033 173.345L194.232 157.425C194.217 157.329 194.24 157.232 194.296 157.154C194.353 157.076 194.437 157.023 194.532 157.007C194.58 156.997 194.628 156.997 194.675 157.007C194.723 157.017 194.767 157.036 194.807 157.063C194.847 157.09 194.881 157.126 194.906 157.166C194.932 157.207 194.95 157.252 194.958 157.3L197.81 173.521C197.825 173.609 197.809 173.7 197.763 173.776C197.717 173.853 197.646 173.911 197.561 173.939C194.019 175.135 190.132 176.873 189.714 177.606C190.154 177.855 192.252 178.171 197.781 178.046C200.528 178.035 203.272 177.847 205.994 177.481C206.5 176.557 205.752 168.3 204.718 160.739C204.706 160.642 204.732 160.544 204.791 160.466C204.85 160.388 204.937 160.336 205.034 160.321C205.081 160.314 205.13 160.317 205.177 160.329C205.224 160.341 205.268 160.362 205.306 160.392C205.344 160.421 205.376 160.458 205.4 160.5C205.424 160.542 205.439 160.589 205.444 160.637C206.5 168.359 207.505 177.657 206.317 178.141C205.628 178.457 200.201 178.845 195.64 178.845Z" fill="#231F20"/>
<path d="M187.537 127.351C187.148 128.685 183.745 163.651 183.745 163.651H170.025C170.025 163.651 163.711 128.539 165.786 119.871C167.209 113.901 173.691 110.983 180.291 112.919C190.111 112.53 200.201 111.276 200.201 111.276L187.537 127.351Z" fill="#231F20"/>
<path d="M183.745 164.017H170.024C169.938 164.018 169.855 163.989 169.789 163.934C169.723 163.878 169.679 163.801 169.665 163.717C169.408 162.25 163.358 128.429 165.426 119.783C165.738 118.475 166.315 117.245 167.121 116.169C167.927 115.094 168.945 114.194 170.112 113.527C171.664 112.689 173.368 112.17 175.124 112.001C176.88 111.832 178.652 112.017 180.335 112.545C190.007 112.163 200.054 110.924 200.135 110.917C200.207 110.906 200.281 110.918 200.347 110.951C200.412 110.984 200.466 111.036 200.501 111.1C200.537 111.163 200.552 111.235 200.545 111.307C200.539 111.379 200.511 111.448 200.465 111.503L187.851 127.512C187.485 129.265 185.021 154.117 184.089 163.687C184.081 163.774 184.041 163.856 183.978 163.916C183.915 163.977 183.832 164.013 183.745 164.017ZM170.332 163.284H183.415C183.781 159.5 186.81 128.546 187.184 127.248C187.199 127.203 187.221 127.161 187.25 127.123L199.365 111.723C196.688 112.031 188.365 112.948 180.298 113.263H180.181C178.585 112.752 176.903 112.568 175.235 112.722C173.567 112.876 171.947 113.364 170.471 114.158C169.386 114.768 168.441 115.598 167.694 116.594C166.948 117.59 166.418 118.731 166.137 119.944C164.209 128.025 169.723 159.867 170.332 163.284Z" fill="#231F20"/>
<path d="M229.893 116.16C229.893 116.16 234.212 123.332 227.539 131.406C220.865 139.48 201.872 130.988 201.872 130.988L206.617 162.58L192.683 162.441C192.683 162.441 178.163 119.431 179.835 114.979C181.507 110.528 193.402 108.475 193.402 108.475L229.893 116.16Z" fill="#231F20"/>
<path d="M206.596 162.947L192.663 162.807C192.586 162.807 192.512 162.782 192.45 162.738C192.389 162.693 192.342 162.63 192.318 162.558C191.724 160.798 177.769 119.372 179.47 114.847C181.171 110.323 192.824 108.203 193.323 108.115C193.369 108.108 193.416 108.108 193.462 108.115L229.967 115.801C230.017 115.812 230.065 115.833 230.107 115.863C230.148 115.894 230.183 115.932 230.209 115.977C230.253 116.05 234.609 123.457 227.819 131.641C225.003 135.051 219.569 136.041 212.118 134.574C208.763 133.876 205.478 132.872 202.306 131.575L206.955 162.521C206.964 162.573 206.961 162.626 206.947 162.677C206.934 162.728 206.909 162.775 206.875 162.815C206.84 162.855 206.797 162.887 206.749 162.91C206.701 162.933 206.649 162.945 206.596 162.947ZM192.927 162.067L206.171 162.206L201.485 131.032C201.475 130.967 201.483 130.9 201.508 130.839C201.532 130.778 201.573 130.725 201.626 130.685C201.678 130.645 201.741 130.621 201.806 130.613C201.872 130.606 201.938 130.616 201.998 130.643C202.189 130.731 220.837 138.93 227.254 131.164C230.613 127.101 231.067 123.295 230.855 120.817C230.737 119.308 230.329 117.836 229.652 116.483L193.381 108.849C192.413 109.025 181.648 111.049 180.181 115.104C178.832 118.631 188.842 149.959 192.927 162.067Z" fill="#231F20"/>
<path d="M184.668 138.292C184.596 138.293 184.525 138.271 184.464 138.231C184.404 138.19 184.358 138.132 184.331 138.065C184.016 137.265 176.638 118.404 178.956 113.674C179.068 113.411 179.236 113.175 179.449 112.984C179.662 112.793 179.914 112.65 180.188 112.567C180.234 112.553 180.282 112.549 180.33 112.554C180.378 112.559 180.424 112.574 180.467 112.597C180.509 112.62 180.546 112.652 180.576 112.689C180.606 112.727 180.629 112.77 180.642 112.816C180.667 112.909 180.656 113.009 180.609 113.094C180.563 113.178 180.485 113.242 180.393 113.271C180.217 113.328 180.057 113.424 179.922 113.55C179.788 113.677 179.683 113.832 179.616 114.004C177.416 118.448 184.932 137.61 185.013 137.801C185.031 137.846 185.039 137.894 185.038 137.943C185.037 137.991 185.026 138.039 185.006 138.083C184.986 138.128 184.958 138.168 184.923 138.201C184.887 138.234 184.846 138.26 184.8 138.277L184.668 138.292Z" fill="white"/>
<path d="M201.85 131.355C201.783 131.356 201.716 131.338 201.659 131.303C201.476 131.193 197.149 128.553 195.924 126.683C195.897 126.644 195.878 126.599 195.869 126.552C195.859 126.504 195.859 126.456 195.868 126.409C195.878 126.361 195.897 126.317 195.924 126.277C195.952 126.237 195.986 126.203 196.027 126.177C196.108 126.124 196.206 126.105 196.301 126.125C196.396 126.144 196.479 126.2 196.533 126.28C197.67 128.018 201.996 130.68 202.04 130.68C202.123 130.732 202.182 130.813 202.205 130.908C202.229 131.002 202.214 131.102 202.165 131.186C202.13 131.238 202.083 131.28 202.028 131.31C201.973 131.339 201.912 131.354 201.85 131.355Z" fill="white"/>
<path d="M229.894 116.16C229.894 116.16 245.213 78.4153 233.898 69.7547C222.582 61.094 206.456 64.9513 204.256 73.0473C202.056 81.1433 193.381 108.475 193.381 108.475C193.381 108.475 221.174 116.761 229.894 116.16Z" fill="#FF6C22"/>
<path d="M213.878 73.8687L211.23 100.511L225.831 71.984L213.878 73.8687Z" fill="#231F20"/>
<path d="M211.2 100.877C211.164 100.884 211.126 100.884 211.09 100.877C211.007 100.855 210.936 100.803 210.888 100.732C210.841 100.66 210.822 100.574 210.833 100.489L213.488 73.8467C213.495 73.7652 213.53 73.6884 213.585 73.6286C213.641 73.5689 213.715 73.5294 213.796 73.5167L225.742 71.6393C225.81 71.6268 225.88 71.634 225.943 71.66C226.007 71.686 226.062 71.7297 226.101 71.786C226.136 71.8437 226.154 71.9096 226.154 71.9767C226.154 72.0438 226.136 72.1096 226.101 72.1673L211.493 100.694C211.463 100.746 211.421 100.79 211.37 100.822C211.319 100.854 211.26 100.873 211.2 100.877ZM214.185 74.184L211.75 98.6187L225.148 72.4607L214.185 74.184Z" fill="#231F20"/>
<path d="M205.26 69.7987L186.135 83.3287L187.88 100.511L208.377 91.85C208.377 91.85 211.772 72.842 205.26 69.7987Z" fill="#FF6C22"/>
<path d="M212.668 70.1873C214.042 69.7252 215.501 69.5675 216.943 69.7253C219.194 70.1213 221.255 71.192 223.543 71.5293C226.065 71.7567 228.603 71.7567 231.126 71.5293C231.859 71.4927 231.126 72.4827 231.742 72.0573C233.81 70.5467 233.707 67.5547 233.7 65.3107C233.763 60.1134 233.114 54.9319 231.771 49.9107C231.038 47.3 228.141 37.7447 223.91 41.844C224.863 40.9127 220.243 38.742 219.583 38.5587C213.584 36.894 208.143 42.1667 206.801 47.652C205.826 51.634 205.752 55.5867 203.868 59.3267C203.032 60.9767 201.946 62.6047 201.873 64.46C201.892 65.5783 202.22 66.6694 202.822 67.612C203.424 68.5546 204.276 69.3115 205.283 69.7987C207.327 70.7377 209.63 70.9473 211.81 70.3927L212.668 70.1873Z" fill="white"/>
<path d="M231.529 72.5267C231.46 72.5253 231.392 72.5078 231.331 72.4753C231.248 72.4193 231.184 72.3399 231.146 72.2473C231.108 72.1546 231.098 72.0528 231.118 71.9547V71.9033L229.967 71.9547C227.811 72.1332 225.644 72.1136 223.492 71.896C222.272 71.6885 221.074 71.3693 219.913 70.9427C218.922 70.5813 217.905 70.297 216.87 70.092C215.551 69.9405 214.215 70.0756 212.954 70.488L212.741 70.5393L211.868 70.752C209.606 71.3165 207.219 71.0941 205.1 70.1213C204.029 69.6067 203.123 68.8034 202.485 67.8019C201.846 66.8004 201.5 65.6404 201.484 64.4527C201.657 62.8848 202.192 61.3786 203.046 60.0527C203.208 59.752 203.369 59.4513 203.523 59.1507C204.784 56.672 205.224 54.1273 205.723 51.436C205.936 50.1673 206.163 48.862 206.456 47.5567C207.325 44.0921 209.512 41.1033 212.55 39.226C213.608 38.5765 214.787 38.1504 216.016 37.9738C217.244 37.7973 218.495 37.874 219.693 38.1993C220.111 38.3167 223.528 39.8127 224.269 41.0667C224.597 40.8 224.982 40.6128 225.394 40.52C225.806 40.4271 226.235 40.431 226.645 40.5313C229.212 41.2207 231.045 45.936 232.138 49.7713C233.497 54.8295 234.151 60.0514 234.081 65.2887V65.5673C234.081 67.7673 234.081 70.7813 231.969 72.336C231.846 72.4439 231.692 72.5106 231.529 72.5267ZM231.155 71.1333C231.249 71.1284 231.343 71.1427 231.431 71.1755C231.52 71.2083 231.6 71.2588 231.668 71.324C231.722 71.3791 231.764 71.4438 231.793 71.5147C233.362 70.1213 233.348 67.5987 233.34 65.5527V65.2813C233.409 60.1088 232.765 54.9514 231.426 49.9547C229.96 44.8213 228.192 41.69 226.454 41.228C226.032 41.1485 225.596 41.1865 225.194 41.3378C224.792 41.4891 224.439 41.7479 224.174 42.086C224.104 42.1541 224.009 42.1915 223.912 42.1902C223.814 42.1888 223.721 42.1487 223.653 42.0787C223.585 42.0086 223.547 41.9145 223.549 41.8168C223.55 41.7192 223.59 41.6261 223.66 41.558C223.792 41.008 220.514 39.1747 219.488 38.8887C218.381 38.5858 217.224 38.5141 216.088 38.6781C214.953 38.8421 213.863 39.2383 212.888 39.842C210.017 41.6169 207.954 44.4432 207.138 47.718C206.823 48.994 206.603 50.292 206.405 51.546C205.958 54.1787 205.488 56.892 204.205 59.4733C204.051 59.774 203.882 60.0747 203.721 60.3827C202.933 61.6096 202.432 62.9982 202.254 64.4453C202.271 65.4945 202.58 66.5182 203.148 67.4007C203.715 68.2832 204.518 68.9894 205.466 69.4393C207.436 70.3355 209.653 70.5346 211.751 70.004L212.602 69.7987L212.814 69.7473C214.174 69.3085 215.612 69.1684 217.031 69.3367C218.102 69.5521 219.156 69.8462 220.184 70.2167C221.303 70.629 222.456 70.9383 223.631 71.1407C225.737 71.3523 227.858 71.3695 229.967 71.192L231.14 71.1333H231.155Z" fill="#231F20"/>
<path d="M209.082 49.786C209.082 49.786 207.08 55.9387 208.275 60.5367C208.575 61.8212 209.242 62.9907 210.195 63.9023C211.148 64.8139 212.347 65.4281 213.643 65.67L213.878 73.8613C213.878 73.8613 213.966 78.056 219.077 77.2567C220.56 77.0254 221.958 76.4189 223.141 75.4947C224.323 74.5706 225.249 73.3596 225.831 71.9767L225.978 56.892C225.978 56.892 220.06 53.7093 220.404 48.29C220.404 48.2973 213.584 51.8467 209.082 49.786Z" fill="white"/>
<path d="M217.853 77.7333C216.793 77.782 215.751 77.446 214.919 76.7873C214.504 76.4151 214.166 75.9643 213.926 75.4608C213.685 74.9573 213.547 74.4112 213.519 73.854L213.284 66C211.983 65.6918 210.792 65.0291 209.845 64.0854C208.897 63.1417 208.23 61.954 207.916 60.654C206.713 56.0047 208.649 49.9473 208.737 49.654C208.753 49.6056 208.779 49.561 208.813 49.5231C208.847 49.4853 208.889 49.4549 208.935 49.434C208.983 49.414 209.034 49.4038 209.086 49.4038C209.137 49.4038 209.188 49.414 209.236 49.434C213.526 51.3993 220.17 47.9673 220.236 47.9673C220.293 47.9352 220.358 47.9183 220.423 47.9183C220.489 47.9183 220.553 47.9352 220.61 47.9673C220.664 48.0033 220.707 48.0527 220.735 48.1107C220.763 48.1686 220.776 48.233 220.771 48.2973C220.441 53.4307 226.095 56.5253 226.147 56.5547C226.206 56.5854 226.256 56.6316 226.291 56.6885C226.325 56.7453 226.344 56.8106 226.345 56.8773L226.198 71.9693C226.205 72.0081 226.205 72.0479 226.198 72.0867C225.6 73.5353 224.638 74.8046 223.404 75.7709C222.17 76.7373 220.708 77.3679 219.158 77.6013C218.727 77.6811 218.291 77.7252 217.853 77.7333ZM209.317 50.2847C208.913 51.6853 207.645 56.65 208.627 60.4413C208.901 61.6594 209.527 62.7702 210.426 63.6359C211.326 64.5015 212.46 65.0839 213.687 65.3107C213.774 65.3211 213.855 65.3624 213.914 65.4269C213.973 65.4915 214.007 65.5751 214.01 65.6627L214.245 73.854C214.302 74.7647 214.713 75.6171 215.389 76.23C216.217 76.9633 217.442 77.1467 219.055 76.9047C220.461 76.6794 221.788 76.1039 222.913 75.2312C224.039 74.3584 224.926 73.2165 225.494 71.9107L225.633 57.112C224.621 56.518 220.133 53.614 220.053 48.884C218.344 49.6687 213.196 51.766 209.317 50.2847Z" fill="#231F20"/>
<path d="M223.104 55.924C223.104 55.924 225.472 50.16 228.428 53.6653C231.383 57.1707 227.342 61.2187 224.805 60.9547" fill="white"/>
<path d="M225.046 61.336H224.768C224.719 61.3314 224.673 61.3173 224.63 61.2945C224.587 61.2717 224.549 61.2407 224.519 61.2032C224.488 61.1656 224.465 61.1224 224.451 61.076C224.437 61.0296 224.433 60.9809 224.438 60.9327C224.442 60.8844 224.456 60.8376 224.479 60.7948C224.502 60.752 224.533 60.7142 224.57 60.6835C224.608 60.6528 224.651 60.6299 224.698 60.616C224.744 60.6021 224.793 60.5976 224.841 60.6027C226.117 60.7347 227.833 59.6127 228.632 58.0947C229.006 57.4367 229.16 56.6771 229.073 55.9256C228.986 55.1741 228.662 54.4698 228.148 53.9147C227.947 53.6005 227.668 53.3444 227.337 53.172C227.006 52.9996 226.636 52.9168 226.264 52.932C224.929 53.1373 223.778 55.2713 223.448 56.078C223.411 56.1684 223.339 56.2405 223.249 56.2783C223.159 56.3161 223.058 56.3166 222.967 56.2797C222.877 56.2427 222.805 56.1713 222.767 56.0813C222.729 55.9912 222.729 55.8898 222.766 55.7993C222.824 55.66 224.137 52.5213 226.154 52.206C227.041 52.0667 227.899 52.4847 228.713 53.4453C229.318 54.114 229.698 54.955 229.8 55.8506C229.903 56.7461 229.723 57.6513 229.285 58.4393C228.39 60.1333 226.601 61.336 225.046 61.336Z" fill="#231F20"/>
<path d="M212.403 60.7127C212.006 60.7242 211.61 60.6491 211.245 60.4927C211.156 60.45 211.078 60.3874 211.017 60.3099C210.956 60.2323 210.913 60.1418 210.893 60.0453C210.621 58.9967 212.594 56.1073 213.21 55.242C213.237 55.2026 213.272 55.169 213.312 55.1431C213.352 55.1173 213.397 55.0998 213.445 55.0916C213.492 55.0834 213.54 55.0847 213.587 55.0954C213.633 55.1061 213.677 55.126 213.716 55.154C213.756 55.1818 213.789 55.2171 213.815 55.2581C213.841 55.299 213.859 55.3446 213.867 55.3923C213.875 55.44 213.874 55.4889 213.863 55.5361C213.852 55.5833 213.832 55.6279 213.804 55.6673C212.484 57.53 211.45 59.4953 211.604 59.8693C212.371 60.0334 213.168 59.9929 213.914 59.752C213.962 59.738 214.013 59.7337 214.062 59.7392C214.112 59.7447 214.16 59.76 214.204 59.7842C214.248 59.8084 214.287 59.841 214.318 59.8801C214.35 59.9192 214.373 59.9642 214.387 60.0123C214.401 60.0605 214.405 60.1109 214.4 60.1607C214.394 60.2106 214.379 60.2588 214.355 60.3027C214.331 60.3467 214.298 60.3854 214.259 60.4167C214.22 60.448 214.175 60.4714 214.127 60.4853C213.565 60.6403 212.986 60.7168 212.403 60.7127Z" fill="#231F20"/>
<path d="M213.643 65.6773C213.643 65.6773 218.043 66.1027 220.529 65.384C220.529 65.384 217.969 71.918 213.811 71.984L213.643 65.6773Z" fill="#231F20"/>
<path d="M213.811 72.3727C213.715 72.3727 213.623 72.3351 213.554 72.2679C213.486 72.2007 213.446 72.1093 213.444 72.0133L213.276 65.6847C213.274 65.6326 213.284 65.581 213.304 65.533C213.324 65.4851 213.355 65.442 213.393 65.4066C213.431 65.3712 213.476 65.3444 213.525 65.3278C213.575 65.3113 213.627 65.3054 213.679 65.3107C213.723 65.3107 218.028 65.7213 220.426 65.032C220.491 65.0115 220.561 65.0103 220.628 65.0285C220.694 65.0467 220.754 65.0836 220.8 65.1347C220.846 65.185 220.878 65.2474 220.891 65.3148C220.904 65.3822 220.898 65.4519 220.873 65.516C220.763 65.7947 218.174 72.2773 213.818 72.3727H213.811ZM214.016 66.0733L214.163 71.61C217.096 71.258 219.164 67.4667 219.898 65.912C217.95 66.1899 215.976 66.244 214.016 66.0733Z" fill="#231F20"/>
<path d="M216.995 54.5248C217.011 53.9013 216.735 53.3885 216.378 53.3794C216.022 53.3704 215.72 53.8684 215.705 54.4919C215.689 55.1154 215.965 55.6283 216.321 55.6374C216.677 55.6464 216.979 55.1483 216.995 54.5248Z" fill="#231F20"/>
<path d="M211.059 54.3796C211.075 53.7561 210.799 53.2433 210.443 53.2342C210.087 53.2252 209.785 53.7232 209.769 54.3468C209.753 54.9703 210.029 55.4831 210.385 55.4922C210.742 55.5012 211.043 55.0031 211.059 54.3796Z" fill="#231F20"/>
<path d="M233.618 62.3333C233.933 67.1513 234.351 76.01 226.695 73.8247C225.109 73.3496 223.764 72.2874 222.933 70.8547C221.467 68.2293 225.412 64.4307 227.282 62.722" fill="white"/>
<path d="M228.874 74.536C228.101 74.5248 227.333 74.4063 226.593 74.184C224.897 73.6943 223.458 72.5633 222.582 71.0307C221.064 68.3613 224.379 64.856 226.982 62.4507C227.052 62.383 227.145 62.3452 227.242 62.3452C227.339 62.3452 227.433 62.383 227.503 62.4507C227.537 62.4848 227.564 62.5253 227.583 62.57C227.601 62.6147 227.611 62.6626 227.611 62.711C227.611 62.7594 227.601 62.8073 227.583 62.852C227.564 62.8967 227.537 62.9373 227.503 62.9713C226.095 64.262 221.819 68.178 223.227 70.6493C224.011 72.0139 225.294 73.0209 226.806 73.458C228.727 74.008 230.238 73.854 231.294 73.0033C233.824 70.9573 233.443 65.142 233.259 62.348C233.256 62.2998 233.262 62.2515 233.277 62.2057C233.293 62.16 233.317 62.1176 233.348 62.0812C233.38 62.0448 233.419 62.0149 233.462 61.9934C233.505 61.9719 233.552 61.959 233.6 61.9557C233.648 61.9523 233.697 61.9584 233.743 61.9738C233.788 61.9891 233.831 62.0132 233.867 62.0449C233.903 62.0766 233.933 62.1151 233.955 62.1583C233.976 62.2015 233.989 62.2485 233.993 62.2967C234.198 65.4427 234.587 71.2873 231.749 73.5753C230.934 74.2259 229.916 74.5663 228.874 74.536Z" fill="#231F20"/>
<path d="M216.935 62.3847C216.935 62.7733 216.282 63.118 215.468 63.118C214.654 63.118 214.984 62.7953 214.984 62.3847C214.984 61.974 214.661 61.6513 215.468 61.6513C216.275 61.6513 216.935 61.996 216.935 62.3847Z" fill="#231F20"/>
<path d="M235.232 71.7347C235.232 71.7347 228.463 77.3887 228.434 82.17C228.404 86.9513 233.567 109.303 233.567 109.303L247.669 101.442C247.669 101.442 242.169 73.6707 235.232 71.7347Z" fill="#FF6C22"/>
<path d="M194.151 106.407H194.048C194.002 106.392 193.959 106.369 193.922 106.338C193.884 106.307 193.853 106.269 193.831 106.226C193.808 106.183 193.795 106.136 193.79 106.088C193.786 106.04 193.792 105.991 193.806 105.945L203.912 72.9447C203.921 72.8938 203.941 72.8454 203.97 72.8028C204 72.7601 204.038 72.7242 204.082 72.6973C204.126 72.6703 204.175 72.6531 204.227 72.6466C204.278 72.6401 204.33 72.6446 204.38 72.6597C204.429 72.6748 204.475 72.7002 204.514 72.7343C204.553 72.7683 204.584 72.8102 204.606 72.8572C204.627 72.9042 204.639 72.9552 204.639 73.007C204.64 73.0587 204.629 73.1099 204.608 73.1573L194.503 106.157C194.478 106.231 194.431 106.294 194.368 106.339C194.304 106.384 194.229 106.408 194.151 106.407Z" fill="#231F20"/>
<path d="M233.706 108.145C233.623 108.146 233.541 108.119 233.475 108.067C233.409 108.014 233.364 107.941 233.347 107.859C227.634 82.3753 227.986 82.0747 228.214 81.8913C228.284 81.8237 228.377 81.7858 228.474 81.7858C228.571 81.7858 228.665 81.8237 228.734 81.8913C228.777 81.9398 228.805 81.9988 228.816 82.062C228.828 82.1252 228.823 82.1903 228.8 82.2507C228.8 83.446 231.932 98.054 234.088 107.661C234.099 107.708 234.1 107.757 234.092 107.804C234.084 107.852 234.066 107.898 234.04 107.939C234.014 107.98 233.98 108.015 233.941 108.043C233.901 108.071 233.856 108.09 233.809 108.101L233.706 108.145Z" fill="#231F20"/>
<path d="M214.023 107.778L187.733 117.685L176.059 109.303L199.041 102.366L214.023 107.778Z" fill="white"/>
<path d="M187.733 118.067C187.655 118.067 187.578 118.044 187.513 118.001L175.846 109.611C175.789 109.572 175.744 109.517 175.717 109.454C175.69 109.39 175.681 109.32 175.692 109.252C175.705 109.186 175.736 109.124 175.781 109.073C175.826 109.023 175.884 108.986 175.949 108.966L198.931 102.036C199.008 102.014 199.089 102.014 199.166 102.036L214.133 107.433C214.203 107.461 214.262 107.509 214.305 107.57C214.348 107.631 214.372 107.703 214.375 107.778C214.375 107.853 214.352 107.927 214.309 107.989C214.265 108.05 214.204 108.097 214.133 108.123L187.858 118.067C187.817 118.074 187.775 118.074 187.733 118.067ZM176.873 109.45L187.785 117.289L212.96 107.8L199.027 102.769L176.873 109.45Z" fill="#231F20"/>
<path d="M246.027 102.373C246.027 102.373 248.96 117.209 240.974 118.624C232.988 120.039 206.507 114.855 206.507 114.855C206.507 114.855 197.311 116.475 197.898 114.121C198.485 111.767 204.227 110.726 204.227 110.726C204.227 110.726 199.489 108.431 201.821 108.438C204.303 108.585 206.775 108.862 209.228 109.267L233.721 106.003" fill="white"/>
<path d="M237.352 119.24C227.32 119.24 208.099 115.573 206.552 115.229C205.166 115.471 199.101 116.431 197.825 115.053C197.703 114.924 197.618 114.765 197.577 114.593C197.535 114.42 197.54 114.24 197.591 114.07C198.082 112.156 201.441 111.071 203.193 110.631C200.7 109.311 200.817 108.79 200.869 108.585C200.979 108.108 201.602 108.108 201.866 108.108C204.35 108.252 206.825 108.526 209.28 108.929L233.722 105.673C233.819 105.661 233.917 105.687 233.995 105.747C234.073 105.807 234.124 105.895 234.136 105.992C234.149 106.09 234.122 106.188 234.063 106.266C234.003 106.343 233.914 106.394 233.817 106.407L209.324 109.663C209.288 109.67 209.25 109.67 209.214 109.663C206.785 109.264 204.337 108.99 201.881 108.841H201.771C202.607 109.464 203.507 109.997 204.455 110.433C204.523 110.468 204.578 110.523 204.614 110.591C204.649 110.659 204.663 110.736 204.654 110.812C204.644 110.888 204.611 110.959 204.56 111.016C204.509 111.072 204.441 111.112 204.367 111.129C202.834 111.415 198.757 112.545 198.324 114.253C198.302 114.304 198.296 114.359 198.307 114.413C198.317 114.466 198.344 114.516 198.383 114.554C199.175 115.412 203.787 114.972 206.508 114.495H206.647C206.911 114.547 233.143 119.629 240.945 118.265C241.646 118.145 242.315 117.884 242.912 117.497C243.508 117.11 244.02 116.605 244.414 116.013C247.406 111.665 245.778 102.813 245.705 102.447C245.695 102.393 245.697 102.337 245.711 102.284C245.725 102.231 245.75 102.181 245.785 102.139C245.829 102.084 245.887 102.043 245.954 102.02C246.02 101.998 246.092 101.996 246.159 102.014C246.226 102.03 246.287 102.066 246.334 102.117C246.381 102.168 246.412 102.232 246.423 102.3L246.064 102.373L246.431 102.307C246.614 103.275 248.132 111.914 245.015 116.431C244.567 117.104 243.986 117.678 243.307 118.117C242.629 118.556 241.867 118.851 241.07 118.983C239.84 119.175 238.596 119.261 237.352 119.24Z" fill="#231F20"/>
<path d="M144.027 165.616C144.788 166.348 145.761 166.82 146.807 166.965C148.031 166.965 161.312 164.516 161.862 166.335C162.412 168.153 161.327 169.063 158.151 170.559C153.898 172.561 139.62 177.261 139.62 177.261L136.496 169.928L144.027 165.616Z" fill="white"/>
<path d="M139.619 177.599C139.553 177.6 139.488 177.581 139.433 177.545C139.378 177.508 139.335 177.455 139.311 177.393L136.187 170.06C136.155 169.985 136.151 169.901 136.177 169.824C136.203 169.747 136.256 169.682 136.327 169.642L143.858 165.33C143.925 165.292 144.003 165.277 144.079 165.289C144.155 165.301 144.224 165.339 144.276 165.396C144.973 166.062 145.86 166.495 146.813 166.635C147.709 166.575 148.6 166.464 149.483 166.305C157.395 165.198 161.759 164.839 162.184 166.239C162.815 168.329 161.495 169.356 158.29 170.867C154.073 172.861 139.869 177.54 139.722 177.591L139.619 177.599ZM136.921 170.067L139.81 176.851C141.863 176.169 154.154 172.069 158.004 170.251C161.267 168.711 161.993 167.926 161.539 166.423C161.209 165.33 152.453 166.555 149.578 166.958C147.965 167.185 147.107 167.281 146.799 167.295C145.75 167.165 144.766 166.721 143.975 166.019L136.921 170.067Z" fill="#231F20"/>
<path d="M102.748 173.485C102.748 173.485 116.982 178.376 117.591 179.307C118.2 180.239 117.122 181.331 113.33 181.669C109.539 182.006 93.3177 181.126 93.3177 181.126C93.3177 181.126 93.1124 176.726 94.1317 174.526C95.151 172.326 102.748 173.485 102.748 173.485Z" fill="white"/>
<path d="M110.625 182.079C104.817 182.079 93.8533 181.493 93.3033 181.463C93.2194 181.458 93.1403 181.422 93.0809 181.363C93.0215 181.304 92.9858 181.225 92.9806 181.141C92.9806 180.957 92.79 176.638 93.824 174.365C94.9166 171.967 101.993 173.03 102.8 173.155H102.851C106.217 174.313 117.247 178.156 117.87 179.117C117.989 179.283 118.062 179.478 118.08 179.682C118.098 179.886 118.061 180.091 117.973 180.275C117.54 181.163 115.941 181.742 113.36 181.984C112.737 182.057 111.783 182.079 110.625 182.079ZM93.6406 180.811C95.8993 180.928 109.869 181.639 113.301 181.331C116.616 181.038 117.254 180.239 117.364 179.997C117.405 179.916 117.422 179.826 117.413 179.736C117.404 179.646 117.369 179.561 117.313 179.491C116.748 178.831 108.043 175.663 102.646 173.815C99.8006 173.36 95.0706 173.191 94.4106 174.643C93.6186 176.44 93.6186 179.791 93.6406 180.811Z" fill="#231F20"/>
<path d="M65.8318 127.116C65.8318 127.116 54.2158 98.0833 55.4332 83.7613C56.6505 69.4393 66.0005 68.5667 69.2785 68.3613C72.5565 68.156 89.7678 65.8607 96.0525 73.568C102.337 81.2753 100.724 118.397 100.724 118.397L65.8318 127.116Z" fill="#FF6C22"/>
<path d="M86.3354 74.976L86.1228 104.067L73.7734 73.0253L86.3354 74.976Z" fill="#231F20"/>
<path d="M86.1224 104.434C86.049 104.434 85.9772 104.413 85.9159 104.372C85.8546 104.332 85.8065 104.274 85.7778 104.207L73.4284 73.1573C73.4068 73.0962 73.4009 73.0306 73.4111 72.9665C73.4214 72.9025 73.4475 72.842 73.4871 72.7907C73.5272 72.7395 73.5805 72.7003 73.6412 72.677C73.7019 72.6538 73.7677 72.6474 73.8318 72.6587L86.3938 74.6167C86.4806 74.6289 86.5602 74.6719 86.618 74.7379C86.6759 74.8038 86.7082 74.8883 86.7091 74.976L86.4891 104.075C86.4871 104.159 86.4561 104.24 86.4013 104.304C86.3466 104.368 86.2714 104.412 86.1884 104.427L86.1224 104.434ZM74.3891 73.48L85.7998 102.19L85.9977 75.2913L74.3891 73.48Z" fill="#231F20"/>
<path d="M101.436 111.041C101.436 111.041 115.633 114.84 128.327 123.464C134.15 127.417 145.025 166.195 145.025 166.195C145.025 166.195 143.808 172.913 136.049 171.864L102.14 127.93C102.14 127.93 94.8652 110.873 101.436 111.041Z" fill="#231F20"/>
<path d="M137.633 172.333C137.085 172.332 136.539 172.293 135.997 172.216C135.902 172.201 135.816 172.151 135.755 172.077L101.853 128.143C101.832 128.119 101.815 128.091 101.802 128.062C101.589 127.556 96.4999 115.529 99.0299 111.804C99.2949 111.417 99.6581 111.108 100.082 110.909C100.506 110.709 100.976 110.626 101.443 110.667H101.531C101.67 110.704 115.933 114.583 128.532 123.134C134.399 127.123 144.929 164.487 145.399 166.078C145.409 166.131 145.409 166.186 145.399 166.239C145.022 168.003 144.038 169.579 142.619 170.693C141.2 171.806 139.436 172.387 137.633 172.333ZM136.247 171.512C143.059 172.355 144.482 166.965 144.643 166.203C144.071 164.171 133.643 127.505 128.121 123.757C115.963 115.5 102.249 111.635 101.384 111.401H101.34C101.01 111.376 100.679 111.439 100.381 111.582C100.083 111.724 99.8267 111.943 99.6385 112.215C97.4019 115.515 102.125 126.94 102.462 127.732L136.247 171.512Z" fill="#231F20"/>
<path d="M65.8324 127.116C65.8324 127.116 92.7311 116.175 99.6244 115.163C99.6244 115.163 109.488 118.829 114.555 128.172C119.622 137.515 102.748 173.485 102.748 173.485C99.9719 175.127 96.6939 175.705 93.5231 175.113L93.3031 137.463C93.3031 137.463 60.8091 140.683 65.8324 127.116Z" fill="#231F20"/>
<path d="M95.9798 175.714C95.1307 175.713 94.2836 175.632 93.4498 175.472C93.367 175.455 93.2925 175.41 93.2391 175.345C93.1856 175.279 93.1564 175.197 93.1564 175.113L92.9365 137.867C89.8418 138.138 70.9731 139.502 66.0964 133.181C64.7911 131.501 64.6298 129.419 65.4878 126.991C65.5054 126.944 65.5327 126.9 65.5681 126.863C65.6034 126.827 65.646 126.798 65.6931 126.779C66.7931 126.331 92.7091 115.779 99.5731 114.796C99.6334 114.782 99.6962 114.782 99.7564 114.796C99.8518 114.833 109.803 118.631 114.878 127.996C119.952 137.361 103.768 172.165 103.078 173.639C103.051 173.702 103.005 173.756 102.946 173.793C100.843 175.056 98.4337 175.72 95.9798 175.714ZM93.8678 174.805C96.8207 175.274 99.8454 174.721 102.44 173.235C103.401 171.153 119.014 137.17 114.21 128.348C109.517 119.709 100.541 115.925 99.5438 115.537C92.8925 116.578 68.2598 126.537 66.0891 127.395C65.3558 129.507 65.5318 131.296 66.6391 132.733C71.5964 139.157 93.0391 137.133 93.2298 137.133C93.2798 137.129 93.3302 137.134 93.3781 137.149C93.4259 137.164 93.4703 137.189 93.5084 137.221C93.5471 137.255 93.5782 137.297 93.5997 137.344C93.6211 137.39 93.6325 137.441 93.6331 137.493L93.8678 174.805Z" fill="#231F20"/>
<path d="M113.946 143.667H113.88C113.784 143.649 113.699 143.595 113.643 143.516C113.587 143.436 113.564 143.338 113.579 143.242C114.525 137.859 115.5 129.367 114.312 128.033C110.404 123.721 100.694 116.534 100.599 116.461C100.522 116.404 100.471 116.319 100.456 116.224C100.441 116.13 100.463 116.033 100.518 115.955C100.577 115.877 100.663 115.826 100.759 115.811C100.855 115.796 100.952 115.818 101.032 115.874C101.127 115.947 110.895 123.207 114.855 127.541C116.696 129.565 114.576 141.966 114.327 143.374C114.311 143.461 114.263 143.54 114.193 143.594C114.122 143.648 114.034 143.674 113.946 143.667Z" fill="white"/>
<path d="M96.0664 73.568C96.0664 73.568 100.723 82.5147 103.466 87.1127C106.208 91.7107 112.163 98.3033 112.163 98.3033C112.163 98.3033 133.254 105.805 133.393 106.209C133.532 106.612 131.391 113.703 131.391 113.703C131.391 113.703 109.266 112.112 105.6 110.381C101.933 108.651 94.5117 100.115 94.5117 100.115L96.0664 73.568Z" fill="#FF6C22"/>
<path d="M81.5547 78.188L80 80.6373L81.7013 81.6493L81.87 93.3827L86.1233 104.067L86.336 94.182L82.794 81.312L83.85 80.0727L81.5547 78.188Z" fill="white"/>
<path d="M86.1235 104.434C86.0501 104.434 85.9782 104.413 85.9169 104.372C85.8557 104.332 85.8076 104.274 85.7788 104.207L81.5328 93.522C81.5294 93.4781 81.5294 93.4339 81.5328 93.39L81.3715 81.8547L79.8388 80.9527C79.755 80.8985 79.6948 80.8147 79.6702 80.718C79.6585 80.6706 79.657 80.6212 79.6659 80.5731C79.6747 80.5251 79.6937 80.4795 79.7215 80.4393L81.2762 77.99C81.3038 77.9461 81.3402 77.9085 81.3831 77.8795C81.426 77.8504 81.4745 77.8306 81.5255 77.8213C81.5773 77.8139 81.6301 77.8173 81.6805 77.8311C81.731 77.845 81.7781 77.8691 81.8188 77.902L84.1142 79.7867C84.1515 79.8177 84.1824 79.8559 84.2049 79.8991C84.2274 79.9422 84.2411 79.9893 84.2452 80.0378C84.2493 80.0862 84.2437 80.135 84.2287 80.1813C84.2138 80.2276 84.1898 80.2704 84.1582 80.3073L83.2048 81.4L86.6955 94.0867C86.6991 94.1232 86.6991 94.1601 86.6955 94.1967L86.4755 104.075C86.4735 104.159 86.4425 104.24 86.3877 104.304C86.333 104.368 86.2578 104.411 86.1748 104.427L86.1235 104.434ZM82.2368 93.3167L85.8008 102.256L85.9768 94.2333L82.4422 81.4C82.4281 81.3419 82.4274 81.2813 82.4401 81.2229C82.4528 81.1645 82.4786 81.1097 82.5155 81.0627L83.3295 80.1093L81.6428 78.7233L80.5135 80.5053L81.8922 81.3267C81.9456 81.3584 81.99 81.4034 82.0208 81.4574C82.0517 81.5114 82.068 81.5725 82.0682 81.6347L82.2368 93.3167Z" fill="#231F20"/>
<path d="M73.0035 44.9313C73.4265 44.77 73.8671 44.6592 74.3162 44.6013C76.1055 44.396 76.1348 44.7847 77.5135 43.626C79.6167 41.9713 82.1755 40.999 84.8468 40.8393C89.9802 40.502 93.7128 43.076 92.5395 48.708C91.9753 50.9387 90.9512 53.0269 89.5328 54.8387C86.5995 58.8573 82.5442 62.4947 77.6015 62.9053C76.1348 63.0153 73.3848 62.9053 72.3215 61.71C70.8108 59.997 69.7664 57.9241 69.2886 55.6907C68.8108 53.4572 68.9158 51.1384 69.5935 48.9573C69.864 48.0233 70.315 47.1513 70.9208 46.3907C71.4835 45.7393 72.1992 45.2379 73.0035 44.9313Z" fill="white"/>
<path d="M76.7009 63.2647C75.3955 63.2647 73.0855 63.0887 72.0295 61.9153C70.4806 60.1591 69.4105 58.0332 68.9223 55.7429C68.4342 53.4526 68.5446 51.0752 69.2429 48.84C69.5275 47.8615 70.0036 46.9492 70.6435 46.156C71.5788 45.076 72.8895 44.3919 74.3102 44.242C74.6802 44.1961 75.0522 44.1692 75.4249 44.1613C76.1582 44.1613 76.3855 44.1613 77.3095 43.3473C79.4594 41.6343 82.0888 40.6322 84.8335 40.48C87.8622 40.282 90.3189 41.074 91.7489 42.68C93.0249 44.1467 93.4282 46.244 92.9075 48.7447C92.3462 51.0299 91.3009 53.1681 89.8422 55.0147C87.3122 58.52 83.1469 62.788 77.6395 63.1987C77.5002 63.2427 77.1629 63.2647 76.7009 63.2647ZM85.7062 41.1767C85.4275 41.1767 85.1415 41.1767 84.8482 41.1767C82.2538 41.3425 79.772 42.2969 77.7349 43.912C77.4405 44.2329 77.0806 44.4868 76.6795 44.6563C76.2784 44.8259 75.8455 44.9072 75.4102 44.8947C75.1389 44.8947 74.8015 44.8947 74.3469 44.968C73.9274 45.0193 73.516 45.1228 73.1222 45.276C72.3771 45.5583 71.7142 46.0221 71.1935 46.6253C70.6161 47.3492 70.1851 48.1787 69.9249 49.0673C69.2709 51.1845 69.1736 53.4345 69.6424 55.6002C70.1113 57.7659 71.1304 59.7742 72.6015 61.4313C73.4375 62.3627 75.7695 62.6487 77.5809 62.502C82.8022 62.1133 86.8062 57.9993 89.2409 54.626C90.6346 52.8608 91.6347 50.8181 92.1742 48.6347C92.6435 46.3613 92.2989 44.484 91.1769 43.1933C90.0549 41.9027 88.1042 41.1767 85.7062 41.1767Z" fill="#231F20"/>
<path d="M86.3428 67.232V74.976C86.3428 74.976 84.5241 79.2367 79.4568 77.9533C74.3894 76.67 73.7734 73.018 73.7734 73.018L74.0008 58.6667C74.0008 58.6667 77.7921 56.7013 76.7801 48.51C80.9211 50.3482 85.4808 51.0372 89.9801 50.5047C89.9801 50.5047 91.5348 59.4587 90.9921 63.404C90.4421 67.2467 86.4088 67.1807 86.3428 67.232Z" fill="white"/>
<path d="M81.2827 78.562C80.6365 78.5562 79.9936 78.47 79.3687 78.3053C74.1327 76.9707 73.4361 73.238 73.4141 73.084L73.6341 58.6813C73.6361 58.615 73.6555 58.5503 73.6902 58.4937C73.7249 58.4371 73.7738 58.3906 73.8321 58.3587C73.8321 58.3587 77.3814 56.3713 76.4207 48.576C76.4101 48.5098 76.419 48.4419 76.4463 48.3807C76.4737 48.3195 76.5183 48.2676 76.5747 48.2313C76.6311 48.197 76.6958 48.1788 76.7617 48.1788C76.8277 48.1788 76.8924 48.197 76.9487 48.2313C81.0223 50.0245 85.5 50.7003 89.9214 50.1893C90.014 50.1803 90.1066 50.2061 90.1812 50.2617C90.2557 50.3173 90.3069 50.3987 90.3247 50.49C90.3834 50.8567 91.8794 59.5467 91.3294 63.5067C91.0141 65.846 89.3714 67.2907 86.7094 67.5913V75.0053C86.7171 75.0515 86.7171 75.0985 86.7094 75.1447C86.2146 76.1645 85.4439 77.0253 84.4847 77.6293C83.5255 78.2333 82.4162 78.5564 81.2827 78.562ZM74.3674 58.894L74.1401 73.0253C74.1401 73.0987 74.7927 76.384 79.5521 77.594C83.9521 78.7233 85.7267 75.394 85.9761 74.8953V67.232C85.9754 67.1775 85.987 67.1236 86.0098 67.0741C86.0326 67.0246 86.0662 66.9809 86.1081 66.946C86.2073 66.8788 86.3256 66.8453 86.4454 66.8507C88.8874 66.6307 90.3247 65.428 90.6034 63.3747C91.0727 59.9647 89.9287 52.5947 89.6574 50.908C85.4178 51.3506 81.1347 50.7359 77.1907 49.1187C77.8874 56.0047 75.1447 58.366 74.3674 58.894Z" fill="#231F20"/>
<path d="M77.0011 58.476C76.8366 57.7749 76.4478 57.1466 75.8937 56.6867C75.3612 56.2826 74.7635 55.9726 74.1264 55.77C73.7891 55.6232 73.4234 55.553 73.0558 55.5647C72.7969 55.6015 72.5478 55.6887 72.3224 55.8213C71.7705 56.0819 71.3307 56.5322 71.0831 57.09C70.9338 57.5642 70.9036 58.068 70.9951 58.5567C71.0527 59.0864 71.1784 59.6064 71.3691 60.104C71.5684 60.6 71.8646 61.0513 72.2404 61.4314C72.6163 61.8116 73.0642 62.1129 73.5579 62.3178C74.0517 62.5226 74.5813 62.627 75.1159 62.6246C75.6505 62.6222 76.1792 62.5132 76.6711 62.304" fill="white"/>
<path d="M75.0793 62.942C74.211 62.9403 73.3627 62.6818 72.641 62.199C71.9194 61.7161 71.3568 61.0306 71.0239 60.2287C70.8159 59.7023 70.6826 59.1494 70.6279 58.586C70.5278 58.0431 70.5631 57.484 70.7306 56.958C71.0101 56.3169 71.5094 55.7967 72.1386 55.4913C72.4014 55.3344 72.6933 55.2321 72.9966 55.1907C73.4216 55.1721 73.8452 55.2498 74.2359 55.418C74.9122 55.6351 75.5469 55.9648 76.1133 56.3933C76.7251 56.9064 77.1546 57.6035 77.3379 58.3807C77.3499 58.4274 77.3523 58.4761 77.345 58.5238C77.3378 58.5715 77.321 58.6172 77.2956 58.6583C77.2703 58.6993 77.237 58.7349 77.1976 58.7628C77.1583 58.7907 77.1137 58.8104 77.0666 58.8207C76.9723 58.8427 76.8731 58.8266 76.7907 58.7757C76.7082 58.7249 76.6492 58.6435 76.6266 58.5493C76.478 57.9273 76.1335 57.3695 75.6439 56.958C75.1407 56.5831 74.5779 56.2955 73.9793 56.1073C73.6964 55.9779 73.3883 55.9128 73.0773 55.9167C72.8693 55.9513 72.6701 56.026 72.4906 56.1367C72.0203 56.3575 71.6399 56.7328 71.4126 57.2C71.2971 57.6155 71.277 58.0517 71.3539 58.476C71.401 58.9791 71.5195 59.473 71.7059 59.9427C71.8911 60.389 72.1626 60.7944 72.5049 61.1354C72.8472 61.4765 73.2536 61.7465 73.7006 61.93C74.606 62.2965 75.6185 62.2965 76.5239 61.93C76.5675 61.9097 76.6148 61.8985 76.6629 61.8971C76.711 61.8958 76.7589 61.9043 76.8035 61.9221C76.8482 61.94 76.8887 61.9668 76.9226 62.001C76.9565 62.0351 76.9831 62.0759 77.0006 62.1207C77.02 62.1649 77.0305 62.2126 77.0314 62.261C77.0323 62.3093 77.0237 62.3574 77.006 62.4023C76.9882 62.4473 76.9618 62.4884 76.9282 62.5231C76.8945 62.5578 76.8543 62.5855 76.8099 62.6047C76.2617 62.8327 75.673 62.9475 75.0793 62.942Z" fill="#231F20"/>
<path d="M86.0418 55.6747C86.0418 55.6747 88.7992 59.5907 88.1832 60.2947C87.5672 60.9987 85.7852 60.5807 85.7852 60.5807" fill="white"/>
<path d="M86.8709 61.072C86.4787 61.0688 86.0879 61.0245 85.7049 60.94C85.6568 60.9294 85.6112 60.9094 85.5707 60.8812C85.5303 60.853 85.4958 60.8171 85.4693 60.7756C85.4427 60.734 85.4246 60.6877 85.416 60.6391C85.4073 60.5906 85.4083 60.5408 85.4189 60.4927C85.4295 60.4445 85.4495 60.3989 85.4777 60.3585C85.5059 60.318 85.5418 60.2836 85.5834 60.257C85.6249 60.2304 85.6713 60.2123 85.7198 60.2037C85.7683 60.1951 85.8181 60.1961 85.8663 60.2067C86.4749 60.346 87.5676 60.4193 87.9049 60.0307C88.0589 59.6713 87.0469 57.7207 85.7049 55.8653C85.6554 55.7855 85.6384 55.6897 85.6574 55.5977C85.6764 55.5057 85.73 55.4245 85.8072 55.3709C85.8843 55.3173 85.9791 55.2953 86.072 55.3095C86.1648 55.3237 86.2487 55.3731 86.3063 55.4473C87.3989 56.9947 89.1223 59.708 88.4256 60.5147C88.2174 60.7076 87.9724 60.8564 87.7052 60.9522C87.438 61.048 87.1543 61.0887 86.8709 61.072Z" fill="#231F20"/>
<path d="M84.515 54.8642C84.5464 54.3548 84.277 53.9237 83.9132 53.9013C83.5493 53.8789 83.2289 54.2736 83.1975 54.7829C83.1661 55.2923 83.4356 55.7233 83.7994 55.7458C84.1632 55.7682 84.4836 55.3735 84.515 54.8642Z" fill="#231F20"/>
<path d="M89.577 55.7597C89.9406 55.7341 90.2064 55.3007 90.1706 54.7917C90.1348 54.2826 89.811 53.8907 89.4474 53.9162C89.0838 53.9418 88.8181 54.3752 88.8538 54.8842C88.8896 55.3933 89.2134 55.7852 89.577 55.7597Z" fill="#231F20"/>
<path d="M86.1749 63.4187C84.6496 63.4187 82.6476 63.184 81.3276 62.1207C81.2515 62.0589 81.2028 61.9697 81.1918 61.8723C81.1808 61.775 81.2085 61.6772 81.2689 61.6C81.2988 61.5623 81.3359 61.531 81.3782 61.5079C81.4204 61.4849 81.4668 61.4705 81.5147 61.4657C81.5626 61.4609 81.6109 61.4658 81.6569 61.48C81.7028 61.4943 81.7455 61.5176 81.7822 61.5487C83.8722 63.228 88.1696 62.546 88.2136 62.5387C88.3108 62.5231 88.4102 62.5468 88.49 62.6046C88.5698 62.6623 88.6233 62.7494 88.6389 62.8467C88.6544 62.9439 88.6307 63.0434 88.573 63.1231C88.5152 63.2029 88.4281 63.2564 88.3309 63.272C87.6169 63.375 86.8962 63.4241 86.1749 63.4187Z" fill="#231F20"/>
<path d="M91.14 59.752C90.4186 59.7542 89.7054 59.5983 89.0508 59.2951C88.3962 58.9919 87.816 58.5489 87.3511 57.9973C86.8861 57.4457 86.5478 56.7989 86.3599 56.1024C86.1719 55.4059 86.139 54.6766 86.2633 53.966C86.4923 52.6787 87.222 51.5346 88.2927 50.7842C89.3634 50.0337 90.6878 49.7381 91.976 49.962C93.1995 50.1641 94.3018 50.82 95.063 51.799C95.8243 52.7779 96.1885 54.0078 96.0829 55.2434C95.9774 56.479 95.41 57.6293 94.4938 58.465C93.5776 59.3007 92.38 59.7603 91.14 59.752ZM86.9893 54.098C86.8446 54.9164 86.9462 55.7593 87.2813 56.5198C87.6164 57.2803 88.1699 57.9241 88.8715 58.3696C89.5731 58.8151 90.3912 59.0421 91.222 59.0219C92.0528 59.0016 92.8589 58.7351 93.538 58.256C93.9908 57.9384 94.3766 57.5346 94.6733 57.0678C94.97 56.601 95.1718 56.0803 95.2672 55.5354C95.3625 54.9906 95.3496 54.4323 95.229 53.8925C95.1085 53.3526 94.8827 52.8419 94.5647 52.3893C94.0866 51.71 93.4179 51.1877 92.643 50.8883C91.8682 50.5888 91.022 50.5258 90.2114 50.7071C89.4007 50.8883 88.662 51.3058 88.0885 51.9067C87.515 52.5077 87.1325 53.2651 86.9893 54.0833V54.098Z" fill="#231F20"/>
<path d="M81.5619 59.4C81.2743 59.4011 80.9872 59.3766 80.7039 59.3267C80.0474 59.2355 79.416 59.0131 78.8473 58.6726C78.2786 58.3321 77.7844 57.8805 77.394 57.3449C77.0036 56.8092 76.7252 56.2004 76.5752 55.5547C76.4253 54.9091 76.4069 54.2399 76.5212 53.587C76.6355 52.9341 76.8802 52.311 77.2406 51.7547C77.601 51.1984 78.0697 50.7205 78.6189 50.3493C79.168 49.9781 79.7863 49.7214 80.4368 49.5944C81.0874 49.4673 81.7568 49.4727 82.4052 49.61C83.3656 49.7789 84.2543 50.2285 84.9594 50.9021C85.6644 51.5757 86.1542 52.443 86.3668 53.3946C86.5794 54.3462 86.5053 55.3395 86.154 56.2491C85.8026 57.1586 85.1897 57.9438 84.3926 58.5053C83.563 59.0866 82.5748 59.3989 81.5619 59.4ZM81.5619 50.27C80.796 50.2734 80.0456 50.486 79.3918 50.8849C78.738 51.2838 78.2057 51.8538 77.8523 52.5333C77.499 53.2129 77.3381 53.976 77.387 54.7403C77.4359 55.5047 77.6928 56.2411 78.1299 56.87C78.4468 57.3238 78.8504 57.7104 79.3174 58.0076C79.7844 58.3047 80.3056 58.5064 80.851 58.6012C81.3963 58.696 81.9551 58.6818 82.4949 58.5597C83.0348 58.4375 83.5452 58.2097 83.9966 57.8893C84.4494 57.5717 84.8352 57.168 85.1319 56.7011C85.4286 56.2343 85.6304 55.7136 85.7258 55.1688C85.8211 54.6239 85.8082 54.0656 85.6876 53.5258C85.5671 52.986 85.3413 52.4752 85.0232 52.0227C84.6374 51.4673 84.1216 51.0147 83.5209 50.7041C82.9203 50.3936 82.2528 50.2345 81.5766 50.2407L81.5619 50.27Z" fill="#231F20"/>
<path d="M86.3435 67.232C86.3435 67.232 81.5255 68.3467 78.6875 66.7333C78.6875 66.7333 81.8262 73.2233 86.3435 72.5487V67.232Z" fill="#231F20"/>
<path d="M85.6691 72.9593C81.3424 72.9593 78.4824 67.144 78.3357 66.8873C78.2986 66.8179 78.2863 66.7378 78.301 66.6604C78.3156 66.583 78.3564 66.513 78.4164 66.462C78.4718 66.4078 78.5435 66.3735 78.6204 66.3642C78.6973 66.3549 78.7751 66.3712 78.8417 66.4107C81.5257 67.9433 86.1751 66.8873 86.2337 66.88C86.2874 66.8667 86.3434 66.8658 86.3976 66.8772C86.4517 66.8886 86.5025 66.9121 86.5462 66.946C86.59 66.9799 86.6255 67.0232 86.6501 67.0727C86.6747 67.1222 86.6878 67.1767 86.6884 67.232V72.5413C86.6875 72.629 86.6552 72.7135 86.5974 72.7795C86.5395 72.8454 86.4599 72.8884 86.3731 72.9007C86.1401 72.9371 85.9048 72.9567 85.6691 72.9593ZM79.5457 67.5107C80.5577 69.168 82.9557 72.4313 85.9771 72.2113V67.6867C84.8551 67.892 81.8997 68.31 79.5457 67.5107Z" fill="#231F20"/>
<path d="M60.1346 71.8667C56.1966 72.6 40.2466 109.443 45.7099 113.667C54.2313 120.267 83.8799 113.593 83.8799 113.593L81.4673 102.153C81.4673 102.153 62.4006 102.689 62.1293 98.7727C61.8579 94.8567 73.2173 76.7727 71.7286 74.03C70.2399 71.2873 60.1346 71.8667 60.1346 71.8667Z" fill="#FF6C22"/>
<path d="M69.4252 117.37C69.3771 117.374 69.3286 117.369 69.2824 117.355C69.2363 117.34 69.1934 117.317 69.1563 117.286C69.1192 117.255 69.0886 117.217 69.0661 117.174C69.0437 117.131 69.0299 117.084 69.0256 117.036C69.0212 116.988 69.0264 116.94 69.0409 116.894C69.0553 116.847 69.0787 116.805 69.1096 116.767C69.1406 116.73 69.1786 116.7 69.2214 116.677C69.2643 116.655 69.3111 116.641 69.3593 116.637L78.3279 115.097L78.6066 104.647L61.7399 102.909C61.687 102.905 61.6357 102.889 61.5899 102.863C61.5441 102.836 61.5051 102.799 61.4759 102.755C61.4447 102.71 61.4239 102.66 61.415 102.607C61.4062 102.553 61.4094 102.499 61.4246 102.447L68.9339 76.6993C68.9611 76.606 69.0243 76.5273 69.1096 76.4805C69.1949 76.4337 69.2952 76.4228 69.3886 76.45C69.4809 76.4789 69.5584 76.5423 69.6048 76.6271C69.6513 76.7119 69.6632 76.8114 69.6379 76.9047L62.3046 102.234L79.0319 103.957C79.124 103.967 79.2091 104.01 79.2703 104.08C79.3315 104.149 79.3642 104.239 79.3619 104.331L79.0686 115.419C79.0663 115.505 79.0342 115.587 78.978 115.651C78.9218 115.715 78.8449 115.758 78.7606 115.771L69.4986 117.37H69.4252Z" fill="#231F20"/>
<path d="M79.3847 105.974C82.5552 106.165 85.7371 106.01 88.874 105.512C91.1903 104.95 93.5672 104.676 95.9507 104.698C99.0959 104.85 102.189 105.558 105.088 106.788C105.208 106.826 105.315 106.898 105.396 106.993C105.675 107.382 105.007 107.727 104.531 107.778C103.27 107.807 102.011 107.647 100.798 107.301C103.797 108.414 106.633 109.923 109.231 111.789C109.532 112.002 109.855 112.332 109.708 112.669C109.561 113.007 108.975 112.941 108.571 112.765L101.751 109.648C103.519 110.35 105.157 111.342 106.599 112.581C106.804 112.765 107.024 112.999 106.965 113.271C106.87 113.725 106.188 113.637 105.763 113.432C103.69 112.399 101.71 111.19 99.8447 109.817L104.054 113.036C104.105 113.381 103.746 113.674 103.394 113.689C103.046 113.664 102.711 113.545 102.426 113.344L97.7327 110.631L100.666 112.684C101.128 113.007 101.649 113.527 101.399 114.041C101.15 114.554 100.233 114.459 99.6247 114.187C97.208 113.138 94.682 112.361 92.0934 111.87C91.1877 111.572 90.2498 111.382 89.2994 111.305C87.849 111.486 86.4181 111.798 85.024 112.237C82.9047 112.713 80.7853 113.205 78.666 113.703" fill="white"/>
<path d="M100.68 114.789C100.275 114.768 99.8766 114.671 99.5071 114.503C97.1147 113.459 94.6132 112.687 92.0491 112.2C91.7264 112.141 91.4111 112.046 91.0957 111.958C90.5295 111.761 89.9352 111.657 89.3357 111.65C88.3568 111.733 87.3901 111.925 86.4537 112.222C85.9991 112.347 85.5517 112.471 85.1191 112.567C82.9997 113.051 80.8804 113.535 78.7611 114.033C78.6747 114.051 78.5848 114.035 78.5097 113.989C78.4347 113.943 78.3803 113.869 78.3577 113.784C78.3469 113.741 78.3448 113.696 78.3515 113.653C78.3582 113.609 78.3737 113.567 78.397 113.53C78.4202 113.492 78.4508 113.459 78.4869 113.434C78.523 113.408 78.5639 113.39 78.6071 113.381C80.7264 112.882 82.8531 112.398 84.9724 111.914C85.3904 111.819 85.8304 111.701 86.2777 111.577C87.2637 111.262 88.2822 111.06 89.3137 110.975C89.9817 110.992 90.6438 111.106 91.2791 111.313C91.5797 111.401 91.8731 111.489 92.1811 111.547C94.7955 112.04 97.3464 112.825 99.7858 113.887C100.136 114.08 100.543 114.148 100.937 114.077C100.977 114.065 101.013 114.044 101.043 114.016C101.074 113.989 101.098 113.954 101.113 113.916C101.267 113.564 100.658 113.102 100.468 112.963L97.5344 110.917C97.4628 110.866 97.413 110.79 97.3953 110.705C97.3776 110.619 97.3933 110.529 97.4391 110.455C97.4871 110.382 97.5611 110.331 97.6458 110.312C97.7305 110.293 97.8193 110.307 97.8938 110.352L102.587 113.065C102.818 113.237 103.092 113.339 103.379 113.359C103.435 113.355 103.49 113.341 103.541 113.315C103.591 113.29 103.636 113.255 103.672 113.212L99.6171 110.11C99.5761 110.086 99.5407 110.053 99.5131 110.015C99.4856 109.976 99.4665 109.932 99.4572 109.885C99.4479 109.839 99.4486 109.79 99.4592 109.744C99.4697 109.698 99.49 109.654 99.5186 109.616C99.5472 109.578 99.5835 109.547 99.6252 109.524C99.6668 109.501 99.7128 109.487 99.7602 109.483C99.8076 109.479 99.8553 109.485 99.9001 109.501C99.945 109.517 99.9859 109.542 100.02 109.575C101.868 110.938 103.831 112.137 105.887 113.161C106.096 113.279 106.342 113.316 106.576 113.263C106.62 113.19 106.576 113.087 106.349 112.867C105.363 112.011 104.28 111.273 103.122 110.667L101.582 109.934C101.511 109.893 101.456 109.827 101.43 109.748C101.404 109.67 101.407 109.584 101.44 109.508C101.473 109.432 101.532 109.371 101.607 109.336C101.682 109.301 101.767 109.294 101.846 109.318C102.382 109.531 102.902 109.773 103.416 110.051L108.681 112.464C108.879 112.57 109.105 112.608 109.326 112.574C109.414 112.442 109.26 112.237 109.011 112.061C106.436 110.212 103.624 108.718 100.651 107.617C100.57 107.587 100.504 107.526 100.467 107.448C100.43 107.37 100.425 107.28 100.453 107.199C100.48 107.116 100.538 107.047 100.614 107.006C100.691 106.965 100.78 106.955 100.864 106.979C102.04 107.318 103.262 107.474 104.486 107.441C104.601 107.44 104.715 107.416 104.82 107.37C104.924 107.323 105.018 107.255 105.095 107.169L104.926 107.096C102.066 105.877 99.0119 105.177 95.9064 105.028C93.8414 104.993 91.7799 105.212 89.7684 105.681L88.9031 105.842C85.7514 106.34 82.5552 106.498 79.3697 106.311C79.3254 106.309 79.2819 106.299 79.2417 106.28C79.2015 106.261 79.1654 106.235 79.1354 106.202C79.1054 106.17 79.0822 106.131 79.0671 106.09C79.0519 106.048 79.0451 106.004 79.0471 105.959C79.047 105.915 79.056 105.871 79.0736 105.831C79.0911 105.79 79.1169 105.753 79.1492 105.723C79.1816 105.693 79.2198 105.669 79.2615 105.655C79.3032 105.64 79.3476 105.634 79.3917 105.637C82.5352 105.823 85.6896 105.671 88.8004 105.182L89.6657 105.021C91.7276 104.541 93.8412 104.319 95.9578 104.361C99.1435 104.516 102.277 105.233 105.212 106.48C105.389 106.54 105.544 106.649 105.66 106.795C105.731 106.891 105.774 107.005 105.785 107.124C105.795 107.243 105.772 107.363 105.718 107.47C105.586 107.664 105.409 107.823 105.202 107.934C104.995 108.045 104.765 108.104 104.53 108.108C104.208 108.108 103.885 108.108 103.57 108.108C105.628 109.061 107.592 110.205 109.436 111.525C109.994 111.921 110.206 112.391 110.023 112.809C109.984 112.902 109.926 112.985 109.852 113.055C109.779 113.124 109.693 113.178 109.598 113.212C109.208 113.311 108.796 113.264 108.439 113.08L106.804 112.347C106.964 112.458 107.092 112.61 107.175 112.786C107.259 112.962 107.295 113.157 107.28 113.351C107.257 113.46 107.209 113.562 107.141 113.65C107.072 113.738 106.984 113.809 106.884 113.857C106.674 113.93 106.451 113.957 106.23 113.936C106.009 113.916 105.795 113.849 105.601 113.74C105.19 113.542 104.787 113.329 104.376 113.109C104.379 113.308 104.309 113.501 104.178 113.652C104.081 113.766 103.961 113.859 103.826 113.924C103.691 113.99 103.544 114.027 103.394 114.033C102.981 114.019 102.582 113.887 102.242 113.652L101.678 113.322C101.743 113.457 101.776 113.605 101.776 113.755C101.776 113.904 101.743 114.052 101.678 114.187C101.628 114.307 101.554 114.414 101.46 114.504C101.367 114.593 101.256 114.663 101.135 114.708C100.989 114.76 100.835 114.787 100.68 114.789Z" fill="#231F20"/>
<path d="M92.0488 78.1953C92.0488 78.1953 95.5395 92.4293 98.6488 102.557Z" fill="white"/>
<path d="M98.6785 102.887C98.6078 102.887 98.5389 102.864 98.4821 102.821C98.4253 102.779 98.3837 102.72 98.3632 102.652C95.2539 92.642 91.7632 78.452 91.7192 78.276C91.7083 78.2327 91.7061 78.1876 91.7127 78.1434C91.7194 78.0992 91.7348 78.0567 91.758 78.0185C91.7812 77.9803 91.8117 77.9471 91.8479 77.9208C91.884 77.8945 91.925 77.8756 91.9685 77.8653C92.0551 77.8455 92.1459 77.8605 92.2214 77.9072C92.2969 77.9539 92.351 78.0284 92.3719 78.1147C92.4085 78.254 95.8992 92.4587 98.9719 102.454C98.9972 102.539 98.9884 102.63 98.9473 102.708C98.9061 102.786 98.836 102.845 98.7519 102.872C98.7283 102.881 98.7036 102.885 98.6785 102.887Z" fill="#231F20"/>
<path d="M133.914 119.731L133.731 121.726L88.873 128.282L89.3204 126.192L133.914 119.731Z" fill="white"/>
<path d="M88.8724 128.649C88.8217 128.648 88.7715 128.638 88.7249 128.617C88.6783 128.597 88.6362 128.568 88.6011 128.531C88.5608 128.489 88.5317 128.437 88.5163 128.381C88.5009 128.325 88.4998 128.266 88.5131 128.209L88.9604 126.111C88.9789 126.039 89.0178 125.974 89.0724 125.923C89.127 125.872 89.1951 125.838 89.2684 125.825L133.862 119.372C133.916 119.365 133.971 119.37 134.023 119.386C134.075 119.403 134.123 119.431 134.163 119.467C134.203 119.506 134.234 119.553 134.254 119.605C134.275 119.657 134.284 119.712 134.28 119.768L134.097 121.755C134.09 121.837 134.056 121.914 134 121.973C133.944 122.033 133.87 122.073 133.789 122.085L88.9237 128.685L88.8724 128.649ZM89.6057 126.515L89.3197 127.842L133.371 121.403L133.481 120.164L89.6057 126.515Z" fill="#231F20"/>
<path d="M133.915 119.731C133.915 119.731 123.699 110.975 123.362 111.056C123.025 111.137 77.1621 116.637 77.1621 116.637L89.3428 126.17L133.915 119.731Z" fill="white"/>
<path d="M89.3199 126.559C89.2393 126.559 89.1612 126.53 89.0999 126.478L76.9119 116.945C76.8547 116.9 76.8122 116.839 76.7896 116.77C76.7671 116.701 76.7655 116.627 76.7851 116.557C76.8048 116.487 76.8447 116.425 76.8999 116.377C76.9551 116.33 77.0231 116.3 77.0952 116.292C77.5499 116.241 122.562 110.843 123.295 110.719C123.501 110.675 123.801 110.594 134.156 119.475C134.209 119.521 134.249 119.581 134.27 119.648C134.29 119.716 134.292 119.788 134.273 119.856C134.252 119.924 134.213 119.984 134.16 120.031C134.107 120.077 134.042 120.108 133.973 120.12L89.3859 126.573L89.3199 126.559ZM78.0632 116.893L89.4225 125.803L133.063 119.489C129.397 116.373 124.102 111.899 123.31 111.423C120.919 111.76 87.0979 115.808 78.0632 116.893Z" fill="#231F20"/>
<path d="M88.8737 128.282L76.957 118.624L77.1404 116.637L89.321 126.192L88.8737 128.282Z" fill="white"/>
<path d="M88.8737 128.649C88.7887 128.649 88.7061 128.62 88.639 128.568L76.7297 118.91C76.6834 118.872 76.6466 118.824 76.6224 118.769C76.5982 118.714 76.5872 118.654 76.5904 118.595L76.7737 116.6C76.7814 116.535 76.8061 116.473 76.8452 116.42C76.8844 116.368 76.9366 116.327 76.9968 116.301C77.0569 116.275 77.1229 116.265 77.188 116.272C77.2531 116.28 77.315 116.304 77.3677 116.343L89.5484 125.877C89.602 125.92 89.6426 125.977 89.6659 126.041C89.6892 126.106 89.6942 126.176 89.6804 126.243L89.233 128.341C89.2186 128.402 89.1888 128.458 89.1465 128.504C89.1041 128.55 89.0506 128.585 88.991 128.605C88.9551 128.627 88.9153 128.642 88.8737 128.649ZM77.3384 118.463L88.639 127.6L88.9177 126.317L77.441 117.333L77.3384 118.463Z" fill="#231F20"/>
<path d="M133.914 119.731L142.531 90.8453L95.2456 98.9047L89.3203 126.192L133.914 119.731Z" fill="white"/>
<path d="M89.3205 126.559C89.2708 126.558 89.2218 126.547 89.1764 126.527C89.131 126.507 89.0902 126.478 89.0564 126.441C89.0163 126.397 88.9869 126.345 88.9704 126.287C88.9538 126.23 88.9507 126.17 88.9611 126.111L94.8864 98.8313C94.9004 98.7595 94.9359 98.6935 94.9884 98.6424C95.0408 98.5913 95.1076 98.5574 95.1798 98.5453L142.472 90.4787C142.534 90.4668 142.597 90.4711 142.656 90.4911C142.715 90.5111 142.768 90.5461 142.809 90.5927C142.851 90.6393 142.879 90.6959 142.892 90.7569C142.905 90.8179 142.902 90.8813 142.883 90.9407L134.266 119.834C134.244 119.9 134.204 119.958 134.151 120.003C134.098 120.049 134.034 120.079 133.966 120.091L89.3791 126.544L89.3205 126.559ZM95.5538 99.2273L89.7971 125.752L133.628 119.401L142.01 91.3073L95.5538 99.2273Z" fill="#231F20"/>
<path d="M159.266 76.3693C159.176 76.3698 159.09 76.337 159.024 76.2774C158.957 76.2177 158.915 76.1355 158.906 76.0467C158.657 73.6193 160.468 70.6347 160.549 70.51C160.574 70.4684 160.607 70.4322 160.646 70.4033C160.685 70.3745 160.729 70.3537 160.776 70.3421C160.823 70.3305 160.872 70.3284 160.92 70.3358C160.968 70.3432 161.014 70.3601 161.055 70.3853C161.136 70.4381 161.194 70.5203 161.216 70.6146C161.238 70.709 161.222 70.8082 161.172 70.8913C161.172 70.8913 159.412 73.8247 159.632 75.966C159.637 76.0142 159.633 76.0629 159.619 76.1093C159.605 76.1558 159.582 76.199 159.551 76.2365C159.521 76.274 159.483 76.3051 159.44 76.3279C159.397 76.3507 159.351 76.3648 159.302 76.3693H159.266Z" fill="#231F20"/>
<path d="M189.252 114.935C189.182 114.934 189.113 114.914 189.054 114.877L180.863 109.611C180.78 109.559 180.722 109.476 180.7 109.38C180.679 109.284 180.696 109.184 180.749 109.102C180.802 109.019 180.885 108.961 180.98 108.939C181.076 108.918 181.176 108.935 181.259 108.988L189.45 114.253C189.532 114.307 189.59 114.391 189.61 114.487C189.631 114.584 189.613 114.684 189.56 114.767C189.525 114.817 189.48 114.858 189.426 114.888C189.373 114.917 189.313 114.933 189.252 114.935Z" fill="#D1D3D4"/>
<path d="M192.215 113.615C192.146 113.617 192.077 113.6 192.017 113.564L184.237 108.533C184.155 108.48 184.098 108.396 184.078 108.301C184.058 108.205 184.077 108.105 184.13 108.024C184.184 107.942 184.268 107.885 184.363 107.865C184.459 107.845 184.558 107.864 184.64 107.917L192.413 112.911C192.496 112.965 192.553 113.049 192.574 113.145C192.594 113.242 192.576 113.342 192.523 113.425C192.492 113.479 192.447 113.526 192.394 113.559C192.34 113.592 192.279 113.612 192.215 113.615Z" fill="#D1D3D4"/>
<path d="M195.067 112.64C194.997 112.638 194.929 112.617 194.869 112.581L187 107.536C186.919 107.483 186.862 107.399 186.842 107.303C186.822 107.208 186.841 107.108 186.894 107.026C186.948 106.945 187.031 106.888 187.127 106.868C187.223 106.848 187.322 106.867 187.404 106.92L195.243 111.965C195.325 112.018 195.382 112.101 195.403 112.196C195.423 112.29 195.406 112.39 195.353 112.471C195.323 112.521 195.281 112.562 195.231 112.592C195.181 112.621 195.125 112.638 195.067 112.64Z" fill="#D1D3D4"/>
<path d="M198.654 111.672C198.589 111.673 198.526 111.655 198.471 111.621L190.03 106.649C189.983 106.628 189.942 106.597 189.907 106.559C189.873 106.52 189.848 106.475 189.832 106.426C189.816 106.377 189.811 106.326 189.817 106.275C189.822 106.224 189.838 106.175 189.864 106.13C189.89 106.086 189.925 106.047 189.966 106.017C190.008 105.987 190.055 105.966 190.106 105.956C190.156 105.945 190.208 105.945 190.258 105.956C190.308 105.967 190.355 105.988 190.397 106.018L198.837 110.99C198.906 111.031 198.96 111.093 198.99 111.167C199.02 111.241 199.025 111.323 199.004 111.401C198.984 111.478 198.938 111.546 198.875 111.595C198.812 111.644 198.734 111.671 198.654 111.672Z" fill="#D1D3D4"/>
<path d="M201.213 110.799C201.146 110.801 201.08 110.783 201.023 110.748L192.582 105.776C192.5 105.724 192.44 105.643 192.417 105.548C192.394 105.454 192.408 105.354 192.457 105.27C192.481 105.228 192.513 105.191 192.551 105.162C192.589 105.132 192.633 105.111 192.68 105.1C192.726 105.088 192.775 105.086 192.823 105.094C192.87 105.102 192.916 105.119 192.956 105.145L201.397 110.117C201.466 110.158 201.519 110.22 201.549 110.295C201.579 110.369 201.585 110.451 201.564 110.528C201.543 110.605 201.498 110.674 201.434 110.723C201.371 110.772 201.293 110.799 201.213 110.799Z" fill="#D1D3D4"/>
</svg>
