<svg width="40" height="36" viewBox="0 0 40 36" fill="none" xmlns="http://www.w3.org/2000/svg">
<path d="M35 16.5V19.5C35 25.1569 35 27.9853 33.2426 29.7426C31.7811 31.2041 29.5789 31.4502 25.625 31.4916V4.50839C29.5789 4.54981 31.7811 4.79586 33.2426 6.25736C35 8.01472 35 10.8431 35 16.5Z" fill="#FF6C22"/>
<path fill-rule="evenodd" clip-rule="evenodd" d="M17 4.5H23H23.375L23.375 31.5H23H17C11.3431 31.5 8.51472 31.5 6.75736 29.7426C5 27.9853 5 25.1569 5 19.5V16.5C5 10.8431 5 8.01472 6.75736 6.25736C8.51472 4.5 11.3431 4.5 17 4.5ZM9.125 15C9.125 14.3787 9.62868 13.875 10.25 13.875H19.25C19.8713 13.875 20.375 14.3787 20.375 15C20.375 15.6213 19.8713 16.125 19.25 16.125H10.25C9.62868 16.125 9.125 15.6213 9.125 15ZM10.625 21C10.625 20.3787 11.1287 19.875 11.75 19.875H17.75C18.3713 19.875 18.875 20.3787 18.875 21C18.875 21.6213 18.3713 22.125 17.75 22.125H11.75C11.1287 22.125 10.625 21.6213 10.625 21Z" fill="#FF6C22"/>
</svg>
