<svg width="40" height="36" viewBox="0 0 40 36" fill="none" xmlns="http://www.w3.org/2000/svg">
<path fill-rule="evenodd" clip-rule="evenodd" d="M20 33C12.9289 33 9.3934 33 7.1967 30.8033C5 28.6066 5 25.0711 5 18C5 10.9289 5 7.3934 7.1967 5.1967C9.3934 3 12.9289 3 20 3C27.0711 3 30.6066 3 32.8033 5.1967C35 7.3934 35 10.9289 35 18C35 25.0711 35 28.6066 32.8033 30.8033C30.6066 33 27.0711 33 20 33ZM15.125 9.74996C15.125 9.12864 14.6213 8.62496 14 8.62496C13.3787 8.62496 12.875 9.12864 12.875 9.74996L12.875 11.625H11C10.3787 11.625 9.875 12.1287 9.875 12.75C9.875 13.3713 10.3787 13.875 11 13.875L12.875 13.875V15.75C12.875 16.3713 13.3787 16.875 14 16.875C14.6213 16.875 15.125 16.3713 15.125 15.75V13.875H17C17.6213 13.875 18.125 13.3713 18.125 12.75C18.125 12.1287 17.6213 11.625 17 11.625H15.125L15.125 9.74996ZM23 11.625C22.3787 11.625 21.875 12.1286 21.875 12.75C21.875 13.3713 22.3787 13.875 23 13.875H29C29.6213 13.875 30.125 13.3713 30.125 12.75C30.125 12.1286 29.6213 11.625 29 11.625H23ZM23 20.625C22.3787 20.625 21.875 21.1286 21.875 21.75C21.875 22.3713 22.3787 22.875 23 22.875H29C29.6213 22.875 30.125 22.3713 30.125 21.75C30.125 21.1286 29.6213 20.625 29 20.625H23ZM12.5455 20.9545C12.1062 20.5152 11.3938 20.5152 10.9545 20.9545C10.5152 21.3938 10.5152 22.1062 10.9545 22.5455L12.409 24L10.9545 25.4545C10.5152 25.8938 10.5152 26.6062 10.9545 27.0455C11.3939 27.4848 12.1062 27.4848 12.5455 27.0455L14 25.591L15.4545 27.0455C15.8938 27.4848 16.6061 27.4848 17.0455 27.0455C17.4848 26.6061 17.4848 25.8938 17.0455 25.4545L15.591 24L17.0455 22.5455C17.4848 22.1062 17.4848 21.3939 17.0455 20.9545C16.6062 20.5152 15.8938 20.5152 15.4545 20.9545L14 22.409L12.5455 20.9545ZM23 25.125C22.3787 25.125 21.875 25.6286 21.875 26.25C21.875 26.8713 22.3787 27.375 23 27.375H29C29.6213 27.375 30.125 26.8713 30.125 26.25C30.125 25.6286 29.6213 25.125 29 25.125H23Z" fill="#FF6C22"/>
</svg>
