<svg width="40" height="36" viewBox="0 0 40 36" fill="none" xmlns="http://www.w3.org/2000/svg">
<path fill-rule="evenodd" clip-rule="evenodd" d="M16.3886 4.80041C16.0233 5.11171 15.8407 5.26737 15.6456 5.39811C15.1984 5.69782 14.6963 5.90582 14.1681 6.01009C13.9378 6.05557 13.6986 6.07466 13.2201 6.11284C12.018 6.20877 11.417 6.25673 10.9156 6.43384C9.75576 6.8435 8.8435 7.75577 8.43384 8.91556C8.25673 9.41701 8.20876 10.018 8.11284 11.2201C8.07466 11.6986 8.05557 11.9378 8.01008 12.1682C7.90582 12.6963 7.69781 13.1984 7.39811 13.6456C7.26736 13.8407 7.11171 14.0233 6.80041 14.3886C6.01825 15.3064 5.62716 15.7654 5.39782 16.2452C4.86739 17.3549 4.86739 18.6451 5.39782 19.7548C5.62716 20.2347 6.01824 20.6936 6.80041 21.6114C7.11168 21.9767 7.26737 22.1594 7.39811 22.3544C7.69781 22.8016 7.90582 23.3037 8.01008 23.8319C8.05557 24.0622 8.07466 24.3015 8.11284 24.7799C8.20876 25.982 8.25673 26.583 8.43384 27.0844C8.8435 28.2442 9.75576 29.1565 10.9156 29.5662C11.417 29.7433 12.018 29.7912 13.2201 29.8872C13.6986 29.9253 13.9378 29.9444 14.1681 29.9899C14.6963 30.0942 15.1984 30.3022 15.6456 30.6019C15.8407 30.7326 16.0233 30.8883 16.3886 31.1996C17.3064 31.9818 17.7653 32.3728 18.2452 32.6022C19.3549 33.1326 20.6451 33.1326 21.7548 32.6022C22.2347 32.3728 22.6936 31.9818 23.6114 31.1996C23.9767 30.8883 24.1593 30.7326 24.3544 30.6019C24.8016 30.3022 25.3037 30.0942 25.8319 29.9899C26.0622 29.9444 26.3014 29.9253 26.7799 29.8872C27.982 29.7912 28.583 29.7433 29.0844 29.5662C30.2442 29.1565 31.1565 28.2442 31.5662 27.0844C31.7433 26.583 31.7912 25.982 31.8872 24.7799C31.9253 24.3015 31.9444 24.0622 31.9899 23.8319C32.0942 23.3037 32.3022 22.8016 32.6019 22.3544C32.7326 22.1593 32.8883 21.9767 33.1996 21.6114C33.9818 20.6936 34.3728 20.2347 34.6022 19.7548C35.1326 18.6451 35.1326 17.3549 34.6022 16.2452C34.3728 15.7653 33.9818 15.3064 33.1996 14.3886C32.8883 14.0233 32.7326 13.8407 32.6019 13.6456C32.3022 13.1984 32.0942 12.6963 31.9899 12.1682C31.9444 11.9378 31.9253 11.6986 31.8872 11.2201C31.7912 10.018 31.7433 9.41701 31.5662 8.91556C31.1565 7.75577 30.2442 6.8435 29.0844 6.43384C28.583 6.25673 27.982 6.20877 26.7799 6.11284C26.3015 6.07466 26.0622 6.05557 25.8319 6.01009C25.3037 5.90582 24.8016 5.69782 24.3544 5.39811C24.1593 5.26737 23.9767 5.11171 23.6114 4.80041C22.6936 4.01824 22.2347 3.62716 21.7548 3.39783C20.6451 2.86739 19.3549 2.86739 18.2452 3.39783C17.7653 3.62716 17.3064 4.01825 16.3886 4.80041ZM26.5602 14.7947C27.037 14.318 27.037 13.545 26.5602 13.0682C26.0835 12.5915 25.3105 12.5915 24.8338 13.0682L17.5584 20.3436L15.1662 17.9514C14.6894 17.4747 13.9165 17.4747 13.4397 17.9514C12.963 18.4282 12.963 19.2011 13.4397 19.6779L16.6952 22.9333C17.1719 23.4101 17.9449 23.4101 18.4216 22.9333L26.5602 14.7947Z" fill="#FF6C22"/>
</svg>
