<svg width="36" height="36" viewBox="0 0 36 36" fill="none" xmlns="http://www.w3.org/2000/svg">
<path fill-rule="evenodd" clip-rule="evenodd" d="M3 18C3 9.71573 9.71573 3 18 3C26.2843 3 33 9.71573 33 18C33 26.2843 26.2843 33 18 33C9.71573 33 3 26.2843 3 18ZM16.875 7.5C16.875 6.87868 17.3787 6.375 18 6.375C24.4203 6.375 29.625 11.5797 29.625 18C29.625 24.4203 24.4203 29.625 18 29.625C11.5797 29.625 6.375 24.4203 6.375 18C6.375 17.3787 6.87868 16.875 7.5 16.875C8.12132 16.875 8.625 17.3787 8.625 18C8.625 23.1777 12.8223 27.375 18 27.375C23.1777 27.375 27.375 23.1777 27.375 18C27.375 12.8223 23.1777 8.625 18 8.625C17.3787 8.625 16.875 8.12132 16.875 7.5ZM18 10.875C17.3787 10.875 16.875 11.3787 16.875 12C16.875 12.6213 17.3787 13.125 18 13.125C20.6924 13.125 22.875 15.3076 22.875 18C22.875 20.6924 20.6924 22.875 18 22.875C17.3787 22.875 16.875 23.3787 16.875 24C16.875 24.6213 17.3787 25.125 18 25.125C21.935 25.125 25.125 21.935 25.125 18C25.125 14.065 21.935 10.875 18 10.875Z" fill="#FF6C22"/>
</svg>
