<svg width="40" height="36" viewBox="0 0 40 36" fill="none" xmlns="http://www.w3.org/2000/svg">
<path d="M26.7783 24.752C27.0408 24.5472 27.2789 24.3091 27.7551 23.833L33.6912 17.8969C33.8347 17.7534 33.769 17.5062 33.5773 17.4396C32.8766 17.1966 31.9651 16.7401 31.1125 15.8875C30.2599 15.0349 29.8035 14.1234 29.5604 13.4227C29.4938 13.231 29.2466 13.1653 29.1031 13.3088L23.167 19.2449C22.6909 19.7211 22.4528 19.9592 22.248 20.2217C22.0065 20.5313 21.7994 20.8664 21.6305 21.2209C21.4873 21.5214 21.3808 21.8408 21.1678 22.4797L20.8927 23.3051L20.4552 24.6177L20.0449 25.8484C19.9401 26.1628 20.0219 26.5094 20.2563 26.7437C20.4906 26.9781 20.8372 27.0599 21.1516 26.9551L22.3823 26.5448L23.6949 26.1073L24.5203 25.8322L24.5203 25.8322C25.1592 25.6192 25.4786 25.5127 25.7791 25.3695C26.1336 25.2006 26.4687 24.9935 26.7783 24.752Z" fill="#FF6C22"/>
<path d="M35.5498 16.0383C36.8167 14.7713 36.8167 12.7172 35.5498 11.4502C34.2828 10.1833 32.2287 10.1833 30.9617 11.4502L30.7709 11.6411C30.5867 11.8252 30.5033 12.0824 30.5493 12.3388C30.5782 12.5 30.6319 12.7358 30.7295 13.0171C30.9247 13.5797 31.2933 14.3182 31.9875 15.0125C32.6818 15.7067 33.4203 16.0753 33.9829 16.2705C34.2642 16.3681 34.5 16.4218 34.6612 16.4507C34.9176 16.4967 35.1748 16.4133 35.3589 16.2291L35.5498 16.0383Z" fill="#FF6C22"/>
<path fill-rule="evenodd" clip-rule="evenodd" d="M8.25736 4.75736C6.5 6.51472 6.5 9.34315 6.5 15V21C6.5 26.6569 6.5 29.4853 8.25736 31.2426C10.0147 33 12.8431 33 18.5 33H21.5C27.1569 33 29.9853 33 31.7426 31.2426C33.4718 29.5135 33.4995 26.7473 33.5 21.2701L29.2726 25.4976C28.8679 25.9025 28.5365 26.2342 28.1622 26.5261C27.7237 26.8681 27.2492 27.1614 26.7472 27.4006C26.3187 27.6049 25.8738 27.753 25.3307 27.9338L21.8631 29.0896C20.7403 29.4639 19.5023 29.1717 18.6653 28.3347C17.8284 27.4978 17.5362 26.2598 17.9104 25.1369L18.3207 23.9062L19.0334 21.7682L19.0662 21.6695C19.2471 21.1263 19.3952 20.6814 19.5994 20.2529C19.8387 19.7509 20.1319 19.2764 20.474 18.8379C20.7659 18.4636 21.0976 18.1321 21.5025 17.7275L27.5122 11.7178L29.18 10.0501L29.3708 9.85923C30.4439 8.78612 31.8505 8.24971 33.2569 8.25C33.03 6.70418 32.5912 5.60591 31.7426 4.75736C29.9853 3 27.1569 3 21.5 3H18.5C12.8431 3 10.0147 3 8.25736 4.75736ZM12.875 13.5C12.875 12.8787 13.3787 12.375 14 12.375H23.75C24.3713 12.375 24.875 12.8787 24.875 13.5C24.875 14.1213 24.3713 14.625 23.75 14.625H14C13.3787 14.625 12.875 14.1213 12.875 13.5ZM12.875 19.5C12.875 18.8787 13.3787 18.375 14 18.375H17.75C18.3713 18.375 18.875 18.8787 18.875 19.5C18.875 20.1213 18.3713 20.625 17.75 20.625H14C13.3787 20.625 12.875 20.1213 12.875 19.5ZM12.875 25.5C12.875 24.8787 13.3787 24.375 14 24.375H16.25C16.8713 24.375 17.375 24.8787 17.375 25.5C17.375 26.1213 16.8713 26.625 16.25 26.625H14C13.3787 26.625 12.875 26.1213 12.875 25.5Z" fill="#FF6C22"/>
</svg>
