<svg width="30" height="31" viewBox="0 0 30 31" fill="none" xmlns="http://www.w3.org/2000/svg">
<path fill-rule="evenodd" clip-rule="evenodd" d="M15 3.44238C11.605 3.44238 11.18 3.45655 9.84667 3.51738C8.51583 3.57822 7.60667 3.78988 6.81167 4.09905C5.97833 4.41238 5.2225 4.90405 4.5975 5.54072C3.96185 6.16499 3.46988 6.9203 3.15583 7.75405C2.84833 8.54905 2.63583 9.45905 2.575 10.7899C2.515 12.1224 2.5 12.5465 2.5 15.9424C2.5 19.3382 2.51417 19.7624 2.575 21.0957C2.63583 22.4266 2.8475 23.3357 3.15667 24.1307C3.47 24.964 3.96167 25.7199 4.59833 26.3449C5.22263 26.9805 5.97792 27.4725 6.81167 27.7866C7.60667 28.0949 8.51583 28.3066 9.84667 28.3674C11.18 28.4282 11.605 28.4424 15 28.4424C18.395 28.4424 18.82 28.4282 20.1533 28.3674C21.4842 28.3066 22.3933 28.0949 23.1883 27.7857C24.0217 27.4724 24.7775 26.9807 25.4025 26.3441C26.0381 25.7198 26.5301 24.9645 26.8442 24.1307C27.1525 23.3357 27.3642 22.4266 27.425 21.0957C27.4858 19.7624 27.5 19.3374 27.5 15.9424C27.5 12.5474 27.4858 12.1224 27.425 10.789C27.3642 9.45822 27.1525 8.54905 26.8433 7.75405C26.5295 6.91994 26.0375 6.16432 25.4017 5.53988C24.7774 4.90423 24.0221 4.41226 23.1883 4.09822C22.3933 3.79072 21.4833 3.57822 20.1525 3.51738C18.82 3.45738 18.3958 3.44238 15 3.44238ZM15 5.69488C18.3375 5.69488 18.7333 5.70738 20.0517 5.76738C21.27 5.82322 21.9317 6.02572 22.3725 6.19822C22.9558 6.42405 23.3725 6.69572 23.81 7.13238C24.2475 7.56988 24.5183 7.98655 24.7442 8.56988C24.9158 9.01072 25.1192 9.67238 25.175 10.8907C25.235 12.209 25.2475 12.6049 25.2475 15.9424C25.2475 19.2799 25.235 19.6757 25.175 20.9941C25.1192 22.2124 24.9167 22.8741 24.7442 23.3149C24.5441 23.8578 24.2249 24.349 23.81 24.7524C23.4067 25.1674 22.9155 25.4866 22.3725 25.6866C21.9317 25.8582 21.27 26.0615 20.0517 26.1174C18.7333 26.1774 18.3383 26.1899 15 26.1899C11.6617 26.1899 11.2667 26.1774 9.94833 26.1174C8.73 26.0615 8.06833 25.8591 7.6275 25.6866C7.08455 25.4865 6.59334 25.1673 6.19 24.7524C5.77515 24.349 5.45594 23.8578 5.25583 23.3149C5.08417 22.8741 4.88083 22.2124 4.825 20.9941C4.765 19.6757 4.7525 19.2799 4.7525 15.9424C4.7525 12.6049 4.765 12.209 4.825 10.8907C4.88083 9.67238 5.08333 9.01072 5.25583 8.56988C5.48167 7.98655 5.75333 7.56988 6.19 7.13238C6.59328 6.71742 7.08451 6.3982 7.6275 6.19822C8.06833 6.02655 8.73 5.82322 9.94833 5.76738C11.2667 5.70738 11.6625 5.69488 15 5.69488Z" fill="#EDF5FF"/>
<path fill-rule="evenodd" clip-rule="evenodd" d="M15 20.1132C14.4523 20.1132 13.9099 20.0053 13.4039 19.7957C12.8979 19.5861 12.4381 19.2789 12.0508 18.8916C11.6635 18.5043 11.3563 18.0445 11.1467 17.5385C10.9371 17.0325 10.8292 16.4901 10.8292 15.9424C10.8292 15.3947 10.9371 14.8523 11.1467 14.3463C11.3563 13.8402 11.6635 13.3805 12.0508 12.9932C12.4381 12.6059 12.8979 12.2986 13.4039 12.089C13.9099 11.8794 14.4523 11.7715 15 11.7715C16.1062 11.7715 17.1671 12.211 17.9492 12.9932C18.7314 13.7753 19.1709 14.8362 19.1709 15.9424C19.1709 17.0486 18.7314 18.1094 17.9492 18.8916C17.1671 19.6738 16.1062 20.1132 15 20.1132ZM15 9.51738C13.296 9.51738 11.6618 10.1943 10.4569 11.3992C9.25194 12.6041 8.57502 14.2384 8.57502 15.9424C8.57502 17.6464 9.25194 19.2806 10.4569 20.4855C11.6618 21.6905 13.296 22.3674 15 22.3674C16.704 22.3674 18.3383 21.6905 19.5432 20.4855C20.7481 19.2806 21.425 17.6464 21.425 15.9424C21.425 14.2384 20.7481 12.6041 19.5432 11.3992C18.3383 10.1943 16.704 9.51738 15 9.51738ZM23.2942 9.40072C23.2942 9.80351 23.1342 10.1898 22.8494 10.4746C22.5645 10.7595 22.1782 10.9195 21.7754 10.9195C21.3726 10.9195 20.9863 10.7595 20.7015 10.4746C20.4167 10.1898 20.2567 9.80351 20.2567 9.40072C20.2567 8.99792 20.4167 8.61162 20.7015 8.3268C20.9863 8.04198 21.3726 7.88197 21.7754 7.88197C22.1782 7.88197 22.5645 8.04198 22.8494 8.3268C23.1342 8.61162 23.2942 8.99792 23.2942 9.40072Z" fill="#EDF5FF"/>
</svg>
