<svg width="71" height="46" viewBox="0 0 71 46" fill="none" xmlns="http://www.w3.org/2000/svg">
<path fill-rule="evenodd" clip-rule="evenodd" d="M4.5393 8.56803V15.6689C4.60269 15.9254 4.72208 16.1648 4.88889 16.3697C5.06609 16.5638 5.27564 16.7255 5.50822 16.8479C5.8295 17.0086 6.18622 17.0855 6.5452 17.0714H8.96537V20.9243H5.07964C4.29527 20.8531 3.53533 20.6144 2.85109 20.2243C2.25333 19.8624 1.73806 19.3792 1.33849 18.8059C0.840811 18.0351 0.600974 17.126 0.653616 16.21V0.447024H4.5393V4.77812H8.20151V8.56803H4.5393ZM25.9738 10.7966C26.0158 11.1159 26.0536 11.4445 26.0863 11.7848C26.1191 12.1252 26.1326 12.4848 26.1326 12.8672V13.4403H14.9855C15.0292 13.8016 15.0813 14.168 15.1468 14.5395C15.2108 14.9166 15.3171 15.2853 15.4637 15.6386C15.7072 16.2037 16.0779 16.705 16.5469 17.1033C17.1456 17.5177 17.8565 17.7398 18.5847 17.7398C19.3128 17.7398 20.0238 17.5177 20.6225 17.1033C21.0918 16.705 21.4627 16.2038 21.7065 15.6386H25.8461C25.7005 16.3168 25.4594 16.971 25.13 17.5815C24.8472 18.0963 24.5045 18.5758 24.1091 19.01C23.7599 19.3983 23.3582 19.736 22.9158 20.0134C22.52 20.2643 22.1047 20.483 21.6738 20.6672C20.5678 21.0935 19.3853 21.2853 18.2012 21.2305C17.0172 21.1757 15.8575 20.8754 14.7956 20.3487C14.3005 20.0751 13.8362 19.7492 13.4107 19.3764C12.9277 18.9534 12.518 18.4533 12.1981 17.8966C11.8187 17.2283 11.5358 16.5097 11.3578 15.7622C10.9318 13.8529 10.9318 11.8731 11.3578 9.96383C11.5381 9.21273 11.8209 8.48999 12.1981 7.81593C12.5178 7.2494 12.9273 6.73854 13.4107 6.30332C13.8333 5.92257 14.2979 5.5913 14.7956 5.31593C15.9662 4.70371 17.2646 4.37608 18.5855 4.35963C19.7146 4.39389 20.8267 4.64256 21.8628 5.09241C22.3162 5.29947 22.7485 5.54994 23.1536 5.8403C23.6066 6.16597 24.0134 6.55156 24.3628 6.98652C24.7592 7.48418 25.0909 8.02996 25.3502 8.61089C25.6575 9.30737 25.8673 10.0429 25.9738 10.7966ZM21.9611 10.7966C21.851 10.4484 21.7179 10.1079 21.5628 9.77728C21.4003 9.43391 21.1797 9.12119 20.9107 8.85291C20.6276 8.57197 20.2918 8.34978 19.9225 8.19913C19.0592 7.88171 18.111 7.88171 17.2477 8.19913C16.8786 8.34964 16.543 8.57185 16.2603 8.85291C15.9883 9.12224 15.7627 9.43455 15.5922 9.77728C15.4271 10.1018 15.2986 10.4437 15.2091 10.7966H21.9611ZM29.0082 9.49073C28.9547 8.57241 29.2006 7.66151 29.7091 6.89492C30.1166 6.32334 30.6368 5.84119 31.2376 5.47812C31.9219 5.08745 32.6823 4.84844 33.467 4.77728H37.9267V8.63022H34.9317C34.5735 8.61579 34.2176 8.69271 33.8973 8.85375C33.6642 8.97606 33.4541 9.13784 33.2763 9.3319C33.1098 9.53709 32.9897 9.77589 32.9242 10.0319V20.9252H29.0082V9.49073ZM39.5965 9.49073C39.5436 8.57236 39.7898 7.66158 40.2982 6.89492C40.7059 6.32377 41.2257 5.8417 41.8259 5.47812C42.51 5.08759 43.27 4.84858 44.0544 4.77728H48.5141V8.63022H45.5208C45.1626 8.61579 44.8066 8.69271 44.4863 8.85375C44.2529 8.97582 44.0424 9.13762 43.8645 9.3319C43.6981 9.53681 43.5788 9.77578 43.5149 10.0319V20.9252H39.5965V9.49073ZM64.7301 20.9252H60.9401V18.6958L61.6418 17.7714C61.3568 18.5517 60.8864 19.251 60.2712 19.8092C59.7883 20.2336 59.2405 20.5778 58.6485 20.8285C58.0356 21.0614 57.3911 21.2008 56.7368 21.242C55.5125 21.2454 54.3073 20.939 53.2334 20.3512C52.7659 20.0802 52.3328 19.7538 51.9435 19.379C51.498 18.9459 51.1219 18.4467 50.8284 17.8991C50.4691 17.2263 50.2015 16.5085 50.0326 15.7647C49.8165 14.8141 49.7144 13.8411 49.7284 12.8664C49.7141 11.8904 49.8217 10.9165 50.0485 9.96719C50.2292 9.21621 50.512 8.49352 50.8889 7.81929C51.2071 7.25273 51.6155 6.74183 52.0981 6.30669C52.5216 5.92668 52.9864 5.59546 53.4838 5.31929C54.6543 4.70683 55.9528 4.37919 57.2738 4.36299C58.4374 4.33155 59.5956 4.5315 60.6813 4.95123C61.5771 5.31741 62.3699 5.89697 62.9906 6.63946C63.6213 7.42407 64.0725 8.33736 64.3124 9.31509C64.6025 10.4873 64.7414 11.6917 64.7259 12.8991V20.9243L64.7301 20.9252ZM57.278 8.12602C56.613 8.09436 55.9536 8.26045 55.383 8.60332C54.9225 8.90326 54.5448 9.31418 54.2847 9.79829C54.0281 10.2807 53.8556 10.8033 53.7746 11.3437C53.6043 12.3553 53.6043 13.3883 53.7746 14.4C53.8558 14.9398 54.0283 15.4618 54.2847 15.9437C54.5444 16.428 54.9222 16.8391 55.383 17.1386C55.7788 17.3979 56.2237 17.5731 56.69 17.6532C57.1564 17.7333 57.6342 17.7167 58.0939 17.6044C58.5536 17.4921 58.9852 17.2865 59.3621 17.0004C59.739 16.7143 60.053 16.3537 60.2847 15.9411C60.5507 15.4621 60.7286 14.9393 60.8099 14.3974C60.8911 13.8916 60.9338 13.3803 60.9376 12.868C60.9382 12.2984 60.9006 11.7293 60.825 11.1647C60.7604 10.6303 60.5992 10.1121 60.3494 9.63526C60.097 9.17002 59.7148 8.78816 59.2494 8.5361C58.6378 8.23417 57.9593 8.09304 57.278 8.12602ZM15.1401 34.5832H11.2931C11.1875 34.2401 11.0581 33.9048 10.9057 33.5798C10.7516 33.2536 10.5414 32.9569 10.2847 32.7033C10.0128 32.4403 9.69108 32.2343 9.33846 32.0974C8.91157 31.9401 8.45881 31.8649 8.00399 31.8756C7.35352 31.8438 6.70879 32.0106 6.15529 32.3537C5.70465 32.6565 5.33663 33.067 5.08466 33.5479C4.83462 34.0315 4.66708 34.5536 4.5889 35.0924C4.42307 36.1047 4.42307 37.1372 4.5889 38.1495C4.66695 38.6884 4.8345 39.2105 5.08466 39.6941C5.33618 40.1751 5.70431 40.5853 6.15529 40.8874C6.70838 41.2316 7.35334 41.3987 8.00399 41.3664C8.42121 41.3984 8.84048 41.3411 9.23377 41.1982C9.62707 41.0553 9.98537 40.8302 10.2847 40.5378C10.785 39.9978 11.142 39.3411 11.3233 38.6277H15.1401C15.0392 39.3898 14.8354 40.1347 14.5342 40.842C14.2846 41.4184 13.9672 41.9632 13.5889 42.4647C13.2626 42.8928 12.876 43.2712 12.441 43.5882C11.1569 44.5317 9.5971 45.0247 8.00399 44.9907C6.71992 44.994 5.45397 44.6879 4.31326 44.0983C3.83024 43.8228 3.3776 43.4972 2.96285 43.1269C2.49207 42.7012 2.09457 42.201 1.78636 41.6462C1.41552 40.9762 1.13898 40.2582 0.964536 39.5126C0.550765 37.6019 0.550765 35.6249 0.964536 33.7143C1.14128 32.9615 1.42422 32.2377 1.80487 31.5647C2.39874 30.5069 3.28086 29.6396 4.34855 29.0638C5.48381 28.4542 6.74916 28.1268 8.03764 28.1092C9.13107 28.1404 10.2072 28.3895 11.2032 28.842C11.6411 29.0483 12.057 29.2986 12.4443 29.589C12.8795 29.9211 13.2659 30.3126 13.5922 30.7521C14.423 31.8766 14.9555 33.1931 15.1401 34.579V34.5832ZM17.3939 36.621C17.3794 35.6461 17.4819 34.6731 17.699 33.7227C17.8719 32.9738 18.1429 32.2511 18.5049 31.5731C18.8076 31.0101 19.1988 30.4993 19.6637 30.0605C20.0664 29.6812 20.5113 29.3493 20.9897 29.0714C22.0904 28.4463 23.3344 28.1177 24.6002 28.1177C25.866 28.1177 27.1101 28.4463 28.2107 29.0714C28.6883 29.3494 29.1324 29.6812 29.5343 30.0605C29.9994 30.4993 30.3909 31.01 30.6939 31.5731C31.0575 32.2522 31.3339 32.9744 31.5166 33.7227C31.9415 35.6321 31.9415 37.6116 31.5166 39.521C31.3356 40.2647 31.0591 40.9818 30.6939 41.6546C30.391 42.2083 29.9992 42.7085 29.5343 43.1353C28.1903 44.3761 26.4282 45.0651 24.599 45.0651C22.7698 45.0651 21.0077 44.3761 19.6637 43.1353C19.199 42.7084 18.8075 42.2082 18.5049 41.6546C18.1413 40.9829 17.8703 40.2652 17.699 39.521C17.4811 38.5675 17.3786 37.5913 17.3939 36.6134V36.621ZM24.6149 31.8756C23.9757 31.8449 23.3425 32.0118 22.8015 32.3537C22.3572 32.658 21.9961 33.0685 21.7511 33.5479C21.5046 34.0324 21.3396 34.5542 21.2628 35.0924C21.1015 36.1051 21.1015 37.1369 21.2628 38.1495C21.3395 38.6877 21.5044 39.2096 21.7511 39.6941C21.9957 40.1735 22.3569 40.5839 22.8015 40.8874C23.3541 41.2013 23.9789 41.3664 24.6145 41.3664C25.2501 41.3664 25.8749 41.2013 26.4275 40.8874C26.8723 40.5839 27.2338 40.1736 27.4788 39.6941C27.7253 39.2097 27.8897 38.6877 27.9654 38.1495C28.1301 37.1372 28.1301 36.1048 27.9654 35.0924C27.8895 34.5542 27.7252 34.0323 27.4788 33.5479C27.2334 33.0684 26.872 32.6579 26.4275 32.3537C25.8874 32.0102 25.2544 31.8418 24.6149 31.8714V31.8756ZM38.1922 32.3227V39.4235C38.2564 39.6797 38.3757 39.9189 38.5418 40.1243C38.7204 40.3174 38.9304 40.4788 39.1628 40.6016C39.4837 40.7628 39.8402 40.8397 40.199 40.8252H42.6191V44.679H38.7351C37.9499 44.608 37.1892 44.3687 36.5048 43.9773C35.9062 43.6175 35.3907 43.1349 34.9922 42.5613C34.4951 41.7903 34.2553 40.8815 34.3074 39.9655V24.8159H38.1931V28.5277H42.1426V32.3185H38.1931L38.1922 32.3227ZM48.9553 32.3227V39.4235C49.0198 39.6798 49.1394 39.919 49.3057 40.1243C49.4841 40.3176 49.6941 40.479 49.9267 40.6016C50.2473 40.7626 50.6036 40.8396 50.962 40.8252H53.383V44.679H49.4973C48.7124 44.6077 47.952 44.3684 47.2679 43.9773C46.6692 43.6176 46.1536 43.135 45.7553 42.5613C45.2577 41.7905 45.0179 40.8815 45.0704 39.9655V24.8159H48.9553V28.5277H52.9048V32.3185H48.9553V32.3227ZM70.167 44.6756H66.3763V42.4453L67.0763 41.521C66.7915 42.3005 66.3221 42.9995 65.7082 43.5579C65.2242 43.9823 64.6755 44.3267 64.083 44.5781C63.4701 44.8102 62.8261 44.9498 62.1721 44.9924C60.9478 44.9947 59.7427 44.6877 58.6687 44.1C58.2016 43.829 57.7688 43.5028 57.3796 43.1285C56.9338 42.6953 56.5574 42.1958 56.2637 41.6479C55.9054 40.9749 55.6379 40.2574 55.4679 39.5143C55.2529 38.5635 55.1513 37.5906 55.1653 36.6159C55.1508 35.6404 55.2575 34.6668 55.483 33.7176C55.6655 32.9659 55.95 32.2427 56.3284 31.568C56.6473 31.002 57.0556 30.4912 57.5376 30.0554C57.9611 29.6754 58.4256 29.3437 58.9225 29.0664C60.0941 28.4556 61.3929 28.1286 62.7141 28.1117C63.8779 28.081 65.0363 28.2809 66.1225 28.7C67.018 29.065 67.8101 29.6445 68.4292 30.3874C69.0608 31.1718 69.5124 32.0855 69.7519 33.0638C70.0425 34.2354 70.182 35.4392 70.167 36.6462V44.6722V44.6756ZM62.7141 31.8722C62.0488 31.8403 61.3889 32.0067 60.8183 32.3504C60.3579 32.6501 59.9802 33.0607 59.72 33.5445C59.4631 34.0264 59.2908 34.5488 59.2107 35.089C59.0404 36.101 59.0404 37.1343 59.2107 38.1462C59.2907 38.6864 59.4629 39.2089 59.72 39.6907C59.9797 40.1747 60.3575 40.5851 60.8183 40.884C61.4006 41.1983 62.052 41.3629 62.7137 41.3629C63.3754 41.3629 64.0268 41.1983 64.6091 40.884C65.0712 40.5818 65.4535 40.1725 65.7233 39.6907C65.9891 39.2113 66.167 38.6882 66.2486 38.1462C66.3298 37.6406 66.3724 37.1296 66.3763 36.6176C66.3762 36.0477 66.3389 35.4784 66.2645 34.9134C66.1986 34.3793 66.0369 33.8615 65.7872 33.3848C65.5346 32.9202 65.1528 32.5388 64.688 32.2865C64.0762 31.9822 63.3967 31.8402 62.7141 31.8722ZM67.5393 0.443665C67.0186 0.443831 66.5096 0.598402 66.0767 0.887833C65.6439 1.17726 65.3066 1.58856 65.1074 2.0697C64.9083 2.55084 64.8563 3.08021 64.9581 3.59089C65.0598 4.10156 65.3108 4.5706 65.6791 4.93868C66.0474 5.30677 66.5166 5.55737 67.0273 5.65879C67.5381 5.76021 68.0674 5.7079 68.5484 5.50848C69.0295 5.30906 69.4405 4.97148 69.7297 4.53843C70.0188 4.10538 70.1731 3.59631 70.1729 3.0756C70.1726 2.73008 70.1042 2.38801 69.9716 2.06891C69.8391 1.74982 69.645 1.45996 69.4005 1.21587C69.1559 0.971786 68.8657 0.778259 68.5463 0.64634C68.227 0.514422 67.8848 0.446693 67.5393 0.447024V0.443665ZM67.8284 3.42602C67.8365 3.48235 67.8541 3.53691 67.8805 3.58736C67.9063 3.63763 67.9448 3.68023 67.9923 3.71089C68.0489 3.74658 68.1152 3.7639 68.1821 3.76047C68.2251 3.7642 68.2684 3.75861 68.309 3.74411C68.3496 3.72961 68.3866 3.70653 68.4174 3.67643C68.4697 3.62063 68.5067 3.55234 68.525 3.47812H68.9208C68.9103 3.5571 68.8891 3.63428 68.8578 3.70753C68.8322 3.7673 68.7995 3.82374 68.7603 3.87559C68.7268 3.9204 68.6868 3.96004 68.6418 3.99325C68.6013 4.02258 68.5583 4.04817 68.5133 4.06971C68.4092 4.11634 68.2962 4.13985 68.1821 4.13862C67.9895 4.14569 67.8019 4.0762 67.6603 3.94534C67.6516 3.93598 67.6437 3.92586 67.6368 3.91509C67.6125 3.94319 67.5861 3.96932 67.5578 3.99325C67.5175 4.02239 67.4748 4.04797 67.4301 4.06971C67.3244 4.1169 67.2096 4.14042 67.0939 4.13862C66.9615 4.13891 66.831 4.1075 66.7132 4.04702C66.6631 4.01832 66.6161 3.98453 66.5729 3.94618C66.524 3.9021 66.4828 3.85012 66.451 3.7924C66.4124 3.72352 66.3841 3.64934 66.367 3.57223C66.3433 3.47376 66.3323 3.37267 66.3343 3.2714V2.01845H66.7368V2.46719H67.1426V2.85963H66.7368V3.26551C66.7333 3.32148 66.7333 3.37761 66.7368 3.43358C66.7457 3.48974 66.7633 3.54416 66.7889 3.59492C66.8146 3.64496 66.8528 3.68751 66.8998 3.71845C66.9566 3.7538 67.0228 3.77108 67.0897 3.76803C67.1329 3.77178 67.1764 3.76622 67.2173 3.75172C67.2582 3.73723 67.2955 3.71413 67.3267 3.684C67.379 3.6282 67.416 3.55991 67.4343 3.48568C67.422 3.41713 67.415 3.34774 67.4132 3.27812C67.4116 3.17724 67.4221 3.07653 67.4443 2.97812C67.4609 2.90005 67.4892 2.82496 67.5284 2.75543C67.5609 2.69701 67.6023 2.644 67.6511 2.59829C67.6939 2.55862 67.7413 2.52421 67.7922 2.49576C67.9102 2.43345 68.0412 2.39977 68.1746 2.39745C68.2877 2.40128 68.399 2.42696 68.5023 2.47307C68.5476 2.49491 68.5906 2.52109 68.6309 2.55123C68.676 2.58564 68.716 2.62639 68.7494 2.67223C68.7881 2.72441 68.8208 2.78079 68.8468 2.8403C68.8779 2.9125 68.8991 2.98852 68.9099 3.06635H68.52C68.5088 3.0309 68.4956 2.99611 68.4805 2.96215C68.4639 2.92845 68.4417 2.89777 68.4149 2.87139C68.387 2.84424 68.3538 2.82308 68.3174 2.80921C68.2734 2.7929 68.2266 2.7852 68.1796 2.78652C68.1127 2.78309 68.0464 2.80041 67.9897 2.8361C67.9422 2.86675 67.9037 2.90936 67.8779 2.95963C67.8516 3.01009 67.834 3.06464 67.8259 3.12098C67.8178 3.17326 67.8136 3.22606 67.8133 3.27896C67.8147 3.32939 67.8198 3.37966 67.8284 3.42938V3.42602Z" fill="white"/>
</svg>
