<svg width="20" height="21" viewBox="0 0 20 21" fill="none" xmlns="http://www.w3.org/2000/svg">
  <path d="M19.9287 7.96995C19.8422 7.69342 19.6792 7.4494 19.46 7.26827C19.2408 7.08714 18.9751 6.97691 18.6959 6.95131L13.3944 6.47718L11.3163 1.35064C11.2081 1.08164 11.0256 0.851865 10.7918 0.690244C10.558 0.528623 10.2833 0.442383 10.0023 0.442383C9.72132 0.442383 9.44663 0.528623 9.21281 0.690244C8.97899 0.851865 8.79649 1.08164 8.6883 1.35064L6.61643 6.47718L1.30866 6.95409C1.0284 6.97852 0.761325 7.08825 0.540936 7.26951C0.320546 7.45077 0.15665 7.6955 0.069801 7.97301C-0.0170481 8.25052 -0.0229844 8.54845 0.0527368 8.82945C0.128458 9.11044 0.282466 9.36199 0.495447 9.55255L4.52224 13.203L3.31537 18.624C3.25155 18.9077 3.26976 19.2046 3.36772 19.4776C3.46568 19.7506 3.63904 19.9876 3.86613 20.159C4.09323 20.3303 4.36397 20.4284 4.64452 20.441C4.92506 20.4536 5.20296 20.3801 5.44347 20.2297L9.99605 17.359L14.5584 20.2297C14.799 20.3801 15.0769 20.4536 15.3574 20.441C15.6379 20.4284 15.9087 20.3303 16.1358 20.159C16.3629 19.9876 16.5362 19.7506 16.6342 19.4776C16.7322 19.2046 16.7504 18.9077 16.6865 18.624L15.4806 13.1974L19.5065 9.55255C19.7194 9.36133 19.8731 9.10907 19.9483 8.82748C20.0234 8.54589 20.0166 8.24754 19.9287 7.96995Z" fill="#FF6C22" />
</svg>