<svg width="14" height="14" viewBox="0 0 14 14" fill="none" xmlns="http://www.w3.org/2000/svg">
  <path d="M13.9501 5.52617C13.8895 5.33957 13.7754 5.17491 13.622 5.05269C13.4686 4.93047 13.2826 4.85609 13.0872 4.83882L9.37609 4.51889L7.92141 1.05964C7.84567 0.878131 7.71792 0.723084 7.55425 0.614027C7.39057 0.50497 7.19829 0.446777 7.00161 0.446777C6.80493 0.446777 6.61264 0.50497 6.44897 0.614027C6.28529 0.723084 6.15755 0.878131 6.08181 1.05964L4.6315 4.51889L0.916063 4.84069C0.719879 4.85718 0.532928 4.93122 0.378655 5.05353C0.224382 5.17584 0.109655 5.34098 0.0488607 5.52823C-0.0119337 5.71549 -0.0160891 5.91652 0.0369158 6.10613C0.0899206 6.29574 0.197726 6.46548 0.346813 6.59406L3.16557 9.05727L2.32076 12.7152C2.27608 12.9066 2.28883 13.107 2.3574 13.2912C2.42597 13.4754 2.54733 13.6353 2.70629 13.751C2.86526 13.8666 3.05478 13.9328 3.25116 13.9413C3.44754 13.9498 3.64207 13.9002 3.81043 13.7987L6.99723 11.8617L10.1909 13.7987C10.3593 13.9002 10.5538 13.9498 10.7502 13.9413C10.9466 13.9328 11.1361 13.8666 11.295 13.751C11.454 13.6353 11.5754 13.4754 11.6439 13.2912C11.7125 13.107 11.7253 12.9066 11.6806 12.7152L10.8364 9.05352L13.6545 6.59406C13.8036 6.46503 13.9112 6.29481 13.9638 6.1048C14.0164 5.91479 14.0116 5.71348 13.9501 5.52617Z" fill="white" />
</svg>