<svg width="311" height="44" viewBox="0 0 311 44" fill="none" xmlns="http://www.w3.org/2000/svg">
<path fill-rule="evenodd" clip-rule="evenodd" d="M26.0261 38.8235L34.5098 9.4902L12.2222 15.9608L23.4379 27.1765L21.4248 34.2222L0 12.7974L44 0L31.2026 44L26.0261 38.8235Z" fill="#FF6C22"/>
<path d="M310.958 33.3005V34.1527H305.4L303.177 29.1136H291.023L288.8 34.1527H283.242V33.3005L294.024 9.84619H300.175L310.958 33.3005ZM301.064 24.2967L297.1 15.2559L293.135 24.2967H301.064Z" fill="#383838"/>
<path d="M280.839 9.84619V34.1527H275.244V9.84619H280.839Z" fill="#383838"/>
<path d="M257.638 9.84619C262.183 9.84619 265.616 10.859 267.938 12.8845C270.285 14.8853 271.458 17.8619 271.458 21.8142V22.2218C271.458 26.1741 270.297 29.1506 267.975 31.1515C265.653 33.1523 262.208 34.1527 257.638 34.1527H245.521V9.84619H257.638ZM257.638 29.1506C260.429 29.1506 262.479 28.5948 263.788 27.4832C265.122 26.3717 265.789 24.6425 265.789 22.2959V21.7771C265.789 19.4552 265.11 17.7261 263.751 16.5898C262.393 15.4288 260.343 14.8483 257.601 14.8483H251.079V29.1506H257.638Z" fill="#383838"/>
<path d="M241.086 9.84619V14.7371H225.042V19.554H240.345V24.4079H225.042V29.2618H241.086V34.1527H219.484V9.84619H241.086Z" fill="#383838"/>
<path d="M214.435 34.1527H208.914V17.4049L201.059 34.1527H195.464L187.609 17.3308V34.1527H182.088V9.84619H189.758L198.28 27.8908L206.765 9.84619H214.435V34.1527Z" fill="#383838"/>
<path d="M178.219 10.6984L166.992 20.5915L177.7 33.3005V34.1527H171.179L162.657 24.0003L158.247 27.8538V34.1527H152.689V9.84619H158.247V21.1843L171.179 9.84619H178.219V10.6984Z" fill="#383838"/>
<path d="M134.606 34.5977C131.667 34.5977 129.086 34.0913 126.862 33.0785C124.639 32.0657 122.923 30.633 121.712 28.7804C120.526 26.9031 119.934 24.7169 119.934 22.2221V21.8145C119.934 19.3196 120.526 17.1459 121.712 15.2932C122.923 13.4159 124.639 11.9708 126.862 10.9581C129.086 9.92059 131.667 9.40186 134.606 9.40186C137.324 9.40186 139.757 9.84649 141.906 10.7358C144.08 11.625 145.772 12.8601 146.982 14.441C148.217 16.0219 148.835 17.8005 148.835 19.7766V20.073H143.166V19.7766C143.166 18.7638 142.795 17.8622 142.054 17.0718C141.338 16.2813 140.325 15.6638 139.016 15.2191C137.731 14.7745 136.249 14.5522 134.569 14.5522C131.63 14.5522 129.394 15.1697 127.863 16.4048C126.356 17.6399 125.603 19.4184 125.603 21.7404V22.2962C125.603 24.6428 126.356 26.4214 127.863 27.6318C129.37 28.8421 131.618 29.4473 134.606 29.4473C137.2 29.4473 139.275 28.978 140.831 28.0393C142.387 27.076 143.166 25.8162 143.166 24.26V24.0006H148.835V24.26C148.835 26.2361 148.217 28.0146 146.982 29.5955C145.772 31.1518 144.08 32.3745 141.906 33.2638C139.757 34.153 137.324 34.5977 134.606 34.5977Z" fill="#383838"/>
<path d="M116.161 9.84619V34.1527H110.566V9.84619H116.161Z" fill="#383838"/>
<path d="M91.5755 9.84619V29.1506H108.064V34.1527H86.0176V9.84619H91.5755Z" fill="#383838"/>
<path d="M67.9346 34.5977C64.9951 34.5977 62.4137 34.0913 60.1906 33.0785C57.9674 32.0657 56.2506 30.633 55.0402 28.7804C53.8546 26.9031 53.2617 24.7169 53.2617 22.2221V21.8145C53.2617 19.3196 53.8546 17.1459 55.0402 15.2932C56.2506 13.4159 57.9674 11.9708 60.1906 10.9581C62.4137 9.92059 64.9951 9.40186 67.9346 9.40186C70.6518 9.40186 73.0849 9.84649 75.2339 10.7358C77.4077 11.625 79.0998 12.8601 80.3101 14.441C81.5452 16.0219 82.1628 17.8005 82.1628 19.7766V20.073H76.4937V19.7766C76.4937 18.7638 76.1232 17.8622 75.3821 17.0718C74.6658 16.2813 73.653 15.6638 72.3438 15.2191C71.0593 14.7745 69.5772 14.5522 67.8975 14.5522C64.958 14.5522 62.7225 15.1697 61.191 16.4048C59.6842 17.6399 58.9308 19.4184 58.9308 21.7404V22.2962C58.9308 24.6428 59.6842 26.4214 61.191 27.6318C62.6978 28.8421 64.9456 29.4473 67.9346 29.4473C70.5282 29.4473 72.6032 28.978 74.1594 28.0393C75.7156 27.076 76.4937 25.8162 76.4937 24.26V24.0006H82.1628V24.26C82.1628 26.2361 81.5452 28.0146 80.3101 29.5955C79.0998 31.1518 77.4077 32.3745 75.2339 33.2638C73.0849 34.153 70.6518 34.5977 67.9346 34.5977Z" fill="#383838"/>
</svg>
