<svg width="271" height="38" viewBox="0 0 271 38" fill="none" xmlns="http://www.w3.org/2000/svg">
<path fill-rule="evenodd" clip-rule="evenodd" d="M22.4771 33.5294L29.8039 8.19608L10.5556 13.7843L20.2418 23.4706L18.5033 29.5556L0 11.0523L38 0L26.9477 38L22.4771 33.5294Z" fill="#FF6C22"/>
<path d="M60.208 29.884C57.6693 29.884 55.44 29.4467 53.52 28.572C51.6 27.6973 50.1173 26.46 49.072 24.86C48.048 23.2387 47.536 21.3507 47.536 19.196V18.844C47.536 16.6893 48.048 14.812 49.072 13.212C50.1173 11.5907 51.6 10.3427 53.52 9.468C55.44 8.572 57.6693 8.124 60.208 8.124C62.5547 8.124 64.656 8.508 66.512 9.276C68.3893 10.044 69.8507 11.1107 70.896 12.476C71.9627 13.8413 72.496 15.3773 72.496 17.084V17.34H67.6V17.084C67.6 16.2093 67.28 15.4307 66.64 14.748C66.0213 14.0653 65.1467 13.532 64.016 13.148C62.9067 12.764 61.6267 12.572 60.176 12.572C57.6373 12.572 55.7067 13.1053 54.384 14.172C53.0827 15.2387 52.432 16.7747 52.432 18.78V19.26C52.432 21.2867 53.0827 22.8227 54.384 23.868C55.6853 24.9133 57.6267 25.436 60.208 25.436C62.448 25.436 64.24 25.0307 65.584 24.22C66.928 23.388 67.6 22.3 67.6 20.956V20.732H72.496V20.956C72.496 22.6627 71.9627 24.1987 70.896 25.564C69.8507 26.908 68.3893 27.964 66.512 28.732C64.656 29.5 62.5547 29.884 60.208 29.884ZM80.6248 8.508V25.18H94.8648V29.5H75.8248V8.508H80.6248ZM101.858 8.508V29.5H97.0255V8.508H101.858ZM117.788 29.884C115.249 29.884 113.02 29.4467 111.1 28.572C109.18 27.6973 107.697 26.46 106.652 24.86C105.628 23.2387 105.116 21.3507 105.116 19.196V18.844C105.116 16.6893 105.628 14.812 106.652 13.212C107.697 11.5907 109.18 10.3427 111.1 9.468C113.02 8.572 115.249 8.124 117.788 8.124C120.135 8.124 122.236 8.508 124.092 9.276C125.969 10.044 127.431 11.1107 128.476 12.476C129.543 13.8413 130.076 15.3773 130.076 17.084V17.34H125.18V17.084C125.18 16.2093 124.86 15.4307 124.22 14.748C123.601 14.0653 122.727 13.532 121.596 13.148C120.487 12.764 119.207 12.572 117.756 12.572C115.217 12.572 113.287 13.1053 111.964 14.172C110.663 15.2387 110.012 16.7747 110.012 18.78V19.26C110.012 21.2867 110.663 22.8227 111.964 23.868C113.265 24.9133 115.207 25.436 117.788 25.436C120.028 25.436 121.82 25.0307 123.164 24.22C124.508 23.388 125.18 22.3 125.18 20.956V20.732H130.076V20.956C130.076 22.6627 129.543 24.1987 128.476 25.564C127.431 26.908 125.969 27.964 124.092 28.732C122.236 29.5 120.135 29.884 117.788 29.884ZM155.453 9.244L145.757 17.788L155.005 28.764V29.5H149.373L142.013 20.732L138.205 24.06V29.5H133.405V8.508H138.205V18.3L149.373 8.508H155.453V9.244ZM186.732 29.5H181.964V15.036L175.18 29.5H170.348L163.564 14.972V29.5H158.796V8.508H165.42L172.78 24.092L180.108 8.508H186.732V29.5ZM209.75 8.508V12.732H195.894V16.892H209.11V21.084H195.894V25.276H209.75V29.5H191.094V8.508H209.75ZM224.043 8.508C227.968 8.508 230.933 9.38267 232.939 11.132C234.965 12.86 235.979 15.4307 235.979 18.844V19.196C235.979 22.6093 234.976 25.18 232.971 26.908C230.965 28.636 227.989 29.5 224.043 29.5H213.579V8.508H224.043ZM224.043 25.18C226.453 25.18 228.224 24.7 229.355 23.74C230.507 22.78 231.083 21.2867 231.083 19.26V18.812C231.083 16.8067 230.496 15.3133 229.323 14.332C228.149 13.3293 226.379 12.828 224.011 12.828H218.379V25.18H224.043ZM244.08 8.508V29.5H239.248V8.508H244.08ZM270.091 28.764V29.5H265.291L263.371 25.148H252.875L250.955 29.5H246.155V28.764L255.467 8.508H260.779L270.091 28.764ZM261.547 20.988L258.123 13.18L254.699 20.988H261.547Z" fill="#383838"/>
</svg>
