<svg width="34" height="34" viewBox="0 0 34 34" fill="none" xmlns="http://www.w3.org/2000/svg">
<path fill-rule="evenodd" clip-rule="evenodd" d="M17.0007 31.1673C10.3224 31.1673 6.9833 31.1673 4.90864 29.0927C2.83398 27.018 2.83398 23.6789 2.83398 17.0007C2.83398 10.3224 2.83398 6.9833 4.90864 4.90864C6.9833 2.83398 10.3224 2.83398 17.0007 2.83398C23.6789 2.83398 27.018 2.83398 29.0927 4.90864C31.1673 6.9833 31.1673 10.3224 31.1673 17.0007C31.1673 23.6789 31.1673 27.018 29.0927 29.0927C27.018 31.1673 23.6789 31.1673 17.0007 31.1673ZM22.7103 12.7077C23.1252 13.1226 23.1252 13.7954 22.7103 14.2103L15.627 21.2936C15.212 21.7086 14.5393 21.7086 14.1243 21.2936L11.291 18.4603C10.8761 18.0454 10.8761 17.3726 11.291 16.9577C11.7059 16.5428 12.3787 16.5428 12.7936 16.9577L14.8757 19.0397L21.2077 12.7077C21.6226 12.2928 22.2954 12.2928 22.7103 12.7077Z" fill="#FF6C22"/>
</svg>
