<svg width="32" height="32" viewBox="0 0 32 32" fill="none" xmlns="http://www.w3.org/2000/svg">
<rect x="1" y="1" width="30" height="30" rx="15" stroke="#DAE3F0" stroke-width="2"/>
<path fill-rule="evenodd" clip-rule="evenodd" d="M24.4462 15.5561C24.7393 15.8492 24.7393 16.3243 24.4462 16.6173L18.4433 22.6203C18.1502 22.9133 17.6751 22.9133 17.3821 22.6203C17.0891 22.3272 17.0891 21.8521 17.3821 21.5591L22.1041 16.8371L7.90774 16.8371C7.49332 16.8371 7.15737 16.5011 7.15737 16.0867C7.15737 15.6723 7.49332 15.3363 7.90774 15.3363L22.1041 15.3363L17.3821 10.6143C17.0891 10.3213 17.0891 9.84619 17.3821 9.55315C17.6751 9.26011 18.1502 9.26011 18.4433 9.55315L24.4462 15.5561Z" fill="#9FAEC2" stroke="#9FAEC2" stroke-width="0.75"/>
</svg>
