<svg width="294" height="220" viewBox="0 0 294 220" fill="none" xmlns="http://www.w3.org/2000/svg">
<path d="M251.197 32.384H42.1309V57.992H251.197V32.384Z" fill="#FF6C22"/>
<path d="M251.204 58.3513H42.1303C42.0331 58.3513 41.9398 58.3127 41.8711 58.2439C41.8023 58.1752 41.7637 58.0819 41.7637 57.9847V32.384C41.7637 32.2868 41.8023 32.1935 41.8711 32.1247C41.9398 32.056 42.0331 32.0173 42.1303 32.0173H251.204C251.301 32.0173 251.394 32.056 251.463 32.1247C251.532 32.1935 251.57 32.2868 251.57 32.384V57.9847C251.57 58.0819 251.532 58.1752 251.463 58.2439C251.394 58.3127 251.301 58.3513 251.204 58.3513ZM42.5337 57.618H250.874V32.7507H42.5337V57.618Z" fill="#231F20"/>
<path d="M251.197 57.9847H42.1309V187.616H251.197V57.9847Z" fill="white"/>
<path d="M251.204 187.983H42.1303C42.0331 187.983 41.9398 187.944 41.8711 187.875C41.8023 187.807 41.7637 187.713 41.7637 187.616V57.9847C41.7655 57.888 41.8048 57.7958 41.8731 57.7275C41.9415 57.6591 42.0337 57.6199 42.1303 57.618H251.204C251.3 57.6199 251.393 57.6591 251.461 57.7275C251.529 57.7958 251.568 57.888 251.57 57.9847V187.616C251.57 187.713 251.532 187.807 251.463 187.875C251.394 187.944 251.301 187.983 251.204 187.983ZM42.497 187.249H250.837V58.3513H42.5337L42.497 187.249Z" fill="#231F20"/>
<path d="M59.694 47.0507H61.784C61.872 47.0507 61.9013 47.0507 61.9013 47.168V53.702H64.688V47.1607C64.688 47.0727 64.688 47.0507 64.798 47.0507H66.8733C66.9687 47.0507 66.998 47.0507 67.0053 46.9407L67.1373 45.8773C67.1887 45.518 67.2327 45.144 67.2767 44.8067C67.2767 44.66 67.3133 44.5133 67.3353 44.352H64.8126C64.688 44.352 64.688 44.352 64.688 44.2273C64.688 43.626 64.688 43.0173 64.688 42.4087C64.6923 42.2448 64.7271 42.0831 64.7907 41.932C64.8527 41.7859 64.9542 41.6598 65.0836 41.5679C65.2131 41.476 65.3655 41.4218 65.524 41.4113C65.6595 41.3858 65.7968 41.3711 65.9347 41.3673H67.3207C67.416 41.3673 67.4453 41.3673 67.4453 41.25C67.4453 40.5167 67.4453 39.7833 67.4453 39.05C67.4453 38.9693 67.4453 38.9253 67.328 38.9253C66.9613 38.9253 66.5947 38.8667 66.2353 38.852C65.876 38.8373 65.502 38.852 65.15 38.852C64.4303 38.8585 63.7305 39.0892 63.148 39.512C62.6087 39.9298 62.2241 40.5156 62.0553 41.1767C61.9593 41.533 61.91 41.9003 61.9087 42.2693V44.2493C61.9087 44.3447 61.9087 44.3667 61.7913 44.3667H59.7086C59.584 44.3667 59.584 44.3667 59.584 44.484V46.9333C59.584 47.0287 59.606 47.0507 59.694 47.0507Z" fill="white"/>
<path d="M186.077 41.0667H83.7549C81.5679 41.0667 79.7949 42.8396 79.7949 45.0267C79.7949 47.2137 81.5679 48.9867 83.7549 48.9867H186.077C188.264 48.9867 190.037 47.2137 190.037 45.0267C190.037 42.8396 188.264 41.0667 186.077 41.0667Z" fill="white"/>
<path d="M205.385 49.6613C208.058 49.6613 210.225 47.4944 210.225 44.8213C210.225 42.1483 208.058 39.9813 205.385 39.9813C202.712 39.9813 200.545 42.1483 200.545 44.8213C200.545 47.4944 202.712 49.6613 205.385 49.6613Z" fill="white"/>
<path d="M219.774 49.6613C222.447 49.6613 224.614 47.4944 224.614 44.8213C224.614 42.1483 222.447 39.9813 219.774 39.9813C217.101 39.9813 214.934 42.1483 214.934 44.8213C214.934 47.4944 217.101 49.6613 219.774 49.6613Z" fill="white"/>
<path d="M234.168 49.6613C236.841 49.6613 239.008 47.4944 239.008 44.8213C239.008 42.1483 236.841 39.9813 234.168 39.9813C231.495 39.9813 229.328 42.1483 229.328 44.8213C229.328 47.4944 231.495 49.6613 234.168 49.6613Z" fill="white"/>
<path d="M185.878 101.405H105.681C104.482 101.405 103.332 100.93 102.484 100.083C101.636 99.2357 101.158 98.0867 101.156 96.888V72.9667C101.158 71.7672 101.636 70.6175 102.484 69.7694C103.332 68.9213 104.481 68.4439 105.681 68.442H185.878C187.078 68.4439 188.227 68.9213 189.076 69.7694C189.924 70.6175 190.401 71.7672 190.403 72.9667V96.888C190.401 98.0867 189.923 99.2357 189.075 100.083C188.227 100.93 187.077 101.405 185.878 101.405ZM105.681 69.1753C104.676 69.1773 103.713 69.5773 103.002 70.2879C102.292 70.9985 101.892 71.9617 101.89 72.9667V96.888C101.892 97.8922 102.292 98.8547 103.003 99.5641C103.713 100.274 104.677 100.672 105.681 100.672H185.878C186.883 100.672 187.846 100.274 188.557 99.5641C189.267 98.8547 189.668 97.8922 189.67 96.888V72.9667C189.668 71.9617 189.268 70.9985 188.557 70.2879C187.846 69.5773 186.883 69.1773 185.878 69.1753H105.681Z" fill="#D1D3D4"/>
<path d="M183.011 86.394H109.267C108.878 86.394 108.505 86.2395 108.23 85.9644C107.955 85.6894 107.801 85.3163 107.801 84.9273C107.801 84.5383 107.955 84.1653 108.23 83.8902C108.505 83.6152 108.878 83.4607 109.267 83.4607H183.011C183.4 83.4607 183.773 83.6152 184.049 83.8902C184.324 84.1653 184.478 84.5383 184.478 84.9273C184.478 85.3163 184.324 85.6894 184.049 85.9644C183.773 86.2395 183.4 86.394 183.011 86.394Z" fill="#D1D3D4"/>
<path d="M177.57 94.402H109.267C108.878 94.402 108.505 94.2475 108.23 93.9724C107.955 93.6974 107.801 93.3243 107.801 92.9353C107.801 92.5464 107.955 92.1733 108.23 91.8982C108.505 91.6232 108.878 91.4687 109.267 91.4687H177.592C177.981 91.4687 178.354 91.6232 178.629 91.8982C178.904 92.1733 179.059 92.5464 179.059 92.9353C179.059 93.3243 178.904 93.6974 178.629 93.9724C178.354 94.2475 177.981 94.402 177.592 94.402H177.57Z" fill="#D1D3D4"/>
<path d="M185.878 140.426H105.681C104.481 140.424 103.332 139.947 102.484 139.099C101.636 138.25 101.158 137.101 101.156 135.901V111.98C101.158 110.781 101.636 109.632 102.484 108.785C103.332 107.938 104.482 107.463 105.681 107.463H185.878C187.077 107.463 188.227 107.938 189.075 108.785C189.923 109.632 190.401 110.781 190.403 111.98V135.901C190.401 137.101 189.924 138.25 189.076 139.099C188.227 139.947 187.078 140.424 185.878 140.426ZM105.681 108.159C104.677 108.159 103.713 108.558 103.003 109.267C102.292 109.977 101.892 110.939 101.89 111.943V135.865C101.892 136.87 102.292 137.833 103.002 138.543C103.713 139.254 104.676 139.654 105.681 139.656H185.878C186.883 139.654 187.846 139.254 188.557 138.543C189.268 137.833 189.668 136.87 189.67 135.865V111.98C189.668 110.976 189.267 110.013 188.557 109.304C187.846 108.594 186.883 108.196 185.878 108.196L105.681 108.159Z" fill="#D1D3D4"/>
<path d="M183.011 125.4H109.267C108.878 125.4 108.505 125.245 108.23 124.97C107.955 124.695 107.801 124.322 107.801 123.933C107.801 123.544 107.955 123.171 108.23 122.896C108.505 122.621 108.878 122.467 109.267 122.467H183.011C183.4 122.467 183.773 122.621 184.049 122.896C184.324 123.171 184.478 123.544 184.478 123.933C184.478 124.322 184.324 124.695 184.049 124.97C183.773 125.245 183.4 125.4 183.011 125.4Z" fill="#D1D3D4"/>
<path d="M177.57 133.415H109.267C108.878 133.415 108.505 133.261 108.23 132.986C107.955 132.711 107.801 132.338 107.801 131.949C107.801 131.56 107.955 131.187 108.23 130.912C108.505 130.637 108.878 130.482 109.267 130.482H177.592C177.981 130.482 178.354 130.637 178.629 130.912C178.904 131.187 179.059 131.56 179.059 131.949C179.059 132.338 178.904 132.711 178.629 132.986C178.354 133.261 177.981 133.415 177.592 133.415H177.57Z" fill="#D1D3D4"/>
<path d="M185.878 179.439H105.681C104.482 179.439 103.332 178.964 102.484 178.117C101.636 177.27 101.158 176.121 101.156 174.922V151.001C101.158 149.801 101.636 148.652 102.484 147.803C103.332 146.955 104.481 146.478 105.681 146.476H185.878C187.078 146.478 188.227 146.955 189.076 147.803C189.924 148.652 190.401 149.801 190.403 151.001V174.922C190.401 176.121 189.923 177.27 189.075 178.117C188.227 178.964 187.077 179.439 185.878 179.439ZM105.681 147.209C104.676 147.211 103.713 147.611 103.002 148.322C102.292 149.033 101.892 149.996 101.89 151.001V174.922C101.892 175.926 102.292 176.889 103.003 177.598C103.713 178.308 104.677 178.706 105.681 178.706H185.878C186.883 178.706 187.846 178.308 188.557 177.598C189.267 176.889 189.668 175.926 189.67 174.922V151.001C189.668 149.996 189.268 149.033 188.557 148.322C187.846 147.611 186.883 147.211 185.878 147.209H105.681Z" fill="#D1D3D4"/>
<path d="M183.011 164.428H109.267C108.878 164.428 108.505 164.273 108.23 163.998C107.955 163.723 107.801 163.35 107.801 162.961C107.801 162.572 107.955 162.199 108.23 161.924C108.505 161.649 108.878 161.495 109.267 161.495H183.011C183.4 161.495 183.773 161.649 184.049 161.924C184.324 162.199 184.478 162.572 184.478 162.961C184.478 163.35 184.324 163.723 184.049 163.998C183.773 164.273 183.4 164.428 183.011 164.428Z" fill="#D1D3D4"/>
<path d="M177.57 172.436H109.267C108.878 172.436 108.505 172.281 108.23 172.006C107.955 171.731 107.801 171.358 107.801 170.969C107.801 170.58 107.955 170.207 108.23 169.932C108.505 169.657 108.878 169.503 109.267 169.503H177.592C177.981 169.503 178.354 169.657 178.629 169.932C178.904 170.207 179.059 170.58 179.059 170.969C179.059 171.358 178.904 171.731 178.629 172.006C178.354 172.281 177.981 172.436 177.592 172.436H177.57Z" fill="#D1D3D4"/>
<path d="M56.5186 130.049C55.8123 130.049 55.1218 129.84 54.5345 129.447C53.9472 129.055 53.4894 128.497 53.2191 127.845C52.9488 127.192 52.8781 126.474 53.0159 125.781C53.1537 125.088 53.4938 124.452 53.9933 123.953C54.4927 123.453 55.1291 123.113 55.8219 122.975C56.5146 122.837 57.2327 122.908 57.8853 123.178C58.5379 123.449 59.0956 123.907 59.4881 124.494C59.8805 125.081 60.0899 125.772 60.0899 126.478C60.0899 127.425 59.7137 128.334 59.0439 129.003C58.3742 129.673 57.4658 130.049 56.5186 130.049ZM56.5186 123.64C55.9573 123.64 55.4086 123.806 54.9419 124.118C54.4752 124.43 54.1114 124.873 53.8966 125.392C53.6818 125.911 53.6256 126.481 53.7351 127.032C53.8446 127.582 54.1149 128.088 54.5118 128.485C54.9087 128.882 55.4144 129.152 55.9649 129.261C56.5155 129.371 57.0861 129.315 57.6047 129.1C58.1232 128.885 58.5665 128.521 58.8783 128.055C59.1902 127.588 59.3566 127.039 59.3566 126.478C59.3566 125.725 59.0576 125.003 58.5254 124.471C57.9931 123.939 57.2713 123.64 56.5186 123.64Z" fill="#D1D3D4"/>
<path d="M90.031 127.945H64.2323C63.8433 127.945 63.4703 127.79 63.1952 127.515C62.9202 127.24 62.7656 126.867 62.7656 126.478C62.7656 126.089 62.9202 125.716 63.1952 125.441C63.4703 125.166 63.8433 125.011 64.2323 125.011H90.031C90.4199 125.011 90.793 125.166 91.0681 125.441C91.3431 125.716 91.4976 126.089 91.4976 126.478C91.4976 126.867 91.3431 127.24 91.0681 127.515C90.793 127.79 90.4199 127.945 90.031 127.945Z" fill="#D1D3D4"/>
<path d="M56.5176 142.465C55.8095 142.466 55.1169 142.257 54.5274 141.865C53.938 141.473 53.4781 140.914 53.2062 140.261C52.9342 139.607 52.8623 138.887 52.9995 138.192C53.1368 137.498 53.477 136.859 53.9772 136.358C54.4774 135.857 55.1151 135.515 55.8094 135.377C56.5038 135.238 57.2238 135.308 57.8781 135.579C58.5324 135.85 59.0918 136.308 59.4854 136.897C59.8789 137.486 60.089 138.178 60.089 138.886C60.089 139.834 59.7129 140.743 59.0434 141.414C58.3739 142.085 57.4655 142.463 56.5176 142.465ZM56.5176 136.048C55.9543 136.047 55.4031 136.212 54.9341 136.524C54.4651 136.837 54.0992 137.281 53.883 137.801C53.6667 138.321 53.6097 138.894 53.7193 139.447C53.8289 139.999 54.1 140.507 54.4984 140.905C54.8967 141.304 55.4044 141.575 55.957 141.684C56.5096 141.794 57.0823 141.737 57.6026 141.521C58.1228 141.304 58.5671 140.939 58.8792 140.47C59.1913 140 59.3571 139.449 59.3556 138.886C59.3556 138.133 59.0566 137.411 58.5244 136.879C57.9922 136.347 57.2703 136.048 56.5176 136.048Z" fill="#D1D3D4"/>
<path d="M90.031 140.353H64.2323C63.8433 140.353 63.4703 140.198 63.1952 139.923C62.9202 139.648 62.7656 139.275 62.7656 138.886C62.7656 138.497 62.9202 138.124 63.1952 137.849C63.4703 137.574 63.8433 137.419 64.2323 137.419H90.031C90.4199 137.419 90.793 137.574 91.0681 137.849C91.3431 138.124 91.4976 138.497 91.4976 138.886C91.4976 139.275 91.3431 139.648 91.0681 139.923C90.793 140.198 90.4199 140.353 90.031 140.353Z" fill="#D1D3D4"/>
<path d="M56.5186 154.873C55.8123 154.873 55.1218 154.663 54.5345 154.271C53.9472 153.878 53.4894 153.321 53.2191 152.668C52.9488 152.015 52.8781 151.297 53.0159 150.605C53.1537 149.912 53.4938 149.275 53.9933 148.776C54.4927 148.277 55.1291 147.936 55.8219 147.799C56.5146 147.661 57.2327 147.732 57.8853 148.002C58.5379 148.272 59.0956 148.73 59.4881 149.317C59.8805 149.905 60.0899 150.595 60.0899 151.301C60.088 152.248 59.7111 153.155 59.0418 153.825C58.3724 154.494 57.4652 154.871 56.5186 154.873ZM56.5186 148.463C55.9573 148.463 55.4086 148.63 54.9419 148.942C54.4752 149.253 54.1114 149.697 53.8966 150.215C53.6818 150.734 53.6256 151.304 53.7351 151.855C53.8446 152.406 54.1149 152.911 54.5118 153.308C54.9087 153.705 55.4144 153.975 55.9649 154.085C56.5155 154.194 57.0861 154.138 57.6047 153.923C58.1232 153.709 58.5665 153.345 58.8783 152.878C59.1902 152.411 59.3566 151.863 59.3566 151.301C59.3566 150.549 59.0576 149.827 58.5254 149.295C57.9931 148.762 57.2713 148.463 56.5186 148.463Z" fill="#D1D3D4"/>
<path d="M90.031 152.768H64.2323C63.8433 152.768 63.4703 152.613 63.1952 152.338C62.9202 152.063 62.7656 151.69 62.7656 151.301C62.7656 150.912 62.9202 150.539 63.1952 150.264C63.4703 149.989 63.8433 149.835 64.2323 149.835H90.031C90.4199 149.835 90.793 149.989 91.0681 150.264C91.3431 150.539 91.4976 150.912 91.4976 151.301C91.4976 151.69 91.3431 152.063 91.0681 152.338C90.793 152.613 90.4199 152.768 90.031 152.768Z" fill="#D1D3D4"/>
<path d="M235.409 68.8087H202.929C199.41 68.8087 196.557 71.6618 196.557 75.1813V105.461C196.557 108.98 199.41 111.833 202.929 111.833H235.409C238.928 111.833 241.781 108.98 241.781 105.461V75.1813C241.781 71.6618 238.928 68.8087 235.409 68.8087Z" fill="#FF6C22"/>
<path d="M235.409 120.113H202.929C199.41 120.113 196.557 122.966 196.557 126.485V156.765C196.557 160.284 199.41 163.137 202.929 163.137H235.409C238.928 163.137 241.781 160.284 241.781 156.765V126.485C241.781 122.966 238.928 120.113 235.409 120.113Z" fill="white"/>
<path d="M235.4 163.533H202.913C201.128 163.531 199.416 162.822 198.152 161.56C196.889 160.298 196.178 158.587 196.174 156.801V126.515C196.176 124.728 196.886 123.015 198.15 121.751C199.413 120.488 201.126 119.777 202.913 119.775H235.4C237.186 119.777 238.898 120.488 240.161 121.752C241.423 123.015 242.132 124.729 242.132 126.515V156.801C242.13 158.586 241.42 160.297 240.158 161.559C238.896 162.822 237.185 163.531 235.4 163.533ZM202.913 120.509C201.321 120.511 199.794 121.144 198.668 122.27C197.542 123.396 196.909 124.922 196.907 126.515V156.801C196.911 158.392 197.545 159.917 198.671 161.041C199.797 162.166 201.322 162.798 202.913 162.8H235.4C236.99 162.798 238.515 162.165 239.639 161.041C240.764 159.916 241.397 158.392 241.398 156.801V126.515C241.398 124.923 240.767 123.397 239.642 122.27C238.517 121.144 236.991 120.511 235.4 120.509H202.913Z" fill="#231F20"/>
<path d="M204.924 83.7027H209.324L214.134 96.9467H209.61L208.964 95.0033H205.034L204.418 96.9467H200.018L204.924 83.7027ZM207.072 88.3227L206.068 91.5933H208.077L207.072 88.3227Z" fill="white"/>
<path d="M215.035 96.9467V83.7027H219.648C220.593 83.6986 221.535 83.8019 222.456 84.0107C223.307 84.2003 224.109 84.5649 224.81 85.0813C225.51 85.609 226.071 86.2985 226.446 87.0907C227.238 89.0702 227.238 91.2785 226.446 93.258C226.085 94.0632 225.549 94.7773 224.876 95.348C224.213 95.8944 223.448 96.3033 222.625 96.5507C221.765 96.8158 220.87 96.9494 219.97 96.9467H215.035ZM219.039 87.4793V93.1333H219.809C220.618 93.1875 221.418 92.945 222.06 92.4513C222.342 92.163 222.558 91.817 222.694 91.4373C222.829 91.0575 222.881 90.6529 222.845 90.2513C222.866 89.8808 222.807 89.51 222.672 89.1645C222.536 88.8189 222.328 88.5067 222.06 88.2493C221.481 87.7454 220.73 87.4829 219.963 87.516L219.039 87.4793Z" fill="white"/>
<path d="M232.863 97.3207C232.371 97.3181 231.88 97.2715 231.397 97.1813C230.921 97.0866 230.455 96.9492 230.003 96.7707C229.564 96.596 229.139 96.3851 228.735 96.14C228.35 95.9075 227.991 95.6346 227.664 95.326L230.201 92.3927C230.531 92.7602 230.923 93.0657 231.36 93.2947C231.809 93.5445 232.313 93.6781 232.827 93.6833C233.046 93.6853 233.263 93.6429 233.465 93.5587C233.557 93.5157 233.633 93.4456 233.685 93.3578C233.736 93.2699 233.759 93.1686 233.751 93.0673C233.755 92.9545 233.721 92.8435 233.655 92.752C233.565 92.6373 233.45 92.5445 233.318 92.4807C233.102 92.3604 232.876 92.2574 232.643 92.1727C232.357 92.0553 231.998 91.9233 231.573 91.7767C231.157 91.6267 230.753 91.4478 230.363 91.2413C229.988 91.0496 229.644 90.8024 229.343 90.508C229.03 90.2005 228.781 89.8342 228.61 89.43C228.425 88.9484 228.338 88.4349 228.353 87.9193C228.33 87.1918 228.491 86.4702 228.823 85.822C229.12 85.2693 229.533 84.7867 230.033 84.4067C230.542 84.03 231.12 83.756 231.734 83.6C232.331 83.4354 232.948 83.3516 233.567 83.3507C234.423 83.3586 235.27 83.5304 236.061 83.8567C236.886 84.1907 237.635 84.6898 238.261 85.3233L235.679 88.1467C235.422 87.7726 235.074 87.4699 234.667 87.2667C234.326 87.0917 233.951 86.9941 233.567 86.9807C233.315 86.97 233.064 87.0177 232.834 87.12C232.747 87.1586 232.674 87.2227 232.624 87.3039C232.574 87.3851 232.55 87.4796 232.555 87.5747C232.553 87.6692 232.579 87.7622 232.63 87.8418C232.681 87.9215 232.755 87.9842 232.841 88.022C233.145 88.1685 233.459 88.2935 233.78 88.396C234.22 88.55 234.689 88.726 235.173 88.924C235.66 89.1175 236.117 89.3792 236.53 89.7013C236.944 90.018 237.291 90.4145 237.549 90.8673C237.836 91.3953 237.975 91.9905 237.953 92.5907C237.97 93.3105 237.817 94.0242 237.505 94.6733C237.229 95.2419 236.831 95.7427 236.339 96.14C235.856 96.5362 235.301 96.835 234.704 97.02C234.11 97.2167 233.489 97.3181 232.863 97.3207Z" fill="white"/>
<path d="M204.922 135.007H209.322L214.133 148.243H209.608L208.999 146.3H205.069L204.453 148.243H200.053L204.922 135.007ZM207.071 139.627L206.066 142.897H208.075L207.071 139.627Z" fill="#231F20"/>
<path d="M215.035 148.243V135.007H219.648C220.593 135.003 221.535 135.106 222.456 135.315C223.305 135.505 224.106 135.867 224.81 136.378C225.51 136.908 226.071 137.6 226.446 138.395C227.238 140.374 227.238 142.582 226.446 144.562C226.086 145.365 225.549 146.077 224.876 146.645C224.214 147.193 223.448 147.605 222.625 147.855C221.764 148.114 220.87 148.245 219.97 148.243H215.035ZM219.039 138.783V144.415H219.809C220.618 144.47 221.418 144.227 222.06 143.733C222.342 143.445 222.558 143.099 222.694 142.719C222.829 142.339 222.881 141.935 222.845 141.533C222.868 141.163 222.809 140.791 222.674 140.446C222.538 140.1 222.329 139.788 222.06 139.531C221.481 139.027 220.73 138.765 219.963 138.798L219.039 138.783Z" fill="#231F20"/>
<path d="M232.863 148.617C232.371 148.618 231.88 148.572 231.397 148.478C230.919 148.39 230.452 148.253 230.003 148.067C229.562 147.896 229.138 147.685 228.735 147.437C228.352 147.204 227.993 146.934 227.664 146.63L230.201 143.697C230.531 144.064 230.923 144.37 231.36 144.599C231.81 144.845 232.314 144.979 232.827 144.987C233.046 144.991 233.264 144.945 233.465 144.855C233.557 144.814 233.634 144.746 233.685 144.659C233.736 144.572 233.759 144.472 233.751 144.371C233.755 144.256 233.722 144.143 233.655 144.049C233.563 143.936 233.448 143.844 233.318 143.777C233.099 143.663 232.873 143.56 232.643 143.469C232.357 143.359 231.998 143.227 231.573 143.081C231.157 142.931 230.753 142.752 230.363 142.545C229.988 142.353 229.645 142.106 229.343 141.812C229.03 141.505 228.781 141.138 228.61 140.734C228.43 140.266 228.343 139.768 228.353 139.267C228.325 138.589 228.464 137.915 228.756 137.302C229.049 136.69 229.487 136.159 230.033 135.755C230.534 135.384 231.102 135.113 231.705 134.955C232.303 134.797 232.919 134.715 233.538 134.713C234.394 134.721 235.24 134.893 236.031 135.219C236.857 135.553 237.606 136.052 238.231 136.686L235.65 139.509C235.404 139.128 235.066 138.815 234.667 138.6C234.328 138.42 233.952 138.319 233.567 138.307C233.316 138.3 233.066 138.347 232.834 138.446C232.749 138.488 232.677 138.552 232.627 138.633C232.577 138.713 232.55 138.806 232.55 138.901C232.55 138.995 232.577 139.088 232.627 139.169C232.677 139.249 232.749 139.314 232.834 139.355C233.138 139.502 233.451 139.627 233.773 139.729C234.213 139.876 234.682 140.052 235.166 140.25C235.65 140.449 236.106 140.71 236.523 141.027C236.936 141.348 237.282 141.747 237.542 142.201C237.828 142.726 237.967 143.319 237.945 143.917C237.964 144.639 237.81 145.355 237.498 146.007C237.218 146.573 236.821 147.073 236.332 147.473C235.847 147.867 235.292 148.165 234.697 148.353C234.102 148.533 233.484 148.622 232.863 148.617Z" fill="#231F20"/>
<path d="M87.0249 114.935H57.5669C56.4941 114.937 55.4485 114.598 54.5812 113.966C53.7139 113.335 53.0696 112.444 52.7416 111.423C52.5739 110.919 52.4897 110.391 52.4922 109.861V73.5167C52.4922 72.1708 53.0269 70.88 53.9786 69.9283C54.9303 68.9766 56.221 68.442 57.5669 68.442H87.0249C87.6913 68.442 88.3512 68.5733 88.9669 68.8283C89.5826 69.0833 90.142 69.4571 90.6133 69.9283C91.0845 70.3996 91.4583 70.959 91.7133 71.5747C91.9683 72.1904 92.0996 72.8503 92.0996 73.5167V109.861C92.0976 111.206 91.5624 112.496 90.6111 113.447C89.6598 114.398 88.3702 114.933 87.0249 114.935ZM57.5669 69.1753C56.4161 69.1773 55.313 69.6353 54.4993 70.449C53.6855 71.2628 53.2275 72.3659 53.2256 73.5167V109.861C53.2253 110.314 53.297 110.765 53.4382 111.195C53.7184 112.07 54.2694 112.832 55.0116 113.373C55.7538 113.913 56.6487 114.204 57.5669 114.202H87.0249C88.1757 114.2 89.2788 113.742 90.0926 112.928C90.9063 112.115 91.3643 111.011 91.3663 109.861V73.5167C91.3643 72.3659 90.9063 71.2628 90.0926 70.449C89.2788 69.6353 88.1757 69.1773 87.0249 69.1753H57.5669Z" fill="#D1D3D4"/>
<path d="M91.7326 108.607V109.861C91.7326 111.109 91.2366 112.307 90.3537 113.19C89.4707 114.073 88.2732 114.569 87.0246 114.569H57.5666C56.5706 114.569 55.6002 114.253 54.7951 113.666C53.99 113.08 53.3916 112.253 53.0859 111.305C54.4866 107.353 58.1386 101.933 67.6646 100.467C69.4192 100.2 71.1919 100.07 72.9666 100.078C74.4666 100.074 75.9654 100.163 77.4546 100.342C85.6606 101.325 89.7233 105.109 91.7326 108.607Z" fill="#FF6C22"/>
<path d="M81.13 87.6113C81.13 87.6113 81.4966 77.4913 81.13 76.758C80.7633 76.0247 62.7966 72.4827 62.9873 72.9447C63.178 73.4067 63.8013 74.8 63.8013 74.8L61.418 75.4453L63.8013 76.6627L61.4253 77.7333L64.6006 79.2513L64.828 87.8827L81.13 87.6113Z" fill="white"/>
<path d="M64.8267 88.2933C64.7281 88.2934 64.6333 88.2553 64.5622 88.1869C64.4911 88.1185 64.4492 88.0252 64.4454 87.9267L64.2254 79.5227L61.2921 78.1073C61.2278 78.0757 61.1738 78.0265 61.1362 77.9656C61.0986 77.9046 61.0789 77.8343 61.0794 77.7627C61.0801 77.6913 61.1011 77.6216 61.1401 77.5619C61.1791 77.5021 61.2344 77.4547 61.2994 77.4253L63.0008 76.6407L61.2701 75.746C61.2039 75.7082 61.15 75.6522 61.1149 75.5845C61.0797 75.5169 61.0649 75.4405 61.0721 75.3647C61.0801 75.2889 61.1111 75.2174 61.1609 75.1597C61.2107 75.1021 61.277 75.061 61.3508 75.042L63.3014 74.514C63.0961 74.074 62.7881 73.392 62.6707 73.0473C62.6349 72.9516 62.6361 72.8459 62.6741 72.7509C62.7121 72.656 62.7841 72.5786 62.8761 72.534C63.4481 72.2773 70.2094 73.634 72.2628 74.0593C81.1654 75.878 81.3854 76.3327 81.4954 76.5527C81.8768 77.286 81.6201 85.1913 81.5394 87.5527C81.534 87.6494 81.4926 87.7406 81.4235 87.8085C81.3543 87.8763 81.2622 87.9158 81.1654 87.9193L64.8634 88.22L64.8267 88.2933ZM62.3334 77.77L64.7754 78.936C64.8385 78.9671 64.8918 79.0151 64.9294 79.0747C64.9669 79.1342 64.9872 79.203 64.9881 79.2733L65.2081 87.5307L80.7768 87.2373C80.9381 82.7053 81.0041 77.748 80.8208 76.9707C79.6621 76.3327 66.4254 73.5387 63.5654 73.304C63.8147 73.8687 64.1521 74.6093 64.1594 74.624C64.181 74.6738 64.1922 74.7274 64.1922 74.7817C64.1922 74.8359 64.181 74.8896 64.1594 74.9393C64.135 74.9894 64.1001 75.0337 64.0571 75.0691C64.0141 75.1046 63.9639 75.1303 63.9101 75.1447L62.4434 75.5333L63.9981 76.34C64.0614 76.3717 64.1146 76.4204 64.1518 76.4806C64.189 76.5408 64.2087 76.6102 64.2087 76.681C64.2087 76.7518 64.189 76.8212 64.1518 76.8814C64.1146 76.9416 64.0614 76.9903 63.9981 77.022L62.3334 77.77Z" fill="#231F20"/>
<path d="M78.3867 88C78.8267 85.2427 83.3954 84.568 83.1681 87.8093C83.1359 88.9382 82.7046 90.0191 81.9507 90.86C81.5695 91.2715 81.0748 91.5608 80.5292 91.6913C79.9836 91.8218 79.4116 91.7877 78.8854 91.5933" fill="white"/>
<path d="M79.8384 92.1507C79.4574 92.1532 79.0802 92.0758 78.7311 91.9233C78.6403 91.8817 78.5696 91.8062 78.5339 91.7129C78.4983 91.6197 78.5006 91.5162 78.5404 91.4247C78.582 91.3339 78.6576 91.2632 78.7508 91.2275C78.844 91.1919 78.9475 91.1942 79.0391 91.234C79.4932 91.398 79.9856 91.425 80.4549 91.3116C80.9243 91.1981 81.3499 90.9493 81.6791 90.596C82.3705 89.8207 82.7654 88.8258 82.7937 87.7873C82.8348 87.5875 82.8336 87.3812 82.7904 87.1818C82.7472 86.9824 82.6628 86.7942 82.5427 86.6293C82.4226 86.4643 82.2695 86.3262 82.093 86.2238C81.9165 86.1215 81.7206 86.057 81.5177 86.0347C80.8897 85.9742 80.2614 86.1471 79.7528 86.5204C79.2442 86.8938 78.8909 87.4414 78.7604 88.0587C78.7424 88.1567 78.6875 88.244 78.607 88.3027C78.5265 88.3614 78.4265 88.3869 78.3277 88.374C78.2776 88.3669 78.2295 88.3498 78.1862 88.3236C78.1429 88.2974 78.1054 88.2626 78.0759 88.2215C78.0464 88.1804 78.0256 88.1337 78.0147 88.0843C78.0037 88.0348 78.003 87.9837 78.0124 87.934C78.1694 87.123 78.6248 86.4003 79.2888 85.9088C79.9527 85.4173 80.7769 85.1927 81.5984 85.2793C81.8988 85.3092 82.1897 85.4006 82.4533 85.5478C82.7168 85.695 82.9472 85.8949 83.1302 86.1349C83.3131 86.375 83.4447 86.6501 83.5168 86.9432C83.5889 87.2363 83.5999 87.5411 83.5491 87.8387C83.5049 89.0554 83.0352 90.2181 82.2217 91.124C81.9119 91.444 81.5418 91.6995 81.1327 91.8757C80.7237 92.0519 80.2838 92.1454 79.8384 92.1507Z" fill="#231F20"/>
<path d="M66.9907 88C66.5507 85.2427 61.982 84.568 62.2094 87.8093C62.2416 88.9382 62.6729 90.0191 63.4267 90.86C63.8085 91.2707 64.3032 91.5594 64.8486 91.6899C65.3939 91.8203 65.9657 91.7868 66.492 91.5933" fill="white"/>
<path d="M65.5386 92.1507C65.0933 92.1446 64.6537 92.0507 64.2447 91.8746C63.8357 91.6984 63.4655 91.4434 63.1552 91.124C62.3396 90.2194 61.8695 89.0559 61.8279 87.8387C61.7771 87.5394 61.7888 87.233 61.8622 86.9385C61.9356 86.644 62.0691 86.3679 62.2544 86.1275C62.4397 85.8871 62.6727 85.6877 62.9388 85.5417C63.2049 85.3958 63.4983 85.3064 63.8006 85.2793C64.6221 85.1927 65.4462 85.4173 66.1102 85.9088C66.7741 86.4003 67.2296 87.123 67.3866 87.934C67.396 87.9832 67.3955 88.0338 67.3851 88.0828C67.3746 88.1318 67.3544 88.1782 67.3257 88.2192C67.297 88.2602 67.2603 88.2951 67.2178 88.3217C67.1754 88.3483 67.128 88.3661 67.0786 88.374C66.9786 88.389 66.8768 88.3644 66.7946 88.3055C66.7125 88.2467 66.6565 88.1581 66.6386 88.0587C66.5097 87.442 66.1578 86.8945 65.6504 86.521C65.143 86.1476 64.5157 85.9744 63.8886 86.0347C63.6851 86.0561 63.4884 86.1198 63.311 86.2218C63.1337 86.3238 62.9796 86.4617 62.8588 86.6268C62.7379 86.7919 62.6529 86.9804 62.6092 87.1802C62.5656 87.3801 62.5642 87.5869 62.6052 87.7873C62.6391 88.8246 63.0333 89.8177 63.7199 90.596C64.049 90.9493 64.4747 91.1982 64.9441 91.3116C65.4134 91.425 65.9057 91.398 66.3599 91.234C66.4052 91.2138 66.454 91.2027 66.5035 91.2013C66.5531 91.1999 66.6024 91.2084 66.6487 91.2261C66.695 91.2438 66.7374 91.2704 66.7734 91.3045C66.8094 91.3386 66.8383 91.3794 66.8586 91.4247C66.8788 91.4699 66.8899 91.5187 66.8913 91.5683C66.8926 91.6178 66.8842 91.6672 66.8665 91.7135C66.8488 91.7598 66.8221 91.8022 66.7881 91.8382C66.754 91.8742 66.7132 91.9031 66.6679 91.9233C66.3122 92.0795 65.927 92.1571 65.5386 92.1507Z" fill="#231F20"/>
<path d="M67.5996 101.757C68.075 102.615 68.781 103.322 69.6377 103.799C70.4944 104.276 71.4676 104.504 72.4469 104.456C73.4541 104.484 74.4514 104.251 75.341 103.777C76.2306 103.304 76.982 102.608 77.5216 101.757L77.0376 91.1753H68.0836L67.5996 101.757Z" fill="white"/>
<path d="M72.4469 104.867C71.3936 104.919 70.347 104.671 69.4291 104.152C68.5112 103.633 67.7598 102.863 67.2622 101.933C67.2485 101.875 67.2485 101.815 67.2622 101.757L67.7462 91.1753C67.75 91.078 67.7908 90.9858 67.8603 90.9176C67.9299 90.8494 68.0229 90.8105 68.1202 90.8087H77.0742C77.1724 90.8103 77.2662 90.8491 77.3369 90.9171C77.4077 90.9851 77.45 91.0774 77.4556 91.1753L77.9322 101.757C77.9387 101.826 77.9233 101.896 77.8882 101.955C77.3174 102.876 76.5138 103.63 75.5584 104.142C74.6031 104.653 73.5298 104.903 72.4469 104.867ZM67.9882 101.713C68.4401 102.483 69.0951 103.114 69.8814 103.537C70.6678 103.96 71.5553 104.159 72.4469 104.111C73.3696 104.14 74.2846 103.934 75.1056 103.512C75.9267 103.09 76.6269 102.466 77.1402 101.699L76.6782 91.5933H68.4502L67.9882 101.713Z" fill="#231F20"/>
<path d="M68.0835 95.7073C68.7749 96.7092 69.7049 97.5233 70.7895 98.076C72.5642 99.0587 75.1895 100.159 77.3895 99.8287L77.0008 95.3333C75.4224 95.5207 73.8273 95.5207 72.2488 95.3333C70.8696 95.3005 69.5039 95.0531 68.2008 94.6C67.9515 94.4973 67.8121 95.2747 68.0835 95.7073Z" fill="#231F20"/>
<path d="M76.5536 100.254C74.3536 100.254 71.941 99.1247 70.6136 98.3987C69.4717 97.818 68.4954 96.9577 67.7756 95.898C67.64 95.6707 67.5684 95.411 67.5684 95.1463C67.5684 94.8817 67.64 94.6219 67.7756 94.3947C67.8377 94.3144 67.9252 94.2576 68.0238 94.2336C68.1224 94.2096 68.2263 94.2198 68.3183 94.2627C69.6017 94.7041 70.9438 94.9512 72.3003 94.996C73.8496 95.1786 75.415 95.1786 76.9643 94.996C77.0632 94.9831 77.1632 95.0094 77.2429 95.0693C77.3193 95.1349 77.3689 95.2263 77.3823 95.326L77.7343 99.8067C77.7409 99.8983 77.713 99.989 77.656 100.061C77.5989 100.133 77.517 100.181 77.4263 100.195C77.1373 100.237 76.8456 100.257 76.5536 100.254ZM68.2963 95.04C68.2837 95.2023 68.3167 95.3648 68.3916 95.5093C69.049 96.4603 69.9339 97.2317 70.9656 97.7533C72.0583 98.362 74.7423 99.6893 76.9789 99.5133L76.6783 95.766C75.2012 95.9239 73.7114 95.9239 72.2343 95.766C70.8952 95.6996 69.571 95.4554 68.2963 95.04Z" fill="#231F20"/>
<path d="M72.3213 96.4113H73.0547C73.8841 96.4123 74.7056 96.2496 75.4721 95.9327C76.2386 95.6157 76.935 95.1507 77.5215 94.5642C78.108 93.9777 78.573 93.2812 78.89 92.5147C79.207 91.7483 79.3696 90.9268 79.3687 90.0973V80.1093H66V90.0973C66 90.9271 66.1636 91.7488 66.4813 92.5153C66.7991 93.2818 67.2648 93.9782 67.8519 94.5646C68.439 95.151 69.1359 95.6159 69.9028 95.9328C70.6697 96.2497 71.4916 96.4123 72.3213 96.4113Z" fill="white"/>
<path d="M79.3696 80.1093V90.0973C79.3705 90.9268 79.2079 91.7483 78.8909 92.5148C78.574 93.2812 78.1089 93.9777 77.5224 94.5642C76.9359 95.1507 76.2395 95.6157 75.473 95.9327C74.7065 96.2496 73.885 96.4123 73.0556 96.4113H72.3222C71.4925 96.4123 70.6706 96.2497 69.9037 95.9328C69.1368 95.616 68.4399 95.151 67.8528 94.5646C67.2657 93.9782 66.8 93.2818 66.4822 92.5153C66.1645 91.7488 66.0009 90.9271 66.0009 90.0973V80.1093H79.3622M79.3622 79.376H66.0009C65.8064 79.376 65.6199 79.4533 65.4824 79.5908C65.3448 79.7283 65.2676 79.9148 65.2676 80.1093V90.0973C65.2695 91.9717 66.0149 93.7686 67.3403 95.094C68.6656 96.4193 70.4626 97.1647 72.3369 97.1667H73.0702C74.9446 97.1647 76.7415 96.4193 78.0669 95.094C79.3922 93.7686 80.1376 91.9717 80.1396 90.0973V80.1093C80.1396 79.9148 80.0623 79.7283 79.9248 79.5908C79.7873 79.4533 79.6007 79.376 79.4062 79.376H79.3622Z" fill="#231F20"/>
<path d="M72.7914 90.376C72.48 90.3773 72.1689 90.3577 71.8601 90.3173C71.7658 90.3071 71.6753 90.2745 71.5962 90.2222C71.5171 90.1699 71.4517 90.0994 71.4054 90.0167C70.9141 89.2027 71.9407 86.306 72.4027 85.096C72.4387 84.9987 72.5119 84.9198 72.6061 84.8765C72.7003 84.8331 72.8078 84.829 72.9051 84.865C73.0023 84.901 73.0813 84.9741 73.1246 85.0683C73.1679 85.1625 73.1721 85.2701 73.1361 85.3673C72.4027 87.2593 71.9407 89.1293 72.0581 89.5767C72.609 89.6342 73.1645 89.6342 73.7154 89.5767C73.7672 89.5618 73.8215 89.5582 73.8748 89.5663C73.9281 89.5744 73.9789 89.5938 74.024 89.6234C74.069 89.6529 74.1071 89.6919 74.1357 89.7375C74.1643 89.7832 74.1827 89.8344 74.1897 89.8879C74.1966 89.9413 74.192 89.9956 74.176 90.047C74.16 90.0985 74.1331 90.1458 74.0971 90.1859C74.0611 90.226 74.0169 90.2578 73.9675 90.2793C73.9181 90.3007 73.8646 90.3112 73.8107 90.31C73.473 90.3562 73.1323 90.3783 72.7914 90.376Z" fill="#231F20"/>
<path d="M63.8006 114.943C63.7067 114.941 63.6167 114.905 63.5477 114.842C63.4787 114.778 63.4356 114.691 63.4266 114.598L62.8106 107.888C62.8055 107.839 62.8102 107.789 62.8245 107.742C62.8387 107.695 62.8622 107.651 62.8936 107.612C62.925 107.574 62.9636 107.543 63.0072 107.519C63.0509 107.496 63.0987 107.482 63.1479 107.477C63.2487 107.469 63.3488 107.5 63.4268 107.565C63.5049 107.629 63.5548 107.721 63.5659 107.822L64.1819 114.532C64.19 114.632 64.1584 114.731 64.0939 114.808C64.0294 114.885 63.9372 114.933 63.8372 114.943H63.8006Z" fill="#231F20"/>
<path d="M82.926 114.943C82.8261 114.933 82.7338 114.885 82.6693 114.808C82.6048 114.731 82.5732 114.632 82.5813 114.532L83.1973 107.822C83.2067 107.722 83.255 107.63 83.3319 107.565C83.4088 107.501 83.508 107.469 83.608 107.477C83.6579 107.481 83.7065 107.495 83.7509 107.517C83.7954 107.54 83.8349 107.572 83.867 107.61C83.8992 107.648 83.9233 107.693 83.938 107.74C83.9527 107.788 83.9577 107.838 83.9527 107.888L83.3367 114.598C83.3274 114.698 83.279 114.79 83.2021 114.855C83.1253 114.919 83.026 114.951 82.926 114.943Z" fill="#231F20"/>
</svg>
