<svg width="294" height="220" viewBox="0 0 294 220" fill="none" xmlns="http://www.w3.org/2000/svg">
<path d="M129.887 95.2673C129.887 95.2673 107.887 101.728 103.744 104.126C88.7251 112.845 76.6104 154.132 76.3171 161.326C76.0238 168.52 89.8838 181.537 89.8838 181.537L108.532 174.328C108.532 174.328 99.3511 159.705 102.321 151.961C105.433 143.906 109.035 136.05 113.108 128.436C113.108 128.436 109.588 143.513 110.05 149.153C110.512 154.792 114.986 181.559 114.986 181.559H173.227C173.227 181.559 178.419 159.786 178.602 146.359C178.786 132.931 175.192 126.867 175.192 126.867C175.192 126.867 182.254 137.867 185.364 151.067C186.097 154.257 180.172 169.473 180.172 169.473C180.172 169.473 196.628 164.927 203.558 172.935C207.258 167.453 209.082 160.921 208.757 154.315C208.104 143.491 188.458 107.433 185.364 106.069C176.652 102.241 163.826 96.0153 159.763 96.3967C155.7 96.778 129.887 95.2673 129.887 95.2673Z" fill="#FF6C22"/>
<path d="M145.955 105.6H141.467V120.384H145.955V105.6Z" fill="white"/>
<path d="M145.932 120.758H141.444C141.343 120.758 141.246 120.718 141.174 120.646C141.103 120.575 141.062 120.478 141.062 120.377V105.6C141.063 105.499 141.103 105.402 141.174 105.33C141.246 105.259 141.343 105.219 141.444 105.219H145.932C145.982 105.219 146.031 105.229 146.077 105.248C146.123 105.267 146.164 105.295 146.199 105.331C146.234 105.366 146.261 105.408 146.279 105.455C146.298 105.501 146.307 105.55 146.306 105.6V120.377C146.307 120.426 146.298 120.476 146.279 120.522C146.261 120.568 146.234 120.61 146.199 120.646C146.164 120.681 146.123 120.71 146.077 120.729C146.031 120.748 145.982 120.758 145.932 120.758ZM141.818 120.025H145.55V105.974H141.818V120.025Z" fill="#231F20"/>
<path d="M92.5168 180.774H195.213L213.003 198.088H74.7188L92.5168 180.774Z" fill="white"/>
<path d="M213.004 198.462H74.7192C74.6442 198.461 74.571 198.438 74.5085 198.397C74.446 198.355 74.397 198.296 74.3672 198.227C74.3391 198.158 74.3325 198.082 74.3481 198.008C74.3638 197.935 74.4011 197.868 74.4552 197.817L92.2532 180.503C92.3244 180.435 92.4192 180.398 92.5172 180.4H195.184C195.282 180.4 195.376 180.437 195.448 180.503L213.239 197.817C213.293 197.868 213.33 197.935 213.346 198.008C213.361 198.082 213.355 198.158 213.327 198.227C213.299 198.292 213.254 198.348 213.198 198.389C213.141 198.431 213.074 198.456 213.004 198.462ZM75.6506 197.729H212.051L195.067 181.133H92.6712L75.6506 197.729Z" fill="#231F20"/>
<path d="M156.83 184.36H120.809L121.652 182.732H156.273L156.83 184.36Z" fill="#E6E7E8"/>
<path d="M164.78 184.36H159.742L159.074 182.732H163.914L164.78 184.36Z" fill="#E6E7E8"/>
<path d="M172.333 184.36H167.295L166.334 182.732H171.181L172.333 184.36Z" fill="#E6E7E8"/>
<path d="M187.337 184.36H174.856L173.602 182.732H185.599L187.337 184.36Z" fill="#E6E7E8"/>
<path d="M187.454 184.36H182.416L180.869 182.732H185.709L187.454 184.36Z" fill="#E6E7E8"/>
<path d="M102.651 184.36H97.6055L99.3508 182.732H104.191L102.651 184.36Z" fill="#E6E7E8"/>
<path d="M110.204 184.36H105.166L106.618 182.732H111.458L110.204 184.36Z" fill="#E6E7E8"/>
<path d="M117.765 184.36H112.727L113.878 182.732H118.725L117.765 184.36Z" fill="#E6E7E8"/>
<path d="M112.676 187.425H94.3203L96.315 185.563H113.915L112.676 187.425Z" fill="#E6E7E8"/>
<path d="M120.58 187.425H115.176L116.312 185.563H121.497L120.58 187.425Z" fill="#E6E7E8"/>
<path d="M128.971 187.425H123.559L124.351 185.563H129.528L128.971 187.425Z" fill="#E6E7E8"/>
<path d="M137.352 187.425H131.947L132.387 185.563H137.565L137.352 187.425Z" fill="#E6E7E8"/>
<path d="M145.742 187.425H140.33L140.425 185.563H145.603L145.742 187.425Z" fill="#E6E7E8"/>
<path d="M154.124 187.425H148.712L148.455 185.563H153.64L154.124 187.425Z" fill="#E6E7E8"/>
<path d="M162.506 187.425H157.101L156.492 185.563H161.677L162.506 187.425Z" fill="#E6E7E8"/>
<path d="M170.895 187.425H165.483L164.529 185.563H169.714L170.895 187.425Z" fill="#E6E7E8"/>
<path d="M179.276 187.425H173.872L172.566 185.563H177.751L179.276 187.425Z" fill="#E6E7E8"/>
<path d="M106.244 190.975H100.414L102.291 188.811H107.865L106.244 190.975Z" fill="#E6E7E8"/>
<path d="M115.294 190.975H109.457L110.938 188.811H116.512L115.294 190.975Z" fill="#E6E7E8"/>
<path d="M124.343 190.975H118.506L119.577 188.811H125.15L124.343 190.975Z" fill="#E6E7E8"/>
<path d="M133.392 190.975H127.555L128.222 188.811H133.795L133.392 190.975Z" fill="#E6E7E8"/>
<path d="M142.434 190.975H136.604L136.868 188.811H142.441L142.434 190.975Z" fill="#E6E7E8"/>
<path d="M151.484 190.975H145.647L145.508 188.811H151.088L151.484 190.975Z" fill="#E6E7E8"/>
<path d="M160.532 190.975H154.695L154.152 188.811H159.726L160.532 190.975Z" fill="#E6E7E8"/>
<path d="M169.582 190.975H163.745L162.799 188.811H168.372L169.582 190.975Z" fill="#E6E7E8"/>
<path d="M178.624 190.975H172.794L171.438 188.811H177.018L178.624 190.975Z" fill="#E6E7E8"/>
<path d="M109.104 195.133H102.768L104.689 192.595H110.717L109.104 195.133Z" fill="#E6E7E8"/>
<path d="M118.932 195.133H112.596L114.04 192.595H120.068L118.932 195.133Z" fill="#E6E7E8"/>
<path d="M128.751 195.133H122.422L123.39 192.595H129.418L128.751 195.133Z" fill="#E6E7E8"/>
<path d="M138.576 195.133H132.24L132.739 192.595H138.767L138.576 195.133Z" fill="#E6E7E8"/>
<path d="M148.404 195.133H142.068L142.09 192.595H148.118L148.404 195.133Z" fill="#E6E7E8"/>
<path d="M158.23 195.133H151.894L151.439 192.595H157.467L158.23 195.133Z" fill="#E6E7E8"/>
<path d="M168.049 195.133H161.713L160.789 192.595H166.817L168.049 195.133Z" fill="#E6E7E8"/>
<path d="M177.877 195.133H171.541L170.141 192.595H176.169L177.877 195.133Z" fill="#E6E7E8"/>
<path d="M187.704 195.133H181.368L179.49 192.595H185.518L187.704 195.133Z" fill="#E6E7E8"/>
<path d="M198.38 195.133H190.35L188.047 192.595H195.688L198.38 195.133Z" fill="#E6E7E8"/>
<path d="M194.428 190.975H181.837L180.084 188.811H192.111L194.428 190.975Z" fill="#E6E7E8"/>
<path d="M190.622 187.425H181.808L180.18 185.563H188.628L190.622 187.425Z" fill="#E6E7E8"/>
<path d="M96.3452 190.975H90.5078L92.8251 188.811H98.4058L96.3452 190.975Z" fill="#E6E7E8"/>
<path d="M99.2117 195.133H86.041L88.769 192.595H101.302L99.2117 195.133Z" fill="#E6E7E8"/>
<path d="M168.124 19.0666C180.539 24.53 185.878 39.094 188.657 52.3673C190.124 59.2533 192.06 67.276 198.52 70.07C205.509 73.084 213.26 67.9873 218.584 62.546C215.028 69.278 211.251 76.3033 204.849 80.4686C198.315 84.7513 190.058 85.3673 182.255 85.0006C177.576 84.7806 172.81 84.216 168.615 82.1406C155.745 75.746 153.347 58.4173 143.902 47.586C136.114 38.654 132.22 32.56 142.53 23.6573C149.424 17.754 159.632 15.3486 168.124 19.0666Z" fill="white"/>
<path d="M185.972 85.4847C184.659 85.4847 183.412 85.4847 182.261 85.3893C177.92 85.184 172.882 84.656 168.474 82.456C160.54 78.5473 156.455 70.4 152.532 62.4653C149.98 57.332 147.34 52.0593 143.666 47.85C139.266 42.7973 135.643 38.2213 135.988 33.4107C136.215 30.1107 138.239 26.928 142.338 23.386C149.716 17.0207 160.144 15.1507 168.291 18.7367C178.44 23.2027 185.238 34.1807 189.081 52.3013C190.709 60.0013 192.674 67.122 198.724 69.7327C206.564 73.1207 215.07 65.6626 218.363 62.2966C218.428 62.2317 218.513 62.1917 218.604 62.1837C218.695 62.1756 218.787 62.2001 218.862 62.2527C218.935 62.3069 218.986 62.3855 219.006 62.4743C219.026 62.5631 219.014 62.6561 218.972 62.7367C215.569 69.1753 211.719 76.472 205.112 80.806C199.172 84.678 191.89 85.4847 185.972 85.4847ZM159.41 17.688C153.307 17.7412 147.422 19.9636 142.808 23.958C138.87 27.3607 136.941 30.382 136.714 33.4913C136.398 38.0086 139.918 42.4527 144.208 47.3733C147.948 51.656 150.61 56.9947 153.184 62.15C157.254 70.3047 161.104 78.0047 168.812 81.8327C173.094 83.9593 178.037 84.458 182.298 84.656C188.531 84.9493 197.624 84.81 204.672 80.19C210.421 76.428 214.066 70.29 217.138 64.4967C213.039 68.2 205.522 73.5093 198.402 70.4C191.494 67.4153 189.602 58.3953 188.318 52.4333C184.534 34.562 177.876 23.76 167.968 19.4333C165.267 18.2657 162.353 17.6714 159.41 17.688Z" fill="#231F20"/>
<path d="M154.175 32.1933C155.313 32.6029 156.35 33.2504 157.218 34.0926C158.252 35.1706 158.685 36.432 160.049 37.378C161.413 38.324 162.77 38.918 164.082 39.7686C168.446 42.5773 171.064 47.674 171.474 52.844C171.718 56.6657 171.018 60.4885 169.436 63.976C168.211 66.7846 167.514 69.1093 165.204 71.2286C161.19 74.8511 156.454 77.5827 151.308 79.244C146.358 80.894 139.956 79.0606 135.24 77.1833C132.615 76.1346 130.004 74.7046 128.42 72.3726C128.143 71.8936 127.808 71.4503 127.423 71.0526C127.069 70.7649 126.682 70.5189 126.272 70.3193C119.085 66.4106 117.941 58.2413 120.295 51.1426C121.556 47.3513 122.942 41.9613 126.374 39.578C127.775 38.6026 129.352 37.8693 130.65 36.762C131.515 36.0286 132.241 35.1266 133.099 34.3713C136.766 31.1666 143.153 29.612 147.868 30.6093C150.011 30.9626 152.12 31.4924 154.175 32.1933Z" fill="white"/>
<path d="M146.98 80.2633C143.644 80.2633 139.647 79.354 135.093 77.5353C132.959 76.6847 129.916 75.2473 128.104 72.5853L127.906 72.2773C127.549 71.5981 126.969 71.0623 126.264 70.7593L126.095 70.6713C118.168 66.3593 117.823 57.398 119.935 51.04L120.36 49.72C121.541 46.0533 123.008 41.47 126.161 39.2847C126.711 38.896 127.298 38.5513 127.87 38.2067C128.76 37.703 129.608 37.1292 130.407 36.4907C130.84 36.1093 131.258 35.684 131.654 35.266C132.05 34.848 132.424 34.4667 132.849 34.1C136.516 30.8587 143.013 29.2087 147.948 30.2573L149.21 30.514C150.957 30.8019 152.675 31.2462 154.343 31.8413C155.534 32.2644 156.617 32.9427 157.518 33.8287C157.901 34.2598 158.251 34.7181 158.567 35.2C159.015 35.9224 159.591 36.5563 160.268 37.07C160.975 37.5552 161.71 37.9985 162.468 38.3973C163.062 38.7273 163.686 39.0647 164.272 39.446C168.504 42.174 171.4 47.3 171.833 52.8147C172.081 56.6989 171.371 60.5846 169.765 64.13C169.567 64.5847 169.384 65.032 169.2 65.4647C168.254 67.7307 167.44 69.6813 165.446 71.5073C161.382 75.1479 156.601 77.8959 151.41 79.574C149.98 80.0401 148.484 80.2728 146.98 80.2633ZM144.78 30.6973C140.666 30.6973 136.156 32.164 133.355 34.6647C132.959 35.0167 132.578 35.398 132.211 35.794C131.844 36.19 131.368 36.6667 130.906 37.0627C130.074 37.7358 129.189 38.3392 128.258 38.8667C127.701 39.204 127.122 39.5487 126.586 39.9227C123.653 41.9613 122.186 46.398 121.086 49.962C120.94 50.424 120.793 50.864 120.654 51.2893C118.63 57.376 118.938 65.956 126.454 70.0187L126.623 70.1067C127.001 70.2902 127.356 70.5192 127.679 70.7887C128.011 71.1089 128.299 71.4713 128.537 71.8667L128.728 72.16C130.018 74.052 132.13 75.5407 135.379 76.8313C142.023 79.4713 147.34 80.168 151.19 78.8847C156.283 77.2339 160.973 74.5305 164.954 70.95C166.817 69.2413 167.609 67.3567 168.518 65.1713C168.702 64.7387 168.885 64.284 169.09 63.822C170.644 60.3913 171.334 56.6322 171.1 52.8733C170.674 47.586 167.91 42.6873 163.876 40.084C163.312 39.7173 162.703 39.3873 162.116 39.0647C161.342 38.6483 160.59 38.1905 159.865 37.6933C159.122 37.1259 158.486 36.4306 157.988 35.64C157.67 35.1854 157.317 34.7563 156.932 34.3567C156.098 33.5456 155.097 32.9273 153.998 32.5453C152.382 31.9699 150.718 31.538 149.026 31.2547L147.75 30.998C146.771 30.7946 145.773 30.6938 144.773 30.6973H144.78Z" fill="#231F20"/>
<path d="M153.925 96.316C153.925 96.316 147.897 105.688 143.732 105.6C139.566 105.512 134.873 96.9393 134.873 96.9393L135.137 92.356L135.753 81.7007L136.34 71.742L153.419 71.5513L154.079 79.684L154.284 82.3167L153.925 96.316Z" fill="white"/>
<path d="M143.769 105.974H143.733C139.333 105.879 134.742 97.4673 134.551 97.108C134.517 97.0479 134.499 96.9794 134.5 96.91L135.967 71.7127C135.97 71.6173 136.011 71.527 136.079 71.4601C136.147 71.3933 136.238 71.3551 136.333 71.3533L153.42 71.1627C153.516 71.1624 153.609 71.1985 153.68 71.2638C153.751 71.3291 153.794 71.4187 153.801 71.5147L154.659 82.2873L154.329 96.3233C154.328 96.3911 154.308 96.4571 154.271 96.514C153.999 96.9027 148.133 105.974 143.769 105.974ZM135.233 96.844C135.754 97.7607 140.022 105.138 143.718 105.219H143.777C147.495 105.219 152.936 97.152 153.552 96.1987L153.882 82.2653L153.053 71.8887L136.678 72.072L135.233 96.844Z" fill="#231F20"/>
<path d="M154.263 82.3093C152.918 84.6449 151.009 86.6064 148.711 88.0146C145.045 90.3906 139.589 93.0746 135.115 92.3486L135.731 81.6933C139.003 82.1247 142.319 82.1124 145.587 81.6566C148.462 81.334 151.454 80.982 154.057 79.6766L154.263 82.3093Z" fill="#231F20"/>
<path d="M136.693 92.8327C136.145 92.8355 135.598 92.7938 135.058 92.708C134.969 92.6936 134.889 92.6464 134.833 92.5758C134.777 92.5052 134.75 92.4163 134.757 92.3267L135.373 81.6713C135.374 81.6203 135.386 81.5701 135.409 81.5245C135.432 81.4788 135.465 81.4388 135.505 81.4073C135.544 81.3747 135.59 81.3506 135.639 81.3367C135.689 81.3228 135.74 81.3194 135.791 81.3267C139.027 81.7718 142.308 81.7718 145.544 81.3267C148.221 81.026 151.25 80.6887 153.897 79.376C153.95 79.3471 154.009 79.332 154.069 79.332C154.129 79.332 154.189 79.3471 154.242 79.376C154.292 79.4063 154.335 79.4478 154.367 79.4975C154.399 79.5471 154.418 79.6034 154.425 79.662L154.623 82.302C154.64 82.3668 154.64 82.4351 154.623 82.5C153.258 84.9045 151.305 86.9231 148.947 88.3667C146.19 90.09 141.247 92.8327 136.693 92.8327ZM135.505 92.0333C140.14 92.6127 145.618 89.5913 148.514 87.714C150.731 86.3598 152.578 84.4778 153.89 82.236L153.736 80.234C151.096 81.4147 148.199 81.7007 145.625 82.0233C142.464 82.4599 139.26 82.4894 136.092 82.1113L135.505 92.0333Z" fill="#231F20"/>
<path d="M145.566 84.0913H143.821C139.839 84.1344 136.002 82.5941 133.156 79.8094C130.309 77.0246 128.685 73.2233 128.641 69.2413C128.582 64.4967 129.939 55.4693 129.939 55.4693C129.939 55.4693 136.869 52.976 142.31 50.9227C151.44 47.4907 153.897 42.5333 153.897 42.5333C154.18 45.8141 154.9 49.0424 156.038 52.1327C157.021 54.3767 160.115 58.388 160.115 58.388C160.115 58.388 160.379 65.7947 160.416 68.8893C160.441 70.8631 160.077 72.8225 159.344 74.6553C158.611 76.4881 157.523 78.1584 156.144 79.5704C154.765 80.9825 153.12 82.1086 151.305 82.8844C149.49 83.6601 147.54 84.0703 145.566 84.0913Z" fill="white"/>
<path d="M143.651 84.4873C139.597 84.4876 135.707 82.8893 132.824 80.0392C129.941 77.1891 128.298 73.3171 128.251 69.2633C128.2 64.548 129.542 55.5207 129.557 55.4327C129.565 55.365 129.592 55.301 129.635 55.2479C129.678 55.1948 129.734 55.1547 129.799 55.132C129.872 55.132 136.795 52.6167 142.163 50.5853C151.065 47.2413 153.537 42.438 153.559 42.3867C153.58 42.2911 153.638 42.2075 153.72 42.154C153.802 42.1005 153.901 42.0813 153.997 42.1005C154.093 42.1197 154.178 42.1758 154.233 42.2567C154.288 42.3376 154.309 42.437 154.292 42.5333C154.583 45.7679 155.296 48.9507 156.411 52.0007C157.357 54.2007 160.408 58.146 160.437 58.1827C160.487 58.2457 160.515 58.3227 160.518 58.4027C160.518 58.476 160.782 65.846 160.819 68.904C160.862 72.9859 159.282 76.9179 156.428 79.8358C153.573 82.7538 149.677 84.4189 145.595 84.4653H143.842L143.651 84.4873ZM145.565 83.71C149.441 83.6597 153.14 82.0772 155.852 79.3083C158.565 76.5395 160.071 72.8094 160.041 68.9333C160.005 66.1027 159.777 59.5393 159.741 58.5713C159.249 57.926 156.609 54.4207 155.693 52.3233C154.658 49.5451 153.964 46.6518 153.625 43.7067C152.429 45.342 149.291 48.73 142.441 51.3187C137.594 53.152 131.485 55.352 130.275 55.792C130.07 57.2073 128.97 65.032 129.014 69.278C129.064 73.1347 130.632 76.8164 133.377 79.5259C136.122 82.2353 139.824 83.7543 143.681 83.754H143.842L145.565 83.71Z" fill="#231F20"/>
<path d="M143.732 68.8673C143.09 68.8682 142.449 68.8339 141.81 68.7647C141.66 68.7503 141.515 68.7002 141.387 68.6186C141.26 68.537 141.153 68.4262 141.077 68.2953C139.933 66.4327 143.02 57.97 143.372 57.0167C143.39 56.9685 143.416 56.9243 143.451 56.8864C143.485 56.8486 143.527 56.8179 143.573 56.7961C143.62 56.7743 143.67 56.7618 143.721 56.7594C143.772 56.757 143.823 56.7647 143.871 56.782C143.919 56.7993 143.964 56.826 144.001 56.8604C144.039 56.8949 144.07 56.9364 144.092 56.9827C144.114 57.029 144.126 57.0792 144.128 57.1303C144.131 57.1814 144.123 57.2325 144.106 57.2807C142.815 60.764 141.026 66.7333 141.744 67.8993C141.803 67.9947 141.847 68.0093 141.891 68.0093C143.309 68.1472 144.737 68.1325 146.152 67.9653C146.202 67.957 146.252 67.9589 146.301 67.9708C146.35 67.9826 146.397 68.0043 146.437 68.0344C146.477 68.0646 146.511 68.1026 146.537 68.1462C146.562 68.1897 146.578 68.238 146.584 68.288C146.597 68.3881 146.569 68.4891 146.507 68.5689C146.445 68.6486 146.355 68.7005 146.254 68.7133C145.418 68.817 144.575 68.8685 143.732 68.8673Z" fill="#231F20"/>
<path d="M151.412 62.2783C151.983 62.272 152.434 61.1244 152.418 59.7151C152.403 58.3057 151.927 57.1683 151.356 57.1746C150.785 57.1809 150.335 58.3285 150.35 59.7378C150.366 61.1472 150.841 62.2846 151.412 62.2783Z" fill="#231F20"/>
<path d="M137.733 61.9595C138.304 61.9532 138.754 60.8056 138.739 59.3962C138.723 57.9869 138.248 56.8495 137.677 56.8558C137.105 56.862 136.655 58.0096 136.671 59.419C136.686 60.8283 137.162 61.9657 137.733 61.9595Z" fill="#231F20"/>
<path d="M154.395 93.5073C154.395 93.5073 161.486 94.0207 161.875 95.8613C162.264 97.702 160.21 111.188 157.673 114.283C155.136 117.377 144.268 105.6 144.268 105.6L154.395 93.5073Z" fill="white"/>
<path d="M156.486 115.185C152.636 115.185 144.342 106.245 144.019 105.864C143.958 105.795 143.924 105.707 143.924 105.615C143.924 105.523 143.958 105.434 144.019 105.365L154.154 93.2653C154.19 93.2178 154.239 93.1806 154.294 93.1575C154.349 93.1343 154.41 93.126 154.469 93.1333C155.701 93.2213 161.861 93.764 162.294 95.7807C162.726 97.7973 160.622 111.342 158.011 114.525C157.84 114.731 157.624 114.897 157.381 115.01C157.137 115.123 156.872 115.18 156.603 115.177L156.486 115.185ZM144.752 105.593C147.29 108.299 153.684 114.503 156.522 114.393C156.682 114.398 156.841 114.367 156.987 114.303C157.133 114.238 157.263 114.141 157.366 114.019C159.8 111.085 161.89 97.7606 161.494 95.9053C161.267 94.8566 157.366 94.094 154.55 93.874L144.752 105.593Z" fill="#231F20"/>
<path d="M134.2 93.0306C134.2 93.0306 127.094 93.2066 126.61 95.0253C126.126 96.844 127.548 110.425 129.939 113.63C132.33 116.835 143.733 105.6 143.733 105.6L134.2 93.0306Z" fill="white"/>
<path d="M131.17 114.583H130.979C130.709 114.574 130.444 114.503 130.205 114.376C129.966 114.249 129.76 114.069 129.601 113.85C127.144 110.55 125.699 96.8586 126.213 94.93C126.726 93.0013 132.915 92.686 134.155 92.6493C134.214 92.6511 134.272 92.6659 134.325 92.6925C134.379 92.719 134.425 92.7569 134.463 92.8033L143.996 105.365C144.056 105.435 144.089 105.523 144.089 105.615C144.089 105.706 144.056 105.795 143.996 105.864C143.607 106.231 135.079 114.583 131.17 114.583ZM133.979 93.412C131.155 93.5073 127.217 94.0793 126.939 95.1206C126.462 96.954 127.921 110.33 130.209 113.403C130.307 113.53 130.432 113.634 130.576 113.706C130.719 113.778 130.877 113.818 131.038 113.821C133.847 114.041 140.571 108.137 143.204 105.556L133.979 93.412Z" fill="#231F20"/>
<path d="M136.318 71.7347L153.398 71.544C153.398 71.544 150.794 80.5567 144.268 79.6767C137.741 78.7967 136.318 71.7347 136.318 71.7347Z" fill="white"/>
<path d="M145.148 80.1167C144.836 80.116 144.525 80.094 144.216 80.0507C137.492 79.1413 135.959 71.8813 135.944 71.808C135.934 71.7527 135.935 71.6958 135.949 71.6413C135.963 71.5868 135.989 71.536 136.025 71.4927C136.06 71.4498 136.103 71.4151 136.153 71.3911C136.202 71.367 136.256 71.3541 136.311 71.3533L153.398 71.1627C153.456 71.1629 153.514 71.177 153.566 71.2038C153.619 71.2305 153.664 71.2692 153.698 71.3167C153.734 71.3629 153.758 71.4168 153.77 71.474C153.781 71.5312 153.779 71.5903 153.764 71.6467C153.735 71.742 151.242 80.1167 145.148 80.1167ZM136.802 72.1087C137.25 73.634 139.076 78.5913 144.312 79.3027C149.548 80.014 152.224 73.7513 152.87 71.9253L136.802 72.1087Z" fill="#231F20"/>
<path d="M159.25 55.4913H160.973C161.678 55.4913 162.375 55.6306 163.026 55.9011C163.676 56.1716 164.267 56.568 164.764 57.0675C165.261 57.567 165.654 58.1598 165.921 58.8118C166.188 59.4638 166.323 60.1622 166.319 60.8667V71.1333C166.319 71.8354 166.181 72.5306 165.912 73.1792C165.644 73.8278 165.25 74.4171 164.754 74.9135C164.257 75.4099 163.668 75.8037 163.019 76.0724C162.371 76.3411 161.675 76.4793 160.973 76.4793H159.25V55.4913Z" fill="white"/>
<path d="M160.974 76.802H159.25C159.2 76.802 159.151 76.7921 159.105 76.773C159.058 76.7538 159.016 76.7257 158.981 76.6903C158.945 76.6549 158.917 76.6128 158.898 76.5666C158.879 76.5203 158.869 76.4707 158.869 76.4206V55.4913C158.869 55.4412 158.879 55.3917 158.898 55.3454C158.917 55.2991 158.945 55.2571 158.981 55.2217C159.016 55.1863 159.058 55.1582 159.105 55.139C159.151 55.1198 159.2 55.11 159.25 55.11H160.974C162.49 55.1119 163.944 55.7152 165.016 56.7875C166.089 57.8598 166.692 59.3135 166.694 60.83V71.0966C166.688 72.6105 166.083 74.0606 165.011 75.1297C163.939 76.1988 162.488 76.8001 160.974 76.802ZM159.632 76.0687H160.974C162.291 76.0667 163.554 75.542 164.485 74.6098C165.416 73.6776 165.938 72.414 165.938 71.0966V60.8667C165.937 59.5505 165.413 58.2889 164.482 57.3582C163.552 56.4276 162.29 55.9039 160.974 55.902H159.632V76.0687Z" fill="#231F20"/>
<path d="M129.938 76.4207H128.214C127.51 76.4207 126.812 76.2814 126.162 76.0109C125.511 75.7404 124.92 75.344 124.424 74.8445C123.927 74.345 123.534 73.7522 123.267 73.1002C123 72.4482 122.864 71.7498 122.868 71.0453V60.7787C122.868 60.0766 123.006 59.3814 123.275 58.7328C123.544 58.0842 123.938 57.4949 124.434 56.9985C124.93 56.502 125.52 56.1083 126.168 55.8396C126.817 55.5709 127.512 55.4327 128.214 55.4327H129.938V76.4207Z" fill="white"/>
<path d="M129.939 76.802H128.216C126.698 76.8001 125.243 76.1958 124.171 75.1219C123.099 74.048 122.496 72.5924 122.496 71.0747V60.8667C122.498 59.3502 123.101 57.8964 124.174 56.8242C125.246 55.7519 126.7 55.1486 128.216 55.1467H129.939C129.989 55.1467 130.038 55.1566 130.084 55.1758C130.13 55.1951 130.172 55.2233 130.207 55.2588C130.241 55.2943 130.269 55.3364 130.287 55.3826C130.305 55.4289 130.314 55.4783 130.313 55.528V76.4573C130.306 76.5514 130.263 76.6391 130.194 76.703C130.125 76.7669 130.034 76.8023 129.939 76.802ZM128.216 55.8653C127.561 55.8663 126.913 55.9966 126.309 56.2487C125.705 56.5008 125.156 56.8698 124.695 57.3346C124.233 57.7993 123.868 58.3505 123.621 58.9567C123.373 59.5628 123.248 60.2119 123.251 60.8667V71.1333C123.251 72.4507 123.774 73.7143 124.705 74.6465C125.636 75.5787 126.899 76.1034 128.216 76.1053H129.558V55.8653H128.216Z" fill="#231F20"/>
<path d="M163.715 59.0113C163.424 59.0113 163.144 58.8954 162.938 58.6891C162.731 58.4828 162.615 58.2031 162.615 57.9113V48.0113C162.615 38.9106 154.791 31.5333 145.199 31.5333C135.607 31.5333 127.753 38.94 127.753 48.0406V57.9333C127.753 58.225 127.637 58.5048 127.431 58.7111C127.224 58.9174 126.945 59.0333 126.653 59.0333C126.361 59.0333 126.081 58.9174 125.875 58.7111C125.669 58.5048 125.553 58.225 125.553 57.9333V48.0113C125.523 37.6933 134.338 29.3333 145.199 29.3333C156.059 29.3333 164.845 37.7226 164.845 48.0406V57.9333C164.842 58.0784 164.81 58.2215 164.752 58.3544C164.694 58.4872 164.61 58.6072 164.505 58.7074C164.4 58.8076 164.276 58.886 164.14 58.9382C164.005 58.9904 163.861 59.0152 163.715 59.0113Z" fill="#231F20"/>
<path d="M124.666 75.416C124.567 75.416 124.472 75.3766 124.402 75.3064C124.331 75.2363 124.292 75.1412 124.292 75.042V60.8226C124.276 60.7659 124.273 60.7061 124.284 60.6481C124.295 60.5901 124.319 60.5354 124.354 60.4882C124.39 60.4411 124.436 60.4029 124.489 60.3766C124.541 60.3503 124.6 60.3365 124.659 60.3365C124.718 60.3365 124.776 60.3503 124.829 60.3766C124.882 60.4029 124.928 60.4411 124.963 60.4882C124.999 60.5354 125.023 60.5901 125.034 60.6481C125.044 60.7061 125.042 60.7659 125.025 60.8226V75.042C125.025 75.1387 124.988 75.2316 124.921 75.3014C124.854 75.3711 124.763 75.4122 124.666 75.416Z" fill="#231F20"/>
<path d="M163.715 75.416C163.616 75.416 163.521 75.3766 163.45 75.3064C163.38 75.2363 163.341 75.1412 163.341 75.042V60.8226C163.325 60.7659 163.322 60.7061 163.333 60.6481C163.343 60.5901 163.368 60.5354 163.403 60.4882C163.439 60.4411 163.485 60.4029 163.537 60.3766C163.59 60.3503 163.648 60.3365 163.708 60.3365C163.767 60.3365 163.825 60.3503 163.878 60.3766C163.93 60.4029 163.976 60.4411 164.012 60.4882C164.047 60.5354 164.072 60.5901 164.082 60.6481C164.093 60.7061 164.09 60.7659 164.074 60.8226V75.042C164.074 75.1387 164.037 75.2316 163.97 75.3014C163.903 75.3711 163.811 75.4122 163.715 75.416Z" fill="#231F20"/>
<path d="M107.198 164.384C105.988 162.878 104.464 161.654 102.732 160.798C98.3763 158.862 93.1989 160.798 89.4296 163.731C87.6549 165.103 85.9756 166.76 85.2496 168.865C84.0323 172.436 85.7776 176.337 88.007 179.381C88.8902 180.715 90.0602 181.835 91.4316 182.659C93.2248 183.514 95.2672 183.691 97.181 183.157C99.0761 182.613 100.875 181.777 102.512 180.679C105.094 179.065 110.088 176.455 111.312 173.499C112.537 170.544 108.936 166.379 107.198 164.384Z" fill="#231F20"/>
<path d="M94.8475 183.832C93.6028 183.85 92.3722 183.566 91.2615 183.003C89.8403 182.153 88.6275 180.996 87.7122 179.615C85.6882 176.851 83.5542 172.729 84.9035 168.769C85.5415 166.907 86.9129 165.22 89.2082 163.453C93.8869 159.852 98.9982 158.737 102.878 160.468C104.662 161.336 106.232 162.588 107.476 164.135C109.83 166.848 112.829 170.786 111.648 173.668C110.556 176.308 106.742 178.589 103.956 180.268L102.702 181.001C101.032 182.118 99.1985 182.969 97.2675 183.524C96.4765 183.725 95.6638 183.829 94.8475 183.832ZM98.9615 160.365C96.0282 160.365 92.7502 161.619 89.6555 164.032C87.4555 165.704 86.1869 167.288 85.6002 169.004C84.3462 172.671 86.3775 176.565 88.2989 179.183C89.1492 180.476 90.2796 181.561 91.6062 182.358C93.3165 183.178 95.2681 183.342 97.0915 182.82C98.9475 182.287 100.709 181.468 102.313 180.393L103.582 179.623C106.28 178.009 109.976 175.802 110.974 173.382C112.125 170.603 108.209 166.1 106.918 164.582C105.749 163.115 104.268 161.925 102.584 161.099C101.451 160.616 100.23 160.376 98.9982 160.395L98.9615 160.365Z" fill="#231F20"/>
<path d="M115.704 177.973C114.795 180.055 113.35 181.859 111.517 183.201C107.85 185.856 104.748 183.458 100.862 182.813C100.862 182.813 95.6696 181.947 92.4943 182.813C90.6683 183.311 89.3189 180.613 88.6516 179.359C88.0813 178.346 87.7322 177.223 87.6273 176.065C87.5224 174.907 87.6641 173.74 88.0429 172.641C89.5096 168.388 94.0416 168.381 97.8329 167.801C100.649 167.369 104.257 168.535 104.257 168.535C104.257 168.535 100.429 162.47 101.441 161.465C102.453 160.461 106.494 160.307 107.938 161.751C109.926 163.739 109.764 167.31 110.996 169.818C111.986 169.715 114.472 168.755 115.455 168.975C116.687 169.253 118.007 170.441 118.931 171.277C121.083 173.17 122.81 175.497 123.998 178.105C124.441 178.922 124.671 179.837 124.666 180.767C124.652 181.232 124.493 181.681 124.212 182.052C123.93 182.422 123.54 182.696 123.096 182.835C122.187 183.033 121.307 182.461 120.588 181.874C118.852 180.436 117.366 178.722 116.188 176.799C116.027 177.181 115.866 177.577 115.704 177.973Z" fill="white"/>
<path d="M107.925 184.8C106.522 184.722 105.138 184.438 103.818 183.957C102.831 183.633 101.824 183.373 100.804 183.179C100.591 183.143 95.634 182.343 92.5907 183.179C90.574 183.722 89.188 181.141 88.44 179.755L88.3227 179.535C87.7282 178.476 87.3641 177.303 87.2542 176.094C87.1442 174.884 87.2909 173.665 87.6847 172.517C89.0047 168.586 92.884 168.08 96.3087 167.625C96.8 167.567 97.2987 167.501 97.7754 167.427C99.6654 167.252 101.572 167.423 103.4 167.933C102.102 165.777 100.181 162.184 101.149 161.216C101.823 160.541 103.349 160.314 104.507 160.329C105.241 160.329 107.147 160.475 108.174 161.502C109.457 162.785 109.89 164.641 110.308 166.437C110.508 167.453 110.803 168.447 111.188 169.407C111.518 169.349 111.958 169.224 112.42 169.099C113.586 168.784 114.796 168.454 115.515 168.615C116.747 168.894 118.015 170.001 118.939 170.815L119.152 170.999C121.333 172.929 123.082 175.298 124.285 177.951C124.762 178.825 125.002 179.808 124.982 180.803C124.961 181.348 124.77 181.873 124.436 182.304C124.102 182.736 123.642 183.052 123.119 183.209C122.012 183.458 120.971 182.732 120.289 182.175C118.711 180.878 117.332 179.355 116.197 177.657C116.131 177.826 116.065 177.995 115.991 178.156C115.062 180.304 113.576 182.165 111.687 183.546C110.601 184.359 109.281 184.798 107.925 184.8ZM96.0667 182.05C97.6897 182.063 99.3097 182.192 100.914 182.439C101.97 182.637 103.011 182.907 104.031 183.245C106.583 184.03 108.79 184.712 111.283 182.893C113.065 181.593 114.467 179.841 115.346 177.819C115.507 177.437 115.661 177.085 115.786 176.653C115.806 176.584 115.846 176.523 115.901 176.477C115.956 176.432 116.023 176.403 116.094 176.396C116.167 176.386 116.241 176.398 116.307 176.429C116.373 176.46 116.429 176.51 116.468 176.572C117.631 178.46 119.098 180.142 120.809 181.551C121.425 182.05 122.225 182.607 123.009 182.439C123.374 182.316 123.691 182.084 123.918 181.774C124.145 181.465 124.271 181.092 124.278 180.708C124.28 179.843 124.065 178.991 123.655 178.229C122.483 175.673 120.787 173.391 118.675 171.534L118.463 171.343C117.597 170.61 116.417 169.554 115.368 169.319C114.438 169.323 113.516 169.484 112.64 169.796C112.113 169.955 111.577 170.079 111.034 170.17C110.956 170.178 110.878 170.162 110.81 170.124C110.742 170.086 110.687 170.028 110.653 169.957C110.173 168.874 109.819 167.74 109.597 166.577C109.179 164.802 108.79 163.13 107.668 162.008C106.765 161.322 105.647 160.982 104.515 161.047C103.261 161.047 102.109 161.304 101.706 161.715C101.303 162.125 102.623 165.227 104.573 168.315C104.616 168.379 104.639 168.454 104.639 168.531C104.639 168.608 104.616 168.683 104.573 168.747C104.526 168.809 104.459 168.855 104.384 168.877C104.309 168.899 104.229 168.898 104.155 168.872C104.155 168.872 100.599 167.75 97.9074 168.139L96.4407 168.344C93.082 168.784 89.6134 169.239 88.44 172.744C88.0781 173.794 87.9432 174.909 88.0443 176.015C88.1455 177.121 88.4803 178.194 89.0267 179.161L89.144 179.381C89.7894 180.583 90.9994 182.827 92.4294 182.431C93.6209 182.151 94.843 182.023 96.0667 182.05Z" fill="#231F20"/>
<path d="M100.912 167.149C100.912 167.149 101.521 182.615 100.788 184.265C100.054 185.915 97.8031 185.988 96.8278 185.269C95.8525 184.551 95.1192 176.733 95.1192 176.733C95.1192 176.733 94.7158 183.876 94.1805 184.888C93.0951 186.941 90.3085 186.905 89.9418 179.901C89.9418 179.901 89.9418 185.35 88.1745 185.35C86.4071 185.35 86.1945 183.883 86.0185 181.456C85.8425 179.029 85.5125 174.9 88.2185 171.431C90.9245 167.963 100.062 166.716 100.912 167.149Z" fill="white"/>
<path d="M92.6043 186.472C92.4832 186.471 92.3626 186.457 92.245 186.428C91.5923 186.289 90.595 185.651 90.0083 183.245C89.7223 184.565 89.187 185.753 88.175 185.753C85.975 185.753 85.8136 183.876 85.6376 181.507C85.447 178.963 85.139 174.79 87.889 171.241C90.4923 167.875 99.8936 166.232 101.089 166.841C101.149 166.872 101.199 166.918 101.235 166.974C101.271 167.031 101.292 167.096 101.294 167.163C101.353 168.755 101.881 182.761 101.133 184.448C100.958 184.831 100.698 185.17 100.373 185.438C100.047 185.706 99.6654 185.897 99.2556 185.995C98.8102 186.119 98.3435 186.148 97.8861 186.08C97.4287 186.012 96.9908 185.848 96.601 185.599C96.007 185.159 95.5376 182.908 95.215 180.73C95.039 182.622 94.8043 184.58 94.4816 185.13C94.3163 185.5 94.0552 185.82 93.7252 186.056C93.3952 186.292 93.0083 186.435 92.6043 186.472ZM89.9423 179.549C90.0386 179.549 90.1314 179.585 90.2021 179.65C90.2728 179.716 90.3162 179.805 90.3236 179.901C90.529 183.876 91.541 185.497 92.4136 185.695C92.927 185.805 93.477 185.438 93.8803 184.734C94.2836 184.03 94.6136 179.461 94.7823 176.733C94.8051 176.654 94.8532 176.584 94.9193 176.534C94.9855 176.484 95.0661 176.457 95.149 176.457C95.2318 176.457 95.3125 176.484 95.3786 176.534C95.4448 176.584 95.4929 176.654 95.5156 176.733C95.8603 180.4 96.5496 184.595 97.0703 184.976C97.3677 185.159 97.7002 185.278 98.0462 185.324C98.3923 185.371 98.7443 185.345 99.0796 185.247C99.3799 185.178 99.6603 185.041 99.8993 184.846C100.138 184.652 100.329 184.405 100.458 184.125C100.957 182.989 100.796 173.653 100.561 167.471C99.0283 167.347 90.903 168.586 88.505 171.695C85.931 175.032 86.2243 179.029 86.4076 181.419C86.6056 184.089 86.7963 185.013 88.1896 185.013C89.1356 185.013 89.583 181.984 89.583 179.938C89.582 179.889 89.5908 179.841 89.6088 179.795C89.6267 179.75 89.6536 179.709 89.6877 179.674C89.7219 179.639 89.7626 179.611 89.8076 179.593C89.8526 179.574 89.9009 179.564 89.9496 179.564L89.9423 179.549Z" fill="#231F20"/>
<path d="M103.817 181.133H103.729C103.68 181.123 103.634 181.103 103.593 181.074C103.552 181.045 103.518 181.009 103.492 180.966C103.465 180.924 103.448 180.876 103.441 180.827C103.434 180.777 103.437 180.727 103.45 180.679C103.813 179.015 104.6 177.475 105.737 176.207C106.873 174.94 108.319 173.989 109.933 173.448C110.027 173.432 110.123 173.451 110.204 173.502C110.284 173.553 110.342 173.632 110.367 173.724C110.392 173.816 110.381 173.914 110.338 173.999C110.294 174.083 110.22 174.148 110.131 174.181C108.647 174.684 107.318 175.563 106.276 176.732C105.233 177.902 104.512 179.323 104.184 180.855C104.161 180.935 104.113 181.005 104.047 181.056C103.981 181.106 103.9 181.133 103.817 181.133Z" fill="#231F20"/>
<path d="M105.774 160.783C103.024 159.867 101.308 160.05 99.7315 161.979C99.1627 162.751 98.747 163.624 98.5069 164.553C97.6366 167.402 97.2475 170.376 97.3555 173.353C97.3294 173.917 97.4507 174.478 97.7075 174.981C97.9886 175.376 98.3873 175.673 98.8469 175.828C99.3065 175.984 99.8035 175.99 100.267 175.846C101.19 175.534 101.991 174.939 102.555 174.145C104.41 171.791 105.048 168.733 105.628 165.792" fill="white"/>
<path d="M99.594 176.301C99.1599 176.316 98.7292 176.218 98.3438 176.018C97.9583 175.817 97.6312 175.521 97.394 175.157C97.1125 174.598 96.9739 173.978 96.9907 173.353C96.8804 170.338 97.277 167.326 98.164 164.443C98.4167 163.468 98.8549 162.552 99.4547 161.744C101.303 159.478 103.371 159.544 105.908 160.424C106.003 160.457 106.081 160.527 106.125 160.618C106.169 160.708 106.175 160.813 106.143 160.908C106.127 160.955 106.102 160.998 106.07 161.035C106.037 161.072 105.998 161.103 105.953 161.125C105.909 161.147 105.861 161.159 105.811 161.162C105.762 161.166 105.713 161.159 105.666 161.143C102.909 160.226 101.435 160.505 100.041 162.221C99.5045 162.954 99.1113 163.783 98.8827 164.663C98.0266 167.467 97.6425 170.393 97.746 173.323C97.7268 173.829 97.8299 174.332 98.0467 174.79C98.2869 175.112 98.6213 175.352 99.0037 175.475C99.3861 175.599 99.7974 175.6 100.181 175.479C101.031 175.196 101.766 174.645 102.278 173.91C104.119 171.578 104.727 168.461 105.27 165.719C105.291 165.62 105.35 165.534 105.433 165.478C105.517 165.422 105.618 165.401 105.717 165.418C105.766 165.428 105.813 165.447 105.854 165.475C105.895 165.502 105.931 165.538 105.958 165.58C105.986 165.622 106.004 165.668 106.013 165.717C106.022 165.766 106.021 165.817 106.011 165.865C105.453 168.696 104.823 171.901 102.872 174.379C102.264 175.243 101.391 175.887 100.386 176.213C100.127 176.276 99.8607 176.306 99.594 176.301Z" fill="#231F20"/>
<path d="M182.219 164.384C183.431 162.88 184.954 161.656 186.685 160.798C191.048 158.862 196.218 160.798 199.987 163.731C201.769 165.103 203.441 166.76 204.167 168.865C205.385 172.436 203.639 176.337 201.41 179.381C200.529 180.716 199.358 181.837 197.985 182.659C196.192 183.515 194.15 183.692 192.236 183.157C190.343 182.614 188.546 181.778 186.912 180.679C184.323 179.065 179.329 176.455 178.112 173.499C176.895 170.544 180.488 166.379 182.219 164.384Z" fill="#231F20"/>
<path d="M194.575 183.832C193.757 183.831 192.942 183.73 192.148 183.531C190.217 182.975 188.384 182.124 186.714 181.009L185.467 180.275C182.68 178.603 178.867 176.323 177.774 173.675C176.586 170.808 179.586 166.87 181.947 164.142C183.188 162.596 184.756 161.343 186.538 160.475C190.424 158.745 195.536 159.859 200.214 163.46C202.51 165.227 203.881 166.914 204.512 168.777C205.868 172.737 203.734 176.843 201.703 179.623C200.79 181.005 199.577 182.163 198.154 183.011C197.045 183.57 195.817 183.851 194.575 183.832ZM190.461 160.365C189.2 160.344 187.95 160.594 186.794 161.099C185.11 161.925 183.63 163.115 182.46 164.582C181.177 166.049 177.261 170.566 178.412 173.382C179.41 175.802 183.106 178.009 185.804 179.623L187.066 180.393C188.67 181.468 190.431 182.287 192.287 182.82C194.113 183.342 196.067 183.178 197.78 182.358C199.105 181.562 200.233 180.476 201.08 179.183C203.008 176.565 205.04 172.663 203.786 169.004C203.199 167.288 201.908 165.704 199.73 164.032C196.665 161.649 193.387 160.395 190.461 160.395V160.365Z" fill="#231F20"/>
<path d="M173.71 177.973C174.619 180.055 176.064 181.859 177.898 183.201C181.564 185.856 184.666 183.458 188.553 182.813C188.553 182.813 193.752 181.947 196.928 182.813C198.746 183.311 200.096 180.613 200.763 179.359C201.336 178.347 201.687 177.224 201.792 176.066C201.897 174.907 201.754 173.74 201.372 172.641C199.905 168.388 195.38 168.381 191.582 167.801C188.766 167.369 185.158 168.535 185.158 168.535C185.158 168.535 188.986 162.47 187.974 161.465C186.962 160.461 182.921 160.307 181.476 161.751C179.489 163.739 179.658 167.31 178.418 169.818C177.428 169.715 174.942 168.755 173.96 168.975C172.728 169.253 171.415 170.441 170.484 171.277C168.332 173.17 166.605 175.497 165.416 178.105C164.972 178.921 164.745 179.837 164.756 180.767C164.764 181.232 164.92 181.683 165.2 182.055C165.481 182.427 165.873 182.7 166.318 182.835C167.228 183.033 168.115 182.461 168.834 181.874C170.566 180.432 172.052 178.718 173.234 176.799C173.371 177.199 173.531 177.59 173.71 177.973Z" fill="white"/>
<path d="M181.492 184.8C180.112 184.799 178.772 184.342 177.678 183.502C175.787 182.121 174.298 180.26 173.366 178.112C173.293 177.951 173.227 177.789 173.161 177.613C172.026 179.31 170.65 180.831 169.076 182.131C168.387 182.688 167.346 183.407 166.238 183.165C165.716 183.008 165.256 182.692 164.922 182.26C164.588 181.829 164.397 181.304 164.376 180.759C164.362 179.765 164.602 178.783 165.072 177.907C166.278 175.256 168.027 172.887 170.206 170.955L170.418 170.771C171.35 169.957 172.618 168.85 173.85 168.571C174.584 168.41 175.772 168.74 176.945 169.055C177.4 169.18 177.84 169.305 178.17 169.363C178.555 168.403 178.849 167.409 179.05 166.393C179.475 164.597 179.908 162.727 181.184 161.458C182.724 159.918 186.992 159.947 188.216 161.172C189.184 162.14 187.256 165.733 185.958 167.889C187.798 167.388 189.714 167.229 191.612 167.42C192.1 167.493 192.589 167.559 193.078 167.618C196.496 168.073 200.412 168.579 201.695 172.509C202.092 173.657 202.241 174.877 202.131 176.087C202.021 177.297 201.655 178.47 201.057 179.527L200.947 179.747C200.214 181.133 198.813 183.715 196.789 183.172C193.731 182.336 188.627 183.172 188.576 183.172C187.555 183.367 186.549 183.627 185.562 183.949C184.254 184.431 182.883 184.717 181.492 184.8ZM173.264 176.381H173.308C173.379 176.389 173.447 176.418 173.503 176.463C173.559 176.509 173.601 176.569 173.623 176.638C173.745 177.035 173.892 177.425 174.063 177.804C174.94 179.828 176.342 181.58 178.126 182.879C180.612 184.69 182.819 184.008 185.378 183.231C186.395 182.891 187.434 182.622 188.488 182.424C188.708 182.387 193.804 181.551 197.024 182.424C198.49 182.82 199.664 180.576 200.316 179.373L200.434 179.153C200.977 178.185 201.309 177.113 201.409 176.007C201.509 174.901 201.374 173.787 201.013 172.737C199.847 169.253 196.371 168.799 193.012 168.337L191.546 168.131C188.854 167.713 185.334 168.828 185.298 168.865C185.223 168.889 185.144 168.89 185.069 168.868C184.994 168.846 184.928 168.801 184.88 168.74C184.835 168.677 184.811 168.601 184.811 168.524C184.811 168.446 184.835 168.371 184.88 168.307C186.83 165.213 188.172 162.125 187.747 161.707C186.882 160.842 183.09 160.688 181.785 162.001C180.656 163.123 180.267 164.795 179.856 166.562C179.633 167.728 179.276 168.865 178.793 169.95C178.761 170.02 178.707 170.079 178.64 170.117C178.573 170.155 178.496 170.171 178.419 170.163C177.874 170.073 177.335 169.948 176.806 169.789C175.931 169.481 175.012 169.32 174.085 169.312C173.036 169.547 171.848 170.581 170.983 171.336L170.77 171.527C168.637 173.369 166.92 175.644 165.732 178.2C165.316 178.96 165.099 179.812 165.102 180.679C165.112 181.062 165.239 181.433 165.466 181.742C165.692 182.051 166.008 182.284 166.37 182.409C167.155 182.578 167.954 182.021 168.57 181.522C170.284 180.113 171.753 178.431 172.919 176.543C172.957 176.488 173.009 176.445 173.07 176.418C173.131 176.391 173.198 176.381 173.264 176.389V176.381Z" fill="#231F20"/>
<path d="M188.503 167.149C188.503 167.149 187.902 182.615 188.628 184.265C189.354 185.915 191.62 185.988 192.588 185.269C193.556 184.551 194.333 176.733 194.333 176.733C194.333 176.733 194.737 183.876 195.272 184.888C196.365 186.941 199.144 186.905 199.511 179.901C199.511 179.901 199.511 185.35 201.278 185.35C203.045 185.35 203.258 183.883 203.441 181.456C203.625 179.029 203.947 174.9 201.241 171.431C198.535 167.963 189.354 166.716 188.503 167.149Z" fill="white"/>
<path d="M196.819 186.472C196.404 186.439 196.005 186.292 195.668 186.047C195.33 185.803 195.066 185.47 194.905 185.086C194.502 183.652 194.268 182.175 194.208 180.686C193.886 182.886 193.416 185.086 192.815 185.555C192.426 185.806 191.988 185.971 191.53 186.039C191.073 186.107 190.606 186.077 190.16 185.951C189.751 185.852 189.37 185.661 189.045 185.393C188.719 185.125 188.459 184.787 188.283 184.404C187.55 182.717 188.063 168.711 188.122 167.119C188.126 167.052 188.148 166.986 188.185 166.93C188.223 166.873 188.274 166.827 188.334 166.797C189.522 166.188 198.924 167.831 201.534 171.197C204.292 174.761 203.976 178.941 203.793 181.463C203.61 183.986 203.47 185.753 201.248 185.753C200.236 185.753 199.701 184.565 199.422 183.245C198.828 185.651 197.831 186.289 197.178 186.428C197.061 186.457 196.94 186.472 196.819 186.472ZM194.333 176.374C194.429 176.376 194.52 176.414 194.588 176.481C194.656 176.548 194.696 176.638 194.7 176.733C194.854 179.461 195.235 184.067 195.602 184.734C195.968 185.401 196.533 185.805 197.068 185.695C197.941 185.497 198.946 183.876 199.158 179.901C199.164 179.806 199.206 179.716 199.276 179.651C199.345 179.586 199.437 179.549 199.532 179.549C199.632 179.549 199.727 179.589 199.797 179.659C199.867 179.729 199.906 179.824 199.906 179.923C199.906 181.969 200.346 184.998 201.292 184.998C202.686 184.998 202.884 184.074 203.074 181.449C203.258 179.014 203.558 175.017 200.977 171.681C198.579 168.571 190.476 167.325 188.921 167.457C188.686 173.639 188.525 182.974 189.031 184.111C189.159 184.391 189.351 184.638 189.59 184.832C189.829 185.027 190.109 185.164 190.41 185.233C190.745 185.328 191.097 185.353 191.443 185.306C191.788 185.26 192.121 185.142 192.419 184.961C192.932 184.58 193.629 180.385 193.974 176.719C193.981 176.627 194.022 176.541 194.088 176.478C194.154 176.414 194.241 176.377 194.333 176.374Z" fill="#231F20"/>
<path d="M185.598 181.133C185.513 181.132 185.431 181.103 185.364 181.05C185.298 180.997 185.251 180.923 185.231 180.84C184.903 179.308 184.182 177.888 183.139 176.718C182.097 175.548 180.768 174.669 179.284 174.167C179.192 174.135 179.115 174.07 179.069 173.983C179.024 173.897 179.013 173.797 179.04 173.703C179.066 173.609 179.127 173.529 179.211 173.478C179.294 173.428 179.394 173.412 179.489 173.433C181.102 173.975 182.547 174.926 183.682 176.193C184.817 177.461 185.604 179.001 185.965 180.664C185.978 180.712 185.981 180.763 185.974 180.812C185.967 180.861 185.95 180.909 185.923 180.951C185.897 180.994 185.863 181.031 185.822 181.06C185.781 181.088 185.735 181.108 185.686 181.119L185.598 181.133Z" fill="#231F20"/>
<path d="M183.648 160.783C186.398 159.867 188.114 160.05 189.684 161.979C190.255 162.749 190.671 163.623 190.908 164.553C191.781 167.401 192.173 170.375 192.067 173.353C192.086 173.916 191.965 174.475 191.715 174.981C191.433 175.377 191.033 175.674 190.572 175.829C190.111 175.984 189.613 175.99 189.148 175.846C188.226 175.532 187.426 174.937 186.86 174.145C185.005 171.791 184.374 168.733 183.795 165.792" fill="white"/>
<path d="M189.829 176.301C189.566 176.301 189.305 176.266 189.052 176.198C188.044 175.876 187.171 175.232 186.566 174.365C184.608 171.886 183.977 168.681 183.42 165.851C183.402 165.752 183.424 165.65 183.48 165.566C183.536 165.483 183.622 165.425 183.72 165.403C183.769 165.394 183.819 165.394 183.868 165.404C183.916 165.414 183.962 165.434 184.003 165.462C184.044 165.49 184.079 165.525 184.106 165.567C184.133 165.609 184.151 165.655 184.16 165.704C184.703 168.447 185.319 171.571 187.16 173.895C187.669 174.63 188.402 175.181 189.25 175.465C189.634 175.585 190.046 175.583 190.43 175.46C190.813 175.336 191.149 175.097 191.391 174.775C191.609 174.318 191.71 173.814 191.684 173.309C191.792 170.379 191.408 167.451 190.548 164.648C190.319 163.768 189.926 162.94 189.389 162.206C187.996 160.49 186.522 160.211 183.764 161.128C183.718 161.144 183.668 161.151 183.619 161.148C183.569 161.145 183.521 161.132 183.477 161.11C183.433 161.088 183.393 161.058 183.361 161.021C183.328 160.983 183.303 160.94 183.288 160.893C183.271 160.846 183.265 160.795 183.268 160.745C183.272 160.695 183.285 160.646 183.308 160.601C183.33 160.556 183.361 160.516 183.4 160.483C183.438 160.45 183.482 160.425 183.53 160.409C186.067 159.566 188.135 159.463 189.976 161.729C190.58 162.535 191.021 163.452 191.274 164.428C192.155 167.313 192.549 170.324 192.44 173.338C192.466 173.964 192.327 174.587 192.036 175.142C191.801 175.511 191.474 175.812 191.087 176.015C190.7 176.218 190.266 176.317 189.829 176.301Z" fill="#231F20"/>
<path d="M211.969 202.701H75.7528L74.7188 198.088H213.003L211.969 202.701Z" fill="white"/>
<path d="M211.969 203.082H75.7525C75.667 203.082 75.5841 203.053 75.5174 203C75.4507 202.947 75.4042 202.872 75.3858 202.789L74.3445 198.169C74.3345 198.113 74.3359 198.055 74.3485 198C74.3611 197.944 74.3846 197.892 74.4178 197.846C74.4546 197.802 74.5006 197.767 74.5525 197.743C74.6045 197.719 74.6612 197.706 74.7185 197.707H213.003C213.06 197.706 213.117 197.719 213.169 197.743C213.221 197.767 213.267 197.802 213.304 197.846C213.339 197.891 213.363 197.944 213.376 197.999C213.388 198.055 213.389 198.113 213.377 198.169L212.336 202.789C212.317 202.872 212.271 202.947 212.204 203C212.138 203.053 212.055 203.082 211.969 203.082ZM76.0605 202.349H211.668L212.534 198.484H75.1878L76.0605 202.349Z" fill="#231F20"/>
<path d="M129.461 84.942C128.744 84.9822 128.033 84.7949 127.43 84.4066C124.386 82.2066 126.183 73.6486 126.264 73.2893C126.274 73.2412 126.293 73.1955 126.321 73.1548C126.349 73.1142 126.384 73.0795 126.426 73.0526C126.467 73.0257 126.513 73.0072 126.561 72.9981C126.61 72.989 126.659 72.9895 126.707 72.9996C126.756 73.0097 126.801 73.0292 126.842 73.057C126.883 73.0848 126.917 73.1203 126.944 73.1615C126.971 73.2027 126.99 73.2488 126.999 73.2971C127.008 73.3455 127.007 73.3952 126.997 73.4433C126.491 75.7826 125.67 82.2066 127.877 83.8126C130.084 85.4186 137.198 81.8986 139.75 80.41C139.832 80.3726 139.926 80.3672 140.013 80.3949C140.099 80.4226 140.172 80.4813 140.218 80.5598C140.263 80.6383 140.278 80.7309 140.26 80.8197C140.241 80.9085 140.19 80.9873 140.116 81.0406C139.779 81.2313 133.377 84.942 129.461 84.942Z" fill="#231F20"/>
<path d="M144.45 76.2056L139.898 79.1326C139.169 79.6013 138.958 80.5723 139.427 81.3013C139.896 82.0304 140.867 82.2414 141.596 81.7726L146.148 78.8457C146.877 78.3769 147.088 77.4059 146.619 76.6769C146.15 75.9479 145.179 75.7369 144.45 76.2056Z" fill="#231F20"/>
<path d="M140.755 82.3753C140.614 82.3752 140.474 82.3604 140.337 82.3313C139.962 82.2502 139.621 82.06 139.354 81.7847C139.088 81.5093 138.91 81.1613 138.842 80.7845C138.773 80.4077 138.818 80.0191 138.971 79.6679C139.123 79.3167 139.377 79.0186 139.699 78.8113L144.253 75.878C144.684 75.5999 145.209 75.5046 145.711 75.6133C146.213 75.7219 146.651 76.0255 146.929 76.4573C147.207 76.8891 147.303 77.4137 147.194 77.9156C147.085 78.4176 146.782 78.8559 146.35 79.134L141.796 82.0673C141.486 82.2691 141.124 82.3762 140.755 82.3753ZM145.301 76.3106C145.07 76.3105 144.844 76.3767 144.649 76.5013L140.095 79.4346C139.832 79.602 139.645 79.8651 139.574 80.168C139.538 80.3226 139.534 80.4829 139.561 80.6392C139.589 80.7955 139.648 80.9445 139.735 81.0773C139.901 81.343 140.164 81.5328 140.469 81.6053C140.624 81.6386 140.784 81.6408 140.94 81.6119C141.096 81.5829 141.245 81.5234 141.378 81.4366L145.932 78.5033C146.066 78.4184 146.181 78.3078 146.272 78.1778C146.363 78.0478 146.427 77.9011 146.46 77.7462C146.493 77.5913 146.496 77.4313 146.467 77.2755C146.438 77.1197 146.378 76.9712 146.291 76.8386C146.125 76.5751 145.862 76.388 145.558 76.318C145.473 76.3052 145.387 76.3027 145.301 76.3106Z" fill="#231F20"/>
<path d="M149.878 117.399C150.595 117.399 151.176 116.818 151.176 116.101C151.176 115.384 150.595 114.803 149.878 114.803C149.161 114.803 148.58 115.384 148.58 116.101C148.58 116.818 149.161 117.399 149.878 117.399Z" fill="#231F20"/>
<path d="M111.547 135.586H111.466C111.417 135.577 111.37 135.559 111.329 135.532C111.287 135.505 111.251 135.47 111.223 135.429C111.195 135.388 111.176 135.342 111.166 135.293C111.156 135.245 111.156 135.195 111.165 135.146C111.209 134.882 111.429 133.797 111.752 132.213C112.757 127.255 114.619 118.037 115.338 114.129C115.362 114.037 115.419 113.957 115.5 113.906C115.58 113.855 115.676 113.837 115.77 113.855C115.863 113.872 115.946 113.925 116.002 114.002C116.058 114.078 116.083 114.174 116.071 114.268C115.338 118.184 113.49 127.409 112.485 132.367L111.899 135.3C111.879 135.38 111.834 135.451 111.771 135.502C111.707 135.554 111.628 135.583 111.547 135.586Z" fill="#231F20"/>
<path d="M127.467 140.111C132.003 140.111 135.681 136.433 135.681 131.897C135.681 127.361 132.003 123.684 127.467 123.684C122.931 123.684 119.254 127.361 119.254 131.897C119.254 136.433 122.931 140.111 127.467 140.111Z" fill="#231F20"/>
<path d="M122.238 128.018L122.472 127.541L122.604 127.299C122.629 127.247 122.671 127.205 122.723 127.18C122.775 127.156 122.835 127.152 122.89 127.167L123.286 127.285C123.355 127.312 123.426 127.332 123.499 127.343C123.549 127.362 123.603 127.362 123.653 127.343C123.829 127.219 123.998 127.079 124.159 126.947C124.189 126.921 124.211 126.888 124.224 126.851C124.237 126.813 124.24 126.773 124.232 126.735L124.188 126.236C124.178 126.17 124.178 126.104 124.188 126.038C124.199 125.99 124.228 125.948 124.269 125.921C124.539 125.792 124.825 125.703 125.12 125.657C125.164 125.651 125.209 125.659 125.249 125.68C125.288 125.701 125.32 125.734 125.34 125.774C125.428 125.928 125.516 126.075 125.596 126.236C125.622 126.295 125.664 126.344 125.717 126.38C125.771 126.415 125.833 126.434 125.897 126.434L126.432 126.478C126.466 126.482 126.499 126.477 126.53 126.464C126.561 126.451 126.588 126.431 126.608 126.405L126.828 126.141C126.894 126.067 126.96 125.987 127.026 125.921C127.056 125.882 127.097 125.855 127.144 125.845C127.191 125.834 127.24 125.84 127.283 125.862L128.016 126.229C128.059 126.253 128.092 126.291 128.11 126.336C128.129 126.381 128.132 126.431 128.119 126.478C128.119 126.617 128.038 126.749 128.002 126.881C127.981 126.944 127.964 127.008 127.95 127.072C127.939 127.112 127.937 127.155 127.946 127.196C127.955 127.237 127.974 127.275 128.002 127.307C128.119 127.446 128.236 127.585 128.346 127.732C128.378 127.775 128.42 127.809 128.47 127.829C128.519 127.85 128.572 127.857 128.625 127.849L129.168 127.798C129.228 127.785 129.291 127.796 129.343 127.829C129.395 127.862 129.432 127.914 129.446 127.974C129.52 128.201 129.593 128.429 129.659 128.649C129.686 128.713 129.687 128.785 129.66 128.85C129.634 128.914 129.584 128.966 129.52 128.993L129.212 129.162C129.137 129.199 129.066 129.243 128.999 129.294C128.968 129.31 128.941 129.334 128.922 129.364C128.903 129.393 128.891 129.427 128.889 129.463C128.889 129.653 128.889 129.837 128.838 130.02C128.832 130.07 128.84 130.121 128.861 130.168C128.881 130.214 128.914 130.254 128.955 130.284L129.234 130.504L129.402 130.651C129.439 130.686 129.463 130.732 129.471 130.783C129.479 130.833 129.47 130.884 129.446 130.929L129.116 131.56C129.096 131.592 129.071 131.622 129.043 131.648C129.019 131.682 128.984 131.707 128.945 131.72C128.905 131.733 128.863 131.734 128.823 131.721L128.354 131.582H128.317C128.253 131.556 128.182 131.55 128.114 131.565C128.046 131.579 127.984 131.613 127.936 131.663C127.833 131.758 127.716 131.846 127.606 131.934C127.555 131.973 127.516 132.025 127.493 132.084C127.47 132.144 127.463 132.208 127.474 132.271C127.474 132.433 127.474 132.594 127.525 132.755C127.576 132.917 127.525 132.99 127.334 133.049L126.601 133.261C126.575 133.272 126.547 133.278 126.519 133.277C126.491 133.277 126.463 133.272 126.437 133.261C126.411 133.25 126.388 133.234 126.368 133.214C126.348 133.194 126.333 133.17 126.322 133.144C126.249 133.027 126.183 132.902 126.117 132.777C125.978 132.513 125.934 132.484 125.64 132.462H125.288C125.233 132.456 125.177 132.464 125.125 132.486C125.074 132.507 125.029 132.542 124.995 132.587C124.907 132.697 124.826 132.807 124.738 132.909C124.691 132.962 124.639 133.011 124.584 133.056C124.556 133.075 124.523 133.086 124.489 133.086C124.455 133.086 124.422 133.075 124.394 133.056C124.174 132.939 123.946 132.829 123.726 132.704L123.646 132.645C123.611 132.622 123.585 132.587 123.572 132.548C123.559 132.508 123.559 132.465 123.572 132.425C123.616 132.271 123.66 132.117 123.712 131.956C123.712 131.912 123.712 131.861 123.712 131.817C123.722 131.777 123.723 131.736 123.714 131.697C123.705 131.657 123.687 131.62 123.66 131.589C123.55 131.457 123.433 131.325 123.323 131.186C123.293 131.146 123.252 131.116 123.206 131.097C123.159 131.079 123.108 131.074 123.059 131.083L122.575 131.135C122.37 131.135 122.304 131.135 122.245 130.915C122.186 130.695 122.106 130.467 122.047 130.24C122.035 130.213 122.029 130.184 122.029 130.155C122.029 130.126 122.035 130.097 122.047 130.07C122.059 130.043 122.076 130.019 122.097 129.999C122.119 129.979 122.144 129.964 122.172 129.954C122.304 129.881 122.443 129.8 122.59 129.734C122.657 129.704 122.715 129.656 122.756 129.595C122.798 129.534 122.821 129.463 122.824 129.389C122.824 129.221 122.824 129.052 122.861 128.883C122.866 128.849 122.862 128.814 122.849 128.782C122.836 128.75 122.815 128.721 122.788 128.7L122.406 128.385C122.315 128.324 122.247 128.233 122.216 128.128L122.238 128.018ZM127.415 129.624C127.443 129.416 127.429 129.204 127.374 129.001C127.319 128.798 127.224 128.609 127.095 128.443C126.966 128.277 126.806 128.138 126.623 128.035C126.44 127.932 126.238 127.866 126.029 127.842C125.613 127.8 125.198 127.921 124.869 128.18C124.541 128.438 124.326 128.814 124.269 129.228C124.217 129.644 124.331 130.063 124.586 130.396C124.842 130.728 125.218 130.946 125.633 131.003C125.841 131.032 126.053 131.02 126.256 130.966C126.459 130.913 126.65 130.819 126.816 130.69C126.982 130.562 127.121 130.401 127.224 130.218C127.327 130.035 127.392 129.833 127.415 129.624Z" fill="white"/>
<path d="M126.471 134.933C126.522 134.801 126.566 134.662 126.61 134.53C126.654 134.398 126.661 134.398 126.691 134.332C126.704 134.288 126.733 134.25 126.772 134.226C126.811 134.202 126.858 134.193 126.903 134.2L127.226 134.251C127.282 134.255 127.339 134.255 127.395 134.251C127.416 134.254 127.437 134.252 127.457 134.245C127.477 134.239 127.496 134.228 127.512 134.215C127.637 134.097 127.754 133.973 127.871 133.848C127.885 133.822 127.893 133.793 127.893 133.764C127.893 133.734 127.885 133.705 127.871 133.679C127.871 133.547 127.813 133.423 127.791 133.291C127.78 133.24 127.78 133.187 127.791 133.137C127.791 133.118 127.796 133.099 127.805 133.083C127.814 133.066 127.826 133.052 127.842 133.041C128.037 132.908 128.252 132.809 128.48 132.748C128.514 132.736 128.55 132.736 128.583 132.748C128.617 132.76 128.645 132.784 128.663 132.814C128.744 132.924 128.832 133.034 128.913 133.151C128.938 133.194 128.975 133.228 129.019 133.25C129.063 133.273 129.113 133.281 129.162 133.276H129.595C129.62 133.275 129.644 133.268 129.666 133.255C129.688 133.242 129.706 133.224 129.719 133.203L129.873 132.975C129.91 132.909 129.954 132.843 129.998 132.777C130.018 132.745 130.049 132.72 130.085 132.708C130.121 132.696 130.161 132.697 130.196 132.711L130.783 132.924C130.821 132.937 130.853 132.964 130.873 132.999C130.893 133.034 130.9 133.075 130.893 133.115C130.893 133.225 130.856 133.335 130.841 133.437V133.591C130.837 133.625 130.841 133.659 130.852 133.691C130.864 133.723 130.883 133.752 130.907 133.775C131.01 133.877 131.12 133.973 131.215 134.075C131.246 134.105 131.283 134.127 131.324 134.139C131.365 134.151 131.409 134.151 131.45 134.141L131.868 134.046C131.891 134.037 131.915 134.032 131.939 134.033C131.963 134.033 131.987 134.039 132.01 134.049C132.032 134.06 132.051 134.075 132.067 134.093C132.083 134.111 132.095 134.133 132.103 134.156C132.183 134.325 132.264 134.493 132.337 134.662C132.352 134.685 132.361 134.712 132.365 134.739C132.37 134.766 132.368 134.794 132.361 134.821C132.355 134.847 132.342 134.872 132.326 134.894C132.309 134.916 132.288 134.934 132.264 134.948L132.044 135.109C131.987 135.147 131.933 135.188 131.883 135.234C131.861 135.252 131.844 135.274 131.833 135.3C131.821 135.325 131.816 135.353 131.817 135.381C131.817 135.527 131.817 135.674 131.817 135.821C131.819 135.861 131.831 135.9 131.851 135.934C131.872 135.968 131.9 135.998 131.934 136.019L132.176 136.158L132.323 136.261C132.356 136.282 132.381 136.314 132.393 136.351C132.405 136.389 132.403 136.429 132.389 136.466L132.191 137.001L132.147 137.075C132.13 137.103 132.105 137.126 132.075 137.14C132.045 137.155 132.011 137.16 131.978 137.155L131.597 137.089C131.543 137.074 131.486 137.076 131.434 137.094C131.381 137.113 131.336 137.147 131.303 137.192L131.076 137.434C131.038 137.468 131.011 137.513 130.998 137.562C130.985 137.612 130.987 137.664 131.003 137.713L131.091 138.087C131.091 138.219 131.091 138.27 130.966 138.329C130.794 138.418 130.618 138.499 130.438 138.571C130.399 138.592 130.353 138.597 130.311 138.584C130.268 138.572 130.232 138.543 130.211 138.505C130.137 138.424 130.079 138.329 130.013 138.241C129.947 138.153 129.844 138.028 129.602 138.043H129.323C129.28 138.045 129.239 138.057 129.202 138.079C129.165 138.1 129.133 138.131 129.111 138.167C129.052 138.263 129.001 138.358 128.942 138.446C128.914 138.496 128.876 138.541 128.832 138.578C128.816 138.601 128.793 138.617 128.766 138.625C128.74 138.633 128.711 138.632 128.685 138.622L128.128 138.409C128.101 138.4 128.076 138.385 128.055 138.365C128.027 138.35 128.004 138.326 127.991 138.297C127.978 138.268 127.974 138.235 127.981 138.204C127.981 138.079 128.018 137.947 128.04 137.823C128.062 137.698 128.04 137.749 128.04 137.705C128.043 137.674 128.038 137.643 128.027 137.613C128.015 137.584 127.997 137.558 127.974 137.537L127.673 137.258C127.645 137.23 127.61 137.209 127.571 137.199C127.533 137.189 127.492 137.189 127.453 137.199L127.079 137.287C126.911 137.287 126.859 137.287 126.786 137.141L126.566 136.635C126.545 136.594 126.541 136.546 126.555 136.502C126.569 136.459 126.599 136.422 126.639 136.4L126.94 136.187C126.992 136.157 127.033 136.113 127.061 136.059C127.088 136.006 127.1 135.946 127.094 135.887V135.491C127.094 135.463 127.087 135.436 127.075 135.412C127.062 135.388 127.043 135.367 127.021 135.351L126.683 135.139C126.604 135.101 126.542 135.036 126.507 134.955L126.471 134.933ZM130.702 135.667C130.702 135.5 130.669 135.336 130.605 135.182C130.541 135.029 130.448 134.889 130.33 134.772C130.212 134.655 130.072 134.562 129.918 134.499C129.764 134.436 129.6 134.404 129.433 134.405C129.103 134.413 128.788 134.549 128.555 134.784C128.323 135.019 128.19 135.336 128.187 135.667C128.189 135.999 128.321 136.316 128.556 136.551C128.791 136.786 129.109 136.919 129.441 136.921C129.607 136.924 129.771 136.893 129.925 136.831C130.079 136.769 130.219 136.677 130.337 136.56C130.454 136.443 130.547 136.304 130.61 136.151C130.673 135.997 130.704 135.833 130.702 135.667Z" fill="white"/>
<path d="M172.099 130.453H152.922V134.53H172.099V130.453Z" fill="white"/>
</svg>
