<svg width="294" height="220" viewBox="0 0 294 220" fill="none" xmlns="http://www.w3.org/2000/svg">
<path d="M123.771 69.4907H155.304C161.839 69.4907 168.106 72.0867 172.727 76.7075C177.348 81.3284 179.944 87.5957 179.944 94.1307V146.124H99.1309V94.1307C99.1309 87.5957 101.727 81.3284 106.348 76.7075C110.969 72.0867 117.236 69.4907 123.771 69.4907Z" fill="#231F20"/>
<path d="M179.953 146.491H99.1323C99.035 146.491 98.9418 146.452 98.873 146.383C98.8043 146.315 98.7656 146.221 98.7656 146.124V94.1307C98.7734 87.5009 101.411 81.1449 106.098 76.4569C110.786 71.7689 117.142 69.1318 123.772 69.124H155.306C161.937 69.1298 168.295 71.7661 172.984 76.4543C177.674 81.1425 180.312 87.4996 180.32 94.1307V146.124C180.32 146.221 180.281 146.315 180.212 146.383C180.143 146.452 180.05 146.491 179.953 146.491ZM99.499 145.757H179.586V94.1307C179.579 87.6941 177.018 81.5235 172.466 76.9728C167.914 72.4222 161.742 69.8632 155.306 69.8574H123.772C117.337 69.8651 111.167 72.425 106.617 76.9754C102.067 81.5259 99.5067 87.6954 99.499 94.1307V145.757Z" fill="#231F20"/>
<path d="M135.755 80.2193C135.755 80.2193 116.967 86.086 114.906 90.6033C113.439 93.83 124.439 122.276 124.439 122.276C124.439 122.276 126.089 130.746 125.979 133.833C125.869 136.921 124.879 151.683 124.879 151.683H168.667C168.667 151.683 166.467 132.183 166.687 129.536C166.907 126.889 169.437 115.669 169.437 115.669L174.724 87.802C174.724 87.802 156.86 80.5347 154.733 79.7353C152.607 78.936 135.755 80.2193 135.755 80.2193Z" fill="#FF6C22"/>
<path d="M163.188 73.1133C164.515 72.1893 165.578 71.016 165.74 70.18C165.817 69.2242 165.656 68.2641 165.27 67.386C162.066 57.7573 162.704 46.7867 157.299 38.2287C156.642 37.0388 155.699 36.0309 154.556 35.2953C153.984 34.936 153.322 34.7455 152.646 34.7455C151.97 34.7455 151.308 34.936 150.736 35.2953C145.932 27.2067 134.14 33 130.796 39.6C127.247 46.5447 125.172 54.516 122.539 61.8493C121.725 64.1153 120.896 66.484 121.168 68.882C121.439 71.28 123.148 73.6927 125.568 73.9273L126.836 71.7273C126.565 72.0718 126.435 72.5064 126.471 72.9434C126.508 73.3803 126.709 73.787 127.034 74.0813C127.713 74.6405 128.528 75.0099 129.396 75.152C137.873 77.2933 146.996 78.9947 155.202 76.0833C156.478 75.636 157.966 74.5213 157.453 73.2747C158.179 75.4893 161.032 74.624 163.188 73.1133Z" fill="white"/>
<path d="M145.493 77.9753C140.125 77.9753 134.617 76.8387 129.286 75.4893C128.351 75.3323 127.474 74.9271 126.749 74.316C126.517 74.0854 126.337 73.8079 126.221 73.502L125.876 74.1033C125.84 74.167 125.786 74.2188 125.721 74.2527C125.656 74.2865 125.582 74.3008 125.509 74.294C122.803 74.0373 121.058 71.3607 120.787 68.9113C120.508 66.3813 121.395 63.9027 122.187 61.71C122.979 59.5173 123.713 57.2587 124.439 55.0513C126.169 49.7787 127.951 44.3227 130.459 39.4167C132.733 34.9213 138.599 31.1447 143.476 30.998C144.939 30.9059 146.4 31.2142 147.701 31.89C149.002 32.5657 150.095 33.5833 150.861 34.8333C151.471 34.5394 152.144 34.4004 152.821 34.4286C153.497 34.4567 154.156 34.6511 154.74 34.9947C155.932 35.754 156.919 36.7939 157.615 38.0233C160.973 43.34 162.015 49.6613 163.085 55.7773C163.641 59.6596 164.491 63.4938 165.63 67.2467L165.674 67.3787C166.058 68.2799 166.207 69.2641 166.107 70.2387C165.909 71.3313 164.581 72.6 163.408 73.4213C161.553 74.7193 159.741 75.2547 158.502 74.888C158.235 74.7971 157.986 74.6579 157.769 74.4773C157.224 75.4027 156.353 76.0908 155.327 76.406C152.162 77.4858 148.836 78.0165 145.493 77.9753ZM126.866 72.4167C126.86 72.4948 126.86 72.5732 126.866 72.6513C126.875 73.0749 127.045 73.479 127.343 73.7807C127.98 74.2903 128.737 74.6263 129.543 74.756C138.093 76.956 147.143 78.5327 155.129 75.702C155.958 75.4472 156.67 74.9068 157.138 74.1767C157.241 73.9616 157.261 73.7166 157.197 73.4873C157.177 73.4471 157.159 73.4055 157.145 73.3627C157.117 73.2683 157.125 73.1665 157.169 73.078C157.212 72.9895 157.288 72.9208 157.38 72.886C157.425 72.8683 157.474 72.8598 157.522 72.861C157.571 72.8621 157.618 72.8729 157.663 72.8927C157.707 72.9125 157.747 72.9409 157.78 72.9762C157.814 73.0116 157.84 73.0532 157.857 73.0987C157.877 73.1439 157.894 73.1904 157.908 73.238C157.981 73.4466 158.1 73.636 158.256 73.7922C158.412 73.9484 158.601 74.0673 158.81 74.14C159.771 74.4553 161.435 73.9347 163.049 72.8053C164.325 71.9107 165.307 70.796 165.439 70.0993C165.506 69.252 165.365 68.4012 165.029 67.6207L164.985 67.4887C163.833 63.6977 162.972 59.8242 162.411 55.902C161.333 49.8667 160.255 43.6187 156.977 38.4267C156.347 37.3027 155.45 36.3508 154.366 35.6547C153.855 35.3369 153.266 35.1684 152.665 35.1684C152.063 35.1684 151.474 35.3369 150.963 35.6547C150.921 35.6864 150.872 35.7087 150.82 35.72C150.768 35.7314 150.715 35.7316 150.663 35.7207C150.611 35.711 150.562 35.6902 150.519 35.6599C150.476 35.6295 150.44 35.5902 150.413 35.5447C149.738 34.3236 148.731 33.3187 147.509 32.6464C146.286 31.9741 144.898 31.6619 143.505 31.746C138.863 31.8853 133.312 35.4787 131.134 39.754C128.655 44.6087 126.873 50.0207 125.157 55.2787C124.424 57.4787 123.691 59.774 122.899 61.9593C122.107 64.1447 121.278 66.4693 121.542 68.8233C121.769 70.8693 123.17 73.15 125.341 73.502L126.133 72.138C126.207 71.86 126.353 71.6068 126.558 71.4047C126.625 71.3439 126.713 71.3102 126.804 71.3102C126.894 71.3102 126.982 71.3439 127.049 71.4047C127.121 71.46 127.171 71.5391 127.19 71.6278C127.209 71.7165 127.195 71.809 127.152 71.8887L126.866 72.4167Z" fill="#231F20"/>
<path d="M149.745 79.376C149.745 79.376 151.645 106.399 142.177 104.595C129.586 101.911 135.313 82.9327 135.313 82.9327L135.519 79.376L136.003 71.1334L136.45 63.426L149.65 63.2794L150.163 69.5714L150.317 71.6174L149.745 79.376Z" fill="white"/>
<path d="M143.065 105.057C142.742 105.058 142.42 105.026 142.104 104.962C140.746 104.718 139.457 104.185 138.325 103.398C137.192 102.61 136.242 101.588 135.541 100.401C131.771 94.0134 134.683 83.7247 134.939 82.8667L136.076 63.3967C136.08 63.3001 136.121 63.2087 136.191 63.1417C136.26 63.0747 136.353 63.0373 136.45 63.0374L149.65 62.8907C149.744 62.8934 149.834 62.9296 149.904 62.9927C149.974 63.0559 150.019 63.1419 150.031 63.2354L150.691 71.5807L150.097 79.3834C150.178 80.5127 151.366 99.1174 145.961 103.913C145.173 104.643 144.139 105.052 143.065 105.057ZM136.809 63.8L135.665 82.9547C135.669 82.9839 135.669 83.0135 135.665 83.0427C135.629 83.1454 132.49 93.7787 136.179 100.012C136.828 101.107 137.704 102.049 138.75 102.775C139.795 103.502 140.984 103.995 142.236 104.221C142.805 104.352 143.398 104.341 143.962 104.189C144.526 104.036 145.044 103.748 145.47 103.349C150.655 98.7507 149.371 79.596 149.357 79.4054V79.3467L149.951 71.5807L149.32 63.6534L136.809 63.8Z" fill="#231F20"/>
<path d="M150.334 71.61C149.291 73.4126 147.814 74.9253 146.036 76.01C143.206 77.8507 139.216 79.486 135.77 78.9433L136.004 71.1334C138.535 71.4778 141.1 71.4778 143.631 71.1334C145.831 70.884 148.156 70.6054 150.194 69.5934L150.334 71.61Z" fill="#231F20"/>
<path d="M137.178 79.4127C136.686 79.415 136.196 79.3758 135.711 79.2953C135.624 79.2795 135.546 79.233 135.491 79.1643C135.436 79.0957 135.407 79.0094 135.41 78.9213L135.667 71.1333C135.667 71.0811 135.679 71.0295 135.702 70.9824C135.725 70.9354 135.758 70.8942 135.799 70.862C135.838 70.8293 135.884 70.8053 135.934 70.7914C135.983 70.7775 136.034 70.7741 136.085 70.7813C138.584 71.123 141.118 71.123 143.616 70.7813C145.684 70.554 148.016 70.29 150.062 69.3147C150.114 69.2857 150.172 69.2706 150.231 69.2706C150.29 69.2706 150.348 69.2857 150.4 69.3147C150.453 69.3436 150.498 69.3859 150.53 69.4373C150.562 69.4886 150.58 69.5475 150.583 69.608L150.744 71.6467C150.745 71.7151 150.73 71.7827 150.7 71.8447C149.644 73.7117 148.13 75.279 146.3 76.3987C143.206 78.3127 139.928 79.4127 137.178 79.4127ZM136.144 78.6207C138.923 78.958 142.524 77.8873 145.853 75.724C147.551 74.6864 148.967 73.2456 149.974 71.5293L149.872 70.1213C147.882 70.8748 145.791 71.3271 143.668 71.4633C141.237 71.8014 138.772 71.8285 136.334 71.544L136.144 78.6207Z" fill="#231F20"/>
<path d="M143.615 72.9887H142.258C139.178 73.0141 136.213 71.8173 134.014 69.6605C131.814 67.5037 130.56 64.5629 130.525 61.4827C130.481 57.816 131.529 50.82 131.529 50.82C131.529 50.82 136.897 48.8913 141.114 47.3C148.183 44.6233 150.09 40.8027 150.09 40.8027C150.3 43.3481 150.85 45.8539 151.725 48.2533C152.637 49.9556 153.692 51.5772 154.879 53.1007C154.879 53.1007 155.091 58.8353 155.113 61.226C155.131 62.7534 154.847 64.2693 154.279 65.687C153.71 67.1048 152.868 68.3967 151.8 69.489C150.733 70.5813 149.46 71.4526 148.056 72.053C146.651 72.6535 145.142 72.9714 143.615 72.9887Z" fill="white"/>
<path d="M142.128 73.3774C138.968 73.3737 135.936 72.1259 133.69 69.9038C131.443 67.6818 130.162 64.6644 130.123 61.5047C130.251 57.9118 130.589 54.3295 131.135 50.776C131.146 50.7084 131.175 50.6449 131.219 50.5921C131.263 50.5393 131.32 50.499 131.384 50.4754C131.436 50.4754 136.796 48.532 140.954 46.9627C147.782 44.3814 149.71 40.6854 149.754 40.6487C149.794 40.5753 149.855 40.5164 149.931 40.4807C150.006 40.4451 150.091 40.4346 150.172 40.4507C150.254 40.4668 150.327 40.5093 150.382 40.5717C150.436 40.6341 150.468 40.7127 150.473 40.7954C150.691 43.3007 151.238 45.7665 152.101 48.1287C153 49.803 154.04 51.3976 155.21 52.8954C155.262 52.9573 155.29 53.035 155.291 53.1154C155.291 53.174 155.496 58.8794 155.526 61.2554C155.541 64.433 154.298 67.4876 152.068 69.7509C149.837 72.0143 146.801 73.3024 143.624 73.3334H142.267L142.128 73.3774ZM131.861 51.1134C131.336 54.5529 131.013 58.0201 130.893 61.4974C130.933 64.4522 132.134 67.2727 134.236 69.3499C136.338 71.4272 139.173 72.5945 142.128 72.6H142.267H143.616C146.596 72.5613 149.439 71.3434 151.523 69.213C153.607 67.0826 154.761 64.2133 154.734 61.2334C154.734 59.0334 154.536 54.076 154.499 53.2327C153.316 51.7198 152.272 50.1022 151.382 48.4C150.599 46.307 150.068 44.1284 149.798 41.91C148.779 43.2447 146.315 45.7454 141.226 47.6667C137.53 49.06 132.895 50.7394 131.854 51.1134H131.861Z" fill="#231F20"/>
<path d="M142.193 61.2773C141.703 61.28 141.214 61.2555 140.727 61.204C140.6 61.1893 140.478 61.1452 140.371 61.0752C140.264 61.0052 140.175 60.9112 140.111 60.8007C139.223 59.334 141.431 53.2033 141.885 52.0007C141.902 51.9537 141.927 51.9105 141.961 51.8737C141.994 51.8369 142.035 51.8074 142.08 51.7868C142.125 51.7662 142.174 51.755 142.224 51.754C142.274 51.7529 142.323 51.762 142.369 51.7807C142.416 51.7971 142.46 51.8227 142.497 51.856C142.534 51.8894 142.564 51.9298 142.585 51.9748C142.606 52.0199 142.618 52.0688 142.62 52.1186C142.622 52.1683 142.614 52.218 142.597 52.2647C141.526 55.1467 140.243 59.598 140.756 60.4193C141.864 60.5491 142.984 60.5491 144.093 60.4193C144.142 60.4121 144.192 60.4148 144.24 60.4271C144.288 60.4395 144.333 60.4614 144.373 60.4914C144.413 60.5214 144.446 60.5591 144.471 60.6021C144.496 60.6451 144.512 60.6927 144.518 60.742C144.53 60.8421 144.503 60.9431 144.441 61.0228C144.379 61.1026 144.288 61.1545 144.188 61.1673C143.526 61.2462 142.86 61.283 142.193 61.2773Z" fill="#231F20"/>
<path d="M148.147 56.0886C148.589 56.0837 148.937 55.1967 148.925 54.1073C148.913 53.0178 148.545 52.1386 148.104 52.1435C147.663 52.1483 147.314 53.0354 147.326 54.1248C147.338 55.2142 147.706 56.0934 148.147 56.0886Z" fill="#231F20"/>
<path d="M137.548 55.8385C137.989 55.8336 138.337 54.9465 138.325 53.8571C138.313 52.7677 137.946 51.8885 137.504 51.8934C137.063 51.8982 136.715 52.7853 136.727 53.8747C136.739 54.9641 137.106 55.8433 137.548 55.8385Z" fill="#231F20"/>
<path d="M135.768 79.376C133.26 78.034 129.293 80.0434 128.912 81.4514C128.53 82.8594 130.085 105.006 135.768 108.416C138.24 109.883 142.676 104.595 142.676 104.595C142.676 104.595 136.326 101.809 135.768 79.376Z" fill="white"/>
<path d="M136.738 109.047C136.33 109.053 135.929 108.947 135.579 108.739C132.448 106.861 130.644 99.8213 129.712 94.248C128.671 88.1833 128.341 82.17 128.568 81.356C128.796 80.542 129.771 79.7353 131.098 79.156C131.853 78.7801 132.681 78.5748 133.524 78.5545C134.366 78.5342 135.203 78.6995 135.975 79.0387C136.033 79.0706 136.082 79.1171 136.117 79.1737C136.152 79.2303 136.171 79.295 136.173 79.3613C136.716 101.295 142.773 104.214 142.846 104.236C142.9 104.261 142.948 104.297 142.986 104.343C143.025 104.389 143.052 104.442 143.066 104.5C143.08 104.557 143.081 104.617 143.066 104.675C143.052 104.732 143.025 104.786 142.986 104.83C142.802 105.028 139.407 109.047 136.738 109.047ZM133.804 79.3173C132.955 79.3324 132.117 79.5169 131.34 79.86C130.454 80.1452 129.704 80.7487 129.236 81.554C128.972 82.522 130.387 104.764 135.931 108.086C137.596 109.083 140.683 106.223 142.062 104.683C140.595 103.62 135.872 98.7433 135.366 79.618C134.884 79.4139 134.365 79.3115 133.841 79.3173H133.804Z" fill="#231F20"/>
<path d="M149.746 79.376C152.262 78.034 156.229 80.0434 156.61 81.4514C156.992 82.8594 155.437 105.006 149.746 108.416C147.282 109.883 142.846 104.595 142.846 104.595C142.846 104.595 149.196 101.809 149.746 79.376Z" fill="white"/>
<path d="M148.786 109.047C146.117 109.047 142.721 105.028 142.56 104.837C142.521 104.793 142.493 104.74 142.479 104.682C142.465 104.625 142.465 104.565 142.479 104.507C142.494 104.451 142.521 104.398 142.557 104.352C142.594 104.307 142.64 104.27 142.692 104.243C142.751 104.243 148.83 101.156 149.373 79.3687C149.375 79.3023 149.394 79.2376 149.429 79.181C149.464 79.1245 149.513 79.0779 149.571 79.046C150.343 78.7069 151.179 78.5416 152.022 78.5618C152.865 78.5821 153.693 78.7875 154.447 79.1634C155.775 79.7354 156.772 80.63 156.977 81.3634C157.183 82.0967 156.875 88.1907 155.833 94.2553C154.873 99.8287 153.076 106.869 149.967 108.746C149.609 108.955 149.2 109.06 148.786 109.047ZM143.425 104.683C144.804 106.223 147.891 109.083 149.556 108.086C155.1 104.764 156.515 82.522 156.251 81.554C155.783 80.7487 155.034 80.1452 154.147 79.86C153.526 79.5528 152.85 79.373 152.158 79.3315C151.467 79.2899 150.774 79.3873 150.121 79.618C149.6 98.7433 144.892 103.62 143.425 104.683Z" fill="#231F20"/>
<path d="M143.33 65.8387C140.819 65.7867 138.369 65.0569 136.239 63.7267C136.156 63.6703 136.099 63.5834 136.081 63.485C136.062 63.3867 136.083 63.285 136.14 63.2024C136.196 63.1197 136.283 63.0628 136.382 63.0443C136.48 63.0257 136.582 63.047 136.664 63.1034C136.936 63.2867 143.389 67.6134 149.454 62.9714C149.492 62.9407 149.537 62.9181 149.585 62.9049C149.632 62.8916 149.682 62.8879 149.731 62.8941C149.78 62.9002 149.828 62.916 149.871 62.9406C149.914 62.9652 149.951 62.9981 149.982 63.0374C150.012 63.0768 150.035 63.122 150.048 63.1703C150.062 63.2185 150.066 63.269 150.059 63.3187C150.053 63.3684 150.037 63.4164 150.013 63.46C149.988 63.5036 149.955 63.5419 149.916 63.5727C148.037 65.0453 145.717 65.8434 143.33 65.8387Z" fill="#231F20"/>
<path d="M71.3821 140.338H221.95L246.113 175.208H47.2188L71.3821 140.338Z" fill="white"/>
<path d="M246.114 175.575H47.2189C47.1522 175.574 47.0869 175.555 47.03 175.521C46.9732 175.486 46.9269 175.436 46.8962 175.377C46.8619 175.32 46.8438 175.256 46.8438 175.19C46.8438 175.124 46.8619 175.059 46.8962 175.003L71.0962 140.133C71.1291 140.083 71.1737 140.042 71.2262 140.014C71.2787 139.986 71.3374 139.971 71.3969 139.971H221.95C222.01 139.971 222.068 139.986 222.121 140.014C222.173 140.042 222.218 140.083 222.251 140.133L246.4 175.003C246.434 175.059 246.452 175.124 246.452 175.19C246.452 175.256 246.434 175.32 246.4 175.377C246.372 175.431 246.331 175.477 246.282 175.512C246.232 175.546 246.174 175.568 246.114 175.575ZM47.9229 174.841H245.41L221.76 140.705H71.5729L47.9229 174.841Z" fill="#231F20"/>
<path d="M246.105 175.208H47.4453V181.977H246.105V175.208Z" fill="white"/>
<path d="M246.114 182.343H47.4467C47.3495 182.343 47.2562 182.305 47.1875 182.236C47.1187 182.167 47.0801 182.074 47.0801 181.977V175.208C47.082 175.111 47.1212 175.019 47.1896 174.951C47.2579 174.882 47.3501 174.843 47.4467 174.841H246.114C246.211 174.843 246.303 174.882 246.371 174.951C246.44 175.019 246.479 175.111 246.481 175.208V181.977C246.481 182.074 246.442 182.167 246.373 182.236C246.305 182.305 246.211 182.343 246.114 182.343ZM47.8134 181.61H245.747V175.575H47.8134V181.61Z" fill="#231F20"/>
<path d="M241.837 181.977H51.7207V188.745H241.837V181.977Z" fill="#231F20"/>
<path d="M241.839 189.112H51.7221C51.6249 189.112 51.5316 189.073 51.4629 189.005C51.3941 188.936 51.3555 188.843 51.3555 188.745V181.977C51.3555 181.879 51.3941 181.786 51.4629 181.717C51.5316 181.649 51.6249 181.61 51.7221 181.61H241.839C241.936 181.61 242.029 181.649 242.098 181.717C242.167 181.786 242.206 181.879 242.206 181.977V188.745C242.206 188.843 242.167 188.936 242.098 189.005C242.029 189.073 241.936 189.112 241.839 189.112ZM52.0668 188.379H241.472V182.343H52.0668V188.379Z" fill="#231F20"/>
<path d="M167.991 122.841H167.932C167.839 122.815 167.759 122.754 167.71 122.67C167.661 122.587 167.646 122.488 167.668 122.393L173.139 100.049C173.15 100.001 173.171 99.955 173.199 99.9148C173.228 99.8745 173.264 99.8403 173.306 99.8141C173.348 99.7879 173.395 99.7702 173.443 99.762C173.492 99.7538 173.542 99.7553 173.59 99.7663C173.638 99.7774 173.684 99.7979 173.724 99.8265C173.764 99.8552 173.798 99.8915 173.825 99.9334C173.851 99.9753 173.869 100.022 173.877 100.071C173.885 100.119 173.884 100.169 173.872 100.217L168.402 122.569C168.379 122.657 168.325 122.734 168.249 122.784C168.173 122.834 168.081 122.854 167.991 122.841Z" fill="#231F20"/>
<path d="M170.705 146.799H143.564L146.681 169.928H181.764L170.705 146.799Z" fill="white"/>
<path d="M181.763 170.295H146.666C146.577 170.294 146.491 170.26 146.425 170.201C146.359 170.142 146.317 170.06 146.306 169.972L143.19 146.85C143.182 146.798 143.185 146.744 143.201 146.694C143.216 146.643 143.242 146.596 143.278 146.557C143.312 146.519 143.354 146.488 143.4 146.467C143.447 146.445 143.498 146.433 143.549 146.432H170.682C170.752 146.432 170.82 146.452 170.879 146.489C170.937 146.527 170.984 146.581 171.012 146.645L182.071 169.767C182.102 169.82 182.118 169.881 182.118 169.943C182.118 170.004 182.102 170.065 182.071 170.119C182.039 170.172 181.993 170.216 181.94 170.246C181.886 170.277 181.825 170.294 181.763 170.295ZM147.003 169.561H181.184L170.477 147.165H143.982L147.003 169.561Z" fill="#D1D3D4"/>
<path d="M176.469 148.933H149.328L152.445 172.062H187.527L176.469 148.933Z" fill="white"/>
<path d="M187.527 172.421H152.444C152.356 172.422 152.271 172.39 152.205 172.332C152.138 172.274 152.096 172.194 152.085 172.106L148.968 148.984C148.961 148.932 148.965 148.88 148.98 148.83C148.994 148.78 149.019 148.733 149.053 148.694C149.087 148.654 149.13 148.622 149.177 148.6C149.224 148.578 149.276 148.567 149.328 148.566H176.461C176.53 148.566 176.597 148.585 176.656 148.621C176.714 148.658 176.761 148.71 176.791 148.771L187.85 171.901C187.878 171.956 187.891 172.018 187.888 172.08C187.885 172.142 187.866 172.202 187.832 172.254C187.799 172.307 187.753 172.35 187.698 172.379C187.643 172.408 187.582 172.423 187.52 172.421H187.527ZM152.767 171.688H186.948L176.241 149.299H149.746L152.767 171.688Z" fill="#D1D3D4"/>
<path d="M177.517 167.743H156.507C156.41 167.743 156.317 167.704 156.248 167.635C156.179 167.567 156.141 167.473 156.141 167.376C156.141 167.279 156.179 167.185 156.248 167.117C156.317 167.048 156.41 167.009 156.507 167.009H177.517C177.615 167.009 177.708 167.048 177.777 167.117C177.845 167.185 177.884 167.279 177.884 167.376C177.884 167.473 177.845 167.567 177.777 167.635C177.708 167.704 177.615 167.743 177.517 167.743Z" fill="#D1D3D4"/>
<path d="M179.666 163.233H155.576C155.478 163.233 155.385 163.194 155.316 163.125C155.248 163.057 155.209 162.963 155.209 162.866C155.211 162.769 155.25 162.677 155.318 162.609C155.387 162.54 155.479 162.501 155.576 162.499H179.666C179.763 162.499 179.856 162.538 179.925 162.607C179.994 162.675 180.032 162.769 180.032 162.866C180.032 162.963 179.994 163.057 179.925 163.125C179.856 163.194 179.763 163.233 179.666 163.233Z" fill="#D1D3D4"/>
<path d="M177.209 158.73H154.439C154.342 158.73 154.248 158.691 154.18 158.623C154.111 158.554 154.072 158.461 154.072 158.363C154.072 158.266 154.111 158.173 154.18 158.104C154.248 158.035 154.342 157.997 154.439 157.997H177.209C177.306 157.997 177.399 158.035 177.468 158.104C177.537 158.173 177.576 158.266 177.576 158.363C177.576 158.461 177.537 158.554 177.468 158.623C177.399 158.691 177.306 158.73 177.209 158.73Z" fill="#D1D3D4"/>
<path d="M175.449 154.227H157.285C157.187 154.227 157.094 154.189 157.025 154.12C156.957 154.051 156.918 153.958 156.918 153.861C156.918 153.763 156.957 153.67 157.025 153.601C157.094 153.533 157.187 153.494 157.285 153.494H175.449C175.547 153.494 175.64 153.533 175.709 153.601C175.777 153.67 175.816 153.763 175.816 153.861C175.816 153.958 175.777 154.051 175.709 154.12C175.64 154.189 175.547 154.227 175.449 154.227Z" fill="#D1D3D4"/>
<path d="M205.817 136.107C205.817 136.107 217.139 140.873 218.474 142.597C218.856 143.09 219.085 143.684 219.132 144.306C219.178 144.928 219.042 145.55 218.738 146.095C218.738 146.095 219.699 149.182 218.269 149.989C218.269 149.989 218.951 152.966 217.484 153.567C216.311 154.044 209.043 153.817 210.107 152.299C210.429 151.94 210.85 151.685 211.317 151.565C211.001 151.565 210.855 151.118 210.994 150.832C211.171 150.566 211.428 150.363 211.727 150.253C211.946 150.178 212.141 150.046 212.292 149.871C209.967 149.27 207.459 148.969 205.611 147.239L200.441 142.399" fill="white"/>
<path d="M215.094 154.161C213.033 154.161 210.437 153.861 209.814 153.076C209.702 152.937 209.641 152.763 209.641 152.585C209.641 152.406 209.702 152.233 209.814 152.093C210.032 151.801 210.323 151.571 210.657 151.426C210.605 151.304 210.578 151.173 210.578 151.041C210.578 150.909 210.605 150.778 210.657 150.656C210.828 150.368 211.085 150.139 211.391 150.003L210.958 149.908C209 149.453 206.969 148.984 205.377 147.495L200.244 142.655L200.743 142.12L205.876 146.96C207.343 148.309 209.257 148.757 211.127 149.16L212.403 149.468C212.46 149.483 212.512 149.512 212.555 149.551C212.599 149.591 212.632 149.64 212.652 149.695C212.674 149.751 212.681 149.811 212.674 149.87C212.666 149.929 212.643 149.985 212.608 150.033C212.447 150.243 212.231 150.405 211.985 150.502H211.904C211.682 150.581 211.488 150.723 211.347 150.913C211.329 150.945 211.319 150.982 211.319 151.019C211.319 151.056 211.329 151.093 211.347 151.125C211.43 151.128 211.51 151.161 211.572 151.217C211.634 151.274 211.674 151.35 211.684 151.433C211.696 151.517 211.678 151.602 211.634 151.674C211.59 151.747 211.522 151.801 211.442 151.829C211.042 151.928 210.68 152.142 210.401 152.445C210.383 152.469 210.37 152.497 210.364 152.526C210.364 152.526 210.364 152.599 210.606 152.717C211.985 153.45 216.546 153.45 217.338 153.164C218.306 152.768 218.071 150.751 217.91 150.003C217.892 149.926 217.899 149.845 217.931 149.772C217.963 149.7 218.017 149.639 218.086 149.6C219.047 149.065 218.621 146.916 218.379 146.131C218.365 146.083 218.361 146.031 218.368 145.981C218.374 145.93 218.39 145.882 218.416 145.838C218.683 145.358 218.803 144.81 218.762 144.263C218.72 143.715 218.518 143.192 218.181 142.758C217.133 141.401 208.795 137.698 205.671 136.378C205.583 136.339 205.513 136.268 205.476 136.179C205.44 136.091 205.438 135.991 205.473 135.901C205.513 135.813 205.586 135.743 205.676 135.706C205.765 135.67 205.866 135.668 205.957 135.703C207.123 136.195 217.397 140.558 218.761 142.303C219.174 142.83 219.428 143.464 219.493 144.131C219.558 144.797 219.431 145.469 219.127 146.065C219.318 146.74 219.861 149.123 218.673 150.091C218.812 150.869 219.091 153.237 217.617 153.839C216.796 154.07 215.946 154.179 215.094 154.161Z" fill="#231F20"/>
<path d="M214.134 146.813C214.134 146.813 211.758 150.128 213.54 150.363C215.322 150.597 217.859 146.395 217.859 146.395" fill="white"/>
<path d="M213.663 150.737H213.48C213.29 150.726 213.108 150.663 212.951 150.556C212.795 150.449 212.671 150.301 212.592 150.128C212.13 149.057 213.538 147.011 213.824 146.608C213.882 146.529 213.968 146.476 214.064 146.461C214.161 146.446 214.259 146.47 214.338 146.527C214.416 146.585 214.469 146.671 214.484 146.767C214.499 146.864 214.476 146.962 214.418 147.041C213.81 147.891 213.04 149.321 213.267 149.835C213.267 149.879 213.326 149.974 213.575 150.011C214.69 150.15 216.596 147.759 217.528 146.212C217.55 146.167 217.582 146.126 217.621 146.094C217.66 146.062 217.706 146.038 217.755 146.024C217.803 146.01 217.855 146.006 217.905 146.013C217.955 146.02 218.003 146.037 218.047 146.064C218.09 146.09 218.127 146.125 218.156 146.167C218.185 146.209 218.205 146.256 218.215 146.306C218.225 146.355 218.224 146.407 218.213 146.456C218.202 146.506 218.181 146.552 218.151 146.593C217.887 147.019 215.599 150.737 213.663 150.737Z" fill="#231F20"/>
<path d="M210.709 151.433C210.709 151.433 215.842 151.925 218.27 149.967Z" fill="white"/>
<path d="M212.175 151.859C211.331 151.859 210.745 151.807 210.671 151.8C210.575 151.789 210.486 151.741 210.424 151.665C210.363 151.59 210.333 151.494 210.341 151.397C210.354 151.301 210.403 151.213 210.478 151.152C210.553 151.091 210.648 151.06 210.745 151.067C210.796 151.067 215.768 151.521 218.041 149.703C218.079 149.672 218.122 149.65 218.168 149.636C218.215 149.622 218.263 149.618 218.311 149.623C218.359 149.628 218.406 149.643 218.448 149.666C218.49 149.689 218.528 149.72 218.558 149.758C218.589 149.795 218.611 149.838 218.625 149.885C218.638 149.931 218.643 149.98 218.638 150.028C218.633 150.076 218.618 150.122 218.595 150.164C218.572 150.207 218.541 150.244 218.503 150.275C216.809 151.631 213.935 151.859 212.175 151.859Z" fill="#231F20"/>
<path d="M221.848 132.374C221.848 132.374 206.8 150.905 206.066 151.719C205.264 152.96 204.63 154.301 204.182 155.709C204.358 155.606 207.35 154.242 208.068 153.325C208.787 152.409 223.886 133.371 223.886 133.371C223.886 133.371 223.967 131.846 221.848 132.374Z" fill="white"/>
<path d="M204.195 156.075C204.142 156.075 204.089 156.064 204.04 156.042C203.99 156.021 203.946 155.99 203.909 155.951C203.506 155.474 205.574 151.778 205.809 151.492C206.476 150.685 221.407 132.33 221.561 132.147C221.609 132.082 221.679 132.037 221.759 132.022C222.085 131.898 222.436 131.853 222.783 131.891C223.129 131.93 223.462 132.05 223.753 132.242C223.92 132.382 224.052 132.558 224.143 132.755C224.233 132.953 224.277 133.169 224.274 133.386C224.267 133.463 224.239 133.537 224.193 133.599C224.039 133.789 209.087 152.665 208.375 153.545C207.789 154.279 205.955 155.261 204.628 155.907L204.386 156.024C204.329 156.059 204.263 156.077 204.195 156.075ZM222.052 132.733C220.871 134.2 207.019 151.206 206.373 151.983C205.76 152.943 205.242 153.96 204.826 155.019C205.916 154.561 206.92 153.921 207.796 153.127C208.478 152.247 222.287 134.853 223.526 133.283C223.506 133.109 223.419 132.948 223.284 132.836C223.099 132.73 222.892 132.666 222.679 132.649C222.467 132.631 222.253 132.66 222.052 132.733Z" fill="#231F20"/>
<path d="M203.455 142.032C203.455 142.032 215.313 149.82 215.716 147.803C216.12 145.787 210.378 142.347 210.378 142.347" fill="white"/>
<path d="M215.212 148.485C212.755 148.485 204.901 143.418 203.259 142.34C203.178 142.286 203.122 142.203 203.103 142.108C203.084 142.013 203.103 141.915 203.156 141.834C203.181 141.793 203.215 141.757 203.254 141.729C203.294 141.701 203.338 141.682 203.385 141.671C203.433 141.661 203.482 141.66 203.529 141.67C203.576 141.679 203.622 141.697 203.662 141.724C209.389 145.486 214.75 148.236 215.359 147.737C215.615 146.447 212.323 143.939 210.189 142.663C210.147 142.638 210.111 142.605 210.082 142.566C210.053 142.527 210.032 142.483 210.021 142.436C210.009 142.389 210.007 142.34 210.014 142.292C210.022 142.244 210.039 142.198 210.064 142.157C210.087 142.115 210.119 142.078 210.157 142.048C210.196 142.019 210.239 141.998 210.286 141.986C210.333 141.975 210.382 141.973 210.429 141.98C210.477 141.988 210.522 142.006 210.563 142.032C211.179 142.399 216.517 145.662 216.077 147.899C216.054 148.021 216.001 148.136 215.921 148.233C215.842 148.329 215.739 148.403 215.623 148.449C215.489 148.486 215.35 148.499 215.212 148.485Z" fill="#231F20"/>
<path d="M206.659 154.777C206.583 154.777 206.509 154.754 206.447 154.711L204.98 153.633C204.903 153.576 204.852 153.491 204.837 153.397C204.822 153.302 204.844 153.205 204.899 153.127C204.926 153.088 204.961 153.054 205.001 153.028C205.042 153.003 205.087 152.985 205.134 152.977C205.181 152.969 205.229 152.97 205.276 152.981C205.322 152.991 205.367 153.011 205.405 153.039L206.909 154.117C206.97 154.164 207.016 154.228 207.039 154.301C207.062 154.375 207.061 154.454 207.037 154.527C207.012 154.6 206.965 154.663 206.903 154.708C206.841 154.753 206.766 154.777 206.689 154.777H206.659Z" fill="#231F20"/>
<path d="M174.753 87.824C182.351 90.024 182.534 125.393 189.002 127.93C195.199 130.357 207.577 135.821 207.577 135.821L202.862 146.241C202.862 146.241 188.694 146.058 178.662 141.372C168.63 136.686 166.137 113.425 166.137 113.425C166.137 113.425 167.149 85.602 174.753 87.824Z" fill="#FF6C22"/>
<path d="M126.595 83.5193C126.595 83.5193 109.091 87.7287 105.233 93.0527C101.376 98.3767 99.0808 159.551 106.891 156.295C114.701 153.039 141.123 134.853 141.123 134.853L132.183 122.467L120.897 128.429V102.293L126.595 83.5193Z" fill="#FF6C22"/>
<path d="M143.285 142.267L146.805 104.287L176.637 104.683L172.736 141.827L143.285 142.267Z" fill="white"/>
<path d="M143.286 142.633C143.236 142.635 143.186 142.625 143.14 142.605C143.094 142.585 143.054 142.554 143.022 142.516C142.986 142.48 142.958 142.436 142.94 142.388C142.922 142.34 142.915 142.288 142.919 142.237L146.439 104.251C146.446 104.159 146.489 104.074 146.557 104.013C146.625 103.951 146.714 103.919 146.806 103.921L176.645 104.317C176.695 104.318 176.745 104.33 176.79 104.351C176.836 104.372 176.876 104.403 176.909 104.441C176.943 104.479 176.969 104.523 176.985 104.571C177.002 104.619 177.008 104.67 177.004 104.72L173.066 141.863C173.057 141.952 173.017 142.034 172.952 142.094C172.887 142.155 172.803 142.19 172.714 142.193L143.264 142.633H143.286ZM147.136 104.654L143.689 141.9L172.406 141.46L176.227 105.05L147.136 104.654Z" fill="#231F20"/>
<path d="M78.4213 167.963C86.4 167.963 92.868 166.016 92.868 163.614C92.868 161.212 86.4 159.265 78.4213 159.265C70.4426 159.265 63.9746 161.212 63.9746 163.614C63.9746 166.016 70.4426 167.963 78.4213 167.963Z" fill="white"/>
<path d="M78.4227 168.329C71.1407 168.329 63.6094 166.562 63.6094 163.614C63.6094 160.666 71.1407 158.899 78.4227 158.899C85.7047 158.899 93.2361 160.659 93.2361 163.614C93.2361 166.569 85.7047 168.329 78.4227 168.329ZM78.4227 159.632C70.1214 159.632 64.3427 161.729 64.3427 163.614C64.3427 165.499 70.1214 167.596 78.4227 167.596C86.7241 167.596 92.5027 165.499 92.5027 163.614C92.5027 161.729 86.7167 159.632 78.4227 159.632Z" fill="#D1D3D4"/>
<path d="M90.0454 150.458C90.1848 150.458 90.3094 150.502 90.4414 150.524C91.6323 150.702 92.7157 151.313 93.4848 152.24C93.9141 152.898 94.1511 153.662 94.1693 154.447C94.1874 155.233 93.9859 156.007 93.5874 156.684C91.8421 159.83 87.5741 160.703 84.3034 161.011C83.8421 161.084 83.3702 161.049 82.9248 160.908C82.7163 160.854 82.5301 160.735 82.3926 160.57C82.2551 160.404 82.1732 160.199 82.1586 159.984C82.144 159.769 82.1974 159.555 82.3112 159.372C82.425 159.189 82.5935 159.047 82.7928 158.965C83.1362 158.806 83.5025 158.702 83.8781 158.657C85.9168 158.327 88.0654 158.077 89.9354 157.131C91.0208 156.589 92.5388 155.32 91.7468 153.971C91.4687 153.538 91.0678 153.199 90.5954 152.995C88.7254 152.101 86.9288 152.775 85.0954 153.325C84.9617 153.374 84.8193 153.394 84.6774 153.384C84.5011 153.337 84.3486 153.226 84.2496 153.073C84.1506 152.92 84.1123 152.735 84.1421 152.555C84.2008 151.749 85.0074 151.213 85.7628 150.92C87.1273 150.402 88.6019 150.243 90.0454 150.458Z" fill="white"/>
<path d="M83.754 161.407C83.424 161.415 83.0955 161.36 82.786 161.245C82.5117 161.166 82.2684 161.005 82.0895 160.782C81.9105 160.56 81.8046 160.288 81.7861 160.003C81.7676 159.718 81.8376 159.435 81.9864 159.191C82.1351 158.947 82.3555 158.756 82.6173 158.642C82.9962 158.461 83.4027 158.345 83.82 158.297L84.5533 158.18C86.3442 157.993 88.0954 157.53 89.7453 156.809C90.5332 156.465 91.1674 155.844 91.5273 155.063C91.5733 154.912 91.5867 154.753 91.5664 154.596C91.5462 154.439 91.4929 154.289 91.41 154.154C91.1683 153.784 90.8208 153.495 90.4126 153.325C88.836 152.592 87.2886 153.032 85.6606 153.531L85.1766 153.677C84.9933 153.742 84.7983 153.767 84.6046 153.751C84.3366 153.688 84.1014 153.528 83.9444 153.302C83.7873 153.075 83.7195 152.799 83.754 152.526C83.8126 151.705 84.4873 151.015 85.6093 150.583C87.0341 150.04 88.574 149.871 90.0826 150.091L90.4933 150.165C91.7709 150.364 92.9315 151.024 93.7566 152.02C94.2304 152.733 94.4934 153.566 94.5154 154.422C94.5375 155.278 94.3177 156.123 93.8813 156.86C92.4586 159.427 89.3346 160.908 84.348 161.377C84.15 161.392 83.952 161.407 83.754 161.407ZM88.6526 152.196C89.3777 152.189 90.0948 152.347 90.75 152.658C91.2902 152.892 91.7476 153.283 92.0626 153.78C92.1949 153.998 92.2803 154.241 92.3131 154.493C92.3459 154.746 92.3256 155.002 92.2533 155.247C91.9013 156.442 90.5153 157.219 90.0973 157.447C88.3796 158.211 86.5541 158.706 84.6853 158.913L83.952 159.031C83.614 159.062 83.284 159.151 82.9766 159.295C82.8608 159.35 82.7598 159.432 82.682 159.534C82.6042 159.636 82.5518 159.755 82.5293 159.881C82.5402 160.036 82.597 160.185 82.6923 160.307C82.7876 160.43 82.9172 160.522 83.0646 160.571C83.4559 160.693 83.8706 160.72 84.2746 160.651C89.034 160.211 91.9746 158.855 93.2726 156.515C93.6406 155.9 93.8289 155.194 93.8159 154.477C93.8029 153.76 93.5893 153.062 93.1993 152.46C92.4812 151.614 91.4808 151.056 90.3833 150.891L90.002 150.825C88.6198 150.619 87.2079 150.773 85.9026 151.272C85.5066 151.426 84.568 151.859 84.5166 152.592C84.5166 152.797 84.6046 153.01 84.7366 153.032C84.8268 153.029 84.916 153.012 85.0006 152.981L85.4773 152.834C86.4987 152.467 87.5686 152.252 88.6526 152.196Z" fill="#231F20"/>
<path d="M88.5128 147.085C88.5128 147.085 85.4328 162.485 85.1835 163.379C84.9342 164.274 77.6448 167.2 71.8662 164.369L66.7988 148.661L88.5128 147.085Z" fill="white"/>
<path d="M77.4391 165.946C75.4526 165.975 73.4859 165.548 71.6897 164.699C71.6462 164.678 71.6075 164.649 71.5759 164.612C71.5444 164.576 71.5207 164.533 71.5064 164.487L66.4317 148.779C66.4148 148.725 66.41 148.668 66.4176 148.612C66.4252 148.557 66.445 148.503 66.4757 148.456C66.5083 148.411 66.5499 148.374 66.5979 148.346C66.6459 148.318 66.6992 148.301 66.7544 148.295L88.4904 146.718C88.5466 146.715 88.6028 146.724 88.6547 146.746C88.7066 146.768 88.7528 146.801 88.7897 146.844C88.8266 146.886 88.8532 146.937 88.8674 146.991C88.8816 147.046 88.8831 147.103 88.8717 147.158C88.7471 147.781 85.7844 162.558 85.5351 163.475C85.4397 163.827 84.9337 164.208 84.0244 164.626C81.9391 165.5 79.7002 165.949 77.4391 165.946ZM72.1517 164.113C77.7324 166.753 84.4937 163.907 84.8311 163.262C85.0437 162.47 87.5371 150.062 88.0577 147.488L67.2751 148.955L72.1517 164.113Z" fill="#231F20"/>
<path d="M88.5123 147.085C88.4972 147.526 88.3826 147.959 88.1768 148.35C87.9711 148.741 87.6797 149.081 87.3243 149.343C85.5497 150.913 81.9783 152.071 77.791 152.24C73.4863 152.423 69.7243 151.507 67.891 149.996C67.5644 149.763 67.2918 149.462 67.0918 149.114C66.8919 148.766 66.7693 148.379 66.7323 147.979C66.6223 145.376 71.411 143.066 77.4243 142.846C83.4377 142.626 88.4097 144.467 88.5123 147.085Z" fill="#231F20"/>
<path d="M76.7568 152.629C72.9068 152.629 69.4968 151.756 67.6928 150.282C67.3183 150.02 67.0056 149.68 66.7763 149.285C66.5471 148.889 66.4068 148.449 66.3655 147.994C66.3606 147.585 66.4386 147.179 66.5949 146.801C66.7512 146.423 66.9825 146.08 67.2748 145.794C68.9981 143.924 72.9728 142.604 77.4095 142.428C81.8461 142.252 85.9308 143.235 87.7935 144.958C88.1058 145.214 88.363 145.53 88.5496 145.888C88.7361 146.246 88.8481 146.638 88.8788 147.041C88.8703 147.539 88.7467 148.029 88.5178 148.471C88.2888 148.914 87.9606 149.298 87.5588 149.593C85.6741 151.265 81.9415 152.409 77.8348 152.577L76.7568 152.629ZM78.4655 143.161H77.4241C73.1708 143.337 69.3941 144.562 67.8028 146.293C67.5754 146.504 67.3931 146.759 67.2671 147.043C67.141 147.326 67.0738 147.632 67.0694 147.943C67.1074 148.293 67.2207 148.631 67.4017 148.934C67.5828 149.236 67.8272 149.496 68.1181 149.695C69.9368 151.162 73.7208 152.027 77.7688 151.895C81.8168 151.763 85.2781 150.656 87.0528 149.087C87.3688 148.861 87.629 148.566 87.8133 148.224C87.9976 147.882 88.1012 147.502 88.1161 147.114C88.0874 146.808 87.998 146.511 87.8532 146.241C87.7084 145.97 87.5111 145.731 87.2728 145.537C85.7108 144.056 82.3228 143.161 78.4655 143.161Z" fill="#231F20"/>
<path d="M87.324 149.343C85.5493 150.913 81.978 152.071 77.7906 152.24C73.486 152.423 69.724 151.507 67.8906 149.996C69.6653 148.434 73.2366 147.275 77.424 147.099C81.7286 146.931 85.4906 147.855 87.324 149.343Z" fill="#FF6C22"/>
<path d="M76.758 152.629C72.908 152.629 69.498 151.756 67.694 150.282C67.6518 150.249 67.6174 150.206 67.5933 150.158C67.5692 150.11 67.556 150.057 67.5547 150.003C67.5552 149.951 67.5665 149.899 67.5879 149.851C67.6094 149.803 67.6405 149.76 67.6794 149.725C69.5714 148.053 73.2967 146.909 77.4107 146.74C81.686 146.557 85.5727 147.473 87.5527 149.065C87.594 149.097 87.6279 149.138 87.6519 149.185C87.6759 149.232 87.6896 149.283 87.692 149.336C87.6926 149.39 87.6818 149.443 87.6603 149.492C87.6388 149.542 87.6071 149.586 87.5674 149.622C85.6754 151.294 81.9427 152.438 77.836 152.607L76.758 152.629ZM68.5154 149.989C70.4367 151.301 74.0007 152.035 77.7993 151.881C81.598 151.727 84.8687 150.766 86.7313 149.358C84.8027 148.053 81.2387 147.319 77.44 147.466C73.6414 147.613 70.4 148.573 68.5154 149.989Z" fill="#231F20"/>
<path d="M197.984 169.833L191.824 161.627L213.377 161.253L197.984 169.833Z" fill="#231F20"/>
<path d="M197.999 170.199C197.942 170.201 197.886 170.188 197.835 170.162C197.784 170.137 197.739 170.099 197.706 170.053L191.546 161.847C191.507 161.792 191.483 161.728 191.476 161.661C191.47 161.594 191.481 161.526 191.509 161.465C191.538 161.404 191.584 161.353 191.641 161.316C191.698 161.28 191.764 161.26 191.832 161.26L213.385 160.886C213.466 160.887 213.544 160.914 213.609 160.963C213.673 161.012 213.721 161.08 213.744 161.157C213.765 161.236 213.76 161.319 213.728 161.393C213.696 161.468 213.639 161.529 213.568 161.568L198.168 170.155C198.116 170.183 198.058 170.198 197.999 170.199ZM192.565 161.979L198.102 169.356L211.933 161.641L192.565 161.979Z" fill="#231F20"/>
<path d="M232.092 157.777H197.984V169.833H232.092V157.777Z" fill="white"/>
<path d="M232.092 170.199H197.999C197.902 170.199 197.809 170.161 197.74 170.092C197.671 170.023 197.633 169.93 197.633 169.833V157.777C197.633 157.679 197.671 157.586 197.74 157.517C197.809 157.449 197.902 157.41 197.999 157.41H232.107C232.204 157.41 232.297 157.449 232.366 157.517C232.435 157.586 232.473 157.679 232.473 157.777V169.833C232.474 169.882 232.464 169.931 232.444 169.976C232.425 170.022 232.397 170.063 232.361 170.097C232.325 170.132 232.283 170.158 232.237 170.176C232.191 170.193 232.142 170.201 232.092 170.199ZM198.359 169.466H231.733V158.143H198.351L198.359 169.466Z" fill="#231F20"/>
<path d="M207.834 166.635C207.408 166.819 206.948 166.909 206.484 166.899C206.046 166.905 205.611 166.828 205.201 166.672C204.82 166.527 204.471 166.308 204.174 166.027C203.883 165.739 203.654 165.394 203.5 165.015C203.328 164.606 203.243 164.167 203.25 163.724C203.247 163.277 203.331 162.833 203.5 162.419C203.662 162.042 203.899 161.703 204.196 161.421C204.496 161.145 204.848 160.931 205.23 160.791C205.642 160.641 206.076 160.567 206.514 160.571C206.941 160.57 207.366 160.645 207.768 160.791C208.149 160.926 208.492 161.153 208.765 161.451L207.775 162.433C207.641 162.246 207.455 162.103 207.24 162.023C207.027 161.93 206.797 161.883 206.565 161.883C206.314 161.879 206.064 161.926 205.832 162.023C205.626 162.113 205.441 162.246 205.289 162.411C205.133 162.58 205.011 162.776 204.93 162.991C204.843 163.225 204.8 163.474 204.805 163.724C204.801 163.974 204.843 164.223 204.93 164.457C205.01 164.673 205.129 164.872 205.282 165.044C205.432 165.208 205.618 165.336 205.824 165.418C206.039 165.514 206.272 165.562 206.506 165.557C206.761 165.559 207.012 165.502 207.24 165.389C207.446 165.283 207.625 165.13 207.76 164.941L208.772 165.895C208.516 166.206 208.196 166.458 207.834 166.635Z" fill="black"/>
<path d="M217.799 163.709C217.804 164.156 217.722 164.6 217.557 165.015C217.402 165.396 217.168 165.741 216.871 166.027C216.575 166.312 216.221 166.532 215.833 166.672C215.413 166.827 214.968 166.904 214.521 166.899C214.078 166.905 213.637 166.828 213.223 166.672C212.836 166.529 212.482 166.309 212.181 166.027C211.888 165.739 211.656 165.395 211.499 165.015C211.167 164.176 211.167 163.243 211.499 162.404C211.657 162.033 211.889 161.699 212.181 161.421C212.483 161.143 212.837 160.929 213.223 160.791C213.639 160.641 214.078 160.566 214.521 160.571C214.968 160.567 215.412 160.641 215.833 160.791C216.217 160.929 216.569 161.143 216.867 161.421C217.162 161.698 217.397 162.032 217.557 162.404C217.722 162.819 217.805 163.263 217.799 163.709ZM216.244 163.709C216.246 163.459 216.204 163.211 216.119 162.976C216.039 162.76 215.92 162.562 215.767 162.389C215.518 162.14 215.2 161.97 214.854 161.902C214.508 161.834 214.149 161.871 213.824 162.008C213.621 162.1 213.437 162.229 213.281 162.389C213.124 162.558 213.004 162.758 212.929 162.976C212.762 163.451 212.762 163.968 212.929 164.443C213.004 164.661 213.124 164.861 213.281 165.029C213.437 165.201 213.627 165.337 213.84 165.428C214.052 165.519 214.282 165.563 214.513 165.557C214.753 165.562 214.991 165.515 215.21 165.418C215.415 165.325 215.599 165.193 215.753 165.029C215.91 164.859 216.032 164.66 216.112 164.443C216.206 164.209 216.26 163.961 216.273 163.709H216.244Z" fill="black"/>
<path d="M227.179 163.709C227.186 164.157 227.101 164.601 226.93 165.015C226.776 165.396 226.544 165.741 226.248 166.027C225.948 166.309 225.594 166.529 225.207 166.672C224.363 166.975 223.44 166.975 222.596 166.672C222.212 166.527 221.861 166.308 221.562 166.027C221.266 165.741 221.034 165.396 220.88 165.015C220.548 164.176 220.548 163.243 220.88 162.404C221.034 162.031 221.267 161.696 221.562 161.421C221.862 161.145 222.213 160.931 222.596 160.791C223.442 160.497 224.361 160.497 225.207 160.791C225.593 160.929 225.947 161.143 226.248 161.421C226.543 161.696 226.776 162.031 226.93 162.404C227.102 162.817 227.187 163.262 227.179 163.709ZM225.625 163.709C225.627 163.459 225.584 163.211 225.5 162.976C225.42 162.76 225.301 162.561 225.148 162.389C224.993 162.229 224.809 162.1 224.605 162.008C224.374 161.908 224.124 161.86 223.872 161.869C223.633 161.864 223.395 161.912 223.175 162.008C222.971 162.098 222.787 162.228 222.633 162.389C222.475 162.558 222.355 162.758 222.281 162.976C222.196 163.211 222.154 163.459 222.156 163.709C222.158 163.959 222.2 164.207 222.281 164.443C222.361 164.66 222.483 164.859 222.64 165.029C222.79 165.195 222.972 165.327 223.175 165.418C223.396 165.51 223.633 165.557 223.872 165.557C224.111 165.557 224.348 165.51 224.569 165.418C224.774 165.325 224.958 165.193 225.111 165.029C225.269 164.859 225.391 164.66 225.471 164.443C225.562 164.208 225.614 163.961 225.625 163.709Z" fill="black"/>
<path d="M124.608 125.613C124.527 125.611 124.448 125.584 124.384 125.536C124.319 125.487 124.272 125.419 124.248 125.341C124.197 125.165 118.88 107.741 116.915 102.124C116.882 102.027 116.889 101.92 116.934 101.828C116.98 101.736 117.06 101.666 117.157 101.633C117.254 101.6 117.361 101.607 117.453 101.652C117.545 101.697 117.615 101.777 117.648 101.875C119.628 107.536 124.982 124.945 124.982 125.121C124.996 125.169 125.001 125.219 124.996 125.269C124.991 125.318 124.976 125.366 124.952 125.41C124.928 125.454 124.896 125.492 124.857 125.523C124.818 125.554 124.773 125.577 124.725 125.591C124.688 125.606 124.648 125.613 124.608 125.613Z" fill="#231F20"/>
<path d="M133.906 125.627L137.932 123.2C137.932 123.2 138.218 119.467 138.856 118.265C139.494 117.062 145.596 111.767 145.596 111.767V114.935C145.596 114.935 150.384 112.039 151.228 112.955C152.071 113.872 152.012 114.657 149.761 116.424C149.761 116.424 151.228 114.715 151.748 115.991C152.269 117.267 149.746 119.533 149.746 119.533C149.746 119.533 151.792 117.568 151.792 118.939C151.792 120.311 149.123 122.261 149.123 122.261C149.123 122.261 151.8 121.235 150.949 122.577C150.098 123.919 138.644 133.577 138.644 133.577" fill="white"/>
<path d="M138.644 133.965C138.59 133.966 138.536 133.954 138.487 133.932C138.437 133.909 138.393 133.875 138.358 133.833C138.297 133.759 138.267 133.664 138.275 133.568C138.283 133.472 138.329 133.383 138.402 133.32C141.578 130.636 149.967 123.442 150.642 122.379L150.715 122.247C150.212 122.299 149.719 122.42 149.248 122.606C149.166 122.636 149.075 122.635 148.993 122.604C148.911 122.572 148.843 122.513 148.802 122.435C148.76 122.358 148.747 122.268 148.766 122.183C148.785 122.097 148.834 122.021 148.904 121.968C149.879 121.235 151.426 119.805 151.419 118.947C151.427 118.893 151.427 118.839 151.419 118.785C150.937 119.011 150.498 119.318 150.121 119.695L150.004 119.805C149.97 119.839 149.929 119.866 149.884 119.885C149.84 119.904 149.792 119.913 149.743 119.913C149.695 119.913 149.647 119.904 149.602 119.885C149.558 119.866 149.517 119.839 149.483 119.805C149.415 119.735 149.378 119.642 149.378 119.544C149.378 119.447 149.415 119.354 149.483 119.284L149.637 119.145C150.51 118.301 151.661 116.857 151.382 116.138C151.324 115.999 151.265 115.918 151.192 115.903C151.067 115.897 150.944 115.931 150.84 115.999C150.59 116.226 150.297 116.468 149.967 116.732C149.896 116.791 149.805 116.821 149.712 116.815C149.62 116.81 149.533 116.77 149.469 116.703C149.405 116.636 149.369 116.548 149.367 116.455C149.366 116.362 149.399 116.273 149.461 116.204C149.733 115.895 150.05 115.628 150.4 115.412C151.023 114.84 151.324 114.4 151.353 114.048C151.35 113.891 151.313 113.736 151.244 113.594C151.176 113.453 151.078 113.327 150.957 113.227C150.62 112.867 148.148 113.835 145.78 115.273C145.723 115.305 145.658 115.322 145.593 115.322C145.527 115.322 145.463 115.305 145.406 115.273C145.35 115.239 145.303 115.192 145.271 115.136C145.239 115.079 145.222 115.015 145.222 114.95V112.589C142.81 114.701 139.576 117.678 139.172 118.455C138.681 119.387 138.373 122.232 138.292 123.251C138.289 123.31 138.271 123.366 138.24 123.416C138.209 123.466 138.167 123.508 138.116 123.537L134.09 125.965C134.049 125.99 134.003 126.006 133.955 126.014C133.907 126.021 133.859 126.019 133.812 126.007C133.765 125.996 133.72 125.975 133.681 125.946C133.642 125.917 133.609 125.881 133.584 125.84C133.559 125.799 133.543 125.753 133.535 125.705C133.528 125.657 133.53 125.608 133.542 125.561C133.554 125.514 133.574 125.47 133.603 125.431C133.632 125.392 133.668 125.359 133.709 125.334L137.574 123.009C137.647 122.21 137.933 119.225 138.52 118.111C139.106 116.996 144.716 112.061 145.347 111.511C145.401 111.464 145.466 111.434 145.537 111.424C145.607 111.414 145.678 111.423 145.743 111.452C145.807 111.482 145.862 111.529 145.899 111.589C145.937 111.649 145.957 111.719 145.956 111.789V114.312C147.664 113.322 150.649 111.804 151.492 112.728C151.684 112.901 151.836 113.113 151.938 113.349C152.041 113.586 152.091 113.842 152.086 114.099C152.03 114.531 151.844 114.935 151.551 115.258C151.796 115.388 151.98 115.61 152.064 115.874C152.139 116.261 152.125 116.66 152.024 117.041C151.922 117.422 151.735 117.775 151.478 118.074C151.564 118.078 151.648 118.098 151.727 118.133C151.876 118.199 151.998 118.312 152.075 118.456C152.152 118.599 152.179 118.764 152.152 118.925C152.152 119.79 151.331 120.78 150.568 121.506C150.708 121.485 150.852 121.496 150.986 121.539C151.121 121.583 151.244 121.657 151.346 121.755C151.544 122.005 151.514 122.342 151.25 122.76C150.4 124.109 140.045 132.873 138.872 133.863C138.811 133.923 138.73 133.959 138.644 133.965Z" fill="#231F20"/>
<path d="M139.538 136.283C139.469 136.284 139.402 136.267 139.344 136.232C139.285 136.197 139.238 136.146 139.208 136.085L131.999 122.987L121.072 128.773C121.028 128.796 120.981 128.81 120.931 128.814C120.882 128.819 120.833 128.813 120.786 128.798C120.739 128.783 120.695 128.759 120.657 128.727C120.62 128.695 120.589 128.656 120.566 128.612C120.542 128.569 120.527 128.521 120.522 128.472C120.516 128.423 120.521 128.373 120.535 128.326C120.55 128.279 120.574 128.235 120.605 128.197C120.637 128.159 120.676 128.128 120.72 128.106L131.999 122.144C132.086 122.097 132.187 122.086 132.282 122.113C132.377 122.141 132.457 122.204 132.505 122.291L139.838 135.725C139.885 135.814 139.895 135.918 139.867 136.014C139.838 136.11 139.772 136.191 139.684 136.239C139.639 136.263 139.589 136.278 139.538 136.283Z" fill="#231F20"/>
<path d="M92.7811 48.6567H50.4824V83.182H92.7811V48.6567Z" fill="white"/>
<path d="M92.7879 83.5487H50.4819C50.3852 83.5468 50.2931 83.5076 50.2247 83.4392C50.1563 83.3708 50.1171 83.2787 50.1152 83.182V48.6567C50.1152 48.5594 50.1539 48.4662 50.2226 48.3974C50.2914 48.3286 50.3847 48.29 50.4819 48.29H92.7879C92.8851 48.29 92.9784 48.3286 93.0472 48.3974C93.1159 48.4662 93.1546 48.5594 93.1546 48.6567V83.182C93.1527 83.2787 93.1135 83.3708 93.0451 83.4392C92.9767 83.5076 92.8846 83.5468 92.7879 83.5487ZM50.8486 82.8153H92.3992V49.0233H50.8486V82.8153Z" fill="#D1D3D4"/>
<path d="M92.7811 48.6567H50.4824V54.0393H92.7811V48.6567Z" fill="white"/>
<path d="M92.7879 54.406H50.4819C50.3852 54.4041 50.2931 54.3649 50.2247 54.2965C50.1563 54.2282 50.1171 54.136 50.1152 54.0393V48.6567C50.1152 48.5594 50.1539 48.4662 50.2226 48.3974C50.2914 48.3286 50.3847 48.29 50.4819 48.29H92.7879C92.8851 48.29 92.9784 48.3286 93.0472 48.3974C93.1159 48.4662 93.1546 48.5594 93.1546 48.6567V54.0393C93.1527 54.136 93.1135 54.2282 93.0451 54.2965C92.9767 54.3649 92.8846 54.4041 92.7879 54.406ZM50.8486 53.6727H92.3992V49.0233H50.8486V53.6727Z" fill="#D1D3D4"/>
<path d="M88.6442 77.638H64.1289L76.3902 58.718L88.6442 77.638Z" fill="white"/>
<path d="M88.6446 78.0047H64.1366C64.0705 78.0056 64.0054 77.9884 63.9485 77.9547C63.8915 77.9211 63.845 77.8724 63.814 77.814C63.7798 77.7563 63.7617 77.6904 63.7617 77.6233C63.7617 77.5562 63.7798 77.4904 63.814 77.4327L76.0826 58.52C76.1182 58.4729 76.1642 58.4347 76.217 58.4084C76.2698 58.3821 76.328 58.3684 76.387 58.3684C76.446 58.3684 76.5042 58.3821 76.557 58.4084C76.6098 58.4347 76.6558 58.4729 76.6913 58.52L88.9453 77.4327C88.9795 77.4904 88.9976 77.5562 88.9976 77.6233C88.9976 77.6904 88.9795 77.7563 88.9453 77.814C88.9167 77.8696 88.8737 77.9166 88.8209 77.9501C88.768 77.9837 88.7072 78.0025 88.6446 78.0047ZM64.8113 77.2713H87.9993L76.3906 59.4L64.8113 77.2713Z" fill="#D1D3D4"/>
<path d="M84.904 72.2407H67.8686C67.7714 72.2407 67.6781 72.202 67.6093 72.1333C67.5406 72.0645 67.502 71.9712 67.502 71.874C67.502 71.7767 67.5406 71.6835 67.6093 71.6147C67.6781 71.546 67.7714 71.5073 67.8686 71.5073H84.904C85.0012 71.5073 85.0945 71.546 85.1632 71.6147C85.232 71.6835 85.2706 71.7767 85.2706 71.874C85.2706 71.9712 85.232 72.0645 85.1632 72.1333C85.0945 72.202 85.0012 72.2407 84.904 72.2407Z" fill="#D1D3D4"/>
<path d="M81.2967 66.9313H71.5874C71.4901 66.9313 71.3969 66.8927 71.3281 66.8239C71.2593 66.7552 71.2207 66.6619 71.2207 66.5647C71.2207 66.4674 71.2593 66.3742 71.3281 66.3054C71.3969 66.2366 71.4901 66.198 71.5874 66.198H81.2967C81.3939 66.198 81.4872 66.2366 81.556 66.3054C81.6247 66.3742 81.6634 66.4674 81.6634 66.5647C81.6634 66.6619 81.6247 66.7552 81.556 66.8239C81.4872 66.8927 81.3939 66.9313 81.2967 66.9313Z" fill="#D1D3D4"/>
<path d="M60.9183 74.5873H55.8803C55.7831 74.5873 55.6898 74.5487 55.6211 74.4799C55.5523 74.4112 55.5137 74.3179 55.5137 74.2207C55.5137 74.1234 55.5523 74.0302 55.6211 73.9614C55.6898 73.8926 55.7831 73.854 55.8803 73.854H60.9183C61.0156 73.854 61.1089 73.8926 61.1776 73.9614C61.2464 74.0302 61.285 74.1234 61.285 74.2207C61.285 74.3179 61.2464 74.4112 61.1776 74.4799C61.1089 74.5487 61.0156 74.5873 60.9183 74.5873Z" fill="#D1D3D4"/>
<path d="M58.843 76.8387H55.9096C55.8124 76.8387 55.7191 76.8001 55.6504 76.7313C55.5816 76.6625 55.543 76.5693 55.543 76.472C55.543 76.3748 55.5816 76.2815 55.6504 76.2127C55.7191 76.144 55.8124 76.1053 55.9096 76.1053H58.843C58.9402 76.1053 59.0335 76.144 59.1022 76.2127C59.171 76.2815 59.2096 76.3748 59.2096 76.472C59.2096 76.5693 59.171 76.6625 59.1022 76.7313C59.0335 76.8001 58.9402 76.8387 58.843 76.8387Z" fill="#D1D3D4"/>
<path d="M66.1529 67.2614H55.8862C55.789 67.2614 55.6957 67.2227 55.6269 67.154C55.5582 67.0852 55.5195 66.9919 55.5195 66.8947C55.5195 66.7974 55.5582 66.7042 55.6269 66.6354C55.6957 66.5666 55.789 66.528 55.8862 66.528H66.1529C66.2501 66.528 66.3434 66.5666 66.4121 66.6354C66.4809 66.7042 66.5195 66.7974 66.5195 66.8947C66.5195 66.9919 66.4809 67.0852 66.4121 67.154C66.3434 67.2227 66.2501 67.2614 66.1529 67.2614Z" fill="#D1D3D4"/>
<path d="M61.923 69.52H55.8803C55.7831 69.52 55.6898 69.4814 55.6211 69.4126C55.5523 69.3439 55.5137 69.2506 55.5137 69.1534C55.5137 69.0561 55.5523 68.9628 55.6211 68.8941C55.6898 68.8253 55.7831 68.7867 55.8803 68.7867H61.923C62.0203 68.7867 62.1135 68.8253 62.1823 68.8941C62.251 68.9628 62.2897 69.0561 62.2897 69.1534C62.2897 69.2506 62.251 69.3439 62.1823 69.4126C62.1135 69.4814 62.0203 69.52 61.923 69.52Z" fill="#D1D3D4"/>
<path d="M68.127 60.5807H55.8803C55.7831 60.5807 55.6898 60.5421 55.6211 60.4733C55.5523 60.4045 55.5137 60.3113 55.5137 60.214C55.5137 60.1168 55.5523 60.0235 55.6211 59.9547C55.6898 59.886 55.7831 59.8474 55.8803 59.8474H68.127C68.2243 59.8474 68.3175 59.886 68.3863 59.9547C68.455 60.0235 68.4937 60.1168 68.4937 60.214C68.4937 60.3113 68.455 60.4045 68.3863 60.4733C68.3175 60.5421 68.2243 60.5807 68.127 60.5807Z" fill="#D1D3D4"/>
<path d="M63.067 62.832H55.8803C55.7831 62.832 55.6898 62.7934 55.6211 62.7246C55.5523 62.6558 55.5137 62.5626 55.5137 62.4653C55.5137 62.3681 55.5523 62.2748 55.6211 62.2061C55.6898 62.1373 55.7831 62.0987 55.8803 62.0987H63.067C63.1643 62.0987 63.2575 62.1373 63.3263 62.2061C63.395 62.2748 63.4337 62.3681 63.4337 62.4653C63.4337 62.5626 63.395 62.6558 63.3263 62.7246C63.2575 62.7934 63.1643 62.832 63.067 62.832Z" fill="#D1D3D4"/>
<path d="M88.5053 72.38C88.4081 72.38 88.3148 72.3414 88.2461 72.2726C88.1773 72.2039 88.1387 72.1106 88.1387 72.0133V59.0627C88.1387 58.9654 88.1773 58.8722 88.2461 58.8034C88.3148 58.7346 88.4081 58.696 88.5053 58.696C88.6026 58.696 88.6958 58.7346 88.7646 58.8034C88.8334 58.8722 88.872 58.9654 88.872 59.0627V72.0133C88.8701 72.11 88.8309 72.2022 88.7625 72.2705C88.6942 72.3389 88.602 72.3781 88.5053 72.38Z" fill="#D1D3D4"/>
<path d="M89.7016 61.6C89.6281 61.6001 89.5564 61.5776 89.4961 61.5356C89.4358 61.4937 89.3898 61.4342 89.3643 61.3653L88.477 59.1067L87.4576 61.38C87.4385 61.4244 87.4108 61.4646 87.376 61.4982C87.3413 61.5319 87.3003 61.5583 87.2553 61.576C87.2103 61.5937 87.1623 61.6024 87.1139 61.6015C87.0656 61.6006 87.0179 61.5901 86.9736 61.5707C86.8847 61.5292 86.8157 61.4544 86.7814 61.3625C86.7471 61.2706 86.7503 61.1689 86.7903 61.0793L88.169 58.0067C88.1956 57.9387 88.2437 57.8812 88.3058 57.8429C88.368 57.8045 88.4409 57.7874 88.5136 57.794C88.5861 57.7944 88.6567 57.8171 88.7157 57.8591C88.7748 57.9011 88.8195 57.9603 88.8436 58.0287L90.0463 61.1013C90.0804 61.1919 90.0781 61.2922 90.0398 61.3811C90.0015 61.47 89.9302 61.5406 89.841 61.578C89.7959 61.5924 89.7489 61.5998 89.7016 61.6Z" fill="#D1D3D4"/>
<path d="M247.954 56.254H186.838V107.829H247.954V56.254Z" fill="white"/>
<path d="M247.961 108.196H186.837C186.74 108.196 186.647 108.157 186.578 108.089C186.509 108.02 186.471 107.927 186.471 107.829V56.254C186.473 56.1573 186.512 56.0652 186.58 55.9968C186.649 55.9284 186.741 55.8892 186.837 55.8873H247.961C248.057 55.8892 248.15 55.9284 248.218 55.9968C248.286 56.0652 248.325 56.1573 248.327 56.254V107.8C248.331 107.851 248.325 107.901 248.308 107.949C248.292 107.997 248.265 108.041 248.231 108.078C248.196 108.116 248.155 108.145 248.108 108.166C248.062 108.186 248.011 108.196 247.961 108.196ZM187.204 107.463H247.594V56.6207H187.204V107.463Z" fill="#D1D3D4"/>
<path d="M247.954 50.952H186.838V56.2614H247.954V50.952Z" fill="white"/>
<path d="M247.961 56.6207H186.837C186.74 56.6207 186.647 56.5821 186.578 56.5133C186.509 56.4445 186.471 56.3513 186.471 56.254V50.952C186.471 50.8548 186.509 50.7615 186.578 50.6928C186.647 50.624 186.74 50.5854 186.837 50.5854H247.961C248.058 50.5854 248.151 50.624 248.22 50.6928C248.289 50.7615 248.327 50.8548 248.327 50.952V56.254C248.327 56.3513 248.289 56.4445 248.22 56.5133C248.151 56.5821 248.058 56.6207 247.961 56.6207ZM187.204 55.8874H247.594V51.3334H187.204V55.8874Z" fill="#D1D3D4"/>
<path d="M226.68 70.0333H208.933C208.836 70.0333 208.743 69.9947 208.674 69.9259C208.605 69.8572 208.566 69.7639 208.566 69.6667V62.6047C208.566 62.5074 208.605 62.4142 208.674 62.3454C208.743 62.2766 208.836 62.238 208.933 62.238H226.68C226.777 62.238 226.87 62.2766 226.939 62.3454C227.008 62.4142 227.046 62.5074 227.046 62.6047V69.6667C227.046 69.7639 227.008 69.8572 226.939 69.9259C226.87 69.9947 226.777 70.0333 226.68 70.0333ZM209.3 69.3H226.313V62.9713H209.3V69.3Z" fill="#D1D3D4"/>
<path d="M212.835 89.3127H195.066C194.969 89.3127 194.875 89.274 194.807 89.2053C194.738 89.1365 194.699 89.0432 194.699 88.946V81.884C194.699 81.7868 194.738 81.6935 194.807 81.6247C194.875 81.556 194.969 81.5173 195.066 81.5173H212.813C212.91 81.5173 213.003 81.556 213.072 81.6247C213.141 81.6935 213.179 81.7868 213.179 81.884V88.946C213.179 89.0396 213.144 89.1296 213.08 89.1978C213.016 89.266 212.928 89.3071 212.835 89.3127ZM195.455 88.5793H212.468V82.2507H195.455V88.5793Z" fill="#D1D3D4"/>
<path d="M240.107 89.3127H222.361C222.264 89.3127 222.17 89.274 222.102 89.2053C222.033 89.1365 221.994 89.0432 221.994 88.946V81.884C221.994 81.7868 222.033 81.6935 222.102 81.6247C222.17 81.556 222.264 81.5173 222.361 81.5173H240.107C240.205 81.5173 240.298 81.556 240.367 81.6247C240.436 81.6935 240.474 81.7868 240.474 81.884V88.946C240.474 89.0432 240.436 89.1365 240.367 89.2053C240.298 89.274 240.205 89.3127 240.107 89.3127ZM222.727 88.5793H239.741V82.2507H222.727V88.5793Z" fill="#D1D3D4"/>
<path d="M217.697 76.582C217.601 76.582 217.509 76.5444 217.44 76.4772C217.372 76.41 217.332 76.3186 217.33 76.2227C217.169 69.674 217.294 69.5493 217.426 69.41C217.48 69.3642 217.545 69.3341 217.615 69.3228C217.685 69.3115 217.756 69.3195 217.822 69.3459C217.888 69.3723 217.945 69.4161 217.987 69.4727C218.03 69.5292 218.056 69.5963 218.064 69.6667C218.064 69.7202 218.051 69.773 218.027 69.8207C217.961 70.3047 218.027 73.4287 218.064 76.208C218.064 76.3047 218.026 76.3977 217.959 76.4674C217.892 76.5371 217.801 76.5782 217.704 76.582H217.697Z" fill="#D1D3D4"/>
<path d="M231.235 82.2507C231.138 82.2507 231.045 82.212 230.976 82.1433C230.907 82.0745 230.868 81.9813 230.868 81.884V76.582H204.329V81.884C204.329 81.9813 204.29 82.0745 204.222 82.1433C204.153 82.212 204.06 82.2507 203.962 82.2507C203.865 82.2507 203.772 82.212 203.703 82.1433C203.634 82.0745 203.596 81.9813 203.596 81.884V76.2153C203.596 76.1181 203.634 76.0248 203.703 75.9561C203.772 75.8873 203.865 75.8487 203.962 75.8487H231.235C231.332 75.8487 231.426 75.8873 231.494 75.9561C231.563 76.0248 231.602 76.1181 231.602 76.2153V81.884C231.602 81.9813 231.563 82.0745 231.494 82.1433C231.426 82.212 231.332 82.2507 231.235 82.2507Z" fill="#D1D3D4"/>
<path d="M201.351 101.853H191.605C191.508 101.853 191.414 101.814 191.346 101.745C191.277 101.677 191.238 101.583 191.238 101.486V97.6067C191.238 97.5094 191.277 97.4162 191.346 97.3474C191.414 97.2786 191.508 97.24 191.605 97.24H201.351C201.448 97.24 201.541 97.2786 201.61 97.3474C201.679 97.4162 201.718 97.5094 201.718 97.6067V101.486C201.716 101.583 201.677 101.675 201.608 101.743C201.54 101.812 201.448 101.851 201.351 101.853ZM191.972 101.119H200.984V97.9734H191.972V101.119Z" fill="#D1D3D4"/>
<path d="M216.333 101.853H206.58C206.482 101.853 206.389 101.814 206.32 101.745C206.252 101.677 206.213 101.583 206.213 101.486V97.6067C206.213 97.5094 206.252 97.4162 206.32 97.3474C206.389 97.2786 206.482 97.24 206.58 97.24H216.333C216.43 97.24 216.523 97.2786 216.592 97.3474C216.661 97.4162 216.7 97.5094 216.7 97.6067V101.486C216.7 101.583 216.661 101.677 216.592 101.745C216.523 101.814 216.43 101.853 216.333 101.853ZM206.961 101.119H215.966V97.9734H206.946L206.961 101.119Z" fill="#D1D3D4"/>
<path d="M204.012 94.1454C203.917 94.1436 203.826 94.1053 203.757 94.0385C203.689 93.9717 203.649 93.8814 203.645 93.786C203.557 88.9167 203.645 88.8654 203.748 88.726C203.801 88.6796 203.866 88.6489 203.936 88.6373C204.006 88.6257 204.077 88.6337 204.142 88.6603C204.208 88.6869 204.265 88.7311 204.306 88.788C204.348 88.845 204.373 88.9123 204.379 88.9827C204.383 89.0217 204.383 89.061 204.379 89.1C204.335 89.5034 204.379 92.1507 204.379 93.7714C204.381 93.8198 204.373 93.8681 204.356 93.9134C204.339 93.9587 204.312 94.0001 204.279 94.035C204.245 94.0699 204.205 94.0977 204.16 94.1167C204.116 94.1356 204.068 94.1454 204.019 94.1454H204.012Z" fill="#D1D3D4"/>
<path d="M211.449 97.9733C211.352 97.9733 211.258 97.9347 211.189 97.8659C211.121 97.7972 211.082 97.7039 211.082 97.6067V94.1453H196.841V97.6067C196.841 97.7039 196.802 97.7972 196.733 97.8659C196.665 97.9347 196.571 97.9733 196.474 97.9733C196.377 97.9733 196.284 97.9347 196.215 97.8659C196.146 97.7972 196.107 97.7039 196.107 97.6067V93.7787C196.107 93.6814 196.146 93.5881 196.215 93.5194C196.284 93.4506 196.377 93.412 196.474 93.412H211.449C211.546 93.412 211.639 93.4506 211.708 93.5194C211.777 93.5881 211.815 93.6814 211.815 93.7787V97.6067C211.815 97.6548 211.806 97.7025 211.788 97.747C211.769 97.7915 211.742 97.8319 211.708 97.8659C211.674 97.9 211.634 97.927 211.589 97.9454C211.545 97.9638 211.497 97.9733 211.449 97.9733Z" fill="#D1D3D4"/>
<path d="M228.22 101.853H218.474C218.377 101.851 218.285 101.812 218.217 101.743C218.149 101.675 218.109 101.583 218.107 101.486V97.6067C218.107 97.5094 218.146 97.4162 218.215 97.3474C218.284 97.2786 218.377 97.24 218.474 97.24H228.22C228.317 97.24 228.411 97.2786 228.479 97.3474C228.548 97.4162 228.587 97.5094 228.587 97.6067V101.486C228.587 101.534 228.577 101.582 228.559 101.626C228.54 101.671 228.513 101.711 228.479 101.745C228.445 101.779 228.405 101.806 228.36 101.825C228.316 101.843 228.268 101.853 228.22 101.853ZM218.841 101.119H227.853V97.9734H218.841V101.119Z" fill="#D1D3D4"/>
<path d="M243.195 101.853H233.449C233.352 101.851 233.26 101.812 233.192 101.743C233.123 101.675 233.084 101.583 233.082 101.486V97.6067C233.082 97.5094 233.121 97.4162 233.189 97.3474C233.258 97.2786 233.351 97.24 233.449 97.24H243.195C243.292 97.24 243.385 97.2786 243.454 97.3474C243.523 97.4162 243.561 97.5094 243.561 97.6067V101.486C243.561 101.583 243.523 101.677 243.454 101.745C243.385 101.814 243.292 101.853 243.195 101.853ZM233.815 101.119H242.828V97.9734H233.815V101.119Z" fill="#D1D3D4"/>
<path d="M230.889 94.1454C230.793 94.1454 230.701 94.1078 230.632 94.0406C230.564 93.9734 230.524 93.882 230.522 93.786C230.434 88.9167 230.522 88.8654 230.625 88.726C230.678 88.6796 230.743 88.6489 230.813 88.6373C230.883 88.6257 230.954 88.6337 231.019 88.6603C231.085 88.6869 231.141 88.7311 231.183 88.788C231.225 88.845 231.25 88.9123 231.256 88.9827C231.263 89.0214 231.263 89.0613 231.256 89.1C231.219 89.4667 231.256 91.7474 231.256 93.7714C231.257 93.8195 231.248 93.8674 231.231 93.9122C231.213 93.9571 231.187 93.9981 231.154 94.0328C231.12 94.0675 231.08 94.0953 231.036 94.1147C230.992 94.134 230.945 94.1444 230.896 94.1454H230.889Z" fill="#D1D3D4"/>
<path d="M238.333 97.9733C238.236 97.9733 238.143 97.9347 238.074 97.8659C238.005 97.7972 237.966 97.7039 237.966 97.6067V94.1453H223.718V97.6067C223.718 97.7039 223.679 97.7972 223.61 97.8659C223.542 97.9347 223.448 97.9733 223.351 97.9733C223.254 97.9733 223.161 97.9347 223.092 97.8659C223.023 97.7972 222.984 97.7039 222.984 97.6067V93.7787C222.984 93.6814 223.023 93.5881 223.092 93.5194C223.161 93.4506 223.254 93.412 223.351 93.412H238.333C238.43 93.412 238.524 93.4506 238.592 93.5194C238.661 93.5881 238.7 93.6814 238.7 93.7787V97.6067C238.7 97.7039 238.661 97.7972 238.592 97.8659C238.524 97.9347 238.43 97.9733 238.333 97.9733Z" fill="#D1D3D4"/>
<path d="M87.7568 93.7567H65.0234V114.825H87.7568V93.7567Z" fill="white"/>
<path d="M87.7504 115.185H65.0171C64.9198 115.185 64.8265 115.146 64.7578 115.077C64.689 115.009 64.6504 114.915 64.6504 114.818V93.7494C64.6504 93.6521 64.689 93.5589 64.7578 93.4901C64.8265 93.4213 64.9198 93.3827 65.0171 93.3827H87.7504C87.8476 93.3827 87.9409 93.4213 88.0097 93.4901C88.0784 93.5589 88.1171 93.6521 88.1171 93.7494V114.818C88.1171 114.915 88.0784 115.009 88.0097 115.077C87.9409 115.146 87.8476 115.185 87.7504 115.185ZM65.3911 114.451H87.3911V94.116H65.3911V114.451Z" fill="#D1D3D4"/>
<path d="M84.4506 98.78H68.7573C68.66 98.78 68.5668 98.7414 68.498 98.6726C68.4293 98.6038 68.3906 98.5106 68.3906 98.4133C68.3906 98.3161 68.4293 98.2228 68.498 98.1541C68.5668 98.0853 68.66 98.0467 68.7573 98.0467H84.4506C84.5479 98.0467 84.6411 98.0853 84.7099 98.1541C84.7787 98.2228 84.8173 98.3161 84.8173 98.4133C84.8173 98.5106 84.7787 98.6038 84.7099 98.6726C84.6411 98.7414 84.5479 98.78 84.4506 98.78Z" fill="#D1D3D4"/>
<path d="M84.4506 102.542H68.7573C68.66 102.542 68.5668 102.503 68.498 102.435C68.4293 102.366 68.3906 102.273 68.3906 102.175C68.3906 102.078 68.4293 101.985 68.498 101.916C68.5668 101.847 68.66 101.809 68.7573 101.809H84.4506C84.5479 101.809 84.6411 101.847 84.7099 101.916C84.7787 101.985 84.8173 102.078 84.8173 102.175C84.8154 102.272 84.7762 102.364 84.7078 102.433C84.6395 102.501 84.5473 102.54 84.4506 102.542Z" fill="#D1D3D4"/>
<path d="M84.4506 106.333H68.7573C68.66 106.333 68.5668 106.295 68.498 106.226C68.4293 106.157 68.3906 106.064 68.3906 105.967C68.3906 105.869 68.4293 105.776 68.498 105.707C68.5668 105.639 68.66 105.6 68.7573 105.6H84.4506C84.5479 105.6 84.6411 105.639 84.7099 105.707C84.7787 105.776 84.8173 105.869 84.8173 105.967C84.8173 106.064 84.7787 106.157 84.7099 106.226C84.6411 106.295 84.5479 106.333 84.4506 106.333Z" fill="#D1D3D4"/>
<path d="M81.3413 110.059H68.7573C68.66 110.059 68.5668 110.02 68.498 109.951C68.4293 109.883 68.3906 109.789 68.3906 109.692C68.3906 109.595 68.4293 109.502 68.498 109.433C68.5668 109.364 68.66 109.325 68.7573 109.325H81.3413C81.4385 109.325 81.5318 109.364 81.6006 109.433C81.6693 109.502 81.708 109.595 81.708 109.692C81.7061 109.789 81.6668 109.881 81.5985 109.949C81.5301 110.018 81.4379 110.057 81.3413 110.059Z" fill="#D1D3D4"/>
</svg>
