<svg width="294" height="220" viewBox="0 0 294 220" fill="none" xmlns="http://www.w3.org/2000/svg">
<path d="M239.522 160.673H31.0424C30.9458 160.671 30.8536 160.632 30.7853 160.564C30.7169 160.495 30.6777 160.403 30.6758 160.307C30.6758 160.209 30.7144 160.116 30.7832 160.047C30.8519 159.979 30.9452 159.94 31.0424 159.94H239.522C239.619 159.94 239.712 159.979 239.781 160.047C239.85 160.116 239.888 160.209 239.888 160.307C239.887 160.403 239.847 160.495 239.779 160.564C239.711 160.632 239.618 160.671 239.522 160.673Z" fill="#D1D3D4"/>
<path d="M184.932 140.265L181.134 171.321H117.825C117.825 171.321 117.011 167.449 120.612 166.672C127.072 165.279 129.639 164.069 132.807 160.901C138.674 155.034 138.197 140.367 138.197 140.367L184.932 140.265Z" fill="white"/>
<path d="M181.134 171.688H117.825C117.74 171.689 117.657 171.661 117.592 171.607C117.526 171.553 117.481 171.478 117.466 171.395C117.466 171.351 116.63 167.156 120.538 166.313C126.948 164.934 129.419 163.768 132.543 160.644C138.212 154.983 137.83 140.529 137.83 140.389C137.827 140.339 137.834 140.289 137.852 140.242C137.869 140.195 137.897 140.153 137.933 140.118C138.001 140.05 138.093 140.01 138.19 140.008L184.932 139.898C184.985 139.898 185.037 139.91 185.085 139.931C185.133 139.953 185.176 139.984 185.211 140.023C185.245 140.062 185.27 140.107 185.285 140.156C185.3 140.206 185.305 140.258 185.299 140.309L181.5 171.365C181.49 171.455 181.446 171.537 181.379 171.597C181.311 171.656 181.224 171.689 181.134 171.688ZM118.14 170.955H180.811L184.522 140.631L138.571 140.741C138.571 143.132 138.505 155.731 133.064 161.165C129.852 164.369 127.197 165.631 120.692 167.031C118.008 167.611 118.067 170.089 118.14 170.955Z" fill="#231F20"/>
<path d="M241.055 136.136L242.001 124.014L248.601 39.0206C248.657 38.4819 248.598 37.9374 248.429 37.423C248.259 36.9085 247.983 36.4356 247.618 36.0354C247.253 35.6352 246.808 35.3166 246.311 35.1006C245.814 34.8846 245.278 34.776 244.736 34.782H89.2694C88.1249 34.805 87.0294 35.2507 86.194 36.0333C85.3585 36.816 84.8423 37.8801 84.7447 39.0206L77.1767 136.136C77.1209 136.675 77.1796 137.219 77.3489 137.734C77.5182 138.248 77.7944 138.721 78.1594 139.121C78.5243 139.521 78.9697 139.84 79.4664 140.056C79.9631 140.272 80.4998 140.381 81.0414 140.375H236.508C237.656 140.355 238.756 139.911 239.596 139.129C240.435 138.346 240.955 137.28 241.055 136.136Z" fill="#231F20"/>
<path d="M236.53 140.741H81.0634C80.4791 140.747 79.8998 140.631 79.3631 140.4C78.8263 140.169 78.3439 139.828 77.9468 139.399C77.5415 138.959 77.233 138.438 77.041 137.871C76.849 137.304 76.7779 136.703 76.8321 136.107L84.3341 38.9913C84.4405 37.7605 84.9981 36.6125 85.8996 35.7678C86.8011 34.9232 87.983 34.4415 89.2181 34.4153H244.685C245.268 34.4095 245.847 34.5252 246.383 34.755C246.92 34.9847 247.403 35.3236 247.801 35.75C248.207 36.1923 248.515 36.7142 248.707 37.2824C248.899 37.8506 248.97 38.4526 248.916 39.05L241.414 136.165C241.308 137.396 240.75 138.544 239.849 139.389C238.947 140.233 237.765 140.715 236.53 140.741ZM89.2034 35.1413C88.154 35.1701 87.152 35.5846 86.3889 36.3057C85.6259 37.0268 85.1554 38.0038 85.0674 39.05L77.5434 136.165C77.4962 136.66 77.5534 137.159 77.7113 137.63C77.8692 138.101 78.1243 138.534 78.4601 138.901C78.7897 139.255 79.1895 139.536 79.6339 139.727C80.0784 139.917 80.5578 140.013 81.0414 140.008H236.508C237.56 139.983 238.565 139.571 239.332 138.852C240.1 138.132 240.574 137.155 240.666 136.107L248.19 38.9913C248.237 38.4955 248.18 37.9952 248.022 37.5228C247.865 37.0504 247.609 36.6164 247.273 36.2486C246.944 35.8956 246.544 35.6154 246.099 35.426C245.654 35.2365 245.175 35.1421 244.692 35.1486L89.2034 35.1413Z" fill="#231F20"/>
<path d="M236.039 124.014H72.168L78.768 39.0206C78.8622 37.8801 79.3764 36.8151 80.211 36.0321C81.0456 35.249 82.1411 34.8035 83.2853 34.782H238.752C239.294 34.776 239.83 34.8846 240.327 35.1006C240.824 35.3166 241.269 35.6352 241.634 36.0354C241.999 36.4356 242.275 36.9085 242.444 37.423C242.614 37.9374 242.673 38.4819 242.617 39.0206L236.039 124.014Z" fill="#D1D3D4"/>
<path d="M236.045 124.381H72.1667C72.1159 124.381 72.0657 124.37 72.0192 124.35C71.9727 124.33 71.9309 124.3 71.8964 124.263C71.862 124.226 71.8356 124.182 71.819 124.134C71.8024 124.086 71.7959 124.035 71.8 123.985L78.4 38.9913C78.5064 37.7605 79.064 36.6125 79.9655 35.7678C80.867 34.9232 82.0489 34.4415 83.284 34.4153H238.751C239.334 34.4095 239.913 34.5252 240.449 34.755C240.986 34.9847 241.469 35.3236 241.867 35.75C242.272 36.1912 242.58 36.7118 242.772 37.2788C242.964 37.8457 243.035 38.4465 242.982 39.0426L236.382 124.043C236.377 124.131 236.34 124.214 236.277 124.276C236.215 124.338 236.132 124.375 236.045 124.381ZM72.5993 123.647H235.7L242.241 38.9913C242.289 38.4955 242.232 37.9952 242.074 37.5228C241.916 37.0504 241.661 36.6164 241.325 36.2486C240.995 35.8956 240.595 35.6154 240.15 35.426C239.706 35.2365 239.227 35.1421 238.743 35.1486H83.2767C82.2245 35.1719 81.2181 35.583 80.4506 36.3031C79.6832 37.0232 79.2088 38.0015 79.1187 39.05L72.5993 123.647Z" fill="#231F20"/>
<path d="M231.682 119.189H77.2715L83.3435 40.5973H237.754L231.682 119.189Z" fill="white"/>
<path d="M231.682 119.533H77.2716C77.2209 119.533 77.1707 119.522 77.1241 119.502C77.0775 119.482 77.0354 119.453 77.0003 119.416C76.9332 119.339 76.899 119.239 76.905 119.137L82.9843 40.546C82.9899 40.4546 83.0302 40.3687 83.097 40.306C83.1638 40.2433 83.252 40.2085 83.3436 40.2087H237.754C237.805 40.2088 237.855 40.2192 237.902 40.2394C237.949 40.2596 237.991 40.289 238.026 40.326C238.059 40.3638 238.085 40.4079 238.101 40.4558C238.118 40.5036 238.124 40.5542 238.121 40.6047L232.049 119.189C232.043 119.282 232.002 119.37 231.934 119.434C231.866 119.498 231.776 119.534 231.682 119.533ZM77.6823 118.8H231.345L237.358 40.942H83.6883L77.6823 118.8Z" fill="#231F20"/>
<path d="M230.582 140.375H75.1155C74.574 140.379 74.0375 140.27 73.5411 140.054C73.0446 139.837 72.5993 139.519 72.234 139.119C71.8687 138.719 71.5918 138.247 71.4211 137.733C71.2505 137.219 71.19 136.675 71.2435 136.136L72.1822 124.014H236.038L235.107 136.136C235.008 137.276 234.491 138.339 233.656 139.121C232.821 139.904 231.726 140.35 230.582 140.375Z" fill="white"/>
<path d="M230.582 140.741H75.1157C74.5301 140.748 73.9497 140.632 73.4116 140.401C72.8736 140.17 72.3899 139.829 71.9917 139.399C71.5864 138.959 71.2779 138.438 71.0859 137.871C70.8939 137.304 70.8228 136.703 70.877 136.107L71.8157 123.985C71.8231 123.893 71.8649 123.807 71.9329 123.744C72.0009 123.682 72.09 123.647 72.1824 123.647H236.046C236.095 123.648 236.144 123.659 236.19 123.679C236.235 123.699 236.276 123.728 236.31 123.765C236.344 123.802 236.371 123.846 236.387 123.894C236.404 123.942 236.41 123.993 236.405 124.043L235.474 136.165C235.366 137.397 234.806 138.545 233.904 139.389C233.001 140.234 231.818 140.715 230.582 140.741ZM72.505 124.381L71.5957 136.165C71.5511 136.661 71.6095 137.161 71.7672 137.633C71.925 138.105 72.1787 138.539 72.5124 138.908C72.8434 139.262 73.2447 139.542 73.6905 139.732C74.1362 139.921 74.6167 140.015 75.101 140.008H230.568C231.619 139.983 232.625 139.571 233.392 138.852C234.159 138.132 234.634 137.155 234.726 136.107L235.628 124.373L72.505 124.381Z" fill="#231F20"/>
<path d="M176.895 58.4173H141.621C141.33 58.4173 141.05 58.3014 140.844 58.0952C140.637 57.8889 140.521 57.6091 140.521 57.3173C140.521 57.0256 140.637 56.7458 140.844 56.5395C141.05 56.3332 141.33 56.2173 141.621 56.2173H176.895C177.187 56.2173 177.466 56.3332 177.673 56.5395C177.879 56.7458 177.995 57.0256 177.995 57.3173C177.995 57.6091 177.879 57.8889 177.673 58.0952C177.466 58.3014 177.187 58.4173 176.895 58.4173Z" fill="#D1D3D4"/>
<path d="M207.622 88.4547H106.136C105.263 88.4648 104.397 88.2919 103.595 87.9471C102.793 87.6023 102.072 87.0932 101.479 86.4527C100.872 85.7932 100.411 85.014 100.124 84.1651C99.8375 83.3163 99.7319 82.4168 99.8143 81.5247L100.152 77.2127C100.31 75.3642 101.147 73.6399 102.501 72.3713C103.855 71.1028 105.63 70.3798 107.485 70.3413H209C209.873 70.3312 210.739 70.5041 211.541 70.8489C212.343 71.1937 213.064 71.7028 213.657 72.3433C214.261 73.0027 214.722 73.7809 215.008 74.6281C215.295 75.4754 215.402 76.3731 215.322 77.264L214.984 81.5833C214.823 83.4361 213.982 85.1636 212.622 86.4325C211.262 87.7014 209.481 88.4218 207.622 88.4547ZM107.478 71.0747C105.808 71.1118 104.211 71.7641 102.993 72.9063C101.775 74.0486 101.022 75.6004 100.878 77.264L100.548 81.5833C100.468 82.3787 100.558 83.1819 100.81 83.9402C101.063 84.6985 101.473 85.3948 102.014 85.9833C102.54 86.5491 103.178 86.9986 103.888 87.3029C104.598 87.6073 105.363 87.7598 106.136 87.7507H207.622C209.292 87.7117 210.889 87.0579 212.107 85.9145C213.324 84.771 214.078 83.2183 214.222 81.554L214.552 77.242C214.627 76.4469 214.536 75.6447 214.284 74.8869C214.031 74.1291 213.623 73.4326 213.085 72.842C212.563 72.2816 211.93 71.8352 211.227 71.5311C210.525 71.2269 209.766 71.0715 209 71.0747H107.478Z" fill="#D1D3D4"/>
<path d="M195.067 88.4547C194.971 88.4471 194.881 88.4022 194.818 88.3294C194.755 88.2567 194.723 88.1621 194.729 88.066L196.071 70.686C196.079 70.5887 196.125 70.4986 196.199 70.4353C196.274 70.372 196.37 70.3409 196.467 70.3486C196.564 70.3564 196.655 70.4025 196.718 70.4768C196.781 70.551 196.812 70.6474 196.805 70.7446L195.463 88.1173C195.459 88.1655 195.446 88.2125 195.424 88.2556C195.402 88.2987 195.372 88.337 195.335 88.3684C195.298 88.3997 195.255 88.4235 195.209 88.4383C195.163 88.4531 195.115 88.4587 195.067 88.4547Z" fill="#D1D3D4"/>
<path d="M206.515 82.5587C205.966 82.5681 205.421 82.462 204.916 82.2473C204.41 82.0325 203.956 81.7138 203.582 81.312C203.206 80.9011 202.919 80.4162 202.741 79.8884C202.563 79.3606 202.497 78.8014 202.548 78.2467C202.647 77.1008 203.166 76.0321 204.005 75.2457C204.844 74.4593 205.944 74.0106 207.094 73.986C207.643 73.9756 208.189 74.0813 208.694 74.2961C209.2 74.5109 209.654 74.8301 210.028 75.2327C210.404 75.6431 210.691 76.1279 210.869 76.6558C211.047 77.1838 211.113 77.7432 211.062 78.298C210.964 79.4444 210.445 80.5141 209.606 81.3008C208.766 82.0876 207.665 82.5356 206.515 82.5587ZM207.116 74.7193C206.151 74.7394 205.227 75.1162 204.523 75.777C203.819 76.4378 203.384 77.3358 203.303 78.298C203.257 78.7531 203.309 79.2127 203.454 79.6463C203.6 80.08 203.835 80.4778 204.146 80.8133C204.449 81.1381 204.815 81.396 205.223 81.5703C205.631 81.7446 206.071 81.8315 206.515 81.8253C207.481 81.8038 208.404 81.4267 209.109 80.7664C209.814 80.1061 210.251 79.2089 210.336 78.2467C210.377 77.7918 210.324 77.3333 210.179 76.9003C210.033 76.4673 209.8 76.0692 209.492 75.7313C209.188 75.407 208.82 75.1496 208.411 74.9754C208.002 74.8012 207.561 74.714 207.116 74.7193Z" fill="#D1D3D4"/>
<path d="M198.799 84.81C198.742 84.8094 198.686 84.7959 198.635 84.7705C198.585 84.7451 198.54 84.7084 198.506 84.6633C198.447 84.5864 198.42 84.4892 198.433 84.393C198.445 84.2968 198.495 84.2094 198.572 84.15L203.397 80.4833C203.474 80.4309 203.569 80.41 203.661 80.4247C203.753 80.4395 203.836 80.4888 203.893 80.5627C203.95 80.6366 203.977 80.7294 203.968 80.8223C203.959 80.9152 203.915 81.0012 203.844 81.0627L199.019 84.7293C198.957 84.78 198.879 84.8084 198.799 84.81Z" fill="#D1D3D4"/>
<path d="M209.323 96.4187H104.867C104.769 96.4187 104.676 96.38 104.607 96.3113C104.539 96.2425 104.5 96.1492 104.5 96.052C104.5 95.9548 104.539 95.8615 104.607 95.7927C104.676 95.724 104.769 95.6853 104.867 95.6853H209.293C209.391 95.6853 209.484 95.724 209.553 95.7927C209.621 95.8615 209.66 95.9548 209.66 96.052C209.66 96.1444 209.626 96.2334 209.563 96.3014C209.501 96.3694 209.415 96.4113 209.323 96.4187Z" fill="#D1D3D4"/>
<path d="M209 100.584H104.574C104.476 100.584 104.383 100.545 104.314 100.477C104.246 100.408 104.207 100.315 104.207 100.217C104.207 100.12 104.246 100.027 104.314 99.9581C104.383 99.8893 104.476 99.8507 104.574 99.8507H209C209.098 99.8507 209.191 99.8893 209.26 99.9581C209.328 100.027 209.367 100.12 209.367 100.217C209.367 100.315 209.328 100.408 209.26 100.477C209.191 100.545 209.098 100.584 209 100.584Z" fill="#D1D3D4"/>
<path d="M192.193 104.742H104.251C104.154 104.742 104.061 104.703 103.992 104.635C103.923 104.566 103.885 104.473 103.885 104.375C103.885 104.278 103.923 104.185 103.992 104.116C104.061 104.047 104.154 104.009 104.251 104.009H192.193C192.29 104.009 192.383 104.047 192.452 104.116C192.521 104.185 192.559 104.278 192.559 104.375C192.559 104.473 192.521 104.566 192.452 104.635C192.383 104.703 192.29 104.742 192.193 104.742Z" fill="#D1D3D4"/>
<path d="M153.127 137.038C152.513 137.045 151.904 136.924 151.339 136.681C150.774 136.439 150.267 136.081 149.849 135.63C149.424 135.166 149.1 134.619 148.898 134.023C148.696 133.427 148.62 132.795 148.676 132.169C148.789 130.876 149.376 129.67 150.323 128.782C151.27 127.894 152.511 127.387 153.809 127.358C154.423 127.35 155.032 127.47 155.596 127.711C156.161 127.953 156.669 128.309 157.087 128.759C157.512 129.223 157.836 129.77 158.038 130.366C158.24 130.962 158.316 131.593 158.26 132.22C158.147 133.514 157.561 134.721 156.614 135.609C155.667 136.498 154.426 137.007 153.127 137.038ZM153.816 128.091C152.704 128.118 151.64 128.553 150.828 129.315C150.016 130.077 149.514 131.111 149.416 132.22C149.364 132.75 149.424 133.285 149.592 133.791C149.76 134.296 150.032 134.76 150.392 135.153C150.741 135.53 151.166 135.829 151.638 136.032C152.111 136.234 152.621 136.334 153.134 136.327C154.248 136.3 155.313 135.863 156.125 135.1C156.937 134.337 157.439 133.301 157.534 132.191C157.586 131.661 157.526 131.126 157.358 130.621C157.19 130.115 156.918 129.651 156.559 129.257C156.209 128.882 155.784 128.584 155.312 128.383C154.839 128.182 154.33 128.083 153.816 128.091Z" fill="#D1D3D4"/>
<path d="M182.13 140.265C182.13 140.265 179.387 155.665 176.168 161.531C174.291 164.927 168.585 166.21 165.065 167.801C162.968 168.74 163.173 171.351 163.173 171.351H181.133L184.931 140.294L182.13 140.265Z" fill="#231F20"/>
<path d="M181.133 171.688H163.174C163.081 171.688 162.992 171.654 162.924 171.591C162.856 171.529 162.814 171.443 162.807 171.351C162.807 171.233 162.609 168.469 164.912 167.435C165.77 167.053 166.73 166.701 167.757 166.305C170.91 165.125 174.482 163.79 175.824 161.326C178.977 155.606 181.69 140.353 181.749 140.199C181.764 140.115 181.809 140.038 181.874 139.983C181.94 139.929 182.023 139.898 182.108 139.898H184.91C184.962 139.898 185.015 139.908 185.063 139.93C185.111 139.951 185.154 139.983 185.188 140.023C185.222 140.062 185.247 140.107 185.262 140.157C185.277 140.206 185.282 140.258 185.276 140.309L181.478 171.365C181.467 171.451 181.427 171.531 181.364 171.59C181.301 171.649 181.219 171.683 181.133 171.688ZM163.533 170.955H180.803L184.514 140.631H182.431C182.013 142.875 179.498 156.237 176.476 161.678C175.01 164.377 171.277 165.77 168.006 166.995C166.994 167.369 166.041 167.728 165.205 168.102C164.69 168.377 164.261 168.789 163.966 169.292C163.671 169.796 163.521 170.371 163.533 170.955Z" fill="#231F20"/>
<path d="M106.708 107.492C108.714 106.983 110.791 106.812 112.853 106.986C116.241 107.272 117.891 105.358 117.987 103.855C118.082 102.351 115.053 100.679 112.853 100.753C110.653 100.826 105.197 103.51 105.197 103.51L106.708 107.492Z" fill="white"/>
<path d="M106.708 107.859C106.633 107.86 106.56 107.838 106.498 107.796C106.436 107.754 106.389 107.694 106.363 107.624L104.896 103.635C104.861 103.551 104.86 103.457 104.893 103.372C104.926 103.287 104.99 103.218 105.072 103.18C105.3 103.07 110.616 100.467 112.875 100.386C114.632 100.397 116.322 101.064 117.612 102.256C117.84 102.459 118.022 102.708 118.149 102.986C118.275 103.263 118.342 103.564 118.346 103.869C118.311 104.316 118.186 104.752 117.978 105.149C117.77 105.546 117.483 105.896 117.136 106.179C116.539 106.663 115.848 107.017 115.107 107.219C114.366 107.421 113.591 107.466 112.831 107.353C110.816 107.189 108.787 107.355 106.825 107.844C106.788 107.858 106.747 107.863 106.708 107.859ZM105.659 103.693L106.935 107.052C108.884 106.606 110.889 106.46 112.882 106.619C113.544 106.722 114.219 106.687 114.867 106.517C115.514 106.347 116.119 106.044 116.644 105.629C116.914 105.408 117.137 105.135 117.301 104.826C117.465 104.518 117.565 104.18 117.598 103.833C117.562 103.421 117.368 103.039 117.055 102.769C115.905 101.726 114.413 101.139 112.86 101.119C111.049 101.2 106.825 103.136 105.659 103.693Z" fill="#231F20"/>
<path d="M87.8895 81.5247C87.8895 81.5247 92.9568 101.765 94.4455 102.351C95.9341 102.938 107.924 101.281 107.924 101.281L107.191 108.438C107.191 108.438 93.7268 114.349 89.3488 111.049C84.9708 107.749 73.1055 92.0627 73.1055 92.0627L87.8895 81.5247Z" fill="#FF6C22"/>
<path d="M110.762 106.333L117.376 109.78L124.306 96.2207L117.692 92.774L110.762 106.333Z" fill="#231F20"/>
<path d="M117.378 110.147C117.322 110.157 117.265 110.157 117.209 110.147L110.609 106.693C110.566 106.671 110.528 106.641 110.497 106.604C110.466 106.568 110.443 106.525 110.429 106.48C110.414 106.434 110.409 106.386 110.414 106.338C110.418 106.29 110.432 106.244 110.455 106.201L117.334 92.6053C117.356 92.5616 117.387 92.5228 117.425 92.4913C117.463 92.4598 117.507 92.4362 117.554 92.422C117.643 92.3861 117.743 92.3861 117.833 92.422L124.433 95.8687C124.518 95.914 124.582 95.9904 124.612 96.082C124.642 96.1735 124.635 96.2731 124.594 96.36L117.664 109.919C117.62 110.006 117.543 110.072 117.451 110.103C117.429 110.121 117.404 110.136 117.378 110.147ZM111.255 106.179L117.224 109.289L123.824 96.382L117.862 93.2727L111.255 106.179Z" fill="#231F20"/>
<path d="M116.381 96.536L141.373 47.6227L146.448 50.2627" fill="#231F20"/>
<path d="M116.38 96.9027C116.323 96.9018 116.268 96.8866 116.219 96.8587C116.175 96.8377 116.136 96.8081 116.105 96.7718C116.073 96.7355 116.049 96.6931 116.034 96.6473C116.019 96.6014 116.013 96.553 116.017 96.5049C116.021 96.4568 116.035 96.41 116.057 96.3673L141.049 47.454C141.07 47.4105 141.1 47.3718 141.136 47.3402C141.173 47.3087 141.216 47.285 141.262 47.2707C141.351 47.234 141.451 47.234 141.541 47.2707L146.615 49.918C146.7 49.9632 146.764 50.0401 146.793 50.1321C146.822 50.224 146.813 50.3236 146.769 50.4093C146.748 50.4522 146.718 50.4902 146.681 50.5212C146.644 50.5523 146.602 50.5757 146.556 50.59C146.51 50.6044 146.462 50.6094 146.414 50.6048C146.366 50.6002 146.32 50.5861 146.278 50.5633L141.533 48.114L116.71 96.7047C116.679 96.765 116.631 96.8155 116.573 96.8504C116.515 96.8854 116.448 96.9035 116.38 96.9027Z" fill="#231F20"/>
<path d="M153.842 84.4978C160.532 70.8851 157.047 55.4724 146.058 50.0726C135.07 44.6728 120.739 51.3307 114.05 64.9434C107.36 78.5562 110.845 93.9689 121.834 99.3687C132.822 104.768 147.153 98.1105 153.842 84.4978Z" fill="#231F20"/>
<path d="M130.036 101.603C126.993 101.62 123.991 100.9 121.287 99.506C110.287 93.764 106.987 77.968 113.954 64.306C117.789 56.7893 124.081 51.172 131.216 48.906C133.723 48.047 136.377 47.6967 139.021 47.8755C141.665 48.0543 144.247 48.7586 146.616 49.9473C157.616 55.6893 160.916 71.478 153.95 85.1473C150.107 92.664 143.815 98.274 136.687 100.547C134.537 101.24 132.294 101.596 130.036 101.603ZM137.868 48.576C135.689 48.584 133.525 48.9278 131.451 49.5953C124.506 51.7953 118.376 57.2953 114.621 64.636C107.823 77.946 110.954 93.2947 121.624 98.8533C123.907 99.9935 126.393 100.669 128.938 100.84C131.484 101.011 134.038 100.675 136.452 99.8507C143.397 97.6507 149.528 92.1507 153.319 84.8027C160.117 71.5 156.986 56.144 146.316 50.5853C143.703 49.2435 140.804 48.5541 137.868 48.576Z" fill="#231F20"/>
<path d="M148.774 81.8599C155.463 68.2472 151.978 52.8345 140.99 47.4347C130.002 42.0349 115.671 48.6928 108.981 62.3056C102.292 75.9183 105.777 91.331 116.765 96.7308C127.754 102.131 142.084 95.4727 148.774 81.8599Z" fill="white"/>
<path d="M124.967 99C121.921 99.0184 118.916 98.2961 116.211 96.8954C105.211 91.1534 101.911 75.3647 108.877 61.6953C112.72 54.1787 119.012 48.5687 126.14 46.2953C128.648 45.438 131.301 45.0885 133.945 45.2673C136.589 45.4461 139.171 46.1495 141.54 47.3367C152.54 53.0787 155.84 68.8747 148.873 82.5367C145.038 90.0533 138.746 95.6707 131.611 97.9367C129.465 98.6344 127.223 98.9932 124.967 99ZM109.567 62.0327C102.769 75.3353 105.9 90.6913 116.577 96.25C118.858 97.3907 121.344 98.0658 123.888 98.2358C126.433 98.4057 128.986 98.0672 131.398 97.24C138.343 95.04 144.481 89.54 148.228 82.1993C155.026 68.8893 151.895 53.5407 141.225 47.982C138.944 46.8307 136.457 46.145 133.909 45.965C131.36 45.7849 128.802 46.1141 126.382 46.9333C119.437 49.1333 113.299 54.6333 109.515 61.9813L109.567 62.0327Z" fill="#231F20"/>
<path d="M144.622 79.8191C149.916 69.0452 147.159 56.8476 138.465 52.5749C129.77 48.3022 118.43 53.5725 113.135 64.3464C107.841 75.1202 110.597 87.3179 119.292 91.5905C127.987 95.8632 139.327 90.593 144.622 79.8191Z" fill="white"/>
<path d="M125.781 93.4267C123.36 93.4421 120.972 92.8683 118.822 91.7547C110.066 87.1933 107.455 74.6533 112.999 63.8C116.042 57.8307 121.066 53.3793 126.698 51.568C128.691 50.8878 130.799 50.6108 132.901 50.7531C135.002 50.8953 137.054 51.454 138.937 52.3967C147.693 56.958 150.304 69.5053 144.76 80.3513C141.709 86.3207 136.693 90.7793 131.054 92.5833C129.351 93.1363 127.572 93.4208 125.781 93.4267ZM132 51.4433C130.274 51.4554 128.56 51.7324 126.918 52.2647C121.447 54.0173 116.6 58.344 113.666 64.1373C108.306 74.624 110.777 86.724 119.174 91.1093C120.967 92.0179 122.926 92.555 124.932 92.6886C126.938 92.8222 128.95 92.5494 130.848 91.8867C136.326 90.1413 141.159 85.8147 144.122 80.0213C149.482 69.5273 147.011 57.4273 138.607 53.0493C136.569 51.9811 134.3 51.4296 132 51.4433Z" fill="#231F20"/>
<path d="M113.323 63.9687C107.867 74.6607 110.389 86.9513 118.991 91.432C119.546 91.7152 120.119 91.9602 120.707 92.1653C113.418 87.032 111.541 75.6653 116.645 65.6773C121.749 55.6893 132.045 50.6367 140.368 53.6727C139.856 53.3108 139.319 52.9849 138.762 52.6973C130.175 48.246 118.801 53.2767 113.323 63.9687Z" fill="#231F20"/>
<path d="M120.707 92.554C120.666 92.5616 120.623 92.5616 120.582 92.554C119.975 92.3369 119.385 92.0771 118.815 91.7767C110.066 87.2153 107.455 74.6753 112.999 63.822C116.05 57.8527 121.066 53.394 126.705 51.59C128.696 50.9098 130.802 50.6328 132.901 50.7751C135 50.9174 137.049 51.4761 138.93 52.4187C139.504 52.7128 140.055 53.0486 140.58 53.4233C140.652 53.4751 140.703 53.5511 140.723 53.6374C140.743 53.7237 140.732 53.8144 140.69 53.8927C140.649 53.9708 140.581 54.0311 140.499 54.0622C140.416 54.0933 140.325 54.093 140.243 54.0613C131.956 51.0473 121.953 56.1293 116.967 65.89C111.98 75.6507 113.674 86.834 120.912 91.9087C120.987 91.9583 121.04 92.0338 121.062 92.1206C121.083 92.2074 121.072 92.2992 121.029 92.378C120.996 92.4331 120.948 92.4785 120.892 92.5094C120.835 92.5403 120.771 92.5557 120.707 92.554ZM132 51.4433C130.274 51.4525 128.559 51.7296 126.918 52.2647C121.447 54.0173 116.6 58.344 113.667 64.1373C108.489 74.272 110.616 85.9027 118.331 90.6327C112.677 84.766 111.731 74.5653 116.329 65.5307C120.927 56.496 129.756 51.3333 137.742 52.6387C135.932 51.8449 133.976 51.4378 132 51.4433Z" fill="#231F20"/>
<path d="M91.3883 148.185L94.835 149.989C95.2389 150.199 95.6804 150.326 96.134 150.364C96.5876 150.402 97.0442 150.35 97.4773 150.21C97.9105 150.07 98.3116 149.845 98.6574 149.549C99.0031 149.253 99.2867 148.892 99.4916 148.485L118.368 111.54C118.788 110.721 118.87 109.769 118.596 108.89C118.322 108.01 117.713 107.274 116.901 106.839L113.447 105.043C113.046 104.832 112.607 104.702 112.155 104.662C111.704 104.621 111.249 104.671 110.817 104.807C110.384 104.943 109.983 105.164 109.637 105.456C109.29 105.748 109.005 106.106 108.798 106.509L89.9217 143.455C89.4899 144.277 89.4018 145.236 89.6768 146.123C89.9518 147.01 90.5673 147.751 91.3883 148.185Z" fill="white"/>
<path d="M96.4178 150.744C95.8073 150.743 95.2061 150.594 94.6652 150.311L91.2185 148.515C90.3177 148.038 89.6404 147.227 89.333 146.255C89.0257 145.284 89.1129 144.23 89.5758 143.323L108.445 106.37C108.673 105.924 108.986 105.527 109.368 105.203C109.749 104.878 110.191 104.632 110.668 104.478C111.145 104.324 111.647 104.265 112.146 104.306C112.646 104.346 113.132 104.484 113.578 104.713L117.025 106.517C117.927 106.991 118.605 107.803 118.913 108.775C119.22 109.747 119.132 110.801 118.667 111.709L99.7985 148.654C99.5692 149.104 99.2528 149.505 98.8676 149.832C98.4824 150.159 98.0361 150.407 97.5545 150.561C97.1875 150.681 96.804 150.742 96.4178 150.744ZM91.5558 147.862L95.0098 149.659C95.3698 149.847 95.7635 149.961 96.1681 149.995C96.5728 150.03 96.9802 149.983 97.3665 149.858C97.7529 149.733 98.1105 149.532 98.4186 149.268C98.7266 149.003 98.9788 148.68 99.1605 148.317L118.066 111.371C118.443 110.636 118.516 109.782 118.267 108.994C118.019 108.206 117.469 107.548 116.739 107.162L113.284 105.365C112.928 105.177 112.537 105.061 112.136 105.026C111.734 104.991 111.329 105.036 110.945 105.16C110.555 105.286 110.194 105.487 109.882 105.753C109.57 106.018 109.313 106.343 109.127 106.707L90.1992 143.653C89.8218 144.388 89.7495 145.242 89.998 146.03C90.2465 146.818 90.7957 147.476 91.5265 147.862H91.5558Z" fill="#231F20"/>
<path d="M119.643 73.9273C119.314 73.8001 118.999 73.6378 118.704 73.4433C118.419 73.2586 118.156 73.0421 117.92 72.798C117.692 72.5753 117.488 72.3295 117.311 72.0647C117.139 71.7994 117.001 71.5136 116.9 71.214L119.716 69.7987C119.8 70.1351 119.95 70.4517 120.156 70.73C120.374 71.029 120.671 71.2603 121.014 71.3973C121.166 71.4555 121.329 71.4781 121.491 71.4633C121.572 71.4576 121.651 71.4301 121.718 71.3836C121.785 71.3372 121.838 71.2735 121.872 71.1993C121.916 71.1241 121.935 71.0365 121.924 70.95C121.905 70.8485 121.862 70.7529 121.799 70.6713C121.701 70.5299 121.588 70.3996 121.462 70.2827C121.315 70.1287 121.124 69.9453 120.89 69.7253C120.668 69.5149 120.467 69.2841 120.288 69.036C120.108 68.7979 119.972 68.5297 119.885 68.244C119.803 67.9383 119.781 67.6196 119.819 67.3053C119.881 66.908 120.016 66.5253 120.215 66.176C120.484 65.6485 120.864 65.1856 121.33 64.8193C121.733 64.5091 122.19 64.2778 122.679 64.1373C123.142 64.0088 123.624 63.9665 124.102 64.0127C124.556 64.053 125.002 64.1542 125.429 64.3133C125.984 64.5366 126.484 64.8768 126.896 65.3107C127.332 65.7635 127.654 66.3142 127.834 66.9167L125.04 68.2C125.003 67.8826 124.876 67.5824 124.674 67.3347C124.51 67.1199 124.293 66.9528 124.043 66.8507C123.872 66.7766 123.686 66.7439 123.5 66.7553C123.424 66.7633 123.352 66.7904 123.289 66.834C123.226 66.8776 123.175 66.9363 123.141 67.0047C123.098 67.0618 123.075 67.1313 123.075 67.2027C123.075 67.2741 123.098 67.3436 123.141 67.4007C123.288 67.5806 123.45 67.7474 123.625 67.8993C123.867 68.1193 124.109 68.3613 124.358 68.6327C124.608 68.898 124.815 69.1997 124.974 69.5273C125.131 69.8679 125.213 70.2379 125.216 70.6127C125.198 71.0747 125.067 71.5252 124.835 71.9253C124.564 72.4432 124.193 72.9019 123.742 73.2747C123.342 73.6014 122.885 73.8501 122.393 74.008C121.932 74.1607 121.448 74.2279 120.963 74.206C120.511 74.1833 120.066 74.0893 119.643 73.9273Z" fill="#FF6C22"/>
<path d="M129.324 66.0953L135.036 68.2953L133.628 70.8987L130.534 69.7107L130.101 70.51L132.998 71.6247L131.7 74.0667L128.766 72.9447L128.297 73.8173L131.582 75.0787L130.174 77.682L124.264 75.4087L129.324 66.0953Z" fill="#FF6C22"/>
<path d="M133.541 73.2747C133.916 72.5655 134.412 71.9276 135.008 71.39C135.533 70.9003 136.141 70.508 136.804 70.2313C138.08 69.7012 139.512 69.6828 140.801 70.18C141.42 70.4077 141.982 70.7652 142.451 71.2287C142.881 71.6578 143.203 72.1832 143.39 72.7613C143.581 73.3779 143.631 74.0295 143.536 74.668C143.423 75.4249 143.175 76.1552 142.803 76.824C142.422 77.5334 141.926 78.1751 141.336 78.7233C140.805 79.2286 140.186 79.6335 139.51 79.9187C138.875 80.1941 138.193 80.3459 137.501 80.366C136.812 80.381 136.127 80.2614 135.484 80.014C134.866 79.7864 134.305 79.4259 133.842 78.958C133.416 78.515 133.102 77.9771 132.925 77.3887C132.748 76.7567 132.708 76.0941 132.808 75.4453C132.918 74.6832 133.167 73.9477 133.541 73.2747ZM136.474 74.4113C136.323 74.6902 136.212 74.9889 136.144 75.2987C136.096 75.5605 136.096 75.8289 136.144 76.0907C136.187 76.3223 136.288 76.5393 136.438 76.7214C136.592 76.9013 136.788 77.04 137.01 77.1247C137.244 77.211 137.494 77.2436 137.743 77.22C138 77.1936 138.249 77.1163 138.476 76.9927C138.748 76.8608 138.996 76.6848 139.21 76.472C139.435 76.2353 139.628 75.9688 139.782 75.68C139.933 75.4075 140.042 75.1131 140.104 74.8074C140.155 74.5656 140.155 74.3158 140.104 74.074C140.053 73.8512 139.947 73.6447 139.796 73.4727C139.644 73.2927 139.446 73.1561 139.224 73.0767C138.99 72.9886 138.74 72.9511 138.491 72.9667C138.237 72.9897 137.989 73.0567 137.758 73.1647C137.506 73.2939 137.278 73.465 137.083 73.6707C136.855 73.8881 136.66 74.1376 136.504 74.4113H136.474Z" fill="#FF6C22"/>
<path d="M122.379 87.9413C122.282 87.9569 122.183 87.9332 122.103 87.8754C122.023 87.8177 121.969 87.7306 121.954 87.6333C121.938 87.5361 121.962 87.4366 122.02 87.3569C122.078 87.2771 122.165 87.2236 122.262 87.208L134.919 83.1013C135.016 83.0712 135.122 83.0809 135.212 83.1283C135.302 83.1758 135.369 83.2571 135.4 83.3543C135.43 83.4516 135.42 83.5568 135.373 83.6469C135.325 83.737 135.244 83.8045 135.147 83.8347L122.467 87.9267C122.439 87.9361 122.409 87.9411 122.379 87.9413Z" fill="#D1D3D4"/>
<path d="M127.211 61.1453C127.131 61.1429 127.054 61.1143 126.991 61.064C126.929 61.0137 126.885 60.9444 126.866 60.8667C126.853 60.8209 126.848 60.773 126.854 60.7256C126.859 60.6783 126.874 60.6324 126.897 60.5908C126.92 60.5492 126.951 60.5126 126.989 60.4831C127.026 60.4537 127.069 60.432 127.115 60.4193C131.691 59.1433 138.651 57.178 139.083 56.98C139.169 56.9518 139.261 56.9558 139.344 56.9914C139.426 57.027 139.493 57.0916 139.531 57.173C139.569 57.2545 139.576 57.347 139.55 57.4331C139.524 57.5191 139.468 57.5928 139.391 57.64C138.797 57.9187 128.487 60.7933 127.313 61.1233L127.211 61.1453Z" fill="#D1D3D4"/>
<path d="M118.544 79.7647C118.469 79.7662 118.396 79.7445 118.334 79.7024C118.272 79.6604 118.225 79.6001 118.199 79.53C118.181 79.4848 118.173 79.4365 118.174 79.3879C118.175 79.3394 118.186 79.2915 118.206 79.2472C118.225 79.2029 118.254 79.1629 118.289 79.1296C118.325 79.0963 118.366 79.0704 118.412 79.0533L124.168 76.8533C124.214 76.8365 124.262 76.8287 124.31 76.8304C124.358 76.8322 124.406 76.8434 124.45 76.8635C124.494 76.8836 124.533 76.9122 124.566 76.9475C124.599 76.9829 124.624 77.0244 124.641 77.0697C124.658 77.1149 124.666 77.1631 124.664 77.2113C124.662 77.2596 124.651 77.307 124.631 77.351C124.611 77.3949 124.582 77.4344 124.547 77.4673C124.512 77.5002 124.47 77.5258 124.425 77.5426L118.668 79.7427C118.628 79.757 118.586 79.7645 118.544 79.7647Z" fill="#D1D3D4"/>
<path d="M138.146 69.0287C138.067 69.0287 137.989 69.0029 137.926 68.9553C137.862 68.9077 137.816 68.8408 137.794 68.7647C137.779 68.7184 137.774 68.6698 137.779 68.6216C137.784 68.5734 137.798 68.5266 137.822 68.4842C137.845 68.4417 137.877 68.4044 137.915 68.3745C137.953 68.3445 137.996 68.3226 138.043 68.31L144.643 66.396C144.737 66.3707 144.836 66.3826 144.921 66.4291C145.006 66.4756 145.069 66.5531 145.098 66.6453C145.112 66.6915 145.117 66.7402 145.113 66.7884C145.108 66.8366 145.093 66.8833 145.07 66.9258C145.047 66.9683 145.015 67.0056 144.977 67.0355C144.939 67.0655 144.895 67.0874 144.849 67.1L138.249 69.014L138.146 69.0287Z" fill="#D1D3D4"/>
<path d="M51.8907 177.789C51.8907 177.789 50.27 180.305 50.556 180.495C50.842 180.686 58.4907 183.685 57.8893 184.558C57.288 185.431 46.156 185.035 41.25 183.297L44.022 175.472" fill="white"/>
<path d="M54.2236 185.372C50.1536 185.372 44.0743 184.683 41.1556 183.641C41.1106 183.626 41.0692 183.601 41.0337 183.57C40.9982 183.538 40.9694 183.499 40.949 183.456C40.9285 183.413 40.9168 183.367 40.9145 183.319C40.9122 183.272 40.9194 183.224 40.9356 183.179L43.7076 175.355C43.7408 175.263 43.8085 175.188 43.8961 175.146C43.9838 175.103 44.0845 175.097 44.1769 175.127C44.2683 175.16 44.3428 175.228 44.3841 175.316C44.4253 175.404 44.43 175.505 44.3969 175.597L41.7496 183.069C46.6409 184.668 56.1523 184.895 57.5163 184.382C57.0983 183.876 55.0229 182.827 51.3489 181.251C51.0089 181.119 50.676 180.97 50.3516 180.803C50.0876 180.627 49.7649 180.407 51.5836 177.591C51.6347 177.514 51.7124 177.459 51.8017 177.436C51.8911 177.413 51.9858 177.424 52.0676 177.467C52.109 177.493 52.1448 177.527 52.1728 177.567C52.2008 177.607 52.2205 177.652 52.2308 177.7C52.241 177.748 52.2416 177.797 52.2325 177.845C52.2234 177.893 52.2047 177.939 52.1776 177.98C51.6913 178.702 51.2646 179.462 50.9016 180.253L51.6349 180.561C56.2696 182.549 58.0736 183.546 58.2863 184.228C58.3127 184.307 58.3204 184.391 58.309 184.474C58.2975 184.557 58.2672 184.636 58.2203 184.705C57.9343 185.181 56.3576 185.372 54.2236 185.372Z" fill="#231F20"/>
<path d="M78.5918 177.987L80.4105 184.749C80.4105 184.749 90.4498 185.812 96.7638 184.749C96.7638 181.243 91.3078 180.884 87.6778 180.209L85.5731 176.924L78.5918 177.987Z" fill="white"/>
<path d="M89.7311 185.585C84.8984 185.585 80.4397 185.123 80.3737 185.115C80.2999 185.107 80.2302 185.077 80.1739 185.029C80.1176 184.98 80.0773 184.916 80.0584 184.844L78.2397 178.083C78.2247 178.032 78.2208 177.979 78.2284 177.927C78.236 177.875 78.2549 177.826 78.2837 177.782C78.347 177.699 78.4382 177.642 78.5404 177.621L85.5144 176.557C85.5853 176.546 85.6579 176.557 85.723 176.587C85.7882 176.617 85.8432 176.665 85.8811 176.726L87.8977 179.879L89.2471 180.107C92.7597 180.679 97.1304 181.397 97.1304 184.749C97.1298 184.835 97.0985 184.919 97.0421 184.985C96.9858 185.05 96.9079 185.094 96.8224 185.108C94.4752 185.457 92.1038 185.616 89.7311 185.585ZM80.6671 184.404C82.2291 184.558 90.6991 185.306 96.3457 184.404C96.0671 181.933 92.3711 181.331 89.1004 180.789C88.5724 180.708 88.0591 180.62 87.5824 180.532C87.4836 180.512 87.3966 180.454 87.3404 180.371L85.3604 177.283L79.0244 178.251L80.6671 184.404Z" fill="#231F20"/>
<path d="M47.6659 111.049C47.6659 111.049 45.6126 122.151 47.2112 131.428C48.8099 140.705 54.9479 147.459 52.8506 153.267C50.7532 159.075 42.2539 176.689 42.2539 176.689L52.1979 179.007C52.1979 179.007 66.8059 160.395 67.5979 155.093C68.3899 149.791 62.8166 133.291 62.8166 133.291L47.6659 111.049Z" fill="#231F20"/>
<path d="M52.1996 179.366H52.1189L42.1749 177.049C42.1221 177.034 42.0728 177.009 42.0299 176.975C41.987 176.941 41.9515 176.899 41.9256 176.851C41.9038 176.8 41.8926 176.745 41.8926 176.689C41.8926 176.634 41.9038 176.579 41.9256 176.528C42.0136 176.352 50.4323 158.855 52.5076 153.142C53.6809 149.893 52.1263 146.219 50.3076 141.973C48.7494 138.627 47.5878 135.11 46.8463 131.494C45.2549 122.261 47.2789 111.1 47.3009 110.961C47.314 110.889 47.3482 110.823 47.3991 110.77C47.4501 110.718 47.5155 110.682 47.5869 110.667C47.6586 110.653 47.7329 110.66 47.8007 110.687C47.8684 110.715 47.9267 110.761 47.9683 110.821L63.0676 133.078C63.0866 133.108 63.1014 133.14 63.1116 133.173C63.3389 133.848 68.6776 149.805 67.9076 155.173C67.1376 160.541 53.0869 178.464 52.4929 179.227C52.4577 179.27 52.413 179.306 52.3622 179.33C52.3114 179.354 52.2558 179.366 52.1996 179.366ZM42.7836 176.433L52.0676 178.589C53.5783 176.645 66.5143 159.903 67.2183 155.034C67.9516 150.011 62.8183 134.435 62.4663 133.452L47.8949 112.017C47.4549 114.833 46.2816 123.75 47.5943 131.362C48.3264 134.922 49.4708 138.385 51.0043 141.68C52.8596 146.08 54.4729 149.864 53.2043 153.413C51.2903 158.635 44.0743 173.734 42.7836 176.425V176.433Z" fill="#231F20"/>
<path d="M75.2249 118.287C75.2249 118.287 81.3629 146.887 82.7049 153.259C84.0469 159.632 87.9335 178.999 87.9335 178.999H77.5422C77.5422 178.999 69.0575 155.188 65.6109 151.866C62.1642 148.544 54.7795 134.999 51.5309 127.607C48.2822 120.215 50.0055 111.012 50.0055 111.012L75.2249 118.287Z" fill="#231F20"/>
<path d="M87.9342 179.366H77.5428C77.4675 179.366 77.394 179.343 77.3323 179.299C77.2706 179.256 77.2238 179.195 77.1982 179.124C77.1102 178.889 68.6988 155.357 65.3622 152.167C61.8862 148.852 54.4868 135.3 51.1942 127.791C47.9015 120.281 49.6248 111.078 49.6395 110.983C49.6489 110.933 49.6688 110.885 49.6978 110.844C49.7269 110.802 49.7645 110.767 49.8082 110.741C49.8509 110.712 49.8993 110.694 49.95 110.686C50.0006 110.679 50.0523 110.682 50.1015 110.697L75.3208 117.935C75.3859 117.953 75.4448 117.988 75.4913 118.038C75.5378 118.087 75.5701 118.147 75.5848 118.213C75.6435 118.499 81.7375 146.879 83.0648 153.179C84.3922 159.478 88.2568 178.735 88.2935 178.926C88.3036 178.98 88.3022 179.035 88.2896 179.088C88.277 179.141 88.2533 179.191 88.2202 179.234C88.1843 179.275 88.1404 179.308 88.0911 179.33C88.0419 179.353 87.9884 179.365 87.9342 179.366ZM77.7995 178.633H87.4868C86.9002 175.699 83.5562 159.097 82.3535 153.333C81.0922 147.319 75.4895 121.227 74.9175 118.58L50.3068 111.518C50.0282 113.351 49.0895 121.132 51.8762 127.497C55.1468 134.955 62.4582 148.383 65.8755 151.639C69.2928 154.895 76.8462 176 77.7995 178.633Z" fill="#231F20"/>
<path d="M82.8006 71.654C82.0673 71.3533 81.3339 70.9207 80.4686 70.554C79.6033 70.1873 78.7159 69.498 79.0019 68.662C79.2366 67.9287 80.2926 67.65 80.3439 66.8947C80.3444 66.6868 80.3072 66.4806 80.2339 66.286C79.6208 64.267 79.791 62.0911 80.7106 60.192C81.6468 58.3129 83.2653 56.8623 85.2353 56.1367C84.9786 56.1367 84.8099 55.814 84.8759 55.5573C84.9607 55.3068 85.1395 55.0991 85.3746 54.978C86.2265 54.5142 87.1939 54.3055 88.1613 54.3767C91.265 54.5034 94.257 55.5698 96.7413 57.4347C98.6699 58.828 100.643 61.468 99.4473 63.9833C99.2476 64.4437 98.8966 64.8219 98.4524 65.0553C98.0083 65.2887 97.4976 65.3633 97.0053 65.2667C95.5386 67.892 93.4339 69.2927 90.9039 70.6713C89.1956 71.6192 87.2769 72.1235 85.3233 72.138C84.4585 72.1471 83.6006 71.9826 82.8006 71.654Z" fill="white"/>
<path d="M85.331 72.5267C84.4172 72.531 83.5119 72.3514 82.669 71.9987C82.2216 71.8153 81.789 71.6027 81.3343 71.3753C81.0116 71.214 80.6816 71.0527 80.3223 70.8913C78.995 70.2827 78.3643 69.4247 78.643 68.5447C78.8098 68.1535 79.0813 67.816 79.4276 67.5693C79.7136 67.3273 79.9556 67.122 79.9703 66.836C79.9718 66.6903 79.9444 66.5457 79.8896 66.4107C79.2312 64.2896 79.4069 61.9972 80.381 60.0013C81.2639 58.2185 82.7389 56.7979 84.5536 55.9827C84.4843 55.8104 84.469 55.6212 84.5096 55.44C84.5608 55.2695 84.6455 55.1109 84.7589 54.9736C84.8722 54.8364 85.0119 54.7231 85.1696 54.6407C86.0829 54.1378 87.1216 53.9087 88.1616 53.9807C91.342 54.1154 94.4082 55.2039 96.9616 57.1047C99.235 58.7547 100.988 61.5633 99.7776 64.108C99.5587 64.5974 99.1939 65.0073 98.7332 65.2817C98.2725 65.556 97.7383 65.6814 97.2036 65.6407C95.6416 68.3173 93.3316 69.7327 91.0876 70.9573C89.331 71.9557 87.3512 72.4954 85.331 72.5267ZM87.9416 54.7433C87.1094 54.6941 86.2804 54.8823 85.551 55.286C85.4004 55.3633 85.2812 55.4902 85.2136 55.6453C85.1991 55.6881 85.1991 55.7345 85.2136 55.7773C85.2979 55.7766 85.3795 55.8068 85.443 55.8622C85.5065 55.9176 85.5475 55.9944 85.5583 56.078C85.5712 56.1639 85.5533 56.2515 85.5076 56.3254C85.4619 56.3992 85.3916 56.4545 85.309 56.4813C83.4278 57.1735 81.8826 58.5588 80.9896 60.3533C80.108 62.1668 79.9431 64.2462 80.5276 66.176C80.62 66.4092 80.6649 66.6585 80.6596 66.9093C80.6292 67.1513 80.549 67.3845 80.424 67.594C80.2991 67.8035 80.1321 67.9848 79.9336 68.1267C79.6947 68.2915 79.5006 68.5133 79.369 68.772C79.1416 69.5053 80.403 70.1067 80.6596 70.2387L81.6863 70.7373C82.1336 70.9573 82.5516 71.1627 82.977 71.3387C83.7311 71.6567 84.5418 71.8189 85.3603 71.8153C87.2537 71.7848 89.1092 71.2806 90.7576 70.3487C93.5223 68.882 95.385 67.496 96.7123 65.0833C96.7549 65.0106 96.8207 64.9543 96.8993 64.9237C96.9778 64.8931 97.0644 64.8899 97.145 64.9147C97.549 64.9746 97.9614 64.8974 98.3164 64.6953C98.6713 64.4932 98.9483 64.178 99.103 63.8C100.276 61.3287 98.025 58.806 96.5143 57.706C94.0862 55.892 91.1677 54.8518 88.1396 54.7213L87.9416 54.7433Z" fill="#231F20"/>
<path d="M96.3299 69.5933C96.3299 69.5933 97.1659 73.59 96.4765 74.074C95.7872 74.558 94.5332 73.5533 94.5332 73.5533" fill="white"/>
<path d="M96.0659 74.5727C95.4322 74.5015 94.8332 74.2466 94.3426 73.8394C94.267 73.7789 94.2184 73.6909 94.2075 73.5948C94.1965 73.4986 94.2239 73.402 94.2839 73.326C94.3468 73.2516 94.4357 73.204 94.5326 73.1931C94.6294 73.1822 94.7267 73.2088 94.8046 73.2674C95.1272 73.5314 95.9632 74.0007 96.2712 73.7733C96.5792 73.546 96.3812 71.5733 95.9779 69.6667C95.9585 69.5694 95.9784 69.4684 96.0334 69.3859C96.0884 69.3034 96.174 69.2461 96.2712 69.2267C96.3685 69.2072 96.4695 69.2272 96.552 69.2822C96.6345 69.3372 96.6918 69.4228 96.7112 69.52C97.0412 71.0967 97.4812 73.832 96.7112 74.3747C96.5205 74.5033 96.2959 74.5722 96.0659 74.5727Z" fill="#231F20"/>
<path d="M97.5327 65.2667C98.4274 66.88 97.1441 69.0287 96.5501 70.5173C95.7092 72.6147 94.8218 74.6924 93.8881 76.7507C93.2941 78.056 89.8694 76.7507 89.4221 76.0833L87.8967 81.5613L81.8027 75.9147L83.7974 71.676C83.7974 71.676 86.1074 72.6 88.5054 70.4C90.9034 68.2 93.0227 62.238 93.0227 62.238C93.0227 62.238 96.6527 63.6533 97.5327 65.2667Z" fill="white"/>
<path d="M87.8909 81.8913C87.7989 81.8913 87.7101 81.8574 87.6416 81.796L81.5476 76.142C81.4897 76.0895 81.4505 76.0196 81.436 75.9428C81.4214 75.8661 81.4323 75.7867 81.4669 75.7167L83.4616 71.478C83.5015 71.3932 83.5725 71.327 83.6597 71.2929C83.747 71.2588 83.844 71.2595 83.9309 71.2947C84.0116 71.2947 86.0796 72.116 88.2649 70.1287C90.5676 68.0313 92.6649 62.172 92.6649 62.1133C92.682 62.0665 92.7084 62.0235 92.7424 61.987C92.7764 61.9505 92.8174 61.9211 92.8629 61.9007C92.9079 61.8806 92.9566 61.8703 93.0059 61.8703C93.0552 61.8703 93.1039 61.8806 93.1489 61.9007C93.3029 61.9593 96.9036 63.3673 97.8349 65.0613C98.6636 66.528 97.8349 68.376 97.2116 69.828C97.0869 70.1067 96.9696 70.378 96.8669 70.6273C96.0309 72.7247 95.1289 74.822 94.1976 76.8753C94.0805 77.0999 93.9033 77.2874 93.6857 77.4169C93.4681 77.5464 93.2187 77.6128 92.9656 77.6087C91.7775 77.6121 90.6119 77.2846 89.5996 76.6627L88.2282 81.6053C88.2108 81.6664 88.178 81.722 88.1331 81.7669C88.0882 81.8118 88.0326 81.8445 87.9716 81.862C87.9469 81.877 87.9194 81.8869 87.8909 81.8913ZM82.2442 75.79L87.6929 80.85L89.0569 75.944C89.0784 75.8782 89.1169 75.8192 89.1683 75.7728C89.2198 75.7265 89.2825 75.6945 89.3502 75.68C89.4185 75.67 89.4882 75.6791 89.5516 75.7063C89.615 75.7335 89.6697 75.7777 89.7096 75.834C90.634 76.5207 91.7553 76.8911 92.9069 76.89C93.2491 76.8607 93.4618 76.7507 93.5449 76.56C94.4762 74.5213 95.3636 72.4313 96.1996 70.3487C96.3022 70.092 96.4269 69.8133 96.5516 69.5273C97.1382 68.2147 97.8569 66.594 97.2042 65.406C96.6102 64.328 94.3882 63.206 93.2369 62.722C92.7382 64.064 90.8756 68.7353 88.7562 70.6713C88.1459 71.2904 87.3884 71.7444 86.5547 71.9907C85.7209 72.237 84.8383 72.2675 83.9896 72.0793L82.2442 75.79Z" fill="#231F20"/>
<path d="M94.4461 75.1227C94.19 75.1781 93.925 75.1776 93.6692 75.1211C93.4134 75.0646 93.1728 74.9535 92.9639 74.7955C92.755 74.6374 92.5827 74.436 92.4588 74.2052C92.3349 73.9744 92.2623 73.7195 92.2461 73.458" fill="white"/>
<path d="M94.1019 75.5333C93.5937 75.5445 93.0952 75.3929 92.6792 75.1007C92.4402 74.9056 92.2449 74.6625 92.1059 74.3871C91.9669 74.1117 91.8874 73.8101 91.8726 73.502C91.8638 73.4047 91.8941 73.308 91.9566 73.233C92.0192 73.1581 92.109 73.1111 92.2062 73.1023C92.3035 73.0936 92.4002 73.1238 92.4752 73.1864C92.5501 73.249 92.5972 73.3387 92.6059 73.436C92.6121 73.6404 92.661 73.8412 92.7494 74.0256C92.8378 74.21 92.9638 74.3738 93.1192 74.5066C93.4924 74.7482 93.9411 74.8447 94.3806 74.778C94.4766 74.763 94.5748 74.786 94.6542 74.8421C94.7336 74.8982 94.788 74.9831 94.8059 75.0786C94.8231 75.1739 94.8018 75.2721 94.7469 75.3518C94.6919 75.4314 94.6077 75.4862 94.5126 75.504C94.3765 75.5226 94.2393 75.5324 94.1019 75.5333Z" fill="#231F20"/>
<path d="M91.8055 69.344C91.9593 68.7973 91.9593 68.2187 91.8055 67.672C91.74 67.2377 91.6115 66.8153 91.4242 66.418C91.3298 66.219 91.1918 66.0438 91.0204 65.9054C90.849 65.767 90.6487 65.669 90.4342 65.6187C90.2425 65.5942 90.0479 65.6111 89.8632 65.668C89.6786 65.7249 89.5082 65.8206 89.3635 65.9487C89.0756 66.2094 88.8479 66.5297 88.6962 66.8873C88.3525 67.6655 88.2178 68.5199 88.3052 69.3662C88.3927 70.2124 88.6993 71.0212 89.1949 71.7127L89.1289 71.544" fill="white"/>
<path d="M89.1806 72.0793C89.1226 72.0799 89.0652 72.067 89.013 72.0415C88.9608 72.016 88.9153 71.9788 88.88 71.9327C88.3512 71.1852 88.0241 70.314 87.9303 69.4032C87.8366 68.4925 87.9793 67.5729 88.3446 66.7333C88.5103 66.3284 88.7603 65.9634 89.078 65.6627C89.2641 65.5008 89.483 65.381 89.7196 65.3114C89.9563 65.2418 90.2052 65.2241 90.4493 65.2593C90.7181 65.3177 90.97 65.4366 91.186 65.6068C91.402 65.7771 91.5764 65.9943 91.696 66.242C91.9005 66.6715 92.0414 67.1285 92.114 67.5987C92.2904 68.212 92.2904 68.8627 92.114 69.476C92.073 69.5563 92.0038 69.6186 91.9198 69.6511C91.8357 69.6836 91.7427 69.6841 91.6583 69.6523C91.574 69.6206 91.5043 69.5589 91.4625 69.479C91.4208 69.3992 91.4099 69.3067 91.432 69.2193C91.5615 68.739 91.5615 68.233 91.432 67.7527C91.3728 67.352 91.2568 66.9619 91.0873 66.594C91.0168 66.446 90.9145 66.3154 90.7878 66.2115C90.661 66.1075 90.5129 66.0328 90.354 65.9927C90.2147 65.9756 90.0733 65.9884 89.9393 66.0301C89.8053 66.0718 89.6816 66.1415 89.5766 66.2347C89.3298 66.4619 89.1347 66.7395 89.0046 67.0487C88.7137 67.717 88.5872 68.4453 88.6357 69.1726C88.6842 69.8998 88.9063 70.6049 89.2833 71.2287C89.3215 71.2481 89.3555 71.275 89.3832 71.3078C89.4109 71.3405 89.4318 71.3784 89.4446 71.4193L89.5106 71.588C89.5433 71.6705 89.5449 71.762 89.5153 71.8456C89.4856 71.9292 89.4266 71.9992 89.3493 72.0427C89.2965 72.0674 89.2389 72.0799 89.1806 72.0793Z" fill="#231F20"/>
<path d="M96.652 67.8028C96.7912 67.3796 96.7699 66.9924 96.6045 66.938C96.4391 66.8836 96.1921 67.1826 96.0529 67.6057C95.9136 68.0289 95.9349 68.4161 96.1003 68.4706C96.2658 68.525 96.5127 68.226 96.652 67.8028Z" fill="#231F20"/>
<path d="M79.8379 76.5967L81.3559 74.514L90.3319 78.7233L89.9799 82.566C86.0635 81.6723 82.5203 79.5868 79.8379 76.5967Z" fill="#231F20"/>
<path d="M89.9805 82.9327H89.9218C85.9188 82.0407 82.2968 79.9142 79.5672 76.8534C79.5136 76.7869 79.4844 76.7041 79.4844 76.6187C79.4844 76.5333 79.5136 76.4505 79.5672 76.384L81.0925 74.3087C81.1413 74.2396 81.2129 74.19 81.2948 74.1685C81.3766 74.147 81.4634 74.1551 81.5398 74.1914L90.5158 78.3934C90.5835 78.4261 90.6395 78.4788 90.6762 78.5444C90.713 78.6099 90.7286 78.6852 90.7212 78.76L90.3765 82.6027C90.373 82.653 90.3587 82.7019 90.3347 82.7462C90.3107 82.7904 90.2774 82.829 90.2372 82.8594C90.1635 82.9145 90.0722 82.9406 89.9805 82.9327ZM80.3078 76.5674C82.8332 79.2686 86.0727 81.1986 89.6505 82.1334L89.9438 78.958L81.4738 74.9907L80.3078 76.5674Z" fill="#231F20"/>
<path d="M107.235 113.975C108.566 114.874 109.944 115.701 111.364 116.453C112.031 116.644 113.564 115.148 114.231 115.72C114.898 116.292 117.128 119.687 117.062 120.164C116.996 120.641 115.302 124.161 114.282 123.831C113.222 123.34 112.215 122.743 111.276 122.049L104.676 120.157" fill="white"/>
<path d="M114.401 124.219C114.311 124.219 114.222 124.204 114.137 124.175C113.055 123.689 112.03 123.087 111.079 122.379L104.523 120.509C104.426 120.482 104.343 120.419 104.293 120.331C104.243 120.244 104.229 120.14 104.255 120.043C104.282 119.946 104.345 119.863 104.433 119.813C104.52 119.763 104.624 119.749 104.721 119.775L111.321 121.667C111.363 121.677 111.403 121.694 111.438 121.719C112.354 122.396 113.337 122.979 114.372 123.457C114.451 123.459 114.529 123.433 114.592 123.383C115.442 122.87 116.608 120.487 116.674 120.091C115.961 118.606 115.051 117.225 113.968 115.984C113.763 115.808 113.147 116.123 112.7 116.358C112.276 116.668 111.756 116.816 111.233 116.776C109.77 116.023 108.357 115.178 107.002 114.246C106.931 114.189 106.883 114.107 106.869 114.017C106.855 113.926 106.876 113.834 106.926 113.758C106.976 113.682 107.054 113.627 107.142 113.605C107.231 113.583 107.324 113.594 107.405 113.637C108.701 114.526 110.048 115.339 111.438 116.072C111.766 116.008 112.08 115.884 112.362 115.705C113.096 115.346 113.829 114.928 114.445 115.419C115.061 115.911 117.496 119.482 117.378 120.193C117.312 120.67 116.08 123.31 114.966 123.999C114.802 124.125 114.606 124.201 114.401 124.219Z" fill="#231F20"/>
<path d="M92.8098 84.964C92.8098 84.964 92.6998 105.38 94.1444 105.571C95.5891 105.761 108.415 114.297 108.415 114.297L104.866 122.745C104.866 122.745 87.6178 117.766 84.0611 115.412C82.1764 114.151 81.6484 92.0847 81.6484 92.0847L92.8098 84.964Z" fill="#FF6C22"/>
<path d="M92.2385 83.6587C87.8898 79.4273 82.1845 72.6587 71.2798 77.0587C60.3752 81.4587 44.9238 113.197 44.9238 113.197L78.5912 120.699C78.5912 120.699 96.2938 87.604 92.2385 83.6587Z" fill="#FF6C22"/>
<path d="M83.3949 114.341C83.3038 114.34 83.2165 114.304 83.1501 114.242C83.0836 114.18 83.0428 114.095 83.0355 114.004C83.0355 113.879 81.8475 101.112 81.2975 92.0847C81.2917 91.9874 81.3247 91.8918 81.3894 91.819C81.454 91.7461 81.545 91.7018 81.6422 91.696C81.7394 91.6902 81.835 91.7232 81.9079 91.7878C81.9808 91.8525 82.025 91.9434 82.0309 92.0407C82.5809 101.053 83.7615 113.813 83.7689 113.938C83.7739 113.986 83.7694 114.035 83.7555 114.081C83.7416 114.128 83.7187 114.171 83.688 114.208C83.6573 114.246 83.6195 114.277 83.5767 114.3C83.534 114.323 83.4871 114.337 83.4389 114.341H83.3949Z" fill="#231F20"/>
<path d="M65.6107 152.269C65.5539 152.269 65.4979 152.255 65.4471 152.23C65.3963 152.204 65.3519 152.168 65.3174 152.123C65.1854 151.947 52.0734 134.464 49.7047 122.789C49.695 122.742 49.6948 122.694 49.704 122.646C49.7131 122.599 49.7315 122.554 49.7581 122.514C49.7846 122.474 49.8188 122.439 49.8587 122.412C49.8987 122.385 49.9435 122.366 49.9907 122.357C50.0858 122.339 50.184 122.359 50.2647 122.412C50.3453 122.466 50.4022 122.548 50.4234 122.643C52.7554 134.119 65.772 151.477 65.904 151.653C65.9624 151.731 65.9874 151.829 65.9737 151.925C65.9599 152.021 65.9085 152.108 65.8307 152.167C65.7722 152.226 65.694 152.263 65.6107 152.269Z" fill="white"/>
<path d="M104.654 112.493C104.595 112.493 104.538 112.48 104.485 112.457L92.0696 106.15C92.0069 106.118 91.9549 106.068 91.9198 106.007C91.8847 105.946 91.868 105.876 91.8716 105.805C91.8716 105.637 92.9716 89.3347 92.2162 85.4187C92.199 85.3225 92.22 85.2234 92.2748 85.1426C92.3296 85.0617 92.4139 85.0055 92.5096 84.986C92.6048 84.9688 92.703 84.9901 92.7827 85.045C92.8624 85.1 92.9171 85.1842 92.9349 85.2793C93.6682 89.0707 92.7589 103.481 92.6196 105.607L104.815 111.797C104.863 111.807 104.909 111.827 104.949 111.855C104.99 111.884 105.024 111.92 105.051 111.961C105.077 112.003 105.095 112.049 105.104 112.098C105.113 112.146 105.112 112.196 105.101 112.244C105.09 112.292 105.07 112.338 105.042 112.378C105.014 112.419 104.978 112.453 104.936 112.48C104.895 112.506 104.849 112.524 104.8 112.533C104.751 112.542 104.702 112.541 104.654 112.53V112.493Z" fill="#231F20"/>
<path d="M108.416 102.447C108.416 102.447 111.892 99.66 112.992 99.7407C114.092 99.8213 118.272 100.401 117.069 101.281C115.867 102.161 112.853 101.669 112.853 101.669C112.853 101.669 113.183 102.043 111.745 103.019" fill="white"/>
<path d="M111.745 103.4C111.665 103.401 111.587 103.377 111.523 103.33C111.458 103.283 111.411 103.216 111.388 103.14C111.365 103.064 111.367 102.982 111.394 102.907C111.422 102.832 111.473 102.769 111.54 102.725C112.324 102.197 112.478 101.904 112.508 101.823C112.486 101.775 112.475 101.722 112.475 101.669C112.475 101.616 112.486 101.564 112.508 101.515C112.544 101.448 112.599 101.393 112.668 101.359C112.736 101.325 112.814 101.313 112.889 101.325C113.681 101.457 115.94 101.64 116.827 100.995C116.416 100.657 114.378 100.261 112.918 100.137C112.222 100.137 109.985 101.662 108.636 102.762C108.56 102.823 108.463 102.852 108.366 102.842C108.269 102.831 108.18 102.783 108.119 102.707C108.057 102.631 108.029 102.534 108.039 102.437C108.049 102.34 108.098 102.251 108.174 102.19C108.775 101.706 111.84 99.3007 113.006 99.4033C113.006 99.4033 117.296 99.726 117.612 100.87C117.639 101.013 117.62 101.161 117.559 101.293C117.497 101.424 117.395 101.533 117.267 101.603C116.218 102.337 114.07 102.219 113.175 102.117C112.886 102.633 112.46 103.06 111.943 103.349C111.883 103.383 111.815 103.401 111.745 103.4Z" fill="#231F20"/>
<path d="M235.98 170.529H188.32V182.915H235.98V170.529Z" fill="white"/>
<path d="M235.986 183.282H188.32C188.223 183.28 188.131 183.241 188.063 183.173C187.994 183.104 187.955 183.012 187.953 182.915V170.529C187.953 170.432 187.992 170.339 188.061 170.27C188.129 170.201 188.223 170.163 188.32 170.163H235.986C236.084 170.163 236.177 170.201 236.246 170.27C236.315 170.339 236.353 170.432 236.353 170.529V182.915C236.353 183.013 236.315 183.106 236.246 183.175C236.177 183.243 236.084 183.282 235.986 183.282ZM188.686 182.549H235.62V170.867H188.686V182.549Z" fill="#231F20"/>
<path d="M262.284 170.529H223.439V182.915H262.284V170.529Z" fill="#231F20"/>
<path d="M262.292 183.282H223.425C223.328 183.282 223.235 183.243 223.166 183.175C223.097 183.106 223.059 183.013 223.059 182.915V170.529C223.059 170.432 223.097 170.339 223.166 170.27C223.235 170.201 223.328 170.163 223.425 170.163H262.292C262.389 170.163 262.482 170.201 262.551 170.27C262.62 170.339 262.659 170.432 262.659 170.529V182.915C262.657 183.012 262.617 183.104 262.549 183.173C262.481 183.241 262.389 183.28 262.292 183.282ZM223.807 182.549H261.94V170.867H223.807V182.549Z" fill="#231F20"/>
<path d="M230.751 158.143H192.566V170.529H230.751V158.143Z" fill="white"/>
<path d="M230.751 170.867H192.566C192.469 170.867 192.375 170.828 192.307 170.759C192.238 170.691 192.199 170.597 192.199 170.5V158.143C192.199 158.046 192.238 157.953 192.307 157.884C192.375 157.815 192.469 157.777 192.566 157.777H230.751C230.848 157.777 230.941 157.815 231.01 157.884C231.079 157.953 231.117 158.046 231.117 158.143V170.529C231.108 170.621 231.066 170.706 230.998 170.768C230.931 170.83 230.842 170.865 230.751 170.867ZM192.933 170.133H230.384V158.51H192.933V170.133Z" fill="#231F20"/>
<path d="M256.277 158.143H230.75V170.529H256.277V158.143Z" fill="#231F20"/>
<path d="M256.279 170.867H230.751C230.654 170.867 230.561 170.828 230.492 170.759C230.423 170.691 230.385 170.597 230.385 170.5V158.143C230.385 158.046 230.423 157.953 230.492 157.884C230.561 157.815 230.654 157.777 230.751 157.777H256.279C256.376 157.777 256.469 157.815 256.538 157.884C256.607 157.953 256.645 158.046 256.645 158.143V170.529C256.638 170.621 256.596 170.707 256.528 170.77C256.46 170.832 256.371 170.867 256.279 170.867ZM231.118 170.133H255.934V158.51H231.118V170.133Z" fill="#231F20"/>
<path d="M238.399 167.046C239.894 167.046 241.105 165.834 241.105 164.34C241.105 162.846 239.894 161.634 238.399 161.634C236.905 161.634 235.693 162.846 235.693 164.34C235.693 165.834 236.905 167.046 238.399 167.046Z" fill="white"/>
<path d="M229.9 151.903H196.299V158.136H229.9V151.903Z" fill="white"/>
<path d="M229.9 158.51H196.298C196.201 158.51 196.108 158.471 196.039 158.403C195.97 158.334 195.932 158.241 195.932 158.143V151.903C195.932 151.805 195.97 151.712 196.039 151.643C196.108 151.575 196.201 151.536 196.298 151.536H229.9C229.997 151.536 230.09 151.575 230.159 151.643C230.228 151.712 230.266 151.805 230.266 151.903V158.143C230.266 158.241 230.228 158.334 230.159 158.403C230.09 158.471 229.997 158.51 229.9 158.51ZM196.665 157.777H229.533V152.269H196.665V157.777Z" fill="#231F20"/>
<path d="M250.337 151.903H218.371V158.136H250.337V151.903Z" fill="#231F20"/>
<path d="M250.339 158.51H218.373C218.275 158.51 218.182 158.471 218.113 158.403C218.044 158.334 218.006 158.241 218.006 158.143V151.903C218.006 151.805 218.044 151.712 218.113 151.643C218.182 151.575 218.275 151.536 218.373 151.536H250.339C250.435 151.538 250.527 151.577 250.596 151.645C250.664 151.714 250.703 151.806 250.705 151.903V158.143C250.703 158.24 250.664 158.332 250.596 158.401C250.527 158.469 250.435 158.508 250.339 158.51ZM218.739 157.777H249.972V152.269H218.739V157.777Z" fill="#231F20"/>
<path d="M229.468 179.425C230.962 179.425 232.174 178.213 232.174 176.719C232.174 175.224 230.962 174.013 229.468 174.013C227.973 174.013 226.762 175.224 226.762 176.719C226.762 178.213 227.973 179.425 229.468 179.425Z" fill="white"/>
<path d="M256.278 170.867H232.988C232.891 170.865 232.799 170.826 232.731 170.757C232.662 170.689 232.623 170.597 232.621 170.5C232.621 170.403 232.66 170.309 232.728 170.241C232.797 170.172 232.891 170.133 232.988 170.133H256.278C256.376 170.133 256.469 170.172 256.538 170.241C256.606 170.309 256.645 170.403 256.645 170.5C256.645 170.597 256.606 170.691 256.538 170.759C256.469 170.828 256.376 170.867 256.278 170.867Z" fill="white"/>
<path d="M250.339 158.51H230.751C230.654 158.51 230.561 158.471 230.492 158.403C230.423 158.334 230.385 158.241 230.385 158.143C230.385 158.046 230.423 157.953 230.492 157.884C230.561 157.815 230.654 157.777 230.751 157.777H250.339C250.436 157.777 250.529 157.815 250.598 157.884C250.667 157.953 250.705 158.046 250.705 158.143C250.704 158.24 250.664 158.332 250.596 158.401C250.528 158.469 250.435 158.508 250.339 158.51Z" fill="white"/>
</svg>
