<svg width="40" height="36" viewBox="0 0 40 36" fill="none" xmlns="http://www.w3.org/2000/svg">
<path fill-rule="evenodd" clip-rule="evenodd" d="M20 12.0521C15.9542 12.0521 12.6744 15.2796 12.6744 19.2609C12.6744 21.2518 13.4932 23.0526 14.82 24.3583C15.2287 24.7604 15.2287 25.4125 14.82 25.8146C14.4113 26.2168 13.7487 26.2168 13.34 25.8146C11.6368 24.1385 10.5814 21.82 10.5814 19.2609C10.5814 14.142 14.7982 9.99241 20 9.99241C25.2018 9.99241 29.4186 14.142 29.4186 19.2609C29.4186 21.82 28.3632 24.1385 26.66 25.8146C26.2513 26.2168 25.5887 26.2168 25.18 25.8146C24.7713 25.4125 24.7713 24.7604 25.18 24.3583C26.5068 23.0526 27.3256 21.2518 27.3256 19.2609C27.3256 15.2796 24.0458 12.0521 20 12.0521Z" fill="#FF6C22"/>
<path fill-rule="evenodd" clip-rule="evenodd" d="M20 6.55966C12.8717 6.55966 7.09302 12.2462 7.09302 19.2609C7.09302 22.7685 8.53654 25.9424 10.8734 28.242C11.2821 28.6441 11.2821 29.2962 10.8734 29.6984C10.4647 30.1005 9.80209 30.1005 9.3934 29.6984C6.68008 27.0283 5 23.3367 5 19.2609C5 11.1087 11.7157 4.5 20 4.5C28.2843 4.5 35 11.1087 35 19.2609C35 23.3367 33.3199 27.0283 30.6066 29.6984C30.1979 30.1005 29.5353 30.1005 29.1266 29.6984C28.7179 29.2962 28.7179 28.6441 29.1266 28.242C31.4635 25.9424 32.907 22.7685 32.907 19.2609C32.907 12.2462 27.1283 6.55966 20 6.55966Z" fill="#FF6C22"/>
<path d="M17.4648 26.0162C18.6161 24.7025 19.1917 24.0456 19.9024 24.0029C19.9674 23.999 20.0326 23.999 20.0976 24.0029C20.8083 24.0456 21.3839 24.7025 22.5352 26.0162C25.0402 28.8745 26.2927 30.3037 25.942 31.5368C25.9119 31.6428 25.8744 31.7459 25.8301 31.8452C25.3139 33 23.5426 33 20 33C16.4574 33 14.6861 33 14.1699 31.8452C14.1256 31.7459 14.0881 31.6428 14.058 31.5368C13.7073 30.3037 14.9598 28.8745 17.4648 26.0162Z" fill="#FF6C22"/>
<path d="M23.75 18.75C23.75 20.8211 22.0711 22.5 20 22.5C17.9289 22.5 16.25 20.8211 16.25 18.75C16.25 16.6789 17.9289 15 20 15C22.0711 15 23.75 16.6789 23.75 18.75Z" fill="#FF6C22"/>
</svg>
