<svg width="40" height="36" viewBox="0 0 40 36" fill="none" xmlns="http://www.w3.org/2000/svg">
<path fill-rule="evenodd" clip-rule="evenodd" d="M7.1967 5.1967C5 7.3934 5 10.9289 5 18C5 25.0711 5 28.6066 7.1967 30.8033C9.3934 33 12.9289 33 20 33C27.0711 33 30.6066 33 32.8033 30.8033C35 28.6066 35 25.0711 35 18C35 10.9289 35 7.3934 32.8033 5.1967C30.6066 3 27.0711 3 20 3C12.9289 3 9.3934 3 7.1967 5.1967ZM22.625 15C22.625 15.6213 23.1287 16.125 23.75 16.125H24.784L21.7652 19.1438C21.6187 19.2903 21.3813 19.2903 21.2348 19.1438L18.8562 16.7652C17.831 15.74 16.169 15.74 15.1438 16.7652L11.7045 20.2045C11.2652 20.6438 11.2652 21.3562 11.7045 21.7955C12.1438 22.2348 12.8562 22.2348 13.2955 21.7955L16.7348 18.3562C16.8813 18.2097 17.1187 18.2097 17.2652 18.3562L19.6438 20.7348C20.669 21.76 22.331 21.76 23.3562 20.7348L26.375 17.716V18.75C26.375 19.3713 26.8787 19.875 27.5 19.875C28.1213 19.875 28.625 19.3713 28.625 18.75V15C28.625 14.3787 28.1213 13.875 27.5 13.875H23.75C23.1287 13.875 22.625 14.3787 22.625 15Z" fill="#FF6C22"/>
</svg>
