<svg width="40" height="36" viewBox="0 0 40 36" fill="none" xmlns="http://www.w3.org/2000/svg">
<path fill-rule="evenodd" clip-rule="evenodd" d="M7.1967 5.1967C5 7.3934 5 10.9289 5 18C5 25.0711 5 28.6066 7.1967 30.8033C9.3934 33 12.9289 33 20 33C27.0711 33 30.6066 33 32.8033 30.8033C35 28.6066 35 25.0711 35 18C35 10.9289 35 7.3934 32.8033 5.1967C30.6066 3 27.0711 3 20 3C12.9289 3 9.3934 3 7.1967 5.1967ZM22.2321 9.66886C22.8322 9.82967 23.1884 10.4466 23.0276 11.0467L19.1453 25.5356C18.9845 26.1357 18.3676 26.4919 17.7675 26.3311C17.1673 26.1703 16.8112 25.5534 16.972 24.9532L20.8543 10.4644C21.0151 9.86421 21.6319 9.50805 22.2321 9.66886ZM24.4545 12.7045C24.8938 12.2652 25.6062 12.2652 26.0455 12.7045L26.358 13.017C27.311 13.9699 28.1057 14.7646 28.6518 15.4803C29.2281 16.2357 29.6324 17.0338 29.6324 18C29.6324 18.9662 29.2281 19.7643 28.6518 20.5197C28.1057 21.2354 27.3111 22.03 26.3581 22.9829L26.0455 23.2955C25.6062 23.7348 24.8938 23.7348 24.4545 23.2955C24.0152 22.8562 24.0152 22.1438 24.4545 21.7045L24.7119 21.4472C25.7344 20.4247 26.4195 19.7361 26.863 19.1549C27.2866 18.5997 27.3824 18.2764 27.3824 18C27.3824 17.7236 27.2866 17.4004 26.863 16.8451C26.4195 16.2639 25.7344 15.5753 24.7119 14.5529L24.4545 14.2955C24.0152 13.8562 24.0152 13.1439 24.4545 12.7045ZM13.9548 12.7045C14.3941 12.2652 15.1064 12.2652 15.5458 12.7045C15.9851 13.1438 15.9851 13.8562 15.5458 14.2955L15.2884 14.5529C14.2659 15.5753 13.5808 16.2639 13.1373 16.8451C12.7137 17.4004 12.6179 17.7236 12.6179 18C12.6179 18.2764 12.7137 18.5997 13.1373 19.1549C13.5808 19.7361 14.2659 20.4247 15.2884 21.4472L15.5458 21.7045C15.9851 22.1438 15.9851 22.8562 15.5458 23.2955C15.1064 23.7348 14.3941 23.7348 13.9548 23.2955L13.6423 22.983C12.6893 22.03 11.8946 21.2354 11.3485 20.5197C10.7722 19.7643 10.3679 18.9662 10.3679 18C10.3679 17.0338 10.7722 16.2357 11.3485 15.4803C11.8946 14.7646 12.6893 13.97 13.6423 13.017L13.9548 12.7045Z" fill="#FF6C22"/>
</svg>
