<svg width="347" height="260" viewBox="0 0 347 260" fill="none" xmlns="http://www.w3.org/2000/svg">
<path d="M296.642 210.071H50.0234L74.1688 179.825H272.497L296.642 210.071Z" fill="white"/>
<path d="M296.642 210.505H50.0235C49.9423 210.505 49.8627 210.482 49.7937 210.439C49.7248 210.396 49.6693 210.335 49.6335 210.262C49.5969 210.189 49.5823 210.106 49.5916 210.025C49.6008 209.943 49.6334 209.866 49.6855 209.803L73.8309 179.556C73.8716 179.505 73.9231 179.464 73.9815 179.436C74.0399 179.407 74.1039 179.392 74.1689 179.391H272.497C272.562 179.392 272.626 179.407 272.684 179.436C272.743 179.464 272.794 179.505 272.835 179.556L296.98 209.803C297.032 209.866 297.065 209.943 297.074 210.025C297.083 210.106 297.069 210.189 297.032 210.262C296.996 210.335 296.941 210.396 296.872 210.439C296.803 210.482 296.723 210.505 296.642 210.505ZM50.9249 209.638H295.741L272.28 180.267H74.3855L50.9249 209.638Z" fill="#231F20"/>
<path d="M196.334 186.333H150.331L155.739 161.391H190.926L196.334 186.333Z" fill="white"/>
<path d="M196.335 186.767H150.323C150.259 186.767 150.196 186.752 150.139 186.724C150.082 186.695 150.032 186.653 149.994 186.602C149.95 186.553 149.919 186.495 149.904 186.431C149.889 186.367 149.89 186.301 149.907 186.238L155.324 161.295C155.344 161.2 155.396 161.114 155.472 161.052C155.548 160.991 155.642 160.957 155.74 160.957H190.927C191.024 160.957 191.119 160.991 191.195 161.052C191.27 161.114 191.323 161.2 191.343 161.295L196.733 186.238C196.751 186.301 196.752 186.367 196.736 186.431C196.721 186.495 196.69 186.553 196.647 186.602C196.61 186.651 196.563 186.691 196.509 186.719C196.455 186.748 196.396 186.764 196.335 186.767ZM150.861 185.9H195.797L190.597 161.824H156.095L150.861 185.9Z" fill="#231F20"/>
<path d="M203.554 184.929H143.104C141.921 184.929 140.963 185.888 140.963 187.07V188.5C140.963 189.682 141.921 190.641 143.104 190.641H203.554C204.736 190.641 205.694 189.682 205.694 188.5V187.07C205.694 185.888 204.736 184.929 203.554 184.929Z" fill="white"/>
<path d="M203.563 191.065H143.104C142.414 191.065 141.753 190.791 141.265 190.304C140.778 189.816 140.504 189.155 140.504 188.465V187.035C140.504 186.346 140.778 185.684 141.265 185.197C141.753 184.709 142.414 184.435 143.104 184.435H203.563C204.252 184.435 204.913 184.709 205.401 185.197C205.889 185.684 206.163 186.346 206.163 187.035V188.465C206.163 189.155 205.889 189.816 205.401 190.304C204.913 190.791 204.252 191.065 203.563 191.065ZM143.104 185.363C142.644 185.363 142.203 185.545 141.878 185.87C141.553 186.195 141.371 186.636 141.371 187.096V188.526C141.371 188.986 141.553 189.427 141.878 189.752C142.203 190.077 142.644 190.259 143.104 190.259H203.563C204.022 190.259 204.463 190.077 204.788 189.752C205.113 189.427 205.296 188.986 205.296 188.526V187.096C205.296 186.636 205.113 186.195 204.788 185.87C204.463 185.545 204.022 185.363 203.563 185.363H143.104Z" fill="#231F20"/>
<path d="M152.411 176.731L192.364 168.021L190.926 162.769H155.739L152.411 176.731Z" fill="#231F20"/>
<path d="M152.412 177.164C152.295 177.16 152.184 177.114 152.1 177.034C152.048 176.981 152.011 176.916 151.992 176.845C151.972 176.774 151.97 176.699 151.987 176.627L155.315 162.673C155.338 162.579 155.393 162.495 155.47 162.435C155.547 162.375 155.642 162.343 155.74 162.344H190.926C191.02 162.344 191.111 162.374 191.186 162.431C191.261 162.487 191.316 162.566 191.342 162.656L192.781 167.908C192.799 167.965 192.803 168.024 192.794 168.083C192.785 168.142 192.763 168.197 192.729 168.246C192.698 168.296 192.658 168.339 192.61 168.374C192.563 168.408 192.509 168.432 192.452 168.445L152.507 177.112L152.412 177.164ZM156.086 163.211L152.992 176.159L191.828 167.691L190.597 163.211H156.086Z" fill="#231F20"/>
<path d="M260.433 43.7754H86.2245C83.0128 43.7754 80.4092 46.379 80.4092 49.5907V156.962C80.4092 160.174 83.0128 162.777 86.2245 162.777H260.433C263.645 162.777 266.248 160.174 266.248 156.962V49.5907C266.248 46.379 263.645 43.7754 260.433 43.7754Z" fill="white"/>
<path d="M260.433 163.211H86.2329C84.5741 163.208 82.9838 162.548 81.8109 161.375C80.6379 160.202 79.9779 158.612 79.9756 156.953V49.5907C79.9756 47.9312 80.6348 46.3396 81.8083 45.1661C82.9818 43.9926 84.5734 43.3334 86.2329 43.3334H260.433C262.091 43.3334 263.681 43.9914 264.854 45.163C266.028 46.3346 266.688 47.924 266.69 49.582V156.953C266.688 158.612 266.028 160.202 264.855 161.375C263.682 162.548 262.092 163.208 260.433 163.211ZM86.2329 44.2C84.8047 44.2 83.4349 44.7668 82.4242 45.7759C81.4135 46.7849 80.8445 48.1538 80.8423 49.582V156.953C80.8445 158.382 81.4132 159.752 82.4237 160.763C83.4341 161.773 84.8039 162.342 86.2329 162.344H260.433C261.862 162.342 263.232 161.773 264.242 160.763C265.253 159.752 265.821 158.382 265.824 156.953V49.5907C265.824 48.161 265.256 46.7899 264.245 45.7789C263.234 44.768 261.863 44.2 260.433 44.2H86.2329Z" fill="#231F20"/>
<path d="M266.257 144.387H80.4089C80.294 144.387 80.1838 144.341 80.1025 144.26C80.0212 144.178 79.9756 144.068 79.9756 143.953C79.9756 143.838 80.0212 143.728 80.1025 143.647C80.1838 143.566 80.294 143.52 80.4089 143.52H266.257C266.372 143.52 266.482 143.566 266.563 143.647C266.645 143.728 266.69 143.838 266.69 143.953C266.69 144.068 266.645 144.178 266.563 144.26C266.482 144.341 266.372 144.387 266.257 144.387Z" fill="#231F20"/>
<path d="M259.618 137.098H87.0476C86.9327 137.098 86.8224 137.052 86.7412 136.971C86.6599 136.89 86.6143 136.78 86.6143 136.665V49.4C86.6143 49.2851 86.6599 49.1749 86.7412 49.0936C86.8224 49.0123 86.9327 48.9667 87.0476 48.9667H259.618C259.733 48.9667 259.843 49.0123 259.925 49.0936C260.006 49.1749 260.052 49.2851 260.052 49.4V136.665C260.052 136.78 260.006 136.89 259.925 136.971C259.843 137.052 259.733 137.098 259.618 137.098ZM87.4809 136.231H259.185V49.816H87.4809V136.231Z" fill="#D1D3D4"/>
<path d="M165.88 99.164H94.7351C94.6202 99.164 94.5099 99.1184 94.4287 99.0371C94.3474 98.9558 94.3018 98.8456 94.3018 98.7307C94.3018 98.6158 94.3474 98.5055 94.4287 98.4243C94.5099 98.343 94.6202 98.2974 94.7351 98.2974H165.88C165.995 98.2974 166.105 98.343 166.186 98.4243C166.267 98.5055 166.313 98.6158 166.313 98.7307C166.313 98.8456 166.267 98.9558 166.186 99.0371C166.105 99.1184 165.995 99.164 165.88 99.164Z" fill="white"/>
<path d="M165.88 104.971H94.7351C94.6202 104.971 94.5099 104.925 94.4287 104.844C94.3474 104.762 94.3018 104.652 94.3018 104.537C94.3018 104.422 94.3474 104.312 94.4287 104.231C94.5099 104.15 94.6202 104.104 94.7351 104.104H165.88C165.995 104.104 166.105 104.15 166.186 104.231C166.267 104.312 166.313 104.422 166.313 104.537C166.313 104.652 166.267 104.762 166.186 104.844C166.105 104.925 165.995 104.971 165.88 104.971Z" fill="white"/>
<path d="M156 110.786H94.7351C94.6202 110.786 94.5099 110.74 94.4287 110.659C94.3474 110.578 94.3018 110.468 94.3018 110.353C94.3018 110.238 94.3474 110.128 94.4287 110.046C94.5099 109.965 94.6202 109.919 94.7351 109.919H156C156.115 109.919 156.225 109.965 156.306 110.046C156.387 110.128 156.433 110.238 156.433 110.353C156.433 110.468 156.387 110.578 156.306 110.659C156.225 110.74 156.115 110.786 156 110.786Z" fill="white"/>
<path d="M115.015 129.601H94.7351C94.6202 129.601 94.5099 129.556 94.4287 129.474C94.3474 129.393 94.3018 129.283 94.3018 129.168V115.024C94.3018 114.909 94.3474 114.799 94.4287 114.718C94.5099 114.636 94.6202 114.591 94.7351 114.591H115.015C115.13 114.591 115.24 114.636 115.322 114.718C115.403 114.799 115.448 114.909 115.448 115.024V129.133C115.453 129.193 115.446 129.253 115.426 129.31C115.406 129.367 115.375 129.418 115.334 129.462C115.294 129.506 115.244 129.541 115.189 129.565C115.134 129.589 115.075 129.602 115.015 129.601ZM95.1684 128.735H114.582V115.457H95.1684V128.735Z" fill="white"/>
<path d="M140.451 129.601H120.163C120.048 129.601 119.938 129.556 119.856 129.474C119.775 129.393 119.729 129.283 119.729 129.168V115.024C119.729 114.909 119.775 114.799 119.856 114.718C119.938 114.636 120.048 114.591 120.163 114.591H140.451C140.566 114.591 140.677 114.636 140.758 114.718C140.839 114.799 140.885 114.909 140.885 115.024V129.133C140.89 129.193 140.882 129.253 140.862 129.31C140.843 129.367 140.812 129.418 140.771 129.462C140.73 129.506 140.681 129.541 140.626 129.565C140.571 129.589 140.511 129.602 140.451 129.601ZM120.596 128.735H140.018V115.457H120.596V128.735Z" fill="white"/>
<path d="M165.879 129.601H145.599C145.484 129.601 145.374 129.556 145.293 129.474C145.212 129.393 145.166 129.283 145.166 129.168V115.024C145.166 114.909 145.212 114.799 145.293 114.718C145.374 114.636 145.484 114.591 145.599 114.591H165.879C165.994 114.591 166.105 114.636 166.186 114.718C166.267 114.799 166.313 114.909 166.313 115.024V129.133C166.317 129.193 166.31 129.253 166.29 129.31C166.271 129.367 166.239 129.418 166.199 129.462C166.158 129.506 166.109 129.541 166.054 129.565C165.999 129.589 165.939 129.602 165.879 129.601ZM146.033 128.735H165.446V115.457H146.033V128.735Z" fill="white"/>
<path d="M242.415 66.6293H132.019C131.372 66.6568 130.726 66.5532 130.12 66.3245C129.514 66.0958 128.96 65.7469 128.493 65.2987C128.025 64.8506 127.653 64.3125 127.399 63.7167C127.145 63.121 127.014 62.48 127.014 61.8323C127.014 61.1847 127.145 60.5437 127.399 59.9479C127.653 59.3522 128.025 58.8141 128.493 58.3659C128.96 57.9178 129.514 57.5689 130.12 57.3402C130.726 57.1115 131.372 57.0078 132.019 57.0353H242.415C243.062 57.0078 243.708 57.1115 244.314 57.3402C244.92 57.5689 245.473 57.9178 245.941 58.3659C246.409 58.8141 246.781 59.3522 247.035 59.9479C247.289 60.5437 247.42 61.1847 247.42 61.8323C247.42 62.48 247.289 63.121 247.035 63.7167C246.781 64.3125 246.409 64.8506 245.941 65.2987C245.473 65.7469 244.92 66.0958 244.314 66.3245C243.708 66.5532 243.062 66.6568 242.415 66.6293ZM132.019 57.902C131.487 57.877 130.956 57.9602 130.457 58.1464C129.959 58.3327 129.503 58.6182 129.118 58.9856C128.733 59.353 128.427 59.7947 128.217 60.2841C128.008 60.7734 127.9 61.3001 127.9 61.8323C127.9 62.3646 128.008 62.8913 128.217 63.3806C128.427 63.8699 128.733 64.3117 129.118 64.6791C129.503 65.0465 129.959 65.332 130.457 65.5182C130.956 65.7045 131.487 65.7876 132.019 65.7627H242.415C242.947 65.7876 243.478 65.7045 243.976 65.5182C244.475 65.332 244.931 65.0465 245.316 64.6791C245.701 64.3117 246.007 63.8699 246.217 63.3806C246.426 62.8913 246.534 62.3646 246.534 61.8323C246.534 61.3001 246.426 60.7734 246.217 60.2841C246.007 59.7947 245.701 59.353 245.316 58.9856C244.931 58.6182 244.475 58.3327 243.976 58.1464C243.478 57.9602 242.947 57.877 242.415 57.902H132.019Z" fill="#D1D3D4"/>
<path d="M117.927 57.4687H98.15C96.2642 57.4687 94.7354 58.9975 94.7354 60.8834V62.79C94.7354 64.6759 96.2642 66.2047 98.15 66.2047H117.927C119.813 66.2047 121.342 64.6759 121.342 62.79V60.8834C121.342 58.9975 119.813 57.4687 117.927 57.4687Z" fill="#FF6C22"/>
<path d="M234 66.6293C233.885 66.6293 233.775 66.5837 233.693 66.5024C233.612 66.4212 233.566 66.3109 233.566 66.196V57.4687C233.566 57.3537 233.612 57.2435 233.693 57.1623C233.775 57.081 233.885 57.0353 234 57.0353C234.115 57.0353 234.225 57.081 234.306 57.1623C234.387 57.2435 234.433 57.3537 234.433 57.4687V66.196C234.433 66.3109 234.387 66.4212 234.306 66.5024C234.225 66.5837 234.115 66.6293 234 66.6293Z" fill="#D1D3D4"/>
<path d="M241.036 63.9774C240.534 63.9774 240.043 63.8284 239.626 63.5494C239.208 63.2704 238.883 62.8738 238.69 62.4098C238.498 61.9458 238.448 61.4352 238.546 60.9426C238.644 60.45 238.886 59.9976 239.241 59.6424C239.596 59.2873 240.048 59.0455 240.541 58.9475C241.034 58.8495 241.544 58.8998 242.008 59.092C242.472 59.2842 242.869 59.6096 243.148 60.0272C243.427 60.4448 243.576 60.9358 243.576 61.438C243.576 62.1115 243.308 62.7574 242.832 63.2336C242.356 63.7098 241.71 63.9774 241.036 63.9774ZM241.036 59.774C240.705 59.774 240.381 59.8723 240.106 60.0565C239.831 60.2407 239.617 60.5025 239.49 60.8086C239.364 61.1147 239.331 61.4515 239.397 61.7762C239.462 62.1009 239.622 62.3989 239.857 62.6325C240.092 62.8661 240.39 63.0247 240.715 63.0883C241.04 63.1518 241.377 63.1175 241.683 62.9895C241.988 62.8616 242.249 62.6459 242.431 62.3696C242.614 62.0934 242.711 61.7692 242.709 61.438C242.7 61.0004 242.52 60.5838 242.207 60.2776C241.894 59.9714 241.474 59.7999 241.036 59.8V59.774Z" fill="#D1D3D4"/>
<path d="M236.478 65.1474C236.414 65.1481 236.35 65.1345 236.292 65.1075C236.233 65.0805 236.181 65.0408 236.14 64.9914C236.068 64.9012 236.034 64.7863 236.045 64.6713C236.056 64.5563 236.112 64.4503 236.201 64.376L238.662 62.4C238.706 62.3588 238.758 62.3271 238.814 62.307C238.871 62.2868 238.931 62.2786 238.991 62.2829C239.05 62.2872 239.109 62.3038 239.162 62.3318C239.215 62.3598 239.262 62.3985 239.299 62.4455C239.336 62.4925 239.363 62.5467 239.379 62.6047C239.394 62.6627 239.397 62.7233 239.388 62.7826C239.378 62.8418 239.357 62.8985 239.324 62.9491C239.292 62.9996 239.25 63.0428 239.2 63.076L236.747 65.0607C236.671 65.1221 236.575 65.153 236.478 65.1474Z" fill="#D1D3D4"/>
<path d="M197.088 80.7214H96.416C95.9562 80.7214 95.5154 80.5387 95.1903 80.2137C94.8652 79.8886 94.6826 79.4477 94.6826 78.988C94.6826 78.5283 94.8652 78.0874 95.1903 77.7624C95.5154 77.4373 95.9562 77.2547 96.416 77.2547H197.088C197.548 77.2547 197.989 77.4373 198.314 77.7624C198.639 78.0874 198.821 78.5283 198.821 78.988C198.821 79.4477 198.639 79.8886 198.314 80.2137C197.989 80.5387 197.548 80.7214 197.088 80.7214Z" fill="#FF6C22"/>
<path d="M205.486 88.712H96.4158C96.3015 88.7098 96.1926 88.6634 96.1118 88.5826C96.031 88.5018 95.9846 88.3929 95.9824 88.2787C95.9824 88.1637 96.0281 88.0535 96.1093 87.9723C96.1906 87.891 96.3008 87.8453 96.4158 87.8453H205.486C205.601 87.8453 205.711 87.891 205.792 87.9723C205.873 88.0535 205.919 88.1637 205.919 88.2787C205.919 88.3936 205.873 88.5038 205.792 88.5851C205.711 88.6663 205.601 88.712 205.486 88.712Z" fill="#D1D3D4"/>
<path d="M181.375 97.994H96.4421C96.3272 97.994 96.217 97.9484 96.1357 97.8671C96.0544 97.7859 96.0088 97.6756 96.0088 97.5607C96.0088 97.4458 96.0544 97.3356 96.1357 97.2543C96.217 97.173 96.3272 97.1274 96.4421 97.1274H181.375C181.49 97.1274 181.601 97.173 181.682 97.2543C181.763 97.3356 181.809 97.4458 181.809 97.5607C181.809 97.6756 181.763 97.7859 181.682 97.8671C181.601 97.9484 181.49 97.994 181.375 97.994Z" fill="#D1D3D4"/>
<path d="M174.087 113.204H96.416C95.9562 113.204 95.5154 113.021 95.1903 112.696C94.8652 112.371 94.6826 111.93 94.6826 111.471C94.6826 111.011 94.8652 110.57 95.1903 110.245C95.5154 109.92 95.9562 109.737 96.416 109.737H174.087C174.546 109.737 174.987 109.92 175.312 110.245C175.637 110.57 175.82 111.011 175.82 111.471C175.82 111.93 175.637 112.371 175.312 112.696C174.987 113.021 174.546 113.204 174.087 113.204Z" fill="#FF6C22"/>
<path d="M205.486 121.186H96.4158C96.3008 121.186 96.1906 121.14 96.1093 121.059C96.0281 120.978 95.9824 120.868 95.9824 120.753C95.9846 120.638 96.031 120.529 96.1118 120.449C96.1926 120.368 96.3015 120.322 96.4158 120.319H205.486C205.601 120.319 205.711 120.365 205.792 120.446C205.873 120.528 205.919 120.638 205.919 120.753C205.919 120.868 205.873 120.978 205.792 121.059C205.711 121.14 205.601 121.186 205.486 121.186Z" fill="#D1D3D4"/>
<path d="M149.984 130.477H96.4158C96.3015 130.474 96.1926 130.428 96.1118 130.347C96.031 130.267 95.9846 130.158 95.9824 130.043C95.9824 129.928 96.0281 129.818 96.1093 129.737C96.1906 129.656 96.3008 129.61 96.4158 129.61H149.984C150.099 129.61 150.21 129.656 150.291 129.737C150.372 129.818 150.418 129.928 150.418 130.043C150.416 130.158 150.369 130.267 150.288 130.347C150.208 130.428 150.099 130.474 149.984 130.477Z" fill="#D1D3D4"/>
<path d="M254.133 108.186H214.37C214.256 108.184 214.147 108.137 214.066 108.057C213.985 107.976 213.939 107.867 213.937 107.753V77.35C213.937 77.2351 213.982 77.1249 214.063 77.0436C214.145 76.9623 214.255 76.9167 214.37 76.9167H254.133C254.247 76.9167 254.358 76.9623 254.439 77.0436C254.52 77.1249 254.566 77.2351 254.566 77.35V107.753C254.566 107.868 254.52 107.978 254.439 108.059C254.358 108.14 254.247 108.186 254.133 108.186ZM214.803 107.319H253.699V77.7834H214.803V107.319Z" fill="#D1D3D4"/>
<path d="M254.133 115.457H214.37C214.256 115.455 214.147 115.409 214.066 115.328C213.985 115.247 213.939 115.138 213.937 115.024C213.937 114.909 213.982 114.799 214.063 114.718C214.145 114.636 214.255 114.591 214.37 114.591H254.133C254.247 114.591 254.358 114.636 254.439 114.718C254.52 114.799 254.566 114.909 254.566 115.024C254.566 115.139 254.52 115.249 254.439 115.33C254.358 115.412 254.247 115.457 254.133 115.457Z" fill="#D1D3D4"/>
<path d="M254.133 122.971H214.37C214.256 122.969 214.147 122.923 214.066 122.842C213.985 122.761 213.939 122.652 213.937 122.538C213.937 122.423 213.982 122.313 214.063 122.232C214.145 122.15 214.255 122.105 214.37 122.105H254.133C254.247 122.105 254.358 122.15 254.439 122.232C254.52 122.313 254.566 122.423 254.566 122.538C254.566 122.653 254.52 122.763 254.439 122.844C254.358 122.926 254.247 122.971 254.133 122.971Z" fill="#D1D3D4"/>
<path d="M247.199 130.477H214.37C214.255 130.477 214.145 130.431 214.063 130.35C213.982 130.269 213.937 130.158 213.937 130.043C213.939 129.929 213.985 129.82 214.066 129.739C214.147 129.659 214.256 129.612 214.37 129.61H247.199C247.313 129.612 247.422 129.659 247.503 129.739C247.584 129.82 247.63 129.929 247.633 130.043C247.633 130.158 247.587 130.269 247.506 130.35C247.424 130.431 247.314 130.477 247.199 130.477Z" fill="#D1D3D4"/>
<path d="M242.848 101.339C242.739 101.34 242.634 101.3 242.554 101.227L229.034 88.712C228.744 88.4365 228.359 88.2828 227.959 88.2828C227.559 88.2828 227.174 88.4365 226.884 88.712L214.673 100.577C214.589 100.646 214.481 100.681 214.372 100.675C214.263 100.669 214.16 100.621 214.084 100.542C214.009 100.463 213.966 100.359 213.964 100.249C213.962 100.14 214.002 100.034 214.075 99.9527L226.278 88.114C226.731 87.6887 227.329 87.452 227.95 87.452C228.572 87.452 229.17 87.6887 229.623 88.114L243.143 100.629C243.205 100.688 243.248 100.765 243.266 100.849C243.284 100.933 243.277 101.02 243.245 101.1C243.214 101.18 243.159 101.249 243.088 101.297C243.018 101.346 242.934 101.373 242.848 101.374V101.339Z" fill="#D1D3D4"/>
<path d="M254.132 97.8207C254.014 97.8172 253.902 97.7674 253.82 97.682L248.412 91.9707C248.268 91.8076 248.088 91.6792 247.887 91.5952C247.686 91.5111 247.469 91.4736 247.251 91.4853C247.034 91.4858 246.82 91.5324 246.623 91.6221C246.426 91.7117 246.25 91.8424 246.107 92.0054L241.358 97.3353C241.323 97.3863 241.278 97.4292 241.225 97.4613C241.173 97.4934 241.114 97.5139 241.053 97.5214C240.991 97.5289 240.929 97.5232 240.87 97.5048C240.812 97.4864 240.757 97.4557 240.711 97.4147C240.665 97.3736 240.629 97.3232 240.604 97.2669C240.579 97.2105 240.566 97.1495 240.566 97.0878C240.567 97.0262 240.581 96.9654 240.606 96.9094C240.632 96.8534 240.67 96.8037 240.716 96.7634L245.466 91.4247C245.685 91.1804 245.952 90.983 246.25 90.8445C246.548 90.706 246.871 90.6292 247.199 90.6187C247.536 90.6059 247.872 90.6667 248.184 90.7969C248.495 90.9271 248.774 91.1236 249.002 91.3727L254.401 97.084C254.442 97.1243 254.474 97.1722 254.496 97.225C254.518 97.2778 254.529 97.3345 254.529 97.3917C254.529 97.4489 254.518 97.5055 254.496 97.5583C254.474 97.6111 254.442 97.6591 254.401 97.6994C254.327 97.7677 254.233 97.8102 254.132 97.8207Z" fill="#D1D3D4"/>
<path d="M239.269 90.2374C238.629 90.2374 238.004 90.0478 237.473 89.6926C236.941 89.3373 236.527 88.8325 236.282 88.2418C236.038 87.6511 235.974 87.0011 236.098 86.374C236.223 85.747 236.531 85.171 236.983 84.7189C237.435 84.2668 238.011 83.9589 238.638 83.8342C239.265 83.7094 239.915 83.7734 240.506 84.0181C241.097 84.2628 241.601 84.6771 241.957 85.2087C242.312 85.7403 242.501 86.3653 242.501 87.0047C242.501 87.8621 242.161 88.6843 241.555 89.2905C240.948 89.8968 240.126 90.2374 239.269 90.2374ZM239.269 84.6387C238.801 84.6387 238.343 84.7775 237.954 85.0374C237.565 85.2974 237.262 85.6669 237.083 86.0993C236.904 86.5316 236.857 87.0073 236.948 87.4663C237.04 87.9252 237.265 88.3468 237.596 88.6777C237.927 89.0086 238.348 89.2339 238.807 89.3252C239.266 89.4165 239.742 89.3697 240.174 89.1906C240.607 89.0115 240.976 88.7083 241.236 88.3192C241.496 87.9301 241.635 87.4726 241.635 87.0047C241.636 86.6937 241.576 86.3855 241.457 86.0979C241.339 85.8103 241.164 85.5491 240.944 85.3291C240.724 85.1092 240.463 84.935 240.176 84.8165C239.888 84.698 239.58 84.6376 239.269 84.6387Z" fill="#D1D3D4"/>
<path d="M173.332 156.615C172.545 156.617 171.775 156.385 171.12 155.949C170.465 155.513 169.953 154.892 169.651 154.166C169.349 153.439 169.269 152.639 169.421 151.867C169.574 151.094 169.952 150.385 170.508 149.828C171.064 149.27 171.773 148.891 172.544 148.736C173.316 148.582 174.117 148.661 174.844 148.961C175.571 149.262 176.193 149.772 176.631 150.426C177.068 151.081 177.302 151.85 177.302 152.637C177.302 153.691 176.884 154.701 176.14 155.447C175.395 156.193 174.386 156.613 173.332 156.615ZM173.332 149.535C172.716 149.533 172.114 149.714 171.601 150.055C171.088 150.397 170.687 150.882 170.451 151.451C170.214 152.02 170.152 152.647 170.272 153.251C170.392 153.855 170.688 154.41 171.124 154.846C171.559 155.282 172.114 155.578 172.719 155.698C173.323 155.818 173.949 155.755 174.518 155.519C175.087 155.282 175.573 154.882 175.914 154.369C176.256 153.856 176.437 153.253 176.435 152.637C176.435 152.23 176.355 151.826 176.199 151.45C176.043 151.074 175.814 150.732 175.526 150.443C175.238 150.155 174.896 149.927 174.52 149.771C174.143 149.615 173.74 149.535 173.332 149.535Z" fill="#D1D3D4"/>
<path d="M280.418 124.323H211.483V166.929H280.418V124.323Z" fill="#FF6C22"/>
<path d="M280.419 167.362H211.467C211.352 167.36 211.243 167.313 211.163 167.233C211.082 167.152 211.035 167.043 211.033 166.929V124.323C211.033 124.208 211.079 124.098 211.16 124.017C211.241 123.936 211.352 123.89 211.467 123.89H280.41C280.525 123.89 280.635 123.936 280.716 124.017C280.798 124.098 280.843 124.208 280.843 124.323V166.929C280.841 167.041 280.796 167.149 280.717 167.23C280.638 167.31 280.531 167.358 280.419 167.362ZM211.909 166.495H279.985V124.8H211.909V166.495Z" fill="#231F20"/>
<path d="M280.418 118.222H211.483V124.323H280.418V118.222Z" fill="white"/>
<path d="M280.419 124.8H211.467C211.352 124.798 211.243 124.751 211.163 124.671C211.082 124.59 211.035 124.481 211.033 124.367V118.3C211.033 118.185 211.079 118.075 211.16 117.994C211.241 117.912 211.352 117.867 211.467 117.867H280.41C280.525 117.867 280.635 117.912 280.716 117.994C280.798 118.075 280.843 118.185 280.843 118.3V124.367C280.841 124.479 280.796 124.587 280.717 124.668C280.638 124.748 280.531 124.796 280.419 124.8ZM211.909 123.933H279.985V118.733H211.909V123.933Z" fill="#231F20"/>
<path d="M231.676 158.967L231.683 158.971C234.261 160.46 237.558 159.576 239.047 156.998L250.565 137.048C252.053 134.47 251.17 131.173 248.592 129.685L248.584 129.68C246.006 128.192 242.709 129.075 241.22 131.653L229.702 151.603C228.214 154.181 229.097 157.478 231.676 158.967Z" fill="white"/>
<path d="M234.364 160.134C233.347 160.134 232.348 159.865 231.469 159.354C230.131 158.58 229.154 157.307 228.753 155.814C228.352 154.321 228.559 152.73 229.328 151.389L240.846 131.456C241.229 130.794 241.738 130.213 242.345 129.747C242.951 129.282 243.644 128.94 244.383 128.742C245.122 128.544 245.892 128.494 246.65 128.594C247.409 128.693 248.14 128.942 248.802 129.324C249.465 129.706 250.045 130.216 250.511 130.822C250.977 131.429 251.318 132.122 251.516 132.861C251.714 133.599 251.765 134.37 251.665 135.128C251.565 135.886 251.317 136.618 250.934 137.28L239.425 157.213C238.912 158.102 238.174 158.839 237.286 159.352C236.397 159.865 235.389 160.135 234.364 160.134ZM231.902 158.6C233.04 159.257 234.392 159.435 235.662 159.095C236.931 158.755 238.013 157.926 238.671 156.789L250.189 136.855C250.514 136.291 250.726 135.669 250.811 135.023C250.896 134.378 250.852 133.722 250.684 133.093C250.515 132.464 250.224 131.874 249.828 131.358C249.432 130.841 248.937 130.408 248.373 130.082C247.809 129.757 247.187 129.546 246.541 129.461C245.896 129.376 245.24 129.419 244.611 129.587C243.982 129.756 243.392 130.047 242.876 130.443C242.359 130.84 241.926 131.334 241.6 131.898L230.082 151.831C229.755 152.396 229.543 153.02 229.458 153.667C229.373 154.314 229.418 154.972 229.588 155.601C229.755 156.231 230.045 156.822 230.442 157.338C230.84 157.855 231.336 158.287 231.902 158.609V158.6Z" fill="#231F20"/>
<path d="M234.476 159.51C237.511 159.51 239.971 157.05 239.971 154.015C239.971 150.981 237.511 148.521 234.476 148.521C231.441 148.521 228.981 150.981 228.981 154.015C228.981 157.05 231.441 159.51 234.476 159.51Z" fill="white"/>
<path d="M234.477 159.943C233.302 159.945 232.153 159.598 231.175 158.946C230.197 158.295 229.435 157.368 228.985 156.283C228.534 155.197 228.416 154.003 228.645 152.851C228.874 151.698 229.439 150.64 230.27 149.809C231.101 148.978 232.159 148.412 233.312 148.184C234.464 147.955 235.659 148.073 236.744 148.524C237.829 148.974 238.756 149.736 239.408 150.714C240.059 151.691 240.406 152.84 240.405 154.015C240.402 155.587 239.777 157.093 238.666 158.205C237.555 159.316 236.048 159.941 234.477 159.943ZM234.477 148.945C233.473 148.944 232.492 149.24 231.657 149.796C230.823 150.352 230.171 151.143 229.786 152.069C229.401 152.995 229.3 154.015 229.494 154.999C229.689 155.983 230.171 156.887 230.88 157.597C231.589 158.307 232.492 158.791 233.476 158.987C234.459 159.184 235.479 159.084 236.406 158.7C237.333 158.317 238.125 157.667 238.683 156.833C239.24 155.999 239.538 155.018 239.538 154.015C239.536 152.673 239.002 151.386 238.053 150.436C237.105 149.486 235.819 148.95 234.477 148.945Z" fill="#231F20"/>
<path d="M243.32 129.685L243.312 129.689C240.734 131.178 239.85 134.475 241.339 137.053L252.857 157.003C254.345 159.581 257.642 160.465 260.221 158.976L260.228 158.972C262.807 157.483 263.69 154.186 262.201 151.608L250.683 131.658C249.195 129.08 245.898 128.197 243.32 129.685Z" fill="white"/>
<path d="M257.538 160.134C257.026 160.133 256.517 160.066 256.022 159.935C255.282 159.738 254.587 159.397 253.979 158.931C253.371 158.466 252.861 157.885 252.477 157.222L240.968 137.289C240.195 135.951 239.986 134.361 240.386 132.869C240.786 131.377 241.762 130.105 243.1 129.333C244.437 128.56 246.027 128.351 247.519 128.751C249.011 129.151 250.283 130.127 251.056 131.465L262.574 151.398C263.344 152.738 263.552 154.328 263.153 155.821C262.753 157.313 261.778 158.587 260.442 159.363C259.559 159.871 258.557 160.137 257.538 160.134ZM246.003 129.402C245.129 129.395 244.27 129.619 243.51 130.051C242.751 130.483 242.12 131.108 241.68 131.863C241.24 132.618 241.007 133.476 241.005 134.349C241.004 135.223 241.233 136.081 241.67 136.838L253.188 156.771C253.513 157.341 253.948 157.84 254.467 158.241C254.986 158.641 255.579 158.935 256.213 159.105C256.846 159.275 257.507 159.318 258.157 159.231C258.807 159.145 259.433 158.93 260 158.6C261.138 157.94 261.967 156.856 262.307 155.586C262.646 154.315 262.468 152.962 261.811 151.823L250.302 131.889C249.866 131.134 249.239 130.507 248.485 130.071C247.731 129.634 246.875 129.404 246.003 129.402Z" fill="#231F20"/>
<path d="M219.561 121.706H214.76C214.645 121.706 214.534 121.66 214.453 121.579C214.372 121.498 214.326 121.388 214.326 121.273C214.326 121.158 214.372 121.048 214.453 120.966C214.534 120.885 214.645 120.839 214.76 120.839H219.561C219.676 120.839 219.786 120.885 219.867 120.966C219.949 121.048 219.994 121.158 219.994 121.273C219.994 121.388 219.949 121.498 219.867 121.579C219.786 121.66 219.676 121.706 219.561 121.706Z" fill="#231F20"/>
<path d="M296.642 210.071H50.0234V216.155H296.642V210.071Z" fill="#231F20"/>
<path d="M296.642 216.589H50.0232C49.9082 216.589 49.798 216.543 49.7168 216.462C49.6355 216.381 49.5898 216.27 49.5898 216.155V210.089C49.5898 209.974 49.6355 209.864 49.7168 209.782C49.798 209.701 49.9082 209.655 50.0232 209.655H296.642C296.757 209.655 296.867 209.701 296.948 209.782C297.029 209.864 297.075 209.974 297.075 210.089V216.155C297.075 216.27 297.029 216.381 296.948 216.462C296.867 216.543 296.757 216.589 296.642 216.589ZM50.4565 215.722H296.208V210.522H50.4565V215.722Z" fill="#231F20"/>
<path d="M121.333 40.118H62.4258V93.1667H121.333V40.118Z" fill="white"/>
<path d="M121.332 93.6H62.3992C62.2849 93.5978 62.176 93.5514 62.0952 93.4707C62.0144 93.3899 61.968 93.2809 61.9658 93.1667V40.118C61.9658 40.0031 62.0115 39.8929 62.0927 39.8116C62.174 39.7303 62.2842 39.6847 62.3992 39.6847H121.332C121.447 39.6847 121.558 39.7303 121.639 39.8116C121.72 39.8929 121.766 40.0031 121.766 40.118V93.1667C121.764 93.2809 121.717 93.3899 121.636 93.4707C121.556 93.5514 121.447 93.5978 121.332 93.6ZM62.8498 92.7334H120.916V40.5514H62.8498V92.7334Z" fill="#231F20"/>
<path d="M85.1496 75.478H76.4482V85.618H85.1496V75.478Z" fill="#FF6C22"/>
<path d="M98.1496 66.2047H89.4482V85.618H98.1496V66.2047Z" fill="#FF6C22"/>
<path d="M111.141 51.9047H102.439V85.618H111.141V51.9047Z" fill="#FF6C22"/>
<path d="M115.439 86.0427H69.7312C69.6163 86.0427 69.506 85.997 69.4248 85.9158C69.3435 85.8345 69.2979 85.7243 69.2979 85.6094V46.8C69.2979 46.6851 69.3435 46.5749 69.4248 46.4936C69.506 46.4124 69.6163 46.3667 69.7312 46.3667C69.8461 46.3667 69.9563 46.4124 70.0376 46.4936C70.1189 46.5749 70.1645 46.6851 70.1645 46.8V85.176H115.439C115.554 85.176 115.664 85.2217 115.746 85.303C115.827 85.3842 115.873 85.4944 115.873 85.6094C115.873 85.7243 115.827 85.8345 115.746 85.9158C115.664 85.997 115.554 86.0427 115.439 86.0427Z" fill="#231F20"/>
<path d="M80.3739 71.2227L79.9405 71.1707L79.5332 71.0147C80.1052 68.7267 82.3325 61.2734 86.9259 61.5334C87.561 61.5098 88.1945 61.6126 88.7896 61.8358C89.3846 62.059 89.9295 62.398 90.3925 62.8334C91.2129 63.6019 92.285 64.0455 93.4085 64.0814C94.9079 64.2374 95.7312 61.958 96.7712 59.046C98.6172 53.846 101.105 46.8347 109.771 46.8347C109.886 46.8347 109.996 46.8804 110.078 46.9616C110.159 47.0429 110.205 47.1531 110.205 47.2681C110.205 47.383 110.159 47.4932 110.078 47.5745C109.996 47.6557 109.886 47.7014 109.771 47.7014C101.729 47.7014 99.3712 54.1494 97.5599 59.332C96.3899 62.6167 95.4712 65.2254 93.2785 64.948C91.9869 64.8816 90.7598 64.3632 89.8119 63.4834C89.4205 63.1115 88.9572 62.8236 88.4505 62.6373C87.9437 62.451 87.4043 62.3703 86.8652 62.4C82.8265 62.1747 80.7465 69.706 80.3739 71.2227Z" fill="#D1D3D4"/>
<path d="M71.1094 185.233V190.953C71.1094 192.686 77.618 194.107 85.6607 194.107C93.7034 194.107 100.212 192.695 100.212 190.953V185.233H71.1094Z" fill="white"/>
<path d="M85.6604 194.541C78.2158 194.541 70.6758 193.31 70.6758 190.953V185.233C70.6758 185.118 70.7214 185.008 70.8027 184.926C70.884 184.845 70.9942 184.799 71.1091 184.799H100.212C100.327 184.799 100.437 184.845 100.518 184.926C100.599 185.008 100.645 185.118 100.645 185.233V190.953C100.645 193.31 93.1051 194.541 85.6604 194.541ZM71.5424 185.666V190.953C71.5424 192.062 77.0371 193.674 85.6604 193.674C94.2838 193.674 99.7784 192.062 99.7784 190.953V185.666H71.5424Z" fill="#231F20"/>
<path d="M85.6607 188.379C93.6972 188.379 100.212 186.97 100.212 185.233C100.212 183.495 93.6972 182.087 85.6607 182.087C77.6242 182.087 71.1094 183.495 71.1094 185.233C71.1094 186.97 77.6242 188.379 85.6607 188.379Z" fill="#231F20"/>
<path d="M85.6604 188.812C78.2158 188.812 70.6758 187.581 70.6758 185.233C70.6758 182.884 78.2158 181.645 85.6604 181.645C93.1051 181.645 100.645 182.875 100.645 185.233C100.645 187.59 93.1051 188.812 85.6604 188.812ZM85.6604 182.511C76.9938 182.511 71.5424 184.123 71.5424 185.233C71.5424 186.342 77.0371 187.945 85.6604 187.945C94.2838 187.945 99.7784 186.342 99.7784 185.233C99.7784 184.123 94.2838 182.511 85.6604 182.511Z" fill="#231F20"/>
<path d="M72.4873 177.667V183.395C72.4873 185.129 79.0046 186.541 87.0473 186.541C95.09 186.541 101.599 185.137 101.599 183.395V177.667H72.4873Z" fill="white"/>
<path d="M87.048 186.949C79.5947 186.949 72.0547 185.718 72.0547 183.369V177.667C72.0569 177.552 72.1033 177.444 72.1841 177.363C72.2649 177.282 72.3738 177.236 72.488 177.233H101.599C101.714 177.233 101.824 177.279 101.906 177.36C101.987 177.442 102.033 177.552 102.033 177.667V183.395C102.033 185.718 94.4667 186.949 87.048 186.949ZM72.9214 178.074V183.369C72.9214 184.479 78.4247 186.082 87.048 186.082C95.6714 186.082 101.166 184.479 101.166 183.369V178.074H72.9214Z" fill="#231F20"/>
<path d="M87.0474 180.787C95.0839 180.787 101.599 179.378 101.599 177.641C101.599 175.903 95.0839 174.495 87.0474 174.495C79.0109 174.495 72.4961 175.903 72.4961 177.641C72.4961 179.378 79.0109 180.787 87.0474 180.787Z" fill="#231F20"/>
<path d="M87.048 181.229C79.5947 181.229 72.0547 179.998 72.0547 177.641C72.0547 175.283 79.5947 174.061 87.048 174.061C94.5014 174.061 102.033 175.292 102.033 177.641C102.033 179.989 94.4667 181.229 87.048 181.229ZM87.048 174.928C78.3814 174.928 72.9214 176.54 72.9214 177.641C72.9214 178.741 78.4247 180.362 87.048 180.362C95.6714 180.362 101.166 178.75 101.166 177.641C101.166 176.531 95.6627 174.928 87.048 174.928Z" fill="#231F20"/>
<path d="M70.4854 170.057V175.777C70.4854 177.511 77.0027 178.932 85.0453 178.932C93.088 178.932 99.5967 177.519 99.5967 175.777V170.057H70.4854Z" fill="white"/>
<path d="M85.0451 179.4C77.5918 179.4 70.0518 178.169 70.0518 175.812V170.092C70.0518 169.977 70.0974 169.867 70.1787 169.786C70.2599 169.704 70.3702 169.659 70.4851 169.659H99.5964C99.7113 169.659 99.8216 169.704 99.9028 169.786C99.9841 169.867 100.03 169.977 100.03 170.092V175.812C100.03 178.135 92.4898 179.4 85.0451 179.4ZM70.9184 170.525V175.812C70.9184 176.921 76.4218 178.533 85.0451 178.533C93.6684 178.533 99.1631 176.921 99.1631 175.812V170.525H70.9184Z" fill="#231F20"/>
<path d="M85.0455 173.203C93.082 173.203 99.5968 171.795 99.5968 170.057C99.5968 168.32 93.082 166.911 85.0455 166.911C77.009 166.911 70.4941 168.32 70.4941 170.057C70.4941 171.795 77.009 173.203 85.0455 173.203Z" fill="#231F20"/>
<path d="M85.0451 173.645C77.5918 173.645 70.0518 172.415 70.0518 170.057C70.0518 167.7 77.5918 166.478 85.0451 166.478C92.4984 166.478 100.03 167.709 100.03 170.057C100.03 172.406 92.4898 173.645 85.0451 173.645ZM85.0451 167.345C76.4218 167.345 70.9184 168.948 70.9184 170.057C70.9184 171.167 76.4218 172.779 85.0451 172.779C93.6684 172.779 99.1631 171.167 99.1631 170.057C99.1631 168.948 93.6598 167.345 85.0451 167.345Z" fill="#231F20"/>
<path d="M74.5332 162.275V167.995C74.5332 169.728 81.0505 171.149 89.0845 171.149C97.1185 171.149 103.645 169.737 103.645 167.995V162.275H74.5332Z" fill="white"/>
<path d="M89.0491 171.6C81.6045 171.6 74.0645 170.369 74.0645 168.012V162.292C74.0645 162.177 74.1101 162.067 74.1914 161.986C74.2726 161.904 74.3829 161.859 74.4978 161.859H103.609C103.724 161.859 103.834 161.904 103.916 161.986C103.997 162.067 104.042 162.177 104.042 162.292V168.012C104.042 170.352 96.5025 171.6 89.0491 171.6ZM74.9311 162.708V167.995C74.9311 169.104 80.4345 170.716 89.0491 170.716C97.6638 170.716 103.176 169.104 103.176 167.995V162.708H74.9311Z" fill="#231F20"/>
<path d="M89.0494 165.421C97.0859 165.421 103.601 164.012 103.601 162.275C103.601 160.537 97.0859 159.129 89.0494 159.129C81.0129 159.129 74.498 160.537 74.498 162.275C74.498 164.012 81.0129 165.421 89.0494 165.421Z" fill="#231F20"/>
<path d="M89.0491 165.863C81.6045 165.863 74.0645 164.632 74.0645 162.275C74.0645 159.917 81.6045 158.695 89.0491 158.695C96.4938 158.695 104.042 159.926 104.042 162.275C104.042 164.623 96.5025 165.863 89.0491 165.863ZM89.0491 159.562C80.4345 159.562 74.9311 161.165 74.9311 162.275C74.9311 163.384 80.4345 164.996 89.0491 164.996C97.6638 164.996 103.176 163.384 103.176 162.275C103.176 161.165 97.6725 159.562 89.0491 159.562Z" fill="#231F20"/>
<path d="M70.4854 155.489V161.2C70.4854 162.933 77.0027 164.346 85.0453 164.346C93.088 164.346 99.5967 162.933 99.5967 161.2V155.471L70.4854 155.489Z" fill="white"/>
<path d="M85.0451 164.797C77.5918 164.797 70.0518 163.566 70.0518 161.217V155.489C70.054 155.374 70.1003 155.266 70.1811 155.185C70.2619 155.104 70.3709 155.058 70.4851 155.055H99.5964C99.7113 155.055 99.8216 155.101 99.9028 155.182C99.9841 155.264 100.03 155.374 100.03 155.489V161.2C100.03 163.566 92.4898 164.797 85.0451 164.797ZM70.9184 155.922V161.2C70.9184 162.309 76.4218 163.913 85.0451 163.913C93.6684 163.913 99.1631 162.309 99.1631 161.2V155.905L70.9184 155.922Z" fill="#231F20"/>
<path d="M85.0455 158.635C93.082 158.635 99.5968 157.226 99.5968 155.489C99.5968 153.751 93.082 152.343 85.0455 152.343C77.009 152.343 70.4941 153.751 70.4941 155.489C70.4941 157.226 77.009 158.635 85.0455 158.635Z" fill="white"/>
<path d="M85.0451 159.077C77.5918 159.077 70.0518 157.846 70.0518 155.489C70.0518 153.131 77.5918 151.909 85.0451 151.909C92.4984 151.909 100.03 153.14 100.03 155.489C100.03 157.837 92.4898 159.077 85.0451 159.077ZM85.0451 152.776C76.4218 152.776 70.9184 154.388 70.9184 155.489C70.9184 156.589 76.4218 158.21 85.0451 158.21C93.6684 158.21 99.1631 156.598 99.1631 155.489C99.1631 154.379 93.6598 152.776 85.0451 152.776Z" fill="#231F20"/>
<path d="M85.0455 157.491C83.9968 157.491 74.8535 157.439 74.8535 155.489C74.8535 153.539 83.9968 153.487 85.0455 153.487C86.0942 153.487 95.2288 153.547 95.2288 155.489C95.2288 157.43 86.0855 157.491 85.0455 157.491ZM75.7722 155.489C76.3702 155.983 79.8108 156.624 85.0455 156.624C90.2802 156.624 93.7122 155.983 94.3102 155.489C93.7122 155.003 90.2715 154.353 85.0455 154.353C79.8195 154.353 76.3702 155.003 75.7722 155.489Z" fill="#D1D3D4"/>
<path d="M247.692 187.945V193.674C247.692 195.407 254.21 196.82 262.244 196.82C270.278 196.82 276.804 195.407 276.804 193.674V187.945H247.692Z" fill="white"/>
<path d="M262.244 197.253C254.8 197.253 247.26 196.023 247.26 193.674V187.945C247.26 187.83 247.305 187.72 247.387 187.639C247.468 187.558 247.578 187.512 247.693 187.512H276.796C276.911 187.512 277.021 187.558 277.102 187.639C277.183 187.72 277.229 187.83 277.229 187.945V193.674C277.229 196.023 269.689 197.253 262.244 197.253ZM248.126 188.379V193.674C248.126 194.775 253.621 196.387 262.244 196.387C270.868 196.387 276.362 194.775 276.362 193.674V188.379H248.126Z" fill="#231F20"/>
<path d="M262.244 191.091C270.28 191.091 276.795 189.683 276.795 187.945C276.795 186.208 270.28 184.799 262.244 184.799C254.207 184.799 247.692 186.208 247.692 187.945C247.692 189.683 254.207 191.091 262.244 191.091Z" fill="#231F20"/>
<path d="M262.244 191.533C254.8 191.533 247.26 190.303 247.26 187.945C247.26 185.588 254.8 184.366 262.244 184.366C269.689 184.366 277.229 185.597 277.229 187.945C277.229 190.294 269.689 191.533 262.244 191.533ZM262.244 185.233C253.621 185.233 248.126 186.836 248.126 187.945C248.126 189.055 253.621 190.667 262.244 190.667C270.868 190.667 276.362 189.055 276.362 187.945C276.362 186.836 270.868 185.233 262.244 185.233Z" fill="#231F20"/>
<path d="M245.683 180.362V186.082C245.683 187.815 252.2 189.237 260.243 189.237C268.285 189.237 274.794 187.824 274.794 186.082V180.362H245.683Z" fill="white"/>
<path d="M260.242 189.67C252.789 189.67 245.249 188.439 245.249 186.082V180.362C245.249 180.247 245.295 180.137 245.376 180.056C245.457 179.974 245.567 179.929 245.682 179.929H274.794C274.909 179.929 275.019 179.974 275.1 180.056C275.181 180.137 275.227 180.247 275.227 180.362V186.082C275.227 188.439 267.687 189.67 260.242 189.67ZM246.133 180.795V186.082C246.133 187.191 251.636 188.803 260.26 188.803C268.883 188.803 274.378 187.191 274.378 186.082V180.795H246.133Z" fill="#231F20"/>
<path d="M260.242 183.508C268.278 183.508 274.793 182.1 274.793 180.362C274.793 178.625 268.278 177.216 260.242 177.216C252.205 177.216 245.69 178.625 245.69 180.362C245.69 182.1 252.205 183.508 260.242 183.508Z" fill="#231F20"/>
<path d="M260.242 183.941C252.789 183.941 245.249 182.711 245.249 180.362C245.249 178.013 252.789 176.774 260.242 176.774C267.696 176.774 275.227 178.005 275.227 180.362C275.227 182.719 267.687 183.941 260.242 183.941ZM260.242 177.641C251.619 177.641 246.116 179.253 246.116 180.362C246.116 181.471 251.619 183.075 260.242 183.075C268.866 183.075 274.36 181.471 274.36 180.362C274.36 179.253 268.857 177.667 260.242 177.667V177.641Z" fill="#231F20"/>
<path d="M249.695 172.579V178.299C249.695 180.033 256.213 181.454 264.247 181.454C272.281 181.454 278.807 180.041 278.807 178.299V172.579H249.695Z" fill="white"/>
<path d="M264.246 181.887C256.802 181.887 249.262 180.657 249.262 178.299V172.579C249.262 172.464 249.307 172.354 249.389 172.273C249.47 172.192 249.58 172.146 249.695 172.146H278.806C278.921 172.146 279.032 172.192 279.113 172.273C279.194 172.354 279.24 172.464 279.24 172.579V178.299C279.24 180.657 271.7 181.887 264.246 181.887ZM250.128 173.013V178.299C250.128 179.409 255.632 181.021 264.246 181.021C272.861 181.021 278.373 179.409 278.373 178.299V173.013H250.128Z" fill="#231F20"/>
<path d="M264.247 175.725C272.283 175.725 278.798 174.317 278.798 172.579C278.798 170.842 272.283 169.433 264.247 169.433C256.21 169.433 249.695 170.842 249.695 172.579C249.695 174.317 256.21 175.725 264.247 175.725Z" fill="#231F20"/>
<path d="M264.246 176.159C256.802 176.159 249.262 174.928 249.262 172.579C249.262 170.231 256.802 169 264.246 169C271.691 169 279.24 170.231 279.24 172.579C279.24 174.928 271.7 176.159 264.246 176.159ZM264.246 169.867C255.632 169.867 250.128 171.47 250.128 172.579C250.128 173.689 255.632 175.292 264.246 175.292C272.861 175.292 278.373 173.689 278.373 172.579C278.373 171.47 272.87 169.867 264.246 169.867Z" fill="#231F20"/>
<path d="M245.683 165.793V171.522C245.683 173.255 252.2 174.668 260.243 174.668C268.285 174.668 274.794 173.255 274.794 171.522V165.793H245.683Z" fill="white"/>
<path d="M260.242 175.067C252.789 175.067 245.249 173.836 245.249 171.487V165.793C245.251 165.679 245.298 165.57 245.378 165.489C245.459 165.409 245.568 165.362 245.682 165.36H274.794C274.909 165.36 275.019 165.406 275.1 165.487C275.181 165.568 275.227 165.678 275.227 165.793V171.522C275.227 173.871 267.687 175.067 260.242 175.067ZM246.133 166.227V171.522C246.133 172.623 251.636 174.235 260.26 174.235C268.883 174.235 274.378 172.623 274.378 171.522V166.227H246.133Z" fill="#231F20"/>
<path d="M260.242 168.939C268.278 168.939 274.793 167.531 274.793 165.793C274.793 164.056 268.278 162.647 260.242 162.647C252.205 162.647 245.69 164.056 245.69 165.793C245.69 167.531 252.205 168.939 260.242 168.939Z" fill="white"/>
<path d="M260.242 169.381C252.789 169.381 245.249 168.151 245.249 165.793C245.249 163.436 252.789 162.214 260.242 162.214C267.696 162.214 275.227 163.445 275.227 165.793C275.227 168.142 267.687 169.381 260.242 169.381ZM260.242 163.081C251.619 163.081 246.116 164.684 246.116 165.793C246.116 166.903 251.619 168.515 260.242 168.515C268.866 168.515 274.36 166.903 274.36 165.793C274.36 164.684 268.857 163.081 260.242 163.081Z" fill="#231F20"/>
<path d="M260.242 167.795C259.202 167.795 250.059 167.743 250.059 165.793C250.059 163.843 259.202 163.8 260.242 163.8C261.282 163.8 270.425 163.861 270.425 165.802C270.425 167.743 261.282 167.795 260.242 167.795ZM250.969 165.793C251.567 166.287 255.007 166.929 260.242 166.929C265.477 166.929 268.909 166.287 269.507 165.793C268.909 165.308 265.477 164.658 260.242 164.658C255.007 164.658 251.567 165.308 250.969 165.793Z" fill="#D1D3D4"/>
<path d="M135.347 187.2V192.634C135.347 194.289 129.15 195.633 121.48 195.633C113.81 195.633 107.613 194.289 107.613 192.634V187.2H135.347Z" fill="white"/>
<path d="M121.515 196.049C115.778 196.049 107.241 195.139 107.241 192.582V187.2C107.241 187.085 107.287 186.975 107.368 186.894C107.449 186.812 107.56 186.767 107.675 186.767H135.347C135.462 186.767 135.572 186.812 135.654 186.894C135.735 186.975 135.781 187.085 135.781 187.2V192.634C135.781 195.139 127.253 196.049 121.515 196.049ZM108.108 187.616V192.617C108.108 193.665 113.308 195.217 121.515 195.217C129.723 195.217 134.914 193.7 134.914 192.617V187.616H108.108Z" fill="#231F20"/>
<path d="M121.515 190.181C129.154 190.181 135.347 188.839 135.347 187.183C135.347 185.527 129.154 184.184 121.515 184.184C113.875 184.184 107.683 185.527 107.683 187.183C107.683 188.839 113.875 190.181 121.515 190.181Z" fill="#231F20"/>
<path d="M121.515 190.606C115.778 190.606 107.241 189.696 107.241 187.139C107.241 184.583 115.778 183.673 121.515 183.673C127.253 183.673 135.781 184.591 135.781 187.139C135.781 189.687 127.253 190.606 121.515 190.606ZM121.515 184.617C113.334 184.617 108.108 186.134 108.108 187.217C108.108 188.301 113.308 189.817 121.515 189.817C129.723 189.817 134.914 188.301 134.914 187.217C134.914 186.134 129.697 184.6 121.515 184.6V184.617Z" fill="#231F20"/>
<path d="M131.533 179.781V185.224C131.533 186.879 125.345 188.214 117.666 188.214C109.988 188.214 103.8 186.879 103.8 185.224V179.781H131.533Z" fill="white"/>
<path d="M117.702 188.647C111.965 188.647 103.437 187.781 103.437 185.224V179.781C103.437 179.666 103.482 179.556 103.563 179.475C103.645 179.394 103.755 179.348 103.87 179.348H131.534C131.649 179.348 131.759 179.394 131.84 179.475C131.922 179.556 131.967 179.666 131.967 179.781V185.224C131.967 187.737 123.439 188.647 117.702 188.647ZM104.303 180.215V185.224C104.303 186.264 109.503 187.781 117.702 187.781C125.901 187.781 131.101 186.264 131.101 185.224V180.215H104.303Z" fill="#231F20"/>
<path d="M117.701 182.78C125.34 182.78 131.533 181.438 131.533 179.781C131.533 178.125 125.34 176.783 117.701 176.783C110.062 176.783 103.869 178.125 103.869 179.781C103.869 181.438 110.062 182.78 117.701 182.78Z" fill="#231F20"/>
<path d="M117.702 183.213C111.965 183.213 103.437 182.295 103.437 179.747C103.437 177.199 111.965 176.323 117.702 176.323C123.439 176.323 131.967 177.19 131.967 179.747C131.967 182.303 123.439 183.213 117.702 183.213ZM117.702 177.225C109.521 177.225 104.303 178.741 104.303 179.781C104.303 180.821 109.503 182.381 117.702 182.381C125.901 182.381 131.101 180.865 131.101 179.781C131.101 178.698 125.883 177.225 117.702 177.225Z" fill="#231F20"/>
<path d="M135.347 173.333V178.776C135.347 180.431 129.15 181.766 121.48 181.766C113.81 181.766 107.613 180.431 107.613 178.776V173.333H135.347Z" fill="white"/>
<path d="M121.515 182.199C115.778 182.199 107.241 181.333 107.241 178.776V173.333C107.243 173.219 107.29 173.11 107.371 173.029C107.451 172.949 107.56 172.902 107.675 172.9H135.347C135.462 172.9 135.572 172.946 135.654 173.027C135.735 173.108 135.781 173.218 135.781 173.333V178.776C135.781 181.289 127.253 182.199 121.515 182.199ZM108.108 173.767V178.776C108.108 179.816 113.308 181.333 121.515 181.333C129.723 181.333 134.914 179.816 134.914 178.776V173.767H108.108Z" fill="#231F20"/>
<path d="M121.515 176.332C129.154 176.332 135.347 174.99 135.347 173.333C135.347 171.677 129.154 170.335 121.515 170.335C113.875 170.335 107.683 171.677 107.683 173.333C107.683 174.99 113.875 176.332 121.515 176.332Z" fill="white"/>
<path d="M121.515 176.8C115.778 176.8 107.241 175.881 107.241 173.333C107.241 170.785 115.778 169.91 121.515 169.91C127.253 169.91 135.781 170.777 135.781 173.333C135.781 175.89 127.253 176.8 121.515 176.8ZM121.515 170.811C113.334 170.811 108.108 172.328 108.108 173.368C108.108 174.408 113.308 175.968 121.515 175.968C129.723 175.968 134.914 174.451 134.914 173.368C134.914 172.285 129.697 170.777 121.515 170.777V170.811Z" fill="#231F20"/>
<path d="M121.515 175.257C119.895 175.257 111.809 175.171 111.809 173.333C111.809 171.496 119.895 171.409 121.515 171.409C123.136 171.409 131.213 171.505 131.213 173.333C131.213 175.162 123.136 175.257 121.515 175.257ZM112.736 173.333C113.369 173.793 116.619 174.391 121.515 174.391C126.412 174.391 129.662 173.793 130.286 173.333C129.662 172.874 126.403 172.276 121.515 172.276C116.627 172.276 113.369 172.874 112.736 173.333Z" fill="#D1D3D4"/>
<path d="M241.574 183.43V188.873C241.574 190.519 235.386 191.863 227.707 191.863C220.029 191.863 213.841 190.519 213.841 188.873V183.43H241.574Z" fill="white"/>
<path d="M227.742 192.296C222.005 192.296 213.477 191.429 213.477 188.873V183.43C213.477 183.315 213.522 183.205 213.603 183.124C213.685 183.042 213.795 182.997 213.91 182.997H241.574C241.689 182.997 241.799 183.042 241.88 183.124C241.962 183.205 242.007 183.315 242.007 183.43V188.873C242.007 191.386 233.479 192.296 227.742 192.296ZM214.343 183.863V188.873C214.343 189.913 219.543 191.429 227.742 191.429C235.941 191.429 241.141 189.913 241.141 188.873V183.863H214.343Z" fill="#231F20"/>
<path d="M227.742 186.429C235.381 186.429 241.574 185.086 241.574 183.43C241.574 181.774 235.381 180.431 227.742 180.431C220.103 180.431 213.91 181.774 213.91 183.43C213.91 185.086 220.103 186.429 227.742 186.429Z" fill="#231F20"/>
<path d="M227.742 186.853C222.005 186.853 213.477 185.987 213.477 183.43C213.477 180.873 222.005 179.963 227.742 179.963C233.479 179.963 242.007 180.882 242.007 183.43C242.007 185.978 233.479 186.853 227.742 186.853ZM227.742 180.865C219.561 180.865 214.343 182.381 214.343 183.465C214.343 184.548 219.543 186.021 227.742 186.021C235.941 186.021 241.141 184.505 241.141 183.465C241.141 182.425 235.923 180.865 227.742 180.865Z" fill="#231F20"/>
<path d="M239.147 176.219V181.653C239.147 183.309 232.959 184.652 225.281 184.652C217.602 184.652 211.414 183.309 211.414 181.653V176.219H239.147Z" fill="white"/>
<path d="M225.333 185.085C219.595 185.085 211.059 184.175 211.059 181.619V176.185C211.059 176.07 211.104 175.96 211.186 175.878C211.267 175.797 211.377 175.751 211.492 175.751H239.165C239.28 175.751 239.39 175.797 239.471 175.878C239.552 175.96 239.598 176.07 239.598 176.185V181.619C239.581 184.175 231.053 185.085 225.333 185.085ZM211.925 176.653V181.653C211.925 182.702 217.125 184.253 225.333 184.253C233.54 184.253 238.731 182.737 238.731 181.653V176.653H211.925Z" fill="#231F20"/>
<path d="M225.315 179.218C232.955 179.218 239.147 177.875 239.147 176.219C239.147 174.563 232.955 173.221 225.315 173.221C217.676 173.221 211.483 174.563 211.483 176.219C211.483 177.875 217.676 179.218 225.315 179.218Z" fill="white"/>
<path d="M225.333 179.643C219.595 179.643 211.059 178.733 211.059 176.219C211.059 173.706 219.595 172.753 225.333 172.753C231.07 172.753 239.598 173.671 239.598 176.219C239.598 178.767 231.053 179.643 225.333 179.643ZM225.333 173.654C217.151 173.654 211.925 175.171 211.925 176.254C211.925 177.337 217.125 178.811 225.333 178.811C233.54 178.811 238.731 177.294 238.731 176.254C238.731 175.214 233.497 173.654 225.333 173.654Z" fill="#231F20"/>
<path d="M225.333 178.143C223.712 178.143 215.626 178.048 215.626 176.219C215.626 174.391 223.712 174.295 225.333 174.295C226.953 174.295 235.039 174.382 235.039 176.219C235.039 178.057 226.936 178.143 225.333 178.143ZM216.553 176.219C217.186 176.679 220.436 177.277 225.333 177.277C230.229 177.277 233.479 176.679 234.103 176.219C233.479 175.76 230.229 175.162 225.333 175.162C220.436 175.162 217.169 175.76 216.536 176.219H216.553Z" fill="#D1D3D4"/>
<path d="M113.429 194.861V200.295C113.429 201.951 107.241 203.294 99.5625 203.294C91.8838 203.294 85.7998 201.933 85.7998 200.295V194.861H113.429Z" fill="white"/>
<path d="M99.5964 203.727C93.8591 203.727 85.3311 202.809 85.3311 200.261V194.827C85.3311 194.712 85.3767 194.602 85.458 194.52C85.5392 194.439 85.6495 194.393 85.7644 194.393H113.428C113.543 194.393 113.654 194.439 113.735 194.52C113.816 194.602 113.862 194.712 113.862 194.827V200.261C113.862 202.8 105.334 203.727 99.5964 203.727ZM86.1977 195.295V200.295C86.1977 201.344 91.3977 202.895 99.5964 202.895C107.795 202.895 112.995 201.379 112.995 200.295V195.295H86.1977Z" fill="#231F20"/>
<path d="M99.5966 197.86C107.236 197.86 113.429 196.517 113.429 194.861C113.429 193.205 107.236 191.863 99.5966 191.863C91.9574 191.863 85.7646 193.205 85.7646 194.861C85.7646 196.517 91.9574 197.86 99.5966 197.86Z" fill="white"/>
<path d="M99.5964 198.285C93.8591 198.285 85.3311 197.418 85.3311 194.861C85.3311 192.305 93.8591 191.395 99.5964 191.395C105.334 191.395 113.862 192.305 113.862 194.861C113.862 197.418 105.334 198.285 99.5964 198.285ZM99.5964 192.296C91.4151 192.296 86.1977 193.813 86.1977 194.896C86.1977 195.979 91.3977 197.453 99.5964 197.453C107.795 197.453 112.995 195.936 112.995 194.896C112.995 193.856 107.778 192.296 99.5964 192.296Z" fill="#231F20"/>
<path d="M99.5973 196.785C97.9766 196.785 89.8906 196.69 89.8906 194.861C89.8906 193.033 97.9766 192.937 99.5973 192.937C101.218 192.937 109.304 193.024 109.304 194.861C109.304 196.699 101.218 196.785 99.5973 196.785ZM90.8266 194.861C91.4506 195.321 94.7006 195.919 99.5973 195.919C104.494 195.919 107.744 195.321 108.368 194.861C107.744 194.402 104.494 193.804 99.5973 193.804C94.7006 193.804 91.4506 194.402 90.8266 194.861Z" fill="#D1D3D4"/>
<path d="M225.463 190.935V196.378C225.463 198.033 219.266 199.368 211.596 199.368C203.926 199.368 197.729 198.033 197.729 196.378V190.935H225.463Z" fill="white"/>
<path d="M211.622 199.801C205.884 199.801 197.356 198.935 197.356 196.378V190.935C197.356 190.82 197.402 190.71 197.483 190.629C197.565 190.548 197.675 190.502 197.79 190.502H225.462C225.577 190.504 225.686 190.551 225.766 190.631C225.847 190.712 225.894 190.821 225.896 190.935V196.378C225.896 198.891 217.359 199.801 211.622 199.801ZM198.223 191.369V196.378C198.223 197.418 203.423 198.935 211.622 198.935C219.82 198.935 225.029 197.418 225.029 196.378V191.369H198.223Z" fill="#231F20"/>
<path d="M211.622 193.934C219.261 193.934 225.454 192.591 225.454 190.935C225.454 189.279 219.261 187.937 211.622 187.937C203.983 187.937 197.79 189.279 197.79 190.935C197.79 192.591 203.983 193.934 211.622 193.934Z" fill="white"/>
<path d="M211.622 194.367C205.884 194.367 197.356 193.449 197.356 190.901C197.356 188.353 205.884 187.477 211.622 187.477C217.359 187.477 225.896 188.344 225.896 190.901C225.896 193.457 217.359 194.367 211.622 194.367ZM211.622 188.379C203.44 188.379 198.223 189.895 198.223 190.935C198.223 191.975 203.423 193.535 211.622 193.535C219.82 193.535 225.029 192.019 225.029 190.935C225.029 189.852 219.803 188.379 211.622 188.379Z" fill="#231F20"/>
<path d="M211.622 192.859C210.001 192.859 201.924 192.773 201.924 190.935C201.924 189.098 210.001 189.011 211.622 189.011C213.242 189.011 221.329 189.107 221.329 190.935C221.329 192.764 213.242 192.859 211.622 192.859ZM202.851 190.935C203.475 191.395 206.725 191.993 211.622 191.993C216.518 191.993 219.777 191.395 220.401 190.935C219.768 190.476 216.518 189.878 211.622 189.878C206.725 189.878 203.475 190.476 202.851 190.935Z" fill="#D1D3D4"/>
<path d="M247.797 195.355V200.798C247.797 202.453 241.6 203.788 233.93 203.788C226.26 203.788 220.063 202.453 220.063 200.798V195.355H247.797Z" fill="white"/>
<path d="M234 204.221C228.262 204.221 219.726 203.355 219.726 200.798V195.355C219.728 195.241 219.774 195.132 219.855 195.051C219.936 194.971 220.045 194.924 220.159 194.922H247.832C247.947 194.922 248.057 194.968 248.138 195.049C248.219 195.13 248.265 195.24 248.265 195.355V200.798C248.23 203.311 239.694 204.221 234 204.221ZM220.592 195.789V200.798C220.592 201.838 225.792 203.355 234 203.355C242.207 203.355 247.398 201.838 247.398 200.798V195.789H220.592Z" fill="#231F20"/>
<path d="M233.965 198.354C241.604 198.354 247.797 197.011 247.797 195.355C247.797 193.699 241.604 192.357 233.965 192.357C226.326 192.357 220.133 193.699 220.133 195.355C220.133 197.011 226.326 198.354 233.965 198.354Z" fill="white"/>
<path d="M234 198.787C228.262 198.787 219.726 197.869 219.726 195.321C219.726 192.773 228.262 191.897 234 191.897C239.737 191.897 248.265 192.764 248.265 195.321C248.265 197.877 239.694 198.787 234 198.787ZM234 192.799C225.818 192.799 220.592 194.315 220.592 195.355C220.592 196.395 225.792 197.955 234 197.955C242.207 197.955 247.398 196.439 247.398 195.355C247.398 194.272 242.138 192.799 234 192.799Z" fill="#231F20"/>
<path d="M234 197.279C232.37 197.279 224.293 197.193 224.293 195.355C224.293 193.518 232.37 193.431 234 193.431C235.629 193.431 243.698 193.527 243.698 195.355C243.698 197.184 235.586 197.279 234 197.279ZM225.22 195.355C225.844 195.815 229.103 196.413 234 196.413C238.896 196.413 242.146 195.815 242.77 195.355C242.146 194.896 238.888 194.298 234 194.298C229.112 194.298 225.81 194.896 225.186 195.355H225.22Z" fill="#D1D3D4"/>
</svg>
