<svg width="347" height="260" viewBox="0 0 347 260" fill="none" xmlns="http://www.w3.org/2000/svg">
<path d="M287.806 36.1227H65.5322V169.936H287.806V36.1227Z" fill="white"/>
<path d="M287.806 170.369H65.532C65.417 170.369 65.3068 170.324 65.2256 170.242C65.1443 170.161 65.0986 170.051 65.0986 169.936V36.1227C65.0986 36.0077 65.1443 35.8975 65.2256 35.8163C65.3068 35.735 65.417 35.6893 65.532 35.6893H287.806C287.921 35.6893 288.031 35.735 288.112 35.8163C288.194 35.8975 288.239 36.0077 288.239 36.1227V169.936C288.239 170.051 288.194 170.161 288.112 170.242C288.031 170.324 287.921 170.369 287.806 170.369ZM65.9393 169.503H287.373V36.556H65.9653L65.9393 169.503Z" fill="#231F20"/>
<path d="M264.311 62.4347H244.976V81.77H264.311V62.4347Z" fill="white"/>
<path d="M264.311 82.2033H244.975C244.86 82.2033 244.75 82.1577 244.669 82.0764C244.588 81.9952 244.542 81.8849 244.542 81.77V62.4C244.542 62.2851 244.588 62.1749 244.669 62.0936C244.75 62.0123 244.86 61.9667 244.975 61.9667H264.311C264.425 61.9689 264.534 62.0153 264.615 62.096C264.695 62.1768 264.742 62.2858 264.744 62.4V81.77C264.744 81.8849 264.698 81.9952 264.617 82.0764C264.536 82.1577 264.426 82.2033 264.311 82.2033ZM245.409 81.3367H263.877V62.868H245.409V81.3367Z" fill="#D1D3D4"/>
<path d="M260.783 67.0193H248.494C248.38 67.0171 248.271 66.9707 248.19 66.8899C248.109 66.8091 248.063 66.7002 248.061 66.586C248.061 66.4711 248.106 66.3608 248.187 66.2796C248.269 66.1983 248.379 66.1526 248.494 66.1526H260.783C260.898 66.1526 261.008 66.1983 261.09 66.2796C261.171 66.3608 261.217 66.4711 261.217 66.586C261.217 66.7009 261.171 66.8111 261.09 66.8924C261.008 66.9737 260.898 67.0193 260.783 67.0193Z" fill="#D1D3D4"/>
<path d="M260.783 70.6247H248.494C248.379 70.6247 248.269 70.579 248.187 70.4977C248.106 70.4165 248.061 70.3063 248.061 70.1913C248.063 70.0771 248.109 69.9682 248.19 69.8874C248.271 69.8066 248.38 69.7602 248.494 69.758H260.783C260.898 69.758 261.008 69.8037 261.09 69.8849C261.171 69.9662 261.217 70.0764 261.217 70.1913C261.217 70.3063 261.171 70.4165 261.09 70.4977C261.008 70.579 260.898 70.6247 260.783 70.6247Z" fill="#D1D3D4"/>
<path d="M260.783 74.2387H248.494C248.379 74.2387 248.269 74.193 248.187 74.1118C248.106 74.0305 248.061 73.9203 248.061 73.8053C248.063 73.6911 248.109 73.5822 248.19 73.5014C248.271 73.4206 248.38 73.3742 248.494 73.372H260.783C260.898 73.372 261.008 73.4177 261.09 73.4989C261.171 73.5802 261.217 73.6904 261.217 73.8053C261.217 73.9203 261.171 74.0305 261.09 74.1118C261.008 74.193 260.898 74.2387 260.783 74.2387Z" fill="#D1D3D4"/>
<path d="M256 77.8527H248.538C248.423 77.8527 248.313 77.807 248.231 77.7258C248.15 77.6445 248.104 77.5343 248.104 77.4194C248.107 77.3051 248.153 77.1962 248.234 77.1154C248.315 77.0346 248.424 76.9882 248.538 76.986H256C256.114 76.9882 256.223 77.0346 256.304 77.1154C256.385 77.1962 256.431 77.3051 256.433 77.4194C256.433 77.5343 256.387 77.6445 256.306 77.7258C256.225 77.807 256.115 77.8527 256 77.8527Z" fill="#D1D3D4"/>
<path d="M93.8119 64.558H74.4766V83.8933H93.8119V64.558Z" fill="white"/>
<path d="M93.8116 84.3266H74.4763C74.3614 84.3266 74.2512 84.281 74.1699 84.1997C74.0886 84.1185 74.043 84.0082 74.043 83.8933V64.558C74.043 64.443 74.0886 64.3328 74.1699 64.2516C74.2512 64.1703 74.3614 64.1246 74.4763 64.1246H93.8116C93.9266 64.1246 94.0368 64.1703 94.118 64.2516C94.1993 64.3328 94.245 64.443 94.245 64.558V83.8933C94.2427 84.0075 94.1964 84.1165 94.1156 84.1973C94.0348 84.278 93.9259 84.3244 93.8116 84.3266ZM74.9096 83.46H93.3783V65H74.9096V83.46Z" fill="#D1D3D4"/>
<path d="M90.2842 69.134H77.9949C77.8799 69.134 77.7697 69.0883 77.6884 69.0071C77.6072 68.9258 77.5615 68.8156 77.5615 68.7007C77.5615 68.5857 77.6072 68.4755 77.6884 68.3943C77.7697 68.313 77.8799 68.2673 77.9949 68.2673H90.2842C90.3991 68.2673 90.5093 68.313 90.5906 68.3943C90.6719 68.4755 90.7175 68.5857 90.7175 68.7007C90.7175 68.8156 90.6719 68.9258 90.5906 69.0071C90.5093 69.0883 90.3991 69.134 90.2842 69.134Z" fill="#D1D3D4"/>
<path d="M90.2842 72.748H77.9949C77.8799 72.748 77.7697 72.7024 77.6884 72.6211C77.6072 72.5398 77.5615 72.4296 77.5615 72.3147C77.5615 72.1998 77.6072 72.0895 77.6884 72.0083C77.7697 71.927 77.8799 71.8813 77.9949 71.8813H90.2842C90.3991 71.8813 90.5093 71.927 90.5906 72.0083C90.6719 72.0895 90.7175 72.1998 90.7175 72.3147C90.7175 72.4296 90.6719 72.5398 90.5906 72.6211C90.5093 72.7024 90.3991 72.748 90.2842 72.748Z" fill="#D1D3D4"/>
<path d="M90.2842 76.362H77.9949C77.8799 76.362 77.7697 76.3163 77.6884 76.235C77.6072 76.1538 77.5615 76.0436 77.5615 75.9286C77.5615 75.8137 77.6072 75.7035 77.6884 75.6222C77.7697 75.541 77.8799 75.4953 77.9949 75.4953H90.2842C90.3991 75.4953 90.5093 75.541 90.5906 75.6222C90.6719 75.7035 90.7175 75.8137 90.7175 75.9286C90.7175 76.0436 90.6719 76.1538 90.5906 76.235C90.5093 76.3163 90.3991 76.362 90.2842 76.362Z" fill="#D1D3D4"/>
<path d="M85.4569 79.976H77.9949C77.8799 79.976 77.7697 79.9303 77.6884 79.8491C77.6072 79.7678 77.5615 79.6576 77.5615 79.5426C77.5615 79.4277 77.6072 79.3175 77.6884 79.2362C77.7697 79.155 77.8799 79.1093 77.9949 79.1093H85.4569C85.5718 79.1093 85.682 79.155 85.7633 79.2362C85.8445 79.3175 85.8902 79.4277 85.8902 79.5426C85.888 79.6569 85.8416 79.7658 85.7608 79.8466C85.68 79.9274 85.5711 79.9738 85.4569 79.976Z" fill="#D1D3D4"/>
<path d="M114.516 96.2173H95.1807V115.553H114.516V96.2173Z" fill="#D1D3D4"/>
<path d="M110.989 101.4H98.6999C98.585 101.4 98.4748 101.354 98.3935 101.273C98.3123 101.192 98.2666 101.082 98.2666 100.967C98.2688 100.852 98.3152 100.743 98.396 100.663C98.4768 100.582 98.5857 100.536 98.6999 100.533H110.989C111.104 100.533 111.214 100.579 111.296 100.66C111.377 100.742 111.423 100.852 111.423 100.967C111.423 101.082 111.377 101.192 111.296 101.273C111.214 101.354 111.104 101.4 110.989 101.4Z" fill="white"/>
<path d="M110.989 106.513H98.6999C98.585 106.513 98.4748 106.468 98.3935 106.386C98.3123 106.305 98.2666 106.195 98.2666 106.08C98.2688 105.966 98.3152 105.857 98.396 105.776C98.4768 105.695 98.5857 105.649 98.6999 105.647H110.989C111.104 105.647 111.214 105.692 111.296 105.774C111.377 105.855 111.423 105.965 111.423 106.08C111.423 106.195 111.377 106.305 111.296 106.386C111.214 106.468 111.104 106.513 110.989 106.513Z" fill="white"/>
<path d="M106.162 111.635H98.6999C98.585 111.635 98.4748 111.59 98.3935 111.508C98.3123 111.427 98.2666 111.317 98.2666 111.202C98.2688 111.088 98.3152 110.979 98.396 110.898C98.4768 110.817 98.5857 110.771 98.6999 110.769H106.162C106.276 110.771 106.385 110.817 106.466 110.898C106.547 110.979 106.593 111.088 106.595 111.202C106.595 111.317 106.55 111.427 106.468 111.508C106.387 111.59 106.277 111.635 106.162 111.635Z" fill="white"/>
<path d="M118.806 161.451C118.691 161.451 118.581 161.406 118.5 161.324C118.419 161.243 118.373 161.133 118.373 161.018V40.196C118.375 40.0818 118.422 39.9729 118.502 39.8921C118.583 39.8113 118.692 39.7649 118.806 39.7627C118.921 39.7627 119.032 39.8083 119.113 39.8896C119.194 39.9709 119.24 40.0811 119.24 40.196V161.018C119.24 161.133 119.194 161.243 119.113 161.324C119.032 161.406 118.921 161.451 118.806 161.451Z" fill="#D1D3D4"/>
<path d="M176.674 161.451C176.559 161.451 176.448 161.406 176.367 161.324C176.286 161.243 176.24 161.133 176.24 161.018V40.196C176.24 40.0811 176.286 39.9709 176.367 39.8896C176.448 39.8083 176.559 39.7627 176.674 39.7627C176.788 39.7649 176.897 39.8113 176.978 39.8921C177.058 39.9729 177.105 40.0818 177.107 40.196V161.018C177.107 161.133 177.061 161.243 176.98 161.324C176.899 161.406 176.788 161.451 176.674 161.451Z" fill="#D1D3D4"/>
<path d="M234.532 161.451C234.417 161.451 234.307 161.406 234.226 161.324C234.144 161.243 234.099 161.133 234.099 161.018V40.196C234.101 40.0818 234.147 39.9729 234.228 39.8921C234.309 39.8113 234.418 39.7649 234.532 39.7627C234.647 39.7627 234.757 39.8083 234.838 39.8896C234.92 39.9709 234.965 40.0811 234.965 40.196V161.018C234.965 161.133 234.92 161.243 234.838 161.324C234.757 161.406 234.647 161.451 234.532 161.451Z" fill="#D1D3D4"/>
<path d="M245.166 192.097C245.166 192.097 235.251 187.07 230.225 189.583C225.198 192.097 222.234 192.097 222.425 193.917C222.615 195.737 224.938 195.745 224.938 195.745C224.938 195.745 221.965 197.089 223.794 198.345C224.858 199.101 226.149 199.469 227.451 199.385C227.451 199.385 222.65 200.989 224.938 202.358C227.226 203.727 232.097 203.329 233.769 203.641C235.442 203.953 250.288 208.754 250.288 208.754L245.166 192.097Z" fill="white"/>
<path d="M250.323 209.205C250.277 209.214 250.23 209.214 250.184 209.205C250.037 209.161 235.347 204.412 233.717 204.109C232.979 204.014 232.235 203.962 231.49 203.953C229.228 203.875 226.42 203.779 224.739 202.774C223.993 202.323 223.872 201.821 223.915 201.483C223.993 200.763 224.86 200.148 225.709 199.749C224.945 199.564 224.222 199.238 223.577 198.787C223.333 198.658 223.13 198.463 222.992 198.224C222.854 197.985 222.787 197.711 222.797 197.435C222.857 197.151 222.973 196.881 223.138 196.641C223.303 196.401 223.515 196.197 223.759 196.04C223.308 195.912 222.904 195.655 222.597 195.301C222.289 194.947 222.091 194.511 222.026 194.047C221.844 192.547 223.196 192.045 225.432 191.213C226.991 190.626 228.516 189.951 229.999 189.193C235.156 186.593 244.915 191.499 245.322 191.707C245.425 191.763 245.502 191.856 245.539 191.967L250.695 208.641C250.72 208.716 250.723 208.796 250.705 208.873C250.686 208.949 250.647 209.019 250.591 209.075C250.519 209.147 250.424 209.192 250.323 209.205ZM227.486 198.969C227.584 198.969 227.678 199.003 227.754 199.064C227.83 199.126 227.882 199.212 227.902 199.307C227.927 199.413 227.912 199.524 227.859 199.619C227.806 199.713 227.719 199.785 227.616 199.819C226.299 200.261 224.843 201.058 224.791 201.552C224.791 201.725 225.068 201.925 225.198 202.003C226.68 202.869 229.531 202.991 231.533 203.069C232.319 203.069 233.104 203.124 233.882 203.233C235.355 203.511 246.527 207.09 249.655 208.095L244.802 192.4C243.511 191.776 234.844 187.755 230.415 189.973C228.893 190.721 227.331 191.384 225.735 191.958C223.508 192.781 222.797 193.119 222.893 193.873C223.066 195.295 224.895 195.321 224.973 195.321C225.07 195.322 225.164 195.357 225.24 195.418C225.316 195.48 225.368 195.565 225.389 195.66C225.41 195.756 225.398 195.855 225.356 195.943C225.313 196.031 225.243 196.102 225.155 196.144C224.557 196.413 223.707 197.011 223.673 197.444C223.673 197.617 223.794 197.808 224.08 198.007C225.059 198.695 226.239 199.037 227.434 198.978L227.486 198.969Z" fill="#231F20"/>
<path d="M234.176 206.483L228.699 184.253L209.052 188.517L213.368 211.501L234.176 206.483Z" fill="white"/>
<path d="M213.369 211.935C213.285 211.938 213.203 211.914 213.135 211.865C213.083 211.835 213.039 211.794 213.006 211.744C212.973 211.695 212.952 211.638 212.944 211.579L208.611 188.595C208.59 188.484 208.614 188.369 208.677 188.275C208.74 188.181 208.838 188.116 208.949 188.093L228.587 183.829C228.698 183.805 228.813 183.825 228.908 183.885C229.003 183.945 229.072 184.04 229.099 184.149L234.576 206.379C234.592 206.434 234.597 206.492 234.589 206.549C234.582 206.605 234.563 206.66 234.533 206.709C234.472 206.805 234.375 206.874 234.264 206.899L213.464 211.926L213.369 211.935ZM209.564 188.855L213.707 210.973L233.64 206.163L228.371 184.773L209.564 188.855Z" fill="#D1D3D4"/>
<path d="M233.916 190.814C233.916 190.814 222.771 191.793 223.88 193.882C224.99 195.971 232.088 195.52 232.088 195.52C232.088 195.52 232.209 200.139 235.97 199.524" fill="white"/>
<path d="M235.312 200.018C234.557 200.035 233.822 199.78 233.24 199.299C232.338 198.417 231.786 197.237 231.689 195.979C230.008 196.049 224.574 196.118 223.499 194.09C223.414 193.941 223.369 193.772 223.369 193.6C223.369 193.429 223.414 193.26 223.499 193.111C224.478 191.291 232.322 190.511 233.899 190.381C234.014 190.37 234.128 190.406 234.217 190.48C234.305 190.554 234.361 190.66 234.371 190.775C234.382 190.89 234.346 191.004 234.272 191.093C234.198 191.181 234.092 191.237 233.977 191.247C230.285 191.577 224.834 192.495 224.279 193.527C224.26 193.55 224.25 193.579 224.25 193.609C224.25 193.639 224.26 193.668 224.279 193.691C224.99 195.035 229.436 195.269 232.079 195.095C232.196 195.091 232.311 195.131 232.4 195.208C232.443 195.248 232.477 195.296 232.501 195.35C232.525 195.403 232.538 195.461 232.538 195.52C232.538 195.52 232.608 197.652 233.812 198.64C234.107 198.869 234.449 199.03 234.813 199.111C235.177 199.191 235.555 199.191 235.918 199.108C235.975 199.099 236.033 199.101 236.089 199.114C236.146 199.128 236.198 199.152 236.245 199.186C236.292 199.22 236.331 199.262 236.362 199.311C236.392 199.361 236.412 199.415 236.421 199.472C236.43 199.529 236.428 199.587 236.415 199.643C236.401 199.699 236.377 199.752 236.343 199.799C236.309 199.845 236.267 199.885 236.218 199.915C236.168 199.945 236.114 199.966 236.057 199.975C235.81 200.006 235.561 200.021 235.312 200.018Z" fill="#231F20"/>
<path d="M304.593 166.608C304.593 166.608 317.888 202.895 308.398 206.57C298.908 210.245 262.3 198.415 262.3 198.415L265.827 180.986L304.593 166.608Z" fill="white"/>
<path d="M303.224 207.714C289.826 207.714 263.462 199.247 262.17 198.831C262.07 198.797 261.986 198.729 261.932 198.638C261.878 198.548 261.858 198.441 261.876 198.337L265.403 180.908C265.419 180.836 265.453 180.769 265.502 180.713C265.55 180.657 265.611 180.614 265.68 180.587L304.446 166.201C304.552 166.157 304.67 166.157 304.776 166.201C304.879 166.249 304.96 166.336 305.001 166.443C305.556 167.943 318.33 203.181 308.554 206.969C306.835 207.526 305.031 207.778 303.224 207.714ZM262.803 198.12C266.668 199.342 299.498 209.551 308.234 206.171C311.891 204.75 312.376 197.505 309.638 185.311C308.206 179.168 306.435 173.109 304.334 167.163L266.2 181.315L262.803 198.12Z" fill="#231F20"/>
<path d="M292.07 132.011C292.07 132.011 298.388 135.477 309.17 173.203L289.713 180.267L292.07 132.011Z" fill="#FF6C22"/>
<path d="M216.159 106.175H196.823V125.511H216.159V106.175Z" fill="white"/>
<path d="M216.133 125.944H196.824C196.709 125.944 196.599 125.898 196.518 125.817C196.436 125.736 196.391 125.626 196.391 125.511V106.175C196.391 106.06 196.436 105.95 196.518 105.869C196.599 105.788 196.709 105.742 196.824 105.742H216.133C216.248 105.742 216.358 105.788 216.44 105.869C216.521 105.95 216.567 106.06 216.567 106.175V125.511C216.567 125.626 216.521 125.736 216.44 125.817C216.358 125.898 216.248 125.944 216.133 125.944ZM197.231 125.077H215.7V106.6H197.257L197.231 125.077Z" fill="#D1D3D4"/>
<path d="M212.667 110.751H200.343C200.228 110.749 200.119 110.703 200.039 110.622C199.958 110.541 199.911 110.432 199.909 110.318C199.909 110.203 199.955 110.093 200.036 110.012C200.117 109.93 200.228 109.885 200.343 109.885H212.667C212.781 109.885 212.892 109.93 212.973 110.012C213.054 110.093 213.1 110.203 213.1 110.318C213.098 110.432 213.051 110.541 212.97 110.622C212.89 110.703 212.781 110.749 212.667 110.751Z" fill="#D1D3D4"/>
<path d="M212.667 114.4H200.343C200.228 114.398 200.119 114.351 200.039 114.271C199.958 114.19 199.911 114.081 199.909 113.967C199.909 113.852 199.955 113.742 200.036 113.66C200.117 113.579 200.228 113.533 200.343 113.533H212.667C212.781 113.533 212.892 113.579 212.973 113.66C213.054 113.742 213.1 113.852 213.1 113.967C213.098 114.081 213.051 114.19 212.97 114.271C212.89 114.351 212.781 114.398 212.667 114.4Z" fill="#D1D3D4"/>
<path d="M212.667 117.979H200.343C200.228 117.977 200.119 117.931 200.039 117.85C199.958 117.769 199.911 117.66 199.909 117.546C199.909 117.431 199.955 117.321 200.036 117.24C200.117 117.158 200.228 117.113 200.343 117.113H212.667C212.781 117.113 212.892 117.158 212.973 117.24C213.054 117.321 213.1 117.431 213.1 117.546C213.098 117.66 213.051 117.769 212.97 117.85C212.89 117.931 212.781 117.977 212.667 117.979Z" fill="#D1D3D4"/>
<path d="M207.805 121.593H200.343C200.228 121.591 200.119 121.545 200.039 121.464C199.958 121.383 199.911 121.274 199.909 121.16C199.909 121.045 199.955 120.935 200.036 120.854C200.117 120.772 200.228 120.727 200.343 120.727H207.805C207.919 120.727 208.03 120.772 208.111 120.854C208.192 120.935 208.238 121.045 208.238 121.16C208.236 121.274 208.189 121.383 208.108 121.464C208.028 121.545 207.919 121.591 207.805 121.593Z" fill="#D1D3D4"/>
<path d="M243.407 164.008C243.407 164.008 225.943 177.953 216.999 175.387C208.055 172.822 201.399 140.435 195.333 128.501C188.755 115.501 193.764 110.578 196.199 108.923C197.933 107.761 199.423 116.454 201.053 118.413C201.607 115.873 200.68 113.715 202.838 115.215C204.372 116.281 205.187 127.175 205.187 127.175C205.187 127.175 225.909 153.391 226.853 153.487L234.653 147.81" fill="white"/>
<path d="M219.461 176.133C218.6 176.141 217.743 176.031 216.913 175.803C210.794 174.07 206.01 159.666 201.391 145.773C199.155 139.048 197.058 132.695 195.021 128.7C188.651 116.142 192.898 110.699 196 108.567C196.122 108.475 196.265 108.414 196.416 108.39C196.567 108.366 196.722 108.379 196.867 108.429C197.838 108.749 198.531 110.63 199.562 113.681C199.987 114.937 200.429 116.211 200.845 117.147C200.845 116.827 200.888 116.515 200.897 116.237C200.897 115.31 200.958 114.643 201.478 114.383C201.998 114.123 202.57 114.478 203.142 114.877C204.728 115.977 205.499 124.904 205.664 127.01C213.403 136.803 225.086 151.337 226.923 152.958L234.437 147.463C234.531 147.397 234.646 147.371 234.759 147.388C234.873 147.406 234.975 147.467 235.044 147.559C235.077 147.605 235.101 147.657 235.115 147.712C235.128 147.768 235.131 147.825 235.122 147.882C235.113 147.938 235.093 147.992 235.063 148.041C235.034 148.09 234.994 148.132 234.948 148.165L227.192 153.833C227.107 153.896 227.002 153.927 226.897 153.92C225.935 153.825 214.4 139.473 204.901 127.443C204.844 127.374 204.811 127.29 204.806 127.201C204.476 122.772 203.584 116.229 202.648 115.57C202.041 115.154 201.859 115.145 201.842 115.154C201.794 115.519 201.768 115.887 201.764 116.255C201.754 117.012 201.673 117.766 201.521 118.508C201.504 118.587 201.465 118.66 201.408 118.719C201.351 118.777 201.279 118.818 201.2 118.837C201.121 118.856 201.039 118.852 200.963 118.826C200.886 118.8 200.818 118.753 200.767 118.69C200.056 117.823 199.424 115.951 198.748 113.958C198.072 111.965 197.222 109.46 196.59 109.252C196.59 109.252 196.59 109.252 196.503 109.252C193.634 111.219 189.726 116.315 195.801 128.319C197.855 132.375 199.978 138.719 202.223 145.505C206.556 158.548 211.479 173.342 217.164 174.971C225.744 177.441 242.974 163.809 243.164 163.705C243.255 163.645 243.364 163.621 243.472 163.637C243.579 163.654 243.676 163.711 243.743 163.796C243.811 163.881 243.844 163.988 243.836 164.096C243.829 164.205 243.78 164.306 243.702 164.381C243 164.875 228.795 176.133 219.461 176.133Z" fill="#231F20"/>
<path d="M257.62 102.995C257.62 102.995 252.741 110.127 253.703 111.661C254.665 113.195 257.958 112.233 257.958 112.233" fill="white"/>
<path d="M255.896 112.944C255.414 112.996 254.927 112.925 254.481 112.739C254.034 112.553 253.641 112.256 253.339 111.878C252.299 110.249 256.086 104.477 257.265 102.752C257.297 102.704 257.338 102.664 257.386 102.632C257.434 102.601 257.488 102.579 257.545 102.569C257.601 102.558 257.659 102.559 257.715 102.571C257.771 102.583 257.824 102.607 257.872 102.639C257.963 102.706 258.026 102.805 258.047 102.916C258.068 103.027 258.046 103.142 257.984 103.237C255.714 106.557 253.573 110.63 254.067 111.41C254.717 112.424 257.014 112.034 257.837 111.8C257.952 111.768 258.075 111.783 258.179 111.841C258.283 111.9 258.359 111.997 258.392 112.112C258.424 112.227 258.409 112.35 258.35 112.454C258.292 112.558 258.194 112.635 258.08 112.667C257.366 112.85 256.632 112.943 255.896 112.944Z" fill="#231F20"/>
<path d="M258.79 93.4787C255.722 95.9053 256.519 101.157 256.485 104.563C256.45 109.353 256.522 114.143 256.701 118.933C256.814 121.975 264.675 122.165 266.079 121.281L264.666 133.259L281.289 127.192L280.985 113.325C280.985 113.325 275.785 113.325 272.813 107.042C269.84 100.759 270.126 91.2947 270.126 91.2947C270.126 91.2947 261.797 91.104 258.79 93.4787Z" fill="white"/>
<path d="M264.666 133.692C264.568 133.691 264.474 133.657 264.397 133.597C264.339 133.551 264.293 133.491 264.264 133.423C264.235 133.355 264.225 133.28 264.233 133.207L265.576 121.94C263.765 122.382 259.995 122.243 257.915 121.151C257.465 120.974 257.073 120.675 256.784 120.288C256.495 119.901 256.319 119.44 256.277 118.959C256.095 114.192 256.025 109.347 256.06 104.572C256.06 104 256.06 103.376 256.06 102.726C255.956 99.4153 255.835 95.2987 258.565 93.1927C261.65 90.7487 269.831 90.9133 270.161 90.9133C270.276 90.9178 270.386 90.9676 270.465 91.0519C270.545 91.1361 270.588 91.2482 270.585 91.364C270.585 91.4593 270.343 100.845 273.185 106.912C276.011 112.831 280.925 112.979 280.985 112.979C281.098 112.981 281.206 113.026 281.286 113.105C281.367 113.184 281.414 113.291 281.419 113.403L281.722 127.27C281.723 127.36 281.695 127.448 281.644 127.523C281.593 127.597 281.521 127.654 281.436 127.686L264.813 133.753C264.761 133.742 264.711 133.721 264.666 133.692ZM266.087 120.848C266.171 120.845 266.253 120.87 266.321 120.917C266.39 120.962 266.445 121.024 266.48 121.097C266.515 121.171 266.529 121.252 266.521 121.333L265.177 132.6L280.847 126.871L280.561 113.715C279.217 113.568 275.014 112.658 272.423 107.224C269.771 101.66 269.667 93.6953 269.684 91.7193C267.951 91.7193 261.537 91.8667 259.067 93.808C256.684 95.6973 256.805 99.5713 256.901 102.683C256.901 103.341 256.901 103.983 256.901 104.563C256.901 109.321 256.901 114.149 257.117 118.915C257.117 119.479 257.533 119.964 258.296 120.371C260.523 121.541 264.917 121.481 265.827 120.909C265.902 120.86 265.991 120.839 266.079 120.848H266.087Z" fill="#231F20"/>
<path d="M298.058 223.877L298.076 199.541L242.878 199.247L237.201 223.877H298.058Z" fill="#231F20"/>
<path d="M298.059 224.311H237.202C237.137 224.309 237.074 224.294 237.016 224.265C236.958 224.237 236.906 224.196 236.866 224.146C236.825 224.095 236.797 224.036 236.781 223.974C236.766 223.911 236.764 223.845 236.777 223.782L242.454 199.143C242.477 199.048 242.532 198.964 242.609 198.904C242.686 198.844 242.781 198.812 242.878 198.813L298.076 199.108C298.191 199.11 298.3 199.157 298.38 199.237C298.461 199.318 298.508 199.427 298.51 199.541V223.877C298.51 223.936 298.498 223.994 298.475 224.047C298.452 224.101 298.419 224.15 298.377 224.19C298.335 224.23 298.285 224.262 298.23 224.283C298.176 224.304 298.118 224.313 298.059 224.311ZM237.748 223.444H297.6V199.975L243.182 199.68L237.748 223.444Z" fill="#231F20"/>
<path d="M255.506 130.286C263.349 123.517 288.725 122.365 292.071 132.019C295.416 141.674 300.382 201.717 300.382 201.717C281.827 208.017 239.473 201.829 239.473 201.829L245.418 172.848C245.418 172.848 247.047 137.592 255.506 130.286Z" fill="#FF6C22"/>
<path d="M266.079 121.281C266.079 121.281 270.118 121.151 272.059 118.387C272.059 118.387 271.808 123.214 265.524 125.225L266.079 121.281Z" fill="#231F20"/>
<path d="M265.533 125.667C265.432 125.667 265.335 125.633 265.256 125.571C265.198 125.524 265.153 125.462 265.126 125.392C265.099 125.322 265.09 125.247 265.1 125.173L265.654 121.229C265.67 121.129 265.72 121.037 265.796 120.969C265.872 120.901 265.969 120.861 266.07 120.857C266.114 120.857 269.918 120.701 271.712 118.153C271.765 118.074 271.842 118.016 271.931 117.986C272.021 117.956 272.117 117.957 272.206 117.988C272.295 118.019 272.372 118.078 272.425 118.156C272.478 118.234 272.504 118.327 272.501 118.421C272.501 118.629 272.154 123.569 265.663 125.649C265.621 125.664 265.577 125.669 265.533 125.667ZM266.469 121.697L266.062 124.592C267.216 124.228 268.278 123.619 269.176 122.807C270.073 121.995 270.785 120.999 271.262 119.886C269.858 120.918 268.196 121.542 266.46 121.689L266.469 121.697Z" fill="#231F20"/>
<path d="M259.383 102.404C259.756 102.384 260.017 101.601 259.965 100.654C259.914 99.708 259.57 98.9572 259.197 98.9774C258.825 98.9975 258.564 99.7811 258.615 100.727C258.667 101.674 259.01 102.425 259.383 102.404Z" fill="#231F20"/>
<path d="M255.505 130.286L227.382 148.313L238.12 177.337L259.431 168.723L255.505 130.286Z" fill="#FF6C22"/>
<path d="M244.733 174.772C244.656 174.772 244.58 174.752 244.513 174.714C244.447 174.676 244.391 174.621 244.352 174.555C244.295 174.456 244.279 174.339 244.308 174.229C244.338 174.118 244.409 174.024 244.508 173.966C244.646 173.888 257.655 166.287 263.843 159.233C263.879 159.189 263.924 159.154 263.975 159.128C264.025 159.102 264.081 159.087 264.137 159.083C264.194 159.079 264.25 159.086 264.304 159.105C264.358 159.123 264.407 159.152 264.45 159.189C264.536 159.266 264.588 159.373 264.596 159.488C264.604 159.603 264.567 159.717 264.493 159.805C258.218 167.007 245.08 174.677 244.95 174.755C244.879 174.776 244.805 174.782 244.733 174.772Z" fill="#231F20"/>
<path d="M299.047 187.061C298.939 187.064 298.833 187.025 298.753 186.952C298.672 186.88 298.622 186.779 298.614 186.671C297.747 176.679 294.61 150.193 294.575 149.925C294.565 149.81 294.599 149.697 294.67 149.606C294.74 149.516 294.843 149.456 294.956 149.439C295.071 149.427 295.186 149.46 295.277 149.531C295.367 149.602 295.426 149.706 295.442 149.821C295.442 150.089 298.579 176.592 299.48 186.593C299.488 186.708 299.45 186.821 299.376 186.908C299.301 186.995 299.196 187.05 299.082 187.061H299.047Z" fill="#231F20"/>
<path d="M256.554 114.166C256.554 114.166 262.811 113.932 262.811 114.166C262.106 115.612 260.861 116.723 259.344 117.26C258.776 117.408 258.172 117.328 257.661 117.039C257.15 116.749 256.771 116.272 256.606 115.709L256.554 114.166Z" fill="#231F20"/>
<path d="M258.668 117.771C258.102 117.748 257.557 117.548 257.11 117.198C256.664 116.848 256.339 116.366 256.181 115.821C256.177 115.784 256.177 115.746 256.181 115.709L256.138 114.183C256.135 114.069 256.177 113.958 256.255 113.874C256.332 113.79 256.44 113.739 256.554 113.733C262.785 113.499 262.967 113.672 263.123 113.819C263.21 113.907 263.26 114.025 263.262 114.149C262.921 114.975 262.405 115.717 261.75 116.325C261.095 116.932 260.315 117.39 259.466 117.667C259.205 117.735 258.938 117.77 258.668 117.771ZM257.03 115.613C257.09 115.84 257.195 116.052 257.339 116.237C257.483 116.422 257.663 116.575 257.867 116.689C258.072 116.802 258.298 116.873 258.531 116.896C258.764 116.92 259 116.896 259.223 116.827C260.431 116.4 261.46 115.578 262.144 114.495C261.173 114.495 259.041 114.495 257.004 114.582L257.03 115.613Z" fill="#231F20"/>
<path d="M291.082 86.7186C296.663 92.4993 298.509 100.906 299.177 108.914C299.844 116.922 299.61 125.129 302.028 132.799C304.169 139.62 308.415 146.354 307.003 153.365C306.136 157.491 303.389 161.044 299.957 163.479C296.437 165.809 292.508 167.453 288.378 168.324C283.109 169.615 274.633 171.175 269.901 167.457C268.235 166.063 266.942 164.276 266.139 162.257C263.609 156.451 263.617 149.76 265.16 143.615C267.067 136.041 271.972 129.974 274.234 122.633C274.806 120.761 275.274 118.742 274.763 116.853C274.251 114.963 272.683 113.291 271.452 111.653C267.734 106.557 267.431 100.715 268.601 94.77C265.403 94.5533 256.97 95.5326 257.923 89.8213C258.235 87.9666 259.657 86.502 261.095 85.3233C261.893 84.6854 262.736 84.1061 263.617 83.59C272.085 78.5113 284.149 79.5426 291.082 86.7186Z" fill="white"/>
<path d="M278.316 170.213C275.161 170.213 271.955 169.641 269.649 167.83C267.92 166.394 266.584 164.542 265.766 162.448C263.409 157.04 263.054 150.315 264.761 143.529C265.784 139.438 267.699 135.729 269.554 132.167C271.268 129.086 272.7 125.858 273.835 122.521C274.527 120.761 274.71 118.842 274.364 116.983C273.857 115.534 273.065 114.201 272.033 113.065C271.721 112.675 271.417 112.285 271.123 111.887C267.847 107.397 266.858 101.92 268.098 95.1513H266.807C263.921 95.1513 259.96 95.0907 258.253 93.054C257.887 92.592 257.631 92.0538 257.502 91.4792C257.373 90.9047 257.374 90.3084 257.507 89.7347C257.871 87.5767 259.587 85.982 260.844 84.9767C261.667 84.3178 262.536 83.7183 263.444 83.1827C272.301 77.9307 284.599 79.352 291.446 86.4327C296.178 91.338 298.787 98.4707 299.662 108.897C299.835 110.951 299.948 113.048 300.06 115.076C300.381 120.952 300.711 127.027 302.487 132.687C303.068 134.515 303.804 136.37 304.524 138.173C306.5 143.113 308.536 148.226 307.479 153.469C306.453 157.713 303.85 161.407 300.199 163.8C297.192 165.932 293.465 167.492 288.473 168.714C285.157 169.608 281.748 170.111 278.316 170.213ZM275.3 80.86C271.262 80.8281 267.29 81.8817 263.799 83.9107C262.936 84.4293 262.11 85.0086 261.329 85.644C259.509 87.1087 258.556 88.452 258.313 89.8733C258.204 90.32 258.197 90.7854 258.291 91.2353C258.386 91.6852 258.58 92.1083 258.859 92.4733C260.315 94.2067 264.198 94.2067 266.755 94.2673C267.465 94.2673 268.089 94.2673 268.592 94.2673C268.655 94.2706 268.716 94.2879 268.772 94.3178C268.827 94.3478 268.875 94.3898 268.912 94.4407C268.949 94.4899 268.974 94.5461 268.988 94.6058C269.001 94.6655 269.002 94.7273 268.99 94.7873C267.664 101.53 268.566 106.921 271.773 111.332C272.059 111.722 272.353 112.103 272.639 112.485C273.748 113.71 274.594 115.15 275.127 116.714C275.526 118.732 275.339 120.822 274.589 122.737C273.444 126.123 271.993 129.398 270.256 132.522C268.436 136.049 266.538 139.707 265.541 143.702C263.877 150.306 264.215 156.832 266.494 162.058C267.26 164.017 268.506 165.751 270.117 167.102C275.187 171.045 285.007 168.653 288.231 167.865C293.11 166.669 296.741 165.152 299.662 163.081C303.106 160.777 305.559 157.263 306.534 153.235C307.54 148.243 305.547 143.26 303.623 138.433C302.903 136.621 302.149 134.741 301.568 132.886C299.757 127.123 299.419 120.995 299.099 115.067C298.986 113.039 298.873 110.951 298.7 108.905C297.833 98.696 295.311 91.728 290.727 86.9787C288.687 84.99 286.274 83.4253 283.626 82.3751C280.978 81.3248 278.148 80.8099 275.3 80.86Z" fill="#231F20"/>
<path d="M266.746 105.889C266.899 104.692 267.382 103.56 268.141 102.622C268.608 101.822 269.192 101.098 269.875 100.473C270.226 100.164 270.642 99.9378 271.091 99.809C271.541 99.6801 272.013 99.6522 272.475 99.7273C272.874 99.8346 273.245 100.025 273.565 100.287C273.884 100.548 274.145 100.874 274.329 101.244C274.694 101.989 274.886 102.807 274.893 103.636C274.944 105.435 274.522 107.216 273.669 108.801C272.815 110.386 271.561 111.719 270.031 112.667L270.299 112.381" fill="white"/>
<path d="M270.031 113.109C269.945 113.109 269.862 113.084 269.79 113.037C269.719 112.99 269.663 112.923 269.629 112.844C269.596 112.766 269.587 112.679 269.603 112.595C269.619 112.511 269.659 112.433 269.719 112.372L269.988 112.095C270.031 112.047 270.084 112.01 270.145 111.987C270.205 111.964 270.27 111.957 270.334 111.965C271.652 111.024 272.72 109.774 273.444 108.325C274.167 106.876 274.525 105.272 274.486 103.653C274.483 102.89 274.308 102.138 273.974 101.452C273.82 101.136 273.601 100.857 273.33 100.633C273.06 100.409 272.744 100.245 272.406 100.152C272.009 100.092 271.603 100.12 271.219 100.233C270.834 100.347 270.479 100.544 270.178 100.811C269.522 101.411 268.955 102.102 268.497 102.865C267.792 103.742 267.337 104.793 267.18 105.907C267.178 105.964 267.166 106.02 267.142 106.073C267.119 106.125 267.085 106.172 267.043 106.211C267.001 106.25 266.951 106.28 266.897 106.299C266.843 106.318 266.786 106.326 266.729 106.323C266.672 106.32 266.616 106.307 266.564 106.283C266.513 106.259 266.466 106.225 266.427 106.184C266.389 106.142 266.359 106.093 266.339 106.039C266.319 105.986 266.311 105.929 266.313 105.872C266.472 104.603 266.979 103.404 267.778 102.405C268.28 101.571 268.906 100.818 269.632 100.169C270.029 99.8106 270.502 99.5463 271.015 99.3962C271.528 99.2461 272.069 99.2142 272.596 99.3027C273.058 99.4172 273.489 99.6318 273.859 99.9313C274.229 100.231 274.529 100.608 274.737 101.036C275.139 101.844 275.35 102.734 275.352 103.636C275.399 105.516 274.953 107.375 274.059 109.029C273.165 110.683 271.854 112.074 270.256 113.065C270.187 113.101 270.109 113.116 270.031 113.109Z" fill="#231F20"/>
<path d="M160.085 106.34H141.296V125.129H160.085V106.34Z" fill="white"/>
<path d="M160.086 125.563H141.297C141.182 125.563 141.071 125.517 140.99 125.436C140.909 125.354 140.863 125.244 140.863 125.129V106.34C140.863 106.225 140.909 106.115 140.99 106.034C141.071 105.952 141.182 105.907 141.297 105.907H160.086C160.201 105.907 160.311 105.952 160.392 106.034C160.474 106.115 160.519 106.225 160.519 106.34V125.129C160.519 125.244 160.474 125.354 160.392 125.436C160.311 125.517 160.201 125.563 160.086 125.563ZM141.73 124.696H159.653V106.773H141.73V124.696Z" fill="#D1D3D4"/>
<path d="M156.662 110.795H144.719C144.605 110.795 144.494 110.749 144.413 110.668C144.332 110.586 144.286 110.476 144.286 110.361C144.286 110.246 144.332 110.136 144.413 110.055C144.494 109.974 144.605 109.928 144.719 109.928H156.662C156.777 109.928 156.887 109.974 156.969 110.055C157.05 110.136 157.095 110.246 157.095 110.361C157.095 110.476 157.05 110.586 156.969 110.668C156.887 110.749 156.777 110.795 156.662 110.795Z" fill="#D1D3D4"/>
<path d="M156.662 114.305H144.719C144.605 114.305 144.494 114.259 144.413 114.178C144.332 114.096 144.286 113.986 144.286 113.871C144.286 113.756 144.332 113.646 144.413 113.565C144.494 113.484 144.605 113.438 144.719 113.438H156.662C156.777 113.438 156.887 113.484 156.969 113.565C157.05 113.646 157.095 113.756 157.095 113.871C157.095 113.986 157.05 114.096 156.969 114.178C156.887 114.259 156.777 114.305 156.662 114.305Z" fill="#D1D3D4"/>
<path d="M156.662 117.867H144.719C144.605 117.867 144.494 117.821 144.413 117.74C144.332 117.658 144.286 117.548 144.286 117.433C144.286 117.318 144.332 117.208 144.413 117.127C144.494 117.046 144.605 117 144.719 117H156.662C156.777 117 156.887 117.046 156.969 117.127C157.05 117.208 157.095 117.318 157.095 117.433C157.095 117.548 157.05 117.658 156.969 117.74C156.887 117.821 156.777 117.867 156.662 117.867Z" fill="#D1D3D4"/>
<path d="M151.999 121.333H144.719C144.605 121.333 144.494 121.288 144.413 121.206C144.332 121.125 144.286 121.015 144.286 120.9C144.286 120.785 144.332 120.675 144.413 120.594C144.494 120.512 144.605 120.467 144.719 120.467H151.999C152.114 120.467 152.225 120.512 152.306 120.594C152.387 120.675 152.433 120.785 152.433 120.9C152.433 121.015 152.387 121.125 152.306 121.206C152.225 121.288 152.114 121.333 151.999 121.333Z" fill="#D1D3D4"/>
<path d="M169.584 135.659H150.249V154.995H169.584V135.659Z" fill="white"/>
<path d="M169.584 155.428H150.266C150.151 155.428 150.041 155.382 149.96 155.301C149.879 155.22 149.833 155.11 149.833 154.995V135.659C149.833 135.544 149.879 135.434 149.96 135.353C150.041 135.272 150.151 135.226 150.266 135.226H169.602C169.717 135.226 169.827 135.272 169.908 135.353C169.989 135.434 170.035 135.544 170.035 135.659V154.995C170.035 155.053 170.023 155.111 170 155.165C169.978 155.218 169.944 155.267 169.902 155.307C169.86 155.348 169.81 155.379 169.755 155.4C169.701 155.421 169.643 155.43 169.584 155.428ZM150.682 154.561H169.151V136.067H150.682V154.561Z" fill="#D1D3D4"/>
<path d="M166.066 140.235H153.733C153.618 140.235 153.508 140.19 153.427 140.108C153.345 140.027 153.3 139.917 153.3 139.802C153.3 139.687 153.345 139.577 153.427 139.496C153.508 139.414 153.618 139.369 153.733 139.369H166.031C166.146 139.369 166.256 139.414 166.338 139.496C166.419 139.577 166.464 139.687 166.464 139.802C166.464 139.917 166.419 140.027 166.338 140.108C166.256 140.19 166.146 140.235 166.031 140.235H166.066Z" fill="#D1D3D4"/>
<path d="M166.066 143.867H153.733C153.618 143.867 153.508 143.821 153.427 143.74C153.345 143.658 153.3 143.548 153.3 143.433C153.3 143.318 153.345 143.208 153.427 143.127C153.508 143.046 153.618 143 153.733 143H166.031C166.146 143 166.256 143.046 166.338 143.127C166.419 143.208 166.464 143.318 166.464 143.433C166.464 143.548 166.419 143.658 166.338 143.74C166.256 143.821 166.146 143.867 166.031 143.867H166.066Z" fill="#D1D3D4"/>
<path d="M166.066 147.463H153.733C153.618 147.463 153.508 147.418 153.427 147.336C153.345 147.255 153.3 147.145 153.3 147.03C153.3 146.915 153.345 146.805 153.427 146.724C153.508 146.642 153.618 146.597 153.733 146.597H166.031C166.146 146.597 166.256 146.642 166.338 146.724C166.419 146.805 166.464 146.915 166.464 147.03C166.464 147.145 166.419 147.255 166.338 147.336C166.256 147.418 166.146 147.463 166.031 147.463H166.066Z" fill="#D1D3D4"/>
<path d="M161.23 151.077H153.733C153.618 151.077 153.508 151.032 153.427 150.95C153.345 150.869 153.3 150.759 153.3 150.644C153.3 150.529 153.345 150.419 153.427 150.338C153.508 150.256 153.618 150.211 153.733 150.211H161.195C161.31 150.211 161.42 150.256 161.502 150.338C161.583 150.419 161.628 150.529 161.628 150.644C161.628 150.759 161.583 150.869 161.502 150.95C161.42 151.032 161.31 151.077 161.195 151.077H161.23Z" fill="#D1D3D4"/>
<path d="M113.546 178.533C113.546 178.533 131.971 189.679 137.414 189.393C142.857 189.107 148.204 128.96 148.473 126.785C148.672 125.242 151.671 119.461 152.347 117.936C153.174 115.916 153.547 113.738 153.439 111.557C153.231 109.382 149.339 107.735 148.343 107.935C145.275 108.541 143.758 113.195 141.903 115.735C141.349 115.171 141.34 112.129 141.037 111.401C137.119 115.518 138.229 121.385 138.532 126.473C138.688 128.969 127.655 161.139 127.655 161.139L122.533 158.184" fill="white"/>
<path d="M137.206 189.861C131.451 189.861 114.066 179.383 113.321 178.932C113.222 178.872 113.151 178.776 113.123 178.664C113.095 178.551 113.113 178.433 113.173 178.334C113.233 178.235 113.33 178.164 113.442 178.136C113.554 178.109 113.672 178.127 113.771 178.187C113.953 178.299 132.171 189.289 137.388 188.985C138.454 188.933 142.371 184.418 147.84 128.813C147.953 127.677 148.022 126.958 148.048 126.759C148.187 125.632 149.556 122.746 151.073 119.635C151.454 118.837 151.775 118.17 151.939 117.789C152.74 115.837 153.101 113.733 152.997 111.627C152.808 110.822 152.31 110.125 151.61 109.685C150.695 108.953 149.587 108.501 148.421 108.385C146.427 108.775 145.11 111.124 143.827 113.403C143.352 114.302 142.822 115.17 142.241 116.003C142.204 116.055 142.156 116.098 142.101 116.129C142.045 116.161 141.984 116.18 141.921 116.185C141.858 116.188 141.796 116.178 141.738 116.156C141.68 116.133 141.627 116.099 141.583 116.055C141.193 115.657 141.054 114.738 140.881 113.282C140.881 112.97 140.803 112.649 140.759 112.363C138.073 115.735 138.428 120.163 138.766 124.445C138.818 125.138 138.879 125.814 138.913 126.49C139.069 129.003 129.146 158.028 128.011 161.33C127.987 161.389 127.952 161.443 127.907 161.488C127.861 161.533 127.807 161.567 127.747 161.589C127.687 161.611 127.623 161.621 127.56 161.616C127.496 161.612 127.434 161.594 127.378 161.564L122.299 158.6C122.201 158.542 122.129 158.448 122.1 158.337C122.071 158.227 122.086 158.11 122.143 158.011C122.203 157.912 122.299 157.84 122.41 157.811C122.522 157.782 122.641 157.797 122.741 157.855L127.369 160.576C131.789 147.628 138.133 128.267 138.064 126.533C138.023 125.863 137.971 125.187 137.908 124.505C137.553 119.981 137.145 114.859 140.681 111.133C140.731 111.083 140.791 111.046 140.857 111.024C140.923 111.001 140.993 110.994 141.063 111.003C141.131 111.015 141.196 111.043 141.252 111.085C141.308 111.128 141.353 111.182 141.383 111.245C141.591 111.867 141.713 112.515 141.747 113.169C141.799 113.62 141.886 114.322 141.999 114.833C142.363 114.27 142.718 113.637 143.082 112.979C144.391 110.647 145.873 108.004 148.282 107.536C149.097 107.371 150.882 108.056 152.165 108.992C152.614 109.273 153.001 109.645 153.299 110.084C153.598 110.522 153.802 111.018 153.898 111.54C154.019 113.798 153.634 116.054 152.771 118.144C152.598 118.534 152.269 119.201 151.905 120.007C150.847 122.174 149.088 125.788 148.958 126.863C148.958 127.062 148.863 127.773 148.75 128.899C142.787 189.566 138.801 189.783 137.483 189.852L137.206 189.861Z" fill="#231F20"/>
<path d="M58.1919 223.877L59.7693 172.241L40.9106 176.271L40.1133 223.877H58.1919Z" fill="white"/>
<path d="M58.1917 224.311H40.113C40.0562 224.311 39.9998 224.3 39.9476 224.278C39.8954 224.255 39.8484 224.222 39.8097 224.181C39.7267 224.098 39.68 223.986 39.6797 223.869L40.477 176.263C40.4785 176.165 40.5127 176.072 40.574 175.996C40.6353 175.921 40.7202 175.868 40.815 175.847L59.6824 171.817C59.7463 171.804 59.8124 171.805 59.8755 171.822C59.9386 171.838 59.9971 171.869 60.0464 171.912C60.0979 171.951 60.139 172.003 60.1662 172.062C60.1934 172.121 60.2058 172.185 60.2024 172.25L58.625 223.886C58.6206 223.999 58.5733 224.106 58.4927 224.184C58.4122 224.263 58.3045 224.309 58.1917 224.311ZM40.555 223.444H57.7757L59.3183 172.779L41.335 176.627L40.555 223.444Z" fill="#231F20"/>
<path d="M53.1995 134.827C53.1995 134.827 43.9349 143.208 41.5429 151.294C39.1509 159.38 35.5195 178.533 35.5195 178.533L66.7195 181.87L53.1995 134.827Z" fill="#FF6C22"/>
<path d="M87.6498 105.248C86.801 105.256 85.9677 105.021 85.249 104.569C84.5304 104.117 83.9568 103.468 83.5965 102.699C83.2362 101.931 83.1043 101.075 83.2167 100.233C83.329 99.392 83.6808 98.6006 84.2302 97.9535C84.7795 97.3063 85.5033 96.8307 86.3153 96.5832C87.1273 96.3358 87.9933 96.3269 88.8102 96.5576C89.6271 96.7884 90.3605 97.249 90.923 97.8847C91.4855 98.5204 91.8535 99.3044 91.9831 100.143C92.0801 100.771 92.041 101.412 91.8683 102.023C91.6957 102.635 91.3936 103.201 90.9826 103.686C90.5716 104.17 90.0613 104.56 89.4862 104.829C88.9112 105.099 88.2849 105.242 87.6498 105.248ZM87.6498 97.2573C87.468 97.2445 87.2856 97.2445 87.1038 97.2573C86.4071 97.3632 85.7574 97.6734 85.2371 98.1486C84.7167 98.6238 84.3489 99.2427 84.1804 99.9269C84.0118 100.611 84.0501 101.33 84.2902 101.993C84.5303 102.655 84.9616 103.232 85.5294 103.649C86.0972 104.066 86.7761 104.306 87.4801 104.337C88.1841 104.369 88.8816 104.191 89.4844 103.826C90.0871 103.461 90.5681 102.925 90.8663 102.286C91.1645 101.648 91.2667 100.935 91.1598 100.239C91.0226 99.4081 90.5956 98.653 89.9547 98.1073C89.3138 97.5615 88.5003 97.2604 87.6585 97.2573H87.6498Z" fill="#231F20"/>
<path d="M61.9356 122.304C60.1416 122.503 58.3303 122.469 56.233 122.607C54.2916 122.746 51.7176 122.408 51.3796 120.493C51.0936 118.855 52.8616 117.199 52.1856 115.674C51.9619 115.273 51.6684 114.915 51.319 114.617C45.3563 108.749 43.077 98.332 46.9336 90.8093C48.6071 87.5738 51.2575 84.9477 54.5083 83.304C60.6937 80.3022 67.6407 79.236 74.4416 80.2447C79.6416 80.9293 86.2283 83.9713 86.497 90.0813C86.601 92.2827 85.2316 94.6573 83.0303 95.0907C82.909 101.695 80.2136 106.609 76.695 111.93C74.3441 115.566 71.128 118.561 67.335 120.649C65.6631 121.554 63.8276 122.117 61.9356 122.304Z" fill="white"/>
<path d="M55.4529 123.067C52.8529 123.067 51.2322 122.2 50.9549 120.562C50.8786 119.697 51.0499 118.828 51.4489 118.057C51.7869 117.191 52.0816 116.497 51.7869 115.839C51.6105 115.512 51.3789 115.219 51.1022 114.972L51.0242 114.894C44.7149 108.689 42.7476 98.0027 46.5609 90.6273C48.2704 87.3084 50.9853 84.6148 54.3176 82.9314C60.5819 79.9049 67.6093 78.8242 74.4936 79.8287C80.4996 80.6 86.6702 84.0667 86.9302 90.064C87.0256 92.248 85.7775 94.77 83.4636 95.4287C83.2469 102.275 80.3176 107.259 77.0676 112.173C74.6702 115.87 71.395 118.915 67.5342 121.039C65.7969 121.979 63.8916 122.568 61.9269 122.772C60.8696 122.885 59.8122 122.928 58.6942 122.963C57.9056 122.963 57.0822 123.023 56.2156 123.075C55.9816 123.067 55.7129 123.067 55.4529 123.067ZM69.4409 80.34C64.3368 80.288 59.2912 81.4307 54.7076 83.6767C51.545 85.2882 48.9661 87.849 47.3322 91C43.6836 98.098 45.5989 108.333 51.6656 114.296L51.7436 114.374C52.1018 114.687 52.3961 115.067 52.6102 115.492C52.7564 115.97 52.8026 116.473 52.7459 116.969C52.6892 117.466 52.531 117.945 52.2809 118.378C51.951 119.004 51.7953 119.708 51.8302 120.415C52.1596 122.295 55.2969 122.235 56.2329 122.148C57.1689 122.061 57.9662 122.053 58.7376 122.027C59.8469 122.027 60.8869 121.949 61.9096 121.836C63.7641 121.661 65.5648 121.116 67.2049 120.233C70.9314 118.176 74.0906 115.228 76.4002 111.653C80.2829 105.785 82.5536 101.192 82.6662 95.0473C82.6648 94.948 82.699 94.8515 82.7626 94.7752C82.8262 94.6989 82.915 94.6479 83.0129 94.6314C85.0236 94.224 86.1762 91.9447 86.0896 90.0727C85.8209 83.8067 78.6189 81.198 74.4069 80.6347C72.7596 80.4311 71.1007 80.3355 69.4409 80.3487V80.34Z" fill="#231F20"/>
<path d="M86.2373 104.182C86.2373 104.182 92.0006 111.037 91.16 112.693C90.3193 114.348 86.8266 113.715 86.8266 113.715" fill="white"/>
<path d="M88.2731 114.27C87.7646 114.273 87.2569 114.23 86.7564 114.14C86.6995 114.13 86.6452 114.108 86.5965 114.077C86.5478 114.046 86.5058 114.005 86.4728 113.958C86.4062 113.862 86.3804 113.744 86.4011 113.629C86.4217 113.514 86.4872 113.412 86.5831 113.345C86.679 113.278 86.7975 113.253 86.9124 113.273C87.7791 113.429 90.2057 113.603 90.7691 112.476C91.2111 111.609 88.5851 107.631 85.9071 104.442C85.8627 104.4 85.8277 104.349 85.8044 104.293C85.7811 104.236 85.7699 104.176 85.7717 104.115C85.7734 104.054 85.7881 103.994 85.8146 103.939C85.8411 103.884 85.879 103.835 85.9257 103.796C85.9724 103.756 86.0269 103.727 86.0855 103.711C86.1442 103.694 86.2058 103.69 86.2662 103.698C86.3267 103.707 86.3846 103.728 86.4362 103.761C86.4878 103.793 86.5319 103.837 86.5657 103.887C87.9611 105.543 92.4417 111.098 91.5491 112.875C90.9684 114.027 89.4431 114.27 88.2731 114.27Z" fill="#231F20"/>
<path d="M84.0612 94.4667C87.4759 96.6593 87.1899 102.154 87.5279 105.655C88.0537 110.595 88.4697 115.541 88.7759 120.493C88.9666 123.63 80.8806 124.627 79.3466 123.864L82.0766 136.067L64.3272 131.499L63.8506 121.221C63.8506 121.221 69.3626 120.623 71.7892 113.897C74.2159 107.172 72.1706 93.3833 72.1706 93.3833C72.1706 93.3833 80.7246 92.3607 84.0612 94.4667Z" fill="white"/>
<path d="M82.0768 136.517H81.9728L64.2235 131.95C64.1337 131.927 64.0535 131.875 63.9944 131.804C63.9353 131.732 63.9002 131.644 63.8941 131.551L63.4175 121.264C63.4123 121.155 63.4488 121.047 63.5195 120.964C63.5903 120.88 63.6901 120.826 63.7988 120.813C64.0155 120.813 69.0768 120.146 71.3821 113.776C73.7395 107.224 71.7635 93.6087 71.7461 93.47C71.7361 93.4135 71.7386 93.3554 71.7536 93.3C71.7686 93.2446 71.7956 93.1931 71.8328 93.1494C71.8666 93.103 71.9093 93.0637 71.9584 93.034C72.0075 93.0042 72.062 92.9845 72.1188 92.976C72.4741 92.976 80.8721 91.9447 84.2521 94.1374C87.2768 96.0787 87.5715 100.325 87.8055 103.74C87.8055 104.416 87.8921 105.057 87.9528 105.647C88.4815 110.561 88.9061 115.561 89.2095 120.501C89.2126 120.999 89.0772 121.488 88.8186 121.914C88.56 122.339 88.1882 122.684 87.7448 122.911C85.7168 124.254 81.8168 124.774 79.9448 124.497L82.4841 135.997C82.4998 136.07 82.4968 136.145 82.4756 136.217C82.4544 136.288 82.4156 136.352 82.3628 136.405C82.2836 136.475 82.1824 136.514 82.0768 136.517ZM64.7435 131.179L81.4961 135.512L78.9568 124.003C78.9405 123.923 78.9464 123.841 78.9739 123.764C79.0014 123.688 79.0495 123.62 79.1128 123.569C79.1787 123.522 79.256 123.493 79.3366 123.486C79.4173 123.478 79.4986 123.492 79.5721 123.526C80.5775 124.029 85.1188 123.639 87.3028 122.2C87.6121 122.05 87.8753 121.82 88.0644 121.533C88.2536 121.246 88.3618 120.914 88.3775 120.571C88.0741 115.639 87.6581 110.656 87.1295 105.759C87.0601 105.161 87.0168 104.503 86.9735 103.818C86.7481 100.594 86.4708 96.59 83.8188 94.8827C81.0715 93.1494 74.4241 93.6347 72.6561 93.808C72.9941 96.278 74.3895 107.935 72.1881 114.079C70.0561 119.999 65.6535 121.351 64.2928 121.628L64.7435 131.179Z" fill="#231F20"/>
<path d="M88.2737 116.853C88.2737 116.853 84.729 119.643 82.207 115.925L88.2737 116.853Z" fill="white"/>
<path d="M85.4395 118.291C85.2335 118.294 85.0277 118.279 84.8242 118.248C84.2124 118.133 83.6326 117.888 83.1241 117.529C82.6157 117.17 82.1905 116.706 81.8775 116.168C81.8139 116.073 81.7901 115.958 81.8112 115.846C81.8323 115.734 81.8966 115.635 81.9902 115.57C82.0378 115.538 82.0914 115.515 82.1478 115.504C82.2043 115.492 82.2625 115.492 82.319 115.503C82.3755 115.515 82.4291 115.537 82.4768 115.569C82.5245 115.602 82.5653 115.643 82.5968 115.691C82.8455 116.13 83.184 116.511 83.5903 116.81C83.9965 117.109 84.4613 117.318 84.9542 117.425C86.0428 117.518 87.128 117.21 88.0048 116.558C88.0968 116.489 88.2119 116.457 88.3263 116.47C88.4407 116.483 88.5459 116.539 88.6202 116.627C88.6905 116.72 88.7218 116.836 88.7072 116.951C88.6926 117.066 88.6333 117.171 88.5422 117.243C87.6349 117.892 86.5548 118.257 85.4395 118.291Z" fill="#231F20"/>
<path d="M66.3816 109.928H66.3296C66.2728 109.922 66.2179 109.904 66.1681 109.876C66.1184 109.848 66.0748 109.81 66.04 109.765C66.0052 109.719 65.9799 109.667 65.9656 109.612C65.9513 109.557 65.9484 109.499 65.9569 109.443C66.2776 106.843 66.7716 106.773 66.9796 106.73C67.3869 106.626 83.1862 102.154 91.4802 99.7967C91.5371 99.7808 91.5966 99.7762 91.6553 99.7832C91.714 99.7903 91.7707 99.8088 91.8222 99.8378C91.8737 99.8668 91.919 99.9056 91.9555 99.9521C91.992 99.9986 92.019 100.052 92.0349 100.109C92.0508 100.166 92.0554 100.225 92.0483 100.284C92.0413 100.342 92.0227 100.399 91.9938 100.451C91.9648 100.502 91.926 100.547 91.8795 100.584C91.833 100.62 91.7798 100.647 91.7229 100.663C89.3222 101.339 68.9122 107.129 67.2742 107.597C67.0334 108.244 66.8789 108.92 66.8149 109.607C66.7881 109.701 66.7311 109.783 66.6528 109.841C66.5744 109.899 66.479 109.93 66.3816 109.928Z" fill="#231F20"/>
<path d="M77.1452 108.429C76.8771 107.214 76.277 106.098 75.4119 105.205C74.8377 104.428 74.1479 103.744 73.3666 103.177C72.9745 102.894 72.5247 102.703 72.0495 102.616C71.5744 102.529 71.0858 102.549 70.6192 102.674C70.2259 102.827 69.8687 103.06 69.5703 103.358C69.2719 103.657 69.0388 104.014 68.8859 104.407C68.5904 105.21 68.4779 106.069 68.5566 106.921C68.6889 108.785 69.3096 110.582 70.3563 112.131C71.4029 113.679 72.8386 114.925 74.5192 115.743L74.2072 115.475" fill="white"/>
<path d="M74.4586 116.194C74.3957 116.207 74.3308 116.207 74.2679 116.194C72.5225 115.337 71.0316 114.038 69.9431 112.426C68.8546 110.815 68.2063 108.947 68.0626 107.007C67.9806 106.09 68.105 105.166 68.4266 104.303C68.5984 103.839 68.8674 103.418 69.2157 103.066C69.564 102.715 69.9835 102.442 70.4459 102.267C70.9753 102.116 71.5321 102.088 72.0741 102.184C72.6161 102.28 73.1292 102.498 73.5746 102.821C74.393 103.414 75.1201 104.124 75.7326 104.927C76.6642 105.887 77.3096 107.088 77.5959 108.394C77.6108 108.509 77.5795 108.625 77.5088 108.717C77.4381 108.809 77.3338 108.869 77.2189 108.884C77.104 108.899 76.9878 108.867 76.896 108.797C76.8042 108.726 76.7442 108.622 76.7292 108.507C76.4504 107.373 75.8728 106.334 75.0566 105.499C74.5168 104.754 73.8682 104.094 73.1326 103.541C72.7957 103.293 72.4078 103.123 71.997 103.043C71.5863 102.964 71.163 102.977 70.7579 103.081C70.4174 103.214 70.1087 103.417 69.8519 103.676C69.595 103.936 69.3958 104.247 69.2672 104.589C68.9884 105.33 68.8846 106.125 68.9639 106.912C69.0864 108.588 69.6191 110.209 70.5153 111.631C71.4116 113.053 72.6437 114.233 74.1032 115.067C74.1672 115.055 74.2331 115.057 74.2961 115.073C74.3591 115.09 74.4176 115.12 74.4672 115.163L74.7706 115.431C74.8492 115.5 74.901 115.594 74.9168 115.697C74.9327 115.8 74.9116 115.906 74.8572 115.995C74.8132 116.059 74.7534 116.111 74.6837 116.146C74.614 116.181 74.5365 116.197 74.4586 116.194Z" fill="#231F20"/>
<path d="M85.1928 102.544C85.5719 102.479 85.744 101.639 85.5772 100.667C85.4104 99.6957 84.9678 98.961 84.5887 99.0261C84.2097 99.0912 84.0376 99.9315 84.2044 100.903C84.3712 101.874 84.8137 102.609 85.1928 102.544Z" fill="#231F20"/>
<path d="M61.251 134.957L62.0656 129.35L83.949 128.111L87.2423 135.911C78.6872 138.278 69.6097 137.945 61.251 134.957Z" fill="white"/>
<path d="M75.9408 137.861C70.8901 137.866 65.8745 137.022 61.1035 135.365C61.0092 135.332 60.9292 135.267 60.8771 135.182C60.8249 135.096 60.8039 134.996 60.8175 134.897L61.6408 129.289C61.6532 129.189 61.701 129.096 61.7757 129.028C61.8504 128.959 61.947 128.92 62.0482 128.917L83.9315 127.677C84.0192 127.672 84.1064 127.695 84.1809 127.741C84.2554 127.788 84.3136 127.856 84.3475 127.937L87.6408 135.737C87.6663 135.792 87.6796 135.851 87.6796 135.911C87.6796 135.971 87.6663 136.03 87.6408 136.084C87.618 136.139 87.5838 136.188 87.5405 136.228C87.4971 136.268 87.4456 136.299 87.3895 136.318C83.6701 137.393 79.8122 137.913 75.9408 137.861ZM61.7275 134.663C69.7665 137.41 78.4333 137.747 86.6615 135.633L83.6715 128.553L62.4468 129.766L61.7275 134.663Z" fill="#231F20"/>
<path d="M109.853 223.877L108.441 210.158L52.1073 211.241L51.8906 223.877H109.853Z" fill="#231F20"/>
<path d="M109.854 224.311H51.8913C51.8332 224.312 51.7755 224.3 51.7218 224.278C51.6682 224.256 51.6197 224.223 51.5793 224.181C51.5018 224.095 51.4586 223.984 51.458 223.869L51.6747 211.233C51.6747 211.12 51.7194 211.012 51.7991 210.932C51.8787 210.853 51.9867 210.808 52.0993 210.808L108.433 209.725C108.541 209.722 108.646 209.761 108.727 209.834C108.807 209.906 108.857 210.007 108.866 210.115L110.287 223.834C110.295 223.893 110.29 223.953 110.272 224.01C110.254 224.067 110.224 224.119 110.183 224.163C110.142 224.21 110.092 224.247 110.035 224.273C109.978 224.298 109.916 224.311 109.854 224.311ZM52.3333 223.444H109.377L108.051 210.6L52.5327 211.666L52.3333 223.444Z" fill="#231F20"/>
<path d="M105.78 142.636C105.78 142.636 102.92 133.007 73.7138 131.196C65.8445 130.702 58.2785 132.305 53.1478 134.827C52.5932 139.36 51.1198 189.228 49.9238 212.975C70.4323 214.4 91.0278 213.962 111.457 211.666C111.457 211.666 103.744 147.611 105.78 142.636Z" fill="#FF6C22"/>
<path d="M102.149 138.554C102.149 138.554 121.077 154.769 127.438 158.739C127.438 158.739 124.05 166.539 114.906 184.652C101.794 175.847 82.5449 161.477 82.5449 161.477L102.149 138.554Z" fill="#FF6C22"/>
<path d="M50.0711 206.267C50.0141 206.262 49.9585 206.247 49.9076 206.221C49.8567 206.195 49.8114 206.159 49.7744 206.116C49.7373 206.072 49.7092 206.022 49.6917 205.967C49.6742 205.913 49.6677 205.856 49.6724 205.799C50.3657 196.777 51.6917 151.814 51.7091 151.355C51.7157 151.242 51.7652 151.136 51.8474 151.059C51.9295 150.981 52.0382 150.938 52.1511 150.939C52.208 150.94 52.2641 150.952 52.3162 150.975C52.3684 150.998 52.4155 151.031 52.455 151.072C52.4944 151.113 52.5254 151.161 52.5461 151.214C52.5668 151.267 52.5769 151.324 52.5757 151.381C52.5757 151.84 51.2324 196.829 50.5391 205.868C50.5347 205.925 50.5191 205.981 50.4932 206.031C50.4672 206.082 50.4315 206.128 50.388 206.165C50.3445 206.202 50.2941 206.23 50.2397 206.247C50.1853 206.265 50.128 206.271 50.0711 206.267Z" fill="#231F20"/>
<path d="M114.915 185.085C114.826 185.088 114.738 185.064 114.664 185.016L88.1522 166.877C88.0723 166.807 88.0208 166.71 88.0074 166.605C87.994 166.5 88.0196 166.393 88.0794 166.306C88.1392 166.218 88.229 166.156 88.3319 166.13C88.4348 166.104 88.5435 166.117 88.6376 166.166L115.158 184.297C115.25 184.364 115.313 184.465 115.334 184.578C115.355 184.69 115.332 184.807 115.27 184.903C115.229 184.959 115.176 185.005 115.114 185.037C115.053 185.068 114.984 185.085 114.915 185.085Z" fill="#231F20"/>
<path d="M79.3898 123.933C79.3898 123.933 72.7945 122.521 71.1045 120.692C71.6593 122.429 72.8308 123.903 74.3978 124.835C76.1963 125.932 78.1311 126.789 80.1525 127.383L79.3898 123.933Z" fill="#231F20"/>
<path d="M80.1526 127.773H80.066C78.005 127.166 76.0324 126.292 74.1986 125.173C72.5414 124.181 71.3074 122.614 70.732 120.77C70.704 120.677 70.7105 120.576 70.7502 120.487C70.79 120.398 70.8604 120.326 70.9486 120.285C71.0324 120.238 71.1293 120.222 71.2237 120.238C71.3181 120.253 71.4044 120.3 71.4686 120.371C72.7773 121.784 77.7259 123.093 79.5286 123.483C79.6096 123.499 79.684 123.54 79.7425 123.598C79.801 123.657 79.8411 123.731 79.858 123.812L80.6206 127.279C80.634 127.351 80.6299 127.426 80.6089 127.497C80.5878 127.568 80.5502 127.632 80.4993 127.686C80.4505 127.723 80.3945 127.75 80.3349 127.765C80.2753 127.78 80.2133 127.783 80.1526 127.773ZM72.1533 121.923C72.7628 122.942 73.6104 123.798 74.6233 124.419C76.1835 125.361 77.8431 126.129 79.572 126.707L79.026 124.254C76.6534 123.743 74.3474 122.96 72.1533 121.923Z" fill="#231F20"/>
<path d="M286.228 54.184H67.1091C66.9949 54.1818 66.8859 54.1354 66.8052 54.0546C66.7244 53.9738 66.678 53.8649 66.6758 53.7507C66.6758 53.6357 66.7214 53.5255 66.8027 53.4442C66.884 53.363 66.9942 53.3173 67.1091 53.3173H286.228C286.343 53.3173 286.454 53.363 286.535 53.4442C286.616 53.5255 286.662 53.6357 286.662 53.7507C286.662 53.8656 286.616 53.9758 286.535 54.0571C286.454 54.1383 286.343 54.184 286.228 54.184Z" fill="#D1D3D4"/>
<path d="M165.503 47.1553H130.186C129.956 47.1553 129.736 47.064 129.573 46.9015C129.411 46.739 129.319 46.5185 129.319 46.2887C129.319 46.0588 129.411 45.8384 129.573 45.6758C129.736 45.5133 129.956 45.422 130.186 45.422H165.503C165.733 45.422 165.953 45.5133 166.115 45.6758C166.278 45.8384 166.369 46.0588 166.369 46.2887C166.369 46.5185 166.278 46.739 166.115 46.9015C165.953 47.064 165.733 47.1553 165.503 47.1553Z" fill="#D1D3D4"/>
<path d="M111.466 47.1553H76.1489C75.919 47.1553 75.6986 47.064 75.5361 46.9015C75.3735 46.739 75.2822 46.5185 75.2822 46.2887C75.2822 46.0588 75.3735 45.8384 75.5361 45.6758C75.6986 45.5133 75.919 45.422 76.1489 45.422H111.466C111.695 45.422 111.916 45.5133 112.078 45.6758C112.241 45.8384 112.332 46.0588 112.332 46.2887C112.332 46.5185 112.241 46.739 112.078 46.9015C111.916 47.064 111.695 47.1553 111.466 47.1553Z" fill="#D1D3D4"/>
<path d="M223.326 47.1553H188.009C187.779 47.1553 187.559 47.064 187.396 46.9015C187.234 46.739 187.143 46.5185 187.143 46.2887C187.143 46.0588 187.234 45.8384 187.396 45.6758C187.559 45.5133 187.779 45.422 188.009 45.422H223.326C223.556 45.422 223.776 45.5133 223.939 45.6758C224.101 45.8384 224.193 46.0588 224.193 46.2887C224.193 46.5185 224.101 46.739 223.939 46.9015C223.776 47.064 223.556 47.1553 223.326 47.1553Z" fill="#D1D3D4"/>
<path d="M279.052 47.1553H243.736C243.506 47.1553 243.285 47.064 243.123 46.9015C242.96 46.739 242.869 46.5185 242.869 46.2887C242.869 46.0588 242.96 45.8384 243.123 45.6758C243.285 45.5133 243.506 45.422 243.736 45.422H279.052C279.282 45.422 279.503 45.5133 279.665 45.6758C279.828 45.8384 279.919 46.0588 279.919 46.2887C279.919 46.5185 279.828 46.739 279.665 46.9015C279.503 47.064 279.282 47.1553 279.052 47.1553Z" fill="#D1D3D4"/>
<path d="M145.864 74.0133H126.528V93.3486H145.864V74.0133Z" fill="white"/>
<path d="M145.863 93.782H126.528C126.413 93.782 126.303 93.7364 126.222 93.6551C126.14 93.5738 126.095 93.4636 126.095 93.3487V74.0134C126.095 73.8984 126.14 73.7882 126.222 73.7069C126.303 73.6257 126.413 73.58 126.528 73.58H145.863C145.978 73.58 146.089 73.6257 146.17 73.7069C146.251 73.7882 146.297 73.8984 146.297 74.0134V93.3487C146.297 93.4056 146.286 93.4619 146.264 93.5145C146.242 93.5671 146.21 93.6149 146.17 93.6551C146.13 93.6953 146.082 93.7272 146.029 93.749C145.977 93.7708 145.92 93.782 145.863 93.782ZM126.961 92.9153H145.43V74.4467H126.961V92.9153Z" fill="#D1D3D4"/>
<path d="M142.345 78.5893H130.047C129.932 78.5893 129.821 78.5437 129.74 78.4624C129.659 78.3811 129.613 78.2709 129.613 78.156C129.615 78.0418 129.662 77.9328 129.743 77.852C129.823 77.7712 129.932 77.7249 130.047 77.7227H142.345C142.459 77.7249 142.568 77.7712 142.649 77.852C142.729 77.9328 142.776 78.0418 142.778 78.156C142.778 78.2709 142.732 78.3811 142.651 78.4624C142.57 78.5437 142.46 78.5893 142.345 78.5893Z" fill="#D1D3D4"/>
<path d="M142.345 82.2033H130.047C129.932 82.2033 129.821 82.1577 129.74 82.0764C129.659 81.9952 129.613 81.8849 129.613 81.77C129.615 81.6558 129.662 81.5468 129.743 81.4661C129.823 81.3853 129.932 81.3389 130.047 81.3367H142.345C142.459 81.3389 142.568 81.3853 142.649 81.4661C142.729 81.5468 142.776 81.6558 142.778 81.77C142.778 81.8849 142.732 81.9952 142.651 82.0764C142.57 82.1577 142.46 82.2033 142.345 82.2033Z" fill="#D1D3D4"/>
<path d="M142.345 85.8H130.047C129.932 85.8 129.821 85.7544 129.74 85.6731C129.659 85.5918 129.613 85.4816 129.613 85.3667C129.615 85.2525 129.662 85.1435 129.743 85.0627C129.823 84.9819 129.932 84.9356 130.047 84.9333H142.345C142.459 84.9356 142.568 84.9819 142.649 85.0627C142.729 85.1435 142.776 85.2525 142.778 85.3667C142.778 85.4816 142.732 85.5918 142.651 85.6731C142.57 85.7544 142.46 85.8 142.345 85.8Z" fill="#D1D3D4"/>
<path d="M137.509 89.4313H130.047C129.932 89.4313 129.821 89.3857 129.74 89.3044C129.659 89.2231 129.613 89.1129 129.613 88.998C129.615 88.8837 129.662 88.7748 129.743 88.694C129.823 88.6132 129.932 88.5669 130.047 88.5646H137.509C137.623 88.5669 137.732 88.6132 137.813 88.694C137.893 88.7748 137.94 88.8837 137.942 88.998C137.942 89.0549 137.931 89.1112 137.909 89.1638C137.887 89.2164 137.855 89.2641 137.815 89.3044C137.775 89.3446 137.727 89.3765 137.674 89.3983C137.622 89.4201 137.566 89.4313 137.509 89.4313Z" fill="#D1D3D4"/>
<path d="M170.893 61.204H151.558V80.5393H170.893V61.204Z" fill="#D1D3D4"/>
<path d="M167.374 66.5946H155.085C154.97 66.5946 154.86 66.549 154.778 66.4677C154.697 66.3864 154.651 66.2762 154.651 66.1613C154.651 66.0464 154.697 65.9362 154.778 65.8549C154.86 65.7736 154.97 65.728 155.085 65.728H167.374C167.489 65.728 167.599 65.7736 167.68 65.8549C167.762 65.9362 167.807 66.0464 167.807 66.1613C167.807 66.2762 167.762 66.3864 167.68 66.4677C167.599 66.549 167.489 66.5946 167.374 66.5946Z" fill="white"/>
<path d="M167.374 70.2H155.085C154.97 70.2 154.86 70.1543 154.778 70.0731C154.697 69.9918 154.651 69.8816 154.651 69.7666C154.651 69.6517 154.697 69.5415 154.778 69.4602C154.86 69.379 154.97 69.3333 155.085 69.3333H167.374C167.489 69.3333 167.599 69.379 167.68 69.4602C167.762 69.5415 167.807 69.6517 167.807 69.7666C167.807 69.8816 167.762 69.9918 167.68 70.0731C167.599 70.1543 167.489 70.2 167.374 70.2Z" fill="white"/>
<path d="M164.271 73.8227H155.085C154.97 73.8227 154.86 73.777 154.778 73.6957C154.697 73.6145 154.651 73.5043 154.651 73.3893C154.651 73.2744 154.697 73.1642 154.778 73.0829C154.86 73.0016 154.97 72.956 155.085 72.956H164.271C164.386 72.956 164.497 73.0016 164.578 73.0829C164.659 73.1642 164.705 73.2744 164.705 73.3893C164.705 73.5043 164.659 73.6145 164.578 73.6957C164.497 73.777 164.386 73.8227 164.271 73.8227Z" fill="white"/>
<path d="M205.663 59.0287H186.328V78.364H205.663V59.0287Z" fill="white"/>
<path d="M205.663 78.7973H186.328C186.213 78.7973 186.103 78.7517 186.021 78.6704C185.94 78.5892 185.895 78.4789 185.895 78.364V59.0287C185.897 58.9144 185.943 58.8055 186.024 58.7247C186.105 58.6439 186.214 58.5976 186.328 58.5953H205.663C205.778 58.5953 205.888 58.641 205.97 58.7223C206.051 58.8035 206.097 58.9137 206.097 59.0287V78.364C206.097 78.4209 206.085 78.4773 206.064 78.5298C206.042 78.5824 206.01 78.6302 205.97 78.6704C205.929 78.7107 205.882 78.7426 205.829 78.7644C205.776 78.7861 205.72 78.7973 205.663 78.7973ZM186.761 77.9307H205.23V59.462H186.761V77.9307Z" fill="#D1D3D4"/>
<path d="M202.145 63.6046H189.855C189.74 63.6046 189.63 63.559 189.549 63.4777C189.468 63.3965 189.422 63.2862 189.422 63.1713C189.422 63.0564 189.468 62.9462 189.549 62.8649C189.63 62.7836 189.74 62.738 189.855 62.738H202.145C202.259 62.738 202.37 62.7836 202.451 62.8649C202.532 62.9462 202.578 63.0564 202.578 63.1713C202.578 63.2862 202.532 63.3965 202.451 63.4777C202.37 63.559 202.259 63.6046 202.145 63.6046Z" fill="#D1D3D4"/>
<path d="M202.145 67.2187H189.855C189.74 67.2187 189.63 67.173 189.549 67.0917C189.468 67.0105 189.422 66.9003 189.422 66.7853C189.422 66.6704 189.468 66.5602 189.549 66.4789C189.63 66.3976 189.74 66.352 189.855 66.352H202.145C202.259 66.352 202.37 66.3976 202.451 66.4789C202.532 66.5602 202.578 66.6704 202.578 66.7853C202.578 66.9003 202.532 67.0105 202.451 67.0917C202.37 67.173 202.259 67.2187 202.145 67.2187Z" fill="#D1D3D4"/>
<path d="M202.145 70.8327H189.855C189.74 70.8327 189.63 70.787 189.549 70.7058C189.468 70.6245 189.422 70.5143 189.422 70.3993C189.422 70.2844 189.468 70.1742 189.549 70.0929C189.63 70.0117 189.74 69.966 189.855 69.966H202.145C202.259 69.966 202.37 70.0117 202.451 70.0929C202.532 70.1742 202.578 70.2844 202.578 70.3993C202.578 70.5143 202.532 70.6245 202.451 70.7058C202.37 70.787 202.259 70.8327 202.145 70.8327Z" fill="#D1D3D4"/>
<path d="M197.309 74.4467H189.855C189.74 74.4467 189.63 74.401 189.549 74.3198C189.468 74.2385 189.422 74.1283 189.422 74.0134C189.422 73.8984 189.468 73.7882 189.549 73.7069C189.63 73.6257 189.74 73.58 189.855 73.58H197.309C197.423 73.58 197.534 73.6257 197.615 73.7069C197.696 73.7882 197.742 73.8984 197.742 74.0134C197.742 74.1283 197.696 74.2385 197.615 74.3198C197.534 74.401 197.423 74.4467 197.309 74.4467Z" fill="#D1D3D4"/>
<path d="M229.592 75.7206H210.257V95.056H229.592V75.7206Z" fill="#D1D3D4"/>
<path d="M226.064 80.2967H213.775C213.66 80.2967 213.55 80.251 213.469 80.1697C213.387 80.0885 213.342 79.9783 213.342 79.8633C213.342 79.7484 213.387 79.6382 213.469 79.5569C213.55 79.4756 213.66 79.43 213.775 79.43H226.064C226.179 79.43 226.29 79.4756 226.371 79.5569C226.452 79.6382 226.498 79.7484 226.498 79.8633C226.498 79.9783 226.452 80.0885 226.371 80.1697C226.29 80.251 226.179 80.2967 226.064 80.2967Z" fill="white"/>
<path d="M226.064 83.9107H213.775C213.66 83.9107 213.55 83.865 213.469 83.7838C213.387 83.7025 213.342 83.5923 213.342 83.4773C213.342 83.3624 213.387 83.2522 213.469 83.1709C213.55 83.0897 213.66 83.044 213.775 83.044H226.064C226.179 83.044 226.29 83.0897 226.371 83.1709C226.452 83.2522 226.498 83.3624 226.498 83.4773C226.498 83.5923 226.452 83.7025 226.371 83.7838C226.29 83.865 226.179 83.9107 226.064 83.9107Z" fill="white"/>
<path d="M226.064 87.5334H213.775C213.66 87.5334 213.55 87.4877 213.469 87.4064C213.387 87.3252 213.342 87.2149 213.342 87.1C213.342 86.9851 213.387 86.8749 213.469 86.7936C213.55 86.7123 213.66 86.6667 213.775 86.6667H226.064C226.179 86.6667 226.29 86.7123 226.371 86.7936C226.452 86.8749 226.498 86.9851 226.498 87.1C226.498 87.2149 226.452 87.3252 226.371 87.4064C226.29 87.4877 226.179 87.5334 226.064 87.5334Z" fill="white"/>
<path d="M221.228 91.1386H213.775C213.66 91.1386 213.55 91.093 213.469 91.0117C213.387 90.9304 213.342 90.8202 213.342 90.7053C213.342 90.5904 213.387 90.4802 213.469 90.3989C213.55 90.3176 213.66 90.272 213.775 90.272H221.228C221.343 90.272 221.454 90.3176 221.535 90.3989C221.616 90.4802 221.662 90.5904 221.662 90.7053C221.662 90.8202 221.616 90.9304 221.535 91.0117C221.454 91.093 221.343 91.1386 221.228 91.1386Z" fill="white"/>
</svg>
