<svg width="294" height="220" viewBox="0 0 294 220" fill="none" xmlns="http://www.w3.org/2000/svg">
<path d="M124.842 190.806C160.908 190.806 190.146 188.419 190.146 185.475C190.146 182.53 160.908 180.144 124.842 180.144C88.7764 180.144 59.5391 182.53 59.5391 185.475C59.5391 188.419 88.7764 190.806 124.842 190.806Z" fill="#E6E7E8"/>
<path d="M233.794 135.425H187.359V173.257H233.794V135.425Z" fill="white"/>
<path d="M233.794 173.631H187.359C187.262 173.631 187.168 173.593 187.1 173.524C187.031 173.455 186.992 173.362 186.992 173.265V135.425C186.992 135.328 187.031 135.234 187.1 135.166C187.168 135.097 187.262 135.058 187.359 135.058H233.794C233.89 135.06 233.982 135.099 234.051 135.168C234.119 135.236 234.158 135.328 234.16 135.425V173.265C234.158 173.361 234.119 173.454 234.051 173.522C233.982 173.59 233.89 173.63 233.794 173.631ZM187.726 172.898H233.427V135.791H187.733L187.726 172.898Z" fill="#D1D3D4"/>
<path d="M233.794 140.653H187.359C187.262 140.653 187.168 140.615 187.1 140.546C187.031 140.477 186.992 140.384 186.992 140.287C186.992 140.189 187.031 140.096 187.1 140.027C187.168 139.959 187.262 139.92 187.359 139.92H233.794C233.891 139.92 233.984 139.959 234.053 140.027C234.122 140.096 234.16 140.189 234.16 140.287C234.158 140.383 234.119 140.475 234.051 140.544C233.982 140.612 233.89 140.651 233.794 140.653Z" fill="#D1D3D4"/>
<path d="M105.849 64.7385C104.847 64.8058 103.848 64.5781 102.974 64.0834C102.101 63.5888 101.392 62.8489 100.935 61.9554C100.477 61.0619 100.292 60.0539 100.402 59.0562C100.511 58.0585 100.911 57.1148 101.551 56.3418C98.7499 55.0512 97.2686 51.7365 97.4739 48.6638C97.6792 45.5912 99.2999 42.7972 101.324 40.4358C102.989 38.5072 105.079 36.7692 107.579 36.2925C108.053 36.2453 108.514 36.1163 108.943 35.9112C109.281 35.6736 109.574 35.3782 109.809 35.0385C111.635 32.7065 113.886 30.5652 116.702 29.6265C119.518 28.6878 122.965 29.2232 124.849 31.5185C125.791 30.7006 126.96 30.1881 128.199 30.0487C129.439 29.9093 130.692 30.1497 131.792 30.7379C132.892 31.3261 133.788 32.2346 134.36 33.343C134.933 34.4514 135.156 35.7075 134.999 36.9452C136.983 37.2381 138.843 38.0872 140.364 39.3942C141.885 40.7012 143.005 42.4125 143.593 44.3298C144.642 48.1872 142.86 52.7192 139.303 54.5452C138.893 54.7578 138.401 55.0365 138.416 55.4912C138.456 55.7656 138.579 56.0213 138.768 56.2245C139.912 57.8598 139.34 60.2285 138.035 61.7098C136.729 63.1912 134.779 63.9758 132.901 64.7238C133.319 65.1426 133.597 65.6799 133.698 66.2626C133.799 66.8453 133.718 67.4449 133.466 67.9798C132.922 69.0506 132.075 69.938 131.031 70.5318C126.954 73.1645 121.909 72.3432 117.34 72.4385C113.123 72.5265 108.936 69.8352 106.142 66.7845C105.599 66.2052 105.167 65.1492 105.849 64.7385Z" fill="white"/>
<path d="M122.394 72.8568C121.66 72.8568 120.927 72.8568 120.252 72.8568C119.299 72.8568 118.302 72.8128 117.363 72.8568C113.535 72.9228 109.296 70.7742 105.879 67.0855C105.638 66.8443 105.449 66.5568 105.323 66.2404C105.197 65.924 105.137 65.5853 105.146 65.2448C105.141 65.2181 105.141 65.1909 105.146 65.1642C104.158 65.1167 103.202 64.8027 102.379 64.2554C101.556 63.7081 100.897 62.9481 100.471 62.056C100.045 61.1639 99.8691 60.1732 99.9614 59.1891C100.054 58.2049 100.411 57.2642 100.995 56.4668C98.465 55.0735 96.8883 51.9275 97.1083 48.6422C97.2916 45.8335 98.619 42.9955 101.046 40.1942C103.158 37.7595 105.27 36.3662 107.514 35.9335L107.764 35.8895C108.116 35.8756 108.46 35.7729 108.763 35.5909C109.065 35.4088 109.317 35.1534 109.494 34.8482C111.797 31.9148 114.107 30.1108 116.586 29.2822C119.644 28.2628 122.995 28.9742 124.894 31.0055C125.894 30.2337 127.096 29.7682 128.354 29.6652C129.613 29.5622 130.875 29.8261 131.986 30.4251C133.098 31.024 134.012 31.9323 134.619 33.0401C135.225 34.1478 135.498 35.4075 135.403 36.6668C137.384 37.0249 139.229 37.9199 140.737 39.2544C142.245 40.5889 143.358 42.3116 143.954 44.2348C145.068 48.3342 143.096 53.0348 139.473 54.8755C139.106 55.0588 138.776 55.2642 138.784 55.4842C138.82 55.6363 138.893 55.7773 138.996 55.8948L139.062 55.9902C140.368 57.8382 139.627 60.4268 138.27 61.9228C136.928 63.24 135.31 64.242 133.533 64.8562C133.854 65.3367 134.048 65.8907 134.097 66.4666C134.145 67.0424 134.047 67.6212 133.812 68.1488C133.25 69.2794 132.364 70.2165 131.267 70.8402C128.546 72.6002 125.466 72.8568 122.394 72.8568ZM118.177 72.0648C118.874 72.0648 119.578 72.0648 120.267 72.0648C123.934 72.1382 127.71 72.2188 130.842 70.1948C131.828 69.6451 132.628 68.8124 133.137 67.8042C133.365 67.337 133.441 66.8106 133.355 66.298C133.27 65.7855 133.027 65.3123 132.66 64.9442C132.612 64.9034 132.576 64.8509 132.554 64.7918C132.532 64.7327 132.526 64.669 132.536 64.6068C132.546 64.5437 132.572 64.4842 132.612 64.4342C132.652 64.3841 132.704 64.3451 132.763 64.3208C134.479 63.6315 136.43 62.8542 137.728 61.3875C138.894 60.1042 139.546 57.9042 138.461 56.3642L138.395 56.2835C138.195 56.053 138.072 55.7659 138.043 55.4622C138.043 54.7288 138.74 54.3768 139.128 54.1788C142.458 52.4628 144.262 48.1655 143.235 44.3815C142.655 42.5425 141.568 40.904 140.1 39.6537C138.632 38.4035 136.842 37.592 134.934 37.3122C134.839 37.2976 134.753 37.2465 134.696 37.1697C134.638 37.0929 134.613 36.9966 134.626 36.9015C134.77 35.7398 134.559 34.5616 134.022 33.5215C133.485 32.4814 132.646 31.628 131.615 31.073C130.585 30.518 129.41 30.2874 128.246 30.4114C127.082 30.5355 125.983 31.0084 125.092 31.7682C125.055 31.8006 125.012 31.8251 124.966 31.8402C124.919 31.8554 124.87 31.8608 124.821 31.8562C124.773 31.8525 124.725 31.8389 124.682 31.8162C124.64 31.7935 124.602 31.7622 124.572 31.7242C122.922 29.7148 119.732 28.9815 116.828 29.9568C114.488 30.7342 112.288 32.4648 110.103 35.2442C109.844 35.6203 109.518 35.9459 109.142 36.2048C108.755 36.4109 108.332 36.5404 107.896 36.5862L107.661 36.6302C105.586 37.0335 103.606 38.3462 101.604 40.6488C99.2863 43.3255 98.025 46.0242 97.849 48.6642C97.6363 51.8322 99.2203 54.8388 101.714 55.9975C101.764 56.0211 101.809 56.0557 101.845 56.0988C101.88 56.142 101.906 56.1926 101.919 56.2468C101.931 56.302 101.93 56.3592 101.916 56.4139C101.902 56.4686 101.875 56.5194 101.838 56.5622C101.234 57.2768 100.854 58.1543 100.747 59.0843C100.64 60.0143 100.81 60.9552 101.236 61.7886C101.663 62.622 102.326 63.3105 103.143 63.7676C103.96 64.2248 104.894 64.43 105.828 64.3575C105.911 64.349 105.995 64.37 106.065 64.4169C106.134 64.4638 106.185 64.5336 106.209 64.6142C106.234 64.6929 106.232 64.7777 106.202 64.8549C106.173 64.9321 106.118 64.9971 106.048 65.0395C106.002 65.0646 105.964 65.1005 105.936 65.144C105.908 65.1875 105.891 65.2372 105.886 65.2888C105.899 65.7569 106.094 66.2015 106.429 66.5282C109.67 70.0628 113.762 72.1308 117.348 72.0575L118.177 72.0648Z" fill="#231F20"/>
<path d="M158.224 172.135C159.903 172.135 172.421 173.492 178.28 176.403C184.14 179.315 185.408 179.542 184.22 183.473C183.032 187.403 172.714 188.371 164.86 186.89C159.802 185.85 154.922 184.076 150.377 181.625L158.224 172.135Z" fill="white"/>
<path d="M172.268 187.939C169.762 187.929 167.263 187.683 164.803 187.205C159.71 186.157 154.796 184.374 150.217 181.911C150.174 181.885 150.137 181.851 150.108 181.811C150.079 181.77 150.059 181.724 150.048 181.676C150.04 181.628 150.042 181.579 150.054 181.532C150.067 181.485 150.09 181.442 150.121 181.405L157.968 171.915C157.997 171.876 158.034 171.845 158.078 171.823C158.121 171.801 158.169 171.79 158.217 171.791H158.291C160.337 171.791 172.561 173.184 178.428 176.095L179.748 176.748C184.449 179.051 185.717 179.681 184.544 183.568C183.803 186.032 178.978 187.939 172.268 187.939ZM150.899 181.522C155.315 183.853 160.037 185.549 164.927 186.56C172.811 188.027 182.813 186.985 183.906 183.377C184.911 180.033 184.185 179.674 179.455 177.357L178.135 176.704C172.539 173.925 160.571 172.509 158.379 172.465L150.899 181.522Z" fill="#231F20"/>
<path d="M159.902 172.099C161.01 172.37 161.973 173.05 162.6 174.002C163.227 174.954 163.471 176.108 163.283 177.232C162.733 181.405 153.911 181.581 153.405 181.632C152.899 181.683 159.902 172.099 159.902 172.099Z" fill="white"/>
<path d="M153.406 181.867C153.341 181.865 153.277 181.846 153.22 181.813C153.164 181.779 153.117 181.732 153.083 181.676C152.973 181.456 152.797 181.119 159.632 171.871C159.671 171.817 159.726 171.777 159.789 171.754C159.852 171.732 159.92 171.729 159.984 171.747C160.021 171.747 164.201 172.795 163.651 177.217C163.093 181.463 155.056 181.837 153.45 181.867H153.406ZM160.006 172.458C157.857 175.391 154.66 179.791 153.861 181.185C155.87 181.089 162.477 180.525 162.925 177.129C163.097 176.136 162.898 175.113 162.365 174.257C161.832 173.401 161.003 172.771 160.035 172.487L160.006 172.458Z" fill="#231F20"/>
<path d="M94.5203 181.654C94.2636 181.786 91.8656 184.903 81.4083 186.149C70.951 187.396 67.0716 189.647 64.7396 184.155C62.4076 178.662 64.0063 175.113 69.1396 173.543C74.273 171.974 88.4923 170.676 91.279 173.301C94.0656 175.927 94.5203 181.654 94.5203 181.654Z" fill="white"/>
<path d="M69.9015 188.012C67.3128 188.012 65.6481 187.147 64.4308 184.287C63.2135 181.427 63.0301 178.97 63.9175 177.071C64.7388 175.311 66.4695 174.013 69.0508 173.228C73.8761 171.762 88.5355 170.251 91.5128 173.06C94.3655 175.744 94.8201 181.39 94.8421 181.625C94.8455 181.687 94.8324 181.749 94.804 181.804C94.7757 181.86 94.7332 181.907 94.6808 181.94L94.5781 182.028C91.5641 184.771 85.7781 185.966 81.4368 186.48C79.1855 186.751 77.2495 187.066 75.5701 187.345C73.6996 187.707 71.8049 187.93 69.9015 188.012ZM83.4388 172.128C78.4155 172.128 72.3288 172.928 69.2635 173.866C66.8581 174.6 65.2595 175.773 64.5261 177.357C63.7195 179.073 63.8955 181.317 65.0468 184.023C66.7701 188.093 69.3148 187.69 75.4455 186.685C77.1615 186.406 79.1121 186.091 81.3708 185.82C85.6095 185.314 91.2635 184.155 94.1455 181.53C94.0428 180.569 93.4121 175.824 91.0435 173.566C89.9875 172.524 86.9735 172.128 83.4388 172.128Z" fill="#231F20"/>
<path d="M97.8561 179.41C97.8561 179.41 93.1115 183.37 89.9508 182.9C86.7901 182.431 82.4195 180.7 84.1795 177.29C85.9395 173.88 97.2694 171.827 97.2694 171.827L97.8561 179.41Z" fill="white"/>
<path d="M90.4933 183.275C90.2944 183.275 90.0959 183.26 89.8993 183.231C87.5306 182.879 84.6706 181.867 83.7539 180.07C83.5276 179.61 83.4204 179.1 83.4422 178.588C83.464 178.075 83.614 177.576 83.8786 177.137C85.6973 173.602 96.7413 171.586 97.2106 171.498C97.2568 171.49 97.3041 171.491 97.3495 171.503C97.395 171.514 97.4376 171.535 97.4746 171.564C97.5117 171.593 97.5426 171.63 97.5653 171.671C97.5879 171.713 97.602 171.758 97.6066 171.806L98.1932 179.381C98.1973 179.434 98.1888 179.488 98.1685 179.538C98.1481 179.587 98.1164 179.632 98.0759 179.667C97.8853 179.821 93.7126 183.275 90.4933 183.275ZM96.9686 172.231C95.0253 172.612 85.9686 174.541 84.5019 177.445C84.2856 177.79 84.16 178.184 84.1369 178.59C84.1138 178.997 84.194 179.402 84.3699 179.77C85.1766 181.332 87.8166 182.241 90.0239 182.571C92.7153 182.974 96.7559 179.88 97.5333 179.264L96.9686 172.231Z" fill="#231F20"/>
<path d="M154.851 146.146C154.851 146.146 149.85 165.653 131.597 169.378C113.344 173.103 103.899 172.121 97.431 159.801C90.963 147.481 95.231 139.942 95.231 139.942L152.834 138.798L154.851 146.146Z" fill="#231F20"/>
<path d="M116.542 171.658C107.742 171.658 101.634 168.593 97.1016 159.969C90.6189 147.612 94.7476 140.074 94.9016 139.758C94.9336 139.703 94.9795 139.657 95.0348 139.625C95.0901 139.593 95.1529 139.576 95.2169 139.575L152.82 138.431C152.903 138.427 152.985 138.452 153.052 138.501C153.119 138.551 153.167 138.622 153.187 138.702L155.182 146.036C155.196 146.098 155.196 146.164 155.182 146.226C155.13 146.424 149.916 166.026 131.642 169.73C125.87 170.925 120.876 171.658 116.542 171.658ZM95.4736 140.301C94.9016 141.511 92.0122 148.683 97.7542 159.632C104.318 172.098 113.888 172.626 131.488 169.018C148.67 165.513 154.03 147.583 154.434 146.146L152.534 139.172L95.4736 140.301Z" fill="#231F20"/>
<path d="M90.9339 146.322C90.9339 146.322 81.4959 115.816 82.7352 96.6976C83.9746 77.5796 91.0806 76.8976 100.775 75.8196C105.08 75.3356 128.011 71.9402 136.599 82.0456C145.186 92.1509 160.3 139.48 160.3 139.48L90.9339 146.322Z" fill="#FF6C22"/>
<path d="M124.996 75.8705L123.529 86.0785C123.529 86.0785 120.317 91.3512 113.886 88.6819C107.455 86.0125 107.33 81.0919 107.33 81.0919L110.381 62.2305C110.381 62.2305 117.164 56.1439 120.017 44.5132C120.017 44.5132 125.7 54.4279 133.95 56.6572C133.95 56.6572 133.4 64.8925 131.926 69.9965C130.459 74.9318 125.099 75.8118 124.996 75.8705Z" fill="white"/>
<path d="M117.334 89.7967C116.086 89.7816 114.855 89.5173 113.711 89.0193C107.111 86.2913 106.935 81.312 106.928 81.0993L110 62.172C110.015 62.0881 110.056 62.0111 110.118 61.952C110.184 61.8933 116.85 55.8067 119.651 44.4253C119.671 44.3554 119.711 44.2928 119.765 44.2447C119.82 44.1966 119.887 44.1651 119.959 44.154C120.031 44.1439 120.104 44.1552 120.169 44.1865C120.234 44.2178 120.289 44.2677 120.326 44.33C120.384 44.4327 126.038 54.142 134.024 56.298C134.107 56.32 134.179 56.3701 134.229 56.4397C134.278 56.5094 134.302 56.5941 134.296 56.6793C134.296 56.76 133.724 65.0173 132.257 70.0993C131.047 74.2867 127.124 75.724 125.334 76.164L123.868 86.13C123.861 86.1786 123.846 86.2257 123.824 86.2693C123.101 87.3316 122.135 88.206 121.006 88.8195C119.877 89.433 118.618 89.7681 117.334 89.7967ZM110.734 62.4067L107.698 81.1507C107.698 81.268 107.918 85.8 114.034 88.3447C119.746 90.7133 122.834 86.4967 123.186 85.9467L124.652 75.8193C124.659 75.7637 124.679 75.7107 124.711 75.6647C124.743 75.6187 124.786 75.5811 124.836 75.5553C124.903 75.5161 124.978 75.4912 125.056 75.482C126.632 75.108 130.431 73.81 131.56 69.894C132.851 65.428 133.438 58.4467 133.548 56.9287C126.654 54.9047 121.653 47.7987 120.157 45.4447C117.37 55.77 111.526 61.6 110.734 62.4067Z" fill="#231F20"/>
<path d="M114.334 62.5165C114.251 61.5624 113.86 60.6613 113.219 59.9498C112.596 59.3106 111.866 58.7846 111.063 58.3951C110.646 58.1375 110.178 57.9748 109.692 57.9185C109.347 57.9218 109.007 57.989 108.687 58.1165C107.906 58.3655 107.24 58.8858 106.81 59.5831C106.526 60.1747 106.393 60.827 106.421 61.4825C106.392 62.1918 106.456 62.9018 106.612 63.5945C106.784 64.2861 107.092 64.9363 107.519 65.5071C107.946 66.0778 108.483 66.5576 109.097 66.9182C109.712 67.2789 110.393 67.5132 111.099 67.6073C111.806 67.7014 112.524 67.6535 113.212 67.4665" fill="white"/>
<path d="M111.819 67.9871C110.543 67.9883 109.303 67.5632 108.296 66.7794C107.289 65.9955 106.573 64.8978 106.261 63.6604C106.091 62.9401 106.021 62.1997 106.055 61.4604C106.029 60.7462 106.178 60.0364 106.488 59.3924C106.955 58.6258 107.681 58.0511 108.534 57.7718C108.899 57.6299 109.286 57.5554 109.678 57.5518C110.221 57.609 110.745 57.7869 111.211 58.0724C112.049 58.4817 112.811 59.0324 113.462 59.7004C114.157 60.4731 114.582 61.4514 114.672 62.4871C114.678 62.584 114.646 62.6794 114.583 62.7533C114.52 62.8272 114.431 62.8738 114.335 62.8831C114.238 62.8874 114.144 62.855 114.07 62.7924C113.997 62.7298 113.95 62.6417 113.939 62.5458C113.867 61.6732 113.514 60.8474 112.934 60.1918C112.338 59.5864 111.64 59.09 110.873 58.7251C110.507 58.4906 110.094 58.3403 109.663 58.2851C109.366 58.2876 109.072 58.3473 108.798 58.4611C108.105 58.675 107.509 59.1236 107.111 59.7298C106.862 60.2714 106.747 60.8649 106.774 61.4604C106.739 62.1379 106.8 62.817 106.957 63.4771C107.119 64.119 107.406 64.7225 107.803 65.2524C108.199 65.7823 108.697 66.2281 109.268 66.5638C109.838 66.8995 110.47 67.1185 111.125 67.208C111.781 67.2975 112.448 67.2557 113.088 67.0851C113.181 67.0604 113.281 67.0734 113.364 67.1215C113.448 67.1695 113.509 67.2487 113.535 67.3418C113.547 67.3885 113.55 67.4371 113.543 67.4849C113.537 67.5327 113.521 67.5787 113.496 67.6202C113.472 67.6618 113.439 67.6981 113.4 67.7271C113.362 67.756 113.318 67.7771 113.271 67.7891C112.798 67.9197 112.31 67.9863 111.819 67.9871Z" fill="#231F20"/>
<path d="M123.553 59.6055C123.553 59.6055 126.435 65.2888 125.489 66.1028C124.543 66.9168 122.27 66.0221 122.27 66.0221" fill="white"/>
<path d="M124.306 66.814C123.553 66.7908 122.809 66.6395 122.106 66.3667C122.062 66.3489 122.021 66.3225 121.986 66.2889C121.952 66.2553 121.924 66.2152 121.905 66.171C121.886 66.1267 121.876 66.0791 121.875 66.0309C121.874 65.9827 121.883 65.9348 121.901 65.89C121.939 65.8008 122.009 65.7295 122.098 65.6912C122.187 65.6529 122.287 65.6506 122.378 65.6847C122.913 65.89 124.578 66.3667 125.216 65.824C125.604 65.5014 124.636 62.612 123.199 59.7667C123.177 59.724 123.163 59.6772 123.159 59.6291C123.155 59.5811 123.16 59.5326 123.175 59.4868C123.19 59.4409 123.215 59.3986 123.246 59.3623C123.278 59.3259 123.317 59.2964 123.36 59.2754C123.447 59.2338 123.547 59.2274 123.638 59.2574C123.73 59.2875 123.806 59.3517 123.852 59.4367C124.754 61.226 126.748 65.4794 125.7 66.3814C125.298 66.6799 124.807 66.8325 124.306 66.814Z" fill="#231F20"/>
<path d="M119.971 58.3208C120.027 57.6427 119.679 57.0609 119.194 57.0214C118.71 56.9819 118.273 57.4997 118.217 58.1778C118.162 58.856 118.51 59.4378 118.994 59.4773C119.479 59.5167 119.916 58.999 119.971 58.3208Z" fill="#231F20"/>
<path d="M129.058 59.576C129.108 58.8974 128.756 58.3181 128.272 58.282C127.787 58.2459 127.353 58.7667 127.302 59.4452C127.252 60.1238 127.604 60.7031 128.089 60.7392C128.573 60.7753 129.007 60.2545 129.058 59.576Z" fill="#231F20"/>
<path d="M122.805 71.3608C121.683 71.3805 120.574 71.1289 119.571 70.6274C117.818 69.7108 116.696 67.9581 116.234 65.4208C116.226 65.3731 116.227 65.3242 116.237 65.2769C116.248 65.2297 116.268 65.185 116.296 65.1454C116.324 65.1059 116.359 65.0723 116.4 65.0465C116.441 65.0208 116.487 65.0034 116.535 64.9954C116.63 64.9802 116.727 65.0022 116.806 65.0568C116.885 65.1115 116.941 65.1945 116.96 65.2888C117.371 67.5914 118.368 69.1681 119.893 69.9748C122.973 71.5881 127.307 69.6374 127.351 69.6154C127.44 69.5758 127.541 69.5728 127.631 69.6071C127.722 69.6415 127.795 69.7104 127.835 69.7988C127.856 69.8424 127.868 69.8898 127.87 69.9381C127.872 69.9864 127.864 70.0346 127.847 70.0797C127.83 70.1249 127.803 70.1662 127.77 70.2011C127.737 70.236 127.697 70.2637 127.652 70.2828C126.121 70.95 124.475 71.316 122.805 71.3608Z" fill="#231F20"/>
<path d="M124.997 75.8708C124.997 75.8708 118.397 76.4135 114.994 73.7295C114.994 73.7295 117.891 82.8962 123.977 82.8668L124.997 75.8708Z" fill="#231F20"/>
<path d="M123.934 83.2335C117.671 83.2335 114.752 74.2208 114.628 73.8395C114.606 73.7643 114.609 73.6842 114.635 73.6106C114.661 73.5369 114.71 73.4733 114.774 73.4288C114.836 73.3806 114.912 73.3545 114.991 73.3545C115.069 73.3545 115.145 73.3806 115.207 73.4288C118.485 75.9881 124.887 75.4968 124.953 75.4895C125.008 75.4856 125.062 75.4941 125.113 75.5142C125.164 75.5342 125.21 75.5655 125.247 75.6056C125.285 75.6457 125.312 75.6936 125.329 75.7458C125.345 75.7981 125.35 75.8533 125.342 75.9075L124.322 82.9108C124.307 83.0021 124.259 83.0847 124.188 83.1439C124.116 83.2031 124.026 83.2348 123.934 83.2335ZM115.72 74.6535C116.652 76.9488 119.292 82.2655 123.648 82.4928L124.55 76.2668C123.142 76.3255 118.8 76.3695 115.735 74.6535H115.72Z" fill="#231F20"/>
<path d="M93.5067 77.5208C79.9621 75.8341 67.2461 133.335 74.6381 138.798C86.1661 147.327 121.351 135.681 121.351 135.681L117.831 120.509C117.831 120.509 92.4361 121.719 91.9741 116.505C91.5121 111.291 106.164 86.8488 104.111 83.2848C102.057 79.7208 93.5067 77.5208 93.5067 77.5208Z" fill="#FF6C22"/>
<path d="M140.801 120.934C140.72 120.936 140.641 120.908 140.58 120.855C140.519 120.802 140.48 120.728 140.471 120.648C138.725 108.387 134.897 87.8532 133.658 86.6506C133.598 86.5875 133.564 86.5035 133.564 86.4162C133.565 86.329 133.599 86.2452 133.66 86.1826C133.72 86.1199 133.803 86.0833 133.89 86.0803C133.977 86.0773 134.062 86.1082 134.127 86.1666C135.719 87.7139 139.811 111.269 141.131 120.553C141.143 120.641 141.12 120.731 141.067 120.802C141.013 120.874 140.933 120.921 140.845 120.934H140.801Z" fill="#231F20"/>
<path d="M127.842 149.944L104.463 143.396L147.4 135.322L170.639 145.06L127.842 149.944Z" fill="white"/>
<path d="M127.843 150.333C127.811 150.34 127.779 150.34 127.747 150.333L104.369 143.733C104.271 143.733 104.178 143.695 104.109 143.626C104.041 143.557 104.002 143.464 104.002 143.367C104.002 143.269 104.041 143.176 104.109 143.107C104.178 143.039 104.271 143 104.369 143L147.305 134.933C147.372 134.912 147.444 134.912 147.511 134.933L170.75 144.672C170.824 144.704 170.886 144.759 170.926 144.829C170.966 144.899 170.981 144.981 170.97 145.061C170.959 145.142 170.921 145.217 170.863 145.274C170.804 145.331 170.729 145.367 170.647 145.376L127.887 150.333H127.843ZM106.077 143.491L127.872 149.6L169.203 144.885L147.357 135.733L106.077 143.491Z" fill="#231F20"/>
<path d="M114.047 125.752C119.181 126.317 123.94 126.683 128.714 128.685C131.442 129.831 134.018 131.309 136.385 133.085C137.59 133.941 138.717 134.903 139.751 135.96C140.572 136.855 140.308 137.727 138.929 137.295C137.326 136.792 135.808 136.051 134.427 135.095C137.73 137.789 140.657 140.914 143.131 144.386C143.41 144.782 143.681 145.347 143.351 145.699C143.021 146.051 142.288 145.699 141.885 145.332L134.632 138.453C136.552 140.11 138.185 142.072 139.465 144.261C139.648 144.577 139.824 144.995 139.633 145.281C139.311 145.816 138.489 145.413 138.049 144.965C135.877 142.772 133.902 140.391 132.146 137.852L136.062 143.719C136.025 143.827 135.967 143.927 135.891 144.012C135.815 144.098 135.723 144.167 135.62 144.217C135.517 144.267 135.405 144.296 135.291 144.302C135.177 144.309 135.063 144.292 134.955 144.254C134.523 144.076 134.15 143.781 133.877 143.403L129.132 137.955L131.933 141.812C132.373 142.413 132.813 143.279 132.307 143.843C131.801 144.408 130.657 143.843 130.012 143.271C127.416 140.903 124.566 138.829 121.513 137.089C120.405 136.437 119.459 135.549 118.235 135.175C116.475 134.633 114.275 134.706 112.441 134.501" fill="white"/>
<path d="M142.999 146.197C142.509 146.142 142.053 145.919 141.709 145.566L139.362 143.366C139.516 143.608 139.67 143.858 139.809 144.1C139.958 144.291 140.052 144.518 140.081 144.759C140.111 144.999 140.075 145.242 139.978 145.464C139.912 145.577 139.821 145.673 139.711 145.744C139.602 145.815 139.477 145.86 139.347 145.874C139.07 145.871 138.796 145.81 138.544 145.695C138.291 145.58 138.065 145.414 137.88 145.207C137.396 144.723 136.927 144.232 136.465 143.74C136.468 143.767 136.468 143.794 136.465 143.821C136.437 143.957 136.381 144.085 136.3 144.198C136.219 144.31 136.116 144.404 135.996 144.474C135.838 144.568 135.661 144.63 135.479 144.654C135.296 144.678 135.11 144.664 134.932 144.613C134.439 144.42 134.012 144.089 133.7 143.66L132.835 142.67C132.943 142.909 132.981 143.173 132.945 143.433C132.908 143.692 132.799 143.936 132.63 144.136C132.524 144.255 132.396 144.35 132.252 144.417C132.108 144.484 131.952 144.521 131.794 144.525C131.028 144.442 130.319 144.082 129.799 143.513C127.229 141.157 124.4 139.1 121.366 137.382C120.992 137.162 120.632 136.913 120.28 136.649C119.64 136.149 118.925 135.754 118.161 135.476C116.882 135.152 115.571 134.975 114.252 134.948C113.622 134.911 113.006 134.874 112.426 134.816C112.338 134.805 112.258 134.759 112.203 134.689C112.148 134.619 112.123 134.53 112.133 134.442C112.138 134.398 112.151 134.356 112.172 134.318C112.193 134.28 112.221 134.246 112.255 134.219C112.289 134.191 112.328 134.171 112.37 134.159C112.412 134.147 112.456 134.143 112.5 134.148C113.072 134.207 113.673 134.244 114.289 134.28C115.662 134.307 117.028 134.491 118.359 134.83C119.186 135.133 119.962 135.558 120.662 136.092C120.999 136.334 121.344 136.568 121.703 136.781C124.779 138.529 127.649 140.615 130.261 143C130.658 143.403 131.171 143.672 131.728 143.77C131.796 143.767 131.863 143.751 131.925 143.722C131.986 143.693 132.042 143.652 132.087 143.601C132.483 143.168 131.94 142.325 131.691 141.98L128.89 138.13C128.864 138.097 128.844 138.058 128.833 138.017C128.822 137.976 128.819 137.933 128.824 137.891C128.83 137.849 128.844 137.808 128.865 137.771C128.886 137.734 128.915 137.702 128.948 137.676C129.01 137.615 129.093 137.581 129.179 137.581C129.266 137.581 129.349 137.615 129.41 137.676L134.162 143.124C134.394 143.449 134.712 143.703 135.079 143.858C135.166 143.882 135.257 143.889 135.346 143.877C135.436 143.866 135.522 143.837 135.6 143.792C135.647 143.767 135.687 143.732 135.717 143.689L131.896 137.947C131.847 137.874 131.828 137.785 131.845 137.698C131.861 137.611 131.912 137.535 131.984 137.485C132.057 137.436 132.147 137.417 132.234 137.433C132.32 137.45 132.397 137.5 132.446 137.573C134.194 140.095 136.157 142.46 138.313 144.642C138.552 144.905 138.878 145.071 139.23 145.112C139.259 145.111 139.287 145.102 139.312 145.087C139.336 145.071 139.356 145.05 139.369 145.024C139.45 144.899 139.369 144.664 139.201 144.342C138.318 142.831 137.262 141.428 136.054 140.162L134.419 138.607C134.366 138.544 134.338 138.464 134.34 138.382C134.342 138.3 134.374 138.221 134.43 138.161C134.486 138.101 134.561 138.063 134.643 138.054C134.725 138.046 134.807 138.068 134.874 138.116C135.453 138.614 136.003 139.135 136.531 139.685L142.134 145.002C142.352 145.249 142.651 145.411 142.977 145.456C143.007 145.458 143.036 145.452 143.063 145.439C143.09 145.426 143.113 145.407 143.131 145.383C143.3 145.207 143.131 144.811 142.889 144.488C140.433 141.042 137.528 137.94 134.25 135.263C134.19 135.206 134.154 135.129 134.147 135.046C134.14 134.964 134.164 134.882 134.213 134.816C134.263 134.749 134.336 134.704 134.417 134.688C134.498 134.672 134.582 134.686 134.654 134.728C136.002 135.666 137.486 136.393 139.054 136.884C139.567 137.045 139.838 136.979 139.89 136.884C139.941 136.788 139.89 136.466 139.53 136.084C138.513 135.04 137.401 134.093 136.208 133.254C133.865 131.496 131.314 130.035 128.611 128.905C124.306 127.108 120.002 126.646 115.411 126.155L113.981 125.994C113.938 125.989 113.896 125.976 113.857 125.955C113.819 125.934 113.785 125.906 113.758 125.872C113.731 125.838 113.71 125.798 113.698 125.756C113.686 125.714 113.683 125.671 113.688 125.627C113.692 125.584 113.706 125.542 113.726 125.503C113.747 125.465 113.776 125.431 113.81 125.404C113.844 125.377 113.883 125.356 113.925 125.344C113.967 125.332 114.011 125.329 114.054 125.334L115.521 125.488C120.134 125.986 124.482 126.456 128.875 128.289C131.629 129.43 134.23 130.908 136.619 132.689C137.845 133.561 138.989 134.543 140.037 135.622C140.565 136.194 140.726 136.818 140.462 137.236C140.308 137.47 139.897 137.822 138.863 137.5C138.266 137.317 137.681 137.099 137.11 136.847C139.455 139.041 141.575 141.463 143.439 144.078C143.945 144.811 144.011 145.405 143.637 145.816C143.557 145.904 143.46 145.975 143.351 146.024C143.243 146.073 143.126 146.1 143.006 146.102L142.999 146.197Z" fill="#231F20"/>
<path d="M170.639 145.06L181.338 116.424L137.639 117.289L127.842 149.945L170.639 145.06Z" fill="white"/>
<path d="M127.842 150.333C127.788 150.334 127.735 150.322 127.687 150.299C127.639 150.276 127.596 150.243 127.563 150.201C127.525 150.155 127.498 150.1 127.485 150.041C127.472 149.983 127.474 149.922 127.49 149.864L137.287 117.208C137.311 117.135 137.357 117.07 137.418 117.023C137.48 116.975 137.554 116.948 137.632 116.944L181.331 116.079C181.391 116.078 181.45 116.092 181.504 116.119C181.557 116.145 181.604 116.185 181.639 116.233C181.671 116.283 181.691 116.339 181.699 116.397C181.707 116.455 181.701 116.515 181.683 116.57L170.984 145.17C170.96 145.235 170.918 145.292 170.864 145.335C170.81 145.378 170.744 145.405 170.676 145.412L127.886 150.333H127.842ZM137.918 117.67L128.384 149.541L170.404 144.745L180.832 116.82L137.918 117.67Z" fill="#231F20"/>
<path d="M168.307 145.325C168.307 145.325 180.165 154.953 176 163.783C171.834 172.612 96.0663 182.703 96.0663 182.703L92.6562 171.16C92.6562 171.16 152.093 140.8 168.307 145.325Z" fill="#231F20"/>
<path d="M96.066 183.069C95.987 183.068 95.9103 183.042 95.8471 182.994C95.7838 182.947 95.7372 182.881 95.714 182.805L92.304 171.263C92.2779 171.181 92.2821 171.094 92.3159 171.015C92.3496 170.937 92.4105 170.874 92.4873 170.837C92.634 170.757 107.543 163.167 124.248 156.215C146.725 146.865 161.575 143.081 168.38 144.973C168.431 144.987 168.479 145.012 168.519 145.046C170.589 146.804 172.427 148.817 173.99 151.037C177.261 155.745 178.053 160.204 176.278 163.944C172.039 172.847 99.212 182.651 96.1173 183.062L96.066 183.069ZM93.0887 171.336L96.33 182.277C101.625 181.544 171.68 171.879 175.618 163.614C179.49 155.459 169.018 146.388 168.109 145.647C152.694 141.533 97.5327 169.136 93.1327 171.351L93.0887 171.336Z" fill="#231F20"/>
<path d="M88.7339 140.903C88.7339 140.903 147.569 164.692 162.155 170.969L153.678 184.067C153.678 184.067 99.3525 183.003 83.7765 169.356C68.2005 155.709 69.2345 132.99 88.7339 140.903Z" fill="#231F20"/>
<path d="M153.677 184.448C153.545 184.448 139.898 184.162 124.527 182.211C103.847 179.579 90.0607 175.355 83.5413 169.642C75.3867 162.499 69.674 149.959 74.162 142.677C75.6287 140.257 79.5447 136.774 88.8873 140.558C89.474 140.8 147.891 164.428 162.316 170.625C162.365 170.645 162.409 170.675 162.445 170.715C162.48 170.754 162.506 170.801 162.521 170.852C162.536 170.903 162.54 170.958 162.532 171.011C162.525 171.064 162.506 171.115 162.477 171.16L154 184.279C153.966 184.333 153.918 184.377 153.861 184.406C153.805 184.436 153.741 184.45 153.677 184.448ZM81.51 139.627C78.496 139.627 76.186 140.785 74.778 143.059C71.3167 148.683 74.1987 160.49 84.018 169.092C98.8387 182.079 149.82 183.619 153.479 183.707L161.619 171.131C146.557 164.677 89.188 141.475 88.6014 141.24C86.3616 140.256 83.9549 139.709 81.51 139.627Z" fill="#231F20"/>
<path d="M170.867 133.628C170.93 133.967 171.076 134.284 171.292 134.552L172.436 136.261C172.394 136.084 172.314 135.919 172.202 135.777C172.089 135.635 171.947 135.519 171.784 135.438C171.622 135.357 171.444 135.312 171.263 135.307C171.081 135.302 170.901 135.338 170.735 135.41C170.41 135.586 170.14 135.848 169.955 136.168C169.77 136.487 169.677 136.852 169.686 137.221C169.719 137.959 169.893 138.684 170.2 139.355C171.014 141.467 172.854 144.555 175.516 142.956C177.32 141.871 177.819 138.043 178.076 136.136C178.582 132.381 177.43 127.556 172.605 128.289C172.744 130.138 173.434 131.903 174.585 133.357C173.8 132.594 170.625 131.413 170.867 133.628Z" fill="white"/>
<path d="M174.042 143.733C173.748 143.735 173.455 143.686 173.177 143.586C171.439 142.992 170.354 140.756 169.862 139.472C169.542 138.76 169.361 137.994 169.327 137.214C169.315 136.78 169.427 136.352 169.649 135.979C169.871 135.607 170.194 135.305 170.581 135.109C170.761 135.027 170.956 134.985 171.153 134.984L170.992 134.742C170.741 134.427 170.575 134.054 170.508 133.657C170.449 133.366 170.49 133.064 170.623 132.798C170.755 132.532 170.973 132.318 171.241 132.19C171.993 131.958 172.805 132.019 173.514 132.359C172.81 131.128 172.389 129.755 172.282 128.34C172.278 128.256 172.304 128.173 172.357 128.106C172.41 128.04 172.485 127.995 172.568 127.981C173.302 127.821 174.064 127.841 174.789 128.04C175.513 128.239 176.178 128.612 176.726 129.125C178.45 130.826 178.736 133.892 178.42 136.202C178.134 138.314 177.621 142.105 175.7 143.264C175.203 143.574 174.628 143.736 174.042 143.733ZM171.197 135.666C171.079 135.665 170.962 135.687 170.852 135.732C170.585 135.882 170.365 136.102 170.215 136.368C170.065 136.635 169.991 136.937 170.002 137.243C170.031 137.938 170.195 138.621 170.486 139.252C170.852 140.191 171.864 142.442 173.419 142.97C173.74 143.073 174.08 143.101 174.413 143.051C174.746 143.001 175.063 142.876 175.34 142.684C176.99 141.694 177.489 137.969 177.731 136.18C178.032 133.98 177.79 131.12 176.264 129.58C175.831 129.172 175.311 128.87 174.742 128.696C174.174 128.521 173.573 128.48 172.986 128.575C173.175 130.244 173.828 131.827 174.871 133.144C174.925 133.21 174.951 133.294 174.944 133.379C174.937 133.463 174.898 133.542 174.834 133.598C174.772 133.657 174.689 133.69 174.603 133.69C174.518 133.69 174.435 133.657 174.372 133.598C173.881 133.114 172.26 132.425 171.534 132.777C171.373 132.85 171.168 133.019 171.219 133.591C171.283 133.874 171.408 134.139 171.586 134.368L172.202 135.278C172.363 135.383 172.5 135.522 172.601 135.685C172.702 135.849 172.766 136.033 172.788 136.224C172.796 136.299 172.779 136.374 172.739 136.438C172.699 136.501 172.639 136.55 172.568 136.576C172.498 136.601 172.422 136.602 172.351 136.578C172.28 136.554 172.22 136.506 172.18 136.444L171.725 135.769C171.561 135.69 171.379 135.654 171.197 135.666Z" fill="#231F20"/>
<path d="M154.344 168.256C154.298 168.263 154.251 168.263 154.204 168.256C152.921 167.757 122.59 156.017 115.756 151.829C115.671 151.776 115.61 151.692 115.587 151.595C115.563 151.497 115.579 151.395 115.631 151.309C115.657 151.266 115.691 151.229 115.731 151.199C115.771 151.17 115.817 151.148 115.865 151.137C115.914 151.125 115.964 151.123 116.013 151.131C116.062 151.14 116.11 151.158 116.152 151.184C122.928 155.335 154.16 167.427 154.476 167.545C154.57 167.581 154.646 167.653 154.687 167.745C154.728 167.837 154.732 167.942 154.696 168.036C154.665 168.103 154.616 168.16 154.553 168.199C154.49 168.239 154.418 168.258 154.344 168.256Z" fill="white"/>
<path d="M118.969 120.369C125.655 120.369 131.076 115.238 131.076 108.907C131.076 102.577 125.655 97.4453 118.969 97.4453C112.282 97.4453 106.861 102.577 106.861 108.907C106.861 115.238 112.282 120.369 118.969 120.369Z" fill="#231F20"/>
<path d="M118.969 120.729C112.09 120.729 106.502 115.427 106.502 108.907C106.502 102.388 112.097 97.0786 118.969 97.0786C125.84 97.0786 131.435 102.388 131.435 108.907C131.435 115.427 125.847 120.729 118.969 120.729ZM118.969 97.8119C112.493 97.8119 107.235 102.791 107.235 108.907C107.235 115.023 112.501 119.995 118.969 119.995C125.437 119.995 130.702 115.023 130.702 108.907C130.702 102.791 125.444 97.8119 118.969 97.8119Z" fill="#231F20"/>
<path d="M112.582 112.633L109.648 110.917V108.651L112.582 106.935C113.56 106.373 114.537 105.801 115.515 105.219V107.961C114.994 108.284 114.474 108.599 113.953 108.9C113.432 109.201 112.919 109.509 112.391 109.839L113.953 110.704L115.515 111.577V114.349L112.582 112.633Z" fill="white"/>
<path d="M116.344 115.074L119.798 101.933L121.602 102.747L118.133 115.866L116.344 115.074Z" fill="white"/>
<path d="M125.4 106.935L128.333 108.651V110.917L125.4 112.633L122.467 114.349V111.577L124.029 110.704L125.591 109.839C125.07 109.509 124.549 109.193 124.029 108.9C123.508 108.607 122.995 108.284 122.467 107.961V105.219L125.4 106.935Z" fill="white"/>
<path d="M93.8673 140.8C93.77 140.806 93.6745 140.773 93.6016 140.708C93.5287 140.644 93.4845 140.553 93.4786 140.455C93.4728 140.358 93.5058 140.263 93.5705 140.19C93.6351 140.117 93.726 140.073 93.8233 140.067L111.423 137.933L114.217 123.845L91.6673 121.939C91.6134 121.935 91.561 121.919 91.514 121.893C91.4671 121.866 91.4267 121.829 91.396 121.785C91.363 121.741 91.3406 121.691 91.3304 121.638C91.3203 121.584 91.3226 121.529 91.3373 121.477L100.607 86.9661C100.632 86.8689 100.695 86.7857 100.781 86.7348C100.868 86.6839 100.971 86.6695 101.069 86.6948C101.166 86.7201 101.249 86.783 101.3 86.8696C101.351 86.9563 101.365 87.0596 101.34 87.1568L92.1806 121.249L114.672 123.112C114.724 123.118 114.773 123.134 114.819 123.159C114.864 123.184 114.904 123.218 114.936 123.259C114.967 123.3 114.988 123.348 115 123.399C115.011 123.449 115.012 123.501 115.002 123.552L112.069 138.299C112.053 138.375 112.014 138.444 111.957 138.496C111.901 138.549 111.83 138.582 111.753 138.593L93.8673 140.756V140.8Z" fill="#231F20"/>
<path d="M190.785 41.2134H154.221V44.9974H190.785V41.2134Z" fill="#E6E7E8"/>
<path d="M231.601 41.2134H195.037V44.9974H231.601V41.2134Z" fill="#E6E7E8"/>
<path d="M190.785 47.6958H169.32V51.4798H190.785V47.6958Z" fill="#FF6C22"/>
<path d="M227.516 47.6958H195.037V51.4798H227.516V47.6958Z" fill="#E6E7E8"/>
<path d="M190.783 54.186H163.73V57.97H190.783V54.186Z" fill="#E6E7E8"/>
<path d="M210.29 54.186H195.037V57.97H210.29V54.186Z" fill="#E6E7E8"/>
<path d="M190.791 60.6685H175.01V64.4525H190.791V60.6685Z" fill="#E6E7E8"/>
<path d="M224.913 60.6685H195.037V64.4525H224.913V60.6685Z" fill="#FF6C22"/>
<path d="M190.783 67.1587H185.76V70.9427H190.783V67.1587Z" fill="#FF6C22"/>
<path d="M215.108 67.1587H195.037V70.9427H215.108V67.1587Z" fill="#E6E7E8"/>
<path d="M190.154 93.8228H156.553V98.1568H190.154V93.8228Z" fill="#FF6C22"/>
<path d="M216.187 93.8228H195.551V98.1568H216.187V93.8228Z" fill="#E6E7E8"/>
<path d="M190.145 101.244H162.865V105.578H190.145V101.244Z" fill="#E6E7E8"/>
<path d="M225.595 101.244H195.551V105.578H225.595V101.244Z" fill="#E6E7E8"/>
<path d="M190.146 108.673H176.506V113.007H190.146V108.673Z" fill="#E6E7E8"/>
<path d="M231.279 108.673H195.551V113.007H231.279V108.673Z" fill="#E6E7E8"/>
<path d="M190.146 116.102H185.035V120.436H190.146V116.102Z" fill="#E6E7E8"/>
<path d="M233.523 116.102H195.551V120.436H233.523V116.102Z" fill="#FF6C22"/>
<path d="M221.056 123.522H195.551V127.856H221.056V123.522Z" fill="#E6E7E8"/>
<path d="M208.48 84.4215L205.723 83.3215V81.8548L208.48 80.7548L211.237 79.6548V81.4001C210.739 81.6128 210.247 81.8108 209.771 82.0015C209.294 82.1921 208.788 82.3901 208.304 82.6028L209.771 83.1601L211.237 83.7175V85.4921L208.48 84.4215Z" fill="#E6E7E8"/>
<path d="M212.051 85.9831L215.321 77.5718L217.037 78.0851L213.745 86.5331L212.051 85.9831Z" fill="#E6E7E8"/>
<path d="M220.601 80.7768C221.518 81.1434 222.442 81.5101 223.358 81.8768V83.3434L220.601 84.4434L217.844 85.5434V83.7468L219.31 83.1894L220.777 82.6321C220.278 82.4194 219.787 82.2214 219.31 82.0308C218.834 81.8401 218.328 81.6421 217.844 81.4294V79.6768L220.601 80.7768Z" fill="#E6E7E8"/>
<path d="M155.18 32.1935C155.179 32.0235 155.216 31.8555 155.29 31.7021C155.354 31.5459 155.451 31.4057 155.576 31.2915C155.698 31.1786 155.839 31.0891 155.994 31.0275C156.159 30.9597 156.336 30.9248 156.514 30.9248C156.683 30.9264 156.85 30.9612 157.006 31.0275C157.157 31.0909 157.296 31.1802 157.416 31.2915C157.534 31.4101 157.628 31.5493 157.695 31.7021C157.763 31.8571 157.798 32.0244 157.798 32.1935C157.798 32.3649 157.763 32.5346 157.695 32.6921C157.626 32.8373 157.532 32.969 157.416 33.0808C157.171 33.3098 156.85 33.4404 156.514 33.4475C156.336 33.4475 156.159 33.4126 155.994 33.3448C155.838 33.286 155.696 33.1961 155.576 33.0808C155.454 32.9732 155.356 32.8407 155.29 32.6921C155.216 32.5362 155.179 32.3658 155.18 32.1935ZM155.18 36.4908C155.183 36.3229 155.22 36.1573 155.288 36.0038C155.356 35.8502 155.454 35.7116 155.576 35.5961C155.695 35.4785 155.838 35.3862 155.994 35.3248C156.159 35.2595 156.336 35.2271 156.514 35.2295C156.683 35.2285 156.85 35.2609 157.006 35.3248C157.159 35.3881 157.298 35.4802 157.416 35.5961C157.534 35.712 157.628 35.8488 157.695 35.9995C157.763 36.1557 157.798 36.3242 157.798 36.4945C157.798 36.6647 157.763 36.8332 157.695 36.9895C157.628 37.138 157.534 37.2724 157.416 37.3855C157.296 37.4967 157.157 37.5861 157.006 37.6495C156.85 37.7134 156.683 37.7458 156.514 37.7448C156.336 37.7471 156.159 37.7148 155.994 37.6495C155.839 37.5878 155.698 37.4983 155.576 37.3855C155.452 37.2766 155.354 37.1412 155.29 36.9895C155.215 36.8338 155.178 36.6632 155.18 36.4908Z" fill="#E6E7E8"/>
<path d="M198 155.584C198.29 155.599 198.577 155.516 198.814 155.349C199.019 155.195 199.115 154.872 199.115 154.374V152.1C199.114 151.724 199.163 151.349 199.261 150.986C199.353 150.647 199.507 150.329 199.716 150.047C199.929 149.776 200.2 149.556 200.508 149.402C200.875 149.231 201.277 149.148 201.681 149.16H203.331V151.521H202.752C202.62 151.508 202.486 151.531 202.366 151.588C202.246 151.645 202.144 151.733 202.07 151.844C201.943 152.067 201.88 152.321 201.887 152.577V154.894C201.895 155.188 201.842 155.48 201.733 155.752C201.644 155.963 201.52 156.156 201.366 156.324C201.231 156.469 201.069 156.586 200.889 156.669C200.746 156.745 200.589 156.792 200.427 156.808C200.587 156.838 200.742 156.887 200.889 156.955C201.069 157.032 201.231 157.145 201.366 157.285C201.719 157.676 201.906 158.189 201.887 158.715V161.04C201.877 161.297 201.941 161.551 202.07 161.773C202.143 161.885 202.245 161.975 202.365 162.033C202.485 162.091 202.619 162.115 202.752 162.103H203.331V164.464H201.681C201.277 164.476 200.875 164.394 200.508 164.222C200.2 164.068 199.929 163.848 199.716 163.577C199.508 163.295 199.354 162.977 199.261 162.638C199.164 162.272 199.115 161.895 199.115 161.516V159.243C199.14 159.07 199.126 158.893 199.074 158.725C199.022 158.557 198.933 158.404 198.814 158.275C198.577 158.108 198.29 158.025 198 158.04V155.584Z" fill="#E6E7E8"/>
<path d="M223.329 158.026C223.037 158.011 222.748 158.093 222.508 158.26C222.39 158.39 222.301 158.544 222.25 158.711C222.198 158.878 222.183 159.055 222.207 159.228V161.502C222.207 161.881 222.158 162.258 222.06 162.624C221.97 162.963 221.816 163.282 221.606 163.562C221.396 163.837 221.125 164.058 220.814 164.208C220.447 164.379 220.045 164.462 219.64 164.45H217.99V162.066H218.577C218.709 162.077 218.841 162.053 218.96 161.994C219.078 161.936 219.179 161.847 219.252 161.737C219.381 161.514 219.444 161.26 219.435 161.003V158.678C219.427 158.387 219.48 158.098 219.589 157.828C219.679 157.614 219.805 157.418 219.963 157.248C220.096 157.109 220.256 156.997 220.432 156.918C220.582 156.851 220.74 156.802 220.902 156.772C220.738 156.755 220.579 156.707 220.432 156.632C220.254 156.55 220.095 156.433 219.963 156.288C219.804 156.122 219.677 155.928 219.589 155.716C219.479 155.443 219.427 155.151 219.435 154.858V152.533C219.442 152.277 219.378 152.023 219.252 151.8C219.178 151.69 219.077 151.603 218.958 151.546C218.84 151.489 218.708 151.465 218.577 151.477H217.99V149.16H219.64C220.045 149.148 220.447 149.231 220.814 149.402C221.125 149.552 221.396 149.773 221.606 150.047C221.818 150.327 221.972 150.646 222.06 150.986C222.158 151.349 222.207 151.724 222.207 152.1V154.374C222.182 154.548 222.197 154.726 222.249 154.895C222.301 155.064 222.389 155.219 222.508 155.349C222.748 155.516 223.037 155.599 223.329 155.584V158.026Z" fill="#E6E7E8"/>
</svg>
