<svg width="294" height="220" viewBox="0 0 294 220" fill="none" xmlns="http://www.w3.org/2000/svg">
<path d="M106.979 96.8C106.935 96.801 106.89 96.793 106.848 96.7765C106.806 96.7599 106.768 96.7353 106.736 96.7038C106.704 96.6724 106.679 96.6349 106.661 96.5935C106.644 96.5521 106.635 96.5076 106.635 96.4627V56.804C106.635 53.3031 108.025 49.9457 110.501 47.4702C112.976 44.9947 116.334 43.604 119.835 43.604H129.581C129.67 43.6059 129.754 43.642 129.817 43.7049C129.88 43.7677 129.916 43.8525 129.918 43.9413C129.918 44.0308 129.883 44.1166 129.819 44.1799C129.756 44.2431 129.67 44.2787 129.581 44.2787H119.805C116.502 44.2883 113.337 45.6049 111.001 47.9408C108.665 50.2766 107.348 53.4419 107.339 56.7453V96.4333C107.343 96.482 107.337 96.5309 107.32 96.5769C107.304 96.6229 107.278 96.6647 107.244 96.6996C107.21 96.7344 107.168 96.7615 107.123 96.7788C107.077 96.7962 107.028 96.8034 106.979 96.8Z" fill="#D1D3D4"/>
<path d="M106.98 96.8734C106.935 96.8743 106.89 96.8663 106.848 96.8498C106.807 96.8333 106.769 96.8086 106.737 96.7772C106.704 96.7458 106.679 96.7082 106.661 96.6668C106.644 96.6254 106.635 96.5809 106.635 96.536V86.0273C106.624 80.7913 104.538 75.773 100.836 72.0706C97.1334 68.3681 92.1152 66.283 86.8791 66.2714H74.0678C73.9789 66.2695 73.8942 66.2333 73.8313 66.1705C73.7685 66.1076 73.7323 66.0229 73.7305 65.934C73.7305 65.8446 73.766 65.7587 73.8293 65.6955C73.8925 65.6322 73.9783 65.5967 74.0678 65.5967H86.8791C92.2966 65.6025 97.4906 67.7566 101.322 71.5867C105.153 75.4167 107.309 80.6099 107.317 86.0273V96.536C107.317 96.6255 107.282 96.7113 107.218 96.7745C107.155 96.8378 107.069 96.8734 106.98 96.8734Z" fill="#D1D3D4"/>
<path d="M232.153 126.133H195.068C195.024 126.133 194.98 126.125 194.939 126.108C194.898 126.091 194.861 126.066 194.829 126.034C194.798 126.003 194.773 125.966 194.756 125.925C194.739 125.884 194.731 125.84 194.731 125.796C194.73 125.751 194.738 125.707 194.754 125.666C194.771 125.624 194.796 125.587 194.827 125.555C194.859 125.524 194.896 125.499 194.938 125.482C194.979 125.466 195.023 125.458 195.068 125.459H232.145C232.235 125.459 232.32 125.494 232.384 125.557C232.447 125.621 232.483 125.706 232.483 125.796C232.481 125.884 232.446 125.967 232.384 126.03C232.323 126.093 232.24 126.13 232.153 126.133Z" fill="#D1D3D4"/>
<path d="M200.443 75.0347H135.667C135.623 75.0357 135.579 75.0276 135.537 75.011C135.496 74.9944 135.458 74.9696 135.427 74.9381C135.395 74.9066 135.37 74.869 135.354 74.8276C135.337 74.7862 135.329 74.7419 135.33 74.6973V48.7007C135.338 48.6171 135.377 48.5394 135.439 48.4836C135.502 48.4277 135.584 48.3978 135.667 48.4C135.757 48.4 135.843 48.4356 135.906 48.4988C135.969 48.5621 136.005 48.6479 136.005 48.7373V74.404H200.465C200.554 74.4059 200.638 74.442 200.701 74.5049C200.764 74.5677 200.8 74.6525 200.802 74.7413C200.791 74.8269 200.748 74.905 200.681 74.9596C200.614 75.0141 200.529 75.041 200.443 75.0347Z" fill="#D1D3D4"/>
<path d="M264.917 170.134H28.4174C28.3285 170.132 28.2438 170.096 28.181 170.033C28.1181 169.97 28.0819 169.885 28.0801 169.796C28.0801 169.707 28.1156 169.621 28.1789 169.558C28.2421 169.495 28.3279 169.459 28.4174 169.459H264.917C265.007 169.459 265.093 169.495 265.156 169.558C265.219 169.621 265.255 169.707 265.255 169.796C265.253 169.885 265.217 169.97 265.154 170.033C265.091 170.096 265.006 170.132 264.917 170.134Z" fill="#D1D3D4"/>
<path d="M99.0002 138.798H39.5269C39.4374 138.798 39.3516 138.763 39.2883 138.699C39.2251 138.636 39.1895 138.55 39.1895 138.461C39.1885 138.416 39.1966 138.372 39.2132 138.331C39.2298 138.289 39.2546 138.252 39.2861 138.22C39.3176 138.189 39.3552 138.164 39.3966 138.147C39.438 138.131 39.4823 138.123 39.5269 138.124H99.0002C99.0445 138.124 99.0884 138.132 99.1293 138.149C99.1702 138.166 99.2074 138.191 99.2387 138.222C99.2701 138.254 99.2949 138.291 99.3119 138.332C99.3288 138.373 99.3375 138.417 99.3375 138.461C99.3357 138.55 99.2995 138.635 99.2367 138.697C99.1738 138.76 99.0891 138.796 99.0002 138.798Z" fill="#D1D3D4"/>
<path d="M68.9339 117.091H31.3945V152.203H68.9339V117.091Z" fill="#231F20"/>
<path d="M68.9329 152.585H31.3935C31.2943 152.585 31.1992 152.545 31.1291 152.475C31.0589 152.405 31.0195 152.31 31.0195 152.211V117.091C31.0195 116.992 31.0589 116.897 31.1291 116.827C31.1992 116.757 31.2943 116.717 31.3935 116.717H68.9329C69.0321 116.717 69.1272 116.757 69.1973 116.827C69.2675 116.897 69.3069 116.992 69.3069 117.091V152.211C69.3069 152.31 69.2675 152.405 69.1973 152.475C69.1272 152.545 69.0321 152.585 68.9329 152.585ZM31.7675 151.851H68.5589V117.473H31.7749L31.7675 151.851Z" fill="#231F20"/>
<path d="M68.9253 145.354H31.408C29.7556 145.354 28.416 146.694 28.416 148.346V154.689C28.416 156.342 29.7556 157.681 31.408 157.681H68.9253C70.5778 157.681 71.9174 156.342 71.9174 154.689V148.346C71.9174 146.694 70.5778 145.354 68.9253 145.354Z" fill="white"/>
<path d="M68.9336 158.063H31.409C30.5156 158.061 29.6594 157.704 29.0284 157.072C28.3974 156.44 28.043 155.583 28.043 154.689V148.346C28.0449 147.454 28.4002 146.599 29.031 145.968C29.6618 145.337 30.5168 144.982 31.409 144.98H68.9336C69.8258 144.982 70.6808 145.337 71.3116 145.968C71.9424 146.599 72.2977 147.454 72.2996 148.346V154.689C72.2996 155.583 71.9452 156.44 71.3142 157.072C70.6832 157.704 69.827 158.061 68.9336 158.063ZM31.409 145.735C30.7172 145.737 30.0543 146.013 29.5651 146.502C29.0759 146.991 28.8002 147.654 28.7983 148.346V154.689C28.7983 155.382 29.0731 156.047 29.5625 156.538C30.0519 157.029 30.7159 157.305 31.409 157.307H68.9336C69.6267 157.305 70.2907 157.029 70.7801 156.538C71.2695 156.047 71.5443 155.382 71.5443 154.689V148.346C71.5424 147.654 71.2667 146.991 70.7775 146.502C70.2883 146.013 69.6254 145.737 68.9336 145.735H31.409Z" fill="#231F20"/>
<path d="M68.9253 130.335H31.408C29.7556 130.335 28.416 131.675 28.416 133.327V139.671C28.416 141.323 29.7556 142.663 31.408 142.663H68.9253C70.5778 142.663 71.9174 141.323 71.9174 139.671V133.327C71.9174 131.675 70.5778 130.335 68.9253 130.335Z" fill="white"/>
<path d="M68.9336 143.044H31.409C30.5156 143.042 29.6594 142.686 29.0284 142.053C28.3974 141.421 28.043 140.564 28.043 139.671V133.327C28.0449 132.435 28.4002 131.58 29.031 130.949C29.6618 130.319 30.5168 129.963 31.409 129.961H68.9336C69.8258 129.963 70.6808 130.319 71.3116 130.949C71.9424 131.58 72.2977 132.435 72.2996 133.327V139.671C72.2996 140.564 71.9452 141.421 71.3142 142.053C70.6832 142.686 69.827 143.042 68.9336 143.044ZM31.409 130.717C30.7172 130.719 30.0543 130.994 29.5651 131.484C29.0759 131.973 28.8002 132.636 28.7983 133.327V139.671C28.8041 140.36 29.0815 141.019 29.5702 141.505C30.059 141.991 30.7197 142.265 31.409 142.267H68.9336C69.6254 142.265 70.2883 141.989 70.7775 141.5C71.2667 141.011 71.5424 140.348 71.5443 139.656V133.313C71.5385 132.624 71.2611 131.964 70.7724 131.478C70.2836 130.992 69.6229 130.719 68.9336 130.717H31.409Z" fill="#231F20"/>
<path d="M68.9253 115.317H31.408C29.7556 115.317 28.416 116.656 28.416 118.309V124.652C28.416 126.305 29.7556 127.644 31.408 127.644H68.9253C70.5778 127.644 71.9174 126.305 71.9174 124.652V118.309C71.9174 116.656 70.5778 115.317 68.9253 115.317Z" fill="white"/>
<path d="M68.9336 128.018H31.409C30.5194 128.016 29.6665 127.663 29.0361 127.035C28.4057 126.408 28.0488 125.556 28.043 124.667V118.324C28.043 117.43 28.3974 116.573 29.0284 115.941C29.6594 115.308 30.5156 114.952 31.409 114.95H68.9336C69.827 114.952 70.6832 115.308 71.3142 115.941C71.9452 116.573 72.2996 117.43 72.2996 118.324V124.667C72.2938 125.556 71.9369 126.408 71.3065 127.035C70.6761 127.663 69.8232 128.016 68.9336 128.018ZM31.4163 115.698C30.7239 115.698 30.0599 115.973 29.5703 116.463C29.0807 116.952 28.8056 117.616 28.8056 118.309V124.667C28.8076 125.359 29.0832 126.022 29.5724 126.511C30.0616 127 30.7245 127.276 31.4163 127.278H68.9336C69.6242 127.274 70.2852 126.997 70.7728 126.508C71.2604 126.019 71.5351 125.357 71.537 124.667V118.324C71.5389 117.98 71.473 117.64 71.3432 117.322C71.2133 117.004 71.022 116.715 70.7801 116.471C70.5383 116.227 70.2507 116.033 69.9338 115.9C69.617 115.768 69.2771 115.699 68.9336 115.698H31.4163Z" fill="#231F20"/>
<path d="M33.8135 120.436C34.2671 120.436 34.6349 120.068 34.6349 119.614C34.6349 119.161 34.2671 118.793 33.8135 118.793C33.3599 118.793 32.9922 119.161 32.9922 119.614C32.9922 120.068 33.3599 120.436 33.8135 120.436Z" fill="white"/>
<path d="M33.815 120.802C33.58 120.802 33.3503 120.733 33.1549 120.602C32.9596 120.472 32.8073 120.286 32.7174 120.069C32.6275 119.852 32.6039 119.613 32.6498 119.383C32.6956 119.152 32.8088 118.94 32.9749 118.774C33.1411 118.608 33.3527 118.495 33.5832 118.449C33.8136 118.403 34.0525 118.427 34.2696 118.517C34.4867 118.607 34.6722 118.759 34.8027 118.954C34.9333 119.15 35.003 119.379 35.003 119.614C35.003 119.929 34.8778 120.232 34.655 120.454C34.4322 120.677 34.13 120.802 33.815 120.802ZM33.815 119.16C33.6944 119.16 33.5787 119.208 33.4935 119.293C33.4082 119.378 33.3603 119.494 33.3603 119.614C33.3603 119.735 33.4082 119.85 33.4935 119.936C33.5787 120.021 33.6944 120.069 33.815 120.069C33.8749 120.07 33.9345 120.059 33.9901 120.036C34.0457 120.014 34.0962 119.98 34.1387 119.938C34.1811 119.896 34.2145 119.845 34.237 119.789C34.2595 119.734 34.2706 119.674 34.2696 119.614C34.2696 119.494 34.2217 119.378 34.1364 119.293C34.0512 119.208 33.9355 119.16 33.815 119.16Z" fill="#D1D3D4"/>
<path d="M37.2901 120.436C37.7437 120.436 38.1114 120.068 38.1114 119.614C38.1114 119.161 37.7437 118.793 37.2901 118.793C36.8365 118.793 36.4688 119.161 36.4688 119.614C36.4688 120.068 36.8365 120.436 37.2901 120.436Z" fill="white"/>
<path d="M37.2896 120.802C37.0546 120.802 36.8249 120.733 36.6295 120.602C36.4342 120.472 36.2819 120.286 36.192 120.069C36.1021 119.852 36.0786 119.613 36.1244 119.383C36.1702 119.152 36.2834 118.94 36.4495 118.774C36.6157 118.608 36.8273 118.495 37.0578 118.449C37.2882 118.403 37.5271 118.427 37.7442 118.517C37.9613 118.607 38.1468 118.759 38.2773 118.954C38.4079 119.15 38.4776 119.379 38.4776 119.614C38.4776 119.929 38.3524 120.232 38.1296 120.454C37.9068 120.677 37.6046 120.802 37.2896 120.802ZM37.2896 119.16C37.169 119.16 37.0533 119.208 36.9681 119.293C36.8828 119.378 36.8349 119.494 36.8349 119.614C36.8349 119.735 36.8828 119.85 36.9681 119.936C37.0533 120.021 37.169 120.069 37.2896 120.069C37.3495 120.07 37.4091 120.059 37.4647 120.036C37.5203 120.014 37.5709 119.98 37.6133 119.938C37.6557 119.896 37.6891 119.845 37.7116 119.789C37.7341 119.734 37.7452 119.674 37.7442 119.614C37.7442 119.494 37.6963 119.378 37.6111 119.293C37.5258 119.208 37.4101 119.16 37.2896 119.16Z" fill="#D1D3D4"/>
<path d="M40.7666 120.436C41.2203 120.436 41.588 120.068 41.588 119.614C41.588 119.161 41.2203 118.793 40.7666 118.793C40.313 118.793 39.9453 119.161 39.9453 119.614C39.9453 120.068 40.313 120.436 40.7666 120.436Z" fill="white"/>
<path d="M40.7661 120.802C40.5312 120.802 40.3015 120.733 40.1061 120.602C39.9107 120.472 39.7585 120.286 39.6686 120.069C39.5786 119.852 39.5551 119.613 39.601 119.383C39.6468 119.152 39.7599 118.94 39.9261 118.774C40.0922 118.608 40.3039 118.495 40.5344 118.449C40.7648 118.403 41.0037 118.427 41.2208 118.517C41.4378 118.607 41.6234 118.759 41.7539 118.954C41.8845 119.15 41.9541 119.379 41.9541 119.614C41.9541 119.929 41.829 120.232 41.6062 120.454C41.3834 120.677 41.0812 120.802 40.7661 120.802ZM40.7661 119.16C40.6455 119.16 40.5299 119.208 40.4446 119.293C40.3594 119.378 40.3115 119.494 40.3115 119.614C40.3115 119.735 40.3594 119.85 40.4446 119.936C40.5299 120.021 40.6455 120.069 40.7661 120.069C40.8867 120.069 41.0024 120.021 41.0876 119.936C41.1729 119.85 41.2208 119.735 41.2208 119.614C41.2208 119.494 41.1729 119.378 41.0876 119.293C41.0024 119.208 40.8867 119.16 40.7661 119.16Z" fill="#D1D3D4"/>
<path d="M122.027 53.4749L119.783 33.9829H149.381L145.45 53.9589L122.027 53.4749Z" fill="white"/>
<path d="M145.449 54.3403L122.027 53.8563C121.935 53.8549 121.847 53.8198 121.779 53.7576C121.711 53.6953 121.669 53.6104 121.66 53.5189L119.409 34.0269C119.406 33.9718 119.416 33.9168 119.437 33.866C119.459 33.8152 119.492 33.77 119.533 33.7336C119.568 33.6936 119.611 33.6618 119.659 33.6402C119.707 33.6187 119.759 33.608 119.812 33.6089H149.38C149.436 33.6096 149.491 33.6225 149.542 33.6465C149.593 33.6706 149.637 33.7053 149.673 33.7483C149.709 33.7903 149.735 33.8397 149.749 33.8931C149.763 33.9464 149.765 34.0022 149.754 34.0563L145.823 54.0323C145.806 54.119 145.76 54.1971 145.691 54.2533C145.623 54.3095 145.538 54.3402 145.449 54.3403ZM122.364 53.1083L145.141 53.5776L148.918 34.3643H120.208L122.364 53.1083Z" fill="#231F20"/>
<path d="M122.027 53.4748V30.1328H149.703V53.9588L122.027 53.4748Z" fill="#231F20"/>
<path d="M149.703 54.3401L122.027 53.8561C121.978 53.8552 121.929 53.8445 121.884 53.8249C121.839 53.8052 121.799 53.7768 121.765 53.7414C121.731 53.706 121.704 53.6642 121.686 53.6185C121.668 53.5727 121.659 53.5239 121.66 53.4748V30.1401C121.659 30.0904 121.668 30.041 121.687 29.9947C121.705 29.9485 121.732 29.9064 121.767 29.8709C121.802 29.8354 121.844 29.8072 121.889 29.7879C121.935 29.7687 121.984 29.7588 122.034 29.7588H149.71C149.76 29.7588 149.809 29.7687 149.855 29.7879C149.901 29.8072 149.942 29.8354 149.977 29.8709C150.012 29.9064 150.04 29.9485 150.058 29.9947C150.076 30.041 150.085 30.0904 150.084 30.1401V53.9588C150.085 54.0091 150.076 54.059 150.057 54.1057C150.038 54.1523 150.01 54.1946 149.974 54.2301C149.901 54.2995 149.804 54.3387 149.703 54.3401ZM122.408 53.1081L149.322 53.5775V30.5141H122.408V53.1081Z" fill="#231F20"/>
<path d="M122.027 53.4747L125.635 35.6694H141.035L142.245 32.5454H154.272L149.579 53.9587L122.027 53.4747Z" fill="white"/>
<path d="M149.601 54.3401L122.05 53.8561C121.994 53.8552 121.94 53.842 121.89 53.8175C121.84 53.7929 121.797 53.7576 121.762 53.714C121.728 53.6705 121.704 53.6199 121.691 53.5658C121.679 53.5118 121.678 53.4556 121.69 53.4014L125.298 35.5961C125.315 35.5113 125.361 35.4351 125.428 35.3802C125.495 35.3254 125.579 35.2955 125.665 35.2954H140.801L141.908 32.4061C141.937 32.3341 141.986 32.2723 142.05 32.2291C142.115 32.1859 142.19 32.1632 142.268 32.1641H154.294C154.351 32.1632 154.407 32.1754 154.457 32.1995C154.508 32.2237 154.553 32.2592 154.588 32.3034C154.624 32.3479 154.65 32.3999 154.664 32.4557C154.678 32.5115 154.68 32.5697 154.668 32.6261L149.975 54.0394C149.957 54.1248 149.909 54.2012 149.841 54.256C149.773 54.3107 149.688 54.3404 149.601 54.3401ZM122.468 53.1081L149.256 53.5774L153.781 32.9194H142.502L141.395 35.8088C141.367 35.8796 141.319 35.9406 141.256 35.9837C141.193 36.0268 141.119 36.0502 141.043 36.0508H125.951L122.468 53.1081Z" fill="#231F20"/>
<path d="M94.7182 94.2773H198.617C200.678 94.2773 202.656 95.0963 204.113 96.5541C205.571 98.0119 206.39 99.9891 206.39 102.051V165.506H86.9375V102.051C86.9375 101.029 87.1388 100.018 87.5299 99.0743C87.921 98.1307 88.4942 97.2734 89.2168 96.5515C89.9394 95.8296 90.7972 95.2572 91.7412 94.8669C92.6851 94.4767 93.6967 94.2764 94.7182 94.2773Z" fill="#FF6C22"/>
<path d="M198.932 100.657H94.4102V165.506H198.932V100.657Z" fill="white"/>
<path d="M74.5215 165.506H218.812C218.812 167.796 217.903 169.991 216.284 171.61C214.665 173.228 212.47 174.138 210.181 174.138H83.1528C80.8636 174.138 78.6682 173.228 77.0495 171.61C75.4309 169.991 74.5215 167.796 74.5215 165.506Z" fill="#FF6C22"/>
<path d="M118.851 110.11L111.605 113.762L118.851 117.414L126.089 113.762L118.851 110.11Z" fill="white"/>
<path d="M118.852 117.751C118.802 117.763 118.749 117.763 118.698 117.751L111.453 114.085C111.398 114.056 111.352 114.012 111.32 113.959C111.288 113.907 111.27 113.846 111.27 113.784C111.269 113.722 111.285 113.66 111.318 113.607C111.35 113.554 111.397 113.511 111.453 113.483L118.698 109.817C118.745 109.795 118.797 109.784 118.849 109.784C118.9 109.784 118.952 109.795 118.999 109.817L126.244 113.483C126.3 113.511 126.347 113.554 126.379 113.607C126.412 113.66 126.429 113.722 126.428 113.784C126.427 113.846 126.409 113.907 126.377 113.959C126.345 114.012 126.299 114.056 126.244 114.085L118.999 117.751C118.951 117.762 118.901 117.762 118.852 117.751ZM112.355 113.762L118.852 117.033L125.342 113.762L118.852 110.484L112.355 113.762Z" fill="#D1D3D4"/>
<path d="M111.605 113.762V152.409L118.851 156.061V117.414L111.605 113.762Z" fill="white"/>
<path d="M118.852 156.398C118.799 156.398 118.746 156.385 118.698 156.361L111.453 152.695C111.398 152.666 111.352 152.622 111.32 152.569C111.288 152.516 111.27 152.456 111.27 152.394V113.747C111.269 113.689 111.284 113.631 111.312 113.58C111.34 113.528 111.381 113.485 111.431 113.454C111.481 113.425 111.538 113.41 111.596 113.41C111.654 113.41 111.711 113.425 111.761 113.454L118.999 117.121C119.056 117.147 119.104 117.19 119.138 117.243C119.172 117.296 119.19 117.358 119.19 117.421V156.068C119.189 156.125 119.173 156.181 119.145 156.231C119.117 156.281 119.077 156.323 119.028 156.354C118.975 156.385 118.914 156.4 118.852 156.398ZM111.944 152.196L118.508 155.511V117.619L111.944 114.312V152.196Z" fill="#D1D3D4"/>
<path d="M118.852 156.061L126.09 152.409V113.762L118.852 117.414V156.061Z" fill="white"/>
<path d="M118.852 156.398C118.788 156.399 118.724 156.381 118.669 156.347C118.621 156.316 118.58 156.274 118.552 156.224C118.524 156.174 118.509 156.118 118.508 156.061V117.414C118.508 117.351 118.525 117.289 118.559 117.236C118.593 117.182 118.641 117.14 118.698 117.113L125.936 113.447C125.987 113.418 126.044 113.402 126.101 113.402C126.159 113.402 126.216 113.418 126.266 113.447C126.316 113.478 126.357 113.521 126.385 113.572C126.413 113.624 126.428 113.681 126.428 113.74V152.387C126.427 152.449 126.41 152.509 126.377 152.562C126.345 152.615 126.299 152.658 126.244 152.687L118.999 156.354C118.954 156.38 118.904 156.395 118.852 156.398ZM119.19 117.619V155.511L125.753 152.196V114.312L119.19 117.619Z" fill="#D1D3D4"/>
<path d="M144.394 124.593L137.156 128.245L144.394 131.897L151.64 128.245L144.394 124.593Z" fill="white"/>
<path d="M144.394 132.235C144.346 132.249 144.295 132.249 144.247 132.235L137.002 128.568C136.946 128.54 136.9 128.497 136.868 128.444C136.835 128.391 136.818 128.33 136.818 128.268C136.819 128.206 136.836 128.145 136.869 128.092C136.901 128.039 136.947 127.996 137.002 127.967L144.247 124.3C144.293 124.275 144.345 124.262 144.397 124.262C144.45 124.262 144.502 124.275 144.548 124.3L151.793 127.967C151.848 127.996 151.894 128.039 151.926 128.092C151.958 128.145 151.976 128.206 151.976 128.268C151.976 128.33 151.959 128.391 151.927 128.444C151.895 128.497 151.848 128.54 151.793 128.568L144.548 132.235C144.497 132.25 144.444 132.25 144.394 132.235ZM137.904 128.246L144.394 131.524L150.891 128.246L144.394 124.975L137.904 128.246Z" fill="#D1D3D4"/>
<path d="M137.156 128.246V152.409L144.394 156.061V131.898L137.156 128.246Z" fill="white"/>
<path d="M144.394 156.398C144.343 156.397 144.293 156.384 144.247 156.361L137.002 152.695C136.947 152.666 136.901 152.622 136.869 152.57C136.837 152.517 136.819 152.456 136.818 152.394V128.194C136.817 128.136 136.832 128.079 136.86 128.029C136.888 127.979 136.93 127.937 136.98 127.908C137.03 127.879 137.087 127.864 137.145 127.864C137.203 127.864 137.26 127.879 137.31 127.908L144.548 131.575C144.604 131.602 144.652 131.645 144.686 131.698C144.72 131.751 144.738 131.812 144.738 131.875V156.039C144.737 156.096 144.722 156.152 144.694 156.202C144.666 156.252 144.626 156.294 144.577 156.325C144.525 156.367 144.461 156.393 144.394 156.398ZM137.493 152.196L144.056 155.511V132.11L137.493 128.795V152.196Z" fill="#D1D3D4"/>
<path d="M144.395 156.061L151.64 152.409V128.246L144.395 131.898V156.061Z" fill="white"/>
<path d="M144.394 156.398C144.332 156.398 144.27 156.38 144.218 156.347C144.169 156.316 144.129 156.274 144.101 156.224C144.073 156.174 144.058 156.118 144.057 156.061V131.897C144.057 131.834 144.075 131.773 144.109 131.72C144.143 131.667 144.191 131.624 144.247 131.597L151.485 127.93C151.535 127.901 151.592 127.886 151.65 127.886C151.708 127.886 151.765 127.901 151.815 127.93C151.865 127.959 151.907 128.001 151.935 128.051C151.963 128.101 151.978 128.158 151.977 128.216V152.416C151.976 152.478 151.959 152.539 151.926 152.591C151.894 152.644 151.848 152.688 151.793 152.717L144.548 156.383C144.498 156.4 144.446 156.405 144.394 156.398ZM144.739 132.11V155.511L151.302 152.196V128.795L144.739 132.11Z" fill="#D1D3D4"/>
<path d="M169.943 132.843L162.705 136.495L169.943 140.155L177.188 136.495L169.943 132.843Z" fill="white"/>
<path d="M169.942 140.492C169.891 140.491 169.841 140.479 169.795 140.455L162.55 136.789C162.495 136.759 162.449 136.716 162.416 136.662C162.384 136.608 162.367 136.547 162.367 136.484C162.367 136.422 162.384 136.361 162.416 136.307C162.449 136.253 162.495 136.209 162.55 136.18L169.795 132.513C169.843 132.492 169.894 132.48 169.946 132.48C169.998 132.48 170.049 132.492 170.096 132.513L177.341 136.18C177.397 136.209 177.443 136.253 177.475 136.307C177.507 136.361 177.524 136.422 177.524 136.484C177.524 136.547 177.507 136.608 177.475 136.662C177.443 136.716 177.397 136.759 177.341 136.789L170.096 140.455C170.048 140.479 169.995 140.491 169.942 140.492ZM163.452 136.503L169.942 139.773L176.439 136.503L169.942 133.225L163.452 136.503Z" fill="#D1D3D4"/>
<path d="M162.705 136.496V152.409L169.943 156.061V140.155L162.705 136.496Z" fill="white"/>
<path d="M169.943 156.398C169.892 156.397 169.841 156.385 169.796 156.362L162.551 152.695C162.496 152.666 162.45 152.623 162.418 152.57C162.385 152.517 162.368 152.456 162.367 152.394V136.503C162.366 136.445 162.38 136.387 162.407 136.335C162.435 136.284 162.476 136.24 162.525 136.209C162.575 136.178 162.632 136.161 162.69 136.158C162.749 136.156 162.807 136.168 162.859 136.195L170.097 139.862C170.154 139.888 170.201 139.93 170.234 139.984C170.267 140.038 170.283 140.1 170.28 140.162V156.068C170.281 156.126 170.267 156.183 170.238 156.233C170.21 156.284 170.169 156.325 170.119 156.354C170.066 156.387 170.004 156.403 169.943 156.398ZM163.042 152.196L169.605 155.511V140.36L163.042 137.046V152.196Z" fill="#D1D3D4"/>
<path d="M169.943 156.061L177.189 152.409V136.496L169.943 140.155V156.061Z" fill="white"/>
<path d="M169.943 156.398C169.88 156.399 169.819 156.381 169.767 156.347C169.718 156.316 169.678 156.274 169.65 156.224C169.622 156.174 169.607 156.118 169.606 156.061V140.155C169.604 140.092 169.622 140.029 169.656 139.976C169.69 139.922 169.738 139.88 169.796 139.854L177.034 136.188C177.085 136.161 177.142 136.146 177.199 136.146C177.257 136.146 177.313 136.161 177.364 136.188C177.414 136.219 177.455 136.262 177.483 136.313C177.511 136.365 177.526 136.422 177.526 136.481V152.387C177.525 152.449 177.507 152.509 177.475 152.562C177.443 152.615 177.397 152.659 177.342 152.688L170.097 156.354C170.049 156.379 169.997 156.394 169.943 156.398ZM170.28 140.36V155.511L176.88 152.196V137.046L170.28 140.36Z" fill="#D1D3D4"/>
<path d="M187.227 110.448H162.705C162.615 110.448 162.529 110.412 162.466 110.349C162.403 110.286 162.367 110.2 162.367 110.11C162.366 110.066 162.374 110.021 162.391 109.98C162.408 109.939 162.432 109.901 162.464 109.87C162.495 109.838 162.533 109.813 162.574 109.797C162.616 109.78 162.66 109.772 162.705 109.773H187.227C187.317 109.773 187.403 109.809 187.466 109.872C187.529 109.935 187.565 110.021 187.565 110.11C187.563 110.199 187.527 110.284 187.464 110.347C187.401 110.41 187.316 110.446 187.227 110.448Z" fill="#FF6C22"/>
<path d="M187.227 115.441H162.705C162.615 115.441 162.529 115.406 162.466 115.342C162.403 115.279 162.367 115.193 162.367 115.104C162.367 115.014 162.403 114.929 162.466 114.865C162.529 114.802 162.615 114.767 162.705 114.767H187.227C187.271 114.767 187.315 114.775 187.356 114.792C187.397 114.809 187.434 114.834 187.466 114.865C187.497 114.897 187.522 114.934 187.539 114.975C187.556 115.016 187.565 115.06 187.565 115.104C187.565 115.148 187.556 115.192 187.539 115.233C187.522 115.274 187.497 115.311 187.466 115.342C187.434 115.374 187.397 115.399 187.356 115.416C187.315 115.433 187.271 115.441 187.227 115.441Z" fill="#FF6C22"/>
<path d="M187.227 120.435H162.705C162.66 120.436 162.616 120.428 162.574 120.412C162.533 120.395 162.495 120.37 162.464 120.339C162.432 120.307 162.408 120.27 162.391 120.228C162.374 120.187 162.366 120.143 162.367 120.098C162.367 120.009 162.403 119.923 162.466 119.86C162.529 119.796 162.615 119.761 162.705 119.761H187.227C187.316 119.763 187.401 119.799 187.464 119.862C187.527 119.924 187.563 120.009 187.565 120.098C187.565 120.142 187.556 120.186 187.539 120.227C187.522 120.268 187.497 120.305 187.466 120.337C187.434 120.368 187.397 120.393 187.356 120.41C187.315 120.427 187.272 120.435 187.227 120.435Z" fill="#FF6C22"/>
<path d="M181.046 125.437H162.712C162.623 125.437 162.537 125.401 162.474 125.338C162.411 125.275 162.375 125.189 162.375 125.1C162.374 125.055 162.382 125.011 162.399 124.969C162.415 124.928 162.44 124.89 162.472 124.859C162.503 124.827 162.541 124.803 162.582 124.786C162.624 124.769 162.668 124.761 162.712 124.762H181.046C181.135 124.762 181.221 124.798 181.284 124.861C181.348 124.924 181.383 125.01 181.383 125.1C181.381 125.188 181.345 125.273 181.282 125.336C181.219 125.399 181.135 125.435 181.046 125.437Z" fill="#FF6C22"/>
<path d="M216.335 165.888H77.0012C76.9215 165.865 76.8514 165.817 76.8015 165.751C76.7516 165.684 76.7246 165.604 76.7246 165.521C76.7246 165.438 76.7516 165.357 76.8015 165.291C76.8514 165.225 76.9215 165.177 77.0012 165.154H216.335C216.414 165.177 216.484 165.225 216.534 165.291C216.584 165.357 216.611 165.438 216.611 165.521C216.611 165.604 216.584 165.684 216.534 165.751C216.484 165.817 216.414 165.865 216.335 165.888Z" fill="#231F20"/>
<path d="M222.874 74.624H209.388C209.306 74.612 209.232 74.5709 209.178 74.5083C209.123 74.4457 209.094 74.3658 209.094 74.283C209.094 74.2003 209.123 74.1204 209.178 74.0578C209.232 73.9951 209.306 73.9541 209.388 73.942H222.874C224.489 73.942 226.038 73.301 227.181 72.1597C228.323 71.0185 228.966 69.4703 228.968 67.8554V60.4194C228.967 60.3745 228.975 60.3298 228.992 60.288C229.008 60.2463 229.033 60.2082 229.064 60.1761C229.096 60.144 229.133 60.1185 229.175 60.1011C229.216 60.0837 229.261 60.0747 229.306 60.0747C229.396 60.0766 229.482 60.1138 229.545 60.1782C229.608 60.2426 229.643 60.3292 229.643 60.4194V67.8554C229.641 69.6499 228.927 71.3705 227.658 72.6394C226.389 73.9084 224.669 74.6221 222.874 74.624Z" fill="#D1D3D4"/>
<path d="M246.834 107.991C246.745 107.989 246.66 107.953 246.598 107.89C246.535 107.827 246.499 107.742 246.497 107.653V85.9246C246.493 82.9274 245.3 80.0541 243.18 77.9355C241.06 75.8168 238.186 74.6258 235.189 74.6239H213.541C213.459 74.6119 213.384 74.5708 213.33 74.5082C213.276 74.4456 213.246 74.3656 213.246 74.2829C213.246 74.2002 213.276 74.1202 213.33 74.0576C213.384 73.995 213.459 73.9539 213.541 73.9419H235.189C238.365 73.9458 241.411 75.2095 243.657 77.4558C245.904 79.7022 247.167 82.7477 247.171 85.9246V107.653C247.169 107.742 247.133 107.827 247.07 107.89C247.008 107.953 246.923 107.989 246.834 107.991Z" fill="#D1D3D4"/>
<path d="M244.897 62.7953H223.924V33.8433H249.59V57.1266L244.897 62.7953Z" fill="white"/>
<path d="M244.933 63.1693H223.96C223.91 63.1693 223.861 63.1594 223.815 63.1402C223.769 63.1209 223.728 63.0927 223.693 63.0572C223.658 63.0217 223.631 62.9796 223.612 62.9334C223.594 62.8871 223.585 62.8377 223.586 62.788V33.8433C223.586 33.7441 223.625 33.649 223.696 33.5789C223.766 33.5087 223.861 33.4693 223.96 33.4693H249.627C249.676 33.4683 249.726 33.4773 249.772 33.4956C249.818 33.514 249.86 33.5414 249.896 33.5762C249.931 33.6111 249.96 33.6526 249.979 33.6985C249.998 33.7443 250.008 33.7936 250.008 33.8433V57.1266C250.008 57.2151 249.976 57.3006 249.92 57.3686L245.19 63.0666C245.121 63.1324 245.029 63.1691 244.933 63.1693ZM224.341 62.436H244.757L249.253 57.0093V34.276H224.319L224.341 62.436Z" fill="#231F20"/>
<path d="M244.896 62.7955V56.8262H249.59" fill="#231F20"/>
<path d="M244.935 63.1695C244.885 63.1695 244.836 63.1596 244.79 63.1403C244.744 63.1211 244.702 63.0929 244.668 63.0574C244.633 63.0219 244.605 62.9797 244.587 62.9335C244.569 62.8873 244.56 62.8379 244.561 62.7882V56.8261C244.564 56.7295 244.605 56.6381 244.675 56.5711C244.745 56.5041 244.838 56.4667 244.935 56.4668H249.628C249.685 56.4506 249.744 56.4478 249.802 56.4586C249.861 56.4694 249.915 56.4935 249.962 56.5291C250.009 56.5646 250.048 56.6106 250.074 56.6634C250.1 56.7162 250.114 56.7745 250.114 56.8335C250.114 56.8925 250.1 56.9507 250.074 57.0035C250.048 57.0564 250.009 57.1024 249.962 57.1379C249.915 57.1735 249.861 57.1976 249.802 57.2084C249.744 57.2192 249.685 57.2164 249.628 57.2001H245.316V62.7808C245.317 62.8315 245.308 62.8819 245.289 62.929C245.27 62.9761 245.242 63.019 245.207 63.0552C245.171 63.0914 245.129 63.1201 245.082 63.1398C245.036 63.1594 244.985 63.1695 244.935 63.1695Z" fill="#231F20"/>
<path d="M245.711 40.0326H227.81C227.721 40.0326 227.635 39.997 227.571 39.9338C227.508 39.8705 227.473 39.7847 227.473 39.6952C227.473 39.6058 227.508 39.52 227.571 39.4567C227.635 39.3935 227.721 39.3579 227.81 39.3579H245.711C245.8 39.3579 245.886 39.3935 245.949 39.4567C246.012 39.52 246.048 39.6058 246.048 39.6952C246.048 39.7847 246.012 39.8705 245.949 39.9338C245.886 39.997 245.8 40.0326 245.711 40.0326Z" fill="#D1D3D4"/>
<path d="M245.711 44.3963H227.81C227.721 44.3963 227.635 44.3608 227.571 44.2975C227.508 44.2343 227.473 44.1485 227.473 44.059C227.473 43.9695 227.508 43.8837 227.571 43.8205C227.635 43.7572 227.721 43.7217 227.81 43.7217H245.711C245.8 43.7217 245.886 43.7572 245.949 43.8205C246.012 43.8837 246.048 43.9695 246.048 44.059C246.048 44.1485 246.012 44.2343 245.949 44.2975C245.886 44.3608 245.8 44.3963 245.711 44.3963Z" fill="#D1D3D4"/>
<path d="M245.711 48.7596H227.81C227.765 48.7606 227.721 48.7526 227.68 48.736C227.638 48.7194 227.601 48.6946 227.569 48.6631C227.538 48.6315 227.513 48.5939 227.496 48.5526C227.48 48.5112 227.472 48.4669 227.473 48.4223C227.473 48.3328 227.508 48.247 227.572 48.1838C227.635 48.1205 227.721 48.085 227.81 48.085H245.711C245.8 48.0868 245.884 48.123 245.947 48.1858C246.01 48.2487 246.046 48.3334 246.048 48.4223C246.048 48.5118 246.013 48.5976 245.949 48.6608C245.886 48.7241 245.8 48.7596 245.711 48.7596Z" fill="#D1D3D4"/>
<path d="M245.711 53.1229H227.81C227.765 53.1239 227.721 53.1159 227.68 53.0993C227.638 53.0827 227.601 53.0579 227.569 53.0263C227.538 52.9948 227.513 52.9572 227.496 52.9158C227.48 52.8745 227.472 52.8302 227.473 52.7856C227.473 52.6961 227.508 52.6103 227.572 52.547C227.635 52.4838 227.721 52.4482 227.81 52.4482H245.711C245.8 52.4501 245.884 52.4863 245.947 52.5491C246.01 52.612 246.046 52.6967 246.048 52.7856C246.048 52.875 246.013 52.9608 245.949 53.0241C245.886 53.0874 245.8 53.1229 245.711 53.1229Z" fill="#D1D3D4"/>
<path d="M209.39 75.7756C209.309 76.1569 209.236 76.5089 209.14 76.9123C208.724 78.5481 207.78 80.0011 206.454 81.0458C205.128 82.0906 203.495 82.6688 201.807 82.6909C192.684 82.6909 183.564 82.6909 174.446 82.6909C172.528 82.685 170.671 82.0136 169.193 80.7915C167.714 79.5693 166.705 77.8721 166.339 75.9892C165.972 74.1063 166.269 72.1545 167.181 70.4666C168.092 68.7787 169.561 67.4594 171.337 66.7336C171.459 66.7016 171.568 66.6306 171.646 66.5313C171.724 66.432 171.767 66.3099 171.77 66.1836C171.866 65.1868 172.215 64.2311 172.785 63.4076C173.355 62.5842 174.126 61.9203 175.025 61.4792C175.925 61.0381 176.922 60.8345 177.922 60.8878C178.922 60.9411 179.891 61.2495 180.738 61.7836L181.061 61.9816C181.765 60.5071 182.777 59.2003 184.027 58.1492C185.278 57.0981 186.74 56.3269 188.314 55.8876C190.565 55.2521 192.961 55.3575 195.148 56.1883C197.43 57.0252 199.383 58.5729 200.72 60.6034C202.056 62.634 202.704 65.04 202.57 67.4669C202.914 67.5403 203.266 67.5843 203.604 67.6869C206.772 68.6329 208.737 70.6716 209.316 73.9863C209.334 74.0688 209.359 74.1498 209.39 74.2283V75.7756Z" fill="white"/>
<path d="M187.462 83.0793C182.952 83.0793 178.662 83.0793 174.416 83.0793C172.419 83.0548 170.492 82.3483 168.952 81.0771C167.413 79.8058 166.354 78.0463 165.953 76.0906C165.558 74.1158 165.866 72.0649 166.823 70.293C167.781 68.5212 169.328 67.14 171.196 66.3886C171.372 66.3153 171.38 66.286 171.394 66.154C171.517 65.0728 171.911 64.0402 172.541 63.1528C173.171 62.2654 174.015 61.552 174.995 61.0793C175.93 60.6246 176.967 60.4207 178.004 60.4875C179.042 60.5544 180.044 60.8897 180.913 61.4606C181.658 60.0257 182.691 58.7593 183.946 57.74C185.201 56.7207 186.652 55.9703 188.21 55.5353C190.539 54.8817 193.016 54.9896 195.279 55.8433C197.584 56.6894 199.565 58.237 200.943 60.2682C202.322 62.2994 203.029 64.7119 202.964 67.166C203.212 67.2087 203.456 67.265 203.698 67.3346C207.086 68.3466 209.095 70.5613 209.674 73.9346C209.667 73.9685 209.667 74.0035 209.674 74.0373V74.1326C209.681 74.169 209.681 74.2063 209.674 74.2426V75.7973C209.678 75.824 209.678 75.8512 209.674 75.878L209.601 76.23C209.55 76.494 209.491 76.7653 209.425 77.0293C208.991 78.7531 207.996 80.2837 206.597 81.3802C205.197 82.4768 203.473 83.0771 201.696 83.0866L187.462 83.0793ZM177.613 61.2186C176.82 61.2204 176.038 61.4009 175.325 61.7466C174.46 62.162 173.715 62.7905 173.159 63.573C172.604 64.3555 172.256 65.2663 172.15 66.22C172.137 66.4134 172.067 66.5985 171.948 66.7515C171.829 66.9044 171.667 67.0182 171.482 67.078C169.777 67.7629 168.366 69.023 167.492 70.6397C166.619 72.2564 166.339 74.1278 166.701 75.9293C167.064 77.7141 168.028 79.3206 169.432 80.4814C170.836 81.6422 172.594 82.2873 174.416 82.3093C182.893 82.3093 191.847 82.3093 201.776 82.3093C203.386 82.2979 204.947 81.7524 206.213 80.7583C207.479 79.7641 208.379 78.3777 208.772 76.8166C208.838 76.5673 208.89 76.3106 208.941 76.0833L209.007 75.768V74.3013C208.976 74.2209 208.954 74.1373 208.941 74.052C208.406 70.9573 206.624 68.992 203.492 68.0533C203.272 67.9956 203.05 67.9491 202.825 67.914L202.495 67.848C202.405 67.8303 202.325 67.7802 202.269 67.7072C202.214 67.6342 202.187 67.5434 202.194 67.452C202.317 65.1072 201.687 62.7845 200.395 60.8237C199.103 58.8629 197.218 57.367 195.015 56.5546C192.903 55.7535 190.59 55.6507 188.415 56.2613C186.889 56.6833 185.472 57.4299 184.26 58.45C183.049 59.4701 182.072 60.7397 181.397 62.172C181.366 62.2149 181.326 62.2513 181.281 62.279C181.236 62.3066 181.185 62.3251 181.133 62.3333C181.031 62.3562 180.924 62.3405 180.832 62.2893L180.502 62.084C179.641 61.5261 178.639 61.2258 177.613 61.2186Z" fill="#231F20"/>
<path d="M266.964 104.288H226.711V141.944H266.964V104.288Z" fill="#231F20"/>
<path d="M266.933 142.326H226.709C226.609 142.324 226.513 142.283 226.442 142.212C226.371 142.141 226.33 142.045 226.328 141.944V104.288C226.33 104.188 226.371 104.093 226.442 104.023C226.514 103.953 226.61 103.914 226.709 103.914H266.933C266.983 103.913 267.032 103.922 267.078 103.94C267.124 103.958 267.166 103.986 267.202 104.021C267.238 104.055 267.266 104.097 267.285 104.143C267.304 104.189 267.314 104.238 267.314 104.288V141.944C267.314 142.045 267.274 142.142 267.202 142.214C267.131 142.285 267.034 142.326 266.933 142.326ZM227.061 141.592H266.559V104.669H227.091L227.061 141.592Z" fill="#231F20"/>
<path d="M266.955 134.596H226.724C224.954 134.596 223.52 136.031 223.52 137.801V144.606C223.52 146.376 224.954 147.811 226.724 147.811H266.955C268.725 147.811 270.16 146.376 270.16 144.606V137.801C270.16 136.031 268.725 134.596 266.955 134.596Z" fill="white"/>
<path d="M266.933 148.192H226.725C225.774 148.192 224.861 147.814 224.189 147.142C223.516 146.469 223.139 145.557 223.139 144.606V137.801C223.141 136.85 223.519 135.939 224.191 135.267C224.863 134.595 225.774 134.217 226.725 134.215H266.933C267.884 134.217 268.795 134.595 269.467 135.267C270.139 135.939 270.517 136.85 270.519 137.801V144.606C270.517 145.557 270.139 146.468 269.467 147.14C268.795 147.812 267.884 148.19 266.933 148.192ZM226.703 134.992C225.953 134.992 225.234 135.289 224.704 135.819C224.173 136.348 223.874 137.066 223.872 137.816V144.621C223.872 144.993 223.945 145.361 224.087 145.704C224.23 146.048 224.438 146.36 224.701 146.622C224.964 146.885 225.276 147.094 225.619 147.236C225.963 147.378 226.331 147.452 226.703 147.452H266.933C267.683 147.45 268.401 147.15 268.93 146.62C269.459 146.089 269.757 145.37 269.757 144.621V137.816C269.755 137.067 269.457 136.35 268.928 135.821C268.399 135.292 267.682 134.994 266.933 134.992H226.703Z" fill="#231F20"/>
<path d="M266.955 118.492H226.724C224.954 118.492 223.52 119.927 223.52 121.697V128.502C223.52 130.272 224.954 131.707 226.724 131.707H266.955C268.725 131.707 270.16 130.272 270.16 128.502V121.697C270.16 119.927 268.725 118.492 266.955 118.492Z" fill="white"/>
<path d="M266.933 132.088H226.725C225.774 132.086 224.863 131.708 224.191 131.036C223.519 130.364 223.141 129.453 223.139 128.502V121.733C223.139 120.782 223.516 119.87 224.189 119.198C224.861 118.525 225.774 118.147 226.725 118.147H266.933C267.884 118.149 268.795 118.528 269.467 119.2C270.139 119.872 270.517 120.783 270.519 121.733V128.539C270.508 129.483 270.125 130.385 269.454 131.049C268.783 131.713 267.878 132.086 266.933 132.088ZM226.703 118.888C226.331 118.888 225.963 118.961 225.619 119.104C225.276 119.246 224.964 119.454 224.701 119.717C224.438 119.98 224.23 120.292 224.087 120.636C223.945 120.979 223.872 121.347 223.872 121.719V128.524C223.874 129.274 224.173 129.992 224.704 130.521C225.234 131.05 225.953 131.347 226.703 131.347H266.933C267.682 131.346 268.399 131.047 268.928 130.518C269.457 129.989 269.755 129.272 269.757 128.524V121.733C269.757 120.984 269.459 120.265 268.93 119.734C268.401 119.204 267.683 118.905 266.933 118.903L226.703 118.888Z" fill="#231F20"/>
<path d="M266.955 102.381H226.724C224.954 102.381 223.52 103.816 223.52 105.586V112.391C223.52 114.161 224.954 115.596 226.724 115.596H266.955C268.725 115.596 270.16 114.161 270.16 112.391V105.586C270.16 103.816 268.725 102.381 266.955 102.381Z" fill="white"/>
<path d="M266.933 115.977H226.725C225.774 115.977 224.861 115.599 224.189 114.927C223.516 114.254 223.139 113.342 223.139 112.391V105.6C223.139 104.649 223.516 103.737 224.189 103.064C224.861 102.392 225.774 102.014 226.725 102.014H266.933C267.884 102.016 268.795 102.395 269.467 103.067C270.139 103.739 270.517 104.65 270.519 105.6V112.398C270.515 113.347 270.136 114.256 269.464 114.927C268.792 115.597 267.883 115.975 266.933 115.977ZM226.703 102.777C226.331 102.777 225.963 102.85 225.619 102.992C225.276 103.135 224.964 103.343 224.701 103.606C224.438 103.869 224.23 104.181 224.087 104.524C223.945 104.868 223.872 105.236 223.872 105.607V112.405C223.872 112.777 223.945 113.145 224.087 113.489C224.23 113.832 224.438 114.144 224.701 114.407C224.964 114.67 225.276 114.878 225.619 115.021C225.963 115.163 226.331 115.236 226.703 115.236H266.933C267.683 115.234 268.401 114.935 268.93 114.404C269.459 113.874 269.757 113.155 269.757 112.405V105.6C269.757 104.851 269.459 104.132 268.93 103.601C268.401 103.071 267.683 102.771 266.933 102.769L226.703 102.777Z" fill="#231F20"/>
<path d="M229.306 107.873C229.792 107.873 230.186 107.479 230.186 106.993C230.186 106.507 229.792 106.113 229.306 106.113C228.82 106.113 228.426 106.507 228.426 106.993C228.426 107.479 228.82 107.873 229.306 107.873Z" fill="white"/>
<path d="M229.307 108.24C229.061 108.24 228.82 108.167 228.615 108.03C228.41 107.893 228.25 107.698 228.155 107.47C228.061 107.243 228.036 106.992 228.085 106.75C228.133 106.508 228.251 106.286 228.426 106.112C228.6 105.937 228.822 105.819 229.064 105.771C229.306 105.722 229.556 105.747 229.784 105.841C230.012 105.936 230.207 106.096 230.344 106.301C230.481 106.506 230.554 106.747 230.554 106.993C230.552 107.323 230.42 107.639 230.187 107.873C229.953 108.106 229.637 108.238 229.307 108.24ZM229.307 106.48C229.171 106.48 229.041 106.534 228.944 106.63C228.848 106.727 228.794 106.857 228.794 106.993C228.794 107.129 228.848 107.26 228.944 107.356C229.041 107.452 229.171 107.507 229.307 107.507C229.443 107.507 229.574 107.452 229.67 107.356C229.766 107.26 229.821 107.129 229.821 106.993C229.821 106.857 229.766 106.727 229.67 106.63C229.574 106.534 229.443 106.48 229.307 106.48Z" fill="#D1D3D4"/>
<path d="M233.032 107.873C233.518 107.873 233.912 107.479 233.912 106.993C233.912 106.507 233.518 106.113 233.032 106.113C232.546 106.113 232.152 106.507 232.152 106.993C232.152 107.479 232.546 107.873 233.032 107.873Z" fill="white"/>
<path d="M233.032 108.24C232.785 108.24 232.544 108.167 232.339 108.03C232.134 107.893 231.974 107.698 231.88 107.47C231.786 107.243 231.761 106.992 231.809 106.75C231.857 106.508 231.976 106.286 232.15 106.112C232.325 105.937 232.547 105.819 232.789 105.771C233.03 105.722 233.281 105.747 233.509 105.841C233.737 105.936 233.931 106.096 234.068 106.301C234.205 106.506 234.278 106.747 234.278 106.993C234.278 107.324 234.147 107.641 233.913 107.875C233.68 108.109 233.362 108.24 233.032 108.24ZM233.032 106.48C232.93 106.48 232.831 106.51 232.747 106.566C232.662 106.623 232.596 106.703 232.558 106.797C232.519 106.891 232.509 106.994 232.528 107.093C232.548 107.193 232.597 107.284 232.669 107.356C232.741 107.428 232.832 107.477 232.932 107.497C233.031 107.517 233.134 107.506 233.228 107.468C233.322 107.429 233.402 107.363 233.459 107.278C233.515 107.194 233.545 107.095 233.545 106.993C233.545 106.857 233.491 106.727 233.395 106.63C233.299 106.534 233.168 106.48 233.032 106.48Z" fill="#D1D3D4"/>
<path d="M236.757 107.873C237.243 107.873 237.637 107.479 237.637 106.993C237.637 106.507 237.243 106.113 236.757 106.113C236.271 106.113 235.877 106.507 235.877 106.993C235.877 107.479 236.271 107.873 236.757 107.873Z" fill="white"/>
<path d="M236.757 108.24C236.511 108.238 236.27 108.164 236.066 108.026C235.862 107.888 235.704 107.693 235.61 107.465C235.517 107.237 235.494 106.987 235.542 106.746C235.591 106.504 235.711 106.283 235.885 106.109C236.06 105.936 236.282 105.818 236.524 105.77C236.765 105.722 237.016 105.748 237.243 105.842C237.47 105.937 237.665 106.097 237.801 106.301C237.938 106.506 238.011 106.747 238.011 106.993C238.011 107.158 237.978 107.32 237.915 107.472C237.852 107.624 237.76 107.762 237.643 107.877C237.527 107.993 237.388 108.085 237.236 108.147C237.084 108.209 236.921 108.241 236.757 108.24ZM236.757 106.48C236.621 106.48 236.49 106.534 236.394 106.63C236.298 106.727 236.244 106.857 236.244 106.993C236.244 107.129 236.298 107.26 236.394 107.356C236.49 107.452 236.621 107.507 236.757 107.507C236.893 107.507 237.024 107.452 237.12 107.356C237.216 107.26 237.27 107.129 237.27 106.993C237.27 106.857 237.216 106.727 237.12 106.63C237.024 106.534 236.893 106.48 236.757 106.48Z" fill="#D1D3D4"/>
<path d="M39.5269 58.1974C39.8055 57.3687 40.0842 56.5474 40.3775 55.7187C40.5242 55.2934 40.6929 54.8754 40.8689 54.4574C40.9612 54.1927 41.1426 53.9683 41.382 53.8226C41.6214 53.6768 41.904 53.6186 42.1815 53.6581C42.8489 53.7314 43.5089 53.8707 44.1762 53.9807C44.5288 54.056 44.8868 54.1026 45.2469 54.1201C45.5114 54.1228 45.7693 54.0376 45.9802 53.8781C46.7135 53.1447 47.4835 52.4114 48.1802 51.6194C48.3013 51.4824 48.3879 51.3183 48.4325 51.141C48.4772 50.9636 48.4787 50.7781 48.4369 50.6001C48.2682 49.7934 48.0775 48.9867 47.9089 48.1801C47.8327 47.8684 47.8031 47.5471 47.8209 47.2267C47.8415 46.9881 47.9546 46.767 48.1362 46.6107C49.3645 45.7888 50.7093 45.1559 52.1255 44.7334C52.3349 44.6675 52.5601 44.6719 52.7667 44.7461C52.9733 44.8203 53.1499 44.96 53.2695 45.1441C53.7755 45.8407 54.3109 46.5227 54.8022 47.2414C54.9606 47.5097 55.1926 47.727 55.4708 47.8674C55.749 48.0078 56.0616 48.0654 56.3715 48.0334C57.2589 47.9674 58.1462 47.9527 59.0262 47.9161C59.1887 47.9062 59.3463 47.857 59.4856 47.7727C59.6248 47.6883 59.7415 47.5715 59.8255 47.4321C60.1409 46.9627 60.4415 46.4861 60.7495 46.0167C61.0575 45.5474 61.2775 45.2027 61.5562 44.8141C61.6793 44.6121 61.8688 44.4592 62.0922 44.3816C62.3156 44.304 62.5591 44.3065 62.7809 44.3887C64.0055 44.8141 65.2229 45.2467 66.4475 45.7087C66.678 45.7998 66.8698 45.9679 66.9902 46.1846C67.1105 46.4012 67.152 46.6529 67.1075 46.8967C67.0415 47.5714 66.8875 48.2461 66.7849 48.9207C66.7335 49.2361 66.6822 49.5514 66.6602 49.8741C66.6347 50.0796 66.6579 50.2883 66.728 50.4832C66.798 50.6781 66.913 50.8538 67.0635 50.9961C67.7089 51.6047 68.3615 52.2061 68.9849 52.8367C69.1683 53.0329 69.4021 53.175 69.6607 53.2474C69.9193 53.3198 70.1929 53.3198 70.4515 53.2474L73.0695 52.6534C73.3613 52.5579 73.679 52.5814 73.9536 52.7187C74.2281 52.856 74.4375 53.096 74.5362 53.3867C75.0251 54.4281 75.514 55.4816 76.0029 56.5474C76.0915 56.6908 76.1502 56.8507 76.1753 57.0174C76.2004 57.1841 76.1915 57.3542 76.149 57.5173C76.1065 57.6805 76.0313 57.8333 75.928 57.9666C75.8248 58.0999 75.6956 58.2108 75.5482 58.2927C75.1009 58.6447 74.6169 58.9527 74.1549 59.2974C73.8249 59.5467 73.4949 59.8034 73.1869 60.0307C73.0538 60.1411 72.9476 60.2803 72.8764 60.4379C72.8053 60.5955 72.771 60.7672 72.7762 60.9401C72.7762 61.8567 72.7762 62.7734 72.8569 63.6901C72.8659 63.9385 72.938 64.1805 73.0662 64.3935C73.1945 64.6064 73.3748 64.7833 73.5902 64.9074L75.0569 65.7947C75.3676 65.9823 75.6686 66.1855 75.9589 66.4034C76.1684 66.5411 76.3238 66.7471 76.3987 66.9864C76.4735 67.2257 76.4632 67.4835 76.3695 67.7161C75.9662 68.8234 75.5482 69.9161 75.1302 71.0234C75.0581 71.1898 74.9671 71.3473 74.8589 71.4927C74.7594 71.6699 74.6067 71.8112 74.4225 71.8968C74.2382 71.9823 74.0317 72.0077 73.8322 71.9694L71.4489 71.5734H71.2729C70.9407 71.4854 70.5898 71.4992 70.2655 71.613C69.9413 71.7267 69.6586 71.9352 69.4542 72.2114C69.0069 72.7467 68.4935 73.2234 67.9875 73.7221C67.7612 73.9416 67.5996 74.2192 67.5207 74.5245C67.4418 74.8299 67.4485 75.151 67.5402 75.4527C67.7382 76.2227 67.9289 76.9927 68.0829 77.7701C68.1451 77.9185 68.1753 78.0785 68.1715 78.2394C68.1676 78.4004 68.1299 78.5587 68.0607 78.7041C67.9914 78.8494 67.8923 78.9786 67.7698 79.083C67.6472 79.1874 67.504 79.2648 67.3495 79.3101C66.2715 79.8307 65.1495 80.3147 64.0715 80.7767C63.8265 80.9177 63.5362 80.9574 63.2622 80.8876C62.9883 80.8177 62.7525 80.6438 62.6049 80.4027C62.1795 79.8601 61.7909 79.2954 61.3875 78.7381C60.5369 77.5427 60.3242 77.4327 58.8502 77.5061L57.1342 77.6087C56.8605 77.6112 56.5922 77.6848 56.3556 77.8224C56.119 77.96 55.9223 78.1567 55.7849 78.3934C55.4329 78.9727 55.1029 79.5594 54.7362 80.1241C54.5431 80.4184 54.322 80.6934 54.0762 80.9454C53.9674 81.0736 53.8216 81.1651 53.6588 81.2071C53.496 81.2491 53.3241 81.2397 53.1669 81.1801L49.6909 79.8821C49.5348 79.8138 49.3871 79.7277 49.2509 79.6254C49.0718 79.5272 48.9281 79.3754 48.8399 79.1912C48.7518 79.007 48.7236 78.7998 48.7595 78.5987C48.8842 77.8141 49.0235 77.0294 49.1409 76.2447C49.1409 76.0101 49.1995 75.7681 49.2142 75.5114C49.2353 75.3156 49.2104 75.1176 49.1417 74.933C49.073 74.7484 48.9622 74.5824 48.8182 74.4481C48.1875 73.8687 47.5642 73.2821 46.9409 72.6954C46.7627 72.5227 46.5415 72.401 46.3003 72.3429C46.0591 72.2849 45.8067 72.2926 45.5695 72.3654C44.8362 72.5561 44.0222 72.7247 43.2449 72.9007H43.1569C42.1449 73.0841 41.8222 72.9521 41.3822 72.0207C40.9422 71.0894 40.4582 69.9601 40.0329 68.9334C39.9588 68.8109 39.9108 68.6745 39.8918 68.5327C39.8728 68.3909 39.8832 68.2466 39.9224 68.109C39.9616 67.9714 40.0288 67.8433 40.1197 67.7328C40.2107 67.6223 40.3234 67.5317 40.4509 67.4667C41.0669 66.9974 41.6975 66.5427 42.3429 66.1247C42.6621 65.9423 42.9202 65.6694 43.0846 65.3406C43.249 65.0117 43.3124 64.6416 43.2669 64.2767C43.2082 63.4554 43.1935 62.6267 43.1495 61.8054C43.1459 61.6326 43.0998 61.4633 43.0154 61.3124C42.931 61.1615 42.8109 61.0337 42.6655 60.9401C41.9762 60.5001 41.2869 60.0747 40.6049 59.6274C40.12 59.3925 39.735 58.9919 39.5195 58.4981L39.5269 58.1974ZM65.7655 62.8027C65.7636 61.7718 65.5578 60.7514 65.16 59.8004C64.7622 58.8493 64.1801 57.9863 63.4474 57.2611C62.7147 56.5359 61.8458 55.9627 60.8906 55.5747C59.9355 55.1866 58.9131 54.9914 57.8822 55.0001C55.8325 55.0604 53.8854 55.9106 52.4477 57.3728C51.0101 58.835 50.1931 60.7963 50.1675 62.8467C50.1867 64.9005 51.011 66.8647 52.4633 68.317C53.9156 69.7693 55.8798 70.5936 57.9335 70.6127C58.9637 70.6255 59.9861 70.4323 60.9406 70.0446C61.8951 69.6569 62.7626 69.0825 63.4922 68.355C64.2217 67.6275 64.7986 66.7616 65.189 65.8082C65.5794 64.8548 65.7754 63.8329 65.7655 62.8027Z" fill="#231F20"/>
<path d="M53.4757 81.613C53.3299 81.6147 53.1853 81.5873 53.0503 81.5323L52.119 81.1877L49.5743 80.2343C49.4135 80.1694 49.2609 80.0857 49.1197 79.985C48.8581 79.8495 48.6462 79.6345 48.5144 79.371C48.3826 79.1074 48.3378 78.8089 48.3863 78.5183L48.5623 77.4697C48.6283 77.037 48.7017 76.6043 48.7677 76.1643C48.8042 75.9386 48.8262 75.7108 48.8337 75.4823C48.8498 75.3473 48.8336 75.2105 48.7864 75.083C48.7392 74.9555 48.6624 74.841 48.5623 74.749C47.983 74.221 47.411 73.6857 46.839 73.143L46.6777 72.9963C46.5469 72.8654 46.3824 72.7734 46.2023 72.7307C46.0223 72.688 45.834 72.6961 45.6583 72.7543C45.123 72.8863 44.5803 73.0037 44.045 73.1283L43.2677 73.3337C42.065 73.5537 41.5737 73.3337 41.0677 72.241C40.5617 71.1483 40.0557 69.9457 39.6963 69.0657C39.5198 68.7423 39.4777 68.3624 39.5793 68.0083C39.6809 67.6541 39.9179 67.3543 40.239 67.1737C40.9723 66.6237 41.5663 66.191 42.153 65.8097C42.4074 65.666 42.6131 65.4497 42.7438 65.1884C42.8744 64.9271 42.9241 64.6327 42.8863 64.343C42.8863 63.8297 42.8277 63.3163 42.8057 62.803L42.7617 61.8643C42.7642 61.7515 42.7371 61.64 42.683 61.5409C42.629 61.4418 42.5499 61.3586 42.4537 61.2997L41.5957 60.7497L40.393 60.0163C39.8348 59.7359 39.3952 59.2651 39.1537 58.689C39.1467 58.6477 39.1467 58.6056 39.1537 58.5643V58.2637C39.1467 58.2224 39.1467 58.1803 39.1537 58.139L39.403 57.4057C39.601 56.8263 39.799 56.2397 40.0043 55.6603C40.1583 55.2277 40.327 54.8023 40.503 54.377C40.629 54.0384 40.8654 53.7522 41.1741 53.5646C41.4828 53.3769 41.8458 53.2989 42.2043 53.343C42.6517 53.3943 43.099 53.475 43.539 53.5557L44.221 53.673L44.485 53.717C44.7262 53.769 44.9717 53.7985 45.2183 53.805C45.3914 53.809 45.562 53.7632 45.7097 53.673C46.5163 52.9397 47.279 52.1037 47.9097 51.4217C47.9952 51.3224 48.0525 51.202 48.0757 51.073C48.099 50.944 48.0872 50.8112 48.0417 50.6883C47.9683 50.329 47.8803 49.955 47.7997 49.6103C47.719 49.2657 47.6017 48.7157 47.5137 48.2683C47.4282 47.9183 47.396 47.5573 47.4183 47.1977C47.4326 47.0242 47.483 46.8556 47.5664 46.7027C47.6497 46.5499 47.7642 46.4162 47.9023 46.3103C49.184 45.4601 50.5889 44.812 52.0677 44.389C52.3501 44.3026 52.6529 44.3103 52.9306 44.4108C53.2083 44.5113 53.4459 44.6992 53.6077 44.9463L54.1577 45.6797C54.495 46.1343 54.8323 46.5817 55.1477 47.051C55.2697 47.266 55.4522 47.4404 55.6726 47.5525C55.8929 47.6647 56.1414 47.7096 56.387 47.6817C56.959 47.6377 57.5383 47.6157 58.1103 47.5937L59.049 47.557C59.152 47.551 59.2519 47.5189 59.3391 47.4638C59.4263 47.4086 59.4981 47.3322 59.5477 47.2417C59.7383 46.9703 59.9143 46.6917 60.0977 46.413L60.5963 45.6797C60.8163 45.335 61.0437 44.9463 61.2857 44.653C61.4546 44.3844 61.7109 44.1823 62.0115 44.0808C62.3121 43.9793 62.6385 43.9845 62.9357 44.0957C64.4023 44.6017 65.5463 45.0123 66.6023 45.4157C66.8903 45.5424 67.1299 45.7584 67.2857 46.0317C67.4415 46.3051 67.5053 46.6213 67.4677 46.9337C67.4163 47.403 67.3357 47.8577 67.255 48.305C67.211 48.5323 67.1743 48.7597 67.1377 48.987C67.101 49.2143 67.035 49.603 67.013 49.911C66.9918 50.0614 67.0074 50.2147 67.0585 50.3578C67.1096 50.5009 67.1946 50.6294 67.3063 50.7323L67.761 51.165C68.2597 51.627 68.7583 52.0963 69.2277 52.5803C69.3618 52.7277 69.5349 52.8342 69.7269 52.8874C69.919 52.9406 70.1222 52.9384 70.313 52.881C70.7383 52.793 71.1637 52.6903 71.5817 52.595L72.931 52.2943C73.3019 52.1763 73.7039 52.2038 74.0553 52.3714C74.4067 52.5389 74.6811 52.8338 74.823 53.1963C75.3217 54.2377 75.8057 55.3083 76.2897 56.3643C76.5046 56.7314 76.5658 57.1685 76.4601 57.5805C76.3543 57.9925 76.0901 58.3461 75.725 58.5643C75.4537 58.777 75.175 58.975 74.889 59.173L74.3243 59.5763C73.9943 59.8183 73.679 60.0677 73.3783 60.3097C73.2859 60.3824 73.2123 60.4764 73.1638 60.5836C73.1153 60.6908 73.0933 60.8082 73.0997 60.9257V61.505C73.0997 62.2383 73.0997 62.9717 73.1657 63.661C73.1673 63.848 73.2192 64.0311 73.3159 64.1911C73.4127 64.3511 73.5508 64.4821 73.7157 64.5703C73.921 64.7023 74.1337 64.827 74.3537 64.9517L75.219 65.465C75.5123 65.6483 75.8423 65.8537 76.1577 66.0957C76.4297 66.2843 76.63 66.5594 76.7259 66.8763C76.8217 67.1932 76.8076 67.5332 76.6857 67.841C76.2823 68.941 75.8717 70.041 75.4463 71.1483C75.3744 71.3254 75.2808 71.4929 75.1677 71.647C75.029 71.9036 74.8118 72.109 74.5478 72.2331C74.2838 72.3572 73.987 72.3933 73.701 72.3363L71.3177 71.9403H71.1123C70.8449 71.8609 70.5593 71.8678 70.296 71.9599C70.0328 72.0521 69.8052 72.2248 69.6457 72.4537C69.323 72.835 68.971 73.187 68.6263 73.5317L68.1937 73.979C68.0151 74.1535 67.8879 74.3736 67.8258 74.6154C67.7637 74.8572 67.7692 75.1114 67.8417 75.3503C68.0617 76.2157 68.2377 76.9417 68.3917 77.6897C68.4607 77.8806 68.4907 78.0835 68.4799 78.2863C68.4691 78.4891 68.4178 78.6876 68.3289 78.8702C68.24 79.0527 68.1154 79.2156 67.9624 79.3492C67.8094 79.4827 67.6312 79.5842 67.4383 79.6477C66.4483 80.1243 65.3777 80.6083 64.153 81.1143C63.8453 81.2635 63.4951 81.3004 63.163 81.2187C62.8309 81.1371 62.5378 80.9419 62.3343 80.667C61.9823 80.2197 61.6597 79.7577 61.3297 79.303L61.1097 78.9877C60.325 77.8877 60.237 77.8437 58.9097 77.917L57.9417 77.9683L57.2083 78.0123C56.9953 78.0118 56.7859 78.0679 56.6017 78.1748C56.4174 78.2818 56.2649 78.4357 56.1597 78.621L55.815 79.2003C55.5803 79.589 55.353 79.9777 55.0817 80.359C54.8651 80.6744 54.6196 80.969 54.3483 81.239C54.1182 81.4739 53.8045 81.6083 53.4757 81.613ZM46.003 71.9477C46.4553 71.9456 46.8902 72.1221 47.213 72.439L47.3743 72.5857C47.939 73.121 48.511 73.6563 49.0903 74.1843C49.2765 74.3558 49.4198 74.5685 49.509 74.8054C49.5981 75.0422 49.6305 75.2967 49.6037 75.5483C49.5964 75.7942 49.5719 76.0392 49.5303 76.2817C49.4643 76.7217 49.391 77.1617 49.3177 77.5943L49.1343 78.6577C49.1094 78.7868 49.1274 78.9205 49.1857 79.0384C49.2439 79.1563 49.3393 79.2518 49.457 79.3103L49.523 79.3543C49.6178 79.4218 49.7184 79.4807 49.8237 79.5303L52.361 80.4763L53.2997 80.821C53.3872 80.8591 53.4852 80.866 53.5773 80.8406C53.6693 80.8153 53.7499 80.7592 53.8057 80.6817C54.0299 80.4537 54.2358 80.2085 54.4217 79.9483C54.6563 79.5743 54.8837 79.215 55.111 78.819L55.463 78.225C55.6312 77.935 55.8715 77.6935 56.1606 77.5239C56.4498 77.3543 56.7778 77.2623 57.113 77.257L57.8463 77.213L58.8217 77.1617C60.4057 77.081 60.7577 77.2497 61.6817 78.555L61.909 78.863C62.2243 79.3103 62.547 79.765 62.8843 80.1903C62.9322 80.2744 62.9963 80.3481 63.0728 80.4072C63.1493 80.4664 63.2368 80.5099 63.3302 80.5351C63.4236 80.5603 63.521 80.5668 63.6169 80.5542C63.7128 80.5416 63.8053 80.5101 63.889 80.4617C65.1063 79.941 66.1697 79.4643 67.145 78.995C67.7317 78.709 67.8197 78.533 67.6877 77.873C67.5557 77.213 67.365 76.4063 67.145 75.563C67.0394 75.2009 67.0333 74.817 67.1276 74.4518C67.2218 74.0865 67.4127 73.7535 67.6803 73.4877L68.1277 73.033C68.4577 72.6957 68.8023 72.351 69.103 71.9917C69.357 71.6666 69.7011 71.4237 70.0924 71.2933C70.4837 71.1628 70.9048 71.1507 71.303 71.2583H71.3763H71.457L73.8403 71.6617C73.9683 71.6849 74.1004 71.666 74.2168 71.6079C74.3331 71.5497 74.4275 71.4553 74.4857 71.339C74.5782 71.216 74.6569 71.0832 74.7203 70.943C75.1359 69.8528 75.5466 68.7528 75.9523 67.643C76.0137 67.4866 76.0196 67.3138 75.9688 67.1536C75.9181 66.9935 75.8139 66.8555 75.6737 66.763C75.3877 66.543 75.0723 66.345 74.801 66.1763L73.943 65.6703L73.3343 65.267C73.0651 65.111 72.8397 64.8892 72.6794 64.6225C72.5191 64.3557 72.4291 64.0527 72.4177 63.7417C72.4177 63.0083 72.3737 62.275 72.359 61.5417V60.9623C72.3512 60.7344 72.3953 60.5076 72.488 60.2993C72.5808 60.0909 72.7197 59.9064 72.8943 59.7597C73.217 59.4883 73.547 59.2243 73.8843 58.975C74.075 58.8283 74.273 58.689 74.471 58.557C74.669 58.425 75.0137 58.1757 75.2703 57.9703C75.3843 57.9139 75.4848 57.8336 75.5651 57.7349C75.6453 57.6362 75.7034 57.5214 75.7354 57.3983C75.7674 57.2752 75.7725 57.1467 75.7505 57.0214C75.7284 56.8962 75.6797 56.7771 75.6077 56.6723C75.153 55.6237 74.669 54.5677 74.141 53.5263C74.1066 53.4245 74.052 53.3306 73.9805 53.2504C73.909 53.1701 73.822 53.1051 73.7248 53.0593C73.6276 53.0134 73.5221 52.9876 73.4147 52.9834C73.3073 52.9793 73.2001 52.9968 73.0997 53.035L71.765 53.343L70.4817 53.629C70.1648 53.7118 69.8315 53.7078 69.5167 53.6175C69.2019 53.5271 68.9171 53.3538 68.6923 53.1157C68.223 52.639 67.7317 52.1843 67.2257 51.7223L66.793 51.3337C66.5945 51.149 66.443 50.9195 66.3511 50.6644C66.2593 50.4092 66.2298 50.1358 66.265 49.867C66.2943 49.5345 66.3383 49.2045 66.397 48.877C66.397 48.6497 66.4777 48.415 66.5143 48.1437C66.6023 47.6963 66.6757 47.271 66.7197 46.8457C66.7473 46.686 66.7212 46.5217 66.6456 46.3784C66.57 46.2352 66.449 46.121 66.3017 46.0537C65.253 45.6503 64.1017 45.2397 62.635 44.7337C62.4906 44.6786 62.3313 44.6772 62.1859 44.7297C62.0406 44.7822 61.9189 44.8851 61.843 45.0197C61.6083 45.3423 61.3883 45.6797 61.1683 46.017L60.6697 46.7503C60.4937 47.0363 60.3103 47.3223 60.1197 47.601C60.003 47.7886 59.8427 47.9453 59.6525 48.0577C59.4622 48.17 59.2476 48.2347 59.027 48.2463L58.081 48.283C57.5163 48.283 56.9443 48.327 56.3797 48.371C56.0023 48.4094 55.6218 48.3395 55.2828 48.1693C54.9438 47.9992 54.6603 47.7359 54.4657 47.4103C54.1577 46.9557 53.8203 46.5083 53.4903 46.0683L52.9403 45.335C52.8645 45.2161 52.7513 45.1258 52.6187 45.078C52.486 45.0302 52.3412 45.0278 52.207 45.071C50.8287 45.4902 49.5228 46.1184 48.335 46.9337C48.2561 47.0269 48.2075 47.1421 48.1957 47.2637C48.1849 47.5475 48.2145 47.8315 48.2837 48.107C48.3717 48.547 48.4743 48.987 48.5697 49.427C48.665 49.867 48.7383 50.1603 48.8117 50.5197C48.8813 50.7601 48.8882 51.0144 48.8317 51.2583C48.7752 51.5022 48.6572 51.7276 48.489 51.913C47.8437 52.6023 47.0737 53.3797 46.2523 54.1863C45.9696 54.4129 45.6173 54.5347 45.255 54.531C44.9567 54.5303 44.6593 54.4983 44.3677 54.4357L44.111 54.3917L43.4217 54.267C42.9963 54.1937 42.571 54.113 42.1383 54.069C41.9426 54.0405 41.743 54.0823 41.5752 54.187C41.4073 54.2917 41.2821 54.4526 41.2217 54.641C41.0457 55.0517 40.877 55.4623 40.7303 55.8877C40.525 56.4597 40.3343 57.039 40.1363 57.6183L39.9017 58.3003V58.469C40.1031 58.8475 40.4187 59.1529 40.8037 59.3417L42.0137 60.075L42.879 60.625C43.0757 60.7484 43.2385 60.9191 43.3525 61.1214C43.4665 61.3238 43.5281 61.5514 43.5317 61.7837L43.5757 62.737C43.5757 63.243 43.6197 63.749 43.6563 64.255C43.7045 64.6895 43.6255 65.1287 43.4289 65.5192C43.2324 65.9097 42.9267 66.2348 42.549 66.455C41.977 66.8217 41.383 67.247 40.679 67.7823C40.239 68.1123 40.1877 68.303 40.3783 68.787C40.7377 69.6597 41.207 70.811 41.735 71.9257C42.0943 72.659 42.241 72.7543 43.1063 72.593L43.2677 72.945L43.1797 72.5783L43.913 72.417L45.4677 72.0063C45.6435 71.9675 45.823 71.9478 46.003 71.9477ZM57.9343 70.987C55.7714 70.9773 53.7003 70.1118 52.1736 68.5796C50.647 67.0475 49.7889 64.9732 49.787 62.8103C49.7856 61.7356 49.9989 60.6715 50.4145 59.6804C50.8301 58.6893 51.4395 57.7913 52.207 57.039C53.7012 55.5214 55.7248 54.641 57.8537 54.5823C58.9404 54.5667 60.0193 54.7679 61.0273 55.1741C62.0354 55.5804 62.9523 56.1835 63.7245 56.9482C64.4968 57.7129 65.1088 58.6239 65.5249 59.6279C65.9409 60.632 66.1527 61.7089 66.1477 62.7957C66.1744 63.8325 65.9935 64.8642 65.6157 65.8302C65.2379 66.7961 64.6708 67.6767 63.9477 68.4203C63.1764 69.2395 62.2441 69.8904 61.2092 70.3321C60.1744 70.7738 59.0594 70.9968 57.9343 70.987ZM57.8317 55.3377C55.8953 55.3897 54.0549 56.1916 52.6983 57.5743C52.0019 58.257 51.4486 59.0716 51.0709 59.9707C50.6931 60.8698 50.4985 61.8351 50.4983 62.8103C50.4983 63.7861 50.6908 64.7524 51.0647 65.6537C51.4385 66.5551 51.9865 67.3739 52.6772 68.0632C53.3679 68.7525 54.1877 69.2989 55.0898 69.671C55.9919 70.0431 56.9585 70.2336 57.9343 70.2317C58.9537 70.2404 59.9638 70.0384 60.9015 69.6384C61.8391 69.2384 62.6839 68.6489 63.383 67.907C64.0381 67.2361 64.5522 66.4408 64.8948 65.5679C65.2374 64.695 65.4016 63.7624 65.3777 62.825C65.3845 61.8389 65.195 60.8614 64.8202 59.9493C64.4453 59.0373 63.8926 58.209 63.1943 57.5127C62.496 56.8165 61.6661 56.2662 60.753 55.8941C59.8398 55.5219 58.8617 55.3352 57.8757 55.345L57.8317 55.3377Z" fill="#231F20"/>
</svg>
