<svg width="44" height="38" viewBox="0 0 44 38" fill="none" xmlns="http://www.w3.org/2000/svg">
<path d="M17.4907 0L10.6584 27.2462L9.01863 19.4616C11.6605 19.4616 13.8468 20.2669 15.5776 21.8775C17.3085 23.4881 18.1739 25.6356 18.1739 28.32C18.1739 31.0043 17.3085 33.1966 15.5776 34.8967C13.8468 36.5968 11.706 37.4468 9.15528 37.4468C6.51346 37.4468 4.32712 36.5968 2.59627 34.8967C0.865425 33.1071 0 30.9149 0 28.32C0 27.4252 0.0455488 26.5752 0.136646 25.7699C0.318841 24.9645 0.592133 24.025 0.956522 22.9513C1.32091 21.788 1.82195 20.4011 2.45963 18.7905L8.88199 0H17.4907ZM43.3168 0L36.4845 27.2462L34.8447 19.4616C37.4865 19.4616 39.6729 20.2669 41.4037 21.8775C43.1346 23.4881 44 25.6356 44 28.32C44 31.0043 43.1346 33.1966 41.4037 34.8967C39.6729 36.5968 37.5321 37.4468 34.9814 37.4468C32.3395 37.4468 30.1532 36.5968 28.4224 34.8967C26.6915 33.1071 25.8261 30.9149 25.8261 28.32C25.8261 27.4252 25.8716 26.5752 25.9627 25.7699C26.1449 24.9645 26.4182 24.025 26.7826 22.9513C27.147 21.788 27.648 20.4011 28.2857 18.7905L34.7081 0H43.3168Z" fill="#FF6C22"/>
</svg>
