<svg width="130" height="30" viewBox="0 0 130 30" fill="none" xmlns="http://www.w3.org/2000/svg">
<g clip-path="url(#clip0_686_4106)">
<path d="M106.443 -0.139244C108.105 -0.172629 109.771 -0.226045 111.434 -0.229384C116.395 -0.242738 121.356 -0.232723 126.32 -0.232723C126.764 -0.232723 127.211 -0.232723 127.772 -0.232723C127.265 1.6669 126.801 3.41295 126.303 5.28252H112.165V10.721C114.558 10.721 116.922 10.711 119.286 10.721C121.379 10.7343 123.362 11.2418 125.088 12.4136C129.091 15.1412 130.62 20.8367 127.529 25.4405C125.676 28.1982 123.045 29.5803 119.686 29.5636C115.643 29.5436 111.597 29.5603 107.554 29.5603C107.147 29.5603 106.74 29.5603 106.242 29.5603V0.147869C106.309 0.0543907 106.376 -0.0424265 106.443 -0.135905V-0.139244ZM112.151 16.2629V23.8881C115.079 23.8881 117.94 23.8948 120.802 23.8781C121.025 23.8781 121.262 23.7412 121.473 23.6277C122.925 22.8465 124.027 20.9202 123.696 19.6215C123.105 17.3046 122.124 16.49 120.004 16.313C117.446 16.0993 114.856 16.2629 112.155 16.2629H112.151Z" fill="#E30613"/>
<path d="M48.1595 29.3783C48.1495 19.6431 48.1395 9.90465 48.1328 0.169507C48.1328 0.0559973 48.1896 -0.0608511 48.2497 -0.277855C52.1123 -0.277855 55.9784 -0.374673 59.841 -0.241132C62.2114 -0.157668 64.4983 0.500021 66.458 1.95562C71.9565 6.04198 72.5675 13.6271 68.5012 18.4379C66.8152 20.431 64.8588 21.8833 62.2848 22.3941C61.3701 22.5744 60.4186 22.5877 59.4805 22.6345C57.7478 22.7213 56.0151 22.7713 54.2824 22.8381C54.2023 24.5608 54.1188 26.2801 54.0453 28.0028C54.0287 28.4101 54.0453 28.8207 54.0453 29.3983C52.1023 29.3983 50.2428 29.3983 48.3832 29.3983C48.3098 29.3816 48.2363 29.3749 48.1629 29.3783H48.1595ZM54.1622 5.1339V17.1392C56.0218 17.1392 57.8079 17.0758 59.5906 17.1526C62.612 17.2861 65.0591 15.0026 65.59 12.0413C66.0307 9.59417 64.7353 6.37917 61.4469 5.70145C59.1232 5.22404 56.6861 5.3075 54.1622 5.1339Z" fill="#E30613"/>
<path d="M83.1702 22.6393V29.56H77.458V-0.296426C79.4878 -0.296426 81.521 -0.353181 83.5475 -0.283072C86.1916 -0.192932 88.8524 -0.15287 91.4698 0.174306C95.8199 0.718486 99.766 5.43249 100.273 9.92614C100.911 15.5683 96.748 21.0835 92.2644 22.1318C90.4515 22.5558 88.5252 22.5157 86.649 22.6259C85.5406 22.6927 84.4222 22.6393 83.1702 22.6393ZM83.2437 17.1407C85.1633 17.1407 86.9528 17.114 88.7422 17.1474C90.6285 17.1841 92.1509 16.5164 93.3761 15.0708C95.8032 12.2197 95.0253 6.84802 90.8789 5.82309C88.4518 5.22216 85.831 5.40912 83.2403 5.23885V17.1407H83.2437Z" fill="#E30613"/>
<path d="M0.164063 29.3678C4.08349 25.4618 7.82932 21.7293 11.5685 17.9968C16.7766 12.8021 21.9847 7.60399 27.1894 2.4059C28.8487 0.746656 30.8084 -0.161423 33.1954 -0.104668C34.9381 -0.0646061 36.6842 -0.0979913 38.6339 -0.0979913C38.2266 0.342694 37.9428 0.666531 37.6423 0.966998C29.0623 9.53366 20.4523 18.0736 11.919 26.687C10.0761 28.5466 7.88273 29.3745 5.40889 29.6149C3.9633 29.7551 2.49101 29.6483 1.03208 29.6316C0.808398 29.6316 0.588055 29.5014 0.164063 29.3678Z" fill="#E30613"/>
<path d="M38.9143 17.1409C35.4789 20.5729 32.3073 23.828 29.0322 26.9729C27.5299 28.4151 25.6904 29.3599 23.5237 29.4C21.6307 29.4334 19.7344 29.4066 17.541 29.4066C17.9884 28.9059 18.2321 28.6054 18.5058 28.3316C21.3035 25.5306 24.1212 22.7496 26.9022 19.9352C28.7785 18.039 31.0888 17.2344 33.6861 17.1509C35.3387 17.0975 36.9913 17.1409 38.9143 17.1409Z" fill="#E30815"/>
<path d="M0.307617 12.1455C0.651485 11.6247 0.811735 11.2674 1.07214 11.007C4.01004 8.05244 6.91122 5.06112 9.92925 2.19333C11.485 0.717696 13.3846 -0.17369 15.6381 -0.113597C17.471 -0.063519 19.3072 -0.103581 21.3069 -0.103581C21.0332 0.21024 20.8496 0.447276 20.6426 0.654264C18.0218 3.27501 15.341 5.84233 12.787 8.52651C10.3866 11.0538 7.57225 12.3758 4.05344 12.1521C2.90499 12.0787 1.74652 12.1421 0.307617 12.1421V12.1455Z" fill="#E30815"/>
<path d="M17.4476 29.5526L17.4209 29.4958L17.4877 29.5025L17.4476 29.5526Z" fill="#F5A5AA"/>
<path d="M48.1582 29.3794C48.2317 29.3794 48.3051 29.3827 48.3785 29.3994C48.3151 29.4562 48.2483 29.5129 48.1849 29.5697C48.1749 29.5063 48.1682 29.4428 48.1582 29.3827V29.3794Z" fill="#E72431"/>
</g>
<defs>
<clipPath id="clip0_686_4106">
<rect width="129.007" height="30" fill="white" transform="translate(0.164062)"/>
</clipPath>
</defs>
</svg>
