<svg width="110" height="60" viewBox="0 0 110 60" fill="none" xmlns="http://www.w3.org/2000/svg">
<g clip-path="url(#clip0_686_4068)">
<path fill-rule="evenodd" clip-rule="evenodd" d="M29.9867 60C13.5048 60 0.143555 46.5685 0.143555 30C0.143555 13.4315 13.5048 0 29.9867 0C46.4686 0 59.8298 13.4315 59.8298 30C59.8298 46.5685 46.4686 60 29.9867 60ZM18.9357 42.2618L24.6475 18.0184H19.0626L13.4777 42.2618H18.9357ZM25.6841 35.1044C25.7502 39.7564 29.5019 42.4645 35.5839 42.4645C41.7321 42.4645 45.649 39.4241 45.649 34.6558C45.649 30.8678 43.5335 28.7246 38.8233 27.8108L35.7327 27.2293C33.2371 26.7143 32.1793 25.9999 32.1793 24.704C32.1793 23.2419 33.5841 22.2783 35.6996 22.2783C37.8812 22.2783 39.4844 23.325 39.6 25.0695H45.1863C45.1202 20.5671 41.5998 17.6596 35.6335 17.6596C30.1134 17.6596 26.1469 20.6501 26.1469 25.3021C26.1469 28.9406 28.4111 31.333 32.8073 32.1803L35.931 32.7951C38.6415 33.3599 39.6496 34.0079 39.6496 35.337C39.6496 36.7825 38.1126 37.8458 35.7492 37.8458C33.5015 37.8458 31.667 36.7492 31.4521 35.1044H25.6841Z" fill="#021685"/>
<path fill-rule="evenodd" clip-rule="evenodd" d="M67.001 38.6785H69.0352C69.1654 39.7664 70.2476 40.478 71.6796 40.478C73.0954 40.478 74.08 39.7746 74.08 38.793C74.08 37.9423 73.4779 37.4516 71.997 37.0999L70.4754 36.74C68.311 36.241 67.2858 35.194 67.2858 33.509C67.2858 31.4151 69.1003 30 71.6552 30C74.2427 30 75.9514 31.4069 76.0003 33.4845H73.9986C73.901 32.3802 72.9815 31.7177 71.6389 31.7177C70.3126 31.7177 69.4176 32.3721 69.4176 33.3536C69.4176 34.1389 70.0116 34.5969 71.4518 34.9404L72.8025 35.2513C75.1866 35.7993 76.1955 36.789 76.1955 38.5476C76.1955 40.7888 74.4055 42.1957 71.5657 42.1957C68.8643 42.1957 67.0905 40.8543 67.001 38.6785ZM83.3703 30C86.7877 30 88.9359 32.3475 88.9359 36.1019C88.9359 39.8564 86.7877 42.1957 83.3703 42.1957C79.9447 42.1957 77.7966 39.8564 77.7966 36.1019C77.7966 32.3475 79.9447 30 83.3703 30ZM83.3703 31.7995C81.271 31.7995 79.9447 33.4681 79.9447 36.1019C79.9447 38.7276 81.271 40.3962 83.3703 40.3962C85.4615 40.3962 86.7959 38.7276 86.7959 36.1019C86.7959 33.4681 85.4615 31.7995 83.3703 31.7995ZM93.1244 41.9994H91.0251V30.1963H98.511V31.9795H93.1244V35.4639H98.0472V37.1816H93.1244V41.9994ZM105.937 41.9994H103.838V31.9795H100.274V30.1963H109.501V31.9795H105.937V41.9994Z" fill="#021685"/>
</g>
<defs>
<clipPath id="clip0_686_4068">
<rect width="110" height="60" fill="white"/>
</clipPath>
</defs>
</svg>
