<svg width="178" height="54" viewBox="0 0 178 54" fill="none" xmlns="http://www.w3.org/2000/svg">
<path d="M159.501 37.7967L151.108 27.5267L159.28 18.6924H153.096L146.36 26.0912V18.6924H141.28V37.7967H146.36V29.5145L153.207 37.7967H159.501Z" fill="#009CAB"/>
<path d="M19.2558 37.7967H14.2865V35.1464C12.8509 37.2445 10.7527 38.3488 7.99198 38.3488C3.90609 38.3488 1.36621 36.1402 1.36621 31.5022V18.6924H6.66682V29.6249C6.66682 32.0543 6.88768 33.9316 9.86928 33.9316C13.1822 33.9316 14.0656 31.3918 14.0656 28.5206V18.6924H19.2558V37.7967Z" fill="#009CAB"/>
<path d="M34.1642 37.7967V29.7353H26.7654V37.7967H21.5752V18.6924H26.7654V25.6494H34.1642V18.6924H39.3543V37.7967H34.1642Z" fill="#009CAB"/>
<path d="M51.3903 22.7783V37.7967H46.2001V22.7783H40.7891V18.6924H56.8013V22.7783H51.3903Z" fill="#009CAB"/>
<path d="M66.4092 38.3477C60.5564 38.3477 56.6914 34.3722 56.6914 28.409C56.6914 22.4458 60.7773 18.2495 66.2988 18.2495C72.0411 18.2495 75.6853 22.4458 75.6853 29.182V29.7342H61.992C62.1024 33.0471 63.6485 34.8139 66.5196 34.8139C68.3969 34.8139 69.6116 33.9305 70.3847 32.0532H75.4644C74.2497 36.0287 70.7159 38.3477 66.4092 38.3477ZM66.2988 22.0041C63.9797 22.0041 62.3233 23.6606 61.992 26.3109H70.3847C70.1638 23.8814 68.8386 22.0041 66.2988 22.0041Z" fill="#009CAB"/>
<path d="M81.8687 21.1207C83.3042 19.1329 85.4024 18.2495 87.8318 18.2495C93.022 18.2495 96.3349 22.3354 96.3349 28.409C96.3349 34.3722 93.022 38.3477 88.0527 38.3477C85.6233 38.3477 83.5251 37.4642 82.1999 35.4765V43.7587H77.0098V18.6912H81.9791V21.1207H81.8687ZM81.9791 28.2986C81.9791 32.0532 83.6355 34.1514 86.6171 34.1514C89.3779 34.1514 91.1447 31.9428 91.1447 28.2986C91.1447 24.544 89.3779 22.3354 86.6171 22.3354C83.6355 22.4458 81.9791 24.544 81.9791 28.2986Z" fill="#009CAB"/>
<path d="M167.12 38.2388C161.267 38.2388 157.402 34.2633 157.402 28.4106C157.402 22.2265 161.267 18.1406 167.231 18.1406C172.31 18.1406 175.734 20.9014 176.175 25.3185H170.985C170.654 23.2204 169.218 22.0057 167.231 22.0057C164.359 22.0057 162.703 24.3247 162.703 28.1897C162.703 32.0547 164.359 34.1529 167.12 34.1529C169.329 34.1529 170.764 32.8277 171.206 30.2879H176.286C175.623 35.3676 172.2 38.2388 167.12 38.2388Z" fill="#009CAB"/>
<path d="M130.569 18.25C130.569 18.25 129.907 18.25 128.913 18.25H125.048C124.054 18.25 124.275 17.1457 124.385 16.8144C126.815 7.42791 128.913 4.66717 132.336 4.88803C133.882 4.99846 134.434 5.32975 135.318 6.10276C135.98 6.76533 135.98 7.09662 137.085 5.21932C138.41 2.9003 138.52 2.78987 138.852 2.1273C139.072 1.68558 139.845 0.912573 138.52 0.912573C122.398 0.581284 122.177 6.76533 116.766 17.2561C116.214 18.25 115.551 18.25 113.674 18.25C113.674 18.25 110.692 18.25 109.698 18.25C107.49 18.25 104.508 18.5813 102.079 20.2377C100.201 21.5629 97.551 24.2132 97.551 28.6304C97.551 31.1702 98.7657 33.8205 99.87 35.0353C101.195 36.4709 101.968 37.1334 103.183 37.6856C103.514 37.796 103.625 37.796 103.735 37.796C103.956 37.796 104.177 37.5751 104.398 37.4647C107.158 35.0353 107.269 34.9248 108.373 34.0414C108.815 33.5997 108.484 33.3788 107.931 33.3788C105.833 33.158 104.508 32.7163 103.625 31.7224C102.52 30.6181 102.299 29.6242 102.189 28.5199C101.968 25.8696 103.956 23.661 105.723 22.6672C106.827 22.115 108.263 21.7837 110.14 21.7837C112.901 21.7837 113.674 21.8942 114.115 22.2255C114.447 22.5567 114.778 22.888 114.336 24.1028C111.686 30.7285 110.582 34.2623 105.502 42.9862C102.962 47.2929 98.4344 50.0537 92.0295 47.9555C90.5939 47.5138 90.2626 48.2868 89.9314 48.9494C89.6001 49.5015 88.2749 51.3788 88.1645 51.8205C87.8332 52.4831 88.7166 52.704 89.1584 52.704C99.4283 53.0353 104.839 51.158 110.913 44.3113C116.545 37.1334 117.649 31.612 121.293 24.3236C121.845 23.1089 122.729 21.8942 124.164 21.8942C127.919 21.8942 130.459 21.8942 130.459 21.8942C132.778 21.8942 133.882 22.6672 133.882 24.434C132.447 24.434 131.674 24.434 131.122 24.434C130.128 24.434 124.054 24.3236 121.404 29.0721C120.962 29.8451 120.189 31.3911 120.41 33.2684C120.631 35.8083 122.508 37.5751 125.048 38.2377C125.49 38.3482 125.821 38.4586 126.152 38.4586C126.594 38.569 127.146 38.569 127.698 38.569C130.017 38.569 132.226 37.796 133.882 36.25V37.9064H138.962V24.6549C138.962 19.1334 134.434 18.25 130.569 18.25ZM133.882 31.0598C133.882 32.1641 133.33 33.2684 132.778 33.8205C131.342 35.1457 129.134 35.2561 128.14 35.0353C127.257 34.8144 125.821 33.931 125.821 32.4954C125.71 30.6181 126.373 29.7347 127.588 28.8512C128.803 28.0782 130.128 27.8574 131.011 27.8574C132.115 27.8574 133.772 27.8574 133.772 27.8574C133.772 27.8574 133.882 29.9555 133.882 31.0598Z" fill="#009CAB"/>
</svg>
