<svg width="488" height="300" viewBox="0 0 488 300" fill="none" xmlns="http://www.w3.org/2000/svg">
<path d="M417.721 44.1599H70.2676V79.0799H417.721V44.1599Z" fill="#FF6C22"/>
<path d="M417.733 79.5699H70.2676C70.106 79.5699 69.951 79.5172 69.8367 79.4235C69.7224 79.3297 69.6582 79.2025 69.6582 79.0699V44.1599C69.6582 44.0273 69.7224 43.9001 69.8367 43.8064C69.951 43.7126 70.106 43.6599 70.2676 43.6599H417.733C417.895 43.6599 418.05 43.7126 418.164 43.8064C418.278 43.9001 418.343 44.0273 418.343 44.1599V79.0699C418.343 79.2025 418.278 79.3297 418.164 79.4235C418.05 79.5172 417.895 79.5699 417.733 79.5699ZM70.9379 78.5699H417.185V44.6599H70.9379V78.5699Z" fill="#231F20"/>
<path d="M417.721 79.0698H70.2676V255.84H417.721V79.0698Z" fill="white"/>
<path d="M417.733 256.34H70.2676C70.106 256.34 69.951 256.287 69.8367 256.193C69.7224 256.1 69.6582 255.972 69.6582 255.84V79.0698C69.6613 78.938 69.7265 78.8123 69.8401 78.7191C69.9537 78.6259 70.1069 78.5724 70.2676 78.5698H417.733C417.894 78.5724 418.047 78.6259 418.161 78.7191C418.274 78.8123 418.339 78.938 418.343 79.0698V255.84C418.343 255.972 418.278 256.1 418.164 256.193C418.05 256.287 417.895 256.34 417.733 256.34ZM70.877 255.34H417.124V79.5698H70.9379L70.877 255.34Z" fill="#231F20"/>
<path d="M99.4563 64.1598H102.93C103.076 64.1598 103.125 64.1598 103.125 64.3198V73.2298H107.756V64.3098C107.756 64.1898 107.756 64.1598 107.939 64.1598H111.388C111.546 64.1598 111.595 64.1598 111.607 64.0098L111.827 62.5598C111.912 62.0698 111.985 61.5598 112.058 61.0998C112.058 60.8998 112.119 60.6998 112.156 60.4798H107.963C107.756 60.4798 107.756 60.4798 107.756 60.3098C107.756 59.4898 107.756 58.6598 107.756 57.8298C107.763 57.6064 107.821 57.3859 107.927 57.1798C108.03 56.9805 108.198 56.8087 108.413 56.6833C108.629 56.558 108.882 56.4841 109.145 56.4698C109.371 56.435 109.599 56.415 109.828 56.4098H112.131C112.29 56.4098 112.338 56.4098 112.338 56.2498C112.338 55.2498 112.338 54.2498 112.338 53.2498C112.338 53.1398 112.338 53.0798 112.143 53.0798C111.534 53.0798 110.925 52.9998 110.328 52.9798C109.73 52.9598 109.109 52.9798 108.524 52.9798C107.328 52.9887 106.165 53.3033 105.197 53.8798C104.3 54.4496 103.661 55.2484 103.381 56.1498C103.221 56.6357 103.139 57.1366 103.137 57.6398V60.3398C103.137 60.4698 103.137 60.4998 102.942 60.4998H99.4806C99.2734 60.4998 99.2734 60.4998 99.2734 60.6598V63.9998C99.2734 64.1298 99.31 64.1598 99.4563 64.1598Z" fill="white"/>
<path d="M309.496 56H139.444C135.809 56 132.862 58.4177 132.862 61.4C132.862 64.3823 135.809 66.8 139.444 66.8H309.496C313.13 66.8 316.077 64.3823 316.077 61.4C316.077 58.4177 313.13 56 309.496 56Z" fill="white"/>
<path d="M341.586 67.72C346.028 67.72 349.63 64.7651 349.63 61.12C349.63 57.4749 346.028 54.52 341.586 54.52C337.143 54.52 333.542 57.4749 333.542 61.12C333.542 64.7651 337.143 67.72 341.586 67.72Z" fill="white"/>
<path d="M365.498 67.72C369.94 67.72 373.542 64.7651 373.542 61.12C373.542 57.4749 369.94 54.52 365.498 54.52C361.055 54.52 357.454 57.4749 357.454 61.12C357.454 64.7651 361.055 67.72 365.498 67.72Z" fill="white"/>
<path d="M389.422 67.72C393.864 67.72 397.465 64.7651 397.465 61.12C397.465 57.4749 393.864 54.52 389.422 54.52C384.979 54.52 381.378 57.4749 381.378 61.12C381.378 64.7651 384.979 67.72 389.422 67.72Z" fill="white"/>
<path d="M309.167 138.28H175.885C173.893 138.28 171.982 137.631 170.572 136.476C169.162 135.321 168.368 133.754 168.365 132.12V99.4998C168.368 97.8643 169.162 96.2964 170.571 95.1399C171.981 93.9834 173.892 93.3325 175.885 93.3298H309.167C311.161 93.3325 313.072 93.9834 314.481 95.1399C315.891 96.2964 316.684 97.8643 316.687 99.4998V132.12C316.684 133.754 315.89 135.321 314.48 136.476C313.07 137.631 311.16 138.28 309.167 138.28ZM175.885 94.3298C174.215 94.3325 172.614 94.878 171.433 95.847C170.252 96.816 169.587 98.1295 169.584 99.4998V132.12C169.587 133.489 170.252 134.802 171.434 135.769C172.615 136.737 174.216 137.28 175.885 137.28H309.167C310.836 137.28 312.437 136.737 313.619 135.769C314.8 134.802 315.465 133.489 315.468 132.12V99.4998C315.465 98.1295 314.8 96.816 313.619 95.847C312.438 94.878 310.838 94.3325 309.167 94.3298H175.885Z" fill="#D1D3D4"/>
<path d="M304.401 117.81H181.844C181.197 117.81 180.577 117.599 180.12 117.224C179.663 116.849 179.406 116.34 179.406 115.81C179.406 115.279 179.663 114.771 180.12 114.396C180.577 114.021 181.197 113.81 181.844 113.81H304.401C305.048 113.81 305.668 114.021 306.125 114.396C306.582 114.771 306.839 115.279 306.839 115.81C306.839 116.34 306.582 116.849 306.125 117.224C305.668 117.599 305.048 117.81 304.401 117.81Z" fill="#D1D3D4"/>
<path d="M295.358 128.73H181.844C181.197 128.73 180.577 128.519 180.12 128.144C179.663 127.769 179.406 127.26 179.406 126.73C179.406 126.2 179.663 125.691 180.12 125.316C180.577 124.941 181.197 124.73 181.844 124.73H295.395C296.041 124.73 296.661 124.941 297.118 125.316C297.575 125.691 297.832 126.2 297.832 126.73C297.832 127.26 297.575 127.769 297.118 128.144C296.661 128.519 296.041 128.73 295.395 128.73H295.358Z" fill="#D1D3D4"/>
<path d="M309.167 191.49H175.885C173.892 191.487 171.981 190.836 170.571 189.68C169.162 188.523 168.368 186.955 168.365 185.32V152.7C168.368 151.065 169.162 149.498 170.572 148.343C171.982 147.188 173.893 146.54 175.885 146.54H309.167C311.16 146.54 313.07 147.188 314.48 148.343C315.89 149.498 316.684 151.065 316.687 152.7V185.32C316.684 186.955 315.891 188.523 314.481 189.68C313.072 190.836 311.161 191.487 309.167 191.49ZM175.885 147.49C174.216 147.49 172.615 148.033 171.434 149.001C170.252 149.968 169.587 151.28 169.584 152.65V185.27C169.587 186.64 170.252 187.954 171.433 188.923C172.614 189.892 174.215 190.437 175.885 190.44H309.167C310.838 190.437 312.438 189.892 313.619 188.923C314.8 187.954 315.465 186.64 315.468 185.27V152.7C315.465 151.33 314.8 150.018 313.619 149.051C312.437 148.083 310.836 147.54 309.167 147.54L175.885 147.49Z" fill="#D1D3D4"/>
<path d="M304.401 171H181.844C181.197 171 180.577 170.789 180.12 170.414C179.663 170.039 179.406 169.53 179.406 169C179.406 168.47 179.663 167.961 180.12 167.586C180.577 167.211 181.197 167 181.844 167H304.401C305.048 167 305.668 167.211 306.125 167.586C306.582 167.961 306.839 168.47 306.839 169C306.839 169.53 306.582 170.039 306.125 170.414C305.668 170.789 305.048 171 304.401 171Z" fill="#D1D3D4"/>
<path d="M295.358 181.93H181.844C181.197 181.93 180.577 181.719 180.12 181.344C179.663 180.969 179.406 180.46 179.406 179.93C179.406 179.399 179.663 178.891 180.12 178.516C180.577 178.141 181.197 177.93 181.844 177.93H295.395C296.041 177.93 296.661 178.141 297.118 178.516C297.575 178.891 297.832 179.399 297.832 179.93C297.832 180.46 297.575 180.969 297.118 181.344C296.661 181.719 296.041 181.93 295.395 181.93H295.358Z" fill="#D1D3D4"/>
<path d="M309.167 244.69H175.885C173.893 244.69 171.982 244.041 170.572 242.886C169.162 241.731 168.368 240.165 168.365 238.53V205.91C168.368 204.274 169.162 202.707 170.571 201.55C171.981 200.394 173.892 199.743 175.885 199.74H309.167C311.161 199.743 313.072 200.394 314.481 201.55C315.891 202.707 316.684 204.274 316.687 205.91V238.53C316.684 240.165 315.89 241.731 314.48 242.886C313.07 244.041 311.16 244.69 309.167 244.69ZM175.885 200.74C174.215 200.743 172.614 201.288 171.433 202.257C170.252 203.226 169.587 204.54 169.584 205.91V238.53C169.587 239.899 170.252 241.212 171.434 242.179C172.615 243.147 174.216 243.69 175.885 243.69H309.167C310.836 243.69 312.437 243.147 313.619 242.179C314.8 241.212 315.465 239.899 315.468 238.53V205.91C315.465 204.54 314.8 203.226 313.619 202.257C312.438 201.288 310.838 200.743 309.167 200.74H175.885Z" fill="#D1D3D4"/>
<path d="M304.401 224.22H181.844C181.197 224.22 180.577 224.009 180.12 223.634C179.663 223.259 179.406 222.75 179.406 222.22C179.406 221.69 179.663 221.181 180.12 220.806C180.577 220.431 181.197 220.22 181.844 220.22H304.401C305.048 220.22 305.668 220.431 306.125 220.806C306.582 221.181 306.839 221.69 306.839 222.22C306.839 222.75 306.582 223.259 306.125 223.634C305.668 224.009 305.048 224.22 304.401 224.22Z" fill="#D1D3D4"/>
<path d="M295.358 235.14H181.844C181.197 235.14 180.577 234.929 180.12 234.554C179.663 234.179 179.406 233.67 179.406 233.14C179.406 232.609 179.663 232.101 180.12 231.726C180.577 231.351 181.197 231.14 181.844 231.14H295.395C296.041 231.14 296.661 231.351 297.118 231.726C297.575 232.101 297.832 232.609 297.832 233.14C297.832 233.67 297.575 234.179 297.118 234.554C296.661 234.929 296.041 235.14 295.395 235.14H295.358Z" fill="#D1D3D4"/>
<path d="M94.1794 177.34C93.0056 177.34 91.858 177.054 90.882 176.519C89.9059 175.984 89.1452 175.223 88.6959 174.334C88.2467 173.444 88.1292 172.464 88.3582 171.52C88.5872 170.575 89.1525 169.707 89.9825 169.026C90.8126 168.345 91.8702 167.881 93.0215 167.693C94.1729 167.506 95.3663 167.602 96.4508 167.971C97.5353 168.339 98.4623 168.963 99.1145 169.764C99.7667 170.565 100.115 171.507 100.115 172.47C100.115 173.761 99.4894 175 98.3763 175.913C97.2633 176.827 95.7536 177.34 94.1794 177.34ZM94.1794 168.6C93.2466 168.6 92.3347 168.827 91.5591 169.252C90.7834 169.677 90.1789 170.282 89.8219 170.989C89.4649 171.696 89.3715 172.474 89.5535 173.225C89.7355 173.976 90.1847 174.665 90.8443 175.206C91.504 175.748 92.3444 176.116 93.2593 176.266C94.1742 176.415 95.1226 176.338 95.9844 176.045C96.8462 175.752 97.5829 175.256 98.1011 174.62C98.6194 173.983 98.896 173.235 98.896 172.47C98.896 171.443 98.3991 170.459 97.5146 169.733C96.63 169.008 95.4304 168.6 94.1794 168.6Z" fill="#D1D3D4"/>
<path d="M149.877 174.47H107.001C106.355 174.47 105.735 174.259 105.277 173.884C104.82 173.509 104.563 173 104.563 172.47C104.563 171.94 104.82 171.431 105.277 171.056C105.735 170.681 106.355 170.47 107.001 170.47H149.877C150.523 170.47 151.143 170.681 151.6 171.056C152.057 171.431 152.314 171.94 152.314 172.47C152.314 173 152.057 173.509 151.6 173.884C151.143 174.259 150.523 174.47 149.877 174.47Z" fill="#D1D3D4"/>
<path d="M94.1794 194.27C93.0026 194.272 91.8515 193.987 90.8718 193.452C89.8922 192.917 89.128 192.156 88.676 191.264C88.2239 190.373 88.1044 189.391 88.3325 188.444C88.5606 187.497 89.1261 186.626 89.9574 185.943C90.7887 185.259 91.8484 184.794 93.0024 184.605C94.1565 184.415 95.3529 184.511 96.4404 184.881C97.5279 185.25 98.4575 185.875 99.1115 186.678C99.7656 187.481 100.115 188.424 100.115 189.39C100.115 190.683 99.4898 191.922 98.3771 192.837C97.2643 193.752 95.7547 194.267 94.1794 194.27ZM94.1794 185.52C93.2431 185.518 92.3272 185.744 91.5477 186.17C90.7682 186.595 90.1602 187.201 89.8008 187.911C89.4414 188.62 89.3467 189.401 89.5288 190.155C89.7108 190.908 90.1615 191.6 90.8235 192.144C91.4856 192.687 92.3293 193.057 93.2477 193.206C94.1661 193.355 95.1179 193.278 95.9825 192.983C96.847 192.688 97.5854 192.189 98.1041 191.549C98.6228 190.91 98.8984 190.158 98.896 189.39C98.896 188.364 98.3991 187.379 97.5145 186.654C96.63 185.928 95.4303 185.52 94.1794 185.52Z" fill="#D1D3D4"/>
<path d="M149.877 191.39H107.001C106.355 191.39 105.735 191.179 105.277 190.804C104.82 190.429 104.563 189.92 104.563 189.39C104.563 188.859 104.82 188.351 105.277 187.976C105.735 187.601 106.355 187.39 107.001 187.39H149.877C150.523 187.39 151.143 187.601 151.6 187.976C152.057 188.351 152.314 188.859 152.314 189.39C152.314 189.92 152.057 190.429 151.6 190.804C151.143 191.179 150.523 191.39 149.877 191.39Z" fill="#D1D3D4"/>
<path d="M94.1794 211.19C93.0056 211.19 91.858 210.904 90.882 210.369C89.9059 209.834 89.1452 209.073 88.6959 208.184C88.2467 207.294 88.1292 206.315 88.3582 205.37C88.5872 204.425 89.1525 203.557 89.9825 202.876C90.8126 202.195 91.8702 201.731 93.0215 201.544C94.1729 201.356 95.3663 201.452 96.4508 201.821C97.5353 202.189 98.4623 202.813 99.1145 203.614C99.7667 204.415 100.115 205.357 100.115 206.32C100.112 207.611 99.4852 208.848 98.3728 209.761C97.2604 210.673 95.7526 211.187 94.1794 211.19ZM94.1794 202.45C93.2466 202.45 92.3347 202.677 91.5591 203.102C90.7834 203.527 90.1789 204.132 89.8219 204.839C89.4649 205.546 89.3715 206.324 89.5535 207.075C89.7355 207.826 90.1847 208.515 90.8443 209.056C91.504 209.598 92.3444 209.966 93.2593 210.116C94.1742 210.265 95.1226 210.188 95.9844 209.895C96.8462 209.602 97.5829 209.106 98.1011 208.47C98.6194 207.834 98.896 207.085 98.896 206.32C98.896 205.294 98.3991 204.309 97.5146 203.583C96.63 202.858 95.4304 202.45 94.1794 202.45Z" fill="#D1D3D4"/>
<path d="M149.877 208.32H107.001C106.355 208.32 105.735 208.109 105.277 207.734C104.82 207.359 104.563 206.85 104.563 206.32C104.563 205.789 104.82 205.281 105.277 204.906C105.735 204.531 106.355 204.32 107.001 204.32H149.877C150.523 204.32 151.143 204.531 151.6 204.906C152.057 205.281 152.314 205.789 152.314 206.32C152.314 206.85 152.057 207.359 151.6 207.734C151.143 208.109 150.523 208.32 149.877 208.32Z" fill="#D1D3D4"/>
<path d="M391.482 93.8298H337.503C331.654 93.8298 326.912 97.7205 326.912 102.52V143.81C326.912 148.609 331.654 152.5 337.503 152.5H391.482C397.331 152.5 402.072 148.609 402.072 143.81V102.52C402.072 97.7205 397.331 93.8298 391.482 93.8298Z" fill="#FF6C22"/>
<path d="M391.482 163.79H337.503C331.654 163.79 326.912 167.68 326.912 172.48V213.77C326.912 218.569 331.654 222.46 337.503 222.46H391.482C397.331 222.46 402.072 218.569 402.072 213.77V172.48C402.072 167.68 397.331 163.79 391.482 163.79Z" fill="white"/>
<path d="M391.469 223H337.479C334.511 222.997 331.666 222.029 329.567 220.309C327.467 218.588 326.285 216.255 326.278 213.82V172.52C326.282 170.083 327.463 167.747 329.562 166.024C331.662 164.302 334.509 163.332 337.479 163.33H391.469C394.438 163.332 397.283 164.302 399.381 166.025C401.479 167.748 402.657 170.084 402.657 172.52V213.82C402.654 216.254 401.474 218.587 399.377 220.308C397.279 222.029 394.436 222.997 391.469 223ZM337.479 164.33C334.832 164.332 332.295 165.196 330.424 166.732C328.553 168.267 327.5 170.349 327.497 172.52V213.82C327.504 215.989 328.558 218.068 330.428 219.602C332.299 221.135 334.834 221.997 337.479 222H391.469C394.112 221.997 396.646 221.135 398.515 219.601C400.384 218.068 401.435 215.988 401.439 213.82V172.52C401.439 170.349 400.389 168.268 398.519 166.732C396.65 165.197 394.114 164.332 391.469 164.33H337.479Z" fill="#231F20"/>
<path d="M340.818 114.14H348.13L356.125 132.2H348.605L347.533 129.55H341L339.977 132.2H332.664L340.818 114.14ZM344.388 120.44L342.719 124.9H346.058L344.388 120.44Z" fill="white"/>
<path d="M357.624 132.2V114.14H365.29C366.86 114.134 368.426 114.275 369.958 114.56C371.371 114.818 372.704 115.316 373.87 116.02C375.033 116.739 375.965 117.68 376.588 118.76C377.904 121.459 377.904 124.47 376.588 127.17C375.989 128.268 375.098 129.242 373.98 130.02C372.878 130.765 371.606 131.322 370.238 131.66C368.809 132.021 367.322 132.203 365.826 132.2H357.624ZM364.278 119.29V127H365.558C366.902 127.074 368.232 126.743 369.3 126.07C369.768 125.677 370.127 125.205 370.352 124.687C370.577 124.169 370.663 123.617 370.604 123.07C370.639 122.565 370.541 122.059 370.316 121.588C370.091 121.117 369.744 120.691 369.3 120.34C368.337 119.653 367.089 119.295 365.814 119.34L364.278 119.29Z" fill="white"/>
<path d="M387.252 132.71C386.434 132.706 385.619 132.643 384.815 132.52C384.024 132.391 383.249 132.203 382.499 131.96C381.768 131.722 381.063 131.434 380.391 131.1C379.751 130.783 379.155 130.411 378.611 129.99L382.828 125.99C383.375 126.491 384.028 126.908 384.754 127.22C385.5 127.561 386.338 127.743 387.191 127.75C387.555 127.753 387.916 127.695 388.252 127.58C388.405 127.521 388.532 127.426 388.617 127.306C388.702 127.186 388.74 127.048 388.727 126.91C388.734 126.756 388.678 126.605 388.568 126.48C388.418 126.323 388.226 126.197 388.008 126.11C387.648 125.946 387.273 125.806 386.887 125.69C386.411 125.53 385.814 125.35 385.107 125.15C384.417 124.945 383.745 124.701 383.096 124.42C382.473 124.158 381.902 123.821 381.402 123.42C380.882 123.001 380.468 122.501 380.183 121.95C379.877 121.293 379.732 120.593 379.757 119.89C379.718 118.898 379.986 117.914 380.537 117.03C381.032 116.276 381.717 115.618 382.548 115.1C383.394 114.586 384.355 114.213 385.375 114C386.368 113.775 387.393 113.661 388.422 113.66C389.845 113.671 391.251 113.905 392.566 114.35C393.938 114.805 395.182 115.486 396.222 116.35L391.932 120.2C391.504 119.69 390.925 119.277 390.25 119C389.683 118.761 389.059 118.628 388.422 118.61C388.004 118.595 387.586 118.66 387.203 118.8C387.059 118.852 386.937 118.94 386.854 119.051C386.771 119.161 386.732 119.29 386.74 119.42C386.737 119.549 386.78 119.676 386.865 119.784C386.95 119.893 387.072 119.978 387.216 120.03C387.72 120.23 388.242 120.4 388.776 120.54C389.507 120.75 390.287 120.99 391.091 121.26C391.9 121.524 392.66 121.881 393.346 122.32C394.035 122.752 394.611 123.292 395.04 123.91C395.516 124.63 395.748 125.441 395.71 126.26C395.739 127.241 395.484 128.215 394.967 129.1C394.508 129.875 393.846 130.558 393.029 131.1C392.226 131.64 391.303 132.048 390.311 132.3C389.324 132.568 388.292 132.706 387.252 132.71Z" fill="white"/>
<path d="M340.818 184.1H348.131L356.126 202.15H348.606L347.594 199.5H341.062L340.038 202.15H332.726L340.818 184.1ZM344.389 190.4L342.719 194.86H346.059L344.389 190.4Z" fill="#231F20"/>
<path d="M357.624 202.15V184.1H365.29C366.86 184.094 368.426 184.235 369.958 184.52C371.369 184.78 372.7 185.273 373.87 185.97C375.033 186.693 375.966 187.637 376.588 188.72C377.904 191.419 377.904 194.431 376.588 197.13C375.989 198.225 375.098 199.196 373.98 199.97C372.878 200.718 371.606 201.279 370.238 201.62C368.807 201.974 367.321 202.152 365.826 202.15H357.624ZM364.278 189.25V196.93H365.558C366.902 197.004 368.232 196.673 369.3 196C369.768 195.607 370.127 195.135 370.352 194.617C370.577 194.099 370.663 193.548 370.604 193C370.642 192.495 370.544 191.988 370.319 191.517C370.094 191.045 369.746 190.62 369.3 190.27C368.337 189.583 367.089 189.225 365.814 189.27L364.278 189.25Z" fill="#231F20"/>
<path d="M387.252 202.66C386.434 202.661 385.618 202.598 384.815 202.47C384.021 202.35 383.245 202.163 382.499 201.91C381.766 201.676 381.061 201.388 380.391 201.05C379.754 200.733 379.158 200.364 378.611 199.95L382.828 195.95C383.375 196.451 384.028 196.868 384.754 197.18C385.502 197.516 386.338 197.698 387.191 197.71C387.557 197.714 387.918 197.653 388.252 197.53C388.405 197.474 388.533 197.381 388.618 197.262C388.703 197.144 388.741 197.007 388.727 196.87C388.734 196.713 388.678 196.559 388.569 196.43C388.415 196.276 388.224 196.15 388.008 196.06C387.643 195.904 387.269 195.764 386.887 195.64C386.411 195.49 385.814 195.31 385.107 195.11C384.417 194.905 383.745 194.662 383.096 194.38C382.474 194.118 381.903 193.781 381.402 193.38C380.882 192.961 380.468 192.461 380.183 191.91C379.885 191.272 379.74 190.593 379.757 189.91C379.71 188.985 379.94 188.065 380.427 187.23C380.913 186.395 381.642 185.671 382.548 185.12C383.381 184.615 384.324 184.245 385.327 184.03C386.321 183.814 387.345 183.703 388.373 183.7C389.796 183.711 391.202 183.945 392.517 184.39C393.889 184.845 395.133 185.526 396.173 186.39L391.884 190.24C391.475 189.72 390.913 189.294 390.25 189C389.686 188.754 389.061 188.617 388.422 188.6C388.004 188.59 387.588 188.655 387.204 188.79C387.062 188.847 386.943 188.935 386.859 189.044C386.776 189.154 386.732 189.281 386.732 189.41C386.732 189.539 386.776 189.666 386.859 189.775C386.943 189.885 387.062 189.973 387.204 190.03C387.708 190.23 388.23 190.4 388.764 190.54C389.495 190.74 390.275 190.98 391.079 191.25C391.884 191.522 392.641 191.878 393.334 192.31C394.02 192.748 394.595 193.291 395.028 193.91C395.503 194.627 395.734 195.435 395.698 196.25C395.729 197.235 395.474 198.212 394.955 199.1C394.489 199.872 393.829 200.554 393.017 201.1C392.211 201.637 391.289 202.044 390.299 202.3C389.311 202.545 388.284 202.667 387.252 202.66Z" fill="#231F20"/>
<path d="M144.879 156.73H95.9221C94.1392 156.732 92.4015 156.269 90.9601 155.408C89.5186 154.547 88.448 153.333 87.9027 151.94C87.6241 151.253 87.4841 150.534 87.4884 149.81V100.25C87.4884 98.4145 88.3769 96.6544 89.9586 95.3567C91.5402 94.0589 93.6854 93.3298 95.9221 93.3298H144.879C145.987 93.3298 147.084 93.5088 148.107 93.8566C149.13 94.2043 150.06 94.7141 150.843 95.3567C151.626 95.9992 152.247 96.7621 152.671 97.6017C153.095 98.4412 153.313 99.3411 153.313 100.25V149.81C153.31 151.644 152.42 153.403 150.839 154.7C149.258 155.997 147.115 156.727 144.879 156.73ZM95.9221 94.3298C94.0096 94.3325 92.1763 94.957 90.8239 96.0667C89.4715 97.1763 88.7103 98.6806 88.7071 100.25V149.81C88.7066 150.428 88.8259 151.042 89.0606 151.63C89.5261 152.822 90.4419 153.862 91.6754 154.599C92.9089 155.336 94.3962 155.732 95.9221 155.73H144.879C146.792 155.727 148.625 155.103 149.978 153.993C151.33 152.883 152.091 151.379 152.094 149.81V100.25C152.091 98.6806 151.33 97.1763 149.978 96.0667C148.625 94.957 146.792 94.3325 144.879 94.3298H95.9221Z" fill="#D1D3D4"/>
<path d="M152.704 148.1V149.81C152.704 151.513 151.879 153.146 150.412 154.35C148.945 155.554 146.954 156.23 144.879 156.23H95.9221C94.2668 156.23 92.6542 155.799 91.3161 154.999C89.978 154.2 88.9835 153.073 88.4756 151.78C90.8034 146.39 96.8728 139 112.704 137C115.62 136.636 118.566 136.459 121.516 136.47C124.009 136.465 126.5 136.585 128.975 136.83C142.612 138.17 149.364 143.33 152.704 148.1Z" fill="#FF6C22"/>
<path d="M135.08 119.47C135.08 119.47 135.69 105.67 135.08 104.67C134.471 103.67 104.612 98.84 104.928 99.47C105.245 100.1 106.281 102 106.281 102L102.32 102.88L106.281 104.54L102.333 106L107.61 108.07L107.988 119.84L135.08 119.47Z" fill="white"/>
<path d="M107.988 120.4C107.824 120.4 107.667 120.348 107.548 120.255C107.43 120.162 107.361 120.034 107.354 119.9L106.989 108.44L102.114 106.51C102.007 106.467 101.917 106.4 101.855 106.317C101.792 106.233 101.759 106.138 101.76 106.04C101.761 105.943 101.796 105.848 101.861 105.766C101.926 105.685 102.018 105.62 102.126 105.58L104.953 104.51L102.077 103.29C101.967 103.238 101.878 103.162 101.819 103.07C101.761 102.977 101.736 102.873 101.748 102.77C101.761 102.667 101.813 102.569 101.896 102.49C101.978 102.412 102.089 102.356 102.211 102.33L105.453 101.61C105.112 101.01 104.6 100.08 104.405 99.6099C104.345 99.4793 104.347 99.3352 104.41 99.2057C104.474 99.0763 104.593 98.9708 104.746 98.9099C105.697 98.5599 116.934 100.41 120.346 100.99C135.142 103.47 135.507 104.09 135.69 104.39C136.324 105.39 135.897 116.17 135.763 119.39C135.754 119.522 135.686 119.646 135.571 119.739C135.456 119.831 135.303 119.885 135.142 119.89L108.049 120.3L107.988 120.4ZM103.844 106.05L107.903 107.64C108.008 107.682 108.096 107.748 108.159 107.829C108.221 107.91 108.255 108.004 108.256 108.1L108.622 119.36L134.496 118.96C134.764 112.78 134.874 106.02 134.569 104.96C132.643 104.09 110.645 100.28 105.892 99.9599C106.306 100.73 106.867 101.74 106.879 101.76C106.915 101.828 106.933 101.901 106.933 101.975C106.933 102.049 106.915 102.122 106.879 102.19C106.838 102.258 106.78 102.319 106.709 102.367C106.637 102.415 106.554 102.45 106.465 102.47L104.027 103L106.611 104.1C106.716 104.143 106.805 104.209 106.866 104.292C106.928 104.374 106.961 104.468 106.961 104.565C106.961 104.661 106.928 104.756 106.866 104.838C106.805 104.92 106.716 104.987 106.611 105.03L103.844 106.05Z" fill="#231F20"/>
<path d="M130.522 120C131.254 116.24 138.847 115.32 138.469 119.74C138.415 121.279 137.698 122.753 136.446 123.9C135.812 124.461 134.99 124.856 134.083 125.034C133.176 125.212 132.226 125.165 131.351 124.9" fill="white"/>
<path d="M132.936 125.66C132.303 125.663 131.676 125.558 131.096 125.35C130.945 125.293 130.827 125.19 130.768 125.063C130.709 124.936 130.713 124.795 130.779 124.67C130.848 124.546 130.974 124.45 131.129 124.401C131.284 124.353 131.456 124.356 131.608 124.41C132.363 124.634 133.181 124.67 133.961 124.516C134.741 124.361 135.448 124.022 135.995 123.54C137.144 122.483 137.801 121.126 137.848 119.71C137.916 119.437 137.914 119.156 137.842 118.884C137.77 118.612 137.63 118.356 137.431 118.131C137.231 117.906 136.976 117.718 136.683 117.578C136.39 117.438 136.064 117.35 135.727 117.32C134.683 117.237 133.639 117.473 132.794 117.982C131.949 118.491 131.361 119.238 131.145 120.08C131.115 120.214 131.024 120.333 130.89 120.413C130.756 120.493 130.59 120.528 130.426 120.51C130.342 120.5 130.262 120.477 130.19 120.441C130.118 120.405 130.056 120.358 130.007 120.302C129.958 120.246 129.923 120.182 129.905 120.115C129.887 120.047 129.886 119.978 129.901 119.91C130.162 118.804 130.919 117.819 132.023 117.148C133.126 116.478 134.496 116.172 135.861 116.29C136.36 116.331 136.844 116.455 137.282 116.656C137.72 116.857 138.103 117.129 138.407 117.457C138.711 117.784 138.93 118.159 139.049 118.559C139.169 118.959 139.187 119.374 139.103 119.78C139.03 121.439 138.249 123.025 136.897 124.26C136.382 124.696 135.767 125.045 135.087 125.285C134.407 125.525 133.676 125.653 132.936 125.66Z" fill="#231F20"/>
<path d="M111.583 120C110.852 116.24 103.259 115.32 103.637 119.74C103.69 121.279 104.407 122.753 105.66 123.9C106.294 124.46 107.116 124.854 108.023 125.032C108.929 125.21 109.879 125.164 110.754 124.9" fill="white"/>
<path d="M109.17 125.66C108.43 125.652 107.699 125.524 107.019 125.283C106.34 125.043 105.724 124.695 105.209 124.26C103.853 123.026 103.072 121.44 103.003 119.78C102.918 119.372 102.938 118.954 103.06 118.552C103.182 118.151 103.404 117.774 103.712 117.447C104.019 117.119 104.407 116.847 104.849 116.648C105.291 116.449 105.779 116.327 106.281 116.29C107.646 116.172 109.016 116.478 110.12 117.148C111.223 117.819 111.98 118.804 112.241 119.91C112.257 119.977 112.256 120.046 112.238 120.113C112.221 120.18 112.187 120.243 112.14 120.299C112.092 120.355 112.031 120.402 111.96 120.439C111.89 120.475 111.811 120.499 111.729 120.51C111.563 120.53 111.394 120.497 111.257 120.417C111.121 120.336 111.028 120.216 110.998 120.08C110.784 119.239 110.199 118.492 109.356 117.983C108.512 117.474 107.47 117.238 106.427 117.32C106.089 117.349 105.762 117.436 105.468 117.575C105.173 117.714 104.917 117.902 104.716 118.127C104.515 118.353 104.374 118.61 104.301 118.882C104.229 119.155 104.226 119.437 104.295 119.71C104.351 121.124 105.006 122.479 106.147 123.54C106.694 124.022 107.402 124.361 108.182 124.516C108.962 124.67 109.78 124.634 110.535 124.41C110.61 124.382 110.691 124.367 110.773 124.365C110.856 124.364 110.938 124.375 111.015 124.399C111.092 124.423 111.162 124.46 111.222 124.506C111.282 124.553 111.33 124.608 111.363 124.67C111.397 124.732 111.415 124.798 111.418 124.866C111.42 124.933 111.406 125.001 111.377 125.064C111.347 125.127 111.303 125.185 111.246 125.234C111.19 125.283 111.122 125.322 111.046 125.35C110.455 125.563 109.815 125.669 109.17 125.66Z" fill="#231F20"/>
<path d="M112.595 138.76C113.385 139.929 114.558 140.894 115.982 141.544C117.406 142.195 119.023 142.505 120.651 142.44C122.325 142.478 123.982 142.16 125.46 141.515C126.939 140.869 128.188 139.92 129.084 138.76L128.28 124.33H113.399L112.595 138.76Z" fill="white"/>
<path d="M120.65 143C118.9 143.071 117.16 142.733 115.635 142.025C114.109 141.317 112.861 140.268 112.034 139C112.011 138.921 112.011 138.839 112.034 138.76L112.838 124.33C112.844 124.197 112.912 124.071 113.028 123.978C113.143 123.885 113.298 123.832 113.46 123.83H128.341C128.504 123.832 128.66 123.885 128.777 123.978C128.895 124.07 128.965 124.196 128.974 124.33L129.767 138.76C129.777 138.854 129.752 138.948 129.693 139.03C128.745 140.286 127.409 141.314 125.821 142.011C124.234 142.708 122.45 143.049 120.65 143ZM113.24 138.7C113.991 139.75 115.08 140.61 116.387 141.187C117.694 141.764 119.168 142.035 120.65 141.97C122.184 142.009 123.704 141.728 125.069 141.153C126.433 140.577 127.597 139.726 128.45 138.68L127.682 124.9H114.008L113.24 138.7Z" fill="#231F20"/>
<path d="M113.399 130.51C114.548 131.876 116.094 132.986 117.896 133.74C120.846 135.08 125.209 136.58 128.865 136.13L128.219 130C125.596 130.255 122.945 130.255 120.322 130C118.03 129.955 115.76 129.618 113.594 129C113.18 128.86 112.948 129.92 113.399 130.51Z" fill="#231F20"/>
<path d="M127.476 136.71C123.82 136.71 119.81 135.17 117.604 134.18C115.706 133.388 114.084 132.215 112.887 130.77C112.662 130.46 112.543 130.106 112.543 129.745C112.543 129.384 112.662 129.03 112.887 128.72C112.991 128.61 113.136 128.533 113.3 128.5C113.464 128.467 113.636 128.481 113.789 128.54C115.922 129.142 118.153 129.479 120.407 129.54C122.982 129.789 125.584 129.789 128.158 129.54C128.323 129.522 128.489 129.558 128.621 129.64C128.748 129.729 128.831 129.854 128.853 129.99L129.438 136.1C129.449 136.225 129.403 136.349 129.308 136.447C129.213 136.545 129.077 136.61 128.926 136.63C128.446 136.687 127.961 136.713 127.476 136.71ZM113.753 129.6C113.732 129.821 113.787 130.043 113.911 130.24C115.004 131.537 116.474 132.589 118.189 133.3C120.005 134.13 124.466 135.94 128.183 135.7L127.683 130.59C125.228 130.805 122.752 130.805 120.297 130.59C118.072 130.499 115.871 130.166 113.753 129.6Z" fill="#231F20"/>
<path d="M120.443 131.47H121.662C123.04 131.471 124.406 131.249 125.679 130.817C126.953 130.385 128.111 129.751 129.085 128.951C130.06 128.151 130.833 127.202 131.36 126.156C131.887 125.111 132.157 123.991 132.155 122.86V109.24H109.938V122.86C109.937 123.992 110.209 125.112 110.737 126.157C111.266 127.202 112.04 128.152 113.015 128.952C113.991 129.751 115.149 130.385 116.424 130.817C117.698 131.25 119.064 131.471 120.443 131.47Z" fill="white"/>
<path d="M132.155 109.24V122.86C132.157 123.991 131.887 125.111 131.36 126.156C130.833 127.202 130.06 128.151 129.085 128.951C128.111 129.751 126.953 130.385 125.679 130.817C124.406 131.249 123.04 131.471 121.662 131.47H120.443C119.064 131.471 117.698 131.25 116.424 130.817C115.149 130.385 113.991 129.751 113.015 128.952C112.04 128.152 111.266 127.202 110.737 126.157C110.209 125.112 109.937 123.992 109.938 122.86V109.24H132.143M132.143 108.24H109.938C109.614 108.24 109.304 108.345 109.076 108.533C108.847 108.72 108.719 108.975 108.719 109.24V122.86C108.722 125.416 109.961 127.866 112.163 129.674C114.366 131.481 117.353 132.497 120.467 132.5H121.686C124.801 132.497 127.788 131.481 129.99 129.674C132.193 127.866 133.432 125.416 133.435 122.86V109.24C133.435 108.975 133.307 108.72 133.078 108.533C132.849 108.345 132.539 108.24 132.216 108.24H132.143Z" fill="#231F20"/>
<path d="M121.224 123.24C120.706 123.242 120.189 123.215 119.676 123.16C119.519 123.146 119.369 123.102 119.237 123.03C119.106 122.959 118.997 122.863 118.92 122.75C118.104 121.64 119.81 117.69 120.578 116.04C120.637 115.907 120.759 115.8 120.916 115.741C121.072 115.682 121.251 115.676 121.413 115.725C121.574 115.774 121.705 115.874 121.777 116.002C121.849 116.131 121.856 116.277 121.796 116.41C120.578 118.99 119.81 121.54 120.005 122.15C120.92 122.229 121.844 122.229 122.759 122.15C122.845 122.13 122.936 122.125 123.024 122.136C123.113 122.147 123.197 122.173 123.272 122.214C123.347 122.254 123.41 122.307 123.458 122.369C123.505 122.432 123.536 122.502 123.547 122.574C123.559 122.647 123.551 122.721 123.525 122.791C123.498 122.862 123.453 122.926 123.394 122.981C123.334 123.035 123.26 123.079 123.178 123.108C123.096 123.137 123.007 123.152 122.918 123.15C122.356 123.213 121.79 123.243 121.224 123.24Z" fill="#231F20"/>
<path d="M106.281 156.74C106.125 156.738 105.976 156.689 105.861 156.602C105.746 156.516 105.675 156.397 105.66 156.27L104.636 147.12C104.628 147.053 104.636 146.985 104.659 146.921C104.683 146.856 104.722 146.796 104.774 146.744C104.826 146.692 104.89 146.649 104.963 146.617C105.035 146.586 105.115 146.566 105.197 146.56C105.364 146.549 105.531 146.591 105.66 146.679C105.79 146.767 105.873 146.893 105.891 147.03L106.915 156.18C106.929 156.316 106.876 156.452 106.769 156.556C106.662 156.661 106.508 156.727 106.342 156.74H106.281Z" fill="#231F20"/>
<path d="M138.067 156.74C137.901 156.727 137.748 156.661 137.64 156.556C137.533 156.452 137.481 156.316 137.494 156.18L138.518 147.03C138.534 146.894 138.614 146.768 138.742 146.68C138.869 146.592 139.034 146.549 139.201 146.56C139.283 146.565 139.364 146.583 139.438 146.614C139.512 146.645 139.578 146.688 139.631 146.741C139.684 146.793 139.725 146.853 139.749 146.918C139.773 146.984 139.782 147.052 139.773 147.12L138.75 156.27C138.734 156.406 138.654 156.532 138.526 156.62C138.398 156.708 138.233 156.751 138.067 156.74Z" fill="#231F20"/>
</svg>
