<svg width="125" height="38" viewBox="0 0 125 38" fill="none" xmlns="http://www.w3.org/2000/svg">
<path fill-rule="evenodd" clip-rule="evenodd" d="M33.5912 13.132C38.8423 7.82343 43.0194 8.21286 46.8071 14.2224C49.6766 9.26637 55.0302 7.85213 58.8999 11.1233C61.3595 13.2016 62.4007 16.2269 62.54 19.5022C62.7204 23.831 62.6425 28.1721 62.6015 32.505C62.5769 35.1162 60.9618 36.8215 58.7236 36.8133C56.4854 36.8051 54.9195 35.0424 54.8785 32.4353C54.8253 28.746 54.8785 25.0567 54.8458 21.3673C54.8212 19.0103 53.7349 17.4813 52.0378 17.2353C49.898 16.9238 48.1804 18.6126 48.1476 21.1911C48.0984 24.7697 48.1476 28.3442 48.1271 31.9229C48.1271 34.9522 46.68 36.7723 44.3066 36.801C41.9331 36.8297 40.3877 35.026 40.318 32.0172C40.2442 28.3279 40.318 24.6385 40.277 20.9492C40.2442 18.6659 38.8505 17.141 36.9976 17.1984C35.0833 17.2599 33.7182 18.8381 33.6895 21.1624C33.6568 24.7369 33.6895 28.3156 33.6895 31.8942C33.6895 34.8907 32.2179 36.7477 29.8649 36.7846C27.43 36.8215 25.8846 34.9727 25.8682 31.8655C25.8395 26.2864 25.8477 20.7033 25.8682 15.1201C25.8682 12.39 26.8971 10.7626 28.9016 10.1641C30.6438 9.6435 32.345 10.6765 33.5912 13.0869V13.132Z" fill="#CF142B"/>
<path fill-rule="evenodd" clip-rule="evenodd" d="M87.9148 12.134C89.3782 10.4082 90.9646 9.4039 93.0511 10.4533C93.742 10.7914 94.32 11.3225 94.7151 11.9824C95.1101 12.6424 95.3053 13.4027 95.277 14.1713C95.3262 20.2915 95.3385 26.4158 95.277 32.5359C95.2565 34.6184 94.08 36.131 92.4444 36.6352C90.6859 37.1517 89.165 36.4302 88.0623 34.5856C87.9558 34.4093 87.8451 34.2371 87.6524 33.9379C84.2582 36.9098 80.4459 38.0781 76.2155 37.1312C73.1092 36.4426 70.3917 34.5746 68.636 31.921C66.6909 29.1641 65.6912 25.8513 65.7865 22.4786C65.8818 19.1059 67.0671 15.8548 69.1648 13.2121C71.5875 10.1951 74.6578 8.56765 78.3184 8.3258C81.9791 8.08394 85.1314 9.49408 87.9148 12.134ZM79.0194 16.8194C75.8999 16.8194 73.4731 19.4143 73.4444 22.8043C73.4157 26.1944 75.9368 29.0147 79.0317 28.9983C82.057 28.9778 84.5575 26.2108 84.5657 22.8781C84.5739 19.5454 82.0611 16.8194 79.0194 16.8194Z" fill="#CF142B"/>
<path fill-rule="evenodd" clip-rule="evenodd" d="M105.316 23.5446C103.651 21.7041 101.917 19.8799 100.274 17.9574C98.0108 15.3011 99.0438 11.3576 102.167 10.5787C103.705 10.1975 104.939 10.9067 106.008 12.0749C107.648 13.8622 109.288 15.6454 111.03 17.5597C112.719 15.6741 114.359 13.8253 116.019 12.0012C117.044 10.8739 118.253 10.218 119.741 10.5582C122.783 11.2633 123.963 14.9895 121.963 17.6417C121.143 18.7157 120.2 19.6913 119.29 20.667C118.38 21.6426 117.519 22.5321 116.474 23.6307C118.212 25.5328 119.86 27.2872 121.458 29.095C123.098 30.9643 123.356 33.0795 122.209 34.9856C120.913 37.1377 118.519 37.6378 116.728 35.9694C115.306 34.6454 114.018 33.1451 112.711 31.6775C112.144 30.9604 111.615 30.2148 111.124 29.4435C109.206 31.5792 107.615 33.4197 105.976 35.2234C104.168 37.2402 101.77 37.3468 100.11 35.5103C98.5847 33.8214 98.679 31.2143 100.38 29.2631C101.942 27.4676 103.553 25.7172 105.139 23.9341C105.213 23.8113 105.272 23.6806 105.316 23.5446Z" fill="#CF142B"/>
<path fill-rule="evenodd" clip-rule="evenodd" d="M20.9939 18.5453C20.9939 23.1447 20.9939 27.744 20.9939 32.3475C20.9939 34.2577 20.1987 35.7129 18.6082 36.4467C17.157 37.1313 15.5747 37.0616 14.5458 35.6842C13.7508 34.639 13.2804 33.3832 13.1931 32.0728C13.0783 22.9807 13.107 13.8886 13.1439 4.79643C13.1439 1.88597 14.8246 -0.0283765 17.1324 0.000318203C19.4403 0.0290129 20.9857 1.99665 20.998 4.89482C21.0062 9.44088 20.9939 13.9992 20.9939 18.5453Z" fill="#CF142B"/>
<path fill-rule="evenodd" clip-rule="evenodd" d="M1.03469 23.4742C1.03469 20.6048 1.03469 17.7353 1.03469 14.8658C1.03469 11.9964 2.5965 10.1271 4.88388 10.1107C7.17126 10.0943 8.82326 11.9021 8.82326 14.7715C8.86698 20.5679 8.86698 26.3656 8.82326 32.1646C8.82326 35.0628 7.23275 36.8255 4.90438 36.8009C2.57601 36.7763 1.07978 34.9685 1.03469 32.0868C0.989597 29.205 1.03469 26.3437 1.03469 23.4742Z" fill="#CF142B"/>
<path fill-rule="evenodd" clip-rule="evenodd" d="M8.60637 4.11282C8.64736 6.36331 6.96667 8.26536 4.91705 8.28585C2.95761 8.30635 1.22773 6.47809 1.16624 4.31368C1.08015 2.09599 2.76904 0.116058 4.78997 0.0586685C6.8109 0.0012791 8.56128 1.85824 8.60637 4.11282Z" fill="#CF142B"/>
</svg>
