<svg width="158" height="44" viewBox="0 0 158 44" fill="none" xmlns="http://www.w3.org/2000/svg">
<g clip-path="url(#clip0_686_4098)">
<path fill-rule="evenodd" clip-rule="evenodd" d="M85.9059 0C84.4943 8.25664 80.4419 12.6278 77.9679 20.0952C76.3439 24.9824 77.0269 29.4295 77.3912 35.6675C81.6064 30.8579 84.4757 25.0198 85.7085 18.7444L86.6799 12.3091C86.3764 24.3146 85.6175 27.942 79.6071 36.3049C76.8985 39.2173 73.311 41.163 69.3926 41.8448L69.6961 42.892C71.897 42.508 74.0361 41.829 76.0556 40.8734C77.8635 39.9773 79.5813 38.91 81.1856 37.6861C82.0204 37.1701 82.8855 36.4112 83.614 35.8648L84.0238 35.6068C88.9869 31.8731 91.6127 27.4715 92.1742 21.9469C92.8572 13.8875 89.0325 7.11832 85.9059 0Z" fill="url(#paint0_linear_686_4098)"/>
<path d="M72.0483 22.9807C70.2172 21.3993 67.8473 20.584 65.4309 20.704C62.4975 20.725 59.6356 21.6121 57.2046 23.2539C54.6092 24.9386 51.4219 28.5357 47.4302 34.2273L47.0204 34.8192C44.85 37.5209 42.4671 38.8869 40.1449 38.8869C39.1879 38.9028 38.2412 38.6876 37.3851 38.2596C36.529 37.8315 35.7888 37.2032 35.2274 36.4281C33.8936 34.736 33.1906 32.6324 33.2391 30.4784C33.1872 28.7735 33.7654 27.1093 34.8631 25.8037C35.2731 25.2611 35.7995 24.8171 36.4036 24.5046C37.0077 24.192 37.6741 24.0188 38.354 23.9976C40.5851 23.9976 42.2394 25.5153 43.4385 28.4143L43.742 29.1732L44.4705 28.8089C45.2955 28.4215 46.0227 27.8533 46.5981 27.1465C47.1735 26.4398 47.5824 25.6125 47.7944 24.7261L47.8703 24.4074L47.6882 24.1342C46.8743 22.9383 45.7599 21.9777 44.4571 21.3489C43.1543 20.7202 41.709 20.4454 40.2663 20.5522C38.0981 20.6034 35.9904 21.2778 34.1953 22.495C32.1918 23.7699 29.0045 27.6402 24.4816 34.3184L24.2691 34.6219C23.2567 35.8245 22.0513 36.8504 20.7023 37.6575C19.4169 38.5057 17.9296 38.9979 16.3919 39.0842C15.4731 39.1899 14.5428 39.0438 13.7006 38.6615C12.8585 38.2792 12.1361 37.6751 11.6109 36.9138C18.365 33.0738 21.6434 29.2187 21.6434 25.1207C21.6611 24.4905 21.5412 23.8639 21.2922 23.2846C21.0432 22.7054 20.671 22.1873 20.2015 21.7665C19.228 20.9067 17.9632 20.4507 16.6651 20.4915C14.1016 20.5614 11.6451 21.5343 9.72891 23.2387C6.27418 26.5329 3.21776 30.221 0.622322 34.2273L0.166992 34.9103L2.91415 36.8227L3.33912 36.1852C3.58196 35.821 3.88552 35.396 4.24978 34.9103C4.14918 37.3409 5.01083 39.7131 6.64785 41.5126C7.49796 42.3405 8.50932 42.9847 9.61902 43.4051C10.7287 43.8255 11.9131 44.013 13.0983 43.9562C16.1229 44.087 19.124 43.3722 21.7648 41.892C24.108 40.2781 26.0626 38.1628 27.4868 35.6995L27.8358 35.229C28.0245 37.3703 28.9095 39.3908 30.3553 40.9814C31.2268 41.9003 32.2838 42.6232 33.4561 43.1021C34.6285 43.581 35.8894 43.8048 37.1549 43.7589C42.7099 43.7589 47.2936 40.951 50.8148 35.4112L50.9969 35.138C50.9969 35.2897 50.9969 35.4415 50.9969 35.5933C50.9639 36.715 51.1595 37.8317 51.5718 38.8754C51.9841 39.9191 52.6044 40.868 53.395 41.6644C54.2338 42.4584 55.2235 43.0759 56.3056 43.48C57.3876 43.8841 58.5398 44.0667 59.6937 44.0169C61.645 44.0176 63.5752 43.6133 65.3622 42.8295C67.1492 42.0457 68.7541 40.8996 70.0752 39.4636C71.459 38.1513 72.5665 36.5758 73.3328 34.8295C74.0991 33.0832 74.5087 31.2014 74.5375 29.2946C74.5946 28.1258 74.4022 26.9582 73.973 25.8695C73.5438 24.7808 72.8877 23.7961 72.0483 22.9807ZM62.6078 39.4636C58.6161 39.4636 56.7644 37.3084 56.7644 32.6792C56.6256 30.4816 57.2532 28.3038 58.5402 26.5171C59.0945 25.8256 59.8037 25.2743 60.6106 24.9078C61.4174 24.5413 62.2992 24.3699 63.1846 24.4074C64.0061 24.3679 64.8266 24.5045 65.591 24.8082C66.3554 25.1118 67.046 25.5755 67.6165 26.168C68.8078 27.561 69.4118 29.3621 69.3012 31.1918C69.4108 33.3695 68.7558 35.517 67.4495 37.2628C66.8717 37.9838 66.1323 38.5586 65.2913 38.9409C64.4502 39.3232 63.5309 39.5023 62.6078 39.4636ZM14.4795 24.4681C14.7468 24.4507 15.0145 24.495 15.2619 24.5976C15.5093 24.7003 15.7298 24.8585 15.9062 25.06C16.299 25.5367 16.4994 26.143 16.4678 26.7599C16.4678 29.2339 14.3733 31.5864 10.2601 33.7568L10.1235 33.3925C9.89163 32.5786 9.78417 31.7343 9.8048 30.8882C9.77843 29.2565 10.2787 27.6598 11.2315 26.3349C11.5748 25.7781 12.0516 25.3157 12.6188 24.9897C13.186 24.6637 13.8255 24.4844 14.4795 24.4681Z" fill="#222220"/>
<path d="M115.988 31.6286C116.021 33.3406 115.832 35.0497 115.426 36.7132C115.061 38.0872 114.404 39.3661 113.498 40.462C112.654 41.4808 111.591 42.2954 110.387 42.8449C109.168 43.403 107.842 43.6879 106.501 43.6797C105.74 43.7026 104.982 43.5736 104.27 43.3003C103.537 42.9542 102.857 42.5044 102.252 41.9646C102.082 42.4244 101.842 42.8546 101.538 43.2395C101.458 43.3247 101.362 43.3929 101.255 43.4398C101.148 43.4868 101.033 43.5116 100.916 43.5127H100.658H100.309L96.1048 42.8297C95.6495 42.7387 95.5129 42.4503 95.7254 41.9646C95.9378 41.4789 95.9834 41.2968 96.0896 40.9932C96.197 40.6704 96.2832 40.3408 96.3476 40.0067C96.4246 39.6154 96.4803 39.2202 96.5146 38.8228C96.5405 38.3173 96.5405 37.8107 96.5146 37.3051V17.2099H94.6933C94.5291 17.2266 94.3639 17.1893 94.2228 17.1036C94.169 17.0418 94.1289 16.9692 94.1054 16.8907C94.0818 16.8122 94.0753 16.7295 94.0862 16.6483V12.7325C94.0862 12.3682 94.2835 12.1709 94.6933 12.1709H102.586C102.98 12.1709 103.193 12.353 103.193 12.7325V22.5676C104.582 21.6079 106.224 21.0799 107.913 21.0498C109.075 20.9699 110.238 21.1807 111.298 21.6629C112.358 22.1452 113.281 22.8838 113.984 23.8122C115.463 26.1398 116.164 28.8767 115.988 31.6286ZM109.598 31.9322C109.71 30.2767 109.413 28.619 108.733 27.1057C108.529 26.6589 108.202 26.2792 107.791 26.0105C107.38 25.7419 106.901 25.5953 106.41 25.5879C105.896 25.5725 105.383 25.6444 104.893 25.8004C104.271 26.0338 103.684 26.3503 103.147 26.7414V38.2006C103.514 38.4408 103.92 38.6154 104.346 38.7166C104.753 38.8226 105.171 38.8786 105.591 38.8836C106.186 38.8787 106.768 38.7105 107.274 38.3973C107.78 38.0842 108.19 37.6381 108.459 37.1078C109.285 35.4906 109.673 33.6851 109.583 31.8715L109.598 31.9322Z" fill="#222220"/>
<path d="M138.48 42.8605C138.34 42.9472 138.174 42.9846 138.01 42.9668H132.121C131.955 42.9893 131.786 42.9893 131.62 42.9668C131.514 42.9668 131.408 42.815 131.301 42.5873C131.236 42.4186 131.18 42.2463 131.134 42.0713C131.134 41.874 131.013 41.6463 130.922 41.3883C130.195 42.1033 129.347 42.684 128.418 43.1034C127.525 43.46 126.571 43.6355 125.61 43.6194C124.689 43.6719 123.768 43.5421 122.898 43.2373C122.028 42.9326 121.227 42.4589 120.54 41.8436C119.91 41.205 119.419 40.4419 119.1 39.603C118.782 38.764 118.641 37.8678 118.689 36.9716C118.633 35.662 118.96 34.3645 119.63 33.2379C120.297 32.2283 121.233 31.4243 122.331 30.9157C123.35 30.4234 124.434 30.076 125.549 29.8836C126.884 29.6673 128.234 29.5657 129.586 29.5801H129.966V28.29C130.023 27.6636 129.839 27.0389 129.45 26.5445C128.796 26.1008 128.002 25.9118 127.218 26.0133C126.458 26.0311 125.702 26.1484 124.972 26.3624C124.029 26.6225 123.102 26.9367 122.195 27.3034C122.024 27.3355 121.849 27.3355 121.679 27.3034C121.527 27.3034 121.421 27.1668 121.33 26.9392L120.176 23.509C120.1 23.3162 120.069 23.1086 120.085 22.9019C120.085 22.7957 120.282 22.6591 120.601 22.5225C121.695 21.9838 122.86 21.6055 124.062 21.3993C125.402 21.1452 126.764 21.0182 128.129 21.0199C129.272 21.0048 130.411 21.1478 131.514 21.4449C132.44 21.6918 133.304 22.1314 134.048 22.735C134.834 23.3474 135.416 24.1834 135.718 25.133C135.989 26.1215 136.117 27.1438 136.097 28.1686V35.6815C136.07 36.1161 136.07 36.5521 136.097 36.9868C136.097 37.3207 136.204 37.6849 136.295 38.0796H137.934C138.329 38.0796 138.541 38.2617 138.541 38.6411V42.4659C138.57 42.6004 138.548 42.7409 138.48 42.8605ZM129.981 33.5718H129.556C128.233 33.461 126.907 33.7295 125.731 34.3459C125.364 34.5963 125.067 34.9376 124.87 35.3365C124.673 35.7354 124.583 36.1784 124.608 36.6225C124.593 36.9751 124.648 37.3271 124.771 37.6581C124.893 37.989 125.08 38.2923 125.321 38.5501C125.538 38.7829 125.802 38.968 126.094 39.0934C126.387 39.2189 126.703 39.2819 127.021 39.2786C127.606 39.2571 128.18 39.1105 128.703 38.8487C129.227 38.5869 129.689 38.216 130.057 37.7608L129.981 33.5718Z" fill="#222220"/>
<path d="M157.194 22.1897C157.259 22.2476 157.304 22.323 157.326 22.4067C157.348 22.4904 157.344 22.5785 157.316 22.6602L157.149 23.1307L155.631 26.9555C155.495 27.3349 155.267 27.4412 154.978 27.3046L154.098 26.8948C153.736 26.7537 153.349 26.6866 152.96 26.6975C152.511 26.6945 152.07 26.8153 151.685 27.0466C151.126 27.4279 150.616 27.8765 150.167 28.3822V37.9441H152.14C152.545 37.9441 152.747 38.1313 152.747 38.5057V42.4215C152.758 42.4993 152.753 42.5784 152.732 42.6541C152.711 42.7298 152.675 42.8004 152.626 42.8617C152.485 42.9473 152.32 42.9846 152.155 42.9679H141.789C141.629 42.9899 141.467 42.9521 141.334 42.8617C141.248 42.7318 141.211 42.5761 141.228 42.4215V38.5057C141.2 38.4274 141.195 38.3428 141.213 38.2618C141.232 38.1808 141.273 38.1067 141.331 38.0479C141.39 37.9892 141.464 37.9483 141.545 37.9299C141.626 37.9115 141.711 37.9165 141.789 37.9441H143.55V29.1866C143.55 28.8729 143.55 28.4986 143.55 28.0635C143.521 27.6304 143.465 27.1995 143.383 26.7734H141.486C141.404 26.7833 141.322 26.7763 141.244 26.7528C141.165 26.7293 141.093 26.6898 141.03 26.6368C140.947 26.4949 140.909 26.3303 140.924 26.1663V22.3111C140.909 22.1471 140.947 21.9825 141.03 21.8406C141.093 21.7876 141.165 21.7481 141.244 21.7246C141.322 21.7011 141.404 21.6941 141.486 21.704H147.557C147.725 21.695 147.893 21.7293 148.045 21.8037C148.196 21.8781 148.326 21.9901 148.422 22.129C148.753 22.7236 149.013 23.3553 149.196 24.011L149.575 23.5405C150.169 22.7519 150.912 22.0868 151.761 21.5826C152.529 21.1854 153.385 20.9871 154.25 21.0059C154.836 20.9987 155.417 21.1017 155.965 21.3094C156.443 21.4945 156.865 21.7973 157.194 22.1897Z" fill="#222220"/>
</g>
<defs>
<linearGradient id="paint0_linear_686_4098" x1="93.8438" y1="21.446" x2="69.4229" y2="21.446" gradientUnits="userSpaceOnUse">
<stop stop-color="#9BBD44"/>
<stop offset="1" stop-color="#487F3D"/>
</linearGradient>
<clipPath id="clip0_686_4098">
<rect width="157.028" height="44" fill="white" transform="translate(0.486328)"/>
</clipPath>
</defs>
</svg>
