<svg width="193" height="64" viewBox="0 0 193 64" fill="none" xmlns="http://www.w3.org/2000/svg">
<path fill-rule="evenodd" clip-rule="evenodd" d="M132.04 36.8357C133.196 36.8357 133.598 37.135 134.369 37.7377C134.372 37.4141 134.341 37.091 134.274 36.7742C134.069 36.3314 133.258 36.0526 132.684 35.9132V35.2368H137.337V38.4347C141.667 35.0441 145.73 37.2006 145.844 42.9815C145.922 46.8109 143.663 50.2794 139.768 50.2794C138.563 50.2794 138.169 49.9555 137.337 49.3036V50.1154C137.435 52.9813 136.529 57.3723 131.089 58.7499C132.827 57.3805 134.512 52.5426 134.397 50.1154V48.7378C130.092 52.0506 126.074 49.8858 125.96 44.1377C125.886 40.3084 128.141 36.8398 132.04 36.8398V36.8357ZM134.393 39.3203C134.34 39.0218 134.205 38.7437 134.004 38.5167C133.18 37.7254 132.733 37.5122 131.982 37.7705C130.457 38.3035 129.08 40.8045 129.395 44.3878C129.719 48.0655 133.381 50.6607 134.397 47.2988V39.9435L134.393 39.3203ZM137.337 40.087V47.3972C137.419 47.9794 137.575 48.3812 137.8 48.5985C138.628 49.3938 139.071 49.607 139.822 49.3446C141.347 48.8157 142.728 46.3107 142.413 42.7314C142.081 38.9595 138.239 36.3232 137.337 40.087ZM172.814 42.7642V46.6182C172.814 47.3808 172.797 48.25 172.937 48.578C173.142 49.0207 173.954 49.2995 174.527 49.4389V50.1154H168.16V49.443C168.734 49.2995 169.546 49.0207 169.751 48.582C169.89 48.25 169.874 47.3808 169.874 46.6223V40.5052C169.874 39.7426 169.89 38.8775 169.751 38.5454C169.667 38.3915 169.544 38.2627 169.394 38.1723H169.382L168.328 38.5331C161.67 41.0054 162.826 47.2824 165.192 46.9093C165.577 46.8478 165.561 46.5936 165.926 46.2984C166.319 48.6148 165.696 50.6853 164.028 50.5131C160.83 50.1769 160.194 46.897 161.666 44.191C162.876 41.9912 164.379 39.9664 166.135 38.1723H164.343V37.0079H174.527V37.6844C173.954 37.8238 173.146 38.1026 172.937 38.5454C172.797 38.8734 172.814 39.7426 172.814 40.5052V42.7601V42.7642ZM54.3051 40.4929V44.8593C50.7463 48.0778 45.9494 48.3607 45.9494 44.4001C45.9494 41.7557 49.6107 37.0489 52.3248 35.8518C52.7143 35.6837 53.7188 35.1138 54.3051 34.9293V40.4929ZM54.3051 45.9704C54.3051 46.856 54.3051 47.7621 54.1411 48.1393C53.8705 48.7214 52.8086 49.0863 52.0501 49.2708V50.1605H60.4222V49.2708C59.6678 49.0863 58.6018 48.7214 58.3312 48.1393C58.1467 47.7047 58.1672 46.5649 58.1672 45.5645V37.5245C58.1672 36.5241 58.1467 35.3844 58.3312 34.9498C58.6018 34.3676 59.6678 34.0027 60.4222 33.8141V32.9285H46.2364L47.4541 34.4578H53.7721C53.2346 34.7226 52.7042 35.0015 52.1813 35.2942C48.2495 37.5286 40.7917 41.8951 41.4231 46.733C41.9684 50.8862 49.5246 52.2761 54.3051 45.9704ZM22.3502 47.7252C19.5827 49.566 16.9629 50.4803 14.4783 50.4803C7.50433 50.4803 2.16211 45.6793 2.16211 38.5823C2.16211 31.9281 9.75929 27.4715 15.8067 28.8573C16.9588 29.1238 17.705 29.255 18.033 29.255C18.525 29.255 19.2629 28.9434 20.2182 28.3284H21.4605V35.8313C21.1265 36.0286 20.7406 36.1201 20.3535 36.0936C20.0378 34.4004 19.1235 33.0351 17.6148 31.9937C12.1742 27.9471 7.43463 32.5431 7.43463 39.3736C7.43463 44.7486 10.8786 48.7255 16.3602 48.7255C18.5414 48.7255 20.4601 47.6965 22.3502 46.7289V47.7252Z" fill="#E41D2D"/>
<path fill-rule="evenodd" clip-rule="evenodd" d="M35.7121 48.6276H39.8612V50.1609H33.207L34.4288 48.6317H34.4862C36.2409 46.0241 37.2987 41.7848 35.052 40.317C33.9778 39.6159 32.3542 39.4806 31.0668 39.7758C30.2905 40.0144 29.5611 40.3847 28.9103 40.8705V45.5649C28.9103 46.5653 28.8857 47.7051 29.0702 48.1397C29.3408 48.7219 30.4067 49.0868 31.1611 49.2712V50.1609H22.7891V49.2712C23.5435 49.0868 24.6094 48.7219 24.88 48.1397C25.0645 47.7051 25.044 46.5653 25.044 45.5649V37.5249C25.044 36.5245 25.0645 35.3848 24.88 34.9502C24.6094 34.368 23.5435 34.0031 22.7891 33.8145V32.9289H28.9103V39.9439C29.2793 39.7143 30.0377 39.2674 30.5748 38.9763C33.2808 37.2215 32.7724 36.8074 35.1053 32.9289H40.4926V33.8145C37.0896 34.655 36.3967 37.324 34.3427 37.8324C35.3554 37.8652 36.1139 37.8078 37.1019 38.0743C44.1046 39.9398 39.2175 46.2332 35.7121 48.6276ZM73.9973 40.4933V45.0852C72.0539 46.6719 69.7743 47.4386 68.1466 47.291C63.5711 46.8687 64.8462 37.7914 68.0811 35.0035C68.6263 34.5361 69.2987 34.1015 69.8932 33.6833V32.9248H62.1443L63.3661 34.4541H67.831L67.8064 34.4746C64.1656 37.2666 59.9468 42.5064 61.6155 47.3238C62.7347 50.5381 66.7978 50.9481 69.6636 49.6771C71.3241 48.9392 72.8042 47.6764 73.9973 46.2332C73.9973 47.0286 73.9768 47.7994 73.8333 48.1356C73.5627 48.7178 72.4967 49.0826 71.7423 49.2671V50.1568H80.1103V49.2671C79.36 49.0826 78.294 48.7178 78.0193 48.1356C77.8389 47.701 77.8635 46.5612 77.8635 45.5608V37.5249C77.8635 36.5245 77.8389 35.3848 78.0234 34.9502C78.294 34.368 79.36 34.0031 80.1144 33.8145V32.9289H73.9932L73.9973 40.4933ZM86.2274 42.7646V46.6186C86.2274 47.3812 86.211 48.2504 86.3504 48.5784C86.5554 49.0212 87.3671 49.2999 87.9411 49.4393V50.1158H81.5739V49.4434C82.1479 49.2999 82.9556 49.0212 83.1647 48.5825C83.3041 48.2504 83.2877 47.3812 83.2877 46.6227V40.5056C83.2877 39.743 83.3041 38.8779 83.1647 38.5458C82.9597 38.103 82.1438 37.8242 81.5739 37.6848V37.0083H86.2274V39.2961C87.9247 37.6151 90.7127 36.6229 92.5618 36.9755C95.7761 37.5905 95.8212 40.4318 94.6937 43.4739C93.9803 45.4091 92.7053 47.3074 91.176 48.9556H94.7962L94.952 50.1158H89.8927L90.4257 49.304C91.7623 46.4546 93.1112 40.9812 91.1145 39.6077C89.8845 38.759 87.2687 39.251 86.2274 40.3457V42.7605V42.7646Z" fill="#E41D2D"/>
<path fill-rule="evenodd" clip-rule="evenodd" d="M100.117 50.118C100.215 52.9839 99.3093 57.3749 93.8687 58.7525C95.6071 57.379 97.2921 52.5452 97.1773 50.118V40.5119C97.1773 39.7493 97.1937 38.8842 97.0543 38.5521C96.8494 38.1093 96.0376 37.8305 95.4636 37.6911V37.0146H100.121V38.3881C101.187 37.5886 103.077 36.8301 104.623 36.8301C108.448 36.8301 110.494 39.8805 110.555 42.9882C110.633 46.8176 107.042 50.2861 103.147 50.2861C101.97 50.2861 100.962 49.9786 100.117 49.3595V50.118ZM100.117 39.8559V47.7646C100.169 48.0751 100.307 48.3649 100.515 48.601C101.732 49.7695 104.918 49.298 106.136 47.7687C107.345 46.2395 107.374 44.5298 106.988 42.734C106.886 42.2505 106.741 41.7772 106.554 41.3196C105.5 38.8145 101.117 36.7727 100.117 39.8559ZM125.594 43.2916C125.594 47.531 122.56 50.2492 118.345 50.3763C114.282 50.4952 110.847 48.2853 110.847 44.0214C110.847 39.9666 114.114 36.826 118.407 36.826C121.9 36.826 125.594 39.7739 125.594 43.2916ZM122.273 43.8C122.273 41.381 120.789 37.9904 117.886 37.9904C115.246 37.9904 114.266 41.9632 114.266 44.0009C114.266 46.5511 116.16 49.7367 119.087 49.4415C121.523 49.1955 122.273 45.768 122.273 43.8ZM156.13 42.7668V46.2928C154.695 47.5023 153.039 48.0967 151.813 47.9327C149.837 47.6786 149.669 44.3945 149.833 42.9554C149.988 41.3225 150.777 39.8154 152.03 38.7571C152.444 38.4004 152.957 37.9043 153.408 37.5845V37.0105H147.115L148.041 38.1749H151.838L151.821 38.1913C150.267 39.3803 148.521 41.0613 147.459 42.9554C145.7 46.0796 146.024 50.4665 150.763 50.2C152.51 50.1016 154.507 49.216 156.13 47.2317C156.13 47.8056 156.11 48.3386 156.007 48.5846C155.802 49.0233 154.991 49.3021 154.417 49.4456V50.118H160.784V49.4456C160.21 49.3021 159.398 49.0233 159.193 48.5846C159.054 48.2525 159.07 47.3834 159.07 46.6249V40.5078C159.07 39.7452 159.054 38.8801 159.193 38.548C159.398 38.1052 160.21 37.8264 160.784 37.687V37.0105H156.13V42.7627V42.7668ZM179.525 37.0105C179.484 34.1201 178.204 32.7835 174.707 32.1644C176.445 33.5379 176.527 34.4522 176.585 37.0105V46.6249C176.585 47.3834 176.601 48.2525 176.462 48.5805C176.257 49.0233 175.445 49.3021 174.871 49.4415V50.118H179.533V48.7445C180.599 49.544 182.489 50.3025 184.034 50.3025C187.86 50.3025 189.906 47.2522 189.967 44.1444C190.045 40.3151 186.453 36.8465 182.559 36.8465C181.382 36.8465 180.373 37.154 179.529 37.7772L179.525 37.0105ZM179.525 47.2768V39.3639C179.576 39.052 179.714 38.7608 179.922 38.5234C181.14 37.3549 184.326 37.8264 185.543 39.3598C186.753 40.8891 186.781 42.5946 186.396 44.3945C186.293 44.8766 186.148 45.3486 185.961 45.8049C184.908 48.3099 180.525 50.3517 179.525 47.2727V47.2768ZM67.1617 28.9131C67.1207 28.4335 67.3667 28.4212 67.6455 28.4745C68.3548 29.5281 69.0477 30.057 69.7324 30.0775C70.29 30.1103 70.8599 29.811 71.4789 29.2083C73.3731 27.3716 72.9262 27.47 74.4801 28.7778C75.1361 29.3313 76.0504 29.4215 76.0504 29.6388C76.0504 29.9135 75.3944 30.5654 74.558 31.0164C71.1551 32.8327 68.5147 31.2911 67.1617 28.9131Z" fill="#E41D2D"/>
<path d="M152.253 7.50203L122.922 29.3834C127.26 27.0177 129.33 26.5257 133.377 27.6532L136.755 28.5962C139.666 29.408 143.356 28.7684 146.636 26.3248L173.253 6.48114C170.727 7.81362 168.853 8.21952 165.467 7.23553L160.752 5.92355C157.603 5.01337 155.004 5.51356 152.253 7.50203Z" fill="#445059"/>
<path fill-rule="evenodd" clip-rule="evenodd" d="M130.834 7.50203L101.503 29.3834C105.837 27.0177 107.907 26.5257 111.954 27.6532L115.332 28.5962C118.247 29.408 121.933 28.7684 125.213 26.3248L151.834 6.48114C149.308 7.80952 147.435 8.21542 144.044 7.23553L139.329 5.92355C136.184 5.01337 133.585 5.51356 130.834 7.50203Z" fill="#E41D2D"/>
<path fill-rule="evenodd" clip-rule="evenodd" d="M109.441 7.50203L80.1143 29.3834C84.4479 27.0177 86.5184 26.5257 90.565 27.6532L93.9433 28.5962C96.8584 29.408 100.544 28.7684 103.824 26.3248L130.441 6.48114C127.915 7.80952 126.042 8.21952 122.659 7.23553L117.936 5.92355C114.792 5.01337 112.196 5.51356 109.441 7.50203Z" fill="#0C54A0"/>
</svg>
