<svg width="30" height="31" viewBox="0 0 30 31" fill="none" xmlns="http://www.w3.org/2000/svg">
<path fill-rule="evenodd" clip-rule="evenodd" d="M25.7437 6.51737C26.9276 6.8343 27.8581 7.7647 28.175 8.94864C28.7477 11.0924 28.75 15.5678 28.75 15.5678C28.75 15.5678 28.75 20.0433 28.175 22.1871C27.8581 23.371 26.9276 24.3014 25.7437 24.6183C23.6 25.1933 15 25.1933 15 25.1933C15 25.1933 6.40002 25.1933 4.25625 24.6183C3.07232 24.3014 2.14192 23.371 1.82499 22.1871C1.25 20.0433 1.25 15.5678 1.25 15.5678C1.25 15.5678 1.25 11.0924 1.82499 8.94864C2.14192 7.7647 3.07232 6.8343 4.25625 6.51737C6.40002 5.94238 15 5.94238 15 5.94238C15 5.94238 23.6 5.94238 25.7437 6.51737ZM19.3917 15.5682L12.2474 19.6927V11.4436L19.3917 15.5682Z" fill="#EDF5FF"/>
</svg>
