<svg width="30" height="31" viewBox="0 0 30 31" fill="none" xmlns="http://www.w3.org/2000/svg">
<path fill-rule="evenodd" clip-rule="evenodd" d="M27.5 15.9424C27.5 22.8459 21.9036 28.4424 15 28.4424C8.09644 28.4424 2.5 22.8459 2.5 15.9424C2.5 9.03882 8.09644 3.44238 15 3.44238C21.9036 3.44238 27.5 9.03882 27.5 15.9424ZM15.4479 12.6704C14.2321 13.1761 11.8022 14.2228 8.15821 15.8104C7.56648 16.0457 7.25651 16.2759 7.22829 16.501C7.1806 16.8815 7.65698 17.0312 8.30569 17.2352C8.39393 17.263 8.48536 17.2917 8.57909 17.3222C9.21732 17.5297 10.0758 17.7724 10.5222 17.782C10.927 17.7908 11.3789 17.6238 11.8777 17.2813C15.2824 14.983 17.04 13.8214 17.1503 13.7963C17.2282 13.7786 17.336 13.7564 17.4091 13.8214C17.4822 13.8864 17.475 14.0094 17.4673 14.0424C17.4201 14.2436 15.5501 15.9821 14.5824 16.8818C14.2807 17.1622 14.0667 17.3612 14.023 17.4066C13.925 17.5084 13.8251 17.6047 13.7291 17.6972C13.1362 18.2688 12.6916 18.6974 13.7537 19.3974C14.2642 19.7338 14.6726 20.0119 15.0801 20.2894C15.5252 20.5925 15.969 20.8948 16.5433 21.2712C16.6896 21.3671 16.8294 21.4667 16.9655 21.5638C17.4834 21.933 17.9487 22.2647 18.5235 22.2118C18.8575 22.1811 19.2026 21.867 19.3778 20.9303C19.7919 18.7165 20.6058 13.9199 20.794 11.9434C20.8104 11.7702 20.7897 11.5486 20.7731 11.4513C20.7564 11.354 20.7216 11.2154 20.5952 11.1128C20.4454 10.9913 20.2142 10.9656 20.1108 10.9674C19.6406 10.9758 18.9193 11.2266 15.4479 12.6704Z" fill="#EDF5FF"/>
</svg>
