<svg width="30" height="31" viewBox="0 0 30 31" fill="none" xmlns="http://www.w3.org/2000/svg">
<path d="M27.5 5.28062V26.6041C27.5 27.0917 27.3063 27.5592 26.9616 27.904C26.6169 28.2487 26.1493 28.4424 25.6618 28.4424H4.33824C3.8507 28.4424 3.38314 28.2487 3.03841 27.904C2.69367 27.5592 2.5 27.0917 2.5 26.6041V5.28062C2.5 4.79309 2.69367 4.32553 3.03841 3.98079C3.38314 3.63605 3.8507 3.44238 4.33824 3.44238L25.6618 3.44238C26.1493 3.44238 26.6169 3.63605 26.9616 3.98079C27.3063 4.32553 27.5 4.79309 27.5 5.28062V5.28062ZM9.85294 13.0012H6.17647V24.7659H9.85294V13.0012ZM10.1838 8.95709C10.1858 8.67899 10.1329 8.40324 10.0283 8.14557C9.92363 7.88791 9.76927 7.65337 9.57399 7.45536C9.37872 7.25736 9.14635 7.09975 8.89016 6.99155C8.63397 6.88334 8.35898 6.82666 8.08088 6.82474H8.01471C7.44917 6.82474 6.9068 7.04939 6.5069 7.44929C6.10701 7.84918 5.88235 8.39155 5.88235 8.95709C5.88235 9.52262 6.10701 10.065 6.5069 10.4649C6.9068 10.8648 7.44917 11.0894 8.01471 11.0894V11.0894C8.29282 11.0963 8.56956 11.0483 8.82911 10.9481C9.08865 10.848 9.32592 10.6977 9.52736 10.5058C9.7288 10.3139 9.89046 10.0842 10.0031 9.82984C10.1157 9.57546 10.1771 9.30138 10.1838 9.02327V8.95709ZM23.8235 17.6189C23.8235 14.0821 21.5735 12.7071 19.3382 12.7071C18.6064 12.6704 17.8777 12.8263 17.2248 13.1592C16.572 13.4921 16.0178 13.9903 15.6176 14.6041H15.5147V13.0012H12.0588V24.7659H15.7353V18.5086C15.6821 17.8677 15.884 17.2318 16.297 16.7389C16.7101 16.246 17.3009 15.936 17.9412 15.8762H18.0809C19.25 15.8762 20.1176 16.6115 20.1176 18.4644V24.7659H23.7941L23.8235 17.6189Z" fill="#EDF5FF"/>
</svg>
