<svg width="348" height="260" viewBox="0 0 348 260" fill="none" xmlns="http://www.w3.org/2000/svg">
<path d="M256.593 84.37C258.576 84.3368 260.546 84.6948 262.39 85.4235C264.235 86.1523 265.917 87.2375 267.342 88.6172C268.767 89.9968 269.906 91.6438 270.693 93.464C271.481 95.2841 271.902 97.2417 271.933 99.2247V202.887C271.873 206.326 270.454 209.601 267.985 211.995C265.516 214.389 262.198 215.708 258.759 215.661H112.717C109.278 215.708 105.961 214.389 103.492 211.995C101.023 209.601 99.6032 206.326 99.5439 202.887V81.4667C99.6032 78.0279 101.023 74.7527 103.492 72.3583C105.961 69.964 109.278 68.6457 112.717 68.692H169.051C177.986 68.692 185.223 75.7207 185.223 84.3787H256.593V84.37Z" fill="#231F20"/>
<path d="M258.733 216.095H112.717C109.162 216.143 105.734 214.78 103.183 212.304C100.632 209.828 99.1674 206.441 99.1104 202.887V81.4667C99.1674 77.9122 100.632 74.5255 103.183 72.0494C105.734 69.5733 109.162 68.2101 112.717 68.2587H169.05C178.055 68.2587 185.413 75.2614 185.647 83.954H256.592C265.259 83.954 272.331 90.8094 272.331 99.2334V202.887C272.274 206.44 270.811 209.825 268.262 212.301C265.713 214.777 262.286 216.141 258.733 216.095ZM112.717 69.1167C109.391 69.068 106.181 70.3411 103.793 72.6566C101.404 74.972 100.032 78.1405 99.977 81.4667V202.887C100.034 206.211 101.407 209.378 103.796 211.691C106.184 214.005 109.392 215.277 112.717 215.228H258.733C262.058 215.277 265.266 214.005 267.654 211.691C270.043 209.378 271.416 206.211 271.473 202.887V99.2247C271.473 91.2774 264.8 84.8034 256.592 84.8034H185.266C185.151 84.8034 185.041 84.7577 184.959 84.6764C184.878 84.5952 184.832 84.485 184.832 84.37C184.832 75.9634 177.769 69.1167 169.094 69.1167H112.717Z" fill="#231F20"/>
<path d="M123.299 198.657V37.2407H230.913L256.063 62.4001V195.858L123.299 198.657Z" fill="#FF6C22"/>
<path d="M242.743 70.746H134.323C134.267 70.746 134.211 70.7347 134.159 70.7129C134.107 70.691 134.059 70.6589 134.02 70.6186C133.98 70.5782 133.949 70.5304 133.928 70.4778C133.908 70.4253 133.897 70.3692 133.899 70.3127C133.899 70.1992 133.943 70.0903 134.022 70.0093C134.102 69.9283 134.21 69.8816 134.323 69.8793H242.743C242.857 69.8816 242.965 69.9283 243.044 70.0093C243.123 70.0903 243.168 70.1992 243.168 70.3127C243.169 70.3692 243.159 70.4253 243.138 70.4778C243.117 70.5304 243.086 70.5782 243.047 70.6186C243.007 70.6589 242.96 70.691 242.908 70.7129C242.856 70.7347 242.8 70.746 242.743 70.746Z" fill="white"/>
<path d="M242.743 88.062H134.323C134.208 88.062 134.098 88.0164 134.017 87.9351C133.935 87.8539 133.89 87.7436 133.89 87.6287C133.89 87.5138 133.935 87.4036 134.017 87.3223C134.098 87.241 134.208 87.1954 134.323 87.1954H242.743C242.858 87.1954 242.968 87.241 243.049 87.3223C243.131 87.4036 243.176 87.5138 243.176 87.6287C243.176 87.7436 243.131 87.8539 243.049 87.9351C242.968 88.0164 242.858 88.062 242.743 88.062Z" fill="white"/>
<path d="M242.743 105.378H134.323C134.21 105.376 134.102 105.329 134.022 105.248C133.943 105.167 133.899 105.058 133.899 104.945C133.897 104.888 133.908 104.832 133.928 104.78C133.949 104.727 133.98 104.679 134.02 104.639C134.059 104.598 134.107 104.566 134.159 104.544C134.211 104.523 134.267 104.511 134.323 104.511H242.743C242.8 104.511 242.856 104.523 242.908 104.544C242.96 104.566 243.007 104.598 243.047 104.639C243.086 104.679 243.117 104.727 243.138 104.78C243.159 104.832 243.169 104.888 243.168 104.945C243.168 105.058 243.123 105.167 243.044 105.248C242.965 105.329 242.857 105.376 242.743 105.378Z" fill="white"/>
<path d="M242.743 122.685H134.323C134.208 122.685 134.098 122.64 134.017 122.558C133.935 122.477 133.89 122.367 133.89 122.252C133.89 122.137 133.935 122.027 134.017 121.946C134.098 121.864 134.208 121.819 134.323 121.819H242.743C242.858 121.819 242.968 121.864 243.049 121.946C243.131 122.027 243.176 122.137 243.176 122.252C243.176 122.367 243.131 122.477 243.049 122.558C242.968 122.64 242.858 122.685 242.743 122.685Z" fill="white"/>
<path d="M148.926 49.9373H134.635C134.52 49.9373 134.409 49.8917 134.328 49.8104C134.247 49.7292 134.201 49.6189 134.201 49.504C134.203 49.3898 134.25 49.2808 134.331 49.2001C134.411 49.1193 134.52 49.0729 134.635 49.0707H148.926C149.039 49.0729 149.147 49.1196 149.227 49.2006C149.306 49.2816 149.351 49.3906 149.35 49.504C149.352 49.5605 149.342 49.6167 149.321 49.6692C149.3 49.7217 149.269 49.7696 149.229 49.8099C149.19 49.8503 149.142 49.8823 149.09 49.9042C149.038 49.9261 148.982 49.9374 148.926 49.9373Z" fill="white"/>
<path d="M85.3567 114.764C83.5454 115.457 80.5554 116.107 79.7841 113.585C79.6601 113.137 79.6219 112.67 79.6714 112.207C79.7357 111.528 79.8575 110.855 80.0354 110.197C80.5177 108.342 81.1585 106.533 81.9507 104.789C82.1414 104.347 82.5141 103.818 82.9647 103.974C83.4154 104.13 83.4154 104.615 83.4067 105.014C83.4067 106.158 83.2161 107.311 83.2421 108.481C85.6514 107.865 87.1681 105.317 89.4561 104.771C90.1061 104.615 90.8861 104.572 90.9554 105.404C91.0421 106.435 89.1787 107.25 88.5547 107.787C89.2505 107.184 90.053 106.717 90.9207 106.409C91.1624 106.301 91.4287 106.259 91.6921 106.288C91.823 106.304 91.945 106.363 92.0391 106.455C92.1331 106.548 92.1939 106.669 92.2121 106.799C92.1954 107.018 92.0963 107.223 91.9347 107.371C91.5805 107.775 91.1855 108.141 90.7561 108.463C91.1859 107.96 91.7717 107.616 92.4201 107.484C92.5802 107.431 92.7524 107.425 92.9156 107.468C93.0788 107.511 93.2259 107.601 93.3387 107.727C93.5987 108.169 93.0874 108.654 92.6454 108.905C92.999 108.592 93.4299 108.38 93.8934 108.29C94.1248 108.251 94.3624 108.302 94.5574 108.432C94.7524 108.563 94.89 108.763 94.9421 108.992C94.9311 109.174 94.8813 109.352 94.7961 109.513C94.7109 109.675 94.5923 109.816 94.4481 109.928C92.0734 112.242 88.4074 113.585 85.3567 114.764Z" fill="white"/>
<path d="M82.4528 115.821C81.891 115.834 81.3337 115.719 80.8234 115.483C80.4728 115.313 80.162 115.07 79.9112 114.772C79.6603 114.473 79.4751 114.125 79.3674 113.75C79.2271 113.249 79.183 112.725 79.2374 112.207C79.3081 111.506 79.4326 110.81 79.6101 110.127C80.1032 108.251 80.7526 106.418 81.5514 104.65C81.9154 103.783 82.5134 103.402 83.1028 103.601C83.4494 103.714 83.8654 104.069 83.8394 105.066C83.8394 105.551 83.8394 106.045 83.7614 106.539C83.6834 107.033 83.6921 107.406 83.6748 107.891C84.5705 107.472 85.3998 106.923 86.1361 106.262C87.0504 105.394 88.1498 104.745 89.3514 104.364C89.6099 104.272 89.885 104.236 90.1584 104.258C90.4319 104.281 90.6974 104.361 90.9374 104.494C91.0706 104.597 91.1797 104.729 91.2575 104.878C91.3353 105.028 91.3799 105.192 91.3881 105.361C91.4018 105.524 91.3841 105.689 91.3361 105.846C91.4797 105.824 91.6258 105.824 91.7694 105.846C91.9953 105.881 92.2029 105.991 92.3598 106.157C92.5167 106.323 92.6139 106.537 92.6361 106.765C92.641 106.843 92.641 106.921 92.6361 106.999C92.8437 106.974 93.0542 107.006 93.245 107.091C93.4359 107.177 93.5999 107.312 93.7194 107.484C93.7802 107.595 93.8213 107.715 93.8408 107.839C94.2354 107.799 94.6302 107.914 94.9414 108.16C95.0594 108.256 95.157 108.374 95.2285 108.508C95.2999 108.642 95.3438 108.789 95.3574 108.94C95.3573 109.186 95.3019 109.429 95.1954 109.651C95.0889 109.873 94.934 110.069 94.7421 110.223C92.4108 112.519 88.9614 113.845 85.9108 115.015L85.5034 115.171C84.5325 115.565 83.4999 115.785 82.4528 115.821ZM82.8081 104.381C82.7041 104.381 82.4961 104.615 82.3488 104.953C81.5685 106.677 80.9336 108.463 80.4508 110.292C80.2856 110.933 80.1668 111.584 80.0954 112.242C80.0538 112.649 80.089 113.061 80.1994 113.455C80.2647 113.725 80.3887 113.976 80.5625 114.192C80.7363 114.408 80.9556 114.582 81.2048 114.703C82.3921 115.284 84.2208 114.703 85.2001 114.357L85.6074 114.201C88.5801 113.057 91.9428 111.765 94.1441 109.599C94.3088 109.434 94.5254 109.2 94.5081 109.009C94.5033 108.973 94.4908 108.938 94.4713 108.906C94.4519 108.875 94.426 108.848 94.3954 108.827C94.3318 108.775 94.2584 108.736 94.1796 108.712C94.1008 108.688 94.018 108.68 93.9361 108.689C93.701 108.73 93.4785 108.825 93.2861 108.966C93.1512 109.074 93.0093 109.172 92.8614 109.261C92.7648 109.314 92.6516 109.33 92.5441 109.304C92.4367 109.279 92.3427 109.214 92.2808 109.122C92.221 109.029 92.1986 108.916 92.2178 108.807C92.2371 108.698 92.2967 108.6 92.3848 108.533L92.7574 108.264C92.8557 108.192 92.931 108.092 92.9741 107.978C92.9308 107.874 92.7574 107.831 92.5061 107.883C92.2373 107.934 91.9793 108.03 91.7434 108.169C91.5094 108.385 91.2668 108.593 91.0154 108.784C90.9311 108.854 90.8235 108.889 90.7143 108.882C90.6052 108.876 90.5024 108.829 90.4268 108.75C90.3511 108.671 90.3081 108.566 90.3063 108.457C90.3046 108.347 90.3443 108.241 90.4174 108.16C90.6474 107.893 90.9162 107.662 91.2148 107.475C91.3534 107.345 91.4834 107.207 91.6134 107.059C91.7434 106.912 91.7781 106.817 91.7781 106.799C91.7781 106.782 91.7088 106.704 91.6134 106.687C91.423 106.679 91.2333 106.714 91.0588 106.791C90.7616 106.898 90.4721 107.026 90.1921 107.172C89.9581 107.345 89.7154 107.501 89.4814 107.649C89.2627 107.781 89.0515 107.926 88.8488 108.082C88.7588 108.153 88.6451 108.188 88.5308 108.178C88.4164 108.168 88.3101 108.115 88.2334 108.03C88.154 107.949 88.1096 107.84 88.1096 107.727C88.1096 107.613 88.154 107.504 88.2334 107.423C88.6764 107.04 89.162 106.708 89.6808 106.435C90.1314 106.106 90.5474 105.733 90.4868 105.404C90.4868 105.213 90.4088 105.161 90.3914 105.153C90.3741 105.144 90.1228 105.014 89.5248 105.153C88.451 105.509 87.4707 106.101 86.6561 106.886C85.7043 107.78 84.5683 108.454 83.3281 108.862C83.2641 108.878 83.1974 108.879 83.1329 108.865C83.0685 108.852 83.0078 108.824 82.9554 108.784C82.9043 108.745 82.8623 108.695 82.8324 108.639C82.8025 108.582 82.7853 108.519 82.7821 108.455C82.7758 107.778 82.8047 107.101 82.8688 106.427C82.8688 105.95 82.9381 105.473 82.9468 104.997C82.9554 104.52 82.8774 104.399 82.7994 104.381C82.7214 104.364 82.8168 104.381 82.8081 104.381Z" fill="#231F20"/>
<path d="M83.3545 108.559C83.9032 109.222 84.2091 110.052 84.2217 110.913C84.2343 111.773 83.9528 112.612 83.4238 113.291H83.6665" fill="white"/>
<path d="M83.4238 113.724C83.3419 113.726 83.2612 113.703 83.1916 113.66C83.122 113.617 83.0664 113.554 83.0316 113.48C82.9968 113.406 82.9842 113.323 82.9953 113.242C83.0065 113.16 83.0409 113.084 83.0945 113.022C83.557 112.421 83.8026 111.681 83.7916 110.923C83.7806 110.164 83.5135 109.432 83.0338 108.845C82.9539 108.762 82.9092 108.652 82.9092 108.537C82.9092 108.422 82.9539 108.312 83.0338 108.229C83.0762 108.192 83.1257 108.163 83.1793 108.145C83.233 108.126 83.2898 108.119 83.3463 108.123C83.4028 108.127 83.458 108.142 83.5085 108.168C83.5591 108.194 83.6039 108.229 83.6405 108.273C84.2007 108.943 84.5391 109.771 84.6089 110.642C84.6788 111.512 84.4767 112.384 84.0305 113.135C84.0395 113.175 84.0395 113.216 84.0305 113.256C84.0353 113.37 83.9956 113.482 83.9196 113.568C83.8436 113.654 83.7373 113.706 83.6232 113.715H83.3545L83.4238 113.724Z" fill="#231F20"/>
<path d="M204.048 89.2364L87.5654 78.0615L79.4718 162.425L195.954 173.6L204.048 89.2364Z" fill="white"/>
<path d="M195.969 174.053L79.4372 162.881C79.319 162.868 79.2108 162.809 79.1361 162.716C79.0614 162.624 79.0263 162.506 79.0385 162.387L87.1245 78C87.1355 77.8819 87.1926 77.7729 87.2835 77.6967C87.3743 77.6204 87.4916 77.583 87.6098 77.5927L204.098 88.764C204.157 88.7683 204.214 88.7844 204.266 88.8114C204.319 88.8384 204.365 88.8758 204.402 88.9212C204.439 88.9665 204.467 89.019 204.483 89.0755C204.5 89.1319 204.504 89.191 204.497 89.2493L196.411 173.619C196.406 173.679 196.389 173.736 196.361 173.788C196.333 173.841 196.294 173.886 196.246 173.923C196.172 173.996 196.074 174.042 195.969 174.053ZM79.9658 162.067L195.562 173.151L203.57 89.6653L87.9738 78.5547L79.9658 162.067Z" fill="#231F20"/>
<path d="M186.852 166.01H186.808L89.9322 156.719C89.8741 156.714 89.8176 156.697 89.766 156.67C89.7144 156.642 89.6688 156.605 89.6317 156.56C89.5946 156.515 89.5669 156.463 89.55 156.407C89.5332 156.351 89.5276 156.292 89.5336 156.234L96.2589 86.034C96.2636 85.9748 96.2807 85.9172 96.309 85.8649C96.3374 85.8126 96.3764 85.7669 96.4236 85.7307C96.4674 85.6928 96.5183 85.6641 96.5734 85.6463C96.6284 85.6284 96.6865 85.6218 96.7442 85.6267L193.638 94.9174C193.696 94.9228 193.752 94.9397 193.804 94.9671C193.855 94.9945 193.901 95.0318 193.938 95.0769C193.975 95.1221 194.003 95.1741 194.02 95.23C194.037 95.2859 194.042 95.3446 194.036 95.4027L187.311 165.603C187.307 165.662 187.29 165.72 187.261 165.772C187.233 165.825 187.194 165.87 187.146 165.906C187.065 165.977 186.959 166.014 186.852 166.01ZM90.4522 155.87L186.444 165.074L193.066 95.7927L97.0909 86.5887L90.4522 155.87Z" fill="#D1D3D4"/>
<path d="M43.5999 213.495L42.8633 218.885C42.8633 218.885 57.8739 220.445 57.3019 219.145C56.1957 217.274 54.9863 215.466 53.6793 213.729" fill="white"/>
<path d="M54.113 220.133C50.8717 220.133 46.1137 219.709 42.8463 219.362C42.7882 219.358 42.7316 219.341 42.6807 219.312C42.6298 219.284 42.5858 219.245 42.5517 219.197C42.5145 219.154 42.4875 219.102 42.4725 219.047C42.4575 218.991 42.455 218.933 42.465 218.877L43.2017 213.477C43.2168 213.364 43.2763 213.261 43.3673 213.191C43.4583 213.121 43.5733 213.09 43.687 213.105C43.8007 213.12 43.9038 213.179 43.9736 213.27C44.0435 213.361 44.0744 213.476 44.0597 213.59L43.3837 218.547C49.2337 219.137 55.517 219.492 56.817 219.128C56.0457 217.681 53.3503 214.075 53.3503 214.032C53.3091 213.987 53.2777 213.934 53.2583 213.877C53.2388 213.819 53.2318 213.758 53.2376 213.697C53.2434 213.636 53.2619 213.578 53.2919 213.525C53.3219 213.472 53.3627 213.426 53.4117 213.39C53.4608 213.353 53.5168 213.328 53.5763 213.315C53.6358 213.302 53.6974 213.302 53.757 213.314C53.8166 213.326 53.873 213.351 53.9224 213.387C53.9718 213.422 54.0131 213.468 54.0437 213.521C55.3729 215.278 56.597 217.113 57.7097 219.015C57.7563 219.109 57.7753 219.214 57.7646 219.319C57.7539 219.423 57.7138 219.522 57.649 219.605C57.3543 219.943 55.9937 220.133 54.113 220.133Z" fill="#231F20"/>
<path d="M80.6243 115.466C80.6243 115.466 90.357 121.949 94.1356 120.007C96.3716 118.855 98.157 117.208 100.202 115.795C102.146 114.52 104.009 113.128 105.784 111.627C105.987 111.457 106.167 111.262 106.321 111.046C106.451 110.816 106.556 110.571 106.633 110.318C106.964 109.33 107.376 108.37 107.864 107.449C108.032 107.079 108.319 106.774 108.678 106.583C110.68 105.794 109.424 109.945 109.016 110.682C110.559 109.235 112.154 107.779 113.835 106.47C113.916 106.388 114.014 106.325 114.121 106.285C114.229 106.244 114.344 106.228 114.459 106.236C114.578 106.284 114.675 106.374 114.733 106.489C114.79 106.604 114.804 106.736 114.771 106.86C114.702 107.106 114.571 107.33 114.39 107.51L111.703 110.673C112.469 109.743 113.307 108.874 114.208 108.073C114.528 107.779 115.438 106.912 115.941 107.259C116.747 107.865 113.87 111.124 113.341 111.661C114.102 110.619 114.996 109.68 116.002 108.871C116.268 108.606 116.623 108.448 116.998 108.429C117.198 108.628 116.998 108.966 116.834 109.183L114.962 111.341C115.906 110.301 116.955 109.2 118.333 108.94C118.402 109.165 118.238 109.391 118.082 109.573C115.326 112.788 112.561 115.96 109.658 119.037C105.792 123.127 101.598 127.851 96.0943 129.437C89.5683 131.343 83.727 127.478 78.3623 124.159" fill="white"/>
<path d="M92.5756 130.321C87.5489 130.321 82.9296 127.452 78.7609 124.869L78.1282 124.479C78.0305 124.418 77.9611 124.321 77.935 124.209C77.909 124.097 77.9287 123.979 77.9896 123.881C78.0505 123.784 78.1477 123.714 78.2598 123.688C78.372 123.662 78.4899 123.682 78.5876 123.743L79.2202 124.133C84.4202 127.383 89.8802 130.745 95.9642 128.969C101.034 127.478 105.09 123.171 108.661 119.375L109.337 118.655C112.197 115.631 114.953 112.459 117.319 109.703C116.551 110.216 115.862 110.838 115.274 111.549C115.233 111.589 115.185 111.622 115.133 111.644C115.08 111.666 115.023 111.677 114.966 111.677C114.909 111.677 114.852 111.666 114.799 111.644C114.746 111.622 114.699 111.589 114.658 111.549C114.579 111.468 114.534 111.359 114.534 111.245C114.534 111.132 114.579 111.023 114.658 110.942L116.158 109.209C115.767 109.529 115.393 109.87 115.04 110.231C114.546 110.873 114.026 111.462 113.688 111.835C113.607 111.912 113.5 111.954 113.389 111.954C113.277 111.954 113.17 111.912 113.09 111.835C113.006 111.764 112.951 111.664 112.937 111.555C112.922 111.446 112.949 111.336 113.012 111.245C113.424 110.685 113.872 110.152 114.355 109.651C114.963 109.018 115.404 108.243 115.638 107.397C115.243 107.602 114.883 107.869 114.572 108.186C113.922 108.769 113.306 109.388 112.726 110.041L112.058 110.829C112.022 110.873 111.978 110.91 111.928 110.936C111.877 110.963 111.822 110.979 111.766 110.984C111.709 110.988 111.652 110.982 111.598 110.964C111.544 110.947 111.494 110.919 111.452 110.881C111.364 110.809 111.308 110.704 111.296 110.591C111.285 110.477 111.319 110.363 111.391 110.275C111.616 110.006 111.842 109.729 112.076 109.469L114.086 107.111C114.215 106.982 114.313 106.825 114.372 106.652C114.387 106.61 114.387 106.564 114.372 106.522C114.372 106.522 114.32 106.522 114.147 106.687C112.414 108.047 110.75 109.564 109.354 110.873C109.279 110.941 109.182 110.981 109.081 110.985C108.979 110.989 108.879 110.957 108.799 110.895C108.718 110.833 108.662 110.745 108.64 110.646C108.618 110.547 108.632 110.443 108.678 110.353C109.042 109.694 109.675 107.302 109.268 106.834C109.198 106.756 108.947 106.834 108.878 106.834C108.612 106.993 108.407 107.238 108.297 107.527C107.82 108.43 107.414 109.369 107.084 110.335C107.007 110.64 106.887 110.931 106.728 111.202C106.557 111.453 106.35 111.678 106.113 111.869C104.482 113.266 102.765 114.56 100.974 115.743L100.497 116.073C99.8122 116.549 99.1449 117.061 98.4949 117.555C97.2101 118.593 95.8353 119.516 94.3869 120.311C90.4262 122.347 80.8409 116.021 80.4422 115.743C80.3943 115.713 80.353 115.673 80.3208 115.626C80.2886 115.579 80.2662 115.526 80.2549 115.47C80.2436 115.414 80.2436 115.357 80.2549 115.301C80.2663 115.245 80.2887 115.192 80.3209 115.145C80.3844 115.05 80.4829 114.984 80.5949 114.962C80.7069 114.939 80.8234 114.961 80.9189 115.024C83.5709 116.757 91.0762 121.039 93.9969 119.539C95.4007 118.768 96.7321 117.872 97.9749 116.861C98.6249 116.359 99.3009 115.847 100.003 115.362L100.48 115.033C102.241 113.867 103.928 112.594 105.532 111.219C105.71 111.08 105.868 110.917 106 110.734C106.106 110.548 106.19 110.35 106.252 110.145C106.597 109.122 107.023 108.128 107.526 107.172C107.727 106.691 108.097 106.3 108.566 106.071C108.78 105.947 109.031 105.9 109.276 105.936C109.522 105.972 109.748 106.09 109.918 106.271C110.412 106.834 110.282 108.047 110.022 109.079C111.131 108.065 112.344 106.999 113.618 106.011C113.747 105.885 113.904 105.792 114.075 105.739C114.247 105.686 114.429 105.675 114.606 105.707C114.81 105.77 114.987 105.9 115.106 106.077C115.226 106.253 115.282 106.465 115.265 106.678C115.415 106.607 115.582 106.576 115.748 106.59C115.914 106.604 116.073 106.661 116.21 106.756C116.301 106.822 116.376 106.908 116.43 107.007C116.484 107.106 116.515 107.216 116.522 107.328C116.534 107.544 116.499 107.76 116.418 107.961C116.624 107.868 116.85 107.827 117.076 107.839C117.181 107.848 117.28 107.894 117.354 107.969C117.433 108.046 117.493 108.14 117.529 108.244C117.565 108.347 117.576 108.458 117.562 108.567C117.8 108.472 118.046 108.399 118.298 108.351C118.404 108.334 118.513 108.356 118.604 108.413C118.695 108.471 118.762 108.56 118.792 108.663C118.826 108.849 118.813 109.041 118.754 109.221C118.695 109.402 118.592 109.564 118.454 109.694C115.993 112.571 113.064 115.951 110.013 119.175L109.346 119.886C105.697 123.769 101.546 128.171 96.2589 129.723C95.0663 130.098 93.8257 130.3 92.5756 130.321Z" fill="#231F20"/>
<path d="M77.1833 140.426L86.734 214.448L76.4813 214.179L63.7326 161.859L54.65 214.309L43.1406 213.495L49.606 136.933L77.1833 140.426Z" fill="#231F20"/>
<path d="M60.4659 112.485C60.7519 106.305 59.5039 93.7734 59.5039 93.7734C59.5039 93.7734 67.3732 94.224 70.0252 90.4367C73.2666 92.976 73.9339 100.135 73.3446 102.275C72.1659 106.496 66.6799 105.569 66.6799 105.569L67.3819 113.299L60.4659 112.485Z" fill="white"/>
<path d="M67.3993 113.733H67.3473L60.414 112.909C60.3052 112.896 60.2054 112.843 60.1347 112.759C60.0639 112.675 60.0275 112.568 60.0326 112.459C60.3186 106.392 59.0879 93.9381 59.0706 93.8167C59.0659 93.7537 59.0742 93.6904 59.0951 93.6307C59.116 93.5711 59.149 93.5164 59.1919 93.47C59.2362 93.4262 59.2891 93.392 59.3473 93.3696C59.4055 93.3472 59.4677 93.3372 59.5299 93.34C59.6079 93.34 67.1913 93.7301 69.67 90.1941C69.7031 90.1443 69.7466 90.1023 69.7974 90.0709C69.8483 90.0395 69.9053 90.0194 69.9646 90.0121C70.0815 89.9968 70.1997 90.0279 70.2939 90.0987C73.6913 92.7594 74.3846 100.126 73.7606 102.388C72.7293 106.106 68.656 106.167 67.1566 106.054L67.8153 113.256C67.8201 113.321 67.811 113.386 67.7886 113.448C67.7662 113.509 67.7309 113.565 67.6853 113.611C67.6082 113.686 67.5063 113.729 67.3993 113.733ZM60.9339 112.103L66.9226 112.805L66.264 105.612C66.2591 105.546 66.269 105.48 66.293 105.419C66.317 105.357 66.3544 105.302 66.4026 105.257C66.4495 105.21 66.5072 105.175 66.5706 105.155C66.6341 105.136 66.7014 105.132 66.7666 105.144C66.9746 105.144 71.8886 105.95 72.9373 102.163C73.4399 100.351 72.9373 93.7561 70.1033 91.0694C67.5033 94.1114 61.7486 94.2501 59.9979 94.2241C60.2146 96.5467 61.1159 106.6 60.9253 112.103H60.9339Z" fill="#231F20"/>
<path d="M66.6885 105.569C65.4516 105.42 64.2793 104.934 63.2998 104.165C63.2998 104.165 64.7905 107.909 67.1045 108.498L66.6885 105.569Z" fill="#231F20"/>
<path d="M67.1039 108.862H67.0086C64.5299 108.264 62.9959 104.477 62.9266 104.321C62.8924 104.236 62.8893 104.141 62.9178 104.054C62.9463 103.967 63.0047 103.892 63.0826 103.844C63.1575 103.792 63.2486 103.769 63.3392 103.779C63.4298 103.788 63.514 103.83 63.5766 103.896C64.4957 104.603 65.5885 105.049 66.7399 105.187C66.8258 105.198 66.9056 105.237 66.9668 105.299C67.0279 105.36 67.067 105.44 67.0779 105.525L67.4939 108.42C67.5029 108.483 67.4966 108.548 67.4755 108.608C67.4544 108.669 67.4191 108.723 67.3726 108.767C67.2974 108.83 67.202 108.864 67.1039 108.862ZM64.3046 105.3C64.8309 106.357 65.6297 107.255 66.6186 107.9L66.3412 105.95C65.6392 105.814 64.9556 105.596 64.3046 105.3Z" fill="#231F20"/>
<path d="M72.599 109.304L90.5737 119.158L86.2404 131.733C86.2404 131.733 63.655 119.773 63.499 116.541C63.343 113.308 72.599 109.304 72.599 109.304Z" fill="#FF6C22"/>
<path d="M78.3364 147.264C78.3364 147.264 79.0731 131.031 77.4698 121.264C76.7851 117.104 77.0538 114.183 75.6758 111.93C71.0478 104.373 53.0211 106.626 50.4038 111.869C47.7864 117.113 45.7324 147.42 45.7324 147.42L78.3364 147.264Z" fill="#FF6C22"/>
<path d="M60.7954 98.1674C60.6966 97.6816 60.4655 97.2327 60.1274 96.8702C59.7894 96.5077 59.3577 96.2457 58.88 96.1134C58.6659 96.0428 58.4392 96.0186 58.2151 96.0425C57.9909 96.0664 57.7744 96.1378 57.58 96.252C57.3546 96.4458 57.1829 96.6942 57.0812 96.9734C56.9795 97.2527 56.9513 97.5534 56.9994 97.8467C57.0738 98.7841 57.4976 99.6595 58.1867 100.299C58.8811 100.929 59.7884 101.273 60.726 101.261" fill="white"/>
<path d="M60.6652 101.695C59.6249 101.697 58.6223 101.305 57.8599 100.597C57.0974 99.8897 56.6319 98.919 56.5572 97.8814C56.5025 97.5113 56.5457 97.1332 56.6825 96.785C56.8194 96.4368 57.0451 96.1305 57.3372 95.8967C57.5815 95.744 57.8561 95.6463 58.142 95.6103C58.4278 95.5744 58.7181 95.6012 58.9926 95.6887C59.5473 95.8451 60.0485 96.1509 60.4413 96.5728C60.834 96.9946 61.1034 97.5162 61.2199 98.0807C61.2313 98.1365 61.2316 98.194 61.2208 98.2498C61.21 98.3057 61.1882 98.3589 61.1568 98.4064C61.1254 98.4539 61.085 98.4947 61.0378 98.5266C60.9907 98.5584 60.9377 98.5807 60.8819 98.5921C60.7683 98.6125 60.6512 98.5877 60.5556 98.5229C60.4601 98.4581 60.3937 98.3585 60.3706 98.2454C60.2862 97.838 60.0923 97.4613 59.8098 97.1559C59.5273 96.8505 59.1668 96.6279 58.7672 96.5121C58.6143 96.4577 58.4513 96.4373 58.2897 96.4522C58.1281 96.4672 57.9716 96.5172 57.8312 96.5987C57.6733 96.7533 57.5541 96.943 57.4834 97.1523C57.4126 97.3616 57.3922 97.5847 57.4239 97.8034C57.4888 98.6292 57.8634 99.4 58.4726 99.9614C59.0843 100.518 59.8814 100.827 60.7086 100.828C60.8228 100.83 60.9317 100.877 61.0125 100.957C61.0933 101.038 61.1397 101.147 61.1419 101.261C61.1419 101.376 61.0963 101.487 61.015 101.568C60.9337 101.649 60.8235 101.695 60.7086 101.695H60.6652Z" fill="#231F20"/>
<path d="M70.4961 95.14C70.6971 95.0773 70.7665 94.7264 70.651 94.3563C70.5355 93.9862 70.2789 93.737 70.0779 93.7997C69.8768 93.8625 69.8075 94.2134 69.923 94.5835C70.0385 94.9536 70.2951 95.2027 70.4961 95.14Z" fill="#231F20"/>
<path d="M76.4816 214.179C76.4816 214.179 76.1956 218.651 76.7762 219.379C77.3569 220.107 91.7522 221 91.0329 219.267C90.3136 217.533 85.8329 213.867 85.8329 213.867" fill="white"/>
<path d="M85.7726 220.705C81.734 220.705 76.8893 220.211 76.4386 219.639C75.806 218.851 75.9793 215.245 76.0487 214.153C76.0596 214.038 76.1143 213.932 76.2014 213.856C76.2885 213.781 76.4013 213.741 76.5166 213.746C76.5736 213.75 76.6292 213.766 76.6801 213.792C76.731 213.818 76.7763 213.854 76.8133 213.897C76.8504 213.941 76.8785 213.991 76.896 214.045C76.9135 214.1 76.9201 214.157 76.9153 214.214C76.7853 216.285 76.8286 218.747 77.1146 219.102C79.3583 219.547 81.6394 219.776 83.9266 219.787C88.1646 219.934 90.1753 219.622 90.5913 219.345C89.9413 217.975 86.7866 215.185 85.5993 214.205C85.5545 214.169 85.5173 214.125 85.4899 214.074C85.4626 214.023 85.4456 213.968 85.4399 213.91C85.4343 213.853 85.4401 213.795 85.457 213.74C85.474 213.685 85.5017 213.634 85.5386 213.59C85.6114 213.502 85.7159 213.446 85.8295 213.435C85.9431 213.424 86.0566 213.458 86.1453 213.529C86.336 213.685 90.678 217.291 91.432 219.102C91.5054 219.286 91.5049 219.492 91.4306 219.676C91.3564 219.86 91.2141 220.008 91.0333 220.09C90.288 220.532 88.1993 220.705 85.7726 220.705Z" fill="#231F20"/>
<path d="M72.0008 94.6573C72.0008 94.6573 75.1642 98.2627 74.3842 99.0427C73.6042 99.8227 71.7842 99.4327 71.7842 99.4327" fill="white"/>
<path d="M72.7896 99.9613C72.4203 99.9602 72.0519 99.9254 71.6889 99.8573C71.633 99.845 71.5801 99.8218 71.5333 99.789C71.4864 99.7561 71.4465 99.7143 71.4159 99.666C71.3853 99.6176 71.3645 99.5637 71.3549 99.5073C71.3452 99.4509 71.3468 99.3931 71.3596 99.3373C71.3709 99.2818 71.3931 99.2291 71.4251 99.1823C71.4571 99.1355 71.4981 99.0955 71.5458 99.0648C71.5934 99.0342 71.6468 99.0133 71.7026 99.0036C71.7584 98.9938 71.8157 98.9953 71.8709 99.008C72.2869 99.0947 73.6042 99.2333 74.0809 98.7393C74.2282 98.3667 73.0842 96.5553 71.6802 94.9433C71.6388 94.9044 71.6058 94.8574 71.5832 94.8053C71.5606 94.7531 71.5489 94.6969 71.5489 94.64C71.5489 94.5832 71.5606 94.5269 71.5832 94.4747C71.6058 94.4226 71.6388 94.3756 71.6802 94.3367C71.7205 94.2961 71.7685 94.2638 71.8213 94.2418C71.8741 94.2198 71.9307 94.2085 71.9879 94.2085C72.0451 94.2085 72.1018 94.2198 72.1546 94.2418C72.2074 94.2638 72.2553 94.2961 72.2956 94.3367C73.5782 95.8013 75.5889 98.384 74.6616 99.3113C74.1427 99.7578 73.4735 99.9902 72.7896 99.9613Z" fill="#231F20"/>
<path d="M86.2486 132.167C86.1788 132.167 86.11 132.149 86.0493 132.115C85.9193 132.054 73.4913 125.415 68.9673 122.954C68.9163 122.928 68.8711 122.891 68.8345 122.847C68.798 122.803 68.7708 122.752 68.7546 122.696C68.7384 122.641 68.7335 122.584 68.7403 122.527C68.747 122.47 68.7653 122.414 68.794 122.365C68.8203 122.315 68.8564 122.271 68.9 122.235C68.9436 122.199 68.9939 122.172 69.0479 122.156C69.102 122.14 69.1587 122.135 69.2148 122.141C69.2709 122.147 69.3252 122.164 69.3746 122.191C73.9073 124.653 86.3266 131.283 86.4566 131.352C86.5068 131.379 86.5511 131.416 86.587 131.46C86.6229 131.505 86.6497 131.556 86.6658 131.611C86.6819 131.665 86.687 131.723 86.6809 131.78C86.6747 131.836 86.6574 131.891 86.63 131.941C86.5933 132.01 86.5383 132.068 86.471 132.108C86.4037 132.147 86.3268 132.168 86.2486 132.167Z" fill="#231F20"/>
<path d="M63.7327 162.292C63.6799 162.293 63.6275 162.284 63.5784 162.264C63.5293 162.245 63.4845 162.216 63.4467 162.179C63.3687 162.11 61.5487 160.394 59.668 154.067C59.6378 153.956 59.6516 153.837 59.7064 153.736C59.7612 153.634 59.853 153.557 59.9627 153.521C60.0729 153.491 60.1905 153.505 60.2907 153.56C60.3909 153.615 60.4659 153.707 60.5 153.816C62.294 159.883 63.9667 161.529 64.0273 161.538C64.0679 161.578 64.1002 161.626 64.1222 161.679C64.1442 161.732 64.1555 161.788 64.1555 161.846C64.1555 161.903 64.1442 161.96 64.1222 162.012C64.1002 162.065 64.0679 162.113 64.0273 162.153C63.9898 162.195 63.9444 162.228 63.8938 162.252C63.8433 162.276 63.7885 162.289 63.7327 162.292Z" fill="white"/>
<path d="M165.853 138.467C165.788 138.468 165.724 138.455 165.666 138.428C165.608 138.401 165.556 138.361 165.515 138.311C165.168 137.921 131.333 99.1814 127.078 96.148C125.44 94.9694 115.291 98.9647 94.0666 114.773C93.9708 114.832 93.8562 114.853 93.7455 114.832C93.6348 114.811 93.536 114.749 93.4685 114.659C93.4011 114.569 93.3699 114.457 93.3812 114.344C93.3924 114.232 93.4453 114.128 93.5293 114.053C93.6073 114.001 100.931 108.55 108.696 103.558C124.634 93.2967 126.896 94.8914 127.598 95.42C131.931 98.514 164.787 136.153 166.182 137.722C166.265 137.806 166.312 137.92 166.312 138.038C166.312 138.157 166.265 138.27 166.182 138.355C166.09 138.432 165.973 138.473 165.853 138.467Z" fill="#D1D3D4"/>
<path d="M190.388 131.941C190.31 131.941 190.233 131.921 190.165 131.884C190.096 131.846 190.039 131.791 189.998 131.725C182.934 120.094 174.77 107.935 173.332 107.718C171.876 107.926 159.95 117.485 152.783 123.457C152.69 123.522 152.576 123.55 152.463 123.535C152.351 123.52 152.248 123.463 152.175 123.375C152.103 123.288 152.066 123.176 152.073 123.062C152.08 122.949 152.129 122.842 152.211 122.763C154.126 121.169 171 107.163 173.236 106.825C173.973 106.704 177.171 108.897 190.769 131.265C190.829 131.368 190.847 131.49 190.818 131.605C190.789 131.72 190.715 131.819 190.613 131.881C190.545 131.922 190.467 131.943 190.388 131.941Z" fill="#D1D3D4"/>
<path d="M155.131 107.094C154.397 107.094 153.68 106.876 153.07 106.468C152.459 106.06 151.984 105.48 151.703 104.802C151.423 104.124 151.35 103.378 151.494 102.658C151.638 101.938 151.992 101.277 152.511 100.759C153.031 100.24 153.693 99.8877 154.413 99.7456C155.133 99.6034 155.879 99.6781 156.557 99.9602C157.234 100.242 157.813 100.719 158.22 101.33C158.626 101.941 158.842 102.659 158.841 103.393C158.838 104.376 158.446 105.317 157.751 106.011C157.056 106.704 156.113 107.094 155.131 107.094ZM155.131 100.577C154.574 100.577 154.03 100.742 153.566 101.051C153.103 101.361 152.742 101.801 152.529 102.315C152.316 102.83 152.26 103.396 152.369 103.943C152.477 104.489 152.746 104.991 153.14 105.385C153.533 105.779 154.035 106.047 154.582 106.156C155.128 106.265 155.694 106.209 156.209 105.996C156.724 105.782 157.164 105.421 157.473 104.958C157.783 104.495 157.948 103.95 157.948 103.393C157.948 102.646 157.651 101.93 157.123 101.402C156.595 100.873 155.878 100.577 155.131 100.577Z" fill="#D1D3D4"/>
<path d="M67.2256 100.438C67.4168 100.914 67.7356 101.327 68.147 101.633C68.5584 101.939 69.0463 102.125 69.5569 102.171C70.0618 102.202 70.5672 102.12 71.0364 101.931C71.5056 101.742 71.9269 101.451 72.2696 101.079" fill="white"/>
<path d="M69.8079 102.57H69.5132C68.9277 102.522 68.3666 102.314 67.8912 101.968C67.4159 101.623 67.0446 101.153 66.8179 100.611C66.7765 100.503 66.7798 100.383 66.8269 100.278C66.874 100.172 66.9612 100.089 67.0692 100.048C67.1773 100.007 67.2973 100.01 67.403 100.057C67.5086 100.104 67.5912 100.191 67.6326 100.299C67.7981 100.692 68.0684 101.031 68.4139 101.28C68.7593 101.529 69.1666 101.679 69.5912 101.712C70.0314 101.736 70.4715 101.663 70.8803 101.499C71.2892 101.334 71.6568 101.081 71.9572 100.759C71.9975 100.718 72.0455 100.686 72.0983 100.664C72.1511 100.642 72.2077 100.631 72.2649 100.631C72.3221 100.631 72.3788 100.642 72.4316 100.664C72.4844 100.686 72.5323 100.718 72.5726 100.759C72.6129 100.798 72.645 100.845 72.6669 100.898C72.6888 100.95 72.7 101.006 72.7 101.062C72.7 101.119 72.6888 101.174 72.6669 101.227C72.645 101.279 72.6129 101.326 72.5726 101.365C72.2154 101.74 71.7868 102.04 71.312 102.247C70.8372 102.454 70.3258 102.564 69.8079 102.57Z" fill="#231F20"/>
<path d="M57.3453 105.101C55.6019 105.101 53.8829 104.692 52.3273 103.905C51.5537 103.561 50.9036 102.99 50.4639 102.267C50.2263 101.827 50.1323 101.324 50.1953 100.828C49.4968 100.93 48.7841 100.808 48.1586 100.481C47.2518 99.972 46.4747 99.2602 45.8879 98.4014C45.6781 98.1611 45.5613 97.8537 45.5586 97.5347C45.5934 97.2284 45.7382 96.9451 45.9659 96.7374L46.5466 96.1047C47.6154 95.0286 48.5496 93.8267 49.3286 92.5254C49.7994 91.5872 50.188 90.61 50.4899 89.6047C50.7413 88.8507 51.0013 88.0707 51.3566 87.3254C53.6966 82.0387 58.0213 81.1807 61.9559 81.0334C64.4346 80.9467 67.7366 81.7267 69.2359 84.1967C69.3339 84.1238 69.4419 84.0654 69.5566 84.0234C70.0271 83.8497 70.5471 83.8684 71.0039 84.0754C71.6508 84.4411 72.1685 84.9982 72.4859 85.67C73.9491 88.3122 74.606 91.3253 74.3753 94.3367C74.3721 94.3941 74.3572 94.4502 74.3317 94.5017C74.3061 94.5532 74.2704 94.599 74.2266 94.6363C74.1829 94.6735 74.132 94.7015 74.0771 94.7186C74.0222 94.7356 73.9644 94.7413 73.9073 94.7354C73.7938 94.7265 73.6884 94.6733 73.6138 94.5874C73.5392 94.5015 73.5014 94.3896 73.5086 94.276C73.7217 91.4455 73.1042 88.6142 71.7319 86.1294C71.4867 85.6254 71.0937 85.2082 70.6053 84.9334C70.3607 84.8341 70.0871 84.8341 69.8426 84.9334C69.7707 84.9578 69.7044 84.9964 69.6478 85.0471C69.5912 85.0977 69.5455 85.1593 69.5133 85.228C69.48 85.3042 69.4256 85.3692 69.3564 85.4153C69.2873 85.4614 69.2064 85.4867 69.1233 85.488C69.0392 85.4862 68.9573 85.4609 68.8868 85.415C68.8163 85.369 68.7602 85.3043 68.7246 85.228C67.5979 82.706 64.3913 81.9 61.9646 82.004C56.7126 82.1947 53.8613 83.8674 52.1366 87.776C51.8281 88.4956 51.5562 89.2303 51.3219 89.9774C50.9901 91.0112 50.5697 92.0145 50.0653 92.976C49.2553 94.3412 48.277 95.599 47.1533 96.72L46.5813 97.3527C46.502 97.4267 46.4373 97.5149 46.3906 97.6127C46.4329 97.7349 46.5043 97.8449 46.5986 97.9334C47.1028 98.6872 47.7728 99.3157 48.5573 99.7707C48.9133 99.9668 49.3149 100.065 49.7213 100.056C50.1276 100.047 50.5244 99.9306 50.8713 99.7187C50.9626 99.6568 51.074 99.632 51.1829 99.6495C51.2919 99.6669 51.39 99.7252 51.4574 99.8125C51.5249 99.8998 51.5564 100.01 51.5457 100.119C51.5351 100.229 51.4829 100.331 51.3999 100.403C51.2106 100.602 51.0919 100.857 51.0622 101.129C51.0324 101.402 51.0932 101.677 51.2353 101.911C51.6066 102.451 52.1235 102.875 52.7259 103.133C54.3329 103.948 56.1273 104.322 57.9259 104.217C57.9831 104.212 58.0407 104.219 58.0951 104.237C58.1495 104.255 58.1997 104.284 58.2427 104.322C58.2856 104.36 58.3203 104.407 58.3449 104.459C58.3694 104.51 58.3831 104.567 58.3853 104.624C58.3888 104.681 58.381 104.738 58.3624 104.792C58.3439 104.846 58.3148 104.896 58.277 104.938C58.2391 104.981 58.1932 105.016 58.1419 105.041C58.0906 105.066 58.0349 105.08 57.9779 105.083L57.3453 105.101Z" fill="#231F20"/>
<path d="M157.853 113.481H306.755C313.229 113.481 316.67 117.979 314.425 123.526L280.937 206.388C278.701 211.935 271.629 216.433 265.155 216.433H116.244C109.77 216.433 106.338 211.935 108.583 206.388L142.062 123.526C144.307 117.979 151.37 113.481 157.853 113.481Z" fill="white"/>
<path d="M265.155 216.883H116.244C112.838 216.883 110.039 215.635 108.566 213.417C107.266 211.467 107.084 208.867 108.132 206.267L141.612 123.405C143.917 117.711 151.145 113.083 157.818 113.083H306.755C310.17 113.083 312.969 114.331 314.434 116.506C315.777 118.491 315.924 121.065 314.841 123.743L281.353 206.596C279.056 212.247 271.785 216.883 265.155 216.883ZM157.853 113.932C151.552 113.932 144.654 118.265 142.478 123.699L108.999 206.553C108.037 208.945 108.132 211.224 109.32 212.957C110.62 214.881 113.142 215.991 116.253 215.991H265.155C271.456 215.991 278.346 211.605 280.53 206.223L314.009 123.361C314.98 120.969 314.876 118.699 313.697 116.965C312.397 115.033 309.866 113.932 306.764 113.932H157.853Z" fill="#231F20"/>
<path d="M256.063 62.816H230.93C230.871 62.8172 230.813 62.8066 230.758 62.7849C230.703 62.7632 230.654 62.7308 230.612 62.6897C230.57 62.6485 230.536 62.5994 230.514 62.5452C230.491 62.491 230.479 62.4328 230.479 62.374V37.2667C230.46 37.1996 230.457 37.129 230.47 37.0605C230.482 36.9919 230.511 36.9272 230.553 36.8715C230.595 36.8158 230.649 36.7707 230.712 36.7396C230.774 36.7085 230.843 36.6923 230.913 36.6923C230.982 36.6923 231.051 36.7085 231.114 36.7396C231.176 36.7707 231.23 36.8158 231.272 36.8715C231.314 36.9272 231.343 36.9919 231.356 37.0605C231.368 37.129 231.365 37.1996 231.346 37.2667V61.9234H256.055C256.122 61.9042 256.192 61.9009 256.261 61.9137C256.329 61.9264 256.394 61.9549 256.45 61.9969C256.505 62.0389 256.551 62.0933 256.582 62.1557C256.613 62.2182 256.629 62.287 256.629 62.3567C256.629 62.4265 256.613 62.4953 256.582 62.5577C256.551 62.6201 256.505 62.6745 256.45 62.7165C256.394 62.7585 256.329 62.787 256.261 62.7998C256.192 62.8125 256.122 62.8092 256.055 62.79L256.063 62.816Z" fill="#231F20"/>
<path d="M167.638 53.7334C166.951 53.7139 166.282 53.5065 165.705 53.1337C165.127 52.7609 164.663 52.2369 164.362 51.6187C163.348 49.6687 160.531 39.4854 160.029 35.4294C159.874 34.5194 160.081 33.5848 160.605 32.8253C161.13 32.0658 161.931 31.5416 162.837 31.3647C164.804 30.8187 167.499 31.3647 168.219 32.9854C168.808 34.32 169.848 36.8334 169.848 36.8334L169.025 37.18C169.025 37.18 167.933 34.6667 167.378 33.3407C166.919 32.2834 164.778 31.7374 163.045 32.2227C162.348 32.3474 161.729 32.7429 161.323 33.3226C160.917 33.9024 160.757 34.6193 160.878 35.3167C161.433 39.65 164.241 49.4694 165.142 51.2027C165.397 51.7561 165.827 52.2099 166.366 52.4936C166.905 52.7772 167.523 52.8749 168.123 52.7714C168.563 52.6281 168.937 52.3311 169.176 51.9347C169.415 51.5384 169.502 51.0693 169.423 50.6134C169.311 47.3374 164.891 35.36 164.847 35.2387C164.827 35.1835 164.818 35.1248 164.82 35.066C164.822 35.0072 164.836 34.9495 164.861 34.8962C164.887 34.8429 164.922 34.7951 164.966 34.7557C165.009 34.7163 165.061 34.6861 165.116 34.6667C165.227 34.627 165.348 34.632 165.455 34.6806C165.562 34.7291 165.645 34.8174 165.688 34.9267C165.87 35.4294 170.195 47.164 170.316 50.5787C170.408 51.2396 170.26 51.9116 169.899 52.4729C169.538 53.0342 168.988 53.4475 168.349 53.638C168.117 53.6991 167.878 53.7312 167.638 53.7334Z" fill="#231F20"/>
<path d="M289.535 140.868H238.531C238 140.902 237.469 140.799 236.988 140.57C236.507 140.341 236.093 139.993 235.784 139.559C235.484 139.034 235.318 138.443 235.3 137.839C235.281 137.235 235.412 136.635 235.68 136.093L237.413 131.907C237.973 130.658 238.86 129.584 239.98 128.797C241.099 128.01 242.41 127.539 243.775 127.435H294.787C295.317 127.405 295.847 127.509 296.327 127.738C296.807 127.967 297.222 128.312 297.534 128.743C297.834 129.268 298 129.859 298.018 130.464C298.036 131.068 297.906 131.668 297.638 132.21L295.905 136.405C295.343 137.653 294.455 138.727 293.334 139.513C292.213 140.299 290.9 140.767 289.535 140.868ZM243.792 128.267C242.602 128.363 241.461 128.778 240.486 129.467C239.512 130.156 238.741 131.095 238.254 132.184L236.521 136.379C236.303 136.788 236.189 137.245 236.189 137.709C236.189 138.173 236.303 138.63 236.521 139.039C236.758 139.339 237.066 139.574 237.417 139.726C237.768 139.877 238.151 139.939 238.531 139.906H289.535C290.716 139.819 291.853 139.416 292.827 138.741C293.801 138.066 294.576 137.143 295.073 136.067L296.806 131.881C297.024 131.47 297.139 131.011 297.139 130.546C297.139 130.081 297.024 129.622 296.806 129.211C296.576 128.904 296.271 128.659 295.921 128.5C295.571 128.341 295.187 128.273 294.804 128.301L243.792 128.267Z" fill="#D1D3D4"/>
</svg>
