<svg width="84" height="16" viewBox="0 0 84 16" fill="none" xmlns="http://www.w3.org/2000/svg">
<g clip-path="url(#clip0_933_49214)">
<path d="M6.35547 2L6.56001 2.01364L6.35547 2.02727V2Z" fill="#D9C935" stroke="#D9C935"/>
<path d="M7.9375 2L8.11477 2.01364L7.9375 2.02727V2Z" fill="#D9C935" stroke="#D9C935"/>
<path d="M5.94531 2.02727L6.04077 2.0409L5.94531 2.05454V2.02727Z" fill="#D9C935" stroke="#D9C935"/>
<path d="M8.40039 2.02727L8.49585 2.0409L8.40039 2.05454V2.02727Z" fill="#D9C935" stroke="#D9C935"/>
<path d="M5.64648 2.05455L5.71467 2.06819L5.64648 2.08182V2.05455Z" fill="#D9C935" stroke="#D9C935"/>
<path d="M8.70117 2.05455L8.76935 2.06819L8.70117 2.08182V2.05455Z" fill="#D9C935" stroke="#D9C935"/>
<path d="M5.40039 2.08182L5.46857 2.09545L5.40039 2.10909V2.08182Z" fill="#D9C935" stroke="#D9C935"/>
<path d="M32.5644 2.08182L32.5781 3.73182H32.5508L32.5644 2.08182Z" fill="#D9C935" stroke="#D9C935"/>
<path d="M77.9452 2.08182L77.9588 6.59545L77.9043 6.56818L77.9316 6.54091L77.9452 2.08182Z" fill="#D9C935" stroke="#D9C935"/>
<path d="M59.7558 2.10909L59.7695 13.1682H59.7422L59.7558 2.10909Z" fill="#D9C935" stroke="#D9C935"/>
<path d="M10.9648 2.76364L10.9921 2.81819" stroke="#D9C935"/>
<path d="M3.08196 2.87273L3.05469 2.92727" stroke="#D9C935"/>
<path d="M11.2637 3.06363L11.2909 3.11817" stroke="#D9C935"/>
<path d="M2.81048 3.14545L2.7832 3.19999" stroke="#D9C935"/>
<path d="M7.03711 3.71819L7.37802 3.73182L7.03711 3.74546V3.71819Z" fill="#D9C935" stroke="#D9C935"/>
<path d="M6.73629 3.85455L6.74993 11.3955H6.72266L6.73629 3.85455Z" fill="#D9C935" stroke="#D9C935"/>
<path d="M11.5913 3.88182L11.6049 6.14546L7.65039 6.13182L11.5777 6.11818L11.5913 3.88182Z" fill="#D9C935" stroke="#D9C935"/>
<path d="M2.4277 4.12727L2.44134 11.3136H2.41406L2.4277 4.12727Z" fill="#D9C935" stroke="#D9C935"/>
<path d="M63.3828 7.83636C63.4337 7.86 63.4383 7.88273 63.3964 7.90455L63.3828 13.1818V7.83636Z" fill="#D9C935" stroke="#D9C935"/>
<path d="M18.1365 8.46364L18.1501 8.54546L17.3047 8.53182L18.1229 8.51818L18.1365 8.46364Z" fill="#D9C935" stroke="#D9C935"/>
<path d="M53.2089 8.49091L53.2362 8.51818L54.0408 8.53181L53.1953 8.54545L53.2089 8.49091Z" fill="#D9C935" stroke="#D9C935"/>
<path d="M11.5918 8.57272L11.6054 11.5318H11.5781L11.5918 8.57272Z" fill="#D9C935" stroke="#D9C935"/>
<path d="M52.8555 10.2636H54.41L54.4509 10.3046L54.4373 10.3455L54.4237 10.2909H52.8555V10.2636Z" fill="#D9C935" stroke="#D9C935"/>
<path d="M22.9101 11.0818L22.8828 11.1364" stroke="#D9C935"/>
<path d="M7.0918 11.5182L7.32362 11.5318L7.0918 11.5455V11.5182Z" fill="#D9C935" stroke="#D9C935"/>
<path d="M11.3182 11.6545L11.3591 11.6682L11.2637 11.7091V11.6818L11.3182 11.6545Z" fill="#D9C935" stroke="#D9C935"/>
<path d="M2.75586 12.1454L2.78313 12.2" stroke="#D9C935"/>
<path d="M2.94531 12.3364L2.97259 12.3909" stroke="#D9C935"/>
<path d="M26.9727 12.9364L27.0408 12.9773L26.9999 12.9636L26.9727 12.9364Z" fill="#D9C935" stroke="#D9C935"/>
<path d="M5.3457 13.1818L5.41388 13.1955L5.3457 13.2091V13.1818Z" fill="#D9C935" stroke="#D9C935"/>
<path d="M5.5918 13.2091L5.65998 13.2227L5.5918 13.2364V13.2091Z" fill="#D9C935" stroke="#D9C935"/>
<path d="M5.89062 13.2364L6.01335 13.25L5.89062 13.2636V13.2364Z" fill="#D9C935" stroke="#D9C935"/>
<path d="M6.32812 13.2636L6.53267 13.2773L6.32812 13.2909V13.2636Z" fill="#D9C935" stroke="#D9C935"/>
<path d="M6.4375 2.24545H8.01932L8.04659 2.27273H8.42841L8.45568 2.3L8.94659 2.32727L8.97386 2.35454L9.4375 2.40909L9.87386 2.51818L10.392 2.70909C10.6266 2.82 10.8311 2.96091 11.0057 3.13182L11.2784 3.56818L11.3602 3.95V5.85909L11.3193 5.9H7.89659V3.78636L7.74659 3.58182L7.52841 3.5L7.11932 3.47273L6.71023 3.55454L6.53295 3.70454L6.50568 3.75909V11.5045L6.62841 11.6545L6.90114 11.7636H7.50114L7.69205 11.7091L7.84205 11.5864L7.89659 11.4773V8.81818H11.3602V11.5318L11.292 11.6818L8.37386 12.9909L7.88295 13.0182L7.85568 13.0455H6.4375L6.41023 13.0182H5.97386L5.94659 12.9909H5.64659L5.61932 12.9636L5.18295 12.9364L4.25568 12.7455L3.49205 12.4455C3.2575 12.3255 3.06205 12.1664 2.90568 11.9682C2.80205 11.8355 2.72932 11.6718 2.6875 11.4773V3.95C2.77659 3.55727 2.96295 3.26182 3.24659 3.06363L3.68295 2.79091L4.3375 2.54545L5.07386 2.38182L5.67386 2.32727L5.70114 2.3H5.97386L6.00114 2.27273H6.41023L6.4375 2.24545Z" fill="#FFED00" stroke="#FFED00"/>
<path d="M15.1773 2.32727H20.2092L20.2228 2.42273L20.3319 2.72273L20.3592 2.91363L20.5228 3.40454L20.5501 3.59545L20.6592 3.89545L20.6864 4.08636L20.8501 4.57727L20.8773 4.76818L20.9864 5.06818L21.0137 5.25909L21.1773 5.75L21.2046 5.94091L21.3137 6.24091L21.341 6.43182L22.6228 10.9864L22.5819 10.9727L17.7819 8.81818H17.6728L12.7773 11L15.1773 2.32727ZM17.7137 4.72727L17.0046 8.76363L17.0592 8.79091H18.4228L18.2864 7.89091L18.1501 7.26363V7.12727L18.041 6.66363L18.0137 6.36363L17.7137 4.72727Z" fill="#FFED00" stroke="#FFED00"/>
<path d="M23.959 2.32727H32.2908L32.3317 2.36818V3.5H30.0544L30.0408 3.51363V12.9636H27.0272L26.2226 12.6091V3.51363L26.209 3.5H23.959V2.32727Z" fill="#FFED00" stroke="#FFED00"/>
<path d="M33.3691 2.32727H38.3464L38.3873 2.36818L39.8328 6.73182V6.81363L40.2964 8.20454L40.3373 8.24545L42.0146 2.32727H47.251V12.9636H43.8691V6.32273H43.8419L41.551 12.9636H38.9191L38.9055 12.8955L36.301 6.36363L36.2873 12.9636H33.3828L33.3691 12.95V2.32727Z" fill="#FFED00" stroke="#FFED00"/>
<path d="M51.1368 2.32727H56.1005L56.1414 2.36818L56.1686 2.55909L56.3323 3.05L56.4959 3.73182L56.6596 4.22273L56.9596 5.39545L57.1232 5.88636L57.2868 6.56818L57.4505 7.05909L57.6141 7.74091L57.7777 8.23182L57.805 8.42273L59.0868 12.95L55.2959 12.9636L54.7232 10.5227V10.4136L54.6414 10.0864L54.6005 10.0455H52.6368L52.6232 10.1136L51.9414 12.9636H48.1914L48.1777 12.8682L50.005 6.37727L50.0323 6.18636L50.1959 5.69545L50.4959 4.52273L50.6596 4.03182L51.0959 2.36818L51.1368 2.32727ZM53.6323 4.72727L53.5777 4.83636L53.4414 5.79091L53.3868 5.95454L53.2505 6.90909L53.1959 7.07273L53.0596 8.02727L52.9232 8.68182C52.905 8.75454 52.9141 8.79091 52.9505 8.79091H54.3414L53.6323 4.72727Z" fill="#FFED00" stroke="#FFED00"/>
<path d="M60.0137 2.32727H64.4182L64.4319 2.36818L66.9546 7.67273L66.9682 2.32727H70.0909L70.1046 2.34091V12.9636H66.1364L66.1228 12.9227L63.1364 6.77273L63.1228 12.9636H60.0273L60.0137 12.95V2.32727Z" fill="#FFED00" stroke="#FFED00"/>
<path d="M71.2227 2.32727H75.6272L75.6681 2.36818L77.9045 7.14091L78.1908 7.67273L78.2045 2.32727H81.2999L81.3136 2.34091V12.9636H77.3727L77.3317 12.9227L74.3727 6.8L74.359 12.9636H71.2363L71.2227 12.95V2.32727Z" fill="#FFED00" stroke="#FFED00"/>
<path d="M17.7012 10.2909L26.6876 14.2318L8.72852 14.2455V14.2182L17.7012 10.2909Z" fill="#FFED00" stroke="#FFED00"/>
<path opacity="0.0235294" d="M8.12695 0.5H83.0451L83.0588 0.581818H58.2815L58.2679 0.595455V3.48636H58.2406L57.4497 0.581818H49.827L49.786 0.622727L49.0088 3.41818L48.9951 0.622727L48.9542 0.581818H40.7451L40.7315 0.622727L40.2406 2.17727V2.27273C40.186 2.29636 40.1679 2.27364 40.186 2.20455L39.6133 0.581818H22.227L22.2133 0.595455V2.96818H22.186L21.5315 0.581818H14.1542L14.1133 0.622727L12.8997 2.92727C12.6979 2.42909 12.407 2.02 12.027 1.7C11.6033 1.34182 11.0942 1.06909 10.4997 0.881818L9.87241 0.718182L9.27241 0.609091H9.0815L8.83604 0.554545H8.53604L8.50877 0.527273H8.12695V0.5Z" fill="#020202" stroke="#020202"/>
<path opacity="0.996078" d="M6.38281 0.5L7.2419 0.513636L6.38281 0.527273V0.5Z" fill="#2B2A29" stroke="#2B2A29"/>
<path opacity="0.996078" d="M7.2832 0.5L8.11502 0.513636L7.2832 0.527273V0.5Z" fill="#2B2A29" stroke="#2B2A29"/>
<path opacity="0.996078" d="M5.91797 0.527267L6.23161 0.540904L5.91797 0.55454V0.527267Z" fill="#2B2A29" stroke="#2B2A29"/>
<path opacity="0.996078" d="M8.23633 0.527267L8.52269 0.540904L8.23633 0.55454V0.527267Z" fill="#2B2A29" stroke="#2B2A29"/>
<path opacity="0.996078" d="M5.5918 0.55455L5.82362 0.568187L5.5918 0.581823V0.55455Z" fill="#2B2A29" stroke="#2B2A29"/>
<path opacity="0.996078" d="M8.64648 0.55455L8.85103 0.568187L8.64648 0.581823V0.55455Z" fill="#2B2A29" stroke="#2B2A29"/>
<path opacity="0.996078" d="M5.3457 0.581818L5.52298 0.595454L5.3457 0.60909V0.581818Z" fill="#2B2A29" stroke="#2B2A29"/>
<path opacity="0.996078" d="M8.91797 0.581818L9.06797 0.595454L8.91797 0.60909V0.581818Z" fill="#2B2A29" stroke="#2B2A29"/>
<path opacity="0.996078" d="M14.1558 0.581818H21.5195L21.5331 0.622727L21.5604 0.704545H21.5331L21.4922 0.60909H14.1558L14.1422 0.649999L13.9922 0.90909L14.0058 0.868181L14.1558 0.581818Z" fill="#2B2A29" stroke="#2B2A29"/>
<path opacity="0.996078" d="M22.2147 0.581818H39.6011L39.6147 0.622727L39.6692 0.75909H39.642L39.5738 0.60909H22.2556L22.242 0.622727V3.10455H22.2147L22.1602 2.91364H22.1874L22.2011 2.98182L22.2147 0.581818Z" fill="#2B2A29" stroke="#2B2A29"/>
<path opacity="0.996078" d="M40.7324 0.581818H48.9551L48.996 0.622727L49.0096 3.41818L49.0369 3.33636L49.0505 3.40454L48.9824 3.55454L48.9687 0.60909H40.7733L40.7324 0.649999L40.7187 0.718181L40.7051 0.649999L40.7324 0.581818Z" fill="#2B2A29" stroke="#2B2A29"/>
<path opacity="0.996078" d="M49.828 0.581818H57.4371L57.4507 0.649999L57.478 0.731818H57.4507L57.4235 0.60909H49.828L49.8144 0.649999H49.7871L49.828 0.581818Z" fill="#2B2A29" stroke="#2B2A29"/>
<path opacity="0.996078" d="M58.2695 0.581818L83.0604 0.595454L58.2967 0.60909V3.56818L58.2422 3.58182L58.2695 3.48636V0.581818Z" fill="#2B2A29" stroke="#2B2A29"/>
<path opacity="0.996078" d="M5.12695 0.609085L5.27695 0.622721L5.12695 0.636358V0.609085Z" fill="#2B2A29" stroke="#2B2A29"/>
<path opacity="0.996078" d="M9.13672 0.609085L9.28672 0.622721L9.13672 0.636358V0.609085Z" fill="#2B2A29" stroke="#2B2A29"/>
<path opacity="0.996078" d="M4.9375 0.636368L5.06023 0.650004L4.9375 0.663641V0.636368Z" fill="#2B2A29" stroke="#2B2A29"/>
<path opacity="0.996078" d="M9.32812 0.636368L9.45085 0.650004L9.32812 0.663641V0.636368Z" fill="#2B2A29" stroke="#2B2A29"/>
<path opacity="0.996078" d="M4.77344 0.663635L4.89616 0.677272L4.77344 0.690908V0.663635Z" fill="#2B2A29" stroke="#2B2A29"/>
<path opacity="0.996078" d="M9.49219 0.663635L9.61491 0.677272L9.49219 0.690908V0.663635Z" fill="#2B2A29" stroke="#2B2A29"/>
<path opacity="0.996078" d="M4.60938 0.690903L4.7321 0.704539L4.60938 0.718175V0.690903Z" fill="#2B2A29" stroke="#2B2A29"/>
<path opacity="0.996078" d="M9.6543 0.690903L9.74975 0.704539L9.6543 0.718175V0.690903Z" fill="#2B2A29" stroke="#2B2A29"/>
<path opacity="0.996078" d="M49.7733 0.690903L49.787 0.759085L49.7461 0.854539L49.7324 0.786357L49.7733 0.690903Z" fill="#2B2A29" stroke="#2B2A29"/>
<path opacity="0.996078" d="M4.47266 0.718185L4.56811 0.731822L4.47266 0.745458V0.718185Z" fill="#2B2A29" stroke="#2B2A29"/>
<path opacity="0.996078" d="M9.79102 0.718185L9.88647 0.731822L9.79102 0.745458V0.718185Z" fill="#2B2A29" stroke="#2B2A29"/>
<path opacity="0.996078" d="M4.33761 0.745453L4.43306 0.759089L4.22852 0.799998V0.772726L4.33761 0.745453Z" fill="#2B2A29" stroke="#2B2A29"/>
<path opacity="0.996078" d="M9.92773 0.745453L9.99592 0.759089L9.92773 0.772726V0.745453Z" fill="#2B2A29" stroke="#2B2A29"/>
<path opacity="0.996078" d="M21.5723 0.745453L21.6132 0.895453H21.5859L21.5723 0.745453Z" fill="#2B2A29" stroke="#2B2A29"/>
<path opacity="0.996078" d="M10.0371 0.77272L10.1053 0.786357L10.0371 0.799993V0.77272Z" fill="#2B2A29" stroke="#2B2A29"/>
<path opacity="0.996078" d="M57.4922 0.77272L57.5331 0.92272H57.5058L57.4922 0.77272Z" fill="#2B2A29" stroke="#2B2A29"/>
<path opacity="0.996078" d="M4.11914 0.800003L4.18732 0.813639L4.11914 0.827276V0.800003Z" fill="#2B2A29" stroke="#2B2A29"/>
<path opacity="0.996078" d="M10.1465 0.800003L10.2147 0.813639L10.1465 0.827276V0.800003Z" fill="#2B2A29" stroke="#2B2A29"/>
<path opacity="0.996078" d="M4.00977 0.827271L4.07795 0.840907L4.00977 0.854543V0.827271Z" fill="#2B2A29" stroke="#2B2A29"/>
<path opacity="0.996078" d="M10.2559 0.827271L10.4059 0.86818L10.3377 0.881816L10.2559 0.854543V0.827271Z" fill="#2B2A29" stroke="#2B2A29"/>
<path opacity="0.996078" d="M40.664 0.827271L40.6776 0.895452L40.6367 0.990907L40.623 0.922725L40.664 0.827271Z" fill="#2B2A29" stroke="#2B2A29"/>
<path opacity="0.996078" d="M3.90018 0.854538L3.96836 0.868174L3.81836 0.909083V0.881811L3.90018 0.854538Z" fill="#2B2A29" stroke="#2B2A29"/>
<path opacity="0.996078" d="M10.4453 0.881821L10.7317 0.977275L10.6908 0.990912L10.4453 0.909093V0.881821Z" fill="#2B2A29" stroke="#2B2A29"/>
<path opacity="0.996078" d="M49.7186 0.881821L49.7323 0.950002L49.6914 1.04546L49.6777 0.977275L49.7186 0.881821Z" fill="#2B2A29" stroke="#2B2A29"/>
<path opacity="0.996078" d="M13.9642 0.936371L13.9506 0.97728L13.7188 1.42728L13.7324 1.38637L13.9642 0.936371Z" fill="#2B2A29" stroke="#2B2A29"/>
<path opacity="0.996078" d="M21.627 0.936371L21.6679 1.08637H21.6406L21.627 0.936371Z" fill="#2B2A29" stroke="#2B2A29"/>
<path opacity="0.996078" d="M3.54673 0.963638L3.61491 0.977275L3.49219 1.01818V0.990911L3.54673 0.963638Z" fill="#2B2A29" stroke="#2B2A29"/>
<path opacity="0.996078" d="M39.7363 0.963638L39.8863 1.38637H39.8591L39.7363 0.963638Z" fill="#2B2A29" stroke="#2B2A29"/>
<path opacity="0.996078" d="M57.5469 0.963638L57.5878 1.11364H57.5605L57.5469 0.963638Z" fill="#2B2A29" stroke="#2B2A29"/>
<path opacity="0.996078" d="M10.7734 0.990906C11.0062 1.05818 11.2107 1.15363 11.3871 1.27727L11.3462 1.26363L10.7734 1.01818V0.990906Z" fill="#2B2A29" stroke="#2B2A29"/>
<path opacity="0.996078" d="M3.4098 1.01819L3.45071 1.03182L3.27344 1.10001V1.07273L3.4098 1.01819Z" fill="#2B2A29" stroke="#2B2A29"/>
<path opacity="0.996078" d="M49.664 1.07272L49.6777 1.14091H49.6504L49.664 1.07272Z" fill="#2B2A29" stroke="#2B2A29"/>
<path opacity="0.996078" d="M3.19098 1.10001L3.23189 1.11364L3.02734 1.2091V1.18182L3.19098 1.10001Z" fill="#2B2A29" stroke="#2B2A29"/>
<path opacity="0.996078" d="M40.5819 1.10001L40.5955 1.16819L40.5273 1.34546L40.5137 1.27728L40.5819 1.10001Z" fill="#2B2A29" stroke="#2B2A29"/>
<path opacity="0.996078" d="M21.6816 1.12727L21.6952 1.19546H21.668L21.6816 1.12727Z" fill="#2B2A29" stroke="#2B2A29"/>
<path opacity="0.996078" d="M57.5996 1.15454L57.6132 1.22272H57.5859L57.5996 1.15454Z" fill="#2B2A29" stroke="#2B2A29"/>
<path opacity="0.996078" d="M49.6366 1.18182L49.6502 1.25001L49.6093 1.34546L49.5957 1.27728L49.6366 1.18182Z" fill="#2B2A29" stroke="#2B2A29"/>
<path opacity="0.996078" d="M2.94691 1.20909L2.98782 1.22273L2.81055 1.31818L2.83782 1.26364L2.94691 1.20909Z" fill="#2B2A29" stroke="#2B2A29"/>
<path opacity="0.996078" d="M21.709 1.23636L21.7499 1.38636H21.7226L21.709 1.23636Z" fill="#2B2A29" stroke="#2B2A29"/>
<path opacity="0.996078" d="M57.627 1.26364L57.6679 1.41364H57.6406L57.627 1.26364Z" fill="#2B2A29" stroke="#2B2A29"/>
<path opacity="0.996078" d="M11.4277 1.29091C11.7932 1.48909 12.1068 1.73909 12.3686 2.04091L12.7505 2.61364L12.6959 2.58636C12.5359 2.25545 12.3223 1.97818 12.055 1.75455L11.455 1.34545L11.4277 1.29091Z" fill="#2B2A29" stroke="#2B2A29"/>
<path opacity="0.996078" d="M2.75568 1.31818L2.72841 1.37272C2.29386 1.58363 1.93477 1.86999 1.65114 2.23181C1.46932 2.44999 1.31932 2.69999 1.20114 2.98181L1.1875 2.9409C1.38023 2.51545 1.63932 2.15636 1.96477 1.86363C2.1975 1.6509 2.46114 1.46909 2.75568 1.31818Z" fill="#2B2A29" stroke="#2B2A29"/>
<path opacity="0.996078" d="M49.5819 1.37273L49.5956 1.44091L49.5547 1.53636L49.541 1.46818L49.5819 1.37273Z" fill="#2B2A29" stroke="#2B2A29"/>
<path opacity="0.996078" d="M21.7637 1.42728L21.8046 1.57728H21.7773L21.7637 1.42728Z" fill="#2B2A29" stroke="#2B2A29"/>
<path opacity="0.996078" d="M13.6908 1.45454L13.6772 1.49545L13.4727 1.89091L13.4863 1.85L13.6908 1.45454Z" fill="#2B2A29" stroke="#2B2A29"/>
<path opacity="0.996078" d="M40.4725 1.45454L40.4862 1.52273L40.4453 1.61818L40.4316 1.55L40.4725 1.45454Z" fill="#2B2A29" stroke="#2B2A29"/>
<path opacity="0.996078" d="M57.6816 1.45454L57.7225 1.60454H57.6953L57.6816 1.45454Z" fill="#2B2A29" stroke="#2B2A29"/>
<path opacity="0.996078" d="M39.9277 1.50909L40.0777 1.93182H40.0505L39.9277 1.50909Z" fill="#2B2A29" stroke="#2B2A29"/>
<path opacity="0.996078" d="M49.5273 1.56363L49.5409 1.63181H49.5137L49.5273 1.56363Z" fill="#2B2A29" stroke="#2B2A29"/>
<path opacity="0.996078" d="M21.8183 1.61818L21.832 1.68636H21.8047L21.8183 1.61818Z" fill="#2B2A29" stroke="#2B2A29"/>
<path opacity="0.996078" d="M57.7363 1.64546L57.7499 1.71364H57.7227L57.7363 1.64546Z" fill="#2B2A29" stroke="#2B2A29"/>
<path opacity="0.996078" d="M49.4999 1.67273L49.5135 1.74091L49.4726 1.83637L49.459 1.76818L49.4999 1.67273Z" fill="#2B2A29" stroke="#2B2A29"/>
<path opacity="0.996078" d="M21.8457 1.72728L21.8866 1.87728H21.8593L21.8457 1.72728Z" fill="#2B2A29" stroke="#2B2A29"/>
<path opacity="0.996078" d="M40.3904 1.72728L40.4041 1.79546L40.3359 1.97273L40.3223 1.90455L40.3904 1.72728Z" fill="#2B2A29" stroke="#2B2A29"/>
<path opacity="0.996078" d="M57.7637 1.75455L57.8046 1.90455H57.7773L57.7637 1.75455Z" fill="#2B2A29" stroke="#2B2A29"/>
<path opacity="0.996078" d="M49.4452 1.86363L49.4588 1.93181L49.4179 2.02727L49.4043 1.95909L49.4452 1.86363Z" fill="#2B2A29" stroke="#2B2A29"/>
<path opacity="0.996078" d="M13.4466 1.91818L13.433 1.95909L13.2012 2.40909L13.2148 2.36818L13.4466 1.91818Z" fill="#2B2A29" stroke="#2B2A29"/>
<path opacity="0.996078" d="M21.9004 1.91818L21.9413 2.06818H21.914L21.9004 1.91818Z" fill="#2B2A29" stroke="#2B2A29"/>
<path opacity="0.996078" d="M57.8184 1.94545L57.8593 2.09545H57.832L57.8184 1.94545Z" fill="#2B2A29" stroke="#2B2A29"/>
<path opacity="0.996078" d="M49.3905 2.05455L49.4042 2.12273L49.3632 2.21819L49.3496 2.15L49.3905 2.05455Z" fill="#2B2A29" stroke="#2B2A29"/>
<path opacity="0.996078" d="M40.2831 2.08182L40.2967 2.15L40.2558 2.24545L40.2422 2.17727L40.2831 2.08182Z" fill="#2B2A29" stroke="#2B2A29"/>
<path opacity="0.996078" d="M21.9551 2.10909L21.996 2.25909H21.9687L21.9551 2.10909Z" fill="#2B2A29" stroke="#2B2A29"/>
<path opacity="0.996078" d="M40.1465 2.13637L40.1874 2.27273C40.2365 2.25273 40.2547 2.26637 40.2419 2.31364L40.1874 2.34091L40.1465 2.13637Z" fill="#2B2A29" stroke="#2B2A29"/>
<path opacity="0.996078" d="M57.873 2.13637L57.914 2.28637H57.8867L57.873 2.13637Z" fill="#2B2A29" stroke="#2B2A29"/>
<path opacity="0.996078" d="M49.3359 2.24545L49.3495 2.31363H49.3223L49.3359 2.24545Z" fill="#2B2A29" stroke="#2B2A29"/>
<path opacity="0.996078" d="M22.0097 2.3L22.0234 2.36818H21.9961L22.0097 2.3Z" fill="#2B2A29" stroke="#2B2A29"/>
<path opacity="0.996078" d="M57.9277 2.32727L57.9413 2.39545H57.9141L57.9277 2.32727Z" fill="#2B2A29" stroke="#2B2A29"/>
<path opacity="0.996078" d="M49.3104 2.35454L49.3241 2.42272L49.2832 2.51817L49.2695 2.44999L49.3104 2.35454Z" fill="#2B2A29" stroke="#2B2A29"/>
<path opacity="0.996078" d="M22.0371 2.40909L22.078 2.55909H22.0507L22.0371 2.40909Z" fill="#2B2A29" stroke="#2B2A29"/>
<path opacity="0.996078" d="M13.1728 2.43637L13.1592 2.47728L12.9001 2.98183L12.7773 2.72273H12.8046L12.9001 2.92728L13.1728 2.43637Z" fill="#2B2A29" stroke="#2B2A29"/>
<path opacity="0.996078" d="M57.9551 2.43637L57.996 2.58637H57.9687L57.9551 2.43637Z" fill="#2B2A29" stroke="#2B2A29"/>
<path opacity="0.996078" d="M49.2558 2.54546L49.2694 2.61364L49.2285 2.70909L49.2148 2.64091L49.2558 2.54546Z" fill="#2B2A29" stroke="#2B2A29"/>
<path opacity="0.996078" d="M22.0918 2.60001L22.1327 2.75001H22.1054L22.0918 2.60001Z" fill="#2B2A29" stroke="#2B2A29"/>
<path opacity="0.996078" d="M58.0098 2.62727L58.0507 2.77727H58.0234L58.0098 2.62727Z" fill="#2B2A29" stroke="#2B2A29"/>
<path opacity="0.996078" d="M49.2011 2.73636L49.2148 2.80454H49.1875L49.2011 2.73636Z" fill="#2B2A29" stroke="#2B2A29"/>
<path opacity="0.996078" d="M22.1464 2.79091L22.1601 2.85909H22.1328L22.1464 2.79091Z" fill="#2B2A29" stroke="#2B2A29"/>
<path opacity="0.996078" d="M58.0644 2.81818L58.0781 2.88636H58.0508L58.0644 2.81818Z" fill="#2B2A29" stroke="#2B2A29"/>
<path opacity="0.996078" d="M49.1737 2.84546L49.1874 2.91364L49.1464 3.0091L49.1328 2.94091L49.1737 2.84546Z" fill="#2B2A29" stroke="#2B2A29"/>
<path opacity="0.996078" d="M58.0918 2.92728L58.1327 3.07728H58.1054L58.0918 2.92728Z" fill="#2B2A29" stroke="#2B2A29"/>
<path opacity="0.996078" d="M1.17372 3.00909L1.18736 3.05L1.14645 3.11819L1.13281 3.07728L1.17372 3.00909Z" fill="#2B2A29" stroke="#2B2A29"/>
<path opacity="0.996078" d="M49.119 3.03636L49.1327 3.10454L49.0918 3.2L49.0781 3.13182L49.119 3.03636Z" fill="#2B2A29" stroke="#2B2A29"/>
<path opacity="0.996078" d="M58.1465 3.11818L58.1874 3.26818H58.1601L58.1465 3.11818Z" fill="#2B2A29" stroke="#2B2A29"/>
<path opacity="0.996078" d="M49.0644 3.22728L49.0781 3.29546H49.0508L49.0644 3.22728Z" fill="#2B2A29" stroke="#2B2A29"/>
<path opacity="0.996078" d="M1.06442 3.3091L1.07805 3.37728H1.05078L1.06442 3.3091Z" fill="#2B2A29" stroke="#2B2A29"/>
<path opacity="0.996078" d="M58.2012 3.3091L58.2421 3.4591H58.2148L58.2012 3.3091Z" fill="#2B2A29" stroke="#2B2A29"/>
<path opacity="0.996078" d="M1.03707 3.41818L1.05071 3.48636H1.02344L1.03707 3.41818Z" fill="#2B2A29" stroke="#2B2A29"/>
<path opacity="0.996078" d="M1.00973 3.52727L1.02337 3.62272H0.996094L1.00973 3.52727Z" fill="#2B2A29" stroke="#2B2A29"/>
<path opacity="0.996078" d="M0.982386 3.66364L0.996023 3.78636H0.96875L0.982386 3.66364Z" fill="#2B2A29" stroke="#2B2A29"/>
<path opacity="0.996078" d="M0.955043 3.85455L0.968679 4.22273H0.941406L0.955043 3.85455Z" fill="#2B2A29" stroke="#2B2A29"/>
<path opacity="0.996078" d="M0.955043 11.2182L0.968679 11.5591H0.941406L0.955043 11.2182Z" fill="#2B2A29" stroke="#2B2A29"/>
<path opacity="0.996078" d="M0.982386 11.6L0.996023 11.75H0.96875L0.982386 11.6Z" fill="#2B2A29" stroke="#2B2A29"/>
<path opacity="0.996078" d="M1.00973 11.7909L1.02337 11.8591H0.996094L1.00973 11.7909Z" fill="#2B2A29" stroke="#2B2A29"/>
<path opacity="0.996078" d="M1.03711 11.9L1.07802 12.0773H1.05075L1.03711 11.9Z" fill="#2B2A29" stroke="#2B2A29"/>
<path opacity="0.996078" d="M1.11914 12.2L1.24187 12.4864H1.2146L1.11914 12.2Z" fill="#2B2A29" stroke="#2B2A29"/>
<path opacity="0.996078" d="M1.2832 12.5818C1.46138 12.9218 1.68866 13.2127 1.96502 13.4545L2.60593 13.9045L2.56502 13.8909C2.20502 13.7055 1.90048 13.4645 1.65138 13.1682L1.35138 12.7591L1.2832 12.5818Z" fill="#2B2A29" stroke="#2B2A29"/>
<path opacity="0.996078" d="M53.619 13.3727L53.6599 13.4682H53.6327L53.619 13.4273L53.5918 13.5364L53.5781 13.4409L53.619 13.3727Z" fill="#2B2A29" stroke="#2B2A29"/>
<path opacity="0.996078" d="M53.6738 13.5091L53.6874 13.6045H53.6602L53.6738 13.5091Z" fill="#2B2A29" stroke="#2B2A29"/>
<path opacity="0.996078" d="M53.5644 13.5636L53.5781 13.6318H53.5508L53.5644 13.5636Z" fill="#2B2A29" stroke="#2B2A29"/>
<path opacity="0.996078" d="M53.7011 13.6454L53.7148 13.7136H53.6875L53.7011 13.6454Z" fill="#2B2A29" stroke="#2B2A29"/>
<path opacity="0.996078" d="M53.5371 13.6727L53.5507 13.7409H53.5234L53.5371 13.6727Z" fill="#2B2A29" stroke="#2B2A29"/>
<path opacity="0.996078" d="M53.7285 13.7545L53.7421 13.8227H53.7148L53.7285 13.7545Z" fill="#2B2A29" stroke="#2B2A29"/>
<path opacity="0.996078" d="M53.5097 13.7818L53.5234 13.85H53.4961L53.5097 13.7818Z" fill="#2B2A29" stroke="#2B2A29"/>
<path opacity="0.996078" d="M53.7559 13.8636L53.7968 14.0682H53.7695L53.7559 13.8636Z" fill="#2B2A29" stroke="#2B2A29"/>
<path opacity="0.996078" d="M53.4823 13.8909L53.496 13.9864L53.455 14.1091L53.4414 14.0136L53.4823 13.8909Z" fill="#2B2A29" stroke="#2B2A29"/>
<path opacity="0.996078" d="M2.64648 13.9182L2.98739 14.0955L2.94648 14.1091L2.67376 13.9727L2.64648 13.9182Z" fill="#2B2A29" stroke="#2B2A29"/>
<path opacity="0.996078" d="M3.02734 14.1091L3.17734 14.1773L3.13643 14.1909L3.02734 14.1364V14.1091Z" fill="#2B2A29" stroke="#2B2A29"/>
<path opacity="0.996078" d="M53.8105 14.1091L53.8241 14.1773H53.7969L53.8105 14.1091Z" fill="#2B2A29" stroke="#2B2A29"/>
<path opacity="0.996078" d="M53.4277 14.1364L53.4413 14.2045H53.4141L53.4277 14.1364Z" fill="#2B2A29" stroke="#2B2A29"/>
<path opacity="0.996078" d="M3.21875 14.1909L3.3142 14.2318L3.2733 14.2454L3.21875 14.1909Z" fill="#2B2A29" stroke="#2B2A29"/>
<path opacity="0.996078" d="M53.8359 14.2182L53.8495 14.2864H53.8223L53.8359 14.2182Z" fill="#2B2A29" stroke="#2B2A29"/>
<path opacity="0.996078" d="M53.4004 14.2455L53.414 14.3136H53.3867L53.4004 14.2455Z" fill="#2B2A29" stroke="#2B2A29"/>
<path opacity="0.996078" d="M76.0918 14.2455L76.3509 14.6682H76.3236L76.1191 14.3L76.0918 14.6818V14.2455Z" fill="#2B2A29" stroke="#2B2A29"/>
<path opacity="0.996078" d="M64.9102 14.3L65.0329 14.5045L64.9783 14.4773L64.9374 14.3818L64.9102 14.6818V14.3Z" fill="#2B2A29" stroke="#2B2A29"/>
<path opacity="0.996078" d="M53.8632 14.3273L53.8769 14.4227H53.8496L53.8632 14.3273Z" fill="#2B2A29" stroke="#2B2A29"/>
<path opacity="0.996078" d="M3.68164 14.3546L3.83164 14.3955L3.76346 14.4091L3.68164 14.3818V14.3546Z" fill="#2B2A29" stroke="#2B2A29"/>
<path opacity="0.996078" d="M53.3729 14.3546L53.3866 14.45L53.3457 14.5727L53.332 14.4773L53.3729 14.3546Z" fill="#2B2A29" stroke="#2B2A29"/>
<path opacity="0.996078" d="M3.87305 14.4091L3.94123 14.4227L3.87305 14.4364V14.4091Z" fill="#2B2A29" stroke="#2B2A29"/>
<path opacity="0.996078" d="M3.98242 14.4364L4.0506 14.45L3.98242 14.4636V14.4364Z" fill="#2B2A29" stroke="#2B2A29"/>
<path opacity="0.996078" d="M4.0918 14.4636L4.15998 14.4773L4.0918 14.4909V14.4636Z" fill="#2B2A29" stroke="#2B2A29"/>
<path opacity="0.996078" d="M53.8906 14.4636L53.9042 14.5318H53.877L53.8906 14.4636Z" fill="#2B2A29" stroke="#2B2A29"/>
<path opacity="0.996078" d="M4.20117 14.4909L4.29663 14.5045L4.20117 14.5182V14.4909Z" fill="#2B2A29" stroke="#2B2A29"/>
<path opacity="0.996078" d="M4.33594 14.5182L4.43139 14.5318L4.33594 14.5455V14.5182Z" fill="#2B2A29" stroke="#2B2A29"/>
<path opacity="0.996078" d="M4.47266 14.5455L4.56811 14.5591L4.47266 14.5727V14.5455Z" fill="#2B2A29" stroke="#2B2A29"/>
<path opacity="0.996078" d="M65.0469 14.5455L65.1151 14.6682H65.0878L65.0469 14.5455Z" fill="#2B2A29" stroke="#2B2A29"/>
<path opacity="0.996078" d="M4.60891 14.5727L4.84073 14.6136L2.94528 15.4727L2.93164 15.4182L4.73164 14.6136L4.60891 14.6V14.5727Z" fill="#2B2A29" stroke="#2B2A29"/>
<path opacity="0.996078" d="M53.9179 14.5727L53.9316 14.6409H53.9043L53.9179 14.5727Z" fill="#2B2A29" stroke="#2B2A29"/>
<path opacity="0.996078" d="M53.3183 14.6L53.332 14.6682H53.3047L53.3183 14.6Z" fill="#2B2A29" stroke="#2B2A29"/>
<path opacity="0.996078" d="M30.8184 14.6818L31.0093 14.7364L32.6593 15.4864L32.6184 15.5L32.5365 15.4455H32.482L30.9275 14.7636L30.8184 14.7091V14.6818Z" fill="#2B2A29" stroke="#2B2A29"/>
<path opacity="0.996078" d="M2.86509 15.4454L2.906 15.4591L2.81055 15.5V15.4727L2.86509 15.4454Z" fill="#2B2A29" stroke="#2B2A29"/>
<path d="M6.57322 2H7.90959L7.93686 2.02727H8.37322L8.4005 2.05455H8.67322L8.7005 2.08182L9.10959 2.10909L9.68231 2.21818L10.2278 2.38182L10.746 2.62727C10.9423 2.74182 11.1105 2.88273 11.2505 3.05C11.416 3.23 11.525 3.46636 11.5778 3.75909V6.11818H7.6505V3.84091L7.52777 3.74545L7.03686 3.71818L6.7505 3.8L6.72322 3.86818V11.3955L6.9005 11.5182L7.30959 11.5455L7.58231 11.4909L7.6505 11.4227V8.61364L7.69141 8.57273H11.5778V11.5727L11.3323 11.6545L11.3596 11.5318V8.81818H7.89595V11.4773L7.77322 11.6545L7.5005 11.7636H6.9005L6.70959 11.7091L6.53232 11.5591L6.50504 11.5045V3.75909L6.65504 3.58182L6.87322 3.5L7.30959 3.47273L7.33686 3.5L7.63686 3.52727L7.86868 3.70455L7.89595 3.78636V5.9H11.3187L11.3596 5.85909V3.95L11.2778 3.56818C11.2014 3.38091 11.0969 3.22182 10.9641 3.09091L10.3914 2.70909L9.87322 2.51818L9.43686 2.40909H9.3005L8.94595 2.32727L8.45504 2.3L8.42777 2.27273H8.04595L8.01868 2.24545H6.43686L6.40959 2.27273H6.0005L5.97322 2.3L5.45504 2.32727L4.33686 2.54545C4.0005 2.63636 3.7005 2.76364 3.43686 2.92727L2.93232 3.37727C2.81777 3.53545 2.73595 3.72636 2.68686 3.95V11.4773C2.77232 11.8191 2.9405 12.0782 3.19141 12.2545L3.84595 12.6091L4.25504 12.7455L4.85504 12.8818L5.37322 12.9364L5.4005 12.9636H5.61868L5.64595 12.9909L6.40959 13.0182L6.43686 13.0455H7.85504L7.88232 13.0182L8.34595 12.9909V13.0182L7.71868 13.2909H6.54595L6.51868 13.2636H6.02777L6.0005 13.2364H5.67322L5.64595 13.2091L5.20959 13.1818L4.14595 12.9636L3.38232 12.6636C3.15686 12.5436 2.96141 12.3936 2.79595 12.2136L2.52322 11.7773L2.44141 11.4773V3.95C2.5305 3.50273 2.72595 3.16182 3.02777 2.92727C3.35868 2.65818 3.75868 2.45818 4.22777 2.32727L5.26413 2.10909L5.7005 2.08182L5.72777 2.05455H6.02777L6.05504 2.02727H6.54595L6.57322 2Z" fill="#FAF9F6" stroke="#FAF9F6"/>
<path d="M15.0285 2.08182H20.374L20.4149 2.12273L20.6331 2.99545L20.7967 3.48636L20.9603 4.16818L21.124 4.65909L21.424 5.83182L22.924 11.1227L22.8831 11.1091L22.624 10.9864L20.224 2.32727H15.1922L15.1785 2.39545L13.7603 7.41364L13.7331 7.60454L13.5694 8.09545L13.2694 9.26818L13.1058 9.75909L12.8058 10.9318L12.7376 11.0545L12.4922 11.1636L12.4785 11.1227L13.4603 7.68636L13.8967 6.02273L14.0603 5.53182L14.3603 4.35909L14.524 3.86818L14.9603 2.20454L15.0285 2.08182Z" fill="#FAF9F6" stroke="#FAF9F6"/>
<path d="M23.7148 2.08182H32.5376L32.5512 2.09545V3.74545H30.3012L30.2876 3.75909V13.2091H27.5739L27.0421 12.9773L30.0421 12.9636V3.51364L30.0558 3.5H32.333V2.36818L32.2921 2.32727H23.9603V3.5H26.2103L26.2239 3.51364V12.5955L26.183 12.5818L25.9785 12.4864V3.75909L25.9648 3.74545H23.7148V2.08182Z" fill="#FAF9F6" stroke="#FAF9F6"/>
<path d="M33.123 2.08182H38.5367L38.5503 2.15L40.3094 7.42727L41.823 2.12273L41.864 2.08182H47.4549L47.4958 2.12273V13.1682L47.4549 13.2091H43.664L43.623 13.1682L43.6094 7.72727L41.714 13.2091H38.7821L38.7412 13.1682L36.5458 7.64545L36.5321 13.2091H33.1367L33.123 13.1955V2.08182ZM33.3685 2.32727V12.9636H33.3958H36.2867L36.314 6.36364L38.9049 12.9091L38.9321 12.9636H41.5503L43.8412 6.33636H43.8685V12.9636H47.2503V2.32727H42.014L40.3503 8.24545L40.2958 8.21818L39.8321 6.82727V6.74545L38.3867 2.38182L38.3594 2.32727H33.3685Z" fill="#FAF9F6" stroke="#FAF9F6"/>
<path d="M50.9314 2.08182H56.2905L56.3042 2.15L56.6042 3.13182L56.6314 3.32273L57.7223 7.14091L58.3496 9.48636L58.5132 9.97727L58.6769 10.6591L58.8405 11.15L59.0042 11.8318L59.1678 12.3227L59.386 13.2091H55.1451L55.1042 13.1682L54.4496 10.4136V10.3045L54.4087 10.2636H52.8542L52.8132 10.3045L52.1314 13.2091H47.8632L47.8496 13.1409L50.9314 2.08182ZM51.1496 2.32727L51.0951 2.38182L50.6587 4.04545L50.4951 4.53636L50.1951 5.70909L50.0314 6.2L50.0042 6.39091L48.1769 12.8818L48.2042 12.9636H51.9405L52.6223 10.1273L52.6496 10.0455H54.6132L54.6405 10.1L54.7223 10.4273V10.5364L55.2951 12.9636H59.086L57.8042 8.43636L57.7769 8.24545L57.6132 7.75454L57.4496 7.07273L57.286 6.58182L57.1223 5.9L56.9587 5.40909L56.6587 4.23636L56.4951 3.74545L56.3314 3.06364L56.1678 2.57273L56.1405 2.38182L56.1132 2.32727H51.1496Z" fill="#FAF9F6" stroke="#FAF9F6"/>
<path d="M59.7695 2.08182H64.5559L64.5968 2.12273L66.7104 6.60909L66.7241 2.12273L66.765 2.08182H70.3377L70.3513 2.09545V13.2091H66.0013L65.9604 13.1682L63.3832 7.83636L63.3695 13.2091H59.7832L59.7695 13.1955V2.08182ZM60.015 2.32727V12.9636H60.0423H63.1241L63.1513 6.77273L66.1241 12.9364L66.1513 12.9636H70.1059V2.35454V2.32727H66.9695V7.67273L64.4332 2.38182V2.32727H60.015Z" fill="#FAF9F6" stroke="#FAF9F6"/>
<path d="M70.9785 2.08182H75.7649L75.8058 2.12273L77.9467 6.60909L77.9603 2.08182H81.5467L81.5603 2.09545V13.2091H77.2103L77.1967 13.1682L74.6194 7.86363L74.6058 13.1682L74.5649 13.2091H70.9922L70.9785 13.1955V2.08182ZM71.224 2.32727V12.9636H71.2512H74.3603L74.3876 6.8L77.3331 12.9364L77.3876 12.9636H81.3149V2.35454V2.32727H78.2058V7.67273L77.9058 7.15454L75.6694 2.38182L75.6422 2.32727H71.224Z" fill="#FAF9F6" stroke="#FAF9F6"/>
<path d="M17.7013 4.72728L18.015 6.35001L18.0422 6.65001L18.1513 7.11364V7.25001L18.2877 7.87728L18.424 8.79092H17.0468L17.0059 8.75001L17.7013 4.72728ZM17.715 6.14546L17.3059 8.4091C17.2877 8.50001 17.2968 8.54546 17.3331 8.54546H18.1513L17.9059 7.26364V7.12728L17.8513 6.96364L17.7695 6.36364L17.715 6.14546Z" fill="#FAF9F6" stroke="#FAF9F6"/>
<path d="M53.618 4.72728L54.3407 8.79092H52.9362C52.918 8.79092 52.9134 8.75001 52.9225 8.66819L53.0589 8.01364L53.1952 7.0591L53.2498 6.89546L53.3862 5.94092L53.4407 5.77728L53.5771 4.82273L53.618 4.72728ZM53.6316 6.14546L53.1952 8.51819L53.2225 8.54546H54.0407V8.38183L53.9862 8.21819L53.7134 6.55455L53.6316 6.14546Z" fill="#FAF9F6" stroke="#FAF9F6"/>
<path d="M17.6729 10.0455L17.8366 10.0727L27.8593 14.4773L7.58203 14.4909V14.4636L17.6729 10.0455ZM17.7138 10.2909L8.74112 14.2182V14.2455H26.6866L17.7138 10.2909Z" fill="#FAF9F6" stroke="#FAF9F6"/>
<path d="M7.25504 0.5L7.28232 0.527273H8.20959L8.23686 0.554545L8.89141 0.581818L8.91868 0.609091H9.10959L9.13686 0.636364L9.62777 0.690909L10.4187 0.881818C11.1987 1.11091 11.8305 1.48818 12.3141 2.01364C12.5614 2.28455 12.7569 2.60727 12.9005 2.98182L14.1414 0.609091H21.4914L21.5323 0.65L22.1596 2.96818L22.2278 3.11818L22.2414 0.609091H39.5732L39.6141 0.65L40.2005 2.35455L40.296 2.15L40.6778 0.813636L40.7732 0.609091H48.9687V3.54091H48.996L49.8141 0.609091H57.4096L57.4232 0.65L57.5869 1.14091L58.2414 3.58182L58.296 3.56818V0.622727L58.3096 0.609091H83.0596V14.6818H76.3505L76.0914 14.2455L76.0778 14.6818H65.1278L65.1141 14.6409L64.9096 14.3L64.896 14.6818H53.946L53.9323 14.5864L53.6596 13.4136L53.6187 13.3727L53.5778 13.4409V13.55L53.305 14.6818L30.805 14.6955L32.5096 15.4727H32.5641L32.605 15.4864L2.86413 15.5V15.4727L2.91868 15.4455H2.97322L4.84141 14.6136L3.84595 14.4091L3.0005 14.1091C2.48777 13.8855 2.05595 13.5809 1.70504 13.1955C1.52322 12.9955 1.36868 12.7682 1.24141 12.5136L1.07777 12.1045L0.968679 11.5864V11.2318L0.941406 11.2045V4.25L0.968679 4.22273L0.995952 3.65L1.18686 2.99545C1.40686 2.48818 1.7205 2.07455 2.12777 1.75455C2.38777 1.54182 2.67868 1.36 3.0005 1.20909C3.36595 1.03818 3.76595 0.901818 4.2005 0.8L5.07322 0.636364L5.50959 0.609091L5.53686 0.581818L6.21868 0.554545L6.24595 0.527273H7.22777L7.25504 0.5ZM6.36868 2L6.34141 2.02727H5.95959L5.93232 2.05455L5.41413 2.08182L4.40504 2.27273L3.69595 2.51818L3.09595 2.87273C2.89595 3.01818 2.73232 3.20909 2.60504 3.44545L2.46868 3.8L2.44141 4.12727L2.41413 4.15455V11.3273L2.49595 11.7364L2.74141 12.1727C2.88686 12.3364 3.06868 12.4818 3.28686 12.6091C3.55959 12.7727 3.86868 12.9 4.21413 12.9909L5.35959 13.2091L5.87777 13.2364L5.90504 13.2636H6.31413L6.34141 13.2909H7.75959L11.5505 11.6L11.605 11.5455V8.57273H7.6505V11.4364L7.48686 11.5182H6.96868L6.80504 11.4636L6.7505 11.4364V3.85455L6.94141 3.74545H7.48686L7.6505 3.85455V6.14545H11.605V3.90909L11.496 3.44545L11.305 3.11818C11.1414 2.9 10.9505 2.72727 10.7323 2.6L10.2687 2.38182L9.61413 2.19091L8.98686 2.08182L8.52322 2.05455L8.49595 2.02727H8.14141L8.11413 2H6.36868ZM14.9869 2.08182L12.4778 11.1091L12.505 11.1636L17.7141 8.81818L22.9232 11.1364L21.3414 5.51818L21.3141 5.32727L21.1505 4.83636L21.1232 4.64545L21.0141 4.34545L20.9869 4.15455L20.8778 3.85455L20.8505 3.66364L20.6869 3.17273L20.6596 2.98182L20.5505 2.68182L20.5232 2.49091L20.4141 2.19091V2.08182H14.9869ZM23.7141 2.08182V3.74545H25.9778V3.77273V12.5L26.2505 12.6364L27.5596 13.2091H30.2869V3.77273L30.3141 3.74545H32.5778V2.10909V2.08182H23.7141ZM33.1232 2.08182V13.2091H33.1505H36.5323L36.5596 7.64545L38.7414 13.1818L38.7687 13.2091H41.7141L41.796 13.0455L43.596 7.78182H43.6232V13.2091H47.496V2.08182H41.8778L41.7687 2.3L40.3232 7.4L38.5505 2.13636V2.08182H33.1232ZM50.9323 2.08182L47.8505 13.1273L47.8778 13.2091H52.1323L52.8141 10.4L52.8414 10.2909H54.4232L55.105 13.2091H59.4141L57.9414 8L57.9141 7.80909L57.7505 7.31818L57.4505 6.14545L57.2869 5.65455L57.1232 4.97273L56.9596 4.48182L56.796 3.8L56.6323 3.30909L56.3323 2.13636L56.305 2.08182H50.9323ZM59.796 2.08182L59.7414 2.13636V13.1818L59.796 13.2091H63.3687L63.396 13.1818L63.4232 7.89091L65.9596 13.1818L65.9869 13.2091H70.3505V2.10909V2.08182H66.7232V6.58182L64.596 2.13636L64.5687 2.08182H59.796ZM70.9778 2.08182V13.2091H71.005H74.605L74.6323 7.86364L77.1687 13.1818L77.2232 13.2091H81.5596V2.10909V2.08182H77.9323V6.55455L75.805 2.13636V2.08182H70.9778ZM17.7141 10.0182L7.56868 14.4636V14.4909H27.8596L17.7141 10.0182Z" fill="#2B2A29" stroke="#2B2A29"/>
<path d="M17.7001 6.17273L17.7411 6.24091L17.7683 6.54091L17.8229 6.70455V6.84091L17.8774 7.00455V7.14091L18.1229 8.51818H17.3183L17.3047 8.42273L17.3592 8.25909L17.7001 6.17273Z" fill="#2B2A29" stroke="#2B2A29"/>
<path d="M53.6188 6.17273L54.0415 8.51818H53.2369C53.2188 8.51818 53.2142 8.47727 53.2233 8.39546L53.6188 6.17273Z" fill="#2B2A29" stroke="#2B2A29"/>
</g>
<defs>
<clipPath id="clip0_933_49214">
<rect width="82.1182" height="15" fill="white" transform="translate(0.941406 0.5)"/>
</clipPath>
</defs>
</svg>
