<svg width="100" height="100" viewBox="0 0 100 100" fill="none" xmlns="http://www.w3.org/2000/svg">
<rect width="100" height="100" rx="50" fill="#EE3B3B"/>
<path fill-rule="evenodd" clip-rule="evenodd" d="M18.5393 35.568V42.6689C18.6027 42.9254 18.7221 43.1648 18.8889 43.3697C19.0661 43.5638 19.2756 43.7255 19.5082 43.8479C19.8295 44.0086 20.1862 44.0855 20.5452 44.0714H22.9654V47.9243H19.0796C18.2953 47.8531 17.5353 47.6144 16.8511 47.2243C16.2533 46.8624 15.7381 46.3792 15.3385 45.8059C14.8408 45.0351 14.601 44.126 14.6536 43.21V27.447H18.5393V31.7781H22.2015V35.568H18.5393ZM39.9738 37.7966C40.0158 38.1159 40.0536 38.4445 40.0863 38.7848C40.1191 39.1252 40.1326 39.4848 40.1326 39.8672V40.4403H28.9855C29.0292 40.8016 29.0813 41.168 29.1468 41.5395C29.2108 41.9166 29.3171 42.2853 29.4637 42.6386C29.7072 43.2037 30.0779 43.705 30.5469 44.1033C31.1456 44.5177 31.8565 44.7398 32.5847 44.7398C33.3128 44.7398 34.0238 44.5177 34.6225 44.1033C35.0918 43.705 35.4627 43.2038 35.7065 42.6386H39.8461C39.7005 43.3168 39.4594 43.971 39.13 44.5815C38.8472 45.0963 38.5045 45.5758 38.1091 46.01C37.7599 46.3983 37.3582 46.736 36.9158 47.0134C36.52 47.2643 36.1047 47.483 35.6738 47.6672C34.5678 48.0935 33.3853 48.2853 32.2012 48.2305C31.0172 48.1757 29.8575 47.8754 28.7956 47.3487C28.3005 47.0751 27.8362 46.7492 27.4107 46.3764C26.9277 45.9534 26.518 45.4533 26.1981 44.8966C25.8187 44.2283 25.5358 43.5097 25.3578 42.7622C24.9318 40.8529 24.9318 38.8731 25.3578 36.9638C25.5381 36.2127 25.8209 35.49 26.1981 34.8159C26.5178 34.2494 26.9273 33.7385 27.4107 33.3033C27.8333 32.9226 28.2979 32.5913 28.7956 32.3159C29.9662 31.7037 31.2646 31.3761 32.5855 31.3596C33.7146 31.3939 34.8267 31.6426 35.8628 32.0924C36.3162 32.2995 36.7485 32.5499 37.1536 32.8403C37.6066 33.166 38.0134 33.5516 38.3628 33.9865C38.7592 34.4842 39.0909 35.03 39.3502 35.6109C39.6575 36.3074 39.8673 37.0429 39.9738 37.7966ZM35.9611 37.7966C35.851 37.4484 35.7179 37.1079 35.5628 36.7773C35.4003 36.4339 35.1797 36.1212 34.9107 35.8529C34.6276 35.572 34.2918 35.3498 33.9225 35.1991C33.0592 34.8817 32.111 34.8817 31.2477 35.1991C30.8786 35.3496 30.543 35.5719 30.2603 35.8529C29.9883 36.1222 29.7627 36.4345 29.5922 36.7773C29.4271 37.1018 29.2986 37.4437 29.2091 37.7966H35.9611ZM43.0082 36.4907C42.9547 35.5724 43.2006 34.6615 43.7091 33.8949C44.1166 33.3233 44.6368 32.8412 45.2376 32.4781C45.9219 32.0875 46.6823 31.8484 47.467 31.7773H51.9267V35.6302H48.9317C48.5735 35.6158 48.2176 35.6927 47.8973 35.8537C47.6642 35.9761 47.4541 36.1378 47.2763 36.3319C47.1098 36.5371 46.9897 36.7759 46.9242 37.0319V47.9252H43.0082V36.4907ZM53.5965 36.4907C53.5436 35.5724 53.7898 34.6616 54.2982 33.8949C54.7059 33.3238 55.2257 32.8417 55.8259 32.4781C56.51 32.0876 57.27 31.8486 58.0544 31.7773H62.5141V35.6302H59.5208C59.1626 35.6158 58.8066 35.6927 58.4863 35.8537C58.2529 35.9758 58.0424 36.1376 57.8645 36.3319C57.6981 36.5368 57.5788 36.7758 57.5149 37.0319V47.9252H53.5965V36.4907ZM78.7301 47.9252H74.9401V45.6958L75.6418 44.7714C75.3568 45.5517 74.8864 46.251 74.2712 46.8092C73.7883 47.2336 73.2405 47.5778 72.6485 47.8285C72.0356 48.0614 71.3911 48.2008 70.7368 48.242C69.5125 48.2454 68.3073 47.939 67.2334 47.3512C66.7659 47.0802 66.3328 46.7538 65.9435 46.379C65.498 45.9459 65.1219 45.4467 64.8284 44.8991C64.4691 44.2263 64.2015 43.5085 64.0326 42.7647C63.8165 41.8141 63.7144 40.8411 63.7284 39.8664C63.7141 38.8904 63.8217 37.9165 64.0485 36.9672C64.2292 36.2162 64.512 35.4935 64.8889 34.8193C65.2071 34.2527 65.6155 33.7418 66.0981 33.3067C66.5216 32.9267 66.9864 32.5955 67.4838 32.3193C68.6543 31.7068 69.9528 31.3792 71.2738 31.363C72.4374 31.3316 73.5956 31.5315 74.6813 31.9512C75.5771 32.3174 76.3699 32.897 76.9906 33.6395C77.6213 34.4241 78.0725 35.3374 78.3124 36.3151C78.6025 37.4873 78.7414 38.6917 78.7259 39.8991V47.9243L78.7301 47.9252ZM71.278 35.126C70.613 35.0944 69.9536 35.2604 69.383 35.6033C68.9225 35.9033 68.5448 36.3142 68.2847 36.7983C68.0281 37.2807 67.8556 37.8033 67.7746 38.3437C67.6043 39.3553 67.6043 40.3883 67.7746 41.4C67.8558 41.9398 68.0283 42.4618 68.2847 42.9437C68.5444 43.428 68.9222 43.8391 69.383 44.1386C69.7788 44.3979 70.2237 44.5731 70.69 44.6532C71.1564 44.7333 71.6342 44.7167 72.0939 44.6044C72.5536 44.4921 72.9852 44.2865 73.3621 44.0004C73.739 43.7143 74.053 43.3537 74.2847 42.9411C74.5507 42.4621 74.7286 41.9393 74.8099 41.3974C74.8911 40.8916 74.9338 40.3803 74.9376 39.868C74.9382 39.2984 74.9006 38.7293 74.825 38.1647C74.7604 37.6303 74.5992 37.1121 74.3494 36.6353C74.097 36.17 73.7148 35.7882 73.2494 35.5361C72.6378 35.2342 71.9593 35.093 71.278 35.126ZM29.1401 61.5832H25.2931C25.1875 61.2401 25.0581 60.9048 24.9057 60.5798C24.7516 60.2536 24.5414 59.9569 24.2847 59.7033C24.0128 59.4403 23.6911 59.2343 23.3385 59.0974C22.9116 58.9401 22.4588 58.8649 22.004 58.8756C21.3535 58.8438 20.7088 59.0106 20.1553 59.3537C19.7046 59.6565 19.3366 60.067 19.0847 60.5479C18.8346 61.0315 18.6671 61.5536 18.5889 62.0924C18.4231 63.1047 18.4231 64.1372 18.5889 65.1495C18.667 65.6884 18.8345 66.2105 19.0847 66.6941C19.3362 67.1751 19.7043 67.5853 20.1553 67.8874C20.7084 68.2316 21.3533 68.3987 22.004 68.3664C22.4212 68.3984 22.8405 68.3411 23.2338 68.1982C23.6271 68.0553 23.9854 67.8302 24.2847 67.5378C24.785 66.9978 25.142 66.3411 25.3233 65.6277H29.1401C29.0392 66.3898 28.8354 67.1347 28.5342 67.842C28.2846 68.4184 27.9672 68.9632 27.5889 69.4647C27.2626 69.8928 26.876 70.2712 26.441 70.5882C25.1569 71.5317 23.5971 72.0247 22.004 71.9907C20.7199 71.994 19.454 71.6879 18.3133 71.0983C17.8302 70.8228 17.3776 70.4972 16.9628 70.1269C16.4921 69.7012 16.0946 69.201 15.7864 68.6462C15.4155 67.9762 15.139 67.2582 14.9645 66.5126C14.5508 64.6019 14.5508 62.6249 14.9645 60.7143C15.1413 59.9615 15.4242 59.2377 15.8049 58.5647C16.3987 57.5069 17.2809 56.6396 18.3486 56.0638C19.4838 55.4542 20.7492 55.1268 22.0376 55.1092C23.1311 55.1404 24.2072 55.3895 25.2032 55.842C25.6411 56.0483 26.057 56.2986 26.4443 56.589C26.8795 56.9211 27.2659 57.3126 27.5922 57.7521C28.423 58.8766 28.9555 60.1931 29.1401 61.579V61.5832ZM31.3939 63.621C31.3794 62.6461 31.4819 61.6731 31.699 60.7227C31.8719 59.9738 32.1429 59.2511 32.5049 58.5731C32.8076 58.0101 33.1988 57.4993 33.6637 57.0605C34.0664 56.6812 34.5113 56.3493 34.9897 56.0714C36.0904 55.4463 37.3344 55.1177 38.6002 55.1177C39.866 55.1177 41.1101 55.4463 42.2107 56.0714C42.6883 56.3494 43.1324 56.6812 43.5343 57.0605C43.9994 57.4993 44.3909 58.01 44.6939 58.5731C45.0575 59.2522 45.3339 59.9744 45.5166 60.7227C45.9415 62.6321 45.9415 64.6116 45.5166 66.521C45.3356 67.2647 45.0591 67.9818 44.6939 68.6546C44.391 69.2083 43.9992 69.7085 43.5343 70.1353C42.1903 71.3761 40.4282 72.0651 38.599 72.0651C36.7698 72.0651 35.0077 71.3761 33.6637 70.1353C33.199 69.7084 32.8075 69.2082 32.5049 68.6546C32.1413 67.9829 31.8703 67.2652 31.699 66.521C31.4811 65.5675 31.3786 64.5913 31.3939 63.6134V63.621ZM38.6149 58.8756C37.9757 58.8449 37.3425 59.0118 36.8015 59.3537C36.3572 59.658 35.9961 60.0685 35.7511 60.5479C35.5046 61.0324 35.3396 61.5542 35.2628 62.0924C35.1015 63.1051 35.1015 64.1369 35.2628 65.1495C35.3395 65.6877 35.5044 66.2096 35.7511 66.6941C35.9957 67.1735 36.3569 67.5839 36.8015 67.8874C37.3541 68.2013 37.9789 68.3664 38.6145 68.3664C39.2501 68.3664 39.8749 68.2013 40.4275 67.8874C40.8723 67.5839 41.2338 67.1736 41.4788 66.6941C41.7253 66.2097 41.8897 65.6877 41.9654 65.1495C42.1301 64.1372 42.1301 63.1048 41.9654 62.0924C41.8895 61.5542 41.7252 61.0323 41.4788 60.5479C41.2334 60.0684 40.872 59.6579 40.4275 59.3537C39.8874 59.0102 39.2544 58.8418 38.6149 58.8714V58.8756ZM52.1922 59.3227V66.4235C52.2564 66.6797 52.3757 66.9189 52.5418 67.1243C52.7204 67.3174 52.9304 67.4788 53.1628 67.6016C53.4837 67.7628 53.8402 67.8397 54.199 67.8252H56.6191V71.679H52.7351C51.9499 71.608 51.1892 71.3687 50.5048 70.9773C49.9062 70.6175 49.3907 70.1349 48.9922 69.5613C48.4951 68.7903 48.2553 67.8815 48.3074 66.9655V51.8159H52.1931V55.5277H56.1426V59.3185H52.1931L52.1922 59.3227ZM62.9553 59.3227V66.4235C63.0198 66.6798 63.1394 66.919 63.3057 67.1243C63.4841 67.3176 63.6941 67.479 63.9267 67.6016C64.2473 67.7626 64.6036 67.8396 64.962 67.8252H67.383V71.679H63.4973C62.7124 71.6077 61.952 71.3684 61.2679 70.9773C60.6692 70.6176 60.1536 70.135 59.7553 69.5613C59.2577 68.7905 59.0179 67.8815 59.0704 66.9655V51.8159H62.9553V55.5277H66.9048V59.3185H62.9553V59.3227ZM84.167 71.6756H80.3763V69.4453L81.0763 68.521C80.7915 69.3005 80.3221 69.9995 79.7082 70.5579C79.2242 70.9823 78.6755 71.3267 78.083 71.5781C77.4701 71.8102 76.8261 71.9498 76.1721 71.9924C74.9478 71.9947 73.7427 71.6877 72.6687 71.1C72.2016 70.829 71.7688 70.5028 71.3796 70.1285C70.9338 69.6953 70.5574 69.1958 70.2637 68.6479C69.9054 67.9749 69.6379 67.2574 69.4679 66.5143C69.2529 65.5635 69.1513 64.5906 69.1653 63.6159C69.1508 62.6404 69.2575 61.6668 69.483 60.7176C69.6655 59.9659 69.95 59.2427 70.3284 58.568C70.6473 58.002 71.0556 57.4912 71.5376 57.0554C71.9611 56.6754 72.4256 56.3437 72.9225 56.0664C74.0941 55.4556 75.3929 55.1286 76.7141 55.1117C77.8779 55.081 79.0363 55.2809 80.1225 55.7C81.018 56.065 81.8101 56.6445 82.4292 57.3874C83.0608 58.1718 83.5124 59.0855 83.7519 60.0638C84.0425 61.2354 84.182 62.4392 84.167 63.6462V71.6722V71.6756ZM76.7141 58.8722C76.0488 58.8403 75.3889 59.0067 74.8183 59.3504C74.3579 59.6501 73.9802 60.0607 73.72 60.5445C73.4631 61.0264 73.2908 61.5488 73.2107 62.089C73.0404 63.101 73.0404 64.1343 73.2107 65.1462C73.2907 65.6864 73.4629 66.2089 73.72 66.6907C73.9797 67.1747 74.3575 67.5851 74.8183 67.884C75.4006 68.1983 76.052 68.3629 76.7137 68.3629C77.3754 68.3629 78.0268 68.1983 78.6091 67.884C79.0712 67.5818 79.4535 67.1725 79.7233 66.6907C79.9891 66.2113 80.167 65.6882 80.2486 65.1462C80.3298 64.6406 80.3724 64.1296 80.3763 63.6176C80.3762 63.0477 80.3389 62.4784 80.2645 61.9134C80.1986 61.3793 80.0369 60.8615 79.7872 60.3848C79.5346 59.9202 79.1528 59.5388 78.688 59.2865C78.0762 58.9822 77.3967 58.8402 76.7141 58.8722ZM81.5393 27.4437C81.0186 27.4438 80.5096 27.5984 80.0767 27.8878C79.6439 28.1773 79.3066 28.5886 79.1074 29.0697C78.9083 29.5508 78.8563 30.0802 78.9581 30.5909C79.0598 31.1016 79.3108 31.5706 79.6791 31.9387C80.0474 32.3068 80.5166 32.5574 81.0273 32.6588C81.5381 32.7602 82.0674 32.7079 82.5484 32.5085C83.0295 32.3091 83.4405 31.9715 83.7297 31.5384C84.0188 31.1054 84.1731 30.5963 84.1729 30.0756C84.1726 29.7301 84.1042 29.388 83.9716 29.0689C83.8391 28.7498 83.645 28.46 83.4005 28.2159C83.1559 27.9718 82.8657 27.7783 82.5463 27.6463C82.227 27.5144 81.8848 27.4467 81.5393 27.447V27.4437ZM81.8284 30.426C81.8365 30.4824 81.8541 30.5369 81.8805 30.5874C81.9063 30.6376 81.9448 30.6802 81.9923 30.7109C82.0489 30.7466 82.1152 30.7639 82.1821 30.7605C82.2251 30.7642 82.2684 30.7586 82.309 30.7441C82.3496 30.7296 82.3866 30.7065 82.4174 30.6764C82.4697 30.6206 82.5067 30.5523 82.525 30.4781H82.9208C82.9103 30.5571 82.8891 30.6343 82.8578 30.7075C82.8322 30.7673 82.7995 30.8237 82.7603 30.8756C82.7268 30.9204 82.6868 30.96 82.6418 30.9932C82.6013 31.0226 82.5583 31.0482 82.5133 31.0697C82.4092 31.1163 82.2962 31.1399 82.1821 31.1386C81.9895 31.1457 81.8019 31.0762 81.6603 30.9453C81.6516 30.936 81.6437 30.9259 81.6368 30.9151C81.6125 30.9432 81.5861 30.9693 81.5578 30.9932C81.5175 31.0224 81.4748 31.048 81.4301 31.0697C81.3244 31.1169 81.2096 31.1404 81.0939 31.1386C80.9615 31.1389 80.831 31.1075 80.7132 31.047C80.6631 31.0183 80.6161 30.9845 80.5729 30.9462C80.524 30.9021 80.4828 30.8501 80.451 30.7924C80.4124 30.7235 80.3841 30.6493 80.367 30.5722C80.3433 30.4738 80.3323 30.3727 80.3343 30.2714V29.0185H80.7368V29.4672H81.1426V29.8596H80.7368V30.2655C80.7333 30.3215 80.7333 30.3776 80.7368 30.4336C80.7457 30.4897 80.7633 30.5442 80.7889 30.5949C80.8146 30.645 80.8528 30.6875 80.8998 30.7185C80.9566 30.7538 81.0228 30.7711 81.0897 30.768C81.1329 30.7718 81.1764 30.7662 81.2173 30.7517C81.2582 30.7372 81.2955 30.7141 81.3267 30.684C81.379 30.6282 81.416 30.5599 81.4343 30.4857C81.422 30.4171 81.415 30.3477 81.4132 30.2781C81.4116 30.1772 81.4221 30.0765 81.4443 29.9781C81.4609 29.9001 81.4892 29.825 81.5284 29.7554C81.5609 29.697 81.6023 29.644 81.6511 29.5983C81.6939 29.5586 81.7413 29.5242 81.7922 29.4958C81.9102 29.4335 82.0412 29.3998 82.1746 29.3974C82.2877 29.4013 82.399 29.427 82.5023 29.4731C82.5476 29.4949 82.5906 29.5211 82.6309 29.5512C82.676 29.5856 82.716 29.6264 82.7494 29.6722C82.7881 29.7244 82.8208 29.7808 82.8468 29.8403C82.8779 29.9125 82.8991 29.9885 82.9099 30.0664H82.52C82.5088 30.0309 82.4956 29.9961 82.4805 29.9622C82.4639 29.9284 82.4417 29.8978 82.4149 29.8714C82.387 29.8442 82.3538 29.8231 82.3174 29.8092C82.2734 29.7929 82.2266 29.7852 82.1796 29.7865C82.1127 29.7831 82.0464 29.8004 81.9897 29.8361C81.9422 29.8668 81.9037 29.9094 81.8779 29.9596C81.8516 30.0101 81.834 30.0646 81.8259 30.121C81.8178 30.1733 81.8136 30.2261 81.8133 30.279C81.8147 30.3294 81.8198 30.3797 81.8284 30.4294V30.426Z" fill="white"/>
</svg>
