<svg width="348" height="260" viewBox="0 0 348 260" fill="none" xmlns="http://www.w3.org/2000/svg">
<path d="M94.3782 178.629H85.4602L72.6855 64.5928H81.5949L94.3782 178.629Z" fill="white"/>
<path d="M94.3788 179.062H85.4608C85.3545 179.06 85.2525 179.02 85.1742 178.948C85.0959 178.876 85.0468 178.778 85.0362 178.672L72.2528 64.6446C72.246 64.5842 72.2516 64.5229 72.2695 64.4648C72.2874 64.4066 72.3172 64.3528 72.3568 64.3066C72.3962 64.256 72.446 64.2143 72.5028 64.1844C72.5596 64.1545 72.6221 64.1371 72.6862 64.1333H81.5955C81.7027 64.1347 81.8058 64.175 81.8856 64.2467C81.9653 64.3185 82.0162 64.4168 82.0288 64.5233L94.8035 178.551C94.8127 178.611 94.8081 178.673 94.7901 178.732C94.7721 178.79 94.7411 178.844 94.6995 178.889C94.6627 178.94 94.6147 178.982 94.5592 179.012C94.5036 179.042 94.4419 179.059 94.3788 179.062ZM85.8508 178.195H93.8935L81.2055 65H73.1715L85.8508 178.195Z" fill="#231F20"/>
<path d="M63.9761 209.248H53.9141L57.1121 148.001H67.1741L63.9761 209.248Z" fill="white"/>
<path d="M63.9762 209.681H53.9142C53.856 209.683 53.7982 209.672 53.7444 209.65C53.6907 209.627 53.6423 209.594 53.6022 209.551C53.5613 209.509 53.5294 209.459 53.5085 209.404C53.4877 209.348 53.4783 209.29 53.4809 209.231L56.6789 147.975C56.6855 147.864 56.7341 147.761 56.8147 147.685C56.8952 147.609 57.0017 147.567 57.1122 147.567H67.1742C67.2331 147.567 67.2913 147.579 67.3451 147.603C67.3989 147.627 67.447 147.662 67.4862 147.706C67.5286 147.747 67.5613 147.798 67.5823 147.853C67.6032 147.908 67.6119 147.968 67.6076 148.027L64.4096 209.274C64.4051 209.385 64.3571 209.49 64.2761 209.566C64.1951 209.642 64.0874 209.684 63.9762 209.681ZM54.3736 208.815H63.5689L66.7236 148.434H57.5282L54.3736 208.815Z" fill="#231F20"/>
<path d="M122.727 209.248H132.789L115.863 148.001H105.801L122.727 209.248Z" fill="white"/>
<path d="M132.789 209.681H122.727C122.633 209.681 122.542 209.651 122.467 209.595C122.392 209.538 122.337 209.459 122.311 209.369L105.385 148.113C105.367 148.05 105.364 147.984 105.376 147.919C105.388 147.855 105.415 147.794 105.454 147.741C105.494 147.686 105.546 147.642 105.606 147.612C105.667 147.582 105.733 147.567 105.801 147.567H115.863C115.958 147.568 116.05 147.6 116.125 147.658C116.2 147.715 116.254 147.796 116.279 147.888L133.205 209.135C133.226 209.2 133.23 209.268 133.218 209.335C133.206 209.401 133.178 209.464 133.135 209.517C133.094 209.569 133.041 209.611 132.981 209.64C132.921 209.668 132.855 209.682 132.789 209.681ZM123.056 208.815H132.225L115.533 148.434H106.399L123.056 208.815Z" fill="#231F20"/>
<path d="M133.543 176.514H45.8279L34.3359 73.9873H122.051L133.543 176.514Z" fill="white"/>
<path d="M133.543 176.948H45.8278C45.72 176.948 45.6158 176.908 45.5357 176.836C45.4556 176.764 45.4052 176.665 45.3944 176.558L33.9024 74.0395C33.8937 73.9783 33.8993 73.9159 33.9189 73.8573C33.9385 73.7986 33.9714 73.7453 34.0151 73.7015C34.0545 73.655 34.1036 73.6177 34.159 73.5922C34.2144 73.5667 34.2748 73.5538 34.3358 73.5542H122.051C122.157 73.5553 122.259 73.5944 122.339 73.6644C122.418 73.7344 122.47 73.8306 122.484 73.9355L133.968 176.462C133.977 176.523 133.972 176.585 133.954 176.643C133.936 176.702 133.905 176.755 133.864 176.8C133.824 176.847 133.775 176.884 133.72 176.91C133.664 176.935 133.604 176.948 133.543 176.948ZM46.2091 176.081H133.058L121.661 74.4209H34.8211L46.2091 176.081Z" fill="#231F20"/>
<path d="M37.5938 176.514H141.767L142.833 186.004H38.6597L37.5938 176.514Z" fill="white"/>
<path d="M142.8 186.438H38.6611C38.5552 186.437 38.4531 186.398 38.3736 186.328C38.2941 186.258 38.2423 186.161 38.2278 186.056L37.1618 176.523C37.1566 176.462 37.1639 176.401 37.1833 176.342C37.2027 176.284 37.2337 176.231 37.2744 176.185C37.3157 176.141 37.3654 176.107 37.4205 176.083C37.4756 176.059 37.535 176.047 37.5951 176.046H141.768C141.875 176.046 141.978 176.084 142.058 176.154C142.138 176.225 142.189 176.322 142.202 176.428L143.268 185.961C143.273 186.022 143.266 186.084 143.246 186.142C143.227 186.2 143.196 186.253 143.155 186.299C143.11 186.347 143.055 186.385 142.993 186.409C142.932 186.433 142.866 186.443 142.8 186.438ZM39.0164 185.571H142.349L141.387 176.904H38.0804L39.0164 185.571Z" fill="#231F20"/>
<path d="M121.132 129.922H46.8238C46.7173 129.923 46.6143 129.885 46.5344 129.814C46.4545 129.744 46.4032 129.647 46.3905 129.541L41.6325 84.6476C41.6273 84.5865 41.6346 84.5251 41.654 84.467C41.6734 84.4089 41.7044 84.3553 41.7451 84.3096C41.7864 84.2659 41.8361 84.2311 41.8912 84.2072C41.9463 84.1834 42.0057 84.171 42.0658 84.1709H116.365C116.472 84.1701 116.575 84.2086 116.655 84.2789C116.734 84.3493 116.786 84.4465 116.798 84.5522L121.556 129.446C121.562 129.507 121.554 129.568 121.535 129.626C121.516 129.684 121.485 129.738 121.444 129.784C121.404 129.826 121.355 129.86 121.302 129.884C121.248 129.908 121.19 129.921 121.132 129.922ZM47.2225 129.056H120.655L115.984 85.0376H42.5425L47.2225 129.056Z" fill="#D1D3D4"/>
<path d="M90.877 119.652C90.7786 119.655 90.6826 119.621 90.6083 119.557L65.839 99.6669L46.0356 119.531C45.9546 119.61 45.8457 119.655 45.7323 119.655C45.6189 119.655 45.51 119.61 45.429 119.531C45.3883 119.491 45.3561 119.443 45.3341 119.39C45.3121 119.337 45.3008 119.28 45.3008 119.223C45.3008 119.166 45.3121 119.109 45.3341 119.057C45.3561 119.004 45.3883 118.956 45.429 118.916L65.501 98.8002C65.5792 98.7289 65.6812 98.6895 65.787 98.6895C65.8928 98.6895 65.9948 98.7289 66.073 98.8002L91.1456 118.933C91.2355 119.006 91.2931 119.111 91.3061 119.226C91.319 119.341 91.2863 119.457 91.215 119.548C91.1691 119.588 91.1153 119.618 91.057 119.636C90.9988 119.654 90.9374 119.66 90.877 119.652Z" fill="#D1D3D4"/>
<path d="M120.04 119.652C119.923 119.652 119.811 119.605 119.728 119.522L100.497 99.7534L87.722 116.671C87.6878 116.716 87.645 116.755 87.5961 116.784C87.5471 116.813 87.4929 116.832 87.4366 116.84C87.3802 116.848 87.3229 116.845 87.2678 116.83C87.2126 116.816 87.1608 116.792 87.1153 116.757C87.0252 116.687 86.9659 116.585 86.9498 116.471C86.9336 116.358 86.9619 116.243 87.0286 116.151L100.107 98.8174C100.145 98.7673 100.193 98.726 100.248 98.6961C100.304 98.6662 100.365 98.6485 100.427 98.644C100.49 98.6412 100.552 98.6512 100.61 98.6736C100.668 98.696 100.721 98.7302 100.765 98.774L120.352 118.907C120.432 118.989 120.477 119.1 120.477 119.214C120.477 119.329 120.432 119.44 120.352 119.522C120.312 119.564 120.263 119.597 120.209 119.619C120.156 119.642 120.098 119.653 120.04 119.652Z" fill="#D1D3D4"/>
<path d="M92.0479 169.867H51.0546C50.9473 169.866 50.8442 169.825 50.7645 169.754C50.6848 169.682 50.6338 169.584 50.6212 169.477L47.2672 137.8C47.2621 137.739 47.2694 137.678 47.2888 137.62C47.3081 137.562 47.3391 137.508 47.3799 137.462C47.4211 137.419 47.4708 137.384 47.526 137.36C47.5811 137.336 47.6405 137.324 47.7006 137.324H88.6939C88.8017 137.323 88.9058 137.363 88.986 137.435C89.0661 137.507 89.1165 137.606 89.1272 137.714L92.4812 169.373C92.4875 169.434 92.4807 169.496 92.4612 169.554C92.4418 169.612 92.4102 169.666 92.3686 169.711C92.33 169.759 92.2813 169.798 92.2258 169.825C92.1703 169.852 92.1096 169.866 92.0479 169.867ZM51.4446 169H91.5712L88.3039 138.199H48.1772L51.4446 169Z" fill="#D1D3D4"/>
<path d="M122.215 140.192H94.4822C94.3672 140.192 94.257 140.147 94.1757 140.065C94.0945 139.984 94.0488 139.874 94.0488 139.759C94.0488 139.644 94.0945 139.534 94.1757 139.453C94.257 139.371 94.3672 139.326 94.4822 139.326H122.215C122.33 139.328 122.439 139.374 122.519 139.455C122.6 139.536 122.647 139.645 122.649 139.759C122.649 139.874 122.603 139.984 122.522 140.065C122.441 140.147 122.33 140.192 122.215 140.192Z" fill="#D1D3D4"/>
<path d="M123.178 149.327H95.4451C95.3301 149.327 95.2199 149.281 95.1386 149.2C95.0574 149.118 95.0117 149.008 95.0117 148.893C95.0117 148.778 95.0574 148.668 95.1386 148.587C95.2199 148.506 95.3301 148.46 95.4451 148.46H123.178C123.293 148.46 123.404 148.506 123.485 148.587C123.566 148.668 123.612 148.778 123.612 148.893C123.612 149.008 123.566 149.118 123.485 149.2C123.404 149.281 123.293 149.327 123.178 149.327Z" fill="#D1D3D4"/>
<path d="M124.149 158.453H96.4158C96.3008 158.453 96.1906 158.407 96.1093 158.326C96.0281 158.245 95.9824 158.135 95.9824 158.02C95.9824 157.905 96.0281 157.795 96.1093 157.713C96.1906 157.632 96.3008 157.586 96.4158 157.586H124.149C124.264 157.586 124.374 157.632 124.456 157.713C124.537 157.795 124.582 157.905 124.582 158.02C124.582 158.135 124.537 158.245 124.456 158.326C124.374 158.407 124.264 158.453 124.149 158.453Z" fill="#D1D3D4"/>
<path d="M117.188 167.579H97.4197C97.3047 167.579 97.1945 167.533 97.1132 167.452C97.032 167.371 96.9863 167.261 96.9863 167.146C96.9863 167.031 97.032 166.921 97.1132 166.839C97.1945 166.758 97.3047 166.712 97.4197 166.712H117.188C117.303 166.715 117.411 166.761 117.492 166.842C117.573 166.923 117.619 167.032 117.622 167.146C117.622 167.261 117.576 167.371 117.495 167.452C117.413 167.533 117.303 167.579 117.188 167.579Z" fill="#D1D3D4"/>
<path d="M51.0532 169.867C50.9902 169.867 50.9279 169.853 50.871 169.826C50.814 169.799 50.7638 169.76 50.7239 169.711C50.6505 169.622 50.6149 169.508 50.6246 169.393C50.6343 169.278 50.6886 169.171 50.7759 169.096L88.4152 137.436C88.4572 137.392 88.508 137.357 88.5644 137.334C88.6208 137.31 88.6815 137.299 88.7425 137.301C88.8036 137.303 88.8635 137.317 88.9185 137.344C88.9735 137.37 89.0222 137.408 89.0615 137.455C89.1008 137.502 89.1299 137.556 89.1467 137.615C89.1635 137.674 89.1677 137.735 89.159 137.796C89.1504 137.856 89.129 137.914 89.0965 137.965C89.0639 138.017 89.0207 138.061 88.9699 138.095L51.3306 169.763C51.2536 169.83 51.1552 169.867 51.0532 169.867Z" fill="#D1D3D4"/>
<path d="M92.0465 169.867C91.9553 169.867 91.8665 169.837 91.7951 169.78L47.4652 138.121C47.3709 138.054 47.307 137.953 47.2875 137.839C47.268 137.725 47.2945 137.608 47.3612 137.514C47.4278 137.42 47.5292 137.356 47.6429 137.336C47.7567 137.317 47.8736 137.343 47.9678 137.41L92.3151 169.078C92.362 169.111 92.4019 169.153 92.4325 169.201C92.4632 169.249 92.4839 169.303 92.4936 169.36C92.5032 169.416 92.5016 169.474 92.4889 169.53C92.4761 169.585 92.4524 169.638 92.4192 169.685C92.3761 169.743 92.3198 169.789 92.255 169.821C92.1901 169.853 92.1186 169.868 92.0465 169.867Z" fill="#D1D3D4"/>
<path d="M89.7239 102.787C90.004 103.662 89.9641 104.608 89.6112 105.456C89.201 106.324 88.5499 107.056 87.7356 107.565C86.9212 108.074 85.9779 108.337 85.0179 108.325C83.7995 108.33 82.6087 107.962 81.6051 107.271C80.6014 106.58 79.8327 105.599 79.4019 104.46C78.1799 101.782 79.2372 99.121 81.8025 97.5264C82.0393 97.3974 82.2654 97.2496 82.4785 97.0844C82.6974 96.8928 82.8976 96.681 83.0765 96.4517C83.6639 95.7502 84.3137 95.1033 85.0179 94.519C85.7892 95.7497 85.0179 97.535 85.8845 98.731C85.9972 98.9044 86.2312 99.069 86.4045 98.9477C86.4045 98.5404 86.9419 98.3064 87.3232 98.4624C87.6821 98.6545 87.9683 98.9589 88.1379 99.329C88.8072 100.412 89.3399 101.573 89.7239 102.787Z" fill="#FF6C22"/>
<path d="M238.731 50.267C238.315 50.8303 237.916 51.4023 237.526 52.0003C233.054 58.769 230.714 66.6123 227.239 73.875C223.841 81.1352 219.647 87.9951 214.733 94.3283C208.822 101.695 201.36 107.64 194.86 114.487C188.36 121.334 182.649 129.558 181.574 138.936C180.187 151 186.982 162.977 196.671 170.3C206.361 177.624 218.537 180.9 230.584 182.434C252.06 185.181 275.746 182.165 291.693 167.518C298.86 160.932 303.271 152.785 307.691 144.266C311.799 136.336 314.798 129.862 313.333 120.571C312.163 113.17 308.957 106.271 305.49 99.6323C302.023 92.9936 298.262 86.459 295.853 79.3783C293.773 73.251 294.119 67.245 292.845 61.1783C291.736 55.8916 287.723 51.437 283.806 47.9616C280.659 44.9936 277.005 42.6157 273.016 40.9416C266.889 38.5756 259.149 38.3416 252.719 39.4423C246.973 40.4043 242.093 45.7083 238.731 50.267Z" fill="white"/>
<path d="M244.841 183.82C240.039 183.809 235.242 183.49 230.48 182.867C215.955 181.012 204.792 177.017 196.368 170.647C185.795 162.656 179.806 150.194 181.098 138.892C182.034 130.798 186.419 122.72 194.505 114.192C197.018 111.54 199.705 108.992 202.305 106.514C206.589 102.636 210.605 98.4722 214.326 94.0509C219.246 87.7407 223.452 80.9042 226.866 73.6669C228.071 71.1535 229.154 68.5189 230.212 65.9709C232.188 61.1609 234.242 56.1862 237.188 51.7315C237.578 51.1422 237.986 50.5615 238.402 49.9982C243.22 43.4895 248.004 39.7889 252.615 38.9915C259.8 37.7609 267.47 38.3242 273.146 40.5169C277.186 42.2022 280.886 44.6072 284.066 47.6149C289.388 52.3555 292.3 56.6282 293.236 61.0742C293.704 63.4986 294.046 65.946 294.258 68.4062C294.487 72.0799 295.138 75.7151 296.2 79.2395C298.167 85.0202 301.096 90.5062 303.93 95.8709L305.811 99.4329C309.2 105.95 312.51 113.005 313.689 120.502C315.145 129.749 312.25 136.266 308.004 144.465C303.35 153.444 298.93 161.4 291.918 167.865C284.907 174.33 270.295 183.82 244.841 183.82ZM239.086 50.5095C238.67 51.0642 238.272 51.6362 237.89 52.2429C234.996 56.6282 232.959 61.5595 230.957 66.3349C229.9 68.9349 228.808 71.5349 227.594 74.0742C224.167 81.3714 219.94 88.266 214.993 94.6315C211.238 99.0848 207.184 103.278 202.86 107.181C200.26 109.642 197.564 112.182 195.06 114.816C187.112 123.206 182.796 131.127 181.895 139.022C180.63 150.029 186.488 162.18 196.819 169.988C205.122 176.263 216.146 180.206 230.524 182.044C264.61 186.377 283.226 174.634 291.286 167.232C298.219 160.888 302.552 153.002 307.189 144.101C311.366 136.05 314.209 129.662 312.788 120.701C311.626 113.334 308.359 106.349 304.988 99.9009C304.364 98.7106 303.737 97.5262 303.107 96.3475C300.256 90.9829 297.318 85.4362 295.307 79.5862C294.24 75.9661 293.594 72.235 293.383 68.4669C293.177 66.0356 292.841 63.617 292.378 61.2215C291.511 56.9749 288.651 52.8409 283.477 48.2215C280.373 45.2831 276.761 42.9338 272.817 41.2882C267.288 39.1562 259.817 38.6015 252.745 39.8149C248.36 40.5689 243.766 44.1482 239.086 50.4749V50.5095Z" fill="#231F20"/>
<path d="M215.287 112.806C197.451 123.431 182.848 168.948 176.287 192.764C175.793 194.498 183.862 195.295 183.463 196.794C181.869 202.792 185.673 205.27 185.673 205.27L291.866 208.555C291.866 208.555 314.027 123.734 303.765 113.031C293.504 102.328 225.609 106.652 215.287 112.806Z" fill="#FF6C22"/>
<path d="M195.006 189.133C194.934 189.132 194.863 189.114 194.798 189.081C194.698 189.024 194.625 188.931 194.594 188.82C194.563 188.71 194.577 188.592 194.634 188.492C195.197 187.478 198.82 179.678 203.413 169.798C220.148 133.822 225.218 123.31 226.007 122.911C226.109 122.859 226.228 122.851 226.337 122.886C226.445 122.922 226.536 122.999 226.588 123.102C226.635 123.194 226.647 123.3 226.622 123.401C226.596 123.501 226.535 123.589 226.449 123.648C225.227 124.956 212.582 152.152 204.202 170.162C199.6 180.059 195.968 187.867 195.388 188.907C195.351 188.977 195.296 189.034 195.229 189.074C195.161 189.114 195.084 189.134 195.006 189.133Z" fill="#231F20"/>
<path d="M241.434 104.321C240.568 104.624 239.701 104.945 238.834 105.283C237.448 105.82 235.966 106.531 235.368 107.883C235.044 108.852 234.978 109.888 235.177 110.89C235.891 117.052 237.203 123.13 239.094 129.038C240.134 132.288 241.573 139.317 245.742 140.192C254.088 141.926 262.434 135.703 268.951 131.257C275.865 126.547 282.203 121.044 287.836 114.86C290.678 111.731 293.486 107.32 291.528 103.593C289.673 100.066 284.88 99.641 280.902 99.6757C267.599 99.8057 253.966 100.066 241.434 104.321Z" fill="#231F20"/>
<path d="M248.662 140.938C247.638 140.936 246.615 140.832 245.612 140.626C241.755 139.811 240.152 134.299 239.086 130.65L238.652 129.177C236.755 123.251 235.434 117.156 234.709 110.977C234.497 109.901 234.578 108.787 234.943 107.753C235.584 106.28 237.101 105.517 238.644 104.919C239.51 104.581 240.377 104.252 241.296 103.948C254.296 99.537 268.405 99.3983 280.868 99.2856C284.967 99.2856 289.907 99.6843 291.874 103.42C293.98 107.432 291.008 112.034 288.122 115.198C282.464 121.406 276.1 126.933 269.159 131.664L267.894 132.531C262.338 136.31 255.604 140.938 248.662 140.938ZM281.318 100.109H280.876C268.483 100.23 254.434 100.36 241.573 104.728C240.706 105.032 239.84 105.352 238.973 105.682C237.604 106.219 236.269 106.878 235.749 108.065C235.456 108.963 235.399 109.921 235.584 110.847C236.298 116.982 237.604 123.034 239.484 128.917C239.632 129.35 239.779 129.862 239.935 130.408C240.94 133.874 242.457 139.074 245.811 139.776C253.446 141.38 261.194 136.058 267.426 131.777L268.691 130.91C275.576 126.22 281.888 120.74 287.498 114.582C290.184 111.627 293.001 107.354 291.12 103.792C289.422 100.586 285.071 100.109 281.318 100.109Z" fill="#231F20"/>
<path d="M247.423 95.0302L243.748 111.072C243.748 111.072 247.111 121.845 257.97 120.926C261.178 120.627 264.278 119.615 267.046 117.966C269.813 116.317 272.178 114.071 273.969 111.393L278.397 81.8568C278.397 81.8568 271.273 76.5182 276.153 60.0255C267.039 62.3829 257.459 62.2422 248.419 59.6182C248.419 59.6182 240.819 77.1335 240.836 85.4622C240.853 93.7908 247.423 95.0302 247.423 95.0302Z" fill="white"/>
<path d="M256.688 121.42C246.643 121.42 243.376 111.315 243.341 111.202C243.32 111.129 243.32 111.05 243.341 110.977L246.912 95.3767C245.395 94.9001 240.421 92.7767 240.412 85.4967C240.412 77.2027 247.683 60.2074 247.995 59.4967C248.038 59.3998 248.114 59.3217 248.21 59.277C248.305 59.2323 248.414 59.2241 248.515 59.2541C257.488 61.8315 266.985 61.975 276.032 59.6701C276.106 59.6471 276.185 59.6445 276.261 59.6625C276.337 59.6806 276.406 59.7187 276.462 59.7727C276.517 59.8267 276.558 59.8948 276.578 59.9698C276.599 60.0447 276.599 60.1238 276.578 60.1987C271.855 76.1627 278.597 81.5101 278.667 81.5621C278.729 81.6078 278.778 81.6702 278.807 81.7422C278.836 81.8142 278.845 81.8929 278.831 81.9694L274.403 111.505C274.395 111.563 274.377 111.618 274.351 111.67C274.29 111.757 268.96 120.475 258.014 121.403C257.555 121.394 257.113 121.42 256.688 121.42ZM244.199 111.02C244.598 112.19 248.004 121.29 257.927 120.458C261.046 120.154 264.061 119.168 266.756 117.57C269.452 115.972 271.764 113.801 273.527 111.211L277.904 82.0041C276.743 80.9727 271.395 75.2787 275.495 60.6234C266.638 62.7123 257.399 62.5364 248.628 60.1121C247.571 62.6167 241.253 77.9567 241.261 85.4274C241.261 93.2794 247.432 94.5621 247.493 94.5707C247.608 94.598 247.709 94.6656 247.779 94.7614C247.809 94.8101 247.829 94.8643 247.838 94.9209C247.847 94.9774 247.844 95.0351 247.831 95.0907L244.199 111.02Z" fill="#231F20"/>
<path d="M274.61 80.6004C275.189 79.2164 276.202 78.0578 277.496 77.2984C278.733 76.6336 280.076 76.1906 281.465 75.9897C282.205 75.8011 282.978 75.7804 283.727 75.929C284.241 76.0938 284.717 76.3556 285.131 76.7004C286.169 77.4297 286.913 78.5052 287.229 79.7337C287.364 80.7474 287.254 81.7787 286.908 82.741C286.612 83.814 286.175 84.8428 285.608 85.8004C285.019 86.7398 284.249 87.5531 283.343 88.193C282.437 88.833 281.413 89.287 280.331 89.5288C279.248 89.7706 278.129 89.7954 277.037 89.6017C275.945 89.408 274.902 88.9997 273.969 88.4004" fill="white"/>
<path d="M278.51 90.1944C276.818 90.1931 275.161 89.709 273.735 88.799C273.645 88.7342 273.583 88.6373 273.562 88.5282C273.542 88.4192 273.563 88.3064 273.623 88.2131C273.683 88.1198 273.777 88.053 273.885 88.0266C273.993 88.0001 274.106 88.0161 274.203 88.071C275.089 88.6383 276.079 89.0239 277.116 89.2055C278.152 89.3871 279.214 89.361 280.241 89.1288C281.267 88.8966 282.237 88.4629 283.094 87.8529C283.952 87.2428 284.68 86.4686 285.235 85.575C285.783 84.6499 286.206 83.6561 286.492 82.6197C286.818 81.7248 286.925 80.765 286.804 79.8204C286.497 78.6948 285.803 77.7132 284.845 77.047C284.478 76.7358 284.054 76.4975 283.597 76.345C282.91 76.2133 282.203 76.237 281.526 76.4144C280.195 76.6014 278.905 77.0147 277.713 77.6364C276.502 78.3496 275.553 79.4348 275.009 80.7304C274.988 80.7849 274.957 80.8347 274.916 80.8768C274.876 80.9189 274.827 80.9524 274.774 80.9753C274.72 80.9982 274.662 81.0101 274.604 81.0101C274.546 81.0102 274.488 80.9985 274.434 80.9758C274.381 80.953 274.332 80.9196 274.292 80.8777C274.251 80.8357 274.22 80.786 274.199 80.7315C274.178 80.677 274.168 80.6189 274.17 80.5606C274.173 80.5024 274.187 80.4451 274.211 80.3924C274.834 78.9391 275.906 77.7239 277.271 76.9257C278.549 76.2553 279.933 75.8069 281.361 75.5997C282.167 75.3961 283.009 75.3783 283.823 75.5477C284.394 75.7334 284.923 76.0277 285.383 76.4144C286.511 77.2031 287.318 78.3724 287.653 79.7077C287.804 80.791 287.688 81.8948 287.315 82.923C287.012 84.0331 286.56 85.0971 285.972 86.0864C285.355 87.0769 284.548 87.9354 283.598 88.6123C282.647 89.2891 281.572 89.7709 280.434 90.0297C279.8 90.1532 279.155 90.2084 278.51 90.1944Z" fill="#231F20"/>
<path d="M256.211 81.4668C255.067 81.4668 252.441 81.2934 251.531 79.8288C250.421 78.0174 255.864 72.2627 257.597 70.5381C257.679 70.4565 257.79 70.4106 257.905 70.4106C258.02 70.4106 258.131 70.4565 258.213 70.5381C258.294 70.6197 258.34 70.7304 258.34 70.8458C258.34 70.9611 258.294 71.0718 258.213 71.1534C254.945 74.4641 251.791 78.5548 252.302 79.3694C253.021 80.5481 255.769 80.6521 256.731 80.5828C256.788 80.5792 256.845 80.587 256.899 80.6056C256.952 80.6242 257.002 80.6532 257.045 80.691C257.088 80.7289 257.122 80.7748 257.147 80.8261C257.172 80.8774 257.187 80.9331 257.19 80.9901C257.193 81.047 257.186 81.1041 257.167 81.158C257.149 81.2119 257.12 81.2617 257.082 81.3043C257.044 81.347 256.998 81.3818 256.947 81.4067C256.895 81.4316 256.84 81.4461 256.783 81.4494C256.783 81.4494 256.523 81.4668 256.211 81.4668Z" fill="#231F20"/>
<path d="M269.471 168.238H269.332C269.221 168.211 269.125 168.141 269.064 168.044C269.004 167.946 268.985 167.829 269.011 167.718C269.081 167.44 275.719 139.534 285.695 120.588C285.72 120.538 285.756 120.493 285.799 120.456C285.842 120.42 285.893 120.392 285.947 120.375C286.001 120.358 286.058 120.352 286.114 120.357C286.171 120.363 286.225 120.379 286.275 120.406C286.376 120.46 286.451 120.551 286.485 120.659C286.52 120.768 286.509 120.886 286.457 120.987C276.534 139.837 269.921 167.64 269.852 167.917C269.83 168.004 269.782 168.082 269.713 168.139C269.645 168.197 269.56 168.231 269.471 168.238Z" fill="#231F20"/>
<path d="M254.929 90.6971H254.643C253.79 90.701 252.945 90.5283 252.162 90.1897C251.379 89.8511 250.675 89.354 250.093 88.7297C247.71 86.1297 247.935 81.8484 247.953 81.6664C247.96 81.5515 248.012 81.444 248.098 81.3676C248.141 81.3298 248.19 81.3007 248.244 81.2821C248.298 81.2635 248.355 81.2557 248.412 81.2591C248.469 81.2625 248.525 81.2771 248.576 81.302C248.627 81.3269 248.673 81.3617 248.711 81.4044C248.749 81.447 248.778 81.4967 248.796 81.5506C248.815 81.6045 248.823 81.6615 248.819 81.7184C248.819 81.7184 248.594 85.8004 250.735 88.1491C251.24 88.6847 251.85 89.1104 252.527 89.3997C253.204 89.689 253.933 89.8356 254.669 89.8304H254.938C261.074 89.8304 262.946 82.8971 263.024 82.5764C263.037 82.5215 263.061 82.4698 263.095 82.4242C263.128 82.3787 263.17 82.3403 263.218 82.3112C263.267 82.2822 263.321 82.2631 263.377 82.255C263.432 82.247 263.489 82.2502 263.544 82.2644C263.599 82.2785 263.651 82.3035 263.697 82.3377C263.742 82.372 263.781 82.4149 263.81 82.464C263.839 82.5131 263.858 82.5674 263.866 82.6239C263.874 82.6804 263.87 82.7379 263.856 82.7931C263.839 82.8711 261.75 90.6971 254.929 90.6971Z" fill="#231F20"/>
<path d="M247.423 95.0303C247.423 95.0303 257.199 97.9336 265.311 91.8149C265.311 91.8149 257.927 106.756 245.23 104.642L247.423 95.0303Z" fill="#231F20"/>
<path d="M247.665 105.274C246.832 105.276 246 105.207 245.178 105.066C245.119 105.057 245.063 105.036 245.012 105.005C244.962 104.974 244.918 104.933 244.883 104.884C244.819 104.784 244.798 104.662 244.823 104.546L247.015 94.9346C247.03 94.8768 247.055 94.8224 247.091 94.7747C247.127 94.7271 247.172 94.6871 247.223 94.6573C247.277 94.6337 247.334 94.6214 247.392 94.6214C247.451 94.6214 247.508 94.6337 247.561 94.6573C247.657 94.6573 257.233 97.422 265.068 91.5113C265.145 91.4509 265.239 91.418 265.337 91.418C265.434 91.418 265.529 91.4509 265.605 91.5113C265.678 91.574 265.728 91.6586 265.749 91.7525C265.769 91.8463 265.758 91.9442 265.718 92.0313C265.623 92.1526 258.993 105.274 247.665 105.274ZM245.767 104.286C255.301 105.569 261.74 96.902 264.019 93.2273C257.19 97.3786 249.641 96.0006 247.761 95.5586L245.767 104.286Z" fill="#231F20"/>
<path d="M170.627 128.145C170.28 127.469 163.269 99.476 162.515 97.4307C160.652 92.352 140.06 85.67 137.096 86.84C134.132 88.01 124.598 107.467 129.634 108.394C130.333 108.498 131.047 108.375 131.671 108.042C132.295 107.71 132.796 107.186 133.1 106.548C133.1 106.548 129.547 112.207 132.832 113.551C136.116 114.894 138.118 111.41 138.118 111.41C138.118 111.41 135.848 115.613 138.777 115.518C140.38 115.466 140.996 113.932 142.157 112.918C141.533 113.785 141.065 116.324 142.746 116.87C144.428 117.416 145.424 114.478 146.56 112.615C148.709 125.415 151.933 159.805 160.652 190.467C163.529 200.564 174.865 205.001 183.402 196.759C194.582 185.961 184.104 167.986 180.056 156.026L170.627 128.145Z" fill="white"/>
<path d="M173.6 201.526C172.497 201.524 171.399 201.378 170.333 201.093C165.532 199.801 161.77 195.893 160.271 190.623C153.58 167.093 150.157 141.691 147.904 124.878C147.323 120.597 146.812 116.818 146.361 113.949C146.361 114.027 146.283 114.105 146.24 114.183C145.373 115.917 144.316 117.858 142.652 117.312C142.34 117.213 142.057 117.04 141.828 116.808C141.598 116.575 141.429 116.29 141.334 115.977C141.207 115.545 141.163 115.092 141.204 114.643C140.927 115.019 140.57 115.331 140.16 115.557C139.751 115.783 139.297 115.918 138.83 115.951C138.509 115.998 138.181 115.954 137.884 115.824C137.586 115.694 137.332 115.483 137.148 115.215C136.863 114.643 136.798 113.986 136.966 113.369C136.377 113.842 135.669 114.147 134.92 114.251C134.171 114.355 133.407 114.253 132.711 113.958C132.353 113.826 132.03 113.613 131.767 113.337C131.505 113.06 131.308 112.727 131.194 112.363C130.935 111.088 131.093 109.763 131.645 108.585C130.989 108.875 130.261 108.96 129.556 108.827C128.846 108.697 127.953 108.186 127.78 106.487C127.546 104.121 128.802 99.7794 131.151 94.8827C132.962 91.0954 135.484 87.0221 136.932 86.4327C139.09 85.5661 147.982 88.1661 154.196 90.9567C157.662 92.5254 162.048 94.9001 162.923 97.2834C163.339 98.4014 165.48 106.73 167.551 114.79C169.163 121.047 170.836 127.521 171.018 127.963L180.482 155.896C181.192 157.993 182.102 160.229 183.082 162.691C187.571 173.957 193.152 187.971 183.732 197.063C181.07 199.821 177.432 201.424 173.6 201.526ZM146.595 112.259H146.673C146.76 112.277 146.839 112.32 146.901 112.384C146.963 112.447 147.004 112.528 147.02 112.615C147.522 115.613 148.094 119.877 148.753 124.809C151.006 141.596 154.421 166.955 161.094 190.424C162.516 195.399 166.043 199.091 170.55 200.295C174.883 201.457 179.442 200.087 183.125 196.525C192.13 187.859 186.661 174.122 182.258 163.098C181.296 160.671 180.378 158.383 179.658 156.269L170.212 128.267C169.986 127.677 168.946 123.656 166.745 114.989C164.769 107.328 162.533 98.6441 162.134 97.5694C161.536 95.9227 158.598 93.8514 153.866 91.7281C146.933 88.6167 138.812 86.6234 137.278 87.2214C134.956 88.1401 128.17 101.417 128.672 106.383C128.811 107.787 129.539 107.909 129.738 107.952C130.274 108.053 130.827 107.99 131.326 107.772C131.826 107.555 132.248 107.191 132.538 106.73C132.676 106.479 132.772 106.331 132.789 106.297C132.847 106.204 132.939 106.136 133.045 106.108C133.151 106.08 133.264 106.093 133.361 106.144C133.457 106.196 133.531 106.283 133.566 106.387C133.602 106.49 133.597 106.604 133.552 106.704C133.473 106.88 133.377 107.049 133.266 107.207C132.72 108.195 131.532 110.569 132.044 112.077C132.12 112.32 132.252 112.541 132.427 112.724C132.603 112.908 132.819 113.048 133.058 113.135C135.961 114.313 137.729 111.306 137.807 111.185C137.833 111.135 137.869 111.091 137.913 111.055C137.957 111.019 138.008 110.993 138.062 110.978C138.116 110.962 138.173 110.958 138.229 110.965C138.285 110.973 138.339 110.991 138.388 111.02C138.438 111.046 138.482 111.082 138.517 111.126C138.553 111.17 138.58 111.22 138.596 111.274C138.612 111.328 138.618 111.385 138.611 111.441C138.605 111.497 138.588 111.551 138.561 111.601C138.093 112.467 137.504 114.088 137.911 114.738C137.963 114.825 138.128 115.093 138.778 115.067C139.696 115.067 140.242 114.4 140.875 113.663C141.198 113.301 141.552 112.968 141.932 112.667C142.011 112.595 142.113 112.556 142.218 112.556C142.324 112.556 142.426 112.595 142.504 112.667C142.58 112.74 142.627 112.837 142.638 112.942C142.649 113.046 142.623 113.151 142.565 113.239C142.112 113.99 141.971 114.89 142.175 115.743C142.226 115.927 142.323 116.095 142.457 116.231C142.59 116.367 142.755 116.468 142.938 116.523C143.804 116.818 144.558 115.587 145.538 113.811C145.78 113.343 146.032 112.875 146.283 112.459C146.312 112.396 146.355 112.342 146.41 112.3C146.464 112.258 146.528 112.229 146.595 112.216V112.259Z" fill="#231F20"/>
<path d="M142.193 112.953C143.184 111.055 144.344 109.251 145.66 107.562Z" fill="white"/>
<path d="M142.193 113.386C142.12 113.386 142.049 113.368 141.985 113.334C141.934 113.307 141.89 113.27 141.854 113.226C141.818 113.181 141.792 113.13 141.775 113.076C141.759 113.021 141.754 112.963 141.76 112.907C141.766 112.85 141.784 112.795 141.811 112.745C142.825 110.814 144.015 108.98 145.365 107.268C145.404 107.227 145.451 107.195 145.503 107.173C145.555 107.151 145.611 107.14 145.668 107.14C145.724 107.14 145.78 107.151 145.832 107.173C145.884 107.195 145.932 107.227 145.971 107.268C146.012 107.308 146.044 107.356 146.066 107.409C146.088 107.461 146.099 107.518 146.099 107.575C146.099 107.632 146.088 107.689 146.066 107.742C146.044 107.795 146.012 107.843 145.971 107.883C144.679 109.541 143.536 111.31 142.557 113.17C142.52 113.234 142.467 113.288 142.403 113.325C142.339 113.363 142.267 113.384 142.193 113.386Z" fill="#231F20"/>
<path d="M138.154 111.41C138.154 111.41 140.815 104.893 143.848 101.591Z" fill="white"/>
<path d="M138.153 111.844C138.099 111.852 138.043 111.852 137.989 111.844C137.883 111.799 137.8 111.716 137.756 111.61C137.712 111.505 137.712 111.386 137.755 111.28C137.859 111.012 140.476 104.65 143.527 101.331C143.607 101.264 143.71 101.228 143.814 101.231C143.919 101.234 144.019 101.274 144.097 101.345C144.174 101.416 144.223 101.512 144.234 101.617C144.246 101.721 144.219 101.825 144.159 101.912C141.221 105.118 138.578 111.54 138.552 111.601C138.517 111.677 138.461 111.74 138.39 111.783C138.319 111.827 138.236 111.848 138.153 111.844Z" fill="#231F20"/>
<path d="M133.137 106.548C133.137 106.548 139.325 95.8966 141.379 93.7993Z" fill="white"/>
<path d="M133.136 106.981C133.057 106.983 132.979 106.962 132.911 106.921C132.812 106.863 132.741 106.768 132.712 106.658C132.682 106.548 132.698 106.43 132.755 106.331C133.015 105.889 139.004 95.6021 141.066 93.4961C141.147 93.4133 141.257 93.3659 141.372 93.3643C141.487 93.3627 141.599 93.407 141.682 93.4874C141.764 93.5679 141.812 93.6779 141.813 93.7933C141.815 93.9087 141.771 94.02 141.69 94.1027C139.697 96.1307 133.57 106.661 133.509 106.765C133.471 106.83 133.417 106.885 133.351 106.923C133.286 106.961 133.212 106.981 133.136 106.981Z" fill="#231F20"/>
<path d="M186.844 102.735L134.844 97.5347L135.771 90.688L187.32 99.476C187.751 99.5405 188.139 99.7704 188.403 100.117C188.667 100.463 188.785 100.898 188.733 101.331C188.667 101.766 188.431 102.158 188.077 102.421C187.723 102.684 187.28 102.797 186.844 102.735Z" fill="white"/>
<path d="M186.998 103.177H186.773L134.773 97.977C134.714 97.9723 134.656 97.9552 134.604 97.9269C134.552 97.8985 134.506 97.8595 134.47 97.8123C134.434 97.7674 134.409 97.7159 134.394 97.6608C134.379 97.6057 134.375 97.5482 134.383 97.4916L135.31 90.6363C135.319 90.5795 135.338 90.525 135.368 90.4759C135.398 90.4268 135.437 90.3841 135.484 90.3503C135.579 90.2825 135.697 90.2545 135.813 90.2723L187.371 99.0603C187.888 99.1429 188.356 99.4178 188.679 99.83C189.003 100.242 189.159 100.761 189.116 101.284C189.074 101.806 188.835 102.293 188.449 102.647C188.063 103.002 187.557 103.197 187.033 103.194L186.998 103.177ZM186.86 102.31C187.018 102.332 187.179 102.322 187.333 102.282C187.488 102.241 187.633 102.17 187.76 102.074C187.887 101.977 187.994 101.857 188.074 101.719C188.155 101.581 188.207 101.429 188.229 101.27C188.251 101.112 188.241 100.951 188.2 100.797C188.16 100.642 188.089 100.497 187.993 100.37C187.896 100.243 187.775 100.136 187.637 100.056C187.5 99.9752 187.347 99.9226 187.189 99.901L136.056 91.191L135.25 97.1536L186.86 102.31Z" fill="#231F20"/>
<path d="M115.968 87.811L114.988 95.0477L133.336 97.7864L134.384 90.0384L115.968 87.811Z" fill="white"/>
<path d="M133.335 98.2196H133.266L114.919 95.4809C114.806 95.4637 114.706 95.4033 114.637 95.3126C114.569 95.2218 114.54 95.108 114.555 94.9956L115.534 87.7502C115.54 87.6943 115.558 87.6402 115.585 87.5911C115.613 87.542 115.65 87.4988 115.694 87.4641C115.739 87.4295 115.789 87.4039 115.844 87.3891C115.898 87.3742 115.955 87.3703 116.011 87.3776L134.427 89.6049C134.541 89.6242 134.646 89.6824 134.722 89.7696C134.788 89.8659 134.819 89.9824 134.809 90.0989L133.76 97.8469C133.751 97.9037 133.732 97.9582 133.702 98.0073C133.672 98.0564 133.633 98.0991 133.587 98.1329C133.515 98.1903 133.427 98.221 133.335 98.2196ZM115.473 94.6836L132.963 97.2836L133.899 90.4109L116.34 88.2789L115.473 94.6836Z" fill="#231F20"/>
<path d="M134.739 89.1544L134.293 89.0941C133.638 89.0057 133.036 89.4647 132.947 90.1193L132.037 96.8615C131.949 97.5161 132.408 98.1184 133.062 98.2068L133.509 98.2671C134.163 98.3554 134.766 97.8964 134.854 97.2419L135.764 90.4997C135.853 89.8451 135.394 89.2428 134.739 89.1544Z" fill="white"/>
<path d="M133.665 98.7222H133.448L132.989 98.6615C132.562 98.6012 132.177 98.3755 131.916 98.0333C131.655 97.6911 131.539 97.2598 131.593 96.8328L132.512 90.0902C132.537 89.878 132.606 89.6732 132.713 89.4884C132.82 89.3036 132.964 89.1427 133.136 89.0155C133.306 88.8852 133.499 88.7898 133.706 88.7347C133.913 88.6797 134.128 88.6661 134.341 88.6948L134.791 88.7555C135.003 88.7828 135.207 88.852 135.391 88.9592C135.576 89.0663 135.737 89.2092 135.866 89.3795C136.125 89.7243 136.24 90.1562 136.187 90.5842L135.277 97.3355C135.214 97.7625 134.987 98.1481 134.644 98.4102C134.36 98.6188 134.016 98.7285 133.665 98.7222ZM134.133 89.5268C133.967 89.531 133.807 89.5854 133.673 89.6828C133.516 89.8064 133.413 89.9869 133.387 90.1855L132.477 96.9368C132.46 97.0368 132.463 97.1392 132.487 97.2378C132.511 97.3364 132.555 97.4291 132.615 97.5102C132.676 97.5913 132.753 97.6592 132.841 97.7096C132.929 97.76 133.026 97.792 133.127 97.8035L133.578 97.8642C133.778 97.8905 133.98 97.8377 134.141 97.7168C134.299 97.5933 134.402 97.4128 134.427 97.2142L135.346 90.4715C135.359 90.3719 135.352 90.2707 135.325 90.1739C135.299 90.0771 135.252 89.9867 135.19 89.9082C135.132 89.8277 135.059 89.76 134.974 89.7093C134.889 89.6586 134.794 89.626 134.696 89.6135L134.237 89.5528L134.133 89.5268Z" fill="#231F20"/>
<path d="M115.933 87.8107C115.933 87.8107 107.786 78.364 99.0933 79.7333C90.4006 81.1027 84.0999 88.0187 84.4813 93.8167C84.4813 93.8167 89.2999 86.8833 96.2073 90.0813C101.962 92.6813 98.3479 100.975 114.988 95.0387L115.933 87.8107Z" fill="#FF6C22"/>
<path d="M105.706 97.5868C101.876 97.5868 100.636 95.7061 99.3449 93.7648C98.5954 92.3621 97.438 91.2199 96.0256 90.4888C89.5343 87.5075 85.0276 93.7995 84.8369 94.0681C84.7863 94.1417 84.7142 94.1979 84.6304 94.2289C84.5466 94.2599 84.4553 94.2643 84.3689 94.2415C84.2821 94.217 84.2048 94.1665 84.1474 94.0967C84.0901 94.027 84.0555 93.9414 84.0483 93.8515C83.6669 88.1575 89.7249 80.7908 99.0243 79.3174C107.856 77.9134 115.959 87.1174 116.297 87.5248C116.337 87.5722 116.367 87.6275 116.385 87.6872C116.403 87.7469 116.408 87.8096 116.401 87.8715L115.422 95.1081C115.41 95.1874 115.377 95.2622 115.327 95.3246C115.277 95.3871 115.211 95.435 115.136 95.4635C110.854 96.9888 107.864 97.5868 105.706 97.5868ZM92.5936 88.8335C93.9067 88.8443 95.2019 89.14 96.3896 89.7001C97.9502 90.4986 99.2338 91.749 100.073 93.2881C101.962 96.1395 103.6 98.6008 114.598 94.7268L115.517 87.9495C114.442 86.7795 106.937 78.9448 99.1629 80.1495C90.9643 81.4668 85.4176 87.5335 84.9323 92.6121C86.2149 91.2255 88.9623 88.8335 92.5936 88.8335Z" fill="#231F20"/>
<path d="M147.054 115.033C147.054 115.033 146.724 113.794 145.797 108.195C144.87 102.596 139.288 92.1703 142.33 90.697C145.372 89.2236 146.967 91.5636 148.64 95.2123C150.312 98.861 157.098 110.691 157.098 110.691" fill="white"/>
<path d="M147.055 115.466C146.959 115.467 146.867 115.436 146.791 115.378C146.716 115.32 146.662 115.238 146.639 115.146C146.639 115.094 146.292 113.82 145.373 108.264C144.849 105.905 144.151 103.587 143.285 101.331C141.499 96.2611 139.818 91.4684 142.175 90.3417C142.623 90.0898 143.119 89.9329 143.63 89.8807C144.142 89.8285 144.658 89.8822 145.148 90.0384C146.734 90.6104 147.826 92.3871 149.074 95.0651C150.729 98.6271 157.446 110.388 157.515 110.509C157.569 110.61 157.582 110.727 157.551 110.837C157.521 110.947 157.449 111.04 157.351 111.098C157.301 111.127 157.247 111.146 157.19 111.154C157.134 111.161 157.076 111.157 157.021 111.141C156.966 111.126 156.915 111.1 156.87 111.064C156.825 111.028 156.788 110.984 156.761 110.934C156.484 110.448 149.958 99.0257 148.285 95.4291C147.167 93.0197 146.153 91.3211 144.819 90.8531C144.436 90.7395 144.035 90.7047 143.638 90.7509C143.242 90.7971 142.859 90.9232 142.513 91.1217C140.867 91.9191 142.565 96.7637 144.065 101.045C144.954 103.359 145.664 105.738 146.188 108.16C147.098 113.638 147.436 114.946 147.445 114.964C147.471 115.075 147.454 115.192 147.395 115.291C147.337 115.39 147.243 115.462 147.133 115.492L147.055 115.466Z" fill="#231F20"/>
<path d="M230.68 181.029C230.68 181.029 246.28 165.091 252.719 164.433C259.158 163.774 267.764 168.523 267.764 168.523L272.384 174.729L252.45 197.687L230.68 181.029Z" fill="white"/>
<path d="M252.458 198.12C252.361 198.122 252.267 198.092 252.189 198.034L230.419 181.368C230.367 181.333 230.325 181.286 230.295 181.232C230.265 181.178 230.248 181.117 230.245 181.056C230.241 180.995 230.249 180.935 230.27 180.878C230.291 180.821 230.324 180.769 230.367 180.726C231.008 180.068 246.131 164.667 252.675 164C259.218 163.332 267.599 167.943 267.971 168.134C268.029 168.159 268.077 168.201 268.11 168.255L272.729 174.46C272.79 174.537 272.823 174.631 272.823 174.729C272.823 174.826 272.79 174.921 272.729 174.998L252.796 197.964C252.756 198.015 252.704 198.055 252.645 198.082C252.587 198.109 252.523 198.122 252.458 198.12ZM231.337 180.986L252.397 197.098L271.828 174.703L267.495 168.853C266.628 168.385 258.707 164.251 252.761 164.866C247.05 165.447 233.651 178.655 231.337 180.986Z" fill="#231F20"/>
<path d="M274.341 177.667C274.341 177.667 297.689 204.144 291.9 208.59C279.203 218.348 251.747 193.562 249.494 178.915L274.341 177.667Z" fill="white"/>
<path d="M284.933 211.198C282.212 211.127 279.529 210.539 277.029 209.465C264.497 204.438 250.63 189.315 249.035 178.932C249.025 178.871 249.028 178.809 249.043 178.75C249.058 178.69 249.085 178.634 249.122 178.585C249.162 178.539 249.211 178.5 249.266 178.474C249.321 178.447 249.381 178.432 249.443 178.429L274.281 177.181C274.346 177.177 274.411 177.187 274.471 177.211C274.531 177.235 274.585 177.272 274.628 177.32C275.417 178.187 293.92 199.299 293.201 206.787C293.181 207.193 293.075 207.59 292.889 207.951C292.704 208.313 292.444 208.631 292.126 208.884C290.057 210.444 287.523 211.259 284.933 211.198ZM250.006 179.287C251.904 189.41 265.277 203.823 277.384 208.676C281.475 210.323 287.264 211.571 291.632 208.217C291.854 208.036 292.035 207.809 292.162 207.551C292.289 207.294 292.36 207.013 292.369 206.726C293.027 199.923 275.902 180.05 274.169 178.074L250.006 179.287Z" fill="#231F20"/>
<path d="M213.866 173.091C201.412 176.635 189.599 182.624 181.903 190.875C178.775 194.22 176.114 198.891 177.648 203.207C178.613 205.468 180.274 207.363 182.389 208.615C190.639 214.119 201.221 214.136 211.119 214.682C212.291 214.633 213.448 214.961 214.421 215.618C215.677 216.675 215.747 218.547 216.397 220.055C218.295 224.458 224.379 224.787 229.111 223.999C238.341 222.447 247.484 219.18 254.669 213.165C261.853 207.151 266.854 198.146 266.629 188.786C266.334 176.653 257.962 170.69 246.557 169.598C236.781 168.705 225.063 169.91 213.866 173.091Z" fill="white"/>
<path d="M225.28 224.796C221.891 224.796 217.618 223.99 216.015 220.272C215.809 219.748 215.632 219.213 215.486 218.669C215.459 218.139 215.321 217.622 215.079 217.15C214.838 216.678 214.5 216.262 214.086 215.931C213.673 215.599 213.194 215.359 212.681 215.226C212.168 215.093 211.632 215.07 211.11 215.159L208.172 214.994C199.098 214.509 189.703 214.006 182.172 208.971C179.572 207.237 178.003 205.426 177.258 203.355C175.36 198.033 179.667 192.651 181.591 190.58C188.793 182.884 200.216 176.523 213.753 172.675C224.95 169.485 236.616 168.255 246.6 169.208C259.331 170.43 266.784 177.58 267.062 188.821C267.27 197.773 262.728 207.021 254.928 213.538C248.385 219.024 239.71 222.699 229.162 224.467C227.879 224.681 226.581 224.791 225.28 224.796ZM214.013 173.507C200.632 177.311 189.348 183.586 182.25 191.169C180.412 193.128 176.348 198.198 178.081 203.06C178.757 204.949 180.256 206.648 182.657 208.26C189.998 213.157 199.262 213.659 208.232 214.136L211.17 214.301C212.44 214.247 213.691 214.612 214.732 215.341C215.569 216.188 216.128 217.27 216.336 218.443C216.463 218.951 216.625 219.449 216.821 219.934C218.962 224.9 226.727 224.016 229.058 223.626C239.458 221.893 247.986 218.261 254.417 212.888C262.018 206.527 266.429 197.539 266.221 188.847C265.952 177.935 258.967 171.271 246.539 170.083C236.668 169.139 225.115 170.352 214.013 173.55V173.507Z" fill="#231F20"/>
<path d="M267.765 168.523C272.098 171.453 276.431 176.323 274.837 181.939C273.285 187.287 267.591 191.473 262.521 193.093C261.46 193.492 260.324 193.655 259.193 193.57C257.833 193.397 255.987 192.305 256.316 190.719C256.699 189.34 257.458 188.094 258.509 187.122C259.53 186.045 260.64 185.056 261.828 184.167C259.791 180.249 260.32 174.781 264.038 172.033" fill="white"/>
<path d="M259.799 194.038C259.569 194.055 259.337 194.055 259.106 194.038C258.006 193.869 257.012 193.282 256.333 192.4C256.149 192.155 256.019 191.874 255.951 191.576C255.882 191.277 255.876 190.968 255.934 190.667C256.332 189.21 257.127 187.893 258.231 186.862C259.189 185.854 260.223 184.921 261.325 184.071C259.479 180.189 259.895 174.625 263.821 171.73C263.914 171.664 264.03 171.637 264.143 171.655C264.257 171.673 264.358 171.734 264.427 171.825C264.461 171.872 264.485 171.924 264.499 171.979C264.512 172.035 264.515 172.092 264.506 172.149C264.497 172.205 264.477 172.259 264.447 172.308C264.417 172.356 264.378 172.399 264.332 172.432C260.666 175.127 260.397 180.431 262.252 184.002C262.298 184.093 262.311 184.197 262.289 184.297C262.267 184.396 262.211 184.485 262.131 184.548C260.96 185.423 259.867 186.397 258.863 187.46C257.872 188.374 257.152 189.543 256.783 190.84C256.743 191.031 256.745 191.228 256.789 191.418C256.832 191.608 256.916 191.786 257.035 191.941C257.605 192.62 258.409 193.059 259.288 193.171C260.358 193.249 261.431 193.092 262.434 192.712C267.157 191.178 272.938 187.122 274.455 181.853C276.266 175.587 270.243 170.716 267.565 168.913C267.517 168.882 267.477 168.842 267.446 168.794C267.414 168.747 267.393 168.694 267.382 168.638C267.372 168.582 267.372 168.525 267.384 168.47C267.396 168.414 267.419 168.362 267.452 168.315C267.516 168.22 267.614 168.154 267.726 168.132C267.838 168.109 267.955 168.131 268.05 168.194C270.884 170.109 277.263 175.283 275.295 182.061C273.675 187.668 267.807 191.845 262.703 193.509C261.768 193.835 260.789 194.014 259.799 194.038Z" fill="#231F20"/>
<path d="M246.34 181.992C249.351 181.992 251.791 180.599 251.791 178.88C251.791 177.162 249.351 175.769 246.34 175.769C243.329 175.769 240.889 177.162 240.889 178.88C240.889 180.599 243.329 181.992 246.34 181.992Z" fill="#231F20"/>
<path d="M246.339 182.425C243.046 182.425 240.463 180.865 240.463 178.88C240.463 176.895 243.063 175.335 246.339 175.335C249.615 175.335 252.224 176.895 252.224 178.88C252.224 180.865 249.641 182.425 246.339 182.425ZM246.339 176.202C243.618 176.202 241.321 177.433 241.321 178.88C241.321 180.327 243.618 181.558 246.339 181.558C249.06 181.558 251.357 180.336 251.357 178.88C251.357 177.424 249.06 176.202 246.339 176.202Z" fill="#231F20"/>
<path d="M250.898 180.778C250.898 180.778 244.892 177.051 246.937 171.331C249.026 165.481 242.838 165.074 241.139 169.797C239.865 173.333 240.61 177.979 242.465 180.197C242.465 180.189 244.848 184.002 250.898 180.778Z" fill="white"/>
<path d="M246.47 182.494C245.634 182.522 244.803 182.347 244.049 181.985C243.294 181.623 242.638 181.084 242.137 180.414C240.126 178.031 239.537 173.178 240.767 169.65C241.799 166.782 244.321 165.672 246.063 166.296C247.423 166.782 248.481 168.402 247.38 171.496C245.482 176.818 250.933 180.284 251.167 180.432C251.232 180.471 251.285 180.526 251.322 180.593C251.359 180.659 251.379 180.733 251.379 180.809C251.379 180.884 251.359 180.959 251.322 181.025C251.285 181.091 251.232 181.146 251.167 181.186C249.735 182.006 248.12 182.456 246.47 182.494ZM245.066 166.998C244.26 167.087 243.499 167.414 242.881 167.94C242.263 168.465 241.816 169.163 241.599 169.945C240.447 173.16 241.019 177.745 242.856 179.912C242.977 180.085 244.997 183.127 250.119 180.709C248.602 179.53 244.849 176.029 246.583 171.176C247.319 169.104 247.016 167.544 245.785 167.102C245.553 167.026 245.31 166.991 245.066 166.998Z" fill="#231F20"/>
<path d="M267.092 69.3427C267.378 68.2995 267.158 67.3296 266.599 67.1763C266.041 67.023 265.356 67.7443 265.069 68.7875C264.783 69.8306 265.004 70.8006 265.562 70.9539C266.121 71.1072 266.805 70.3858 267.092 69.3427Z" fill="#231F20"/>
<path d="M253.326 67.5819C253.612 66.5388 253.392 65.5688 252.833 65.4155C252.275 65.2622 251.59 65.9836 251.304 67.0267C251.017 68.0699 251.238 69.0398 251.796 69.1931C252.355 69.3464 253.04 68.6251 253.326 67.5819Z" fill="#231F20"/>
<path d="M295.835 64.593C287.931 62.1663 280.05 59.6674 272.192 57.0963C265.805 55.0163 259.418 52.9017 253.074 50.6917C250.162 49.6777 247.258 48.6463 244.407 47.5717C242.977 47.0343 235.402 45.3617 239.06 43.0043C240.992 41.7477 243.592 42.2417 245.733 41.375C246.656 40.9379 247.528 40.4002 248.333 39.7717C257.866 33.289 268.656 35.6377 278.935 38.515C299.423 44.2003 299.206 53.7943 295.835 64.593Z" fill="white"/>
<path d="M295.836 65.0002C295.793 65.0086 295.749 65.0086 295.706 65.0002C288.331 62.7295 280.591 60.2769 272.063 57.5035C264.393 55.0075 258.5 53.0315 252.927 51.0902C249.461 49.8682 246.739 48.9062 244.261 47.9702C244.053 47.8922 243.715 47.7882 243.299 47.6669C240.56 46.8435 237.865 45.9335 237.657 44.4429C237.561 43.8015 237.951 43.1862 238.827 42.6315C240.016 41.997 241.336 41.6442 242.683 41.6002C243.658 41.5368 244.621 41.3415 245.543 41.0195C246.281 40.6858 246.979 40.27 247.623 39.7802L248.091 39.4509C257.625 32.9249 268.631 35.2302 279.057 38.1422C288.192 40.6902 293.86 44.2089 296.391 48.8282C299.103 53.8202 297.847 59.6875 296.261 64.7662C296.221 64.8431 296.16 64.9065 296.084 64.9482C296.008 64.9899 295.922 65.008 295.836 65.0002ZM262.4 36.0362C257.465 35.9277 252.619 37.3573 248.533 40.1269L248.074 40.4475C247.375 40.9753 246.619 41.423 245.821 41.7822C244.827 42.1273 243.793 42.3429 242.744 42.4235C241.528 42.4545 240.336 42.7659 239.26 43.3335C238.879 43.5762 238.393 43.9489 238.48 44.2955C238.627 45.3355 242.051 46.3669 243.515 46.8089L244.529 47.1295C247.034 48.0655 249.729 49.0275 253.196 50.2495C258.76 52.1822 264.653 54.1582 272.315 56.6542C280.678 59.3755 288.279 61.7849 295.533 64.0209C297.075 58.9855 298.089 53.7335 295.602 49.1662C293.201 44.7462 287.707 41.3662 278.806 38.8962C273.233 37.3709 267.73 36.0362 262.4 36.0362Z" fill="#231F20"/>
<path d="M192.563 193.414C190.232 193.822 187.64 194.454 186.375 196.456C185.326 198.129 185.508 200.322 186.28 202.142C188.169 206.683 193.04 209.361 197.876 210.219C203.44 211.165 209.16 210.184 214.091 207.437C217.809 205.383 224.378 200.374 223.26 195.304C221.31 186.559 197.988 192.461 192.563 193.414Z" fill="#FF6C22"/>
<path d="M215.374 179.313C214.288 178.804 213.106 178.53 211.907 178.507C210.889 178.601 209.899 178.896 208.995 179.374C207.452 180.093 205.998 180.989 204.662 182.043C204.098 182.444 203.62 182.953 203.258 183.543C203.081 183.841 202.982 184.18 202.972 184.527C202.961 184.874 203.039 185.218 203.197 185.527C203.672 186.139 204.37 186.538 205.138 186.637C208.36 187.236 211.645 187.426 214.914 187.2C216.263 187.276 217.61 187.014 218.832 186.437C223.399 183.733 217.67 180.267 215.374 179.313Z" fill="#FF6C22"/>
<path d="M221.665 176.713C224.534 174.841 228.131 174.625 231.554 174.521C232.491 174.385 233.446 174.595 234.241 175.11C234.641 175.47 234.919 175.946 235.038 176.471C235.558 178.49 234.319 180.674 232.516 181.74C231.338 182.397 230.022 182.763 228.674 182.81C227.327 182.857 225.988 182.582 224.768 182.009C223.208 181.133 219.36 178.221 221.665 176.713Z" fill="#FF6C22"/>
<path d="M230.384 218.747C229.226 218.746 228.069 218.68 226.918 218.547C225.5 218.494 224.133 218.007 223 217.152C222.403 216.555 221.96 215.822 221.709 215.016C221.458 214.21 221.408 213.354 221.562 212.524C222.177 208.312 225.895 202.367 230.289 200.564C233.14 199.394 236.087 199.507 238.176 200.867C239.084 201.474 239.821 202.303 240.317 203.276C240.813 204.248 241.052 205.332 241.01 206.423C240.971 208.561 240.639 210.684 240.022 212.732C239.775 214.194 239.154 215.568 238.219 216.719C236.902 218.097 234.891 218.452 233.288 218.608C232.343 218.695 231.364 218.747 230.384 218.747ZM222.446 212.68C222.314 213.367 222.351 214.077 222.553 214.747C222.756 215.417 223.117 216.028 223.607 216.528C224.615 217.268 225.824 217.682 227.074 217.715C229.129 217.949 231.203 217.967 233.262 217.767C234.718 217.629 236.529 217.317 237.656 216.147C238.483 215.103 239.029 213.865 239.242 212.55C239.835 210.581 240.159 208.54 240.204 206.483C240.238 205.535 240.033 204.593 239.607 203.745C239.182 202.897 238.549 202.169 237.768 201.63C235.914 200.425 233.262 200.347 230.679 201.405C226.58 203.138 223.061 208.711 222.48 212.671L222.446 212.68Z" fill="#D1D3D4"/>
<path d="M249.122 207.844C248.646 207.852 248.174 207.748 247.744 207.541C245.898 206.631 245.214 203.962 244.598 201.613V201.44C243.983 199.056 243.454 196.352 244.945 194.324C246.436 192.296 249.096 191.724 251.948 193.024C255.128 194.446 258.153 198.008 257.486 201.284C256.922 204.022 253.854 206.232 251.168 207.35C250.528 207.657 249.831 207.825 249.122 207.844ZM248.871 193.198C248.233 193.181 247.6 193.322 247.03 193.61C246.46 193.897 245.97 194.321 245.604 194.844C244.338 196.578 244.832 199.039 245.396 201.223L245.439 201.396C246.002 203.572 246.635 206.033 248.126 206.761C248.553 206.931 249.013 207.003 249.471 206.973C249.93 206.943 250.376 206.812 250.778 206.588C253.265 205.522 256.099 203.528 256.593 201.11C257.156 198.337 254.444 195.104 251.549 193.813C250.706 193.431 249.796 193.222 248.871 193.198Z" fill="#D1D3D4"/>
<path d="M244.935 137.029C242.3 137.643 239.826 138.81 237.678 140.454C235.529 142.098 233.754 144.18 232.472 146.562C227.74 154.856 224.672 164.615 225.47 164.372C226.267 164.129 241.148 153.868 244.935 137.029Z" fill="#231F20"/>
<path d="M225.435 164.797C225.36 164.798 225.285 164.781 225.218 164.748C225.15 164.715 225.091 164.666 225.045 164.606C224.291 163.662 228.009 153.513 232.091 146.337C236.867 137.956 244.545 136.656 244.866 136.604C244.936 136.593 245.007 136.599 245.074 136.621C245.141 136.644 245.202 136.682 245.251 136.734C245.299 136.785 245.335 136.847 245.354 136.915C245.373 136.984 245.375 137.055 245.36 137.124C241.573 153.938 226.579 164.476 225.591 164.78L225.435 164.797ZM244.363 137.61C241.935 138.3 239.666 139.464 237.69 141.035C235.713 142.605 234.066 144.552 232.845 146.762C228.824 153.825 226.172 161.59 225.808 163.696C228.538 161.98 240.732 152.326 244.363 137.61Z" fill="#FF6C22"/>
<path d="M244.935 137.029C244.935 137.029 237.204 145.695 240.836 157.534C240.836 157.534 249.069 152.975 244.935 137.029Z" fill="#231F20"/>
<path d="M240.837 157.959C240.783 157.968 240.727 157.968 240.673 157.959C240.613 157.934 240.559 157.896 240.516 157.848C240.473 157.8 240.44 157.744 240.421 157.682C236.764 145.713 244.538 136.882 244.616 136.769C244.669 136.713 244.737 136.671 244.811 136.648C244.885 136.625 244.965 136.622 245.041 136.639C245.117 136.656 245.187 136.694 245.242 136.749C245.298 136.805 245.336 136.875 245.353 136.951C249.521 153.036 241.392 157.751 241.019 157.933C240.961 157.954 240.899 157.963 240.837 157.959ZM244.729 138.026C243.108 140.201 238.48 147.49 241.08 156.867C242.675 155.593 247.71 150.549 244.729 137.991V138.026Z" fill="#231F20"/>
</svg>
