<svg width="488" height="300" viewBox="0 0 488 300" fill="none" xmlns="http://www.w3.org/2000/svg">
<path d="M306.461 52.3401C308.825 50.4401 311.86 47.1101 309.215 44.3401C308.521 43.6201 307.497 43.1301 306.936 42.3401C306.5 41.4234 306.252 40.4534 306.205 39.4701C305.461 35.9501 301.33 33.6001 297.15 32.4701C292.969 31.3401 286.498 30.3801 282.525 32.4701C278.759 34.4701 277.113 38.6001 272.909 40.2601C267.766 42.2601 260.721 39.2601 256.309 42.1901C254.835 43.1901 253.945 44.7001 252.336 45.5501C250.918 46.164 249.332 46.4703 247.729 46.4401C240.112 46.7801 231.52 46.6501 226.133 51.0801C220.746 55.5101 220.917 62.6701 222.635 68.7501C223.294 71.5863 224.645 74.2838 226.608 76.6801C228.247 78.3592 230.276 79.7544 232.577 80.7844C234.879 81.8144 237.407 82.4588 240.015 82.6801C247.778 83.4901 256.431 82.6801 259.661 76.1601C260.392 74.6801 260.88 73.0301 262.245 71.9101C265.304 69.4401 270.532 71.0301 274.615 69.9101C281.55 68.0801 282.781 59.5101 289.581 57.3301C296.016 55.3401 301.074 56.6601 306.461 52.3401Z" fill="white"/>
<path d="M244.743 83.46C243.141 83.4549 241.541 83.3647 239.953 83.19C237.265 82.965 234.659 82.3016 232.287 81.2386C229.916 80.1756 227.828 78.7345 226.145 77C224.135 74.5559 222.746 71.8044 222.062 68.91C220.478 63.31 219.819 55.62 225.718 50.78C230.752 46.64 238.235 46.35 245.486 46.08C246.23 46.08 246.973 46.08 247.704 45.99C249.205 46.026 250.691 45.7436 252.019 45.17C252.829 44.6956 253.537 44.1144 254.115 43.45C254.652 42.867 255.26 42.3309 255.931 41.85C258.515 40.12 261.878 40.29 265.12 40.46C267.741 40.59 270.446 40.73 272.664 39.85C274.733 38.8683 276.487 37.4973 277.783 35.85C278.994 34.4069 280.489 33.1395 282.207 32.1C286.826 29.61 294.322 31.21 297.32 32.01C302.573 33.41 306.119 36.16 306.789 39.37C306.85 39.66 306.887 39.96 306.923 40.25C306.951 40.8832 307.134 41.5055 307.46 42.08C307.777 42.4828 308.168 42.8437 308.618 43.15C309.001 43.4179 309.356 43.7123 309.678 44.03C311.884 46.33 310.897 49.49 306.875 52.69C303.304 55.55 299.855 56.03 296.211 56.54C294.028 56.7903 291.883 57.2294 289.812 57.85C286.668 58.85 284.779 61.31 282.792 63.91C280.806 66.51 278.563 69.45 274.809 70.43C273.058 70.8125 271.245 70.971 269.435 70.9C266.827 70.9 264.353 70.9 262.683 72.28C261.761 73.1453 261.09 74.1711 260.721 75.28C260.562 75.63 260.404 75.98 260.233 76.33C257.93 81 252.604 83.46 244.743 83.46ZM262.208 41.36C260.255 41.2352 258.312 41.6816 256.723 42.62C256.113 43.0601 255.557 43.5492 255.066 44.08C254.391 44.8341 253.567 45.4899 252.628 46.02C251.134 46.6906 249.456 47.035 247.753 47.02L245.511 47.11C238.503 47.37 231.251 47.65 226.559 51.51C220.843 56.25 222.062 64.3 223.281 68.69C223.926 71.4587 225.24 74.0937 227.144 76.44C228.733 78.0617 230.701 79.4066 232.932 80.3957C235.163 81.3848 237.612 81.9983 240.136 82.2C247.046 82.93 255.98 82.44 259.136 75.99C259.307 75.66 259.453 75.32 259.612 74.99C260.041 73.7314 260.811 72.569 261.866 71.59C263.889 69.96 266.741 69.95 269.471 69.93C271.153 69.9963 272.838 69.8547 274.468 69.51C277.795 68.64 279.745 66.1 281.781 63.41C283.816 60.72 285.863 58.07 289.373 56.95C291.521 56.2998 293.748 55.8438 296.016 55.59C299.672 55.08 302.731 54.65 306.034 52C308.081 50.36 311.165 47.22 308.727 44.68C308.448 44.4038 308.142 44.1463 307.813 43.91C307.263 43.5422 306.789 43.1031 306.412 42.61C305.999 41.9168 305.766 41.1608 305.729 40.39C305.729 40.11 305.656 39.84 305.607 39.57C305.01 36.73 301.78 34.27 296.954 32.99C294.748 32.4 287.204 30.65 282.89 32.99C281.284 33.9709 279.888 35.1638 278.758 36.52C277.348 38.2649 275.462 39.7166 273.249 40.76C270.751 41.76 267.875 41.6 265.108 41.46C264.084 41.41 263.134 41.36 262.208 41.36Z" fill="#231F20"/>
<path d="M168.888 54.0999L168.742 45.8999H177.651L178.882 56.0099L168.888 54.0999Z" fill="white"/>
<path d="M178.893 56.5099H178.746L168.753 54.5999C168.622 54.5742 168.505 54.5145 168.42 54.4298C168.334 54.345 168.284 54.2399 168.277 54.1299L168.131 45.9299C168.129 45.8634 168.144 45.7973 168.174 45.7355C168.204 45.6737 168.248 45.6174 168.305 45.5699C168.362 45.5224 168.43 45.4847 168.504 45.4589C168.579 45.4332 168.659 45.4199 168.74 45.4199H177.649C177.8 45.4195 177.945 45.4656 178.055 45.549C178.166 45.6324 178.234 45.747 178.247 45.8699L179.465 55.9799C179.477 56.0577 179.465 56.1366 179.431 56.2098C179.397 56.283 179.342 56.3483 179.27 56.3999C179.162 56.4685 179.03 56.5071 178.893 56.5099ZM169.496 53.6999L178.186 55.3599L177.077 46.3599H169.35L169.496 53.6999Z" fill="#231F20"/>
<path d="M177.651 45.9001L178.87 40.7301C178.87 40.7301 158.821 35.5001 159.906 38.0001C160.99 40.5001 168.766 45.9501 168.766 45.9501L177.651 45.9001Z" fill="#231F20"/>
<path d="M177.65 46.3997H168.741C168.599 46.3962 168.461 46.354 168.351 46.2797C168.022 46.0497 160.417 40.6597 159.308 38.1197C159.232 37.9661 159.211 37.7979 159.248 37.635C159.285 37.472 159.378 37.321 159.515 37.1997C161.173 35.7897 173.738 38.8697 179.015 40.1997C179.155 40.2387 179.273 40.3179 179.347 40.4227C179.421 40.5276 179.446 40.6509 179.417 40.7697L178.187 45.9997C178.163 46.1054 178.098 46.2018 178.001 46.2741C177.904 46.3464 177.781 46.3905 177.65 46.3997ZM168.973 45.3997H177.151L178.187 41.0697C170.533 39.0697 161.904 37.3797 160.49 37.8497C161.417 39.7597 166.742 43.8197 168.973 45.3997Z" fill="#231F20"/>
<path d="M164.146 88.3C164.146 87.51 167.656 52.11 167.656 52.11C167.656 52.11 180.758 51.59 180.441 52.11C180.124 52.63 183.634 88.3 183.634 88.3H164.146Z" fill="#231F20"/>
<path d="M183.635 88.7999H164.135C163.971 88.7974 163.814 88.7438 163.696 88.6499C163.586 88.5559 163.524 88.4303 163.525 88.2999C163.525 87.4999 166.901 53.5199 167.035 52.0699C167.05 51.9484 167.117 51.8353 167.224 51.7509C167.331 51.6665 167.472 51.6165 167.62 51.6099C180.381 51.0999 180.71 51.5198 180.941 51.7998C181.027 51.9279 181.053 52.0772 181.014 52.2199C180.88 53.3799 182.867 74.3799 184.232 88.2199C184.242 88.3587 184.185 88.4951 184.074 88.5998C184.021 88.6559 183.955 88.7026 183.879 88.737C183.804 88.7714 183.721 88.7928 183.635 88.7999ZM164.781 87.7999H182.977C180.295 60.4999 179.857 54.0398 179.844 52.4398C178.455 52.2998 173.178 52.4399 168.218 52.5899C167.084 63.9999 165.085 84.3199 164.781 87.7999Z" fill="#231F20"/>
<path d="M299.599 63.72C299.599 63.72 292.506 55.04 293.798 52.52C295.09 50 297.028 48.27 298.673 48.71C300.318 49.15 304.84 60.58 304.84 60.58L299.599 63.72Z" fill="white"/>
<path d="M299.598 64.22H299.488C299.326 64.1956 299.182 64.1203 299.086 64.01C298.343 63.1 291.859 55.01 293.236 52.34C294.772 49.34 296.978 47.74 298.843 48.25C300.707 48.76 303.998 56.93 305.387 60.43C305.429 60.5302 305.431 60.639 305.391 60.74C305.352 60.841 305.273 60.9287 305.168 60.99L299.952 64.13C299.85 64.1927 299.725 64.2245 299.598 64.22ZM298.111 49.14C296.99 49.14 295.467 50.56 294.358 52.72C293.553 54.3 297.1 59.72 299.744 63.01L304.095 60.39C301.987 55.16 299.342 49.61 298.428 49.18C298.326 49.152 298.219 49.1385 298.111 49.14Z" fill="#231F20"/>
<path d="M135.506 58.2102L130.131 51.4102L122.562 55.9602L127.072 63.3002L135.506 58.2102Z" fill="white"/>
<path d="M127.072 63.7998H126.926C126.839 63.7807 126.759 63.7468 126.689 63.7002C126.62 63.6537 126.564 63.5956 126.524 63.5298L122.014 56.1898C121.951 56.0837 121.935 55.9629 121.968 55.848C122.001 55.7331 122.082 55.6312 122.197 55.5598L129.778 50.9998C129.912 50.9216 130.078 50.8893 130.241 50.9098C130.323 50.9209 130.401 50.9462 130.471 50.9842C130.54 51.0221 130.599 51.0718 130.643 51.1298L136.018 57.9198C136.104 58.0269 136.138 58.1572 136.111 58.2839C136.083 58.4105 135.998 58.5237 135.871 58.5998L127.425 63.6898C127.327 63.7597 127.202 63.7987 127.072 63.7998ZM123.343 56.1098L127.291 62.5498L134.689 58.0798L129.973 52.1298L123.343 56.1098Z" fill="#231F20"/>
<path d="M130.131 51.4098C130.131 51.4098 125.78 45.4998 125.646 45.8998C125.512 46.2998 109.595 55.0798 109.815 55.9998C110.034 56.9198 122.563 55.9998 122.563 55.9998L130.131 51.4098Z" fill="#231F20"/>
<path d="M113.592 56.8599C109.448 56.8599 109.327 56.3599 109.253 56.0499C109.095 55.3999 109.997 54.6099 120.758 48.2899C122.794 47.0899 124.89 45.8599 125.195 45.6099C125.307 45.4867 125.473 45.4041 125.658 45.3799C126.084 45.3799 126.438 45.3199 130.691 51.1599C130.769 51.2648 130.796 51.3899 130.766 51.5102C130.737 51.6306 130.654 51.7375 130.533 51.8099L122.952 56.3599C122.861 56.4103 122.757 56.4412 122.648 56.4499C118.467 56.7499 115.53 56.8599 113.592 56.8599ZM110.728 55.7499C114.615 55.9041 118.51 55.8105 122.379 55.4699L129.363 51.2799C127.937 49.2799 126.365 47.2799 125.707 46.5699C125.146 46.9299 123.976 47.5699 121.478 49.0999C118.089 51.0499 112.166 54.5299 110.692 55.7499H110.728Z" fill="#231F20"/>
<path d="M286.496 59.3601C287.886 59.7501 299.732 79.8701 303.352 78.8201C306.971 77.7701 296.271 63.0001 296.271 63.0001L305.875 57.3501C305.875 57.3501 330.396 87.0901 321.011 93.5601C311.627 100.03 276.027 78.7001 276.027 78.7001L286.496 59.3601Z" fill="#FF6C22"/>
<path d="M282.719 54.8398C282.719 54.8398 274.395 46.9398 262 53.6698C249.606 60.3998 226.242 71.9998 226.242 71.9998L233.993 96.9198C233.993 96.9198 252.835 103.76 275.138 94.8098C294.712 86.9598 295.723 74.3498 293.176 69.1098C290.629 63.8698 282.719 54.8398 282.719 54.8398Z" fill="#FF6C22"/>
<path d="M273.944 92.47C273.815 92.4687 273.689 92.4338 273.586 92.3704C273.483 92.307 273.407 92.2183 273.369 92.1171C273.331 92.0159 273.333 91.9074 273.375 91.8073C273.417 91.7072 273.497 91.6206 273.602 91.56C273.773 91.46 290.957 81.91 293.919 71.83C293.962 71.7027 294.063 71.594 294.202 71.5268C294.341 71.4597 294.506 71.4393 294.662 71.47C294.819 71.5009 294.954 71.5813 295.039 71.6937C295.123 71.8061 295.15 71.9414 295.113 72.07C292.03 82.52 275.004 91.99 274.285 92.39C274.183 92.4439 274.065 92.4717 273.944 92.47Z" fill="#231F20"/>
<path d="M301.377 50.5298C301.377 50.5298 302.072 56.1198 300.841 56.6898C299.61 57.2598 297.66 55.6898 297.66 55.6898" fill="white"/>
<path d="M300.233 57.31C299.091 57.1751 298.036 56.7317 297.235 56.05C297.178 56.0035 297.132 55.9482 297.102 55.8873C297.071 55.8264 297.055 55.761 297.055 55.695C297.055 55.629 297.071 55.5636 297.102 55.5027C297.132 55.4418 297.178 55.3865 297.235 55.34C297.351 55.2478 297.506 55.1962 297.668 55.1962C297.829 55.1962 297.984 55.2478 298.1 55.34C298.624 55.76 299.916 56.54 300.538 56.25C301.159 55.96 301.111 53.25 300.769 50.58C300.755 50.5142 300.758 50.4469 300.776 50.3818C300.794 50.3168 300.828 50.2555 300.876 50.2014C300.924 50.1474 300.984 50.1017 301.054 50.0671C301.123 50.0325 301.201 50.0097 301.281 50C301.44 49.9885 301.599 50.0279 301.724 50.1098C301.849 50.1917 301.93 50.31 301.951 50.44C302.232 52.65 302.488 56.44 301.098 57.09C300.836 57.2206 300.539 57.2961 300.233 57.31Z" fill="#231F20"/>
<path d="M282.756 69.9197C278.198 66.9197 275.041 57.6997 275.139 57.5197C276.997 54.6601 279.031 51.8798 281.233 49.1897C281.233 49.1897 284.889 50.7697 289.301 48.1297C293.713 45.4897 297.832 47.8297 304.182 44.7397C305.4 47.0797 302.853 49.8297 301.586 51.7397C299.806 54.4931 297.946 57.2064 296.004 59.8797C294.785 61.5797 289.24 59.2497 288.594 58.3097C287.144 61.1797 287.144 61.1797 282.756 69.9197Z" fill="white"/>
<path d="M282.755 70.4197C282.611 70.4213 282.472 70.3785 282.365 70.2997C277.856 67.2997 274.212 57.9597 274.589 57.2997C276.441 54.4146 278.475 51.6108 280.683 48.8997C280.764 48.7939 280.891 48.7174 281.038 48.6858C281.185 48.6542 281.342 48.6699 281.475 48.7297C281.609 48.7897 284.851 50.1297 288.885 47.7297C290.905 46.6301 293.288 46.0679 295.71 46.1197C298.558 46.1084 301.353 45.4843 303.815 44.3097C303.89 44.2744 303.973 44.2517 304.059 44.2432C304.145 44.2346 304.232 44.2402 304.315 44.2597C304.397 44.2835 304.473 44.3205 304.538 44.3685C304.603 44.4166 304.655 44.4748 304.693 44.5397C305.826 46.7197 304.144 49.0797 302.791 50.9797C302.535 51.3497 302.292 51.6897 302.072 51.9797C300.293 54.7197 298.416 57.4697 296.478 60.1397C296.239 60.4324 295.908 60.6662 295.519 60.8159C295.13 60.9657 294.699 61.0258 294.272 60.9897C292.263 60.8251 290.35 60.2015 288.751 59.1897L283.279 70.0697C283.241 70.1403 283.184 70.203 283.112 70.2531C283.04 70.3033 282.956 70.3397 282.865 70.3597L282.755 70.4197ZM275.772 57.6097C276.04 58.6097 278.684 65.9497 282.511 69.0697C286.582 60.9797 286.618 60.9097 288.02 58.1597C288.062 58.0723 288.134 57.9965 288.227 57.9416C288.32 57.8866 288.43 57.8547 288.544 57.8497C288.66 57.8439 288.775 57.8652 288.877 57.9113C288.978 57.9573 289.062 58.0262 289.117 58.1097C290.562 59.1842 292.392 59.8471 294.333 59.9997C294.955 59.9997 295.296 59.8797 295.467 59.6397C297.392 56.9797 299.269 54.2497 301.036 51.5197C301.256 51.1797 301.512 50.8197 301.78 50.4497C302.864 48.9197 304.217 47.0497 303.803 45.4497C301.334 46.4986 298.6 47.0602 295.82 47.0897C293.631 47.0294 291.473 47.5253 289.641 48.5097C288.514 49.2668 287.174 49.7798 285.743 50.0017C284.313 50.2235 282.837 50.1472 281.451 49.7797C280.488 50.9997 277.246 55.1197 275.772 57.6097Z" fill="#231F20"/>
<path d="M297.222 57.8297C296.781 57.8703 296.334 57.8323 295.913 57.7183C295.492 57.6043 295.105 57.417 294.78 57.1692C294.455 56.9214 294.199 56.619 294.029 56.2825C293.859 55.9461 293.78 55.5836 293.797 55.2197" fill="white"/>
<path d="M297.075 58.3297C296.041 58.3443 295.036 58.0493 294.247 57.4997C293.886 57.2019 293.605 56.845 293.422 56.4522C293.239 56.0594 293.159 55.6395 293.187 55.2197C293.187 55.0871 293.251 54.9599 293.366 54.8662C293.48 54.7724 293.635 54.7197 293.796 54.7197C293.956 54.7223 294.108 54.7762 294.219 54.8697C294.331 54.9631 294.394 55.0888 294.394 55.2197C294.365 55.5023 294.41 55.7866 294.526 56.0539C294.641 56.3211 294.825 56.5651 295.064 56.7697C295.662 57.1585 296.41 57.3574 297.172 57.3297C297.253 57.3228 297.335 57.3297 297.412 57.3501C297.489 57.3704 297.561 57.4038 297.621 57.448C297.682 57.4922 297.731 57.5463 297.765 57.6069C297.799 57.6674 297.817 57.7331 297.818 57.7997C297.828 57.9308 297.775 58.0598 297.67 58.159C297.565 58.2582 297.417 58.3195 297.258 58.3297H297.075Z" fill="#231F20"/>
<path d="M288.582 58.3498C287.803 57.9698 287.128 57.4619 286.599 56.8579C286.071 56.2539 285.7 55.5669 285.51 54.8398C285.51 54.8398 283 59.1498 286.607 62.2498L288.582 58.3498Z" fill="#231F20"/>
<path d="M286.655 62.7501C286.573 62.7511 286.492 62.7383 286.417 62.7125C286.341 62.6867 286.273 62.6484 286.216 62.6001C282.353 59.2901 284.9 54.8201 284.998 54.6001C285.054 54.5024 285.147 54.4223 285.264 54.3719C285.38 54.3214 285.513 54.3032 285.644 54.3201C285.774 54.3401 285.894 54.3933 285.986 54.4723C286.078 54.5513 286.137 54.6519 286.155 54.7601C286.336 55.4076 286.675 56.0186 287.15 56.5564C287.625 57.0942 288.228 57.5478 288.922 57.8901C289.05 57.9494 289.147 58.0455 289.195 58.1599C289.242 58.2743 289.236 58.399 289.178 58.5101L287.204 62.4101C287.167 62.488 287.106 62.5566 287.027 62.6092C286.948 62.6618 286.853 62.6966 286.753 62.7101L286.655 62.7501ZM285.558 56.4301C285.281 57.2475 285.22 58.1041 285.379 58.9425C285.539 59.7808 285.916 60.5813 286.484 61.2901L287.874 58.5401C286.901 57.9927 286.093 57.2713 285.509 56.4301H285.558Z" fill="#231F20"/>
<path d="M301.546 48.9434C301.938 48.4214 302.051 47.8949 301.799 47.7675C301.547 47.6401 301.025 47.96 300.633 48.482C300.241 49.0041 300.128 49.5305 300.38 49.6579C300.633 49.7853 301.155 49.4654 301.546 48.9434Z" fill="#231F20"/>
<path d="M293.627 49.0001C293.974 48.2721 294.063 47.478 293.883 46.7101C293.857 46.1028 293.717 45.5025 293.468 44.9301C293.34 44.6458 293.137 44.3881 292.874 44.1755C292.611 43.9629 292.293 43.8006 291.945 43.7001C291.627 43.6377 291.296 43.6312 290.974 43.6812C290.653 43.7312 290.348 43.8365 290.08 43.9901C289.545 44.3016 289.104 44.7085 288.788 45.1801C288.076 46.1963 287.701 47.348 287.701 48.5201C287.701 49.6923 288.076 50.844 288.788 51.8601L288.715 51.6101" fill="white"/>
<path d="M288.763 52.36C288.657 52.3585 288.553 52.3347 288.461 52.291C288.369 52.2472 288.293 52.1849 288.239 52.11C287.476 51.0153 287.074 49.7761 287.074 48.515C287.074 47.2539 287.476 46.0147 288.239 44.92C288.598 44.3833 289.103 43.9215 289.714 43.57C290.056 43.375 290.445 43.2429 290.855 43.1825C291.265 43.1221 291.687 43.1349 292.09 43.22C292.528 43.3386 292.928 43.537 293.259 43.8002C293.59 44.0634 293.845 44.3847 294.004 44.74C294.281 45.3557 294.438 46.0039 294.467 46.66C294.656 47.5249 294.542 48.4162 294.138 49.23C294.065 49.3478 293.938 49.437 293.785 49.4782C293.632 49.5195 293.465 49.5093 293.321 49.45C293.178 49.3901 293.069 49.2859 293.019 49.1604C292.968 49.0348 292.981 48.8981 293.053 48.78C293.341 48.1409 293.413 47.4498 293.26 46.78C293.223 46.2253 293.096 45.6772 292.882 45.15C292.788 44.9351 292.638 44.7397 292.442 44.5773C292.246 44.415 292.01 44.2896 291.749 44.21C291.514 44.1686 291.272 44.1677 291.037 44.2073C290.802 44.2469 290.58 44.3261 290.384 44.44C289.931 44.7009 289.556 45.0428 289.287 45.44C288.64 46.3588 288.291 47.3985 288.274 48.4596C288.257 49.5206 288.572 50.5675 289.189 51.5H289.25L289.336 51.75C289.371 51.8667 289.355 51.99 289.29 52.098C289.226 52.2059 289.117 52.2917 288.982 52.34C288.911 52.358 288.837 52.3648 288.763 52.36Z" fill="#231F20"/>
<path d="M226.241 72C220.282 70 206.071 72.44 197.113 74.89C188.155 77.34 158.686 83.93 158.686 83.93L137.078 56C137.078 56 121.746 60.54 122.599 61.59C123.452 62.64 137.967 91 152.422 96.72C166.876 102.44 235.613 97.2 235.613 97.2L226.241 72Z" fill="#231F20"/>
<path d="M182.794 99.91C169.388 99.91 157.408 99.24 152.167 97.17C143.636 93.8 133.886 82.46 123.051 63.46C122.588 62.65 122.186 61.94 122.088 61.83C122.02 61.7416 121.978 61.6418 121.963 61.538C121.948 61.4341 121.962 61.3289 122.003 61.23C122.551 59.86 132.594 56.76 136.884 55.49C137.014 55.4517 137.156 55.4506 137.286 55.4869C137.417 55.5232 137.528 55.5948 137.603 55.69L158.895 83.35C162.551 82.52 188.681 76.62 196.932 74.35C204.244 72.35 219.747 69.2 226.474 71.48C226.557 71.5105 226.631 71.5547 226.692 71.6098C226.753 71.6648 226.799 71.7296 226.828 71.8L236.2 97.05C236.224 97.1203 236.231 97.1941 236.218 97.2664C236.205 97.3388 236.174 97.4082 236.127 97.47C236.075 97.5305 236.007 97.5814 235.93 97.6193C235.852 97.6572 235.766 97.6813 235.676 97.69C233.884 97.83 206.292 99.91 182.794 99.91ZM123.234 61.47C123.392 61.72 123.673 62.2 124.148 63.04C134.861 81.83 144.465 93.04 152.691 96.27C166.097 101.57 227.352 97.27 234.823 96.76L225.719 72.33C219.625 70.47 205.451 73.07 197.285 75.33C188.425 77.75 159.065 84.33 158.761 84.43C158.635 84.4584 158.501 84.4523 158.38 84.4126C158.259 84.3728 158.157 84.3017 158.09 84.21L136.835 56.56C130.656 58.39 124.221 60.64 123.234 61.47Z" fill="#231F20"/>
<path d="M284.717 97.0897V92.7597H319.488L333.771 63.7197H384.252L367.689 92.6197V97.0897H284.717Z" fill="white"/>
<path d="M367.689 97.5897H284.717C284.555 97.5897 284.4 97.5371 284.286 97.4433C284.172 97.3495 284.107 97.2223 284.107 97.0897V92.7597C284.107 92.6271 284.172 92.5 284.286 92.4062C284.4 92.3124 284.555 92.2597 284.717 92.2597H319.073L333.211 63.5297C333.255 63.4376 333.332 63.3587 333.433 63.3034C333.533 63.248 333.651 63.2189 333.771 63.2197H384.252C384.354 63.2199 384.454 63.241 384.544 63.2812C384.633 63.3214 384.709 63.3793 384.764 63.4497C384.814 63.523 384.841 63.6057 384.841 63.6897C384.841 63.7738 384.814 63.8565 384.764 63.9297L368.311 92.7297V97.0897C368.311 97.1563 368.295 97.2221 368.263 97.2834C368.232 97.3448 368.186 97.4003 368.128 97.4469C368.07 97.4934 368.002 97.5301 367.926 97.5546C367.851 97.5791 367.77 97.5911 367.689 97.5897ZM285.326 96.5897H367.092V92.5897C367.095 92.5171 367.116 92.4457 367.153 92.3797L383.301 64.1897H334.186L320.048 92.9997C320.004 93.0918 319.927 93.1708 319.827 93.2261C319.727 93.2814 319.608 93.3106 319.488 93.3097H285.363L285.326 96.5897Z" fill="#231F20"/>
<path d="M249.58 59.9998C249.58 59.9998 255.333 96.3598 259.33 97.2398C263.328 98.1198 304.424 91.0598 304.424 91.0598L301.621 79.2698C301.621 79.2698 272.151 83.5798 272.627 79.2698C273.102 74.9598 269.324 58.7798 269.324 58.7798L249.58 59.9998Z" fill="#FF6C22"/>
<path d="M259.588 97.0799C258.117 97.1075 256.648 97.0137 255.2 96.7999C252.348 96.2999 250.264 93.8999 248.985 89.6699C247.437 84.5399 247.473 78.0499 247.632 74.6699C247.632 74.5899 248.022 66.3299 249.18 65.5299C249.305 65.4453 249.465 65.4042 249.627 65.4154C249.789 65.4266 249.939 65.4892 250.045 65.5899C250.141 65.6837 250.194 65.8024 250.194 65.9249C250.194 66.0475 250.141 66.1662 250.045 66.2599C249.228 67.4399 247.12 84.1399 251.264 92.2599C252.361 94.3799 253.774 95.5999 255.468 95.8999C265.218 97.5999 303.975 90.6699 304.365 90.5999C304.445 90.5855 304.527 90.5841 304.608 90.5959C304.689 90.6077 304.766 90.6324 304.835 90.6686C304.904 90.7048 304.963 90.7518 305.01 90.807C305.057 90.8621 305.09 90.9243 305.108 90.9899C305.126 91.0556 305.127 91.1235 305.113 91.1897C305.099 91.2558 305.068 91.3191 305.024 91.3757C304.98 91.4324 304.923 91.4813 304.856 91.5198C304.789 91.5583 304.713 91.5855 304.633 91.5999C303.195 91.7499 273.25 97.0799 259.588 97.0799Z" fill="#231F20"/>
<path d="M275.858 81.71C274.941 81.6987 274.066 81.3936 273.42 80.86C268.314 76.93 268.765 59.46 268.777 58.71C268.789 58.5791 268.861 58.4569 268.979 58.3679C269.096 58.2789 269.25 58.2296 269.41 58.23C269.49 58.2313 269.568 58.2455 269.641 58.272C269.714 58.2985 269.779 58.3366 269.834 58.3841C269.888 58.4316 269.931 58.4875 269.958 58.5486C269.986 58.6098 269.999 58.6748 269.995 58.74C269.995 58.92 269.545 76.51 274.261 80.13C274.49 80.328 274.769 80.4818 275.079 80.5804C275.389 80.679 275.721 80.7198 276.053 80.7C283.365 80.16 301.451 78.7 301.646 78.7C301.805 78.6938 301.96 78.7366 302.082 78.8199C302.204 78.9032 302.283 79.021 302.305 79.15C302.313 79.2157 302.305 79.2821 302.282 79.3455C302.259 79.4088 302.221 79.4677 302.17 79.5188C302.119 79.57 302.056 79.6123 301.985 79.6434C301.914 79.6745 301.836 79.6937 301.756 79.7C301.573 79.7 283.475 81.14 276.162 81.7L275.858 81.71Z" fill="#231F20"/>
<path d="M303.352 81.1901C303.352 81.1901 312.078 76.3101 313.711 77.5401C315.344 78.7701 322.742 86.6401 320.755 87.2301C318.769 87.8201 315.515 85.0001 315.515 85.0001C315.515 85.0001 313.577 87.5301 305.874 86.6401L303.352 81.1901Z" fill="white"/>
<path d="M320.171 87.8099C318.44 87.8099 316.442 86.4299 315.54 85.7299C314.528 86.4799 311.883 87.8299 305.79 87.1299C305.68 87.1187 305.577 87.0828 305.491 87.0264C305.405 86.9699 305.34 86.895 305.302 86.8099L302.779 81.3699C302.729 81.2648 302.725 81.1486 302.767 81.0411C302.809 80.9336 302.895 80.8413 303.011 80.7799C305.753 79.2499 312.334 75.7799 314.126 77.1799C315.479 78.1799 322.158 85.0099 321.67 87.0099C321.639 87.1666 321.557 87.3134 321.432 87.4348C321.308 87.5563 321.146 87.6479 320.963 87.6999C320.708 87.7723 320.441 87.8095 320.171 87.8099ZM315.515 84.5099C315.597 84.5084 315.679 84.5209 315.754 84.5467C315.83 84.5726 315.898 84.6111 315.954 84.6599C317.112 85.6599 319.379 87.1099 320.549 86.7599C320.744 86.2099 316.563 80.3799 313.297 77.9099C312.639 77.4199 308.422 79.0299 304.096 81.3899L306.314 86.1799C313.151 86.8899 314.991 84.7499 315.003 84.7299C315.058 84.6687 315.127 84.6175 315.207 84.5796C315.286 84.5417 315.375 84.5179 315.467 84.5099H315.515Z" fill="#231F20"/>
<path d="M164.148 81.6997C164.009 81.7003 163.874 81.6619 163.765 81.591C163.657 81.52 163.581 81.4208 163.55 81.3097C163.532 81.246 163.53 81.18 163.544 81.1155C163.558 81.0511 163.587 80.9896 163.63 80.9346C163.673 80.8796 163.73 80.8323 163.795 80.7954C163.861 80.7585 163.935 80.7328 164.013 80.7197L183.513 77.1897C183.67 77.1629 183.833 77.1877 183.968 77.2588C184.102 77.3299 184.198 77.4416 184.233 77.5697C184.251 77.6341 184.253 77.7007 184.239 77.7658C184.226 77.8309 184.196 77.8931 184.153 77.9489C184.11 78.0047 184.054 78.053 183.988 78.0909C183.922 78.1287 183.848 78.1556 183.769 78.1697L164.269 81.6897L164.148 81.6997Z" fill="white"/>
<path d="M367.093 93.2598H319.439C319.278 93.2598 319.123 93.2071 319.009 93.1133C318.894 93.0196 318.83 92.8924 318.83 92.7598C318.83 92.6272 318.894 92.5 319.009 92.4062C319.123 92.3124 319.278 92.2598 319.439 92.2598H367.093C367.253 92.2623 367.406 92.3158 367.52 92.409C367.634 92.5023 367.699 92.628 367.702 92.7598C367.702 92.8924 367.638 93.0196 367.523 93.1133C367.409 93.2071 367.254 93.2598 367.093 93.2598Z" fill="#231F20"/>
<path d="M390.249 106.13V253.24C390.249 258.68 382.802 263.1 373.589 263.1H124.964C115.774 263.1 108.291 258.68 108.291 253.24V106.13C108.291 100.69 115.774 96.27 124.964 96.27H373.589C382.814 96.27 390.249 100.69 390.249 106.13Z" fill="white"/>
<path d="M373.6 263.6H124.975C115.445 263.6 107.693 258.95 107.693 253.24V106.12C107.693 100.41 115.445 95.77 124.975 95.77H373.6C383.119 95.77 390.87 100.41 390.87 106.12V253.24C390.87 259 383.119 263.6 373.6 263.6ZM124.975 96.77C116.115 96.77 108.912 100.96 108.912 106.12V253.24C108.912 258.4 116.115 262.6 124.975 262.6H373.6C382.448 262.6 389.651 258.4 389.651 253.24V106.12C389.651 100.96 382.448 96.77 373.6 96.77H124.975Z" fill="#231F20"/>
<path d="M390.249 106.13V113.87H108.34V106.13C108.34 100.69 115.823 96.27 125.012 96.27H373.637C382.815 96.27 390.249 100.69 390.249 106.13Z" fill="white"/>
<path d="M390.249 114.37H108.34C108.178 114.37 108.023 114.317 107.909 114.224C107.795 114.13 107.73 114.003 107.73 113.87V106.12C107.73 100.41 115.482 95.77 125.012 95.77H373.637C383.156 95.77 390.907 100.41 390.907 106.12V113.87C390.907 113.939 390.89 114.008 390.856 114.071C390.823 114.135 390.774 114.192 390.712 114.239C390.65 114.285 390.577 114.321 390.497 114.344C390.417 114.367 390.333 114.376 390.249 114.37ZM108.937 113.37H389.652V106.12C389.652 100.96 382.449 96.77 373.601 96.77H124.976C116.115 96.77 108.913 100.96 108.913 106.12L108.937 113.37Z" fill="#231F20"/>
<path d="M345.972 124.71H155.396V140.27H345.972V124.71Z" fill="white"/>
<path d="M345.972 140.77H155.396C155.235 140.77 155.08 140.717 154.966 140.624C154.851 140.53 154.787 140.403 154.787 140.27V124.71C154.787 124.577 154.851 124.45 154.966 124.356C155.08 124.263 155.235 124.21 155.396 124.21H345.972C346.133 124.213 346.286 124.266 346.4 124.359C346.513 124.452 346.579 124.578 346.582 124.71V140.27C346.582 140.403 346.518 140.53 346.403 140.624C346.289 140.717 346.134 140.77 345.972 140.77ZM156.006 139.77H345.363V125.21H156.006V139.77Z" fill="#231F20"/>
<path d="M345.973 124.71H320.123V140.27H345.973V124.71Z" fill="#FF6C22"/>
<path d="M345.973 140.77H320.123C319.961 140.77 319.806 140.717 319.692 140.624C319.578 140.53 319.514 140.403 319.514 140.27V124.71C319.514 124.577 319.578 124.45 319.692 124.356C319.806 124.263 319.961 124.21 320.123 124.21H345.973C346.133 124.213 346.287 124.266 346.4 124.359C346.514 124.452 346.579 124.578 346.582 124.71V140.27C346.582 140.403 346.518 140.53 346.404 140.624C346.289 140.717 346.134 140.77 345.973 140.77ZM320.732 139.77H345.363V125.21H320.781L320.732 139.77Z" fill="#231F20"/>
<path d="M372.334 151.05H273.98V231.75H372.334V151.05Z" fill="#E6E7E8"/>
<path d="M243.927 153.06H134.52V155.06H243.927V153.06Z" fill="#FF6C22"/>
<path d="M207.291 159.04H134.52V161.04H207.291V159.04Z" fill="#FF6C22"/>
<path d="M251.849 165.01H134.52V167.01H251.849V165.01Z" fill="#D1D3D4"/>
<path d="M237.65 170.99H134.52V172.99H237.65V170.99Z" fill="#D1D3D4"/>
<path d="M150.862 177.37H135.348V178.37H150.862V177.37Z" fill="#D1D3D4"/>
<path d="M163.976 177.37H155.396V178.37H163.976V177.37Z" fill="#D1D3D4"/>
<path d="M176.225 177.37H167.938V178.37H176.225V177.37Z" fill="#D1D3D4"/>
<path d="M220.332 189.16H134.52V191.16H220.332V189.16Z" fill="#FF6C22"/>
<path d="M237.65 195.14H134.52V197.14H237.65V195.14Z" fill="#FF6C22"/>
<path d="M203.501 201.11H134.52V203.11H203.501V201.11Z" fill="#D1D3D4"/>
<path d="M224.951 207.09H134.52V209.09H224.951V207.09Z" fill="#D1D3D4"/>
<path d="M143.099 213.47H135.348V214.47H143.099V213.47Z" fill="#D1D3D4"/>
<path d="M163.977 213.47H147.061V214.47H163.977V213.47Z" fill="#D1D3D4"/>
<path d="M173.544 213.47H167.938V214.47H173.544V213.47Z" fill="#D1D3D4"/>
<path d="M230.472 225.26H134.52V227.26H230.472V225.26Z" fill="#FF6C22"/>
<path d="M243.927 231.24H134.52V233.24H243.927V231.24Z" fill="#FF6C22"/>
<path d="M209.436 237.21H134.52V239.21H209.436V237.21Z" fill="#D1D3D4"/>
<path d="M196.237 243.18H134.52V245.18H196.237V243.18Z" fill="#D1D3D4"/>
<path d="M155.518 249.57H135.348V250.57H155.518V249.57Z" fill="#D1D3D4"/>
<path d="M172.081 249.57H160.674V250.57H172.081V249.57Z" fill="#D1D3D4"/>
<path d="M127.133 108.36C129.354 108.36 131.155 106.882 131.155 105.06C131.155 103.237 129.354 101.76 127.133 101.76C124.912 101.76 123.111 103.237 123.111 105.06C123.111 106.882 124.912 108.36 127.133 108.36Z" fill="#FF6C22"/>
<path d="M139.223 108.36C141.444 108.36 143.245 106.882 143.245 105.06C143.245 103.237 141.444 101.76 139.223 101.76C137.002 101.76 135.201 103.237 135.201 105.06C135.201 106.882 137.002 108.36 139.223 108.36Z" fill="#E6E7E8"/>
<path d="M151.313 108.36C153.534 108.36 155.335 106.882 155.335 105.06C155.335 103.237 153.534 101.76 151.313 101.76C149.092 101.76 147.291 103.237 147.291 105.06C147.291 106.882 149.092 108.36 151.313 108.36Z" fill="#E6E7E8"/>
<path d="M329.97 135.73C328.778 135.728 327.623 135.387 326.703 134.766C325.782 134.144 325.153 133.28 324.922 132.32C324.691 131.36 324.872 130.364 325.435 129.502C325.999 128.64 326.908 127.964 328.01 127.591C329.112 127.217 330.338 127.168 331.478 127.453C332.619 127.737 333.604 128.337 334.267 129.151C334.929 129.964 335.227 130.941 335.11 131.914C334.993 132.888 334.469 133.798 333.626 134.49C333.147 134.885 332.577 135.198 331.95 135.411C331.322 135.624 330.649 135.732 329.97 135.73ZM329.97 128.28C329.454 128.278 328.943 128.36 328.466 128.522C327.989 128.683 327.556 128.92 327.191 129.22C326.639 129.671 326.263 130.247 326.11 130.874C325.957 131.501 326.034 132.151 326.332 132.741C326.629 133.332 327.134 133.837 327.782 134.193C328.429 134.548 329.191 134.738 329.97 134.738C330.749 134.738 331.511 134.548 332.158 134.193C332.806 133.837 333.311 133.332 333.608 132.741C333.906 132.151 333.983 131.501 333.83 130.874C333.677 130.247 333.301 129.671 332.749 129.22C332.384 128.92 331.951 128.683 331.474 128.522C330.997 128.36 330.486 128.278 329.97 128.28Z" fill="#231F20"/>
<path d="M336.929 137.71C336.764 137.71 336.606 137.656 336.49 137.56L332.748 134.49C332.637 134.397 332.574 134.271 332.574 134.14C332.574 134.009 332.637 133.883 332.748 133.79C332.805 133.743 332.872 133.706 332.947 133.681C333.021 133.655 333.101 133.642 333.181 133.642C333.262 133.642 333.341 133.655 333.415 133.681C333.49 133.706 333.557 133.743 333.614 133.79L337.355 136.86C337.439 136.93 337.495 137.018 337.518 137.114C337.541 137.21 337.529 137.31 337.484 137.4C337.438 137.491 337.361 137.568 337.263 137.624C337.164 137.679 337.048 137.709 336.929 137.71Z" fill="#231F20"/>
<path d="M407.702 178.93H307.631V239.84H407.702V178.93Z" fill="white"/>
<path d="M407.702 240.34H307.631C307.469 240.34 307.314 240.288 307.2 240.194C307.086 240.1 307.021 239.973 307.021 239.84V178.93C307.021 178.798 307.086 178.67 307.2 178.577C307.314 178.483 307.469 178.43 307.631 178.43H407.702C407.863 178.433 408.016 178.486 408.13 178.579C408.243 178.673 408.309 178.798 408.312 178.93V239.84C408.312 239.973 408.248 240.1 408.133 240.194C408.019 240.288 407.864 240.34 407.702 240.34ZM308.24 239.34H407.093V179.43H308.24V239.34Z" fill="#231F20"/>
<path d="M318.343 228.35H318.221C309.482 228.12 307.081 221.29 307.057 221.22C307.035 221.155 307.03 221.086 307.04 221.019C307.051 220.951 307.078 220.886 307.119 220.827C307.16 220.768 307.215 220.716 307.281 220.675C307.347 220.633 307.422 220.603 307.502 220.585C307.582 220.567 307.665 220.563 307.748 220.572C307.83 220.58 307.909 220.602 307.981 220.636C308.053 220.67 308.116 220.715 308.166 220.769C308.217 220.823 308.254 220.885 308.276 220.95C308.361 221.21 310.482 227.14 318.306 227.35H318.343C322.194 227.35 324.912 218.88 327.3 211.35C329.738 203.55 332.175 196.18 336.136 195.42C336.921 195.241 337.742 195.195 338.549 195.286C339.356 195.377 340.132 195.603 340.829 195.95C344.363 197.78 345.704 202.9 347.324 208.82C348.127 212.18 349.194 215.493 350.518 218.74C352.638 223.56 356.611 226.55 360.438 226.19C365.179 225.74 368.762 220.3 369.993 211.63C373.515 186.91 383.972 184.2 388.274 184.18H388.433C399.207 184.18 404.776 188.93 408.286 201.09C408.305 201.156 408.307 201.224 408.294 201.29C408.28 201.357 408.251 201.42 408.207 201.477C408.119 201.593 407.979 201.675 407.817 201.705C407.656 201.736 407.486 201.712 407.345 201.64C407.205 201.568 407.105 201.453 407.068 201.32C403.667 189.57 398.609 185.18 388.396 185.18H388.25C379.902 185.18 373.503 195.18 371.188 211.75C369.871 221.04 365.996 226.67 360.56 227.18C356.185 227.61 351.675 224.34 349.36 219.08C348.022 215.807 346.939 212.467 346.118 209.08C344.655 203.61 343.278 198.45 340.158 196.83C339.598 196.554 338.975 196.375 338.326 196.306C337.678 196.238 337.02 196.28 336.392 196.43C333.126 197.06 330.652 204.81 328.47 211.64C325.655 220.23 323.108 228.35 318.343 228.35Z" fill="#231F20"/>
<path d="M398.378 215.56H384.398C384.237 215.56 384.082 215.507 383.968 215.414C383.853 215.32 383.789 215.193 383.789 215.06C383.789 214.927 383.853 214.8 383.968 214.707C384.082 214.613 384.237 214.56 384.398 214.56H398.378C398.539 214.56 398.694 214.613 398.808 214.707C398.923 214.8 398.987 214.927 398.987 215.06C398.987 215.193 398.923 215.32 398.808 215.414C398.694 215.507 398.539 215.56 398.378 215.56Z" fill="#FF6C22"/>
<path d="M398.378 220.29H384.398C384.237 220.29 384.082 220.237 383.968 220.144C383.853 220.05 383.789 219.923 383.789 219.79C383.789 219.657 383.853 219.53 383.968 219.436C384.082 219.343 384.237 219.29 384.398 219.29H398.378C398.539 219.29 398.694 219.343 398.808 219.436C398.923 219.53 398.987 219.657 398.987 219.79C398.987 219.923 398.923 220.05 398.808 220.144C398.694 220.237 398.539 220.29 398.378 220.29Z" fill="#D1D3D4"/>
<path d="M391.382 225H384.398C384.237 225 384.082 224.947 383.968 224.854C383.853 224.76 383.789 224.633 383.789 224.5C383.789 224.367 383.853 224.24 383.968 224.146C384.082 224.053 384.237 224 384.398 224H391.382C391.543 224 391.698 224.053 391.813 224.146C391.927 224.24 391.991 224.367 391.991 224.5C391.991 224.633 391.927 224.76 391.813 224.854C391.698 224.947 391.543 225 391.382 225Z" fill="#D1D3D4"/>
<path d="M331.749 185.22H317.77C317.608 185.22 317.453 185.167 317.339 185.073C317.224 184.98 317.16 184.852 317.16 184.72C317.16 184.587 317.224 184.46 317.339 184.366C317.453 184.272 317.608 184.22 317.77 184.22H331.749C331.91 184.22 332.065 184.272 332.179 184.366C332.294 184.46 332.358 184.587 332.358 184.72C332.355 184.852 332.29 184.977 332.176 185.07C332.062 185.164 331.909 185.217 331.749 185.22Z" fill="#D1D3D4"/>
<path d="M331.749 190H317.77C317.608 190 317.453 189.947 317.339 189.854C317.224 189.76 317.16 189.633 317.16 189.5C317.16 189.367 317.224 189.24 317.339 189.146C317.453 189.053 317.608 189 317.77 189H331.749C331.909 189.003 332.062 189.056 332.176 189.149C332.29 189.242 332.355 189.368 332.358 189.5C332.358 189.633 332.294 189.76 332.179 189.854C332.065 189.947 331.91 190 331.749 190Z" fill="#D1D3D4"/>
<path d="M324.753 194.69H317.77C317.608 194.69 317.453 194.637 317.339 194.543C317.224 194.45 317.16 194.323 317.16 194.19C317.16 194.057 317.224 193.93 317.339 193.836C317.453 193.743 317.608 193.69 317.77 193.69H324.753C324.915 193.69 325.07 193.743 325.184 193.836C325.298 193.93 325.362 194.057 325.362 194.19C325.362 194.323 325.298 194.45 325.184 194.543C325.07 194.637 324.915 194.69 324.753 194.69Z" fill="#D1D3D4"/>
<path d="M139.961 191.162L127.828 186.074L113.086 209.742L125.219 214.83L139.961 191.162Z" fill="#231F20"/>
<path d="M125.207 215.33C125.113 215.329 125.021 215.308 124.939 215.27L112.751 210.19C112.679 210.161 112.615 210.121 112.562 210.072C112.509 210.022 112.469 209.964 112.444 209.902C112.419 209.839 112.409 209.773 112.416 209.708C112.423 209.642 112.446 209.578 112.483 209.52L127.23 185.85C127.265 185.791 127.314 185.738 127.375 185.695C127.436 185.652 127.507 185.62 127.584 185.6C127.732 185.55 127.898 185.55 128.047 185.6L140.234 190.69C140.305 190.72 140.369 190.76 140.42 190.81C140.472 190.86 140.511 190.918 140.534 190.981C140.558 191.043 140.567 191.109 140.559 191.174C140.551 191.239 140.528 191.302 140.49 191.36L125.78 215.06C125.702 215.173 125.576 215.258 125.426 215.3C125.357 215.323 125.282 215.334 125.207 215.33ZM113.897 209.53L124.951 214.16L139.186 191.38L128.144 186.74L113.897 209.53Z" fill="#231F20"/>
<path d="M128.772 207.84L117.898 203.281C116.405 202.655 114.577 203.14 113.814 204.365L88.4845 245.032C87.7218 246.256 88.3133 247.756 89.8057 248.382L100.68 252.942C102.172 253.568 104 253.082 104.763 251.858L130.093 211.191C130.856 209.966 130.264 208.466 128.772 207.84Z" fill="white"/>
<path d="M102.064 253.72C101.491 253.721 100.927 253.608 100.419 253.39L89.5233 248.83C88.6727 248.467 88.0301 247.844 87.7337 247.096C87.4374 246.348 87.5111 245.534 87.9389 244.83L113.277 204.16C113.719 203.462 114.478 202.935 115.39 202.692C116.302 202.449 117.294 202.509 118.152 202.86L129.035 207.42C129.886 207.783 130.528 208.406 130.825 209.154C131.121 209.902 131.047 210.716 130.62 211.42L105.306 252.09C105 252.58 104.535 252.991 103.964 253.278C103.392 253.566 102.735 253.719 102.064 253.72ZM116.519 203.51C116.266 203.508 116.014 203.542 115.775 203.61C115.471 203.692 115.19 203.823 114.947 203.995C114.704 204.166 114.505 204.375 114.361 204.61L89.0236 245.27C88.7374 245.74 88.6882 246.284 88.8866 246.784C89.085 247.283 89.5151 247.699 90.0839 247.94L100.967 252.5C101.539 252.736 102.2 252.778 102.809 252.617C103.418 252.456 103.925 252.105 104.221 251.64L129.559 211C129.845 210.53 129.895 209.986 129.696 209.487C129.498 208.987 129.068 208.572 128.499 208.33L117.615 203.77C117.282 203.61 116.905 203.52 116.519 203.51Z" fill="#231F20"/>
<path d="M161.807 142.39C155.639 139.799 148.674 138.768 141.792 139.427C134.91 140.086 128.421 142.405 123.147 146.091C117.872 149.778 114.049 154.665 112.161 160.135C110.273 165.604 110.405 171.411 112.541 176.819C114.676 182.227 118.719 186.994 124.158 190.516C129.597 194.038 136.187 196.157 143.094 196.604C150.001 197.052 156.914 195.808 162.959 193.03C169.004 190.253 173.909 186.066 177.053 181C181.261 174.219 182.019 166.346 179.16 159.108C176.302 151.87 170.061 145.857 161.807 142.39ZM134.007 187C129.416 185.074 125.623 182.075 123.11 178.381C120.596 174.688 119.474 170.465 119.885 166.248C120.296 162.031 122.222 158.008 125.419 154.689C128.616 151.37 132.941 148.904 137.847 147.602C142.753 146.299 148.019 146.22 152.98 147.374C157.941 148.528 162.373 150.862 165.716 154.083C169.06 157.304 171.164 161.265 171.763 165.467C172.362 169.669 171.43 173.923 169.083 177.69C165.936 182.741 160.472 186.559 153.894 188.305C147.317 190.051 140.163 189.581 134.007 187Z" fill="white"/>
<path d="M145.841 197.21C136.842 197.229 128.166 194.464 121.544 189.465C114.922 184.466 110.841 177.602 110.116 170.243C109.391 162.884 112.076 155.571 117.633 149.764C123.191 143.958 131.213 140.085 140.098 138.918C148.984 137.752 158.078 139.378 165.566 143.472C173.055 147.565 178.386 153.826 180.496 161.003C182.605 168.181 181.338 175.747 176.948 182.191C172.557 188.636 165.366 193.485 156.809 195.77C153.268 196.72 149.566 197.206 145.841 197.21ZM145.914 139.73C142.305 139.734 138.72 140.199 135.286 141.11C127.09 143.298 120.201 147.941 115.992 154.113C111.783 160.284 110.564 167.531 112.578 174.407C114.591 181.283 119.69 187.284 126.856 191.213C134.023 195.142 142.731 196.71 151.244 195.604C159.757 194.499 167.449 190.801 172.787 185.249C178.125 179.696 180.716 172.697 180.043 165.646C179.371 158.596 175.484 152.013 169.158 147.209C162.833 142.406 154.533 139.735 145.914 139.73ZM145.828 189.85C141.625 189.849 137.481 189.03 133.738 187.46C127.912 185.023 123.378 180.916 120.996 175.918C118.615 170.921 118.552 165.38 120.818 160.346C123.085 155.313 127.524 151.137 133.294 148.61C139.063 146.084 145.762 145.382 152.12 146.639C158.478 147.896 164.053 151.024 167.787 155.429C171.522 159.834 173.156 165.211 172.38 170.539C171.604 175.867 168.472 180.777 163.578 184.336C158.684 187.895 152.368 189.857 145.828 189.85ZM134.311 186.57C138.791 188.445 143.848 189.189 148.843 188.709C153.838 188.228 158.548 186.545 162.378 183.87C166.209 181.196 168.988 177.651 170.365 173.682C171.743 169.713 171.657 165.499 170.118 161.57C168.567 157.641 165.631 154.177 161.682 151.616C157.732 149.055 152.947 147.513 147.929 147.183C142.911 146.853 137.887 147.752 133.492 149.764C129.096 151.777 125.526 154.813 123.233 158.49C120.177 163.421 119.627 169.144 121.703 174.407C123.78 179.67 128.313 184.044 134.311 186.57Z" fill="#231F20"/>
</svg>
